<svg xmlns="http://www.w3.org/2000/svg" height="2666.667" width="4273.333"><defs><clipPath id="a" clipPathUnits="userSpaceOnUse"><path d="M9594.2 2190.5c-216.66 0-392.29 176.2-392.29 393.6 0 217.4 175.63 393.7 392.29 393.7 216.66 0 392.3-176.3 392.3-393.7 0-217.4-175.64-393.6-392.3-393.6"/></clipPath></defs><path d="M4273.338 2666.667H0V-.001h4273.338v2666.668" fill="#fff"/><path d="M4085.932 2405.054h-2318.84c56.108-8.84 99.933-54.801 105.721-112.055.439-4.25.652-8.56.652-12.932v-1.68h950.816c19.954 0 35.42-16.308 35.445-35.68 0-1.601-.1-3.213-.326-4.853a239.194 239.194 0 01-1.73-19.093c121.15-2.133 330.109-6.48 446.019-8.922-.25 4.187-.577 8.348-1.003 12.481 0 .106-.025.213-.025.306v.015c-.025.294-.05.587-.1.88a47.041 47.041 0 00-.276 4.933c-.025 24.466 19.603 44.933 44.67 44.933h172.687c31.409 0 56.852-25.453 56.852-56.855v-44.679c0-9.44-5.615-17.6-13.712-21.28v-90.346c0-19.986-1.278-39.975-4.286-59.748-17.597-115.96-74.424-140.318-242.6-173.945-185.57-37.12-421.126-158.133-421.126-158.133s-401.798-196.854-500.223-219.455c-58.695-13.466-168.469-16.612-290.616-16.612-75.13 0-154.932 1.201-230.466 1.893V746.143h51.174v296.747h68.386v101.662h47.173v207.889h56.587V685.699h30.667V581.29h268.827V685.7h30.667v494.766l89.612-2.358V861.545h254.681l11.43 595.057 38.103-2.362v-200.857h82.546v-158h49.507V989.26h193.368v106.122h49.532v158h82.546v370.777l70.74-2.359v-367.729h236.507v402.168h144.436v-174.534h174.542v391.974h181.436v531.374" fill="#e6ebf7"/><path d="M1005.881 2393.387s-88.425-510.24-124.181-562.934c-27.143-40-57.916 9.4-80.637 58.787-18.644 40.533-31.868 81.053-33.218 72.213-28.3-185.48-22.378-419.413-154.738-454.866-75.24-20.147 4.974 174.706-4.37 224.92-9.344 50.2-134.508-129.04-211.596-223.88-77.086-94.827-124.289-42.507-79.604 72.546 43.21 111.24 199.742 241.6 164.702 252.76-15.391 4.907-61.931-22.253-111.792-49.4-63.659-34.666-132.735-69.333-149.339-37.306-36.305 70.04 266.364 193.653 235.996 207.6-12.021 5.52-41.877-1.427-73.564-8.36-48.361-10.587-100.988-21.174-100.988 12.52 0 55.786 199.237 69.733 194.055 93.853-3.979 18.52-34.215 5.773-65.951-6.973-35.19-14.134-72.228-28.267-77.368.226-9.999 55.427 169.897 59.627 163.613 102.987-3.61 24.907-48.92-1.173-57.116 33.08-18.688 78.107 264.788 187.533 264.788 187.533l301.308 24.694" fill="#3c8f7c"/><path d="M1146.952 2406.587c-35.976-46.8-248.484-308.587-377.117-350.374-141.99-46.12-8.166 137.067-8.166 137.067s-251.885-276.36-344.318-251.453c-84.731 22.84 0 194.146 0 194.146s-95.432-94.853-211.162-94.853c-112.632 0 81.792 347.453 92.114 365.467h848.649" fill="#96d9c9"/><path d="M266.51 2220.653c-.683 4.334-5.174 16.894-2.403 29.294 1.641 12.24 10.545 24.32 10.61 23.72.766-.04-13.88-3.974-23.784-16.56-10.598-11.56-16.454-31.774-14.106-40.494 2.494-18.386 17.728-27.32 24.018-21.946 6.46 5.24 6.634 16.426 5.666 25.986M359.088 2253.92c-.683 4.32-5.173 16.88-2.404 29.293 1.643 12.24 10.545 24.32 10.61 23.72.766-.04-13.88-3.986-23.783-16.573-10.598-11.56-16.454-31.76-14.107-40.48 2.495-18.387 17.728-27.32 24.02-21.96 6.46 5.24 6.632 16.44 5.664 26M453.156 2295.987c-.684 4.333-5.175 16.893-2.405 29.293 1.642 12.24 10.546 24.32 10.612 23.72.765-.04-13.88-3.973-23.784-16.56-10.598-11.56-16.455-31.773-14.107-40.493 2.495-18.387 17.727-27.32 24.02-21.947 6.459 5.227 6.632 16.427 5.664 25.987" fill="#50bfa5"/><path d="M238.873 2307.453c1.903-3.573 5.579-15.346 14.522-22.933 8.016-8.107 21.298-12.013 21.01-11.547.543.467-12.44-4.84-26.741-1.106-14.237 2.586-29.792 14.2-32.913 21.933-8.388 14.947-2.134 30.067 5.492 29.627 7.672-.24 14.025-8.387 18.63-15.974M335.17 2341.653c1.9-3.573 5.578-15.346 14.52-22.933 8.017-8.107 21.298-12.013 21.011-11.547.544.467-12.44-4.84-26.741-1.106-14.237 2.586-29.793 14.2-32.913 21.933-8.387 14.947-2.134 30.067 5.49 29.627 7.674-.24 14.027-8.387 18.632-15.974M176.65 2226.813c.38 2.574.069 10.48 3.838 17.014 3.101 6.626 10.284 11.866 10.213 11.52.427-.16-8.558.226-16.397-5.12-8.047-4.654-14.947-15.04-15.167-20.387-1.852-10.853 5.18-18.627 9.695-16.72 4.584 1.813 6.668 8.107 7.817 13.693" fill="#50bfa5"/><path d="M161.572 2270.24c1.664-1.987 5.523-8.893 12.137-12.467 6.1-4.026 14.956-4.72 14.714-4.466.28.36-7.175-4.68-16.647-4.24-9.28-.267-20.576 4.973-23.555 9.413-7.234 8.267-5.297 18.6-.453 19.333 4.85.867 9.913-3.413 13.804-7.573M375.456 1861.427c102.913 161.266 179.164 354.773 222.108 545.106h11.101C565.9 2220.187 486.108 2025.093 383.364 1864c-23.877-37.44-49.663-81.853-94.37-96.467-.862-.28-1.19 1.04-.367 1.347 40.836 15.44 64.488 57.533 86.829 92.547M576.704 2406.533c-115.003-156.92-259.905-309.626-426.152-435.76-1.66-1.253-3.9 1.654-2.23 2.934 157.674 121.613 299.9 270.546 417.282 432.826h11.1" fill="#50bfa5"/><path d="M366.05 1761.4c-2.649 3.907-12.79 14.107-15.77 27.507-4.003 12.706-.841 28.613-.503 28.053.764.32-11.733-10.28-15.638-27.147-5.055-16.173-1.518-38.613 4.77-46.053 10.86-16.8 29.834-18.507 33.518-10.36 3.91 8.093-1.048 19.107-6.376 28M341.43 1905.36c3.842-2.733 13.802-13.107 27.091-16.36 12.584-4.267 28.498-1.413 27.95-1.053.329.76-10.483-11.574-27.364-15.16-16.218-4.747-38.506-.76-45.79 5.693-16.53 11.227-17.853 30.293-9.66 33.827 8.142 3.76 19.016-1.427 27.772-6.947M378.584 1968.453c3.844-2.733 13.804-13.106 27.092-16.36 12.584-4.266 28.497-1.413 27.948-1.053.33.76-10.481-11.573-27.363-15.16-16.217-4.747-38.505-.76-45.789 5.693-16.53 11.227-17.853 30.294-9.661 33.827 8.142 3.773 19.018-1.427 27.773-6.947M246.056 2114.8c3.841-2.733 13.803-13.107 27.09-16.36 12.585-4.267 28.498-1.413 27.95-1.053.33.76-10.483-11.574-27.364-15.16-16.217-4.747-38.505-.76-45.79 5.693-16.529 11.227-17.853 30.293-9.66 33.827 8.142 3.76 19.018-1.427 27.774-6.947M178.347 2054.947c3.842-2.734 13.801-13.107 27.092-16.36 12.582-4.267 28.496-1.414 27.948-1.067.329.76-10.483-11.56-27.364-15.147-16.218-4.76-38.506-.76-45.79 5.694-16.53 11.226-17.853 30.293-9.66 33.826 8.142 3.774 19.016-1.426 27.774-6.946" fill="#50bfa5"/><path d="M418.037 1832.8c-3.23 3.44-14.846 11.907-19.894 24.653-5.948 11.92-5.327 28.134-4.904 27.64.705.427-9.971-12.026-11.178-29.293-2.45-16.773 4.57-38.373 11.947-44.72 13.364-14.867 32.368-13.547 34.725-4.92 2.591 8.613-4.038 18.693-10.696 26.64M472.673 1904.347c-4.597 2.453-20.661 6.893-28.74 18.946-9.145 10.734-10.306 29.094-9.698 28.72.86.787-11.451-17.706-10.919-37.506-1.137-19.774 10.567-40.854 20.885-44.76 19.103-10.84 43.542-1.16 45.548 9.48 2.308 10.733-7.494 19.133-17.076 25.12M530.177 2012.72c-4.942 1.64-21.52 3.307-31.506 13.827-10.814 9.04-15.035 26.946-14.374 26.68.716.92-8.318-19.387-4.476-38.814 2.194-19.693 17.263-38.493 28.09-40.6 20.646-7.466 43.117 6.2 43.309 17.027.477 10.973-10.593 17.6-21.043 21.88M360.017 2088.213c-3.601 2.254-16.416 6.787-22.302 17.054-6.83 9.253-6.734 24.253-6.26 23.92.744.586-10.319-13.76-11.01-29.894-2.048-16.013 6.278-33.826 14.45-37.6 14.922-9.906 35.352-3.44 37.586 5.107 2.487 8.6-5.009 16-12.464 21.413M271.43 1786.773c2.153-1.786 7.593-8.36 15.311-10.866 7.259-3.067 16.798-2.08 16.487-1.854.23.44-6.704-6.386-16.848-7.76-9.8-2.093-22.81 1.24-26.837 5.374-9.29 7.373-9.24 18.706-4.24 20.44 4.98 1.866 11.186-1.68 16.126-5.334" fill="#50bfa5"/><path d="M292.061 1740.72c-.094 2.8-1.964 11.147.77 18.813 2.002 7.64 8.608 14.614 8.602 14.227.484-.08-9.132-1.427-16.413-8.653-7.64-6.507-12.947-18.88-12.139-24.6.144-11.894 9.123-18.774 13.542-15.854 4.516 2.814 5.504 9.92 5.638 16.067M129.585 1993.973c2.155-1.786 7.594-8.36 15.314-10.866 7.257-3.067 16.796-2.08 16.486-1.854.228.44-6.705-6.373-16.848-7.76-9.801-2.093-22.811 1.24-26.839 5.387-9.289 7.36-9.24 18.693-4.24 20.427 4.982 1.866 11.188-1.68 16.127-5.334" fill="#50bfa5"/><path d="M154.475 1947.533c-.323 2.787-2.866 10.934-.768 18.8 1.373 7.787 7.386 15.28 7.412 14.894.489-.04-8.984-2.174-15.652-9.974-7.083-7.106-11.362-19.88-10.088-25.52 1.112-11.826 10.622-17.96 14.789-14.68 4.27 3.174 4.676 10.334 4.307 16.48M171.868 2252.493c29.663 2.68 58.97 8.134 87.773 15.707 52.539 13.8 103.076 34.2 152.806 55.88 24.446 10.653 49.053 21.173 73.033 32.853 11.21 5.454 22.496 10.934 32.825 17.934 13.926 9.44 35.656 28.346 38.288 31.333l-11.417.333c-7.8-6.346-36.444-30.546-76.201-49.693-94.218-45.387-192.091-91.933-297.176-103.493-.548-.054-.483-.907.069-.854" fill="#50bfa5"/><path d="M1316.339 2396.24c27.888-23.907 44.754-49.253 40.434-74.467-7.706-44.986-71.561-16.08-73.988-48.56-4.221-56.506 239.522-43.28 231.468-115.733-4.16-37.387-56.013-22.773-105.173-8.147-43.987 13.08-85.81 26.16-89.348 1.987-4.63-31.613 266.241-28.933 271.748-100.813 3.347-43.8-70.16-35.094-137.093-26.374-42.894 5.587-83.094 11.16-98.6 2.92-39.702-21.12 381.893-149.04 339.693-243.026-19.44-43.294-117.52-4.96-207.56 33.386-69.413 29.56-134.053 59.107-154.2 51.28-46.301-18.013 178.293-169.76 247.707-308.626 71.8-143.614 13.12-215.92-100.507-101.707-113.627 114.2-300.619 332.2-308.303 266.533-7.685-65.653 120.044-308.426 16.283-290.253-182.532 31.973-197.603 334-254.184 570.053-2.725 11.36-16.832-43.266-38.364-97.893-25.83-65.533-62.344-131.067-102.713-82.68-38.076 45.627 32.538 381.627 76.556 572.12h446.144" fill="#96d9c9"/><path d="M2288.563 954.78c0 53.408-43.3 96.723-96.723 96.723-53.41 0-96.71-43.315-96.71-96.724 0-53.423 43.3-96.723 96.71-96.723 53.423 0 96.723 43.3 96.723 96.723" fill="#fff"/><path d="M3034.007 837.112c-3.054 24.089 22.036 43.206 44.34 41.696 24.667-1.665 45.589-21.893 49.2-46.126 3.9-26.233-11.853-47.214-36.251-49.137-23.726-1.871-38.923 19.257-32.064 40.578 4.899 15.287 18.865 20.987 25.897 16.768 5.475-3.287 5.148-11.579-1.48-13.04-2.67-.587-5.398.896-6.82 2.935-5.801-2.304-11.334-12.876-7.588-24.29 4.803-14.579 23.226-15.413 34.676-8.612 14.563 8.655 16.868 27.29 11.508 42.14-5.61 15.594-20.902 27.876-37.577 29.057-18.885 1.343-35.503-13.134-37.02-31.946-.346-4.444-6.283-4.334-6.82-.023M3456.863 756.524l15.856-35.748-20.468-33.312c-2.328-3.795.702-8.613 5.139-8.156l38.872 4.017 25.367-29.761c2.877-3.391 8.411-1.996 9.333 2.356l8.214 38.23 36.128 14.919c4.107 1.7 4.502 7.38.659 9.614l-33.844 19.61-3.009 38.98c-.351 4.441-5.644 6.56-8.96 3.585l-29.1-26.109-37.994 9.174c-4.327 1.045-7.994-3.33-6.193-7.399" fill="#f48c7f"/><path d="M1973.755 503.365l11.89-26.807-15.358-24.99c-1.747-2.849.523-6.468 3.853-6.124l29.174 3.014 19.004-22.321c2.175-2.546 6.303-1.5 7.019 1.761l6.137 28.679 27.11 11.188c3.096 1.28 3.371 5.545.495 7.21l-25.376 14.711-2.256 29.243c-.276 3.33-4.239 4.926-6.716 2.683l-21.839-19.582-28.5 6.88c-3.247.785-5.985-2.49-4.637-5.545" fill="#f7cc7f"/><path d="M3722.873 1065.945l16.804-30.56 52.167 21.634 30.094-41.65 41.7 9.809 4.96-21.102-55.75-13.118-28.528 39.472-54.28-22.504-25.3 45.986 18.133 12.033" fill="#50bfa5"/><path d="M2354.611 406.58l-29.631-18.429 24.4-50.927-39.977-32.292 12.015-41.1-20.808-6.088-16.08 54.962 37.893 30.607-25.375 52.981 44.573 27.74 12.99-17.454" fill="#07345a"/><path d="M2823.562 586.82l19.593-31.981-31.182-12.636-19.593 31.98zm-79.455 28.537l21.918-35.619-17.587-7.134c-3.851-1.562-5.733-5.946-4.153-9.797 1.562-3.851 5.945-5.714 9.796-4.153l20.321 8.235 19.593-31.98-18.812-7.632c-3.851-1.561-5.715-5.945-4.153-9.796 1.58-3.851 5.963-5.715 9.814-4.153l21.492 8.732 22.77-36.63c1.934-3.106 5.839-4.366 9.228-3l3.266 1.331c4.33 1.757 6.034 6.94 3.602 10.915l-21.172 34.553 31.182 12.636 22.752-36.612a7.508 7.508 0 019.228-3l3.585 1.438c4.313 1.757 6.017 6.957 3.585 10.915l-21.172 34.554 17.605 7.134c3.851 1.562 5.715 5.963 4.153 9.814-1.562 3.851-5.963 5.715-9.814 4.153l-20.303-8.235-19.291 32.087 18.794 7.632c3.851 1.561 5.714 5.945 4.153 9.796-1.562 3.851-5.946 5.715-9.797 4.153l-21.51-8.714-23.248 37.766c-1.917 3.124-5.839 4.401-9.246 3.017l-3.834-1.544c-4.312-1.757-6.016-6.957-3.585-10.932l21.918-35.601-31.164-12.654-23.249 37.766a7.525 7.525 0 01-9.246 3.035l-3.834-1.562c-4.312-1.74-6.016-6.957-3.585-10.914" fill="#50bfa5"/><path d="M1790.29 243.541l-.283-.09c-2.52-.924-5.1-1.729-7.71-2.49-.88-.253-1.76-.521-2.67-.76-.924-.239-1.893-.462-2.832-.686-.97-.239-1.939-.462-2.908-.671a90.505 90.505 0 00-2.759-.567c-1.044-.193-2.088-.387-3.117-.551-.894-.15-1.789-.284-2.684-.418a117.414 117.414 0 00-3.4-.432c-.835-.09-1.655-.194-2.475-.269-1.312-.134-2.625-.223-3.922-.313-.7-.03-1.387-.104-2.088-.134-2.013-.09-4.04-.15-6.069-.15H812.295c-2.175 0-4.339.06-6.488.165-4.299.223-8.538.656-12.714 1.297-2.086.313-4.156.686-6.21 1.104-53.351 10.96-94.43 55.726-100.026 111.02-.43 4.25-.65 8.559-.65 12.928V2280.07c0 54.76 34.67 101.371 83.18 118.999.214.067.433.133.648.213 2.404.867 4.85 1.64 7.319 2.347.891.252 1.779.52 2.678.76.94.253 1.892.48 2.842.706.965.227 1.931.453 2.903.667.917.2 1.842.374 2.768.56 1.035.187 2.077.387 3.123.546.887.161 1.776.294 2.669.428 1.129.16 2.264.292 3.404.427.826.092 1.653.2 2.486.278 1.3.121 2.61.214 3.922.294.689.04 1.373.108 2.067.146 2.016.094 4.04.148 6.08.148h935.077c4.355 0 8.65-.227 12.884-.653 59.35-6.041 106.517-53.387 112.541-112.933.447-4.253.656-8.561.656-12.933V362.524c0-54.757-34.655-101.372-83.164-118.983" fill="#e25a44"/><path d="M1815.972 2234.148H747.332V408.443h1068.64v1825.705" fill="#eafcfc"/><path d="M1666.389 1549.457c-58.34 71.213-120.06 146.16-174.008 211.453l-312.41-173.547 323.313-142.146 163.105 104.24m-84.857 297.346l-69.09 214.532-569.279-208.093 10.233-166.279 190.031-83.533 438.105 243.373m-642.78-393.452v-198.393l303.595-5.985 184.629 160.35-316.796 139.267-171.428-95.24m-130.796-227.596l167.325-212.398 256.973 10.654v193.362l-424.298 8.382m203.793-557.02l379.414 162.745v135.493l-379.414-15.738v-282.5m426.31 363.81l17.498 359.513-191.513-166.345v-200.386l174.015 7.218m377.913 144.97l-308.435-25.312-8.797-180.769-75.782-3.144V845.11l393.014 168.578v-34.594l-130.381-55.93-24.674-514.722h-31.823l24.009 500.785-230.145-98.71v-3.52h-8.202l-52.36-22.457-.241-376.098h-31.792l.235 362.466-318.849-136.768V408.443h-63.58v198.433L747.332 520.73v34.58l200.837 86.145v201.12l-200.837-93.75v35.078l200.837 93.75V996.4l-181.32 230.172-19.517.388v31.781l159.63-3.144v216.46l166.675 92.6-174.861 76.867-151.444-108.066v39.053l143.018 102.053.119-.16-34.446 559.745h63.7l21.403-347.799 268.68 98.214-30.756 249.585h32.03l29.373-238.386 262.236 95.853-45.913 142.533h33.402l42.394-131.613 283.4 103.6v-33.854l-273.66-100.026 77.472-240.559-99.154-55.094c34.455-41.719 108.852-131.919 183.096-222.598 47.298-57.747 83.887-102.666 112.246-137.72v-50.613c-35.162 43.667-80.534 99.425-129.3 159.026l-166.18-106.213-11.403-234.251 306.883 25.173v-31.892" fill="#fff"/><path d="M1519.08 2092.133l-623.572-222.84 10.92-203.12 546.972-241.786-216.347-185.44V1004.56l-268.445-8.08V782.893h22.707v191.56l268.444 8.067v245.987l235.774 202.093-567.178 250.707-9.264 172.293 607.629 217.16-7.64 21.373" fill="#c0dde3"/><path d="M950.997 683.187c.21-16.667 13.887-30 30.55-29.787 16.662.213 30 13.88 29.79 30.547-.21 16.666-13.888 30-30.55 29.786-16.663-.2-30-13.88-29.79-30.546zm-29.769 23.973l58.187 115.493 61.077-114c18.083-41.813-10.944-89.506-56.461-91.4a51.199 51.199 0 00-2.028-.053 51.415 51.415 0 00-2.028 0c-45.551.747-75.771 47.693-58.747 89.96" fill="#183658"/><path d="M1492.333 1952.68c.214-16.667 13.894-30 30.56-29.8 16.654.213 30 13.893 29.787 30.56-.213 16.653-13.893 30-30.56 29.787-16.653-.214-30-13.894-29.787-30.547m-29.76 23.96l58.187 115.493 61.067-113.986c18.093-41.814-10.934-89.52-56.454-91.414-.68-.026-1.346-.04-2.026-.053-.68-.013-1.36-.013-2.027 0-45.56.747-75.773 47.707-58.747 89.96" fill="#184655"/><path d="M1507.419 351.065h-453.42c-.64 0-1.159-.531-1.159-1.163v-20.558c0-.646.52-1.162 1.158-1.162h453.42c.632 0 1.163.516 1.163 1.162v20.558c0 .632-.53 1.163-1.162 1.163" fill="#fff"/><g clip-path="url(#a)" transform="matrix(.13333 0 0 -.13333 0 2666.667)"><path d="M9201.91 2190.5h784.59v787.301h-784.59z" fill="#e0877a"/></g><path d="M1701.827 2234.147h-211.64l12.973-40.307c80.32 12.907 157.547 25.053 199.56 30.96a215.253 215.253 0 01-.893 9.347m-245.04 0h-245.703l5.97-48.454 9.877 2.6c1.082.187 2.16.28 3.218.28 9.438 0 17.608-7.146 18.674-16.88.016-.146.032-.306.049-.453l.03-.267.015-.133a253.573 253.573 0 011.862-13.293h29.717c47.25 7.786 118.637 19.506 190.917 31.173l-14.626 45.427m-277.732 0h-259.33l4.715-76.6h186.097l75.499 19.946-6.981 56.654m-323.03 0h-108.69v-76.6H860.74l-4.715 76.6" fill="#c7eef1"/><path d="M1490.187 2234.147h-33.4l14.626-45.427c10.6 1.72 21.2 3.427 31.747 5.12l-12.973 40.307m-279.103 0h-32.03l6.982-56.654 31.019 8.2-5.971 48.454m-291.359 0h-63.7l4.715-76.6h63.7l-4.715 76.6" fill="#d8f0f3"/><path d="M1815.972 505.325h-150.414l-4.641-96.882h155.055v96.882m-182.237 0h-271.526l-.054-96.882h266.939l4.64 96.882m-303.31 0H1011.75v-96.882h318.614l.062 96.882m-382.256 0H747.332v-96.882H948.17v96.882" fill="#c7eef1"/><path d="M1665.558 505.325h-31.823l-4.641-96.882h31.823l4.64 96.882m-303.348 0h-31.784l-.062-96.882h31.792l.054 96.882m-350.46 0h-63.58v-96.882h63.58v96.882" fill="#d8f0f3"/><path d="M3278.092 1236.735H2883.36c-13.637 0-24.7 11.092-24.7 24.77v163.456c0 13.68 11.063 24.772 24.7 24.772h310.764c12.583 17.614 35.378 49.149 37.384 49.149 1.885 0-1.742-29.788-4.275-49.149h50.859c13.636 0 24.68-11.091 24.68-24.772v-163.455c0-13.68-11.044-24.771-24.68-24.771" fill="#f7cc7f"/><path d="M3026.504 1305.705h-113.672a3.493 3.493 0 01-3.494-3.496v-3.798a3.493 3.493 0 013.494-3.497h113.672c1.934 0 3.514 1.566 3.514 3.497v3.798c0 1.931-1.58 3.496-3.514 3.496M2987.346 1352.816h-74.532a3.486 3.486 0 01-3.486-3.494v-3.8a3.486 3.486 0 013.486-3.491h74.532a3.486 3.486 0 013.487 3.491v3.8a3.486 3.486 0 01-3.487 3.494M3097.498 1352.813h-81.33a3.49 3.49 0 01-3.5-3.492v-3.802a3.49 3.49 0 013.5-3.492h81.33c1.94 0 3.5 1.56 3.5 3.492v3.802a3.49 3.49 0 01-3.5 3.492M3250.421 1352.81h-120.594a3.486 3.486 0 01-3.494-3.494v-3.799a3.486 3.486 0 013.494-3.493h120.594a3.499 3.499 0 013.494 3.493v3.8a3.499 3.499 0 01-3.494 3.493M3250.421 1305.704h-190.943a3.492 3.492 0 01-3.493-3.498v-3.796a3.49 3.49 0 013.493-3.498h190.943a3.503 3.503 0 013.494 3.498v3.796a3.505 3.505 0 01-3.494 3.498M3067.5 1400.827h-154.68c-1.922 0-3.486-1.573-3.486-3.506v-3.8a3.497 3.497 0 013.486-3.493h154.68a3.497 3.497 0 013.485 3.493v3.8c0 1.933-1.564 3.506-3.485 3.506M3250.421 1400.824h-154.71a3.515 3.515 0 01-3.514-3.507v-3.8c0-1.92 1.577-3.493 3.513-3.493h154.711a3.508 3.508 0 013.494 3.494v3.799c0 1.934-1.577 3.507-3.494 3.507" fill="#fff"/><path d="M1224.597 2148.32s504.643 83.733 510.696 80.107c6.054-3.627 71.4-285.6 71.4-285.6s-417.306-75.027-424.066-75.027c-6.76 0-97.52 72.6-98.731 77.453-1.21 4.84-59.299 203.067-59.299 203.067M2763.942 2219.96c12.094 1.2 623.241-11.893 623.241-11.893l-45.986-140.587s-84.721-128.106-129.503-125.772c-16.874.879-65.354-4.722-121.627-10.334-92.784-9.24-206.784-18.48-235.399 1.36-45.945 31.88-87.09 6.468-108.888 82.706-21.778 76.24-38.776 84.773-21.799 130.733 16.957 45.947 39.96 73.787 39.96 73.787" fill="#183658"/><path d="M1271.41 2198.507c0 114.92 93.123 208.08 208.003 208.08 114.88 0 208.014-93.16 208.014-208.08 0-114.92-93.134-208.08-208.014-208.08-114.88 0-208.004 93.16-208.004 208.08" fill="#1a1a1a"/><path d="M1334.693 2198.507c0 79.96 64.8 144.773 144.72 144.773 79.934 0 144.734-64.813 144.734-144.773s-64.8-144.774-144.734-144.774c-79.92 0-144.72 64.814-144.72 144.774" fill="#9e9da2"/><path d="M1382.627 2198.507c0 53.48 43.333 96.826 96.786 96.826 53.467 0 96.8-43.346 96.8-96.826 0-53.467-43.333-96.814-96.8-96.814-53.453 0-96.786 43.347-96.786 96.814" fill="#d8d9dd"/><path d="M2872.927 2198.506c0 114.92 93.12 208.08 208.01 208.08 114.872 0 208.012-93.16 208.012-208.08 0-114.92-93.14-208.08-208.011-208.08-114.891 0-208.011 93.16-208.011 208.08" fill="#1a1a1a"/><path d="M2936.203 2198.508c0 79.96 64.81 144.771 144.72 144.771 79.948 0 144.738-64.812 144.738-144.77 0-79.961-64.79-144.775-144.739-144.775-79.91 0-144.72 64.814-144.72 144.774" fill="#9e9da2"/><path d="M2984.15 2198.506c0 53.48 43.339 96.827 96.795 96.827s96.794-43.348 96.794-96.827c0-53.466-43.338-96.814-96.794-96.814-53.456 0-96.794 43.348-96.794 96.814" fill="#d8d9dd"/><path d="M3558.483 2000.482c-17.573-115.96-74.425-140.32-242.596-173.946-185.57-37.12-421.128-158.135-421.128-158.135s-401.784-196.852-500.208-219.453c-98.424-22.585-340.474-16.133-543.781-14.52-203.307 1.615-322.719 58.095-425.987 138.773-103.263 80.68-282.37 141.986-282.37 141.986l-32.537 5.814c-33.46 5.974-57.822 35.081-57.822 69.068v287.76c0 32.585 21.948 61.078 53.449 69.4l117.59 31.052c9.576 1.653 18.481-5.147 19.537-14.813 12.878-117.72 114.649-207.186 236.008-207.04 129.04.146 234.852 106.173 234.773 235.226 0 14.653-1.362 29-3.947 42.921-2.667 14.371 8.373 27.613 22.985 27.613h1082.202c21.027 0 37.377-18.48 34.579-39.32a236.21 236.21 0 01-2.076-30.655c-.394-127.453 102.686-233.118 230.115-235.746 132.106-2.719 240.039 103.548 240.039 235.027 0 8.706-.481 17.307-1.4 25.76-2.622 23.96 15.913 44.934 40 44.934h155.625c28.305 0 51.234-22.933 51.234-51.228v-150.733c0-19.987-1.29-39.973-4.284-59.745" fill="#f7cc7f"/><path d="M1058.915 1824.107h128.169c10.979 0 18.416 11.186 14.172 21.306l-14.397 34.36c-13.727 32.747-45.768 54.054-81.278 54.054h-46.666c-9.135 0-16.54-7.4-16.54-16.534v-76.653c0-9.133 7.405-16.533 16.54-16.533" fill="#cf283c"/><path d="M3354.63 1877.358c70.583 10.8 151.874 77.64 151.874 77.64 19.425 20.88 3.396 54.786-25.07 52.986l-137.642-8.693c-28.575-1.813-52.954-21.36-60.936-48.879-13.39-46.213-1.99-84.36 71.773-73.054" fill="#f3fcff"/><path d="M1052.804 2088.533c-8.824-.213-15.077 8.654-11.823 16.854 9.204 23.2 28.948 41.44 54.191 48.106l131.759 34.8c10.73 1.854 20.708-5.773 21.892-16.6a253.807 253.807 0 0115.541-63.853c2.635-6.827-2.335-14.2-9.652-14.373l-201.908-4.934M3318.424 2142.773c-10.006-.255-17.751 8.533-16.457 18.466a266.681 266.681 0 012.15 33.694c0 9.665-.526 19.199-1.557 28.585-2.896 26.574 17.685 49.867 44.41 49.867h172.681c31.399 0 56.851-25.452 56.851-56.853v-44.68c0-12.68-10.115-23.028-22.797-23.346l-235.281-5.733" fill="#eab054"/><path d="M2828.996 2145.892l-10.884-.267c6.295-185.694 58.974-372.815 67.85-403.161-30.733-16.802-237.697-129.494-378.233-194.589-119.764-55.466-250.963-61.2-300.103-61.2-6.438 0-11.471.095-14.886.187v643.496l-10.884-.266v-643.137c-13.837-.265-53.337-.92-105.536-.92-132.747 0-347.42 4.228-429.554 29.827-114.373 35.654-267.427 197.362-286.162 217.494l40.4 189.548c9.921-.494 19.548-.72 28.881-.72 142.854 0 217.814 54.867 256.029 102.866 28.319 35.588 40.825 71.748 46.226 94.068l-11.414-.28c-5.586-21.533-17.76-55.04-43.68-87.44-51.72-64.615-136.84-98.32-247.427-98.32-10.653 0-21.547.32-32.668.946l-4.652.266-43.507-204.16 1.88-2.067c6.827-7.492 168.627-183.88 292.855-222.601 83.493-26.027 294.373-30.44 427.813-30.44 63.634 0 109.662 1.015 115.887 1.146 1.387-.066 8.536-.386 20.257-.386 50.029 0 183.167 5.868 304.816 62.214 151.705 70.266 380.473 195.76 382.767 197.027l3.877 2.134-1.298 4.225c-.64 2.094-61.838 204.228-68.65 404.51" fill="#f6ae51"/><path d="M1250.779 2157.547h-.007c.265-1.587.547-3.174.841-4.76h.01a269.715 269.715 0 00-.844 4.76" fill="#e9d7a0"/><path d="M1248.872 2171.24l.03-.267-.03.267m.045-.4a254.985 254.985 0 011.855-13.293h.007a253.573 253.573 0 00-1.862 13.293" fill="#c6cb99"/><path d="M1251.623 2152.787h-.01c.406-2.174.839-4.347 1.3-6.494h.011c-.46 2.147-.895 4.32-1.301 6.494" fill="#182e38"/><path d="M1230.15 2188.573c-1.06 0-2.137-.093-3.22-.28l-9.875-2.6-31.019-8.2-90.864-24c-25.243-6.666-44.987-24.906-54.19-48.106l211.931 40.906c-.461 2.147-.894 4.32-1.3 6.494a269.637 269.637 0 00-.841 4.76c-.73 4.386-1.35 8.826-1.855 13.293-.005.04-.01.08-.014.133-.011.094-.022.174-.031.267l-.05.453c-1.065 9.734-9.235 16.88-18.673 16.88" fill="#e99635"/><path d="M3302.65 2222.641v-.014.014m.04-.32c.426-4.132.75-8.293.974-12.479h.02a280.852 280.852 0 01-.993 12.48" fill="#e5c99d"/><path d="M3303.674 2209.841c.06-.893.101-1.773.142-2.667h.02c-.06.894-.101 1.774-.142 2.667h-.02" fill="#182e38"/><path d="M3519.651 2273.385H3346.97c-25.08 0-44.717-20.467-44.673-44.932 0-1.628.087-3.267.263-4.935.044-.292.066-.586.11-.88v-.013c0-.092.022-.2.022-.307.438-4.132.768-8.292 1.009-12.478.044-.895.088-1.775.153-2.668h272.648v9.36c0 31.4-25.452 56.853-56.85 56.853" fill="#e99635"/><path d="M2857.372 2207.172c-.035-11.787.79-23.387 2.459-34.733 1.984-13.64-8.2-26-21.967-26.334l-1125.606-27.481c-12.28-.293-21.133 11.428-17.786 23.24a236.618 236.618 0 018.96 64.72c-.013 14.854-1.372 29.374-3.985 43.468-2.708 14.72 8.386 28.334 23.36 28.334H2824.29c21.616 0 37.946-19.107 35.12-40.535a238.88 238.88 0 01-2.038-30.679" fill="#eab054"/><path d="M2857.368 2207.172v-.587.587" fill="#182e38"/><path d="M2824.276 2278.388H1722.798c-13.455 0-23.774-10.987-23.76-23.894 0-1.467.133-2.947.4-4.44 2.612-14.094 3.973-28.613 3.986-43.466h1153.923v.586c.035 10.4.737 20.64 2.053 30.68.228 1.64.315 3.254.315 4.854-.017 19.372-15.474 35.68-35.439 35.68" fill="#e99635"/><path d="M1603.413 1816.907h-140.44a6.029 6.029 0 01-6.026-6.027v-12.56a6.038 6.038 0 016.026-6.027h140.44a6.038 6.038 0 016.027 6.027v12.56a6.029 6.029 0 01-6.027 6.027M2377.622 1829.216h-140.43a6.027 6.027 0 01-6.026-6.027v-12.56c0-3.32 2.691-6.026 6.025-6.026h140.43a6.027 6.027 0 016.026 6.026v12.56c0 3.32-2.691 6.027-6.025 6.027" fill="#eab054"/><path d="M1483.8 1754.32l622.067 5.88s38.08-1.027 43.253-36.853c5.187-35.827 4.747-189.267 4.747-189.267s-4.52-30.813-34.027-31.213c-17.933-.24-168.227-10.974-314.4 6.826-119.24 14.534-229.547 68.987-313.173 152.654l-44.16 44.16s-29.787 47.2 35.693 47.813M2223.095 1553.55v160.878c0 20.907 16.054 38.068 36.33 38.893l488.791 19.654c11.215.453 22.225-4.626 28.653-14.106 8.77-12.921 9.779-34.2-34.021-62.72-76.163-49.6-269.946-156.88-341.646-167.254-45.613-6.612-105.329-9.48-142.7-10.693-19.37-.626-35.407 15.374-35.407 35.348M3256.553 1577.492l-3.199 2.88c-1.659 1.48-4.138 1.426-5.557-.133l-56.932-62.801c-1.4-1.56-1.22-4.026.44-5.505l3.198-2.88c1.64-1.482 4.138-1.428 5.557.131l56.932 62.801c1.4 1.561 1.22 4.026-.44 5.507" fill="#183658"/><path d="M3449.575 1526.477c-7.607-6.214-66.462 19.694-65.716 28.72.745 9.014-41.041 96.453-41.041 96.453l-72.26-57.8-.02.014c-.64-2.092-7.501-24.573-7.842-28.588-.341-4.225-12.551-11.613-18.22-10.518-5.667 1.093 4.86 8.225 5.541 9.532 1.875 3.573-5.391 4.907-5.391 4.907s-20.883-11.494-21.33-18.253c-.426-6.76-4.73-20.934-9.248-17.974-2.323 1.534-2.302 11.587-1.577 16.36-1.343-5.414-3.24-11.534-5.093-12.148-3.388-1.105-5.072 3.216-4.454 5.321.618 2.12 6.073 25.106 7.714 27.708 1.641 2.519 35.352 29.773 40.21 35.693 0 0 93.461 107.2 100.11 110 5.817 2.453 26.657-34.48 46.325-59.014 19.668-24.518 76.073-111.014 52.292-130.413" fill="#f7a491"/><path d="M3638.141 2314.691s12.833 12.574 13.13 17.188c.295 4.612 1.137 54.054-4.097 58.666-5.256 4.614-20.637 7.882-15.7 13.067 3.755 3.934 32.538 3.095 51.606 2.041 5.574-.307 12.56-44.895 14.767-51.455 3.208-9.506 10.99-30.947 8.077-37.586-1.41-3.227-8.214-9.866-17.77-16.067-10.057-6.519-19.682-21.04-19.682-21.04l-30.33 35.186" fill="#f48c7f"/><path d="M3505.097 2343.974l11.513 32.653c.842 5.16 4.212 17.92 4.212 22.613 0 17.628-79.208-14.96-61.474-22.773 1.62-.707 6.653-6.36 7.17-12.36.843-9.24-6.652-20.827-6.652-20.827l45.23.694" fill="#f7a491"/><path d="M3380.821 1737.386s-5.774 58.386-5.774 59.267c0 94.466-18.66 278.986-15.104 296.747 8.661 43.32 101.852 264.307 101.852 264.307l50.355-6.041-65.632-264.586 24.154-106.493 34.174-210.508-124.025-32.693" fill="#355389"/><path d="M3549.876 1789.038l9.537 55.346 25.876 227.788 98.467 222.641s-13.853 32.385-34.283 36.932l-156.73-228.573-97.337-292.481 3.413-64.972 151.057 43.319" fill="#466eb6"/><path d="M3360.743 1598.336l69.835 7.16s3.202-57.454 3.202-84.854c0-33.253-2.823-76.066-6.826-75.145-11.228 2.587-26.354 8.799-35.37 21.226-31.157 42.945-30.84 131.613-30.84 131.613" fill="#3c8f7c"/><path d="M3395.051 1514.773c-1.468 10.134-28.293 285.72-28.293 285.72 127.156 61.626 197.31 10.974 197.31 10.974s-4.165-193.507.832-219.855c3.31-17.425 7.408-133.227-3.835-136.466-14.443-4.16-31.011-8.587-49.07-10.467-15.385-1.6-75.238-2.534-85.954 1.08 0 0-24.831 26.387-30.99 69.014M3687.522 2300.225s-29.603 83.616-41.18 87.654c-3.077 1.08-17.844 3.801-20.624 10.346-.844 1.974 0 8.562 0 8.562h61.69s7.793-36.84 10.893-53.028c0 0 16.317-39.546 14.494-43.146-1.8-3.601-25.273-10.388-25.273-10.388M3525.342 2405.052l-9.062-28.759s-19.054 8.093-28.592 6.746c-9.516-1.345-28.116-6.746-28.116-6.746-38.022 12.56-69.166 18.652-63.5 28.759h129.27" fill="#50bfa5"/><path d="M3350.946 1715.907c-.289-.122-1.32-.934-1.918-1.429 2.248-26.998 1.856-53.159-6.598-62.013.206-.412 2.062-4.358 3.98-8.439 9.793 7.6 14.433 27.774 12.618 60.533-.124 2.253-.763 3.973-1.299 6.773-2.825 3.134-5.402 5.146-6.783 4.575" fill="#f7a491"/><path d="M3690.02 1803.414c.069-.588.092-1.187.024-1.774-1.86-19.08-17.65-179.346-20.326-186.16-2.405-6.146-73.228-107.787-73.228-107.787l-34.821 47.587 68.123 91.16c1.52 5.8 26.11 113.988 26.11 113.988s5.037 19.706 7.305 31.518c-1.043 2.854-2.041 5.533-2.949 7.747-2.268 4.708-4.923 8.573-7.35 11.826-3.04 4.108-8.076 13.042-8.688 15.442-.703 2.786-2.02 8.573-2.745 12.052-.749 3.494-1.747 7.561-1.928 9.453-.091 1.162-1.27 3.453-2.2 5.082-1.362 2.411.952 5.279 3.583 4.398 2.473-.825 4.401-4.04 5.581-6.038 3.357-5.654 5.15-15.975 5.989-15.429.84.534 3.766 18.056 4.242 20.03.454 1.984 3.97 22.317 5.966 26.037 1.974 3.72 4.628 3.094 5.308.76.613-1.999-2.2-30.452-2.2-30.452s-.34-3.628 1.248-2.494c1.588 1.132 4.174 26.96 5.285 30.748 1.09 3.772 3.607 5.785 5.74 2.745 2.586-3.693-1.86-31.092-1.86-31.092s-.5-3.453.952-3.133c1.475.32 3.312 22.345 4.446 24.239 1.135 1.908 4.016 2.586 5.4-.588 1.61-3.731-2.564-28.159-2.564-28.159s.204-1.946 1.112-1.293c.907.64 3.81 19.294 5.694 21.027 1.588 1.454 2.926.039 2.926.039 3.47-2.373-1.86-20.12-1.792-28.947.045-8.813-4.038-18.733-2.813-29.238.068-.654.295-2.28.43-3.294" fill="#f8a492"/><path d="M3651.83 1572.065l-60.49 40.76s-34.121-50.92-52.425-69.04c-22.92-22.706 8.379-92.266 23.143-88.332 33.046 8.798 89.772 116.612 89.772 116.612" fill="#3c8f7c"/><path d="M3507.544 1385.11l9.061 59.853s-33.051 71.254-52.792 65.08c-16.547-5.187-6.364-68.24-6.364-68.24s9.018-33.867 6.321-50.814c-2.718-16.934 43.774-5.879 43.774-5.879" fill="#f7a491"/><path d="M3463.771 1390.987c-2.711-16.932 43.779-5.88 43.779-5.88l.753 4.961c-1.356 3.32-3.035 6.16-5.036 8.347-10.396 11.214-26.625 17.946-40.636 18.452 1.399-9.132 2.26-18.919 1.14-25.88" fill="#f47458"/><path d="M3515.178 1300.443c1.298-.48 10.534 68.16-6.965 87.054-17.499 18.88-51.566 25.065-63.787 10.186-13.52-16.454-12.849-90.226 14.362-109.654 27.167-19.428 56.39 12.414 56.39 12.414" fill="#f7a491"/><path d="M3469.137 1251.307c21.017 4.302 34.628 17.192 39.631 22.684 9.548 1.132 22.525 6.424 35.918 28.68 16.473 27.366 4.304 57.69-14.857 72.556-19.182 14.88-18.92 32.052-18.92 32.052l-3.037-8.879c-2.228-6.733-3.146-13.866-2.403-20.932.459-4.24 1.377-8.826 3.124-12.588 4.588-9.932-9.918-16.532-14.004-24.8-3.124-6.36-3.277-20.923-8.215-31.443l-5.898-8.029s-13.59-10.624-26.917-7.627c-13.305 2.998-11.404-47.19 15.578-41.674" fill="#184655"/><path d="M3495.476 1352.297c-.13 8.373 3.686 15.227 8.492 15.32 4.806.08 8.836-6.641 8.966-15.014.15-8.373-3.643-15.24-8.47-15.32-4.828-.08-8.837 6.64-8.988 15.014" fill="#f7a491"/><path d="M3467.097 1371.638l-26.354-1.36s.063 10.08 11.656 11.015c14.102 1.146 14.698-9.655 14.698-9.655" fill="#fff"/><path d="M2114.667 967.784c.543-42.62 35.525-76.723 78.146-76.196 42.62.543 76.723 35.525 76.196 78.146-.543 42.62-35.525 76.723-78.131 76.196-42.636-.543-76.739-35.525-76.21-78.146zm-76.122 61.3l148.814 295.408 156.218-291.552c46.242-106.956-28.004-228.969-144.416-233.807a151.44 151.44 0 00-5.175-.132c-1.745-.03-3.475-.03-5.19 0-116.515 1.906-193.796 122.013-150.251 230.083" fill="#f47458"/><path d="M4113.869 2442.68H245.118c-9.242 0-16.734-7.494-16.734-16.734v-4.16c0-9.24 7.492-16.733 16.734-16.733h3868.75c9.225 0 16.726 7.493 16.726 16.733v4.16c0 9.24-7.501 16.733-16.725 16.733" fill="#183658"/></svg>