<svg xmlns="http://www.w3.org/2000/svg" height="574.853" width="621.787"><path d="M604.353 143.7c.786-5.703-7.264-10.395-13.312-10.883-2.884-.232-5.88.208-8.613-.742-5.92-2.064-8.285-9.712-14.061-12.15-4.319-1.821-9.291-.2-13.478 1.907-4.186 2.108-8.325 4.76-13.001 5.06-4.07.26-8.488-1.25-12.048.739-2.652 1.48-4.041 4.537-6.487 6.341-2.392 1.764-5.512 2.137-8.48 2.299-2.968.161-6.04.19-8.742 1.428-2.702 1.237-4.938 4.096-4.378 7.014l102.6-1.013" fill="#e7e8e5"/><path d="M310.655 153.359c-1.383-3.126-1.695-6.583-2.61-9.863-.492-1.764-1.317-3.639-2.968-4.419-1.093-.513-2.388-.446-3.548-.804-4.173-1.249-5.31-7.072-9.26-8.881-1.249-.557-2.633-.67-3.972-.825-5.289-.626-10.756-2.454-14.08-6.604-1.093-1.34-1.918-2.924-3.258-4.018-1.362-1.093-3.459-1.561-4.775-.446 1.116 2.232 2.21 4.464 3.303 6.672 1.004 2.008 2.03 4.084 3.704 5.556 1.696 1.496 4.194 2.277 6.225 1.34.67-.314 1.339-.827 2.097-.738.536.068 1.004.448 1.362.872 2.877 3.19 1.941 8.478-.871 11.736-2.788 3.235-6.94 4.931-10.933 6.515-1.428.559-2.946 1.139-4.463.87-2.767-.513-4.24-3.525-5.043-6.225-1.808-5.98-2.678-12.473-6.382-17.516-1.183-1.585-2.655-3.034-3.37-4.886-.757-2.008-.58-4.352-1.785-6.115-1.25-1.852-3.904-2.923-4.083-5.155-.112-1.561 1.183-2.945 2.611-3.614 1.428-.692 3.035-.892 4.508-1.495.58-.245 1.227-.67 1.25-1.293 0-.939-1.295-1.318-1.63-2.188-.357-.982.647-1.896 1.07-2.856.915-2.187-1.36-4.396-3.569-5.288-2.186-.892-4.842-1.54-5.869-3.683-.468-.981-.512-2.119-.713-3.19-.514-2.7-2.5-5.311-5.222-5.758-2.745-.445-5.78 1.987-5.333 4.71.268 1.494 1.384 2.655 1.985 4.038.626 1.384.447 3.436-.981 3.883-1.09.332-2.159-.416-3.188-1.164-1.187-.862-2.321-1.722-3.372-.934.803 2.744 1.584 5.49 2.388 8.255-3.08 1.563-6.761-1.27-8.077-4.484-1.318-3.19-1.362-6.85-2.924-9.93-1.563-3.102-5.779-5.4-8.458-3.213-.133 3.972 5.111 5.579 7.431 8.792 1.673 2.32 1.428 6.092-1.048 7.564-2.455 1.474-6.36-1.093-5.423-3.793.335-.937 1.115-1.719 1.204-2.723.09-1.249-.958-2.253-1.918-3.057-1.495-1.272-2.991-2.521-4.484-3.77-.96-.803-1.987-1.651-3.192-2.009-3.079-.893-6.159 1.607-7.787 4.352-1.63 2.767-2.544 6.002-4.797 8.3-3.236 3.348-9.372 3.548-12.407.046-3.057-3.504-1.496-10.064 2.99-11.336 1.695-.47 3.838-.424 4.73-1.919 1.561-2.656-2.901-6.048-1.361-8.725 1.182-2.054 4.306-1.116 6.582-1.808 2.254-.691 3.527-2.967 4.864-4.931 1.318-1.941 3.392-3.905 5.714-3.392-.179-1.361-.358-2.835.245-4.061.601-1.25 2.299-2.054 3.413-1.25-1.137 1.875.224 4.486 2.21 5.423 1.986.937 4.306.713 6.493.468 2.187-.267 4.932-1.07 5.11-3.257.067-.715-.2-1.472.067-2.142.5-1.362 2.051-1.037 3.683-.712 1.497.3 3.063.599 3.948-.404 1.07-1.094-.11-3.036-1.607-3.392-1.472-.38-3.012.178-4.529.223-1.517.067-3.37-.737-3.437-2.253-.066-1.495 1.608-2.566 1.786-4.039.291-2.499-3.95-3.147-5.445-1.116-1.472 2.03-.96 4.82-.513 7.297.469 2.476.692 5.399-1.138 7.14-.781 1.183-2.812.558-3.481-.692-.692-1.249-.536-2.768-.648-4.173-.11-1.428-.735-3.035-2.119-3.413-.96-.268-1.985.201-2.968.334-3.882.468-6.582-4.552-5.354-8.256 1.205-3.726 4.729-6.114 8.144-8.01 2.498-1.384 5.6-2.679 8.077-1.272 1.16.646 1.964 1.762 3.101 2.432 1.516.894 3.31.848 5.087.8.525-.015 1.05-.028 1.564-.019 3.547.09 7.05 1.45 9.707 3.77 1.002.915 1.941 2.433 1.16 3.527-.848 1.16-3.28 1.406-2.856 2.766 2.632.87 5.778-1.16 6.069-3.904 1.293.58 2.23 1.896 2.343 3.302 2.833-2.878 8.278-2.454 10.598.871.626.87 1.072 1.917 1.964 2.521.892.58 2.455.29 2.566-.76.045-.334-.067-.669-.178-.981-.536-1.517-1.093-3.012-1.629-4.507 2.075-1.116 4.53.624 5.935 2.499 3.536 4.728 6.385 4.332 10.142 3.937 1.792-.189 3.791-.377 6.17-.01 4.976.76 7.162 3.949 9.974 7.81 8.612 11.871 19.994 21.6 27.826 34.006a58.527 58.527 0 012.297 3.949c-.132-.335-.244-.67-.379-1.003a137.423 137.423 0 00-11.38-23.14 159.8 159.8 0 00-2.945-4.618 122.641 122.641 0 00-1.919-2.812c-.825-1.206-1.696-2.366-2.566-3.526a91.124 91.124 0 00-2.098-2.745c-.49-.624-1.004-1.25-1.517-1.873a30.46 30.46 0 00-1.74-2.099l-1.875-2.164a8.27 8.27 0 00-.602-.67 62.187 62.187 0 00-2.031-2.23l-.201-.224a13.47 13.47 0 00-.58-.601c-.558-.626-1.16-1.228-1.74-1.831a92.997 92.997 0 00-2.946-2.901 64.318 64.318 0 00-2.544-2.388c-.758-.691-1.517-1.383-2.298-2.052a97.943 97.943 0 00-2.298-1.964 101.855 101.855 0 00-2.88-2.364h-.021c-2.7-2.166-5.49-4.219-8.345-6.138-.714-.49-1.406-.958-2.12-1.428-.715-.49-1.451-.937-2.164-1.382-.738-.447-1.451-.915-2.188-1.339-.736-.47-1.472-.893-2.208-1.317a35.397 35.397 0 00-1.786-1.004 9.727 9.727 0 00-.914-.514 91.692 91.692 0 00-3.86-2.053c-.648-.333-1.295-.67-1.964-.981a51.36 51.36 0 00-2.522-1.204 1.995 1.995 0 00-.38-.18c-.757-.356-1.517-.714-2.298-1.048-1.094-.47-2.186-.938-3.28-1.384-1.25-.514-2.499-1.027-3.771-1.495a94.294 94.294 0 00-4.239-1.517c-1.429-.491-2.878-.96-4.329-1.407-1.45-.445-2.901-.847-4.373-1.248a143.54 143.54 0 00-8.815-2.076l-.156-.045a92.291 92.291 0 00-3.415-.624l-.222-.044c-.491-.09-1.004-.179-1.518-.247-2.12-.357-4.261-.647-6.426-.892-.246-.044-.514-.067-.78-.09-.626-.089-1.25-.133-1.898-.2a132.486 132.486 0 00-4.306-.334 101.26 101.26 0 00-4.53-.224 113 113 0 00-4.753-.09c-4.195 0-8.345.18-12.45.56-.982.066-1.942.155-2.902.267-1.004.111-2.008.222-3.012.356-1.004.134-2.008.268-2.99.424-1.005.156-1.986.312-2.99.491-.848.135-1.719.29-2.565.47-2.099.4-4.174.847-6.227 1.338-.959.223-1.919.468-2.877.736-.96.245-1.92.513-2.858.781-1.584.446-3.124.938-4.664 1.428h-.021c-1.25.424-2.521.848-3.75 1.272l-.089.044c-1.272.447-2.498.915-3.748 1.406l-.2.068a152.93 152.93 0 00-3.392 1.384c-1.406.58-2.79 1.204-4.15 1.829-1.16.536-2.3 1.07-3.415 1.628-1.205.603-2.41 1.205-3.592 1.83l-.135.067a99.595 99.595 0 00-3.39 1.875c-1.161.647-2.3 1.316-3.438 2.03h-.022a150.79 150.79 0 00-3.168 1.963c-.402.247-.781.514-1.183.782-1.115.713-2.187 1.45-3.28 2.209-1.338.915-2.633 1.873-3.927 2.833a130.74 130.74 0 00-3.347 2.59c-6.315 5.041-12.206 10.598-17.54 16.622a134.179 134.179 0 00-5.421 6.427A119.28 119.28 0 0068.17 66c.358-.045.715-.09 1.072-.113 2.008-.156 4.128-.088 5.935-.959 1.674-.825 2.857-2.32 4.374-3.392 3.883-2.767 10.242-3.28 11.29-7.921.357-1.562-.066-3.259.514-4.752 1.093-2.79 4.82-3.192 7.81-3.147 1.272 0 2.767.177 3.346 1.293.425.782.18 1.763-.133 2.59-1.83 5.221-5.534 9.729-10.242 12.584-3.883 2.365-8.948 4.196-10.019 8.613.536 1.496 3.258 1.384 3.48 2.947.157 1.249-1.45 1.896-2.03 3.012-.848 1.629 1.094 3.614 2.946 3.525 1.852-.09 3.392-1.428 4.753-2.677 4.06-3.771 8.323-7.834 9.796-13.188.625-2.21.847-4.798 2.632-6.271 2.12-1.74 5.913-.536 6.627 2.12 1.764-.981 4.508-1.717 5.423.112.312.647.224 1.405.379 2.097.58 2.856 4.486 4.151 4.887 7.03.47 3.324-3.793 5.042-7.118 5.556-3.012.468-6.025.937-9.037 1.428-1.316.2-2.678.424-3.749 1.205-1.07.803-1.74 2.32-1.116 3.503.357.646 1.05 1.072 1.563 1.606 2.499 2.499.445 7.654-3.08 7.766-1.205.044-2.388-.402-3.593-.447-3.57-.156-6.404 2.99-8.1 6.136-1.696 3.147-2.967 6.74-5.824 8.881-4.596 3.459-12.517 2.656-14.749 7.966-.892 2.142-.424 4.552-.067 6.85.357 2.276.513 4.82-.825 6.718-1.317 1.874-4.753 2.276-5.735.177-.424-.915-.29-1.985-.134-2.967.536-3.302 1.049-6.605 1.562-9.906.38-2.456.714-5.2-.737-7.208-2.03-2.812-6.581-2.544-9.215-.291-2.61 2.255-3.704 5.78-4.44 9.15-.536 2.498-1.16 6.023-2.545 8.88a129.91 129.91 0 00-1.137 8.411c-.29 2.902-.491 5.78-.603 8.726.357-.29.737-.647 1.138-1.071 1.406-1.45 4.24-7.587 6.784-4.575.646.759.67 1.987.044 2.79-.78 1.004-2.342 1.228-2.945 2.321-.736 1.293.29 2.9 1.495 3.748 1.205.87 2.678 1.405 3.525 2.633 1.63 2.343.068 5.891 1.652 8.279 1.36 2.052 4.262 2.187 6.739 2.453.29.046.557.091.847.135.693-4.91 2.991-8.904 9.685-10.42 9.238-2.099 21.377 5.556 26.575 12.517 5.802 7.788 8.547 18.811 17.427 22.716 6.36 2.79 15.398 1.786 18.499 8.011 2.767 5.579-2.053 11.848-2.79 18.03-.467 4.083.871 8.145 1.183 12.227.29 4.106-.915 8.882-4.641 10.599-2.075.937-4.686.825-6.359 2.388-2.968 2.812-.536 8.613-3.504 11.425-1.049.982-2.499 1.339-3.771 1.986-6.672 3.369-6.493 13.188-3.391 19.993.111.245.222.468.334.713a138.71 138.71 0 0031.708 13.991c12.852 3.905 26.487 5.981 40.611 5.981 23.899 0 46.435-5.958 66.16-16.468h.023a141.12 141.12 0 0012.474-7.52 139.026 139.026 0 0017.516-13.924 136.959 136.959 0 0010.711-11.178c2.365-2.723 4.596-5.558 6.739-8.458 1.093-1.494 2.164-2.99 3.169-4.529a135.774 135.774 0 008.412-14.08 136.01 136.01 0 009.125-22.001 137.147 137.147 0 005.379-23.899c.424-3.168.759-6.381.981-9.617-1.538 1.496-3.548 2.566-5.668 2.521-3.39-.044-6.18-2.879-7.542-6.001" fill="#f3f2f1"/><path d="M149.508 43.452c-2.793 1.67-4.28 4.823-6.433 7.263-2.156 2.438-6.022 4.177-8.566 2.148-1.225-.976-1.775-2.591-1.913-4.151-.2-2.241.34-4.543 1.517-6.459 1.216-1.98 3.068-3.537 4.096-5.618 1.03-2.084.819-5.132-1.288-6.108-1.14-.528-2.573-.322-3.585-1.067-1.817-1.339-.516-4.504 1.596-5.303 2.11-.8 4.455-.18 6.707-.037 8.173.523 14.185-4.83 20.329-9.275 4.779-3.457 14.956-7.54 20.487-4.009 2.208 1.41 3.069 5.032.99 6.624-.93.712-2.213.872-3.08 1.66-1.037.947-1.184 2.501-1.78 3.773-1.546 3.308-6.008 4.51-7.444 7.868-.864 2.02-.474 4.535-1.808 6.284-1.056 1.386-2.889 1.875-4.585 2.279l-10.659 2.533c-1.578.376-3.186.763-4.581 1.595M244.79 217.01c-3.537 5.329-4.178 11.987-5.16 18.306-.98 6.32-2.666 13.035-7.52 17.196-4.857 4.16-13.775 3.915-16.446-1.895-1.45-3.153-.707-6.872-1.499-10.253-1.03-4.401-4.534-7.8-6.197-12.004-1.42-3.588-1.423-7.552-1.539-11.407-.632-21.07-5.77-43.062-20.116-58.509-1.761-1.896-3.762-3.745-6.266-4.41-2.976-.789-6.376.383-8.232 2.84-1.151 1.525-1.746 3.47-3.156 4.758-3.066 2.8-8.419.793-10.466-2.817-2.048-3.612-1.764-8.038-1.421-12.175l1.273-15.39c.223-2.682.524-5.563 2.286-7.6 2.502-2.894 6.996-3.031 10.058-5.326 4.018-3.01 4.554-8.75 7.086-13.083s10.462-6.166 11.634-1.285c8.386-17.95 26.918 8.716 37.938 6.712 3.2-.583 6.326-2.12 9.548-1.67 5.689.797 8.626 7.063 10.562 12.471l9.638 26.932c1.224 3.419 2.805 7.22 6.19 8.532 2.596 1.007 5.611.239 8.227 1.191 6.915 2.516 4.667 13.4-.899 18.215-5.564 4.814-13.374 7.853-16.02 14.718-1.992 5.174-.404 11.236-2.548 16.348-1.534 3.658-4.762 6.302-6.956 9.606M271.041 222.863c-2.273.318-4.954-.804-6.681.708-1.008.88-1.232 2.328-1.632 3.605-.555 1.773-1.62 3.452-3.22 4.399-1.599.946-3.773 1.026-5.255-.096-1.482-1.122-1.934-3.514-.722-4.923.552-.641 1.346-1.023 1.961-1.603 3.017-2.85.952-8.137 3.245-11.526 1.352-1.998 3.48-4.026 4.967-6.051 1.141-1.556 1.561-2.792 3.661-3.205 9.191-1.81 13.346 17.337 3.676 18.692" fill="#e7e8e5"/><path d="M42.242 144.99c-.014.851-.045 1.695-.045 2.543 0 .692.023 1.376.034 2.064-.011-.688-.034-1.372-.034-2.064 0-.848.03-1.692.045-2.542" fill="#17282f"/><path d="M110.857 268.541a100.468 100.468 0 000 0M42.242 144.99c.015-.85.011-1.707.044-2.543 0-.268.023-.514.045-.782v-.022.022c-.022.268-.045.514-.045.782-.033.836-.03 1.693-.044 2.544M42.264 151.661c-.022-.68-.022-1.374-.033-2.064.011.69.011 1.384.033 2.064" fill="#6b7a7f"/><path d="M63.591 192.513zm-2.985-7.916c.243 2.143.953 4.14 1.928 6.043-.975-1.903-1.685-3.9-1.928-6.043zm-6.403-21.778c-.492-.112-1.028-.267-1.317-.67-.313-.424-.267-.982-.29-1.494-.145-2.586-2.211-4.451-4.456-5.914 2.245 1.463 4.31 3.328 4.456 5.914.023.512-.023 1.07.29 1.494.29.402.825.558 1.317.67zm7.363 9.617zm69.44 36.773c.737-6.181 5.557-12.45 2.79-18.029-3.101-6.225-12.138-5.221-18.499-8.01-8.88-3.906-11.625-14.929-17.427-22.717-5.198-6.961-17.338-14.616-26.575-12.517-6.694 1.516-8.992 5.51-9.685 10.42-.29-.044-.557-.09-.847-.133-2.477-.268-5.378-.403-6.739-2.455-1.584-2.388-.022-5.936-1.652-8.279-.847-1.228-2.32-1.762-3.525-2.633-1.204-.848-2.231-2.455-1.495-3.748.602-1.093 2.165-1.317 2.945-2.321.625-.803.602-2.031-.044-2.79-2.544-3.012-5.378 3.124-6.783 4.575-.402.424-.782.781-1.139 1.07v.023c-.022.268-.044.514-.044.78-.034.838-.03 1.694-.045 2.544-.014.851-.045 1.696-.045 2.544 0 .692.023 1.376.034 2.064.011.69.011 1.384.033 2.064 0 .336 0 .648.023.983.557 15.687 3.682 30.748 8.97 44.74a135.188 135.188 0 008.613 18.476c1.383 2.565 2.9 5.085 4.486 7.563 1.963 3.057 4.016 6.048 6.225 8.926a118.11 118.11 0 006.538 8.055 139.31 139.31 0 009.974 10.264 137.172 137.172 0 009.706 8.256c-7.216-19.37-14.042-39.115-25.714-55.995 11.672 16.88 18.498 36.624 25.714 55.995h.022a100.52 100.52 0 004.352 3.259 138.85 138.85 0 003.517 2.456c1.185.801 2.385 1.582 3.601 2.341.849.535 1.696 1.048 2.566 1.561-.112-.245-.223-.468-.334-.713-3.103-6.807-3.28-16.624 3.391-19.993 1.271-.647 2.722-1.004 3.771-1.986 2.968-2.812.536-8.614 3.504-11.425 1.673-1.563 4.284-1.45 6.359-2.388 3.727-1.717 4.931-6.493 4.642-10.599-.313-4.082-1.651-8.144-1.183-12.228M51.056 106.476c2.634-2.253 7.186-2.521 9.215.29 1.45 2.009 1.116 4.753.737 7.209-.513 3.301-1.026 6.604-1.562 9.906-.156.982-.29 2.052.134 2.967.982 2.099 4.418 1.697 5.735-.177 1.338-1.898 1.182-4.442.825-6.718-.357-2.298-.825-4.708.067-6.85 2.232-5.31 10.153-4.507 14.75-7.966 2.856-2.141 4.128-5.734 5.824-8.881 1.695-3.145 4.53-6.292 8.1-6.136 1.204.045 2.387.49 3.592.447 3.525-.112 5.579-5.267 3.08-7.766-.514-.534-1.206-.96-1.563-1.606-.624-1.183.045-2.7 1.116-3.503 1.071-.781 2.433-1.005 3.749-1.205 3.012-.491 6.025-.96 9.037-1.428 3.325-.514 7.587-2.232 7.118-5.556-.401-2.879-4.307-4.174-4.887-7.03-.155-.692-.067-1.45-.379-2.097-.914-1.83-3.66-1.093-5.423-.112-.714-2.656-4.506-3.86-6.627-2.12-1.785 1.473-2.007 4.061-2.632 6.27-1.473 5.355-5.735 9.418-9.796 13.189-1.361 1.249-2.9 2.588-4.753 2.677-1.852.09-3.794-1.896-2.945-3.525.58-1.116 2.186-1.763 2.03-3.014-.223-1.561-2.945-1.449-3.48-2.945 1.07-4.417 6.135-6.248 10.018-8.613 4.708-2.856 8.412-7.363 10.242-12.584.312-.827.558-1.808.134-2.59-.58-1.116-2.075-1.293-3.347-1.293-2.99-.045-6.717.357-7.81 3.147-.58 1.494-.157 3.19-.513 4.752-1.05 4.641-7.408 5.154-11.29 7.921-1.518 1.072-2.7 2.567-4.375 3.392-1.807.87-3.927.803-5.935.959-.357.022-.714.068-1.072.112a125.817 125.817 0 00-3.55 5.216 140.224 140.224 0 00-3.3 5.384 139.547 139.547 0 00-12.228 27.266 135.469 135.469 0 00-2.895 10.17 141.473 141.473 0 00-2.126 10.47c1.384-2.856 2.01-6.381 2.545-8.88.736-3.369 1.83-6.894 4.44-9.149M324.11 145.592c-.01-2.03-.071-4.044-.18-6.047a127.198 127.198 0 00-.466-5.98c-.156-1.606-.336-3.19-.559-4.774-.217-1.675-.465-3.34-.742-4.995a136.85 136.85 0 00-4.972-20.117 135.942 135.942 0 00-1.895-5.392v-.023a58.527 58.527 0 00-2.297-3.95c-7.832-12.406-19.214-22.134-27.826-34.005-2.812-3.861-4.998-7.05-9.974-7.81-7.364-1.138-11.09 3.057-16.311-3.927-1.407-1.875-3.86-3.615-5.936-2.499.536 1.495 1.093 2.99 1.63 4.507.11.312.222.647.177.981-.111 1.05-1.674 1.34-2.566.76-.892-.604-1.338-1.652-1.964-2.521-2.32-3.325-7.765-3.75-10.598-.87-.112-1.406-1.05-2.723-2.343-3.303-.29 2.744-3.437 4.774-6.07 3.904-.423-1.36 2.009-1.606 2.857-2.766.781-1.094-.158-2.612-1.16-3.526-2.656-2.322-6.16-3.682-9.707-3.771-2.255-.045-4.687.379-6.65-.781-1.138-.67-1.942-1.786-3.102-2.432-2.477-1.407-5.579-.112-8.077 1.272-3.415 1.896-6.939 4.284-8.144 8.01-1.228 3.704 1.472 8.724 5.354 8.256.983-.133 2.008-.602 2.968-.334 1.384.378 2.008 1.985 2.119 3.413.112 1.405-.044 2.924.648 4.173.67 1.25 2.7 1.875 3.481.691 1.83-1.74 1.607-4.663 1.139-7.139-.447-2.477-.96-5.266.512-7.297 1.495-2.03 5.736-1.383 5.445 1.116-.178 1.473-1.852 2.544-1.786 4.039.068 1.516 1.92 2.32 3.437 2.253 1.517-.045 3.057-.603 4.53-.223 1.495.356 2.677 2.298 1.606 3.392-1.852 2.098-6.672-1.496-7.63 1.116-.269.67 0 1.427-.067 2.142-.179 2.186-2.924 2.99-5.111 3.257-2.187.245-4.507.47-6.493-.468-1.986-.937-3.347-3.548-2.21-5.423-1.114-.804-2.812 0-3.413 1.25-.603 1.226-.424 2.7-.245 4.061-2.322-.513-4.396 1.45-5.714 3.392-1.337 1.964-2.61 4.24-4.862 4.932-2.278.69-5.402-.247-6.584 1.807-1.54 2.677 2.922 6.069 1.361 8.725-.892 1.495-3.035 1.45-4.73 1.919-4.486 1.272-6.047 7.832-2.99 11.336 3.035 3.502 9.17 3.302 12.407-.046 2.253-2.298 3.168-5.533 4.797-8.3 1.63-2.745 4.708-5.245 7.787-4.352 1.205.358 2.232 1.206 3.192 2.008 1.493 1.25 2.989 2.499 4.484 3.771.96.804 2.008 1.808 1.918 3.057-.088 1.004-.869 1.786-1.204 2.723-.937 2.7 2.968 5.267 5.423 3.793 2.476-1.472 2.721-5.244 1.048-7.564-2.32-3.213-7.564-4.82-7.43-8.792 2.678-2.186 6.894.111 8.457 3.214 1.562 3.078 1.606 6.738 2.924 9.929 1.316 3.213 4.997 6.047 8.077 4.484-.804-2.765-1.585-5.51-2.388-8.255 1.963-1.473 4.217 2.811 6.56 2.098 1.428-.447 1.607-2.499.981-3.883-.601-1.383-1.717-2.544-1.985-4.039-.447-2.722 2.588-5.154 5.333-4.709 2.722.447 4.708 3.057 5.222 5.759.201 1.07.245 2.208.713 3.189 1.027 2.143 3.683 2.79 5.87 3.683 2.207.892 4.483 3.101 3.569 5.288-.424.96-1.428 1.874-1.071 2.856.335.87 1.63 1.249 1.63 2.188-.023.624-.67 1.046-1.25 1.293-1.473.603-3.08.803-4.508 1.495-1.428.669-2.723 2.053-2.61 3.614.178 2.232 2.833 3.303 4.082 5.155 1.205 1.763 1.028 4.107 1.785 6.115.715 1.852 2.187 3.301 3.37 4.886 3.705 5.043 4.574 11.536 6.382 17.516.803 2.7 2.276 5.712 5.043 6.226 1.517.268 3.035-.312 4.463-.871 3.993-1.584 8.145-3.28 10.933-6.515 2.812-3.258 3.748-8.546.87-11.736-.357-.424-.825-.804-1.36-.872-.76-.089-1.429.424-2.098.738-2.03.937-4.53.156-6.225-1.34-1.674-1.472-2.7-3.548-3.704-5.556-1.094-2.208-2.187-4.44-3.303-6.672 1.316-1.115 3.413-.647 4.775.446 1.34 1.094 2.165 2.678 3.258 4.018 3.324 4.15 8.791 5.978 14.08 6.604 1.339.156 2.723.268 3.972.825 3.95 1.81 5.087 7.632 9.26 8.881 1.16.358 2.455.291 3.548.804 1.651.78 2.476 2.655 2.968 4.419.915 3.28 1.227 6.737 2.61 9.863 1.362 3.122 4.152 5.957 7.542 6.001 2.12.045 4.13-1.027 5.668-2.521v-.023c.179-3.079.291-6.157.291-9.283 0-.646 0-1.293-.045-1.941" fill="#e7e8e5"/><path d="M245.373 125.475c-.872-1.41-1.006-1.607-2.057-2.408-2.19-1.978-4.999-1.707-6.137-.251-1.274 1.63-1.258 3.993-.448 5.897.738 1.735 2.152 3.248 3.961 3.78 1.81.532 3.987-.09 4.995-1.684 1.005-1.586.676-3.737-.314-5.334" fill="#e7e8e5"/><path d="M34.655 446.976a45.457 45.457 0 00-19.449-6.693c-3.178-.327-6.65-.235-9.2 1.69-.54.41-1.068 1.014-.947 1.68.09.491.504.848.9 1.15 7.913 6.037 19.883 6.798 28.696 2.173M34.156 446.425c-4.403-3.434-8.831-6.894-12.562-11.052-3.73-4.156-6.76-9.09-7.875-14.564-.338-1.66-.443-3.557.622-4.873 10.013 7.82 17.879 17.933 19.815 30.49" fill="#dadbd8"/><path d="M34.551 446.901c-.754-5.478-1.025-11.108.233-16.492s4.187-10.538 8.784-13.609c1.731 4.044.987 8.703-.232 12.93a62.822 62.822 0 01-8.71 18.34M44.367 464.49c-5.958.723-11.148 3.865-15.597 7.893a29.516 29.516 0 00-8.922 15.314c5.845-.36 10.803-4.481 14.4-9.102 3.596-4.623 6.087-9.692 10.037-14.015M46.498 467.303c-4.8-11.823-3.06-26.067 4.442-36.387 3.395 12.075 2.149 25.714-4.442 36.387M59.468 482.747a27.995 27.995 0 00-15.6 3.654 28.005 28.005 0 00-10.997 11.655c-.33.659-.62 1.495-.179 2.085.383.512 1.124.56 1.764.52 5.241-.341 9.887-3.494 13.72-7.085 3.834-3.592 7.173-7.74 11.41-10.846M59.054 481.905c-2.789-8.926-2.963-18.653-.494-27.671.974-3.562 2.611-7.313 5.905-8.983.281-.142.608-.27.904-.16.28.106.441.394.57.662 1.172 2.45 1.514 5.228 1.393 7.94-.121 2.712-.684 5.382-1.244 8.036-1.037 4.912-1.59 10.19-4.283 14.427-.64 1.005-1.203 2.092-1.713 3.168-.51 1.077-.514 1.456-.982 2.313M93.385 487.02c-2.544-9.675.156-21.404 6.252-29.335.45-.585 1.045-1.212 1.778-1.144 1.122.104 1.414 1.6 1.364 2.727-.441 9.886-3.74 19.63-9.394 27.752M96.48 489.136c11.754 3.059 25.239.084 35.015-7.123-5.794-2.936-12.623-3.773-18.955-2.325-6.332 1.447-12.119 4.284-16.06 9.448M99.09 482.692c6.583-10.73 19.204-17.736 31.78-18.375-1.45 5.115-5.653 9.091-10.395 11.492-4.743 2.402-10.036 3.447-15.255 4.462-2.03.394-4.814.826-6.13 2.42M94.04 451.435c1.781-6.108 3.574-12.268 4.063-18.612.49-6.343-.415-12.966-3.707-18.408-6.149 11.897-6.77 25.8-.542 37.658l.185-.638M114.742 440.97c7.19-13.069 21.862-23.509 36.707-24.971-5.726 14.258-21.344 25.278-36.707 24.97M110.217 443.53c10.725 1.635 19.863 8.486 29.884 12.638 2.144.888 4.456 1.595 6.756 1.293 2.302-.3 4.571-1.844 5.087-4.106.428-1.88-.427-3.874-1.776-5.25-1.347-1.376-3.128-2.236-4.907-2.976-10.916-4.545-22.621-4.658-34.12-1.902l-.924.303" fill="#dadbd8"/><path d="M104.011 451.053c2.429.696 3.258 1.953 5.181 3.59a55.9 55.9 0 0022.662 11.642c.865.215 2 .3 2.43-.481.375-.684-.1-1.51-.587-2.119-3.483-4.36-8.453-7.341-13.682-9.289-5.23-1.948-9.761-4.296-16.004-3.792v.45M97.008 405.624c8.721 8.139 21.005 12.319 32.88 11.185.541-.05 1.13-.136 1.497-.536.828-.901-.165-2.29-1.13-3.041-9.666-7.539-21.375-10.661-33.247-7.608" fill="#dadbd8"/><path d="M105.312 402.584c11.527-8.643 27.335-11.25 41.028-6.77-5.167 5.094-12.336 7.833-19.55 8.585-7.217.75-14.442-.05-21.478-1.815M102.012 381.708c-.95-9.648-.333-17.265-1.004-26.959-.053-.774-.22-1.706-.944-1.985-1.009-.39-1.85.85-2.18 1.88-2.874 8.937-1.303 19.185 4.113 26.852" fill="#dadbd8"/><path d="M101.317 382.775c6.54-4.044 11.446-9.327 15.983-15.534 3.157-4.321 5.819-9.494 5.101-14.797-4.433-.088-8.646 2.357-11.53 5.725-2.883 3.368-4.597 7.58-5.876 11.826-1.28 4.245-2.176 8.608-3.678 12.78M117.02 378.412a128.896 128.896 0 0039.335-23.193c-4.699-1.894-10.078-.76-14.775 1.136-10.733 4.332-19.501 11.645-24.765 21.952M105.732 388.053c7.261.794 14.638 1.31 21.843.107 7.08-1.184 13.772-3.99 20.389-6.776.548-.23 1.145-.507 1.385-1.05.262-.591-.017-1.311-.496-1.746-.48-.433-1.117-.64-1.74-.815-7.193-2.012-14.956-1.07-22.034 1.316-7.078 2.387-12.881 5.223-19.347 8.964M64.27 405.953c-4.953-10-4.631-21.669-.352-31.976 3.013 4.591 3.38 10.436 2.83 15.899-.55 5.463-2.214 11.085-2.321 16.575M44.48 395.972c-12.368-.236-24.74 5.035-33.14 14.117 6.174.97 12.532-.621 18.147-3.364 5.615-2.742 10.605-6.589 15.552-10.409M31.175 391.523c-6.051-.492-11.873-1.24-17.69.542C7.665 393.848 2.371 397.895 0 403.5c5.66.638 11.398-.782 16.585-3.134 5.188-2.349 9.905-5.606 14.59-8.842M50.875 391.725c-5.443-3.566-11.033-7.197-17.371-8.676-6.338-1.477-13.683-.385-18.102 4.392 5.13 3.011 11.355 3.366 17.304 3.362 5.948-.004 13.241-.072 18.85 1.912" fill="#dadbd8"/><path d="M50.908 392.013c-9.306-9.138-12.835-25.553-9.09-38.046 7.315 11.114 10.59 24.825 9.09 38.046M76.497 366.121c1.755-4.08 2.99-8.362 4.563-12.516 1.575-4.152 3.532-8.24 6.508-11.537 2.975-3.297 7.089-5.753 11.525-5.973-2.777 12.573-11.128 23.809-22.368 30.092M71.866 371.517c-2.905-3.998-6.26-9.425-10.199-12.409-3.938-2.983-9.066-4.79-13.873-3.643 4.888 8.738 14.126 14.898 24.072 16.052M72.792 366.455c-1.903-4.838-3.82-9.727-4.59-14.868-.77-5.14-.301-10.632 2.327-15.116 5.108 9.656 6.753 20.02 2.524 30.093M76.544 336.47c2.893-9.573 11.659-16.62 21.121-19.855 1.193-.408 2.457-.748 3.704-.555 1.246.192 2.467 1.044 2.73 2.277.344 1.63-1 3.088-2.266 4.171a71.924 71.924 0 01-25.29 13.963M76.648 328.64c.368-6.17.753-12.432 2.76-18.28 2.008-5.848 5.877-11.333 11.506-13.892.957 6.232-1.794 12.435-5.11 17.797-3.317 5.366-7.314 10.428-9.307 16.412M76.497 332.89c-2.391-6.975-2.64-15.838-6.816-21.915-2.92-4.248-7.597-7.143-10.113-11.643-1.672 4.203-1.16 9.045.588 13.216 1.748 4.172 4.637 7.763 7.729 11.064 3.091 3.303 5.738 5.785 8.612 9.277" fill="#dadbd8"/><path d="M76.544 538.336c-.187 0-.347-46.539-.36-103.933-.013-57.416.127-103.944.313-103.944.185 0 .347 46.528.36 103.944.013 57.394-.128 103.933-.313 103.933" fill="#dadbd8"/><path d="M117.213 398.93c.013.045-.611.277-1.75.657l-4.815 1.625a279.9 279.9 0 00-15.692 5.868c-5.995 2.57-11.647 4.659-14.866 7.447-1.609 1.378-2.532 2.868-2.988 3.952-.461 1.094-.544 1.762-.605 1.75-.023-.004-.016-.17.02-.488.053-.314.134-.782.342-1.357.392-1.147 1.29-2.74 2.914-4.212 1.619-1.476 3.87-2.801 6.451-4.007 2.58-1.204 5.44-2.461 8.477-3.708 6.072-2.488 11.693-4.428 15.799-5.697 2.052-.64 3.727-1.112 4.887-1.423 1.164-.305 1.813-.45 1.826-.406" fill="#dadbd8"/><path d="M130.543 366.187c.015.017-.153.197-.49.524-.397.37-.89.834-1.493 1.402l-5.576 5.064L104.43 389.7c-7.244 6.448-13.503 12.608-17.841 17.246a205.629 205.629 0 00-5.05 5.576l-1.348 1.54c-.312.35-.485.524-.504.511-.018-.015.12-.219.398-.597.283-.374.693-.931 1.253-1.622 1.108-1.394 2.768-3.366 4.901-5.729 4.26-4.733 10.485-10.967 17.743-17.427a2474.055 2474.055 0 0118.689-16.377l5.716-4.904c.637-.528 1.159-.96 1.577-1.308.366-.293.565-.439.58-.421" fill="#dadbd8"/><path d="M96.61 396.255c-.19-.084 1.323-3.578 2.83-7.996 1.523-4.418 2.239-8.147 2.43-8.116.177.018-.251 3.856-1.792 8.33a54.379 54.379 0 01-2.253 5.595c-.66 1.395-1.133 2.224-1.216 2.187M76.586 424.423c-.037.028-.433-.435-1.116-1.295l-2.86-3.667c-2.402-3.104-5.722-7.389-9.443-12.08a1212.78 1212.78 0 00-9.623-11.941l-2.922-3.617c-.683-.86-1.044-1.351-1.008-1.382.034-.029.462.404 1.207 1.212.745.808 1.8 1.996 3.087 3.482 2.574 2.966 6.056 7.132 9.785 11.829a367.186 367.186 0 019.298 12.212 161.279 161.279 0 012.69 3.796c.618.908.943 1.424.905 1.45" fill="#dadbd8"/><path d="M67.669 412.975c-.11.118-2.49-2.704-3.736-6.994-.92-3.021-.96-5.786-.847-7.05l.297.024c-.133.538-.23.824-.284.814-.052-.009-.055-.308-.011-.861l.297.023c.108 1.254.299 3.924 1.193 6.86 1.203 4.156 3.27 7.07 3.09 7.184M56.156 398.495c-.086.092-.851-.872-2.608-1.516-1.742-.674-4.364-.823-7.241-.575-2.88.21-5.452.724-7.293 1.176-1.84.456-2.965.815-3 .72-.031-.08 1.04-.599 2.872-1.177 1.83-.578 4.437-1.175 7.37-1.39 2.91-.253 5.67-.028 7.47.804 1.826.81 2.49 1.94 2.43 1.958M53.428 394.984c-.052.105-1.52-.61-3.996-1.455a41.247 41.247 0 00-9.97-2.052 41.205 41.205 0 00-10.168.518c-2.576.461-4.135.942-4.17.832-.015-.044.362-.202 1.06-.452.694-.259 1.725-.555 3.017-.847 2.58-.592 6.262-1.024 10.312-.723 4.047.316 7.62 1.302 10.081 2.278 1.233.485 2.208.934 2.854 1.294.653.352 1 .566.98.607M76.497 380.143c-.18.046-1.485-4.487-2.914-10.122-1.43-5.638-2.443-10.244-2.263-10.289.18-.045 1.485 4.485 2.914 10.124 1.43 5.635 2.443 10.241 2.263 10.287" fill="#dadbd8"/><path d="M76.682 380.143c-.2.065-1.039-2.963-3.23-6.06-2.132-3.163-4.854-4.75-4.754-4.906.036-.07.787.204 1.835.947 1.05.73 2.35 1.97 3.47 3.572 2.274 3.223 2.842 6.436 2.68 6.447M76.544 513.528c-.073.01-.21-1.119-.734-3.096-.519-1.976-1.495-4.78-3.11-8.057-3.216-6.571-9.067-14.903-16.501-23.246-3.683-4.21-7.258-8.18-10.29-11.982-3.04-3.795-5.537-7.413-7.36-10.614-1.83-3.197-3.02-5.941-3.715-7.876-.342-.97-.592-1.728-.73-2.252-.147-.521-.213-.797-.19-.804.06-.018.398 1.066 1.164 2.963.766 1.896 2.014 4.587 3.881 7.73 1.862 3.145 4.382 6.709 7.432 10.465 3.045 3.763 6.625 7.712 10.315 11.928 7.454 8.365 13.29 16.802 16.422 23.48 1.575 3.334 2.492 6.192 2.936 8.202.215 1.008.36 1.794.412 2.334.067.538.09.821.068.825" fill="#dadbd8"/><path d="M113.294 472.018c.022.05-.682.405-1.926 1.08a42.057 42.057 0 00-4.996 3.303c-2.009 1.538-4.255 3.558-6.56 5.984-2.304 2.432-4.676 5.257-7.097 8.286-4.84 6.073-9.368 11.447-12.079 15.737a64.06 64.06 0 00-3.032 5.18c-.661 1.256-1.011 1.961-1.06 1.94-.022-.01.04-.199.178-.548.143-.345.338-.865.647-1.508.587-1.3 1.53-3.142 2.865-5.319 2.633-4.393 7.124-9.84 11.956-15.902 2.426-3.035 4.827-5.866 7.173-8.294 2.351-2.425 4.657-4.43 6.723-5.935 2.068-1.509 3.878-2.527 5.16-3.156.638-.32 1.159-.515 1.503-.665.348-.14.535-.205.545-.183" fill="#dadbd8"/><path d="M114.013 485.484c.008.097-1.555.287-4.07.592-2.509.324-6 .742-9.656 1.9-3.644 1.188-6.672 2.995-8.645 4.537-1.993 1.54-2.933 2.814-3.025 2.739-.032-.023.163-.37.603-.936.436-.57 1.149-1.332 2.121-2.17 1.941-1.674 5-3.59 8.74-4.809 3.745-1.186 7.284-1.53 9.814-1.736 2.539-.183 4.11-.204 4.118-.117" fill="#dadbd8"/><path d="M89.805 493.773c-.212-.12 1.623-2.922 3.046-6.692 1.335-3.802 1.647-7.139 1.887-7.1.087.01.084.844-.068 2.184-.16 1.335-.48 3.192-1.187 5.146-.711 1.952-1.644 3.584-2.36 4.718-.727 1.136-1.242 1.791-1.318 1.744M125.196 435.865c.008.022-.217.142-.652.347l-1.913.87c-.838.36-1.855.815-3.001 1.42-1.15.591-2.493 1.203-3.89 2.042l-2.221 1.262c-.77.445-1.532.97-2.342 1.478-1.638.992-3.278 2.216-5.029 3.465-3.425 2.6-7.027 5.676-10.494 9.23-3.435 3.589-6.388 7.294-8.87 10.808-1.188 1.793-2.354 3.473-3.291 5.143-.48.827-.98 1.607-1.395 2.393l-1.187 2.261c-.79 1.427-1.356 2.788-1.909 3.958a40.575 40.575 0 00-1.316 3.047l-.804 1.941c-.19.443-.301.671-.323.663-.022-.006.046-.249.196-.708l.687-1.989a34.56 34.56 0 011.215-3.104c.523-1.19 1.061-2.574 1.83-4.02l1.154-2.296c.407-.797.898-1.588 1.371-2.428.921-1.694 2.079-3.399 3.262-5.213 2.471-3.56 5.434-7.306 8.896-10.923 3.495-3.583 7.138-6.67 10.61-9.263 1.774-1.243 3.437-2.457 5.098-3.437.823-.501 1.597-1.017 2.378-1.452l2.257-1.232c1.42-.819 2.784-1.403 3.955-1.967a33.904 33.904 0 013.06-1.32l1.966-.756c.452-.165.693-.241.702-.22" fill="#dadbd8"/><path d="M96.11 455.353c-.058-.009.265-1.14 1.6-2.382 1.302-1.24 3.677-2.388 6.444-2.472 2.757-.074 5.148.698 6.78 1.325 1.642.645 2.597 1.167 2.564 1.245-.038.094-1.06-.274-2.72-.796-1.653-.506-3.99-1.173-6.603-1.1-2.604.078-4.852 1.08-6.155 2.159-1.333 1.073-1.802 2.085-1.91 2.021M91.763 459.839c-.184-.103 1.456-2.509 1.83-5.954.429-3.44-.614-6.157-.41-6.214.074-.031.44.601.755 1.734.318 1.125.529 2.767.322 4.559-.211 1.79-.793 3.339-1.362 4.36-.568 1.03-1.07 1.56-1.135 1.515M44.401 520.195c1.003 17.785 6.363 35.873 14.606 54.16h35.848c7.861-18.106 12.85-36.164 13.737-54.16h-64.19" fill="#dadbd8"/><path d="M102.782 548.975c0 .185-11.802.336-26.359.336-14.561 0-26.361-.15-26.361-.336 0-.186 11.8-.338 26.361-.338 14.557 0 26.36.152 26.36.338M101.981 555.417c0 .187-11.064.336-24.71.336-13.651 0-24.714-.15-24.714-.336 0-.185 11.063-.336 24.713-.336 13.647 0 24.711.151 24.711.336M59.585 531.872c.186 0 .337 3.699.337 8.257 0 4.562-.151 8.258-.337 8.258-.186 0-.337-3.696-.337-8.258 0-4.558.151-8.257.337-8.257" fill="#fafaf9"/><path d="M78.792 531.872c.186 0 .336 3.83.336 8.55 0 4.725-.15 8.553-.336 8.553-.186 0-.336-3.828-.336-8.552 0-4.722.15-8.55.336-8.55M96.823 531.728c.186 0 .336 3.906.336 8.721 0 4.818-.15 8.722-.336 8.722-.186 0-.336-3.904-.336-8.722 0-4.815.15-8.721.336-8.721" fill="#fafaf9"/><path d="M107.454 531.872c0 .187-13.844.337-30.917.337-17.078 0-30.919-.15-30.919-.337 0-.184 13.84-.336 30.92-.336 17.072 0 30.916.152 30.916.336" fill="#fafaf9"/><path d="M617.23 574.506c0 .191-132.671.347-296.289.347-163.676 0-296.318-.156-296.318-.347 0-.191 132.642-.347 296.318-.347 163.618 0 296.288.156 296.288.347" fill="#17282f"/><path d="M500.037.397l-36.212-.02c-4.857-.002-8.796 4.111-8.794 9.187l-.004 6.568c.001 5.077-3.938 9.192-8.794 9.188l-70.586-.041c-4.858-.002-8.794-4.12-8.792-9.199l.001-6.568c0-5.076-3.936-9.195-8.793-9.197L345.328.307 313.633.288c-15.741-.008-28.508 12.748-28.51 28.49l-.09 457.05c-.004 15.735 12.744 28.49 28.476 28.501l186.406.108c15.74.01 28.506-12.745 28.51-28.488l.09-457.052c.001-15.732-12.744-28.489-28.478-28.5" fill="#fff"/><path d="M500.037.397s.328.004.976.03c.644.062 1.624-.015 2.888.224 2.527.297 6.37 1.117 10.69 3.692 2.182 1.23 4.401 3.001 6.501 5.268a28.487 28.487 0 015.427 8.506c1.41 3.388 2.173 7.347 2.134 11.57.006 4.206.011 8.686.015 13.432l.097 160.772.04 238.444v42.704c-.032 2.895-.218 5.874-1.092 8.695-.821 2.818-1.988 5.567-3.64 8.029a30.828 30.828 0 01-5.934 6.588c-4.635 3.718-10.439 6.09-16.458 6.386-3.862.114-7.708.1-11.565.084-2.11-.008-4.221-.016-6.341-.004l-36.292-.016-74.478-.037c-12.608-.007-25.306-.015-38.092-.02l-19.238-.01c-6.458.329-13.159-1.377-18.558-5.126-5.425-3.723-9.429-9.354-11.297-15.602-1.004-3.114-1.19-6.438-1.19-9.64l.003-9.607.008-38.104.022-74.498.05-140.83.062-127.435.034-57.753.006-6.912c.016-1.148.098-2.31.16-3.458.201-1.133.289-2.286.582-3.396 1.044-4.461 3.108-8.637 5.995-12.074A29.665 29.665 0 01302.12 2.4c4.01-1.81 8.416-2.448 12.667-2.396 8.485.01 16.766.02 24.84.028l11.949.015 5.855.008c1.957-.098 4 .438 5.609 1.566a9.42 9.42 0 013.485 4.579c.732 1.83.558 3.805.579 5.628 0 .928-.001 1.852-.003 2.773.003.926-.03 1.842.09 2.716.225 1.764.972 3.452 2.126 4.77a8.39 8.39 0 004.354 2.704c.842.21 1.682.27 2.569.253l2.625.004 10.286.013 37.573.056 16.565.027c.464-.008.932-.003 1.398.003.844.009 1.682.018 2.484-.052a8.376 8.376 0 003.488-1.227c2.092-1.301 3.512-3.461 3.993-5.74.261-1.14.216-2.303.224-3.46.001-1.153.004-2.29.007-3.41.013-1.111-.055-2.23.148-3.322a9.644 9.644 0 011.076-3.052 8.98 8.98 0 014.549-4.021c1.475-.642 3.024-.624 4.495-.606.394.004.784.01 1.164.002 7.302.018 13.485.036 18.482.049l11.368.047c2.56.014 3.872.042 3.872.042s-1.312.028-3.872.039c-2.569.008-6.377.02-11.368.033L466.315.5c-.386.008-.776.005-1.17.001-1.465-.012-2.974-.024-4.394.603a8.722 8.722 0 00-4.403 3.914 9.388 9.388 0 00-1.035 2.967c-.194 1.05-.125 2.153-.137 3.275l.004 3.409c-.005 1.143.045 2.341-.221 3.525-.492 2.358-1.955 4.599-4.126 5.956a8.695 8.695 0 01-3.624 1.284c-.85.075-1.684.067-2.522.059a48.843 48.843 0 00-1.398.001l-16.565.008-37.575.011-10.284.001c-.872.002-1.748.002-2.625.002-.87.02-1.805-.042-2.683-.264a8.872 8.872 0 01-4.604-2.848c-1.221-1.387-2.008-3.164-2.248-5.022-.128-.937-.093-1.865-.097-2.78l-.001-2.773c-.024-1.86.14-3.735-.556-5.457a8.911 8.911 0 00-3.302-4.327c-1.537-1.061-3.401-1.563-5.318-1.47H314.786c-4.213-.045-8.497.583-12.433 2.36a29.089 29.089 0 00-10.344 7.747c-2.824 3.37-4.84 7.46-5.857 11.828-.288 1.084-.37 2.215-.568 3.324-.057 1.127-.139 2.251-.155 3.394.002 2.292.002 4.596.003 6.912l.012 57.753.012 127.435-.004 140.83c-.003 24.423-.007 49.275-.008 74.498l-.007 38.104-.001 9.606c.003 3.195.179 6.37 1.157 9.414 1.816 6.072 5.708 11.546 10.983 15.166 5.276 3.644 11.699 5.303 18.099 4.982 6.434.003 12.846.008 19.24.012 12.784.008 25.484.015 38.092.024l74.477.05 36.29.024c2.127-.012 4.257-.004 6.383.005 3.851.015 7.69.031 11.479-.078 5.857-.285 11.504-2.595 16.017-6.212a30.036 30.036 0 005.78-6.41c1.61-2.395 2.744-5.073 3.546-7.817.853-2.752 1.03-5.619 1.066-8.486l.004-8.64.012-34.064c.051-89.744.098-170.564.135-238.444l.159-160.772.021-13.432c.05-4.198-.692-8.112-2.08-11.479a28.278 28.278 0 00-5.353-8.461c-2.075-2.259-4.272-4.031-6.436-5.266-4.283-2.581-8.102-3.425-10.618-3.749-1.257-.25-2.234-.188-2.878-.264-.646-.04-.974-.07-.974-.07" fill="#17282f"/><path d="M505.547 46.548c.001.123-4.71.261-10.518.31-5.81.047-10.521-.013-10.521-.135-.001-.123 4.708-.26 10.517-.31 5.808-.048 10.52.014 10.522.135M505.59 51.932c.002.123-4.707.26-10.517.308-5.809.048-10.52-.012-10.52-.135-.001-.122 4.707-.26 10.516-.308 5.811-.049 10.52.012 10.522.135M505.635 57.315c.001.121-4.708.26-10.518.308-5.809.048-10.518-.012-10.52-.135-.001-.123 4.707-.26 10.516-.308 5.811-.048 10.52.012 10.522.135M314.197 63.459c.01-.01.159-.018.439-.03l1.216-.04c1.148-.028 2.65-.062 4.492-.108l-.124.127-.053-3.257c.006-.606-.052-1.176.006-1.875a1.726 1.726 0 011.508-1.384c.724-.015 1.362-.048 2.147-.012.81.1 1.497.879 1.473 1.735l.054 4.75-.208-.205c1.818-.017 3.713-.036 5.666-.057l-.216.22-.062-7.062-.016-1.797c-.003-.555-.34-.925-.796-1.339l-2.478-2.442-2.39-2.358-1.158-1.144c-.398-.384-.71-.78-1.172-.876a1.53 1.53 0 00-1.301.25c-.341.289-.708.701-1.055 1.037-.696.704-1.374 1.388-2.032 2.05-1.278 1.329-2.612 2.543-3.58 3.69-.408.633-.254 1.41-.284 2.115l-.005 1.997c-.007 1.224-.015 2.296-.019 3.216l-.024 2.057c-.008.475-.016.73-.028.742-.009.01-.022-.224-.038-.682l-.056-2.025-.074-3.243c-.012-.64-.025-1.32-.037-2.036l-.019-1.114a2.36 2.36 0 01.314-1.186c1.048-1.284 2.3-2.421 3.588-3.789l2.017-2.067c.364-.356.661-.712 1.095-1.082a1.927 1.927 0 011.642-.324c.603.133.995.626 1.362.973l1.162 1.139 2.398 2.35 2.481 2.436c.199.211.439.39.633.687.183.281.288.616.296.955.007.598.012 1.201.018 1.808l.053 7.06.001.218-.217.002-5.667.036-.206.001-.002-.207-.025-4.752c.025-.684-.508-1.288-1.144-1.374-.653-.035-1.421-.012-2.056-.007a1.39 1.39 0 00-1.221 1.101c-.055.571-.014 1.235-.026 1.812l.002 3.258v.128l-.126-.002-4.566-.032c-.462-.008-.852-.014-1.19-.021-.265-.007-.398-.013-.392-.021" fill="#17282f"/><path d="M518.152 310.933H298.876V256.34h219.276v54.594" fill="#f3f2f1"/><path d="M499.395 302.041h-31.839c-5.46 0-9.888-4.426-9.888-9.888 0-5.46 4.428-9.888 9.888-9.888h31.839c5.461 0 9.888 4.428 9.888 9.888 0 5.462-4.427 9.888-9.888 9.888" fill="#f03d5f"/><path d="M307.988 115.615v1.314h2.3v.923h-2.3v1.81h-1.15v-4.97h3.755v.923h-2.605M313.463 115.63h-.938v1.733h.938c.702 0 1.057-.327 1.057-.867 0-.547-.355-.867-1.057-.867zm1.078 4.033l-.958-1.386h-1.058v1.386h-1.15v-4.971h2.152c1.326 0 2.157.69 2.157 1.804 0 .745-.376 1.292-1.021 1.57l1.114 1.597h-1.236M320.556 117.177c0-.944-.668-1.59-1.556-1.59s-1.556.646-1.556 1.59c0 .944.668 1.591 1.556 1.591s1.556-.647 1.556-1.59zm-4.276 0c0-1.476 1.15-2.569 2.72-2.569 1.561 0 2.72 1.085 2.72 2.57 0 1.483-1.159 2.57-2.72 2.57-1.57 0-2.72-1.093-2.72-2.57M327.108 119.663l-.007-2.983-1.462 2.457h-.519l-1.455-2.392v2.918h-1.08v-4.971h.952l1.859 3.09 1.832-3.09h.944l.015 4.97h-1.079" fill="#17282f"/><path d="M421.916 115.63h-1.59v-.938h4.331v.937h-1.59v4.034h-1.151v-4.034M429.165 117.177c0-.944-.666-1.59-1.554-1.59s-1.555.646-1.555 1.59c0 .944.667 1.591 1.555 1.591.888 0 1.554-.647 1.554-1.59zm-4.274 0c0-1.476 1.15-2.569 2.72-2.569 1.561 0 2.72 1.085 2.72 2.57 0 1.483-1.159 2.57-2.72 2.57-1.57 0-2.72-1.093-2.72-2.57" fill="#040606"/><path d="M307.444 166.31c1.228 0 2.016-.753 2.016-1.867 0-1.115-.788-1.868-2.016-1.868h-1.341v3.734zm-2.052-4.353h2.095c1.597 0 2.684 1.008 2.684 2.486 0 1.476-1.087 2.485-2.684 2.485h-2.095v-4.97M314.864 166.31v.618h-3.608v-4.97h3.51v.617h-2.8v1.526h2.493v.604h-2.492v1.604h2.897M319.316 163.69c0-.71-.476-1.115-1.384-1.115h-1.208v2.23h1.208c.908 0 1.384-.405 1.384-1.114zm.71 0c0 1.08-.782 1.733-2.074 1.733h-1.228v1.505h-.71v-4.97h1.938c1.292 0 2.073.653 2.073 1.733M323.739 165.117l-1.072-2.436-1.072 2.436zm.248.568h-2.642l-.546 1.243h-.732l2.252-4.97h.702l2.258 4.97h-.746l-.546-1.243M329.32 163.69c0-.71-.477-1.115-1.385-1.115h-1.208v2.237h1.208c.908 0 1.385-.412 1.385-1.121zm.02 3.238l-1.072-1.527-.312.015h-1.23v1.512h-.709v-4.97h1.939c1.292 0 2.073.653 2.073 1.733 0 .766-.398 1.32-1.093 1.568l1.177 1.669h-.773M332.096 162.575h-1.705v-.618h4.11v.618H332.8v4.353h-.703v-4.353M335.141 164.783v-2.826h.71v2.798c0 1.101.504 1.598 1.398 1.598.895 0 1.407-.497 1.407-1.598v-2.798h.688v2.826c0 1.441-.788 2.201-2.101 2.201-1.307 0-2.102-.76-2.102-2.201M344.101 163.69c0-.71-.476-1.115-1.384-1.115h-1.208v2.237h1.208c.908 0 1.384-.412 1.384-1.121zm.02 3.238l-1.07-1.527-.314.015h-1.228v1.512h-.71v-4.97h1.938c1.292 0 2.074.653 2.074 1.733 0 .766-.398 1.32-1.092 1.568l1.177 1.669h-.775M349.568 166.31v.618h-3.607v-4.97h3.508v.617h-2.798v1.526h2.493v.604h-2.493v1.604h2.897M380.908 271.967c0-.426-.319-.739-.865-.739-.491 0-.831.284-.831.739 0 .454.333.746.844.746.504 0 .852-.313.852-.746zm1.285.866c0 1.719-1.029 2.676-2.534 2.676-.526 0-1.031-.12-1.379-.34l.427-.844c.27.184.589.248.93.248.823 0 1.363-.49 1.399-1.449-.29.292-.717.448-1.236.448-.959 0-1.71-.61-1.71-1.548 0-1.016.83-1.655 1.88-1.655 1.378 0 2.223.859 2.223 2.464M382.71 274.785c0-.41.306-.68.689-.68.384 0 .689.27.689.68a.679.679 0 01-.69.698.679.679 0 01-.687-.698zm0-2.548c0-.412.306-.682.689-.682.384 0 .689.27.689.682a.679.679 0 01-.69.696.678.678 0 01-.687-.696M387.71 272.94c0-1.13-.398-1.599-.973-1.599-.569 0-.965.47-.965 1.599 0 1.128.396 1.597.965 1.597.575 0 .974-.469.974-1.597zm-3.102 0c0-1.64.908-2.57 2.13-2.57 1.227 0 2.13.93 2.13 2.57 0 1.64-.903 2.57-2.13 2.57-1.222 0-2.13-.93-2.13-2.57M392.53 272.94c0-1.13-.398-1.599-.973-1.599-.568 0-.965.47-.965 1.599 0 1.128.397 1.597.965 1.597.575 0 .974-.469.974-1.597zm-3.102 0c0-1.64.908-2.57 2.13-2.57 1.227 0 2.13.93 2.13 2.57 0 1.64-.903 2.57-2.13 2.57-1.222 0-2.13-.93-2.13-2.57M396.35 272.983h2.01v.888h-2.01v-.888M402.925 270.455v4.97h-1.149v-4.046h-.996v-.924h2.145M407.504 274.488v.937h-3.756v-.746l1.917-1.81c.44-.42.518-.674.518-.917 0-.39-.27-.617-.794-.617-.428 0-.789.164-1.03.498l-.839-.541c.384-.561 1.08-.923 1.975-.923 1.108 0 1.845.57 1.845 1.47 0 .484-.133.924-.83 1.569l-1.143 1.08h2.137M407.944 274.785c0-.41.305-.68.688-.68.384 0 .69.27.69.68a.679.679 0 01-.69.698.679.679 0 01-.688-.698zm0-2.548c0-.412.305-.682.688-.682.384 0 .69.27.69.682a.679.679 0 01-.69.696.678.678 0 01-.688-.696M412.944 272.94c0-1.13-.399-1.599-.973-1.599-.57 0-.967.47-.967 1.599 0 1.128.397 1.597.967 1.597.574 0 .973-.469.973-1.597zm-3.104 0c0-1.64.91-2.57 2.13-2.57 1.229 0 2.131.93 2.131 2.57 0 1.64-.902 2.57-2.13 2.57-1.222 0-2.131-.93-2.131-2.57M417.764 272.94c0-1.13-.399-1.599-.973-1.599-.568 0-.966.47-.966 1.599 0 1.128.398 1.597.966 1.597.574 0 .973-.469.973-1.597zm-3.103 0c0-1.64.908-2.57 2.13-2.57 1.228 0 2.13.93 2.13 2.57 0 1.64-.902 2.57-2.13 2.57-1.222 0-2.13-.93-2.13-2.57M424.947 272.259c0-.547-.354-.867-1.058-.867h-.937v1.725h.937c.704 0 1.058-.32 1.058-.858zm1.165 0c0 1.108-.83 1.796-2.159 1.796h-1.001v1.37h-1.15v-4.97h2.151c1.328 0 2.159.689 2.159 1.804M431.45 275.425l-.006-2.981-1.463 2.455h-.518l-1.456-2.392v2.918h-1.078v-4.97h.951l1.86 3.089 1.832-3.09h.944l.015 4.971h-1.08" fill="#17282f"/><path d="M496.568 238.172h-62.221c-5.936 0-10.748-4.812-10.748-10.748 0-5.936 4.812-10.75 10.748-10.75h62.221c5.936 0 10.75 4.814 10.75 10.75s-4.814 10.748-10.75 10.748" fill="#f03d5f"/><path d="M450.037 229.025l.396-.876c.423.308 1.056.524 1.659.524.688 0 .97-.229.97-.538 0-.94-2.923-.295-2.923-2.162 0-.854.689-1.565 2.118-1.565.632 0 1.279.15 1.744.445l-.358.883a2.843 2.843 0 00-1.394-.395c-.689 0-.954.259-.954.575 0 .925 2.924.287 2.924 2.133 0 .839-.698 1.558-2.135 1.558-.797 0-1.601-.238-2.047-.582M458.905 228.587v.934h-3.892v-5.028h3.8v.934h-2.644v1.092h2.334v.905h-2.334v1.163h2.736M462.777 227.56l-.797-1.924-.797 1.924zm.367.884h-2.335l-.445 1.077h-1.193l2.241-5.028h1.15l2.247 5.028h-1.221l-.444-1.077M467.444 225.441h-.948v1.754h.948c.71 0 1.07-.332 1.07-.878 0-.552-.36-.876-1.07-.876zm1.092 4.08l-.97-1.401h-1.07v1.401h-1.163v-5.028h2.175c1.343 0 2.184.698 2.184 1.824 0 .755-.381 1.308-1.033 1.588l1.125 1.616h-1.248M470.293 227.007c0-1.515 1.164-2.599 2.73-2.599.868 0 1.594.315 2.069.89l-.748.69c-.337-.388-.761-.59-1.264-.59-.94 0-1.608.66-1.608 1.609 0 .948.668 1.609 1.608 1.609.503 0 .927-.201 1.264-.596l.748.69c-.475.58-1.201.897-2.076.897-1.559 0-2.723-1.084-2.723-2.6M480.484 224.493v5.028h-1.164v-2.061h-2.284v2.061h-1.163v-5.028h1.163v1.983h2.284v-1.983h1.164M479.252 294.441v1.295h-5.188v-1.03l2.648-2.5c.608-.58.716-.933.716-1.266 0-.539-.372-.853-1.099-.853-.589 0-1.089.225-1.422.686l-1.156-.745c.528-.775 1.489-1.275 2.725-1.275 1.53 0 2.55.784 2.55 2.031 0 .667-.187 1.275-1.147 2.167l-1.579 1.49h2.952M484.17 292.304c0-1.559-.55-2.207-1.343-2.207-.784 0-1.334.648-1.334 2.207 0 1.559.55 2.207 1.334 2.207.793 0 1.342-.648 1.342-2.207zm-4.285 0c0-2.267 1.255-3.55 2.942-3.55 1.696 0 2.941 1.283 2.941 3.55 0 2.265-1.245 3.55-2.941 3.55-1.687 0-2.942-1.285-2.942-3.55M492.93 293.687l1.011.941c-.648.793-1.628 1.225-2.825 1.225-1.735 0-3.11-.981-3.56-2.461h-1.108v-.824h.961l-.01-.264.01-.265h-.961v-.824h1.108c.45-1.48 1.825-2.462 3.56-2.462 1.197 0 2.177.432 2.825 1.218l-1.01.941c-.471-.53-1.05-.805-1.736-.805-.872 0-1.579.421-1.942 1.108h2.48v.824h-2.725l-.01.265.01.264h2.725v.824h-2.48c.363.687 1.07 1.108 1.942 1.108.686 0 1.265-.275 1.736-.813" fill="#fff"/><path d="M424.344 163.69c0-.71-.475-1.114-1.384-1.114h-1.207v2.236h1.207c.91 0 1.384-.412 1.384-1.121zm.023 3.238l-1.074-1.527-.312.015h-1.228v1.512h-.709v-4.97h1.937c1.294 0 2.075.653 2.075 1.733 0 .766-.399 1.32-1.095 1.569l1.179 1.668h-.773M429.812 166.31v.618h-3.607v-4.97h3.507v.618h-2.797v1.527h2.492v.602h-2.492v1.606h2.897M431.948 162.576h-1.704v-.617h4.11v.617h-1.703v4.352h-.703v-4.352M434.995 164.784v-2.825h.709v2.797c0 1.1.504 1.597 1.399 1.597.896 0 1.405-.497 1.405-1.597v-2.797h.69v2.825c0 1.441-.789 2.201-2.102 2.201-1.307 0-2.101-.76-2.101-2.201M443.953 163.69c0-.71-.474-1.114-1.384-1.114h-1.206v2.236h1.206c.91 0 1.384-.412 1.384-1.121zm.023 3.238l-1.073-1.527-.312.015h-1.228v1.512h-.71v-4.97h1.938c1.293 0 2.074.653 2.074 1.733 0 .766-.398 1.32-1.094 1.569l1.178 1.668h-.773M450.09 161.959v4.969h-.583l-2.982-3.705v3.705h-.709v-4.97h.581l2.983 3.707v-3.706h.71" fill="#040606"/><path d="M314.377 215.419l-1.072-2.435-1.073 2.435zm.248.568h-2.641l-.547 1.242h-.732l2.251-4.969h.704l2.257 4.97h-.745l-.547-1.243M318.708 216.612c1.23 0 2.016-.752 2.016-1.867 0-1.114-.787-1.868-2.016-1.868h-1.341v3.735zm-2.052-4.352h2.095c1.597 0 2.684 1.008 2.684 2.485 0 1.476-1.087 2.484-2.684 2.484h-2.095v-4.969M322.479 215.085v-2.825h.709v2.797c0 1.1.504 1.598 1.399 1.598.894 0 1.406-.498 1.406-1.598v-2.797h.688v2.825c0 1.442-.788 2.202-2.101 2.202-1.307 0-2.101-.76-2.101-2.202M328.136 212.26h.71v4.352h2.691v.617h-3.401v-4.969M332.88 212.877h-1.705v-.617h4.11v.617h-1.702v4.352h-.703v-4.352M335.541 216.663l.263-.555c.37.333 1.001.575 1.64.575.86 0 1.228-.334 1.228-.767 0-1.215-3.01-.447-3.01-2.293 0-.767.597-1.42 1.902-1.42.584 0 1.187.156 1.599.44l-.235.568a2.573 2.573 0 00-1.364-.406c-.843 0-1.207.356-1.207.79 0 1.213 3.012.454 3.012 2.278 0 .76-.61 1.414-1.925 1.414-.76 0-1.504-.256-1.903-.624" fill="#17282f"/><path d="M338.94 237.617c0-.034.352-.038 1.004-.146a7.168 7.168 0 002.676-1.002 7.3 7.3 0 002.905-3.36c.684-1.597.851-3.754-.066-5.765-.883-1.988-2.903-3.77-5.471-4.113-1.247-.156-2.68-.042-4.084-.068l-4.377.013c-6.002.01-12.583.019-19.496.028a7.157 7.157 0 00-4.502 1.627 7.177 7.177 0 00-2.398 3.988c-.666 3.09.974 6.273 3.518 7.618a7.752 7.752 0 001.987.73c.69.133 1.367.149 2.09.145l4.13.017 7.413.043 10.735.11 2.919.066c.666.023 1.017.045 1.017.07 0 .023-.35.047-1.017.07l-2.919.064-10.735.11-7.413.043-4.13.018c-.697.009-1.467-.002-2.213-.144a8.335 8.335 0 01-2.17-.78c-1.364-.756-2.558-1.938-3.259-3.424-.733-1.471-.94-3.218-.62-4.892a7.848 7.848 0 012.624-4.384 7.833 7.833 0 014.943-1.79c6.913.011 13.494.019 19.496.028 1.497.004 2.958.01 4.377.015 1.432.04 2.768-.072 4.168.11 2.776.398 4.924 2.345 5.835 4.483.95 2.164.729 4.45-.026 6.119a7.48 7.48 0 01-3.122 3.437 6.839 6.839 0 01-2.796.908c-.671.064-1.023.008-1.023.008" fill="#dadbd8"/><path d="M327.3 232.161v1.152h-4.617v-.917l2.357-2.225c.541-.515.637-.83.637-1.126 0-.48-.332-.76-.977-.76-.524 0-.97.202-1.265.611l-1.031-.663c.472-.689 1.327-1.134 2.427-1.134 1.361 0 2.269.698 2.269 1.806 0 .594-.165 1.135-1.021 1.928l-1.406 1.328h2.627M336.604 232.83h-1.333v-4.694h1.333v4.695" fill="#17282f"/><path d="M338.283 231.15h-4.694v-1.334h4.694v1.333M362.735 214.745c0-1.47 1.122-2.542 2.634-2.542.767 0 1.435.262 1.89.773l-.463.448c-.383-.404-.852-.59-1.399-.59-1.121 0-1.953.81-1.953 1.911 0 1.1.832 1.91 1.953 1.91.547 0 1.016-.192 1.399-.598l.463.448c-.455.512-1.123.782-1.896.782-1.506 0-2.628-1.072-2.628-2.542M372.548 212.26v4.97h-.71v-2.215h-2.854v2.214h-.71v-4.969h.71v2.136h2.853v-2.136h.711M374.039 212.26h.709v4.97h-.71v-4.97M376.239 212.26h.709v4.352h2.692v.617h-3.401v-4.969M382.508 216.612c1.228 0 2.016-.752 2.016-1.867 0-1.114-.788-1.868-2.016-1.868h-1.341v3.735zm-2.052-4.352h2.095c1.597 0 2.684 1.008 2.684 2.485 0 1.476-1.087 2.484-2.684 2.484h-2.095v-4.969" fill="#17282f"/><path d="M387.537 237.617c-.001-.034.352-.038 1.004-.146a7.18 7.18 0 002.678-1.002 7.296 7.296 0 002.902-3.36c.684-1.597.851-3.754-.065-5.765-.884-1.988-2.903-3.77-5.472-4.113-1.247-.156-2.68-.042-4.083-.068l-4.378.013c-6 .01-12.583.019-19.496.028a7.15 7.15 0 00-4.5 1.627 7.187 7.187 0 00-2.4 3.988c-.666 3.09.974 6.273 3.52 7.618a7.761 7.761 0 001.985.73c.692.133 1.368.149 2.09.145l4.13.017 7.415.043 10.734.11 2.918.066c.668.023 1.018.045 1.018.07 0 .023-.35.047-1.018.07l-2.918.064-10.734.11-7.415.043-4.13.018c-.697.009-1.466-.002-2.211-.144a8.335 8.335 0 01-2.171-.78c-1.364-.756-2.557-1.938-3.26-3.424-.733-1.471-.939-3.218-.62-4.892a7.863 7.863 0 012.624-4.384 7.833 7.833 0 014.943-1.79c6.913.011 13.496.019 19.496.028 1.497.004 2.958.01 4.378.015 1.432.04 2.768-.072 4.167.11 2.776.398 4.924 2.345 5.835 4.483a7.6 7.6 0 01-.026 6.119 7.473 7.473 0 01-3.122 3.437 6.84 6.84 0 01-2.795.908c-.67.064-1.023.008-1.023.008" fill="#dadbd8"/><path d="M375.147 230.259c0-1.388-.488-1.964-1.196-1.964-.699 0-1.187.576-1.187 1.964s.488 1.962 1.187 1.962c.708 0 1.196-.574 1.196-1.962zm-3.814 0c0-2.016 1.116-3.16 2.618-3.16 1.509 0 2.618 1.144 2.618 3.16s-1.109 3.158-2.618 3.158c-1.502 0-2.618-1.142-2.618-3.158M385.2 232.83h-1.333v-4.694h1.333v4.695" fill="#17282f"/><path d="M386.881 231.15h-4.696v-1.334h4.696v1.333" fill="#17282f"/><path d="M524.75 248.855c0 .192-52.589.346-117.447.346-64.88 0-117.459-.154-117.459-.346 0-.192 52.579-.348 117.459-.348 64.858 0 117.448.156 117.448.348M438.473 284.517c0 .191-14.114.347-31.521.347-17.41 0-31.521-.156-31.521-.347 0-.192 14.11-.348 31.521-.348 17.407 0 31.521.156 31.521.348M438.239 291.772c0 .192-14.114.348-31.519.348-17.412 0-31.523-.156-31.523-.348 0-.19 14.111-.348 31.523-.348 17.405 0 31.519.157 31.519.348M404.49 299.028c0 .19-6.505.347-14.529.347-8.026 0-14.53-.156-14.53-.347 0-.192 6.504-.348 14.53-.348 8.024 0 14.53.156 14.53.348" fill="#dadbd8"/><path d="M502.873 273.979c0 .192-9.253.348-20.664.348-11.416 0-20.666-.156-20.666-.348 0-.192 9.25-.347 20.666-.347 11.411 0 20.664.155 20.664.347" fill="#17282f"/><path d="M345.895 301.257c0 .194-7.635.348-17.051.348-9.42 0-17.053-.154-17.053-.348 0-.19 7.633-.345 17.053-.345 9.416 0 17.05.155 17.05.345" fill="#f03d5f"/><path d="M364.127 310.656c-.191 0-.347-11.919-.347-26.619 0-14.704.156-26.621.347-26.621.193 0 .348 11.917.348 26.621 0 14.7-.155 26.619-.348 26.619" fill="#17282f"/><path d="M518.152 373.172H298.876v-54.593h219.276v54.593" fill="#f3f2f1"/><path d="M499.395 364.281h-31.839c-5.46 0-9.888-4.426-9.888-9.888 0-5.461 4.428-9.888 9.888-9.888h31.839c5.461 0 9.888 4.427 9.888 9.888 0 5.462-4.427 9.888-9.888 9.888" fill="#33535f"/><path d="M380.908 334.205c0-.425-.319-.737-.865-.737-.491 0-.831.283-.831.737 0 .455.333.747.844.747.504 0 .852-.313.852-.747zm1.285.868c0 1.718-1.029 2.676-2.534 2.676-.526 0-1.031-.12-1.379-.34l.427-.845c.27.185.589.248.93.248.823 0 1.363-.49 1.399-1.45-.29.293-.717.449-1.236.449-.959 0-1.71-.611-1.71-1.548 0-1.015.83-1.655 1.88-1.655 1.378 0 2.223.86 2.223 2.465M382.71 337.025c0-.412.306-.681.689-.681.384 0 .689.27.689.681a.679.679 0 01-.69.696.678.678 0 01-.687-.696zm0-2.549c0-.412.306-.681.689-.681.384 0 .689.269.689.681a.679.679 0 01-.69.696.678.678 0 01-.687-.696M387.71 335.179c0-1.13-.398-1.598-.973-1.598-.569 0-.965.468-.965 1.598 0 1.128.396 1.597.965 1.597.575 0 .974-.47.974-1.597zm-3.102 0c0-1.64.908-2.571 2.13-2.571 1.227 0 2.13.93 2.13 2.57 0 1.64-.903 2.571-2.13 2.571-1.222 0-2.13-.93-2.13-2.57M392.53 335.179c0-1.13-.398-1.598-.973-1.598-.568 0-.965.468-.965 1.598 0 1.128.397 1.597.965 1.597.575 0 .974-.47.974-1.597zm-3.102 0c0-1.64.908-2.571 2.13-2.571 1.227 0 2.13.93 2.13 2.57 0 1.64-.903 2.571-2.13 2.571-1.222 0-2.13-.93-2.13-2.57M396.35 335.221h2.01v.888h-2.01v-.888M402.925 332.695v4.969h-1.149v-4.047h-.996v-.922h2.145M407.504 336.727v.937h-3.756v-.747l1.917-1.809c.44-.419.518-.675.518-.916 0-.39-.27-.617-.794-.617-.428 0-.789.162-1.03.497l-.839-.541c.384-.56 1.08-.923 1.975-.923 1.108 0 1.845.57 1.845 1.47 0 .483-.133.923-.83 1.569l-1.143 1.08h2.137M407.944 337.025c0-.412.305-.681.688-.681.384 0 .69.27.69.681a.679.679 0 01-.69.696.678.678 0 01-.688-.696zm0-2.549c0-.412.305-.681.688-.681.384 0 .69.269.69.681a.679.679 0 01-.69.696.678.678 0 01-.688-.696M412.944 335.179c0-1.13-.399-1.598-.973-1.598-.57 0-.967.468-.967 1.598 0 1.128.397 1.597.967 1.597.574 0 .973-.47.973-1.597zm-3.104 0c0-1.64.91-2.571 2.13-2.571 1.229 0 2.131.93 2.131 2.57 0 1.64-.902 2.571-2.13 2.571-1.222 0-2.131-.93-2.131-2.57M417.764 335.179c0-1.13-.399-1.598-.973-1.598-.568 0-.966.468-.966 1.598 0 1.128.398 1.597.966 1.597.574 0 .973-.47.973-1.597zm-3.103 0c0-1.64.908-2.571 2.13-2.571 1.228 0 2.13.93 2.13 2.57 0 1.64-.902 2.571-2.13 2.571-1.222 0-2.13-.93-2.13-2.57M424.947 334.497c0-.546-.354-.865-1.058-.865h-.937v1.725h.937c.704 0 1.058-.321 1.058-.86zm1.165 0c0 1.108-.83 1.798-2.159 1.798h-1.001v1.369h-1.15v-4.97h2.151c1.328 0 2.159.689 2.159 1.803M431.45 337.664l-.006-2.981-1.463 2.456h-.518l-1.456-2.392v2.917h-1.078v-4.97h.951l1.86 3.089 1.832-3.088h.944l.015 4.969h-1.08" fill="#17282f"/><path d="M479.31 355.817c0 1.216-.893 2.275-2.854 2.275-.95 0-1.952-.264-2.619-.733l.628-1.218c.52.392 1.236.618 1.952.618.795 0 1.286-.334 1.286-.892 0-.539-.354-.894-1.599-.894h-1.756l.353-3.862h4.188v1.274h-2.864l-.108 1.306h.559c2.03 0 2.835.91 2.835 2.126M484.237 354.543c0-1.559-.549-2.206-1.344-2.206-.782 0-1.333.647-1.333 2.206 0 1.56.55 2.206 1.333 2.206.795 0 1.344-.646 1.344-2.206zm-4.285 0c0-2.266 1.256-3.55 2.941-3.55 1.698 0 2.942 1.284 2.942 3.55 0 2.265-1.244 3.549-2.942 3.549-1.685 0-2.941-1.284-2.941-3.55M492.999 355.925l1.009.942c-.647.794-1.627 1.225-2.824 1.225-1.736 0-3.11-.98-3.56-2.46h-1.108v-.825h.961l-.01-.264.01-.264h-.961v-.824h1.108c.45-1.482 1.824-2.462 3.56-2.462 1.197 0 2.177.431 2.824 1.216l-1.01.942c-.47-.53-1.05-.804-1.735-.804-.874 0-1.579.421-1.942 1.108h2.48v.824h-2.725l-.01.264.01.264h2.725v.825h-2.48c.363.685 1.068 1.108 1.942 1.108.685 0 1.265-.275 1.736-.815" fill="#fff"/><path d="M351.663 338.012c-2.298-2.984-8.754-1.523-13.235.584 0 0-3.075 1.259-4.228 1.932l-.036.007-10.127-1.807a4.188 4.188 0 00-2.433.297l-.857.383a.559.559 0 00-.02 1.012l7.336 3.603.002.092c-4.126 2.413-7.662 4.477-7.662 4.477l-.115.068a6.612 6.612 0 01-4.767.69l-3.93-.918a1.09 1.09 0 00-.603.02 1.004 1.004 0 00-.353 1.684l4.393 4.083a2.43 2.43 0 002.556.477l2.203-.877 11.16-4.615-1.574 6.135c-.06.252.13.496.39.5l.514.009a2.041 2.041 0 001.746-.933l4.828-8.151 13.165-5.444c1.755-.697 2.443-2.133 1.647-3.308" fill="#33535f"/><path d="M351.663 274.408c-2.298-2.983-8.754-1.521-13.235.585 0 0-3.075 1.256-4.228 1.932l-.036.007-10.127-1.807a4.166 4.166 0 00-2.433.296l-.857.383a.56.56 0 00-.02 1.013l7.336 3.6.002.094-7.662 4.478-.115.068a6.618 6.618 0 01-4.767.69l-3.93-.918a1.077 1.077 0 00-.603.019 1.003 1.003 0 00-.353 1.683l4.393 4.084a2.434 2.434 0 002.556.477l2.203-.877 11.16-4.614-1.574 6.135c-.06.252.13.496.39.5l.514.008a2.04 2.04 0 001.746-.935l4.828-8.149 13.165-5.443c1.755-.698 2.443-2.134 1.647-3.309" fill="#f03d5f"/><path d="M438.473 346.756c0 .192-14.114.347-31.521.347-17.41 0-31.521-.155-31.521-.347 0-.192 14.11-.347 31.521-.347 17.407 0 31.521.155 31.521.347M438.239 354.012c0 .19-14.114.347-31.519.347-17.412 0-31.523-.156-31.523-.347 0-.193 14.111-.348 31.523-.348 17.405 0 31.519.155 31.519.348M404.49 361.267c0 .192-6.505.346-14.529.346-8.026 0-14.53-.154-14.53-.346 0-.192 6.504-.348 14.53-.348 8.024 0 14.53.156 14.53.348" fill="#dadbd8"/><path d="M502.873 336.217c0 .194-9.253.348-20.664.348-11.416 0-20.666-.154-20.666-.348 0-.19 9.25-.346 20.666-.346 11.411 0 20.664.156 20.664.346" fill="#17282f"/><path d="M345.895 363.497c0 .192-7.635.348-17.051.348-9.42 0-17.053-.156-17.053-.348 0-.192 7.633-.346 17.053-.346 9.416 0 17.05.154 17.05.346" fill="#33535f"/><path d="M364.127 372.896c-.191 0-.347-11.92-.347-26.62 0-14.704.156-26.621.347-26.621.193 0 .348 11.917.348 26.621 0 14.7-.155 26.62-.348 26.62" fill="#17282f"/><path d="M518.152 435.412H298.876v-54.595h219.276v54.595" fill="#f3f2f1"/><path d="M499.395 426.52h-31.839c-5.46 0-9.888-4.428-9.888-9.888 0-5.461 4.428-9.887 9.888-9.887h31.839c5.461 0 9.888 4.426 9.888 9.887 0 5.46-4.427 9.888-9.888 9.888" fill="#f03d5f"/><path d="M380.908 396.445c0-.425-.319-.738-.865-.738-.491 0-.831.284-.831.738 0 .455.333.747.844.747.504 0 .852-.313.852-.747zm1.285.867c0 1.717-1.029 2.676-2.534 2.676-.526 0-1.031-.12-1.379-.34l.427-.844c.27.184.589.248.93.248.823 0 1.363-.49 1.399-1.45-.29.293-.717.449-1.236.449-.959 0-1.71-.611-1.71-1.548 0-1.016.83-1.655 1.88-1.655 1.378 0 2.223.859 2.223 2.464M382.71 399.264c0-.41.306-.681.689-.681.384 0 .689.27.689.681a.679.679 0 01-.69.697.679.679 0 01-.687-.697zm0-2.548c0-.412.306-.683.689-.683.384 0 .689.271.689.683a.679.679 0 01-.69.696.678.678 0 01-.687-.696M387.71 397.417c0-1.128-.398-1.597-.973-1.597-.569 0-.965.47-.965 1.597 0 1.13.396 1.599.965 1.599.575 0 .974-.47.974-1.599zm-3.102 0c0-1.638.908-2.569 2.13-2.569 1.227 0 2.13.93 2.13 2.57 0 1.64-.903 2.57-2.13 2.57-1.222 0-2.13-.93-2.13-2.57M392.53 397.417c0-1.128-.398-1.597-.973-1.597-.568 0-.965.47-.965 1.597 0 1.13.397 1.599.965 1.599.575 0 .974-.47.974-1.599zm-3.102 0c0-1.638.908-2.569 2.13-2.569 1.227 0 2.13.93 2.13 2.57 0 1.64-.903 2.57-2.13 2.57-1.222 0-2.13-.93-2.13-2.57M396.35 397.461h2.01v.888h-2.01v-.888M402.925 394.933v4.971h-1.149v-4.047h-.996v-.924h2.145M407.504 398.967v.937h-3.756v-.747l1.917-1.809c.44-.42.518-.675.518-.917 0-.391-.27-.618-.794-.618-.428 0-.789.163-1.03.498l-.839-.54c.384-.562 1.08-.923 1.975-.923 1.108 0 1.845.568 1.845 1.47 0 .483-.133.923-.83 1.569l-1.143 1.08h2.137M407.944 399.264c0-.41.305-.681.688-.681.384 0 .69.27.69.681a.679.679 0 01-.69.697.679.679 0 01-.688-.697zm0-2.548c0-.412.305-.683.688-.683.384 0 .69.271.69.683a.679.679 0 01-.69.696.678.678 0 01-.688-.696M412.944 397.417c0-1.128-.399-1.597-.973-1.597-.57 0-.967.47-.967 1.597 0 1.13.397 1.599.967 1.599.574 0 .973-.47.973-1.599zm-3.104 0c0-1.638.91-2.569 2.13-2.569 1.229 0 2.131.93 2.131 2.57 0 1.64-.902 2.57-2.13 2.57-1.222 0-2.131-.93-2.131-2.57M417.764 397.417c0-1.128-.399-1.597-.973-1.597-.568 0-.966.47-.966 1.597 0 1.13.398 1.599.966 1.599.574 0 .973-.47.973-1.599zm-3.103 0c0-1.638.908-2.569 2.13-2.569 1.228 0 2.13.93 2.13 2.57 0 1.64-.902 2.57-2.13 2.57-1.222 0-2.13-.93-2.13-2.57M424.947 396.737c0-.546-.354-.866-1.058-.866h-.937v1.725h.937c.704 0 1.058-.32 1.058-.859zm1.165 0c0 1.108-.83 1.796-2.159 1.796h-1.001v1.371h-1.15v-4.97h2.151c1.328 0 2.159.689 2.159 1.803M431.45 399.904l-.006-2.983-1.463 2.456h-.518l-1.456-2.392v2.919h-1.078v-4.97h.951l1.86 3.089 1.832-3.09h.944l.015 4.971h-1.08" fill="#17282f"/><path d="M475.437 413.35v6.865h-1.589v-5.59h-1.372v-1.274h2.961M480.916 416.783c0-1.559-.55-2.206-1.344-2.206-.784 0-1.333.647-1.333 2.206 0 1.56.549 2.206 1.333 2.206.795 0 1.344-.646 1.344-2.206zm-4.285 0c0-2.266 1.256-3.55 2.941-3.55 1.697 0 2.941 1.284 2.941 3.55 0 2.265-1.244 3.549-2.941 3.549-1.685 0-2.941-1.284-2.941-3.55M487.568 416.783c0-1.559-.55-2.206-1.344-2.206-.783 0-1.333.647-1.333 2.206 0 1.56.55 2.206 1.333 2.206.795 0 1.344-.646 1.344-2.206zm-4.285 0c0-2.266 1.256-3.55 2.941-3.55 1.697 0 2.943 1.284 2.943 3.55 0 2.265-1.246 3.549-2.943 3.549-1.685 0-2.941-1.284-2.941-3.55M496.33 418.165l1.009.942c-.647.794-1.627 1.225-2.824 1.225-1.736 0-3.11-.98-3.56-2.461h-1.108v-.824h.961l-.01-.264.01-.264h-.961v-.824h1.108c.45-1.482 1.824-2.462 3.56-2.462 1.197 0 2.177.431 2.824 1.216l-1.01.942c-.47-.53-1.05-.806-1.736-.806-.872 0-1.578.423-1.941 1.11h2.48v.824h-2.725l-.011.264.01.264h2.726v.824h-2.48c.363.686 1.07 1.108 1.941 1.108.686 0 1.266-.275 1.736-.814" fill="#fff"/><path d="M351.663 400.25c-2.298-2.982-8.754-1.52-13.235.586 0 0-3.075 1.256-4.228 1.932l-.036.007-10.127-1.807a4.166 4.166 0 00-2.433.296l-.857.383a.56.56 0 00-.02 1.013l7.336 3.6.002.093-7.662 4.479-.115.068a6.618 6.618 0 01-4.767.69l-3.93-.918a1.09 1.09 0 00-.603.019 1.003 1.003 0 00-.353 1.684l4.393 4.082a2.43 2.43 0 002.556.478l2.203-.878 11.16-4.613-1.574 6.135c-.06.252.13.496.39.5l.514.006a2.032 2.032 0 001.746-.933l4.828-8.15 13.165-5.442c1.755-.699 2.443-2.136 1.647-3.31" fill="#f03d5f"/><path d="M438.473 408.995c0 .193-14.114.348-31.521.348-17.41 0-31.521-.155-31.521-.348 0-.191 14.11-.347 31.521-.347 17.407 0 31.521.156 31.521.347M438.239 416.25c0 .193-14.114.347-31.519.347-17.412 0-31.523-.154-31.523-.348 0-.19 14.111-.345 31.523-.345 17.405 0 31.519.155 31.519.345M404.49 423.505c0 .192-6.505.348-14.529.348-8.026 0-14.53-.156-14.53-.348 0-.192 6.504-.346 14.53-.346 8.024 0 14.53.154 14.53.346" fill="#dadbd8"/><path d="M502.873 398.457c0 .191-9.253.348-20.664.348-11.416 0-20.666-.157-20.666-.348 0-.192 9.25-.348 20.666-.348 11.411 0 20.664.156 20.664.348" fill="#17282f"/><path d="M345.895 425.737c0 .191-7.635.346-17.051.346-9.42 0-17.053-.155-17.053-.346 0-.192 7.633-.348 17.053-.348 9.416 0 17.05.156 17.05.348" fill="#f03d5f"/><path d="M364.127 435.135c-.191 0-.347-11.92-.347-26.619 0-14.705.156-26.621.347-26.621.193 0 .348 11.916.348 26.621 0 14.699-.155 26.619-.348 26.619" fill="#17282f"/><path d="M518.152 497.65H298.876v-54.593h219.276v54.592" fill="#f3f2f1"/><path d="M499.395 488.759h-31.839c-5.46 0-9.888-4.427-9.888-9.888 0-5.46 4.428-9.888 9.888-9.888h31.839c5.461 0 9.888 4.428 9.888 9.888 0 5.461-4.427 9.888-9.888 9.888" fill="#33535f"/><path d="M380.908 458.684c0-.427-.319-.739-.865-.739-.491 0-.831.284-.831.739s.333.745.844.745c.504 0 .852-.312.852-.745zm1.285.867c0 1.717-1.029 2.676-2.534 2.676-.526 0-1.031-.12-1.379-.34l.427-.846c.27.186.589.25.93.25.823 0 1.363-.49 1.399-1.45-.29.293-.717.448-1.236.448-.959 0-1.71-.61-1.71-1.548 0-1.016.83-1.656 1.88-1.656 1.378 0 2.223.86 2.223 2.466M382.71 461.503c0-.412.306-.682.689-.682.384 0 .689.27.689.682a.678.678 0 01-.69.696.677.677 0 01-.687-.696zm0-2.549c0-.413.306-.682.689-.682.384 0 .689.27.689.682a.677.677 0 01-.69.695.677.677 0 01-.687-.695M387.71 459.656c0-1.128-.398-1.597-.973-1.597-.569 0-.965.469-.965 1.597 0 1.13.396 1.597.965 1.597.575 0 .974-.468.974-1.597zm-3.102 0c0-1.639.908-2.57 2.13-2.57 1.227 0 2.13.931 2.13 2.57 0 1.641-.903 2.57-2.13 2.57-1.222 0-2.13-.929-2.13-2.57M392.53 459.656c0-1.128-.398-1.597-.973-1.597-.568 0-.965.469-.965 1.597 0 1.13.397 1.597.965 1.597.575 0 .974-.468.974-1.597zm-3.102 0c0-1.639.908-2.57 2.13-2.57 1.227 0 2.13.931 2.13 2.57 0 1.641-.903 2.57-2.13 2.57-1.222 0-2.13-.929-2.13-2.57M396.35 459.699h2.01v.888h-2.01v-.888M402.925 457.172v4.97h-1.149v-4.047h-.996v-.923h2.145M407.504 461.204v.937h-3.756v-.745l1.917-1.81c.44-.42.518-.674.518-.917 0-.39-.27-.617-.794-.617-.428 0-.789.163-1.03.497l-.839-.54c.384-.56 1.08-.924 1.975-.924 1.108 0 1.845.57 1.845 1.471 0 .483-.133.923-.83 1.57l-1.143 1.078h2.137M407.944 461.503c0-.412.305-.682.688-.682.384 0 .69.27.69.682a.678.678 0 01-.69.696.677.677 0 01-.688-.696zm0-2.549c0-.413.305-.682.688-.682.384 0 .69.27.69.682a.677.677 0 01-.69.695.677.677 0 01-.688-.695M412.944 459.656c0-1.128-.399-1.597-.973-1.597-.57 0-.967.469-.967 1.597 0 1.13.397 1.597.967 1.597.574 0 .973-.468.973-1.597zm-3.104 0c0-1.639.91-2.57 2.13-2.57 1.229 0 2.131.931 2.131 2.57 0 1.641-.902 2.57-2.13 2.57-1.222 0-2.131-.929-2.131-2.57M417.764 459.656c0-1.128-.399-1.597-.973-1.597-.568 0-.966.469-.966 1.597 0 1.13.398 1.597.966 1.597.574 0 .973-.468.973-1.597zm-3.103 0c0-1.639.908-2.57 2.13-2.57 1.228 0 2.13.931 2.13 2.57 0 1.641-.902 2.57-2.13 2.57-1.222 0-2.13-.929-2.13-2.57M424.947 458.975c0-.547-.354-.866-1.058-.866h-.937v1.726h.937c.704 0 1.058-.32 1.058-.86zm1.165 0c0 1.108-.83 1.797-2.159 1.797h-1.001v1.37h-1.15v-4.97h2.151c1.328 0 2.159.69 2.159 1.803M431.45 462.141l-.006-2.98-1.463 2.455h-.518l-1.456-2.392v2.917h-1.078v-4.969h.951l1.86 3.088 1.832-3.088h.944l.015 4.97h-1.08" fill="#17282f"/><path d="M476.585 481.159v1.294h-5.188v-1.03l2.648-2.5c.608-.579.716-.932.716-1.266 0-.539-.372-.852-1.098-.852-.59 0-1.09.224-1.423.686l-1.156-.744c.528-.775 1.49-1.275 2.725-1.275 1.53 0 2.55.782 2.55 2.03 0 .666-.187 1.274-1.147 2.166l-1.579 1.49h2.952M481.503 479.022c0-1.56-.55-2.207-1.343-2.207-.784 0-1.333.648-1.333 2.207 0 1.56.549 2.206 1.333 2.206.793 0 1.343-.647 1.343-2.206zm-4.284 0c0-2.268 1.254-3.55 2.941-3.55 1.696 0 2.941 1.282 2.941 3.55 0 2.265-1.245 3.549-2.941 3.549-1.687 0-2.941-1.284-2.941-3.55M488.156 479.022c0-1.56-.55-2.207-1.344-2.207-.784 0-1.333.648-1.333 2.207 0 1.56.549 2.206 1.333 2.206.795 0 1.344-.647 1.344-2.206zm-4.285 0c0-2.268 1.254-3.55 2.941-3.55 1.696 0 2.941 1.282 2.941 3.55 0 2.265-1.245 3.549-2.941 3.549-1.687 0-2.941-1.284-2.941-3.55M496.916 480.404l1.01.941c-.647.794-1.627 1.226-2.823 1.226-1.736 0-3.11-.982-3.56-2.462h-1.108v-.824h.96l-.01-.263.01-.266h-.96v-.824h1.108c.45-1.48 1.824-2.46 3.56-2.46 1.196 0 2.176.43 2.824 1.216l-1.011.941c-.47-.53-1.05-.805-1.736-.805-.872 0-1.577.423-1.941 1.108h2.481v.824h-2.725l-.011.266.01.263h2.726v.824h-2.481c.364.687 1.069 1.108 1.941 1.108.687 0 1.265-.275 1.736-.813" fill="#fff"/><path d="M351.663 462.49c-2.298-2.984-8.754-1.522-13.235.585 0 0-3.075 1.257-4.228 1.931l-.036.009-10.127-1.809a4.18 4.18 0 00-2.433.298l-.857.381a.56.56 0 00-.02 1.014l7.336 3.601.002.092-7.662 4.48-.115.067a6.612 6.612 0 01-4.767.689l-3.93-.916a1.06 1.06 0 00-.603.017 1.004 1.004 0 00-.353 1.684l4.393 4.083c.688.64 1.684.827 2.556.479l2.203-.878 11.16-4.613-1.574 6.132c-.06.255.13.497.39.501l.514.008a2.04 2.04 0 001.746-.933l4.828-8.15 13.165-5.442c1.755-.7 2.443-2.136 1.647-3.31" fill="#33535f"/><path d="M438.473 471.235c0 .19-14.114.348-31.521.348-17.41 0-31.521-.158-31.521-.348 0-.193 14.11-.348 31.521-.348 17.407 0 31.521.155 31.521.348M438.239 478.49c0 .191-14.114.347-31.519.347-17.412 0-31.523-.156-31.523-.348 0-.19 14.111-.348 31.523-.348 17.405 0 31.519.158 31.519.348M404.49 485.745c0 .191-6.505.347-14.529.347-8.026 0-14.53-.156-14.53-.347 0-.192 6.504-.348 14.53-.348 8.024 0 14.53.156 14.53.348" fill="#dadbd8"/><path d="M502.873 460.696c0 .192-9.253.346-20.664.346-11.416 0-20.666-.154-20.666-.346 0-.192 9.25-.347 20.666-.347 11.411 0 20.664.155 20.664.347" fill="#17282f"/><path d="M345.895 487.975c0 .193-7.635.348-17.051.348-9.42 0-17.053-.155-17.053-.348 0-.191 7.633-.346 17.053-.346 9.416 0 17.05.155 17.05.346" fill="#33535f"/><path d="M364.127 497.373c-.191 0-.347-11.919-.347-26.619 0-14.703.156-26.62.347-26.62.193 0 .348 11.917.348 26.62 0 14.7-.155 26.62-.348 26.62M426.305 41.44c-2.177-2.825-8.292-1.441-12.537.553 0 0-2.913 1.192-4.007 1.832l-.036.007-9.592-1.713a3.961 3.961 0 00-2.304.281l-.813.363a.53.53 0 00-.017.96l6.948 3.41.002.088-7.258 4.244-.11.064a6.268 6.268 0 01-4.516.652l-3.722-.868a1.025 1.025 0 00-.571.018.95.95 0 00-.336 1.594l4.163 3.87a2.305 2.305 0 002.421.452l2.088-.832 10.572-4.371-1.492 5.812a.386.386 0 00.37.473l.487.008a1.934 1.934 0 001.655-.885l4.573-7.72 12.472-5.157c1.662-.662 2.314-2.023 1.56-3.135M380.065 64.037v3.027h5.3v2.127h-5.3v4.17h-2.649v-11.45h8.652v2.126h-6.003M387.868 61.91h2.65v9.293h5.74v2.158h-8.39v-11.45M397.747 61.91h2.649v11.451h-2.65v-11.45M410.848 67.456h2.421v4.645c-1.26.95-2.993 1.458-4.629 1.458-3.599 0-6.25-2.471-6.25-5.923 0-3.45 2.651-5.921 6.298-5.921 2.013 0 3.681.686 4.793 1.978l-1.701 1.571c-.835-.883-1.799-1.292-2.96-1.292-2.225 0-3.747 1.49-3.747 3.664 0 2.144 1.522 3.664 3.714 3.664.72 0 1.39-.13 2.061-.49v-3.354M426.223 61.91v11.451h-2.65v-4.694h-5.201v4.694h-2.65v-11.45h2.65v4.514h5.201v-4.514h2.65M431.31 64.07h-3.665v-2.16h9.978v2.16h-3.664v9.291h-2.65V64.07M389.93 82.232c0-.815-.6-1.172-1.702-1.172h-2.212v2.353h2.212c1.101 0 1.701-.357 1.701-1.181zm-3.914-3.992v2.273h1.997c1.003 0 1.584-.384 1.584-1.136 0-.752-.581-1.137-1.584-1.137zm4.576 4.047c0 1.065-.788 1.673-2.355 1.673h-2.882v-6.267h2.702c1.396 0 2.203.591 2.203 1.612 0 .716-.384 1.191-.957 1.423.805.18 1.289.708 1.289 1.559M397.473 80.827c0-1.495-1.118-2.596-2.624-2.596-1.512 0-2.64 1.101-2.64 2.596 0 1.496 1.128 2.596 2.64 2.596 1.506 0 2.624-1.1 2.624-2.596zm-5.917 0c0-1.826 1.396-3.187 3.293-3.187 1.88 0 3.287 1.352 3.287 3.187 0 1.836-1.407 3.186-3.287 3.186-1.897 0-3.293-1.36-3.293-3.186M404.992 80.827c0-1.495-1.119-2.596-2.624-2.596-1.512 0-2.641 1.101-2.641 2.596 0 1.496 1.129 2.596 2.641 2.596 1.505 0 2.624-1.1 2.624-2.596zm-5.919 0c0-1.826 1.398-3.187 3.295-3.187 1.88 0 3.287 1.352 3.287 3.187 0 1.836-1.407 3.186-3.287 3.186-1.897 0-3.295-1.36-3.295-3.186M409.09 81.015l-1.28 1.298v1.647h-.662v-6.267h.663v3.787l3.678-3.787h.762l-2.714 2.839 2.902 3.428h-.788l-2.56-2.945M413.519 77.693h.661v6.267h-.661v-6.267M421.461 77.693v6.267h-.546l-4.028-5.084v5.084h-.663v-6.267h.547l4.037 5.086v-5.086h.653M427.923 80.827h.634v2.39c-.59.528-1.432.796-2.3.796-1.906 0-3.304-1.35-3.304-3.186 0-1.835 1.398-3.187 3.314-3.187.949 0 1.773.304 2.328.904l-.412.421c-.528-.518-1.155-.734-1.89-.734-1.548 0-2.685 1.101-2.685 2.596 0 1.486 1.137 2.596 2.676 2.596.601 0 1.156-.134 1.639-.484v-2.112" fill="#17282f"/><path d="M524.75 97.365c0 .191-52.422.347-117.074.347-64.675 0-117.085-.156-117.085-.347 0-.192 52.41-.348 117.085-.348 64.652 0 117.075.156 117.075.348" fill="#dadbd8"/><path d="M396.09 141.912h-86.22a8.402 8.402 0 010-16.804h86.22a8.402 8.402 0 010 16.804M396.09 195.177h-86.22a8.402 8.402 0 010-16.804h86.22a8.403 8.403 0 010 16.804M505.021 141.912h-79.128a8.402 8.402 0 010-16.804h79.128a8.403 8.403 0 110 16.804M505.021 196.56h-79.128a8.4 8.4 0 01-8.401-8.401 8.401 8.401 0 018.401-8.402h79.128a8.402 8.402 0 110 16.803" fill="#f3f2f1"/><path d="M555.832 518.865c-5.745-6.781-6.51-17.668-5.664-26.514.845-8.848 2.897-17.752 1.501-26.53-.826-5.2-2.844-10.165-3.525-15.386-.683-5.222.284-11.126 4.33-14.496 4.65-3.872 11.971-2.96 16.809.678 4.836 3.636 7.64 9.35 9.688 15.044 4.498 12.512 6.15 26.386 2.454 39.157-3.697 12.773-12.369 24.193-25.093 28.047M586.347 534.275c.945-3.274 2.968-6.438 6.097-7.787 3.253-1.403 7.023-.604 10.353.607 3.331 1.21 6.6 2.828 10.139 3.046 3.536.22 7.528-1.458 8.587-4.84.996-3.178-.92-6.569-3.322-8.88-5.042-4.853-12.62-6.912-19.425-5.279-6.807 1.635-12.623 6.91-14.913 13.523l2.484 9.61" fill="#f03d5f"/><path d="M586.347 534.275l-2.484-9.61c2.29-6.613 8.106-11.888 14.913-13.523a20.237 20.237 0 014.727-.551c5.396 0 10.802 2.081 14.698 5.83 1.955 1.882 3.59 4.48 3.591 7.096 0 .596-.084 1.194-.27 1.784-.997 3.186-4.598 4.86-7.969 4.86-.206 0-.413-.007-.617-.02-3.539-.218-6.808-1.836-10.139-3.046-2.077-.755-4.326-1.35-6.514-1.35-1.319 0-2.616.216-3.839.743-3.13 1.35-5.152 4.513-6.097 7.787" fill="#ba2c42"/><path d="M558.327 548.481c-5.19-4.93-4.931-13.509-2.342-20.182 2.588-6.674 8.238-11.798 14.548-15.174 12.232-6.546 27.523-7.042 40.154-1.302-6.206.205-12.206 3.729-15.41 9.048-2.844 4.722-3.476 10.454-5.825 15.442-2.617 5.555-7.42 10.046-13.14 12.282-5.72 2.235-12.295 2.194-17.985-.114" fill="#f03d5f"/><path d="M553.075 574.506c-.022 0-.034-.269-.038-.782.002-.512-.01-1.268.027-2.242.064-1.946.244-4.762.672-8.22.43-3.456 1.11-7.556 2.192-12.037 1.068-4.493 2.899-9.285 5.49-13.946 5.234-9.358 12.591-16.03 18.411-19.818 1.438-.989 2.83-1.741 4.027-2.434a95.45 95.45 0 013.18-1.585c.85-.351 1.537-.636 2.075-.857.476-.188.728-.277.737-.257.008.021-.23.15-.688.376-.521.25-1.19.567-2.019.961-.858.452-1.909 1.006-3.112 1.671-1.174.72-2.538 1.49-3.95 2.498-5.711 3.855-12.932 10.505-18.107 19.754-5.273 9.224-6.728 18.928-7.792 25.735-.483 3.434-.73 6.236-.87 8.171l-.145 2.234c-.038.51-.068.778-.09.778" fill="#17282f"/><path d="M503.145 500.08c-10.629 6.413-10.596 12.25-8.821 17.76 1.776 5.51 8.299 9.339 13.708 7.275 3.057-1.167 5.272-3.824 7.163-6.494 1.892-2.67 3.669-5.53 6.32-7.446 2.65-1.919 6.494-2.65 9.157-.75l-27.527-10.345" fill="#f03d5f"/><path d="M504.907 525.681c-4.566 0-9.14-3.365-10.583-7.841-.519-1.61-.888-3.245-.888-4.916.003-4.05 2.184-8.304 9.71-12.844l24.702 9.283a7.361 7.361 0 00-.847-.048c-1.917 0-3.912.721-5.486 1.86-2.651 1.917-4.428 4.776-6.32 7.446-1.891 2.67-4.106 5.327-7.163 6.494a8.76 8.76 0 01-3.125.566m25.765-15.257l-2.824-1.061c1.01.118 1.977.457 2.824 1.061" fill="#ba2c42"/><path d="M495.188 507.112c2.779-3.84 9.645-4.952 13.98-3.036 4.336 1.915 7.512 5.716 10.355 9.51 2.842 3.793 5.609 7.798 9.546 10.438 3.938 2.639 9.438 3.594 13.363.936 2.576-1.747 4.07-4.781 4.539-7.86.468-3.077.017-6.221-.624-9.268-.939-4.457-2.47-9.114-6.038-11.945-3.976-3.158-9.492-3.306-14.566-3.14-5.822.19-11.731.626-17.195 2.645-5.465 2.019-11.041 6.376-13.36 11.72" fill="#f03d5f"/><path d="M543.864 573.961c-.023 0-.05-.317-.081-.92l-.107-2.637-.303-9.703c-.137-4.093-.309-8.969-.608-14.376-.308-5.404-.71-11.35-1.53-17.53-.416-3.089-.904-6.107-1.756-8.896-.86-2.794-2.004-5.399-3.248-7.783-2.488-4.787-5.591-8.599-8.57-11.37-3.006-2.758-5.884-4.446-7.932-5.438a25.156 25.156 0 00-2.409-1.052c-.559-.226-.85-.353-.843-.375.007-.02.311.067.886.255.58.179 1.425.464 2.47.948 2.098.93 5.046 2.58 8.13 5.33 3.054 2.763 6.237 6.598 8.784 11.428 1.274 2.409 2.441 5.031 3.324 7.871.88 2.855 1.373 5.89 1.793 8.995.823 6.216 1.208 12.172 1.484 17.588.268 5.415.395 10.296.473 14.395.076 4.1.1 7.415.103 9.71l-.013 2.638c-.01.603-.024.922-.047.922M548.596 573.961c-.01.003-.05-.098-.115-.297l-.272-.892c-.252-.783-.524-1.963-.829-3.49-.564-3.064-1.067-7.58-.825-13.157.23-5.565 1.082-12.204 3.19-19.285 2.132-7.057 5.162-14.568 7.839-22.601 2.741-8.023 4.323-15.964 4.964-23.271.661-7.308.615-13.936.45-19.485-.175-5.554-.46-10.043-.635-13.147-.084-1.515-.15-2.708-.196-3.576l-.038-.93c-.005-.21-.002-.318.01-.32.01 0 .029.106.054.314.028.247.06.55.099.927l.317 3.567c.25 3.1.604 7.588.835 13.15.223 5.557.319 12.204-.315 19.552-.609 7.341-2.19 15.367-4.942 23.417-2.688 8.063-5.731 15.558-7.883 22.574-2.121 7.012-3.015 13.606-3.303 19.134-.294 5.542.135 10.035.622 13.094.266 1.525.498 2.71.71 3.5l.211.907c.044.205.063.311.052.315M156.295 407.81H114.93a4.595 4.595 0 010-9.19h41.364a4.596 4.596 0 010 9.19" fill="#17282f"/><path d="M162.936 557.98H91.032c-6.6 0-11.952-5.35-11.952-11.953V417.265c0-6.601 5.352-11.953 11.952-11.953h71.904c6.601 0 11.952 5.352 11.952 11.953v128.762c0 6.602-5.35 11.953-11.952 11.953" fill="#f03d5f"/><path d="M162.936 557.98H91.032a11.898 11.898 0 01-7.79-2.888 11.957 11.957 0 01-3.876-6.452 12.033 12.033 0 01-.286-2.613V417.265c0-6.601 5.352-11.953 11.952-11.953h71.904c6.601 0 11.952 5.352 11.952 11.953v128.762c0 6.602-5.35 11.953-11.952 11.953" fill="#ba2c42"/><path d="M185.685 557.98h-71.903c-6.601 0-11.952-5.35-11.952-11.952V417.265c0-6.601 5.35-11.953 11.952-11.953h71.903c6.602 0 11.954 5.352 11.954 11.953v128.763c0 6.601-5.352 11.952-11.954 11.952" fill="#f03d5f"/><path d="M196.827 532.461c0 .19-21.35.347-47.679.347-26.338 0-47.682-.156-47.682-.347 0-.192 21.344-.348 47.682-.348 26.33 0 47.679.156 47.679.348M196.827 511.418c0 .193-21.35.347-47.679.347-26.338 0-47.682-.154-47.682-.347 0-.19 21.344-.346 47.682-.346 26.33 0 47.679.156 47.679.346M196.827 490.376c0 .193-21.35.348-47.679.348-26.338 0-47.682-.155-47.682-.348 0-.19 21.344-.347 47.682-.347 26.33 0 47.679.156 47.679.347M196.827 469.335c0 .192-21.35.348-47.679.348-26.338 0-47.682-.156-47.682-.348 0-.193 21.344-.348 47.682-.348 26.33 0 47.679.155 47.679.348M196.827 448.293c0 .191-21.35.346-47.679.346-26.338 0-47.682-.155-47.682-.346 0-.193 21.344-.348 47.682-.348 26.33 0 47.679.155 47.679.348M196.827 427.25c0 .193-21.35.347-47.679.347-26.338 0-47.682-.154-47.682-.348 0-.19 21.344-.345 47.682-.345 26.33 0 47.679.155 47.679.345M181.756 566.244a8.264 8.264 0 11-16.527-.002 8.264 8.264 0 0116.527.002" fill="#17282f"/><path d="M187.507 566.244a8.263 8.263 0 01-16.526 0 8.264 8.264 0 1116.526 0" fill="#33535f"/><path d="M116.008 566.244a8.263 8.263 0 01-16.526 0 8.264 8.264 0 1116.526 0" fill="#17282f"/><path d="M121.76 566.244a8.264 8.264 0 11-16.527-.002 8.264 8.264 0 0116.527.002" fill="#33535f"/><path d="M89.834 502.83a5.127 5.127 0 01-5.126-5.126v-44.286a5.125 5.125 0 015.126-5.125 5.125 5.125 0 015.126 5.125v44.286a5.127 5.127 0 01-5.126 5.126" fill="#17282f"/><path d="M91.822 556.606c-.007.01-.118-.071-.33-.24-.237-.195-.544-.448-.926-.76-.73-.753-1.863-1.862-2.838-3.631-2.095-3.47-3.333-9.336-3.293-16.479.243-14.279.8-33.968 1.373-55.73l1.619-55.727c.105-3.555.18-6.82.843-9.614.62-2.798 1.879-5.028 3.257-6.497 1.371-1.492 2.806-2.244 3.8-2.584 1.006-.341 1.57-.347 1.57-.347.008.042-.549.1-1.521.476-.961.379-2.34 1.151-3.648 2.636-1.318 1.468-2.505 3.646-3.08 6.403-.615 2.747-.656 5.976-.73 9.54l-1.415 55.733-1.578 55.71c-.1 7.105 1.05 12.892 3.039 16.347 1.943 3.491 3.968 4.675 3.858 4.764" fill="#17282f"/><path d="M256.013 303.259l-18.201 11.804-1.655 18.392s5.356 2.5 13.212-4.643c7.856-7.141 18.091-21.627 18.091-21.627l-11.447-3.926" fill="#f8a58d"/><path d="M255.204 310.812l-5.964-30.245-15.91 6.3 4.066 39.836 17.808-15.891" fill="#f8a58d"/><path d="M298.324 272.524a1.958 1.958 0 00-1.467-1.247l-11.437-2.208a3.593 3.593 0 00-2.85.715l-34.537 27.17 1.415 1.567 12.212 3.724 36.864-29.178-.2-.543" fill="#17282f"/><path d="M289.052 274.427c.164.284.603.337.98.118.379-.217.552-.625.388-.908-.164-.282-.603-.336-.98-.117-.379.217-.552.624-.388.907" fill="#fff"/><path d="M298.524 273.067c-.01.046-.812-.062-2.255-.299l-6.096-1.07-4.201-.773a2.398 2.398 0 00-2.028.422c-.64.509-1.299 1.03-1.972 1.566l-8.83 6.963a1800.688 1800.688 0 01-16.133 12.536l-4.938 3.735c-1.176.87-1.84 1.333-1.87 1.296-.029-.038.578-.574 1.703-1.508l4.801-3.91c4.074-3.277 9.732-7.768 16.01-12.694l8.861-6.922c.684-.529 1.352-1.046 2.001-1.55a2.986 2.986 0 012.49-.502c1.497.307 2.9.592 4.192.858l6.061 1.286c1.428.32 2.212.519 2.204.566" fill="#33535f"/><path d="M282.168 281.417s-.915-.504-2.353 1.979c-1.438 2.483-5.751 9.541-5.751 9.541l-4.183-4.444-6.665-1.337s-1.83.815-1.047 1.861c.784 1.046 4.575 3.136 4.575 3.136l1.523 5.29-7.143-7.019s-3.101-.225-2.857 1.799c.242 2.022 4.153 9.418 4.153 9.418l-4.168-1.777-4.039-4.817s-1.585-.46-1.454 1.069c.13 1.527 3.79 8.13 3.79 8.13l5.359 5.291s3.596.916 4.283 0c.684-.914 1.269-2.352 1.269-2.352s2.03.13 2.683-.654c.653-.783.914-2.286.914-2.286s2.746 1.504 3.66 0c.916-1.504 1.699-4.813 1.831-6.165.13-1.352 5.62-12.461 5.62-12.855 0-.392 2.09-3.954 0-3.808" fill="#f8a58d"/><path d="M266.41 309.628c-.005.083-.717.144-1.85-.048-1.13-.19-2.67-.693-4.164-1.63-1.493-.94-2.615-2.109-3.275-3.045-.666-.937-.92-1.605-.846-1.646.177-.123 1.612 2.328 4.49 4.104 2.848 1.822 5.679 2.052 5.646 2.265M265.672 306.81c-.15.114-1.085-.867-1.96-2.278-.879-1.407-1.345-2.679-1.177-2.764.174-.088.908 1.02 1.768 2.397.856 1.38 1.525 2.528 1.369 2.644M270.927 302.42c-.147.115-1.079-.85-1.858-2.29-.785-1.438-1.086-2.746-.91-2.806.185-.068.764 1.09 1.52 2.475.75 1.388 1.405 2.504 1.248 2.621M275.993 299.165c-.2.016-.436-1.409-1.008-3.065-.557-1.663-1.238-2.933-1.07-3.044.145-.108 1.134 1.059 1.728 2.82.604 1.759.533 3.287.35 3.29" fill="#f68260"/><path d="M195.415 160.25c1.653-6.555 7.612-11.8 14.325-12.606 6.713-.807 13.744 2.875 16.904 8.853 2.977 5.634 2.923 13.123 7.863 17.147 3.388 2.761 8.309 3.072 11.617 5.927 7.007 6.045 2.944 19.48 10.37 25.001a38.168 38.168 0 01-15.991 7.697 10.484 10.484 0 00-2.883-5.272c1.253 3.398-.632 7.322-3.524 9.5s-6.565 2.984-10.13 3.622c-8.589 1.536-17.475 2.401-25.995.521-8.522-1.88-16.696-6.857-20.718-14.601-1.018-1.962-1.806-4.132-3.444-5.618-1.78-1.613-4.256-2.141-6.452-3.114-6.026-2.672-10.061-9.295-9.669-15.876 5.645-.355 9.515-5.794 11.79-10.972 2.275-5.179 4.11-11.02 8.751-14.254 3.079-2.145 7.16-2.78 10.746-1.67 3.585 1.11 6.596 3.94 7.924 7.449" fill="#17282f"/><path d="M182.101 172.636l-.241-4.745 28.347-6.308c8.764-1.203 18.545 7.313 19.374 16.12.922 9.785 1.662 21.766.727 29.117-1.879 14.781-13.095 17.003-13.095 17.003l.391 17.978-32.48-1.161-3.023-68.004" fill="#f8a58d"/><path d="M225.675 188.621c.066.995-.723 1.871-1.76 1.96-1.036.087-1.931-.645-1.998-1.641-.065-.995.722-1.872 1.758-1.961 1.038-.088 1.934.648 2 1.642M226.665 184.048c-.226.253-1.689-.76-3.718-.692-2.028.039-3.486 1.13-3.714.888-.112-.107.114-.557.747-1.05.624-.49 1.699-.982 2.964-1.015 1.264-.034 2.343.4 2.968.857.64.46.865.897.753 1.012M206.768 189.493c.067.995-.721 1.871-1.76 1.959-1.036.088-1.93-.645-1.996-1.64-.067-.995.721-1.872 1.757-1.961 1.038-.088 1.934.646 1.999 1.642M206.724 185.045c-.227.254-1.69-.76-3.719-.69-2.028.038-3.485 1.129-3.713.886-.11-.106.11-.557.747-1.049.624-.492 1.698-.981 2.962-1.016 1.266-.032 2.343.4 2.971.857.637.46.863.899.752 1.012M214.557 199.87c-.013-.115 1.243-.371 3.279-.697.517-.069 1.004-.188 1.081-.544.11-.378-.124-.93-.394-1.525l-1.656-3.9c-2.303-5.553-3.987-10.127-3.762-10.217.224-.091 2.274 4.337 4.576 9.89.555 1.371 1.086 2.676 1.591 3.926.215.582.573 1.24.333 2.026-.128.391-.5.684-.829.783-.33.112-.62.127-.877.15-2.054.175-3.33.223-3.342.109" fill="#17282f"/><path d="M217.208 223.861s-10.379.931-20.364-4.657c0 0 5.287 10.144 20.468 8.325l-.104-3.668M213.85 204.79c-.76-.943-2.054-1.434-3.32-1.258-.878.123-1.755.575-2.267 1.31-.514.733-.595 1.754-.087 2.423.572.754 1.723.896 2.683.591.96-.305 1.774-.97 2.546-1.63.214-.182.431-.373.562-.617.128-.245.148-.561-.027-.756" fill="#f68260"/><path d="M208.628 201.46c.33-.03.401 2.173 2.336 3.679 1.93 1.51 4.272 1.19 4.299 1.498.036.138-.51.444-1.5.502-.972.064-2.402-.204-3.586-1.126-1.18-.924-1.713-2.188-1.817-3.089-.112-.919.116-1.472.268-1.464M207.001 179.299c-.184.558-2.218.36-4.59.72-2.38.314-4.279 1.07-4.61.585-.149-.233.171-.763.93-1.321.753-.558 1.965-1.102 3.39-1.306 1.424-.2 2.74-.014 3.619.312.885.324 1.339.744 1.261 1.01M226.388 177.088c-.343.47-1.756.036-3.439.067-1.682-.03-3.096.405-3.438-.067-.151-.23.058-.699.668-1.153.598-.455 1.613-.842 2.77-.843 1.156.001 2.171.388 2.771.841.608.455.819.926.668 1.155" fill="#17282f"/><path d="M209.77 162.205c-.295 6.167-4.72 11.928-10.602 13.803-2.35.75-5.315 1.299-6.073 3.645-.787 2.43 1.477 4.656 2.545 6.978 1.312 2.85.684 6.48-1.51 8.724-1.246 1.273-2.906 2.1-4.082 3.438-1.56 1.775-2.088 4.324-1.645 6.646.442 2.32 1.782 4.409 3.509 6.022-5.563.319-11.664-2.512-13.476-7.781-1.079-3.139-.521-6.57-.084-9.86a123.908 123.908 0 00.92-22.637c-.065-1.282-.123-2.67.603-3.728.714-1.04 2.004-1.492 3.209-1.868a185.737 185.737 0 0123.948-5.754" fill="#17282f"/><path d="M206.472 160.07c1.545 2.817 3.13 5.683 5.467 7.889 2.337 2.205 5.596 3.678 8.756 3.096a5446.07 5446.07 0 00-1.706-2.868 46.361 46.361 0 0015.858 10.654c-2.938-5.52-5.976-11.169-10.672-15.298-4.698-4.131-11.483-6.482-17.336-4.276" fill="#17282f"/><path d="M219.423 236l-36.247-2.79 6.09 19.194 31.009 10.336 4.113-6.961L219.423 236" fill="#f8a58d"/><path d="M150.617 267.167c-8.656-2.799-18.542-1.496-26.178 3.45-7.636 4.947-12.867 13.438-13.851 22.482-.958 8.8 1.895 17.761.389 26.482-1.11 6.42-4.507 12.231-6.013 18.57-3.247 13.668 3.262 28.754 14.72 36.88 11.459 8.126 27.032 9.486 40.261 4.765l13.594-21.37-9.006-81.977-13.916-9.282" fill="#33535f"/><path d="M172.333 325.223s-3.098 16.649-1.238 19.168c1.858 2.518 4.956 2.828 4.956 2.828l60.106-4.647 1.99-33.083s6.061-22.682 3.272-32.286c-2.788-9.604-14.748-39.035-14.748-39.035l-9.206-2.755s.01 9.603-3.398 10.222c-3.408.62-19.763.724-27.792-9.635l-3.099-2.79-17.141 12.489 7.848 67.75-1.55 11.774" fill="#f03d5f"/><path d="M145.23 265.975s11.2-16.807 15.686-21.554c7.055-7.466 17.007-10.508 19.399-9.125 3.272 1.893 19.637 18.925 20.948 30.42 1.312 11.495 0 40.017 0 40.017l-13.826 4.164-.165-13.781-2.287-33.876s-5.673-15.935-18.95-16.541c0 0-13.875 11.665-14.38 22.894l-6.424-2.618M177.46 329.44l-27.727 25.299 7.326 9.769s33.726-21.49 37.245-42.913l-16.844 7.845" fill="#33535f"/><path d="M142.392 382.507s-1.564-.778-3.996-2.766c-2.41-1.98-5.653-5.317-8.247-10.328a37.34 37.34 0 01-3.153-8.621c-.721-3.233-1.069-6.764-1.118-10.472-.133-7.435 1.072-15.53 2.507-23.924 1.438-8.397 2.73-16.425 2.79-23.793.052-3.679-.212-7.17-.734-10.396-.528-3.228-1.206-6.223-1.548-9.012-.364-2.782-.386-5.362-.013-7.574.37-2.21 1.04-4.052 1.825-5.421.771-1.38 1.608-2.297 2.22-2.85.61-.56.992-.774.992-.774.094.076-1.503 1-2.974 3.753-.734 1.36-1.352 3.178-1.68 5.351-.33 2.176-.275 4.7.117 7.45.368 2.757 1.071 5.731 1.63 8.983.55 3.255.839 6.786.805 10.496-.024 7.431-1.308 15.508-2.745 23.903-1.435 8.39-2.649 16.436-2.552 23.8.03 3.675.355 7.168 1.04 10.353a37.346 37.346 0 003.029 8.524c2.502 4.971 5.646 8.32 7.985 10.346.573.526 1.121.949 1.596 1.316.465.378.876.676 1.217.904l.76.546c.17.126.252.195.247.206" fill="#17282f"/><path d="M129.502 318.69c0 .191-4.291.347-9.583.347-5.294 0-9.584-.156-9.584-.346 0-.192 4.29-.347 9.584-.347 5.292 0 9.583.155 9.583.347" fill="#17282f"/><path d="M226.67 238.168s10.798 4.835 14.51 10.95c3.712 6.114 13.759 41.097 13.759 41.097l-14.134 2.798-14.134-54.845" fill="#f03d5f"/><path d="M234.501 288.659s-3.258-31.971-4.62-34.05c-1.361-2.078-3.553-17.658-10.458-18.609 0 0 7.274 1.673 11.47 4.368 4.196 2.695 8.771 17.224 8.771 17.224l2.647 25.344-7.81 5.723" fill="#33535f"/><path d="M148.35 260.652c-.113.07-.494-1.079-1.99-2.019a5.983 5.983 0 00-2.865-.884c-1.132-.054-2.392.263-3.55.907-2.354 1.31-3.652 3.54-4.38 5.141-.726 1.634-1.016 2.727-1.124 2.698-.077-.018.04-1.151.671-2.886.627-1.686 1.93-4.129 4.496-5.56 1.259-.701 2.657-1.037 3.923-.94a6.115 6.115 0 013.104 1.116c1.56 1.151 1.781 2.442 1.714 2.427M184.985 262.24c-.038.013-.341-.628-.86-1.81l-.433-.986c-.192-.35-.399-.727-.617-1.128l-.714-1.301-.932-1.386c-1.338-1.913-3.206-4.076-5.809-5.886-2.564-1.807-5.908-3.318-9.601-3.708l-.034-.004c-2.386-.298-4.985.813-7.226 2.208l.069-.062-.257.306a146.724 146.724 0 00-14.294 20.024 179.91 179.91 0 00-3.678 6.502l-.971 1.787c-.227.407-.356.615-.379.604-.021-.01.067-.239.254-.665.19-.426.465-1.055.856-1.848.764-1.595 1.933-3.874 3.494-6.627 3.11-5.507 7.916-12.863 14.188-20.228l.259-.307.032-.037.037-.024a17.201 17.201 0 013.727-1.812c1.29-.428 2.65-.675 3.99-.487l-.034-.004c3.915.434 7.275 2.015 9.905 3.906 2.648 1.893 4.518 4.141 5.83 6.121l.908 1.432.678 1.34.578 1.164.389 1.015c.456 1.22.684 1.888.645 1.901M173.296 341.728c.05.067-1.117 1.056-3.176 2.424-2.055 1.37-5.03 3.072-8.505 4.552-3.478 1.476-6.77 2.437-9.18 2.967-2.414.533-3.936.686-3.95.604-.02-.107 1.468-.43 3.83-1.08a72.894 72.894 0 009.029-3.128 73.215 73.215 0 008.516-4.331c2.108-1.25 3.372-2.097 3.436-2.008" fill="#17282f"/><path d="M333.043 481.524l-8.438 81.896-25.77-.35-1.852-86.538 36.06 4.992" fill="#f8a58d"/><path d="M325.356 555.62l.003 1.715s29.026 11.746 29.32 17.26l-57.695-.448.933-19.193c8.547 4.04 17.522 4.557 27.439.666" fill="#33535f"/><path d="M304.243 565.528c-.988 0-1.964-.736-2.182-1.715-.233-1.057.435-2.217 1.438-2.607.214-.111.452-.162.696-.162.921 0 1.941.721 2.237 1.586.375 1.095-.608 2.566-1.732 2.842-.15.037-.304.056-.457.056" fill="#a6b7b9"/><path d="M354.699 574.161h-.098c-.193-.652-.729-1.377-1.525-2.149.645.412 1.547 1.16 1.623 2.15m-56.084-.002l-1.632-.013.225-4.617-.224 4.617 1.63.013" fill="#fff"/><path d="M354.679 574.594l-56.064-.434 56.064.434a1.831 1.831 0 00-.078-.433h.098c.01.14.005.285-.02.433" fill="#9ba6a6"/><path d="M354.679 574.594l-56.064-.434-1.631-.013.224-4.617 55.216 2.12s.284.126.652.362c.796.772 1.332 1.497 1.525 2.15.044.147.071.292.078.432" fill="#a6b7b9"/><path d="M325.559 557.497c-.011.282-1.422.399-2.815 1.294-1.415.858-2.14 2.073-2.399 1.96-.258-.056.174-1.738 1.88-2.79 1.696-1.072 3.398-.721 3.334-.464M331.592 560.047c.061.273-1.163.744-2.13 1.928-1 1.155-1.25 2.44-1.531 2.428-.266.041-.447-1.61.782-3.059 1.216-1.46 2.875-1.565 2.879-1.297M334.972 567.316c-.256.059-.639-1.352.097-2.89.726-1.542 2.059-2.14 2.176-1.904.156.231-.704 1.054-1.289 2.325-.615 1.257-.704 2.444-.984 2.469" fill="#17282f"/><path d="M340.664 502.115l39.193 44.644-18.408 18.038-46.51-40.628 25.725-22.054" fill="#f8a58d"/><path d="M374.85 540.73l1.218 1.206s28.787-12.321 32.908-8.645l-40.97 40.625-12.96-14.184c8.887-3.219 15.577-9.223 19.805-19.003" fill="#33535f"/><path d="M365.38 563.347c-.397 0-.79-.101-1.128-.315-.917-.58-1.27-1.878-.835-2.864.254-.802 1.222-1.272 2.13-1.272.336 0 .664.064.945.2 1.041.505 1.392 2.241.796 3.233-.39.652-1.153 1.018-1.908 1.018" fill="#a6b7b9"/><path d="M368.007 573.918l-3.118-3.413 3.118 3.41 40.969-40.624-40.97 40.627m40.97-40.627c-.535-.478-1.485-.686-2.735-.686l-.225.003c.31-.07.695-.13 1.09-.13.69 0 1.418.182 1.87.813" fill="#fff"/><path d="M368.007 573.916l-3.118-3.41 40.408-37.69s.291-.113.719-.208l.225-.003c1.25 0 2.2.208 2.735.686l-40.97 40.625" fill="#a6b7b9"/><path d="M376.327 541.908c.19.207-.719 1.288-1.066 2.908-.389 1.61-.038 2.981-.3 3.084-.224.144-1.11-1.348-.657-3.301.436-1.958 1.883-2.918 2.023-2.691M382.385 539.424c.238.15-.29 1.348-.132 2.868.116 1.524.852 2.61.643 2.797-.156.219-1.456-.816-1.619-2.71-.178-1.891.915-3.142 1.108-2.955M389.925 542.147c-.14.222-1.409-.502-1.981-2.106-.584-1.601-.07-2.968.18-2.887.276.054.252 1.245.743 2.554.46 1.321 1.238 2.221 1.058 2.439" fill="#17282f"/><path d="M173.724 246.621c-2.92-2.332-7.121-2.116-9.765.526-4.907 4.902-12.03 13.137-12.246 19.821-.329 10.227-1.98 37.277-1.98 37.277l37.607-1.321s0-35.956-3.299-44.203c-1.865-4.661-6.574-9.11-10.317-12.1" fill="#f03d5f"/><path d="M154.075 304.245s-2.143 20.687.24 30.178c2.464 9.82 7.326 9.672 11.43 9.965 4.103.293 68.722-33.576 68.722-33.576l-7.174-12.732-48.653 14.655.453-9.499-25.018 1.01" fill="#f8a58d"/><path d="M226.89 298.461l11.666-14.604 10.527-2.44 12.834 1.414s.514 1.925-1.54 2.952l4.492.256s.899 2.312-1.668 3.337l3.21.564s-1.412 3.288-5.007 2.645c-3.595-.641-9.499-.641-9.499-.641l-6.289 3.465 9.37-.384 6.803 1.283s.899 1.74-.641 2.153c-1.541.414-7.445 0-7.445 0l-8.986 2.34s-1.925 5.776-3.08 7.06c-1.156 1.282-7.573 2.951-7.573 2.951l-7.173-12.35" fill="#f8a58d"/><path d="M264.87 286.039c-.01.096-1.343.04-3.491-.128a310.7 310.7 0 01-8.374-.802l-3.133-.35.128-.011c-2.43.684-4.54 1.253-6.05 1.63-1.507.378-2.415.565-2.438.489-.021-.076.844-.404 2.32-.895a221.533 221.533 0 015.981-1.868l.063-.019.068.007 3.136.327c3.265.352 6.219.71 8.352 1.002 2.133.294 3.448.523 3.437.618M265.644 289.805c-.013.096-1.221.007-3.164-.214a247.828 247.828 0 01-7.564-1.006c-1.023-.154-2.005-.302-2.936-.444l.172-.018c-4.219 1.644-7.328 2.746-7.387 2.6-.06-.147 2.952-1.498 7.139-3.22l.081-.034.092.012c.932.134 1.916.272 2.939.418 2.948.432 5.612.861 7.536 1.206 1.923.346 3.107.606 3.092.7" fill="#f68260"/><path d="M234.064 310.812c-.005-.02.348-.132 1.027-.347.677-.216 1.682-.53 2.964-.993a24.307 24.307 0 002.092-.859c.376-.172.75-.382 1.105-.632.337-.24.565-.649.799-1.068.893-1.714 1.654-3.834 2.453-6.184l.04-.114.117-.032c2.668-.71 5.69-1.511 8.974-2.386l.04-.009.048.003c1.529.092 3.15.166 4.826.164.828-.012 1.715-.011 2.495-.176.372-.096.623-.3.683-.627.061-.33-.046-.76-.21-1.103l.215.16c-2.152-.401-4.445-.828-6.805-1.266l.073.005-9.37.4-1.438.06 1.261-.695 6.286-3.472.078-.044.088.002c2.376.018 4.88.1 7.423.354.7.075 1.397.164 2.09.284.65.104 1.294.112 1.905-.049 1.221-.303 2.234-1.285 2.77-2.383l.258.475c-1.08-.192-2.15-.379-3.21-.567l-1.18-.208 1.114-.446c.601-.242 1.126-.627 1.39-1.156.278-.515.268-1.199.091-1.742l.295.215-4.492-.263-1.227-.073 1.097-.553c.499-.251.923-.614 1.164-1.074.251-.446.307-1.03.211-1.498l.279.237-12.832-1.447.096-.005-10.536 2.392.134-.084-8.633 10.632c-.999 1.21-1.788 2.163-2.363 2.856l-.626.732c-.144.161-.223.241-.232.233-.008-.006.052-.1.177-.277l.575-.772c.55-.715 1.305-1.695 2.264-2.937l8.461-10.768.05-.066.083-.018c3.171-.751 6.687-1.582 10.515-2.486l.047-.01.05.005 12.84 1.376.232.025.046.215a2.89 2.89 0 01-.258 1.97c-.314.609-.862 1.065-1.448 1.36l-.129-.626c1.475.083 2.972.167 4.493.25l.228.013.067.202c.25.751.255 1.559-.11 2.29-.362.728-1.053 1.209-1.746 1.488l-.068-.655 3.21.56.449.08-.192.396c-.636 1.31-1.763 2.396-3.228 2.783-.722.19-1.483.178-2.2.061a32.728 32.728 0 00-2.043-.276c-2.501-.25-5.001-.336-7.35-.355l.166-.042-6.293 3.458-.176-.633c3.234-.128 6.378-.253 9.369-.37l.039-.002.036.007 6.798 1.3.156.029.06.132c.214.468.351.945.26 1.5-.088.581-.654 1.001-1.126 1.088-.939.192-1.788.168-2.644.179a77.19 77.19 0 01-4.867-.202l.087-.009-8.996 2.295.156-.147c-.835 2.36-1.623 4.464-2.572 6.212-.248.425-.496.867-.912 1.16a7.182 7.182 0 01-1.172.64 24 24 0 01-2.14.819c-1.302.429-2.319.705-3.01.882l-.788.187c-.178.037-.27.05-.273.04" fill="#f68260"/><path d="M149.085 304.245c-.001-.021.216-.049.63-.081l1.822-.117c1.675-.079 3.971-.188 6.807-.324l23.317-.894-.325.326c.087-3.27.03-6.752-.153-10.336-.296-5.918-.812-11.548-1.143-16.684-.18-2.57-.252-5.015-.459-7.279-.202-2.267-.513-4.364-.968-6.24-.885-3.765-2.384-6.57-3.641-8.315-1.265-1.753-2.205-2.528-2.155-2.58.015-.016.256.166.682.554.424.388 1.017 1 1.69 1.864 1.343 1.721 2.94 4.548 3.9 8.358.494 1.898.836 4.02 1.066 6.304.233 2.288.326 4.731.524 7.29.365 5.124.9 10.754 1.197 16.693.185 3.596.235 7.1.133 10.392l-.009.317-.316.01-23.325.65-6.814.126-1.826.005c-.415-.007-.634-.02-.634-.039M176.05 347.219s-17.023 23.228-17.023 32.513c0 9.285.356 23.212 11.426 33.21 11.071 10 146.516 126.992 146.516 126.992l33.011-29.116-122.747-123.945s5.714-10.354 3.214-14.64c-2.5-4.285-6.428-5.713-6.428-5.713l-.356-22.983-47.612 3.682" fill="#17282f"/><path d="M236.157 342.572l2.878 24.483s87.182 45.178 94.216 58.528c3.188 6.048 6.274 60.808 6.274 60.808l-42.986.98-5.559-43.399-23.068-12.467-41.241-41.912-14.044-45.202 23.53-1.819M196.835 346.299c.042-.008.2.505.392 1.453.19.948.408 2.337.502 4.073.082 1.734.03 3.826-.441 6.092a18.467 18.467 0 01-2.939 6.896c-1.548 2.194-3.57 3.908-5.709 4.868a12.56 12.56 0 01-6.032 1.096c-1.759-.14-3.123-.63-3.984-1.085-.43-.233-.753-.43-.955-.592-.206-.152-.306-.241-.293-.261.055-.156 1.835 1.3 5.26 1.448 1.68.061 3.723-.236 5.735-1.187 2.012-.939 3.926-2.584 5.412-4.685 3.016-4.27 3.506-9.21 3.456-12.574-.075-3.422-.53-5.522-.404-5.542" fill="#17282f"/><path d="M230.261 362.904c.05.067-.761.804-2.258 1.748-1.492.944-3.704 2.041-6.304 2.799-2.604.75-5.06 1.008-6.826 1.008-1.769.004-2.849-.188-2.842-.27-.003-.226 4.378.103 9.474-1.405 5.111-1.45 8.638-4.073 8.756-3.88M227.623 346.49c-.036-.067.822-.3 1.853.48.485.375.973 1.085.947 1.974-.014.85-.49 1.833-1.458 2.268-.989.413-2.049.05-2.637-.599-.637-.668-.603-1.638-.303-2.185.284-.581.742-.895 1.074-.996.337-.105.532-.053.533-.015.041.099-.784.203-1.156 1.203-.176.472-.145 1.11.317 1.555.434.446 1.244.685 1.896.401.66-.288 1.058-1.015 1.094-1.659.053-.653-.264-1.218-.632-1.58-.768-.742-1.548-.734-1.528-.848M230.43 391.61c-.074.074-1.13-.885-2.88-2.371-1.75-1.488-4.22-3.479-7.123-5.423a61.9 61.9 0 00-7.776-4.415c-2.071-.984-3.399-1.501-3.363-1.605.025-.077 1.416.279 3.563 1.156 2.145.87 5.017 2.321 7.961 4.287a54.924 54.924 0 017.065 5.633c1.679 1.592 2.614 2.676 2.552 2.737M235.941 375.183c-.176.012-.249-2.13.888-4.44 1.118-2.324 2.85-3.587 2.948-3.439.143.15-1.28 1.563-2.324 3.741-1.07 2.166-1.305 4.156-1.512 4.138M333.887 546.42c-.075.061-.938-.83-2.271-2.32a261.272 261.272 0 01-5.101-5.916c-.49-.587-.952-1.139-1.503-1.473-.541-.338-1.18-.427-1.788-.363-1.232.135-2.253.748-3.083 1.276-1.649 1.136-2.886 1.559-2.916 1.441-.016-.076 1.058-.606 2.64-1.848.804-.58 1.868-1.308 3.288-1.505.698-.096 1.514-.006 2.21.416.692.412 1.196 1.03 1.684 1.61a266.152 266.152 0 014.946 6.047c1.236 1.571 1.966 2.575 1.894 2.635" fill="#33535f"/><path d="M316.97 539.934s.18-.193.557-.543l1.688-1.536 6.529-5.852 24.065-21.376-.012.374-62.285-62.088-44.739-44.749-4.88-4.89-2.366-2.373c-.778-.792-1.548-1.56-2.37-2.258-1.588-1.416-3.35-2.834-4.129-4.89-.413-.99-.48-2.13-.25-3.146.24-1.04.678-1.908.955-2.844.611-1.844 1.08-3.68 1.323-5.486.221-1.794.243-3.613-.392-5.157-.736-1.468-1.883-2.757-3.003-3.845-1.148-1.078-2.409-1.994-3.712-2.578l-.121-.053-.001-.121c-.075-6.982-.132-12.506-.174-16.319-.008-1.867-.014-3.313-.02-4.325l.008-1.112c.006-.248.012-.376.022-.376.008 0 .018.126.032.376l.044 1.11c.028 1.011.066 2.458.12 4.323.081 3.813.201 9.336.352 16.316l-.123-.176c1.397.61 2.665 1.53 3.86 2.63 1.17 1.131 2.305 2.362 3.13 3.971.697 1.676.67 3.558.457 5.398-.238 1.85-.706 3.714-1.316 5.584-.275.94-.724 1.869-.927 2.792-.203.946-.145 1.925.24 2.846.71 1.874 2.388 3.24 3.999 4.659.83.699 1.612 1.473 2.386 2.257l2.376 2.366 4.896 4.874 44.804 44.695c23.982 24.004 45.851 45.893 62.17 62.225l.194.195-.206.181-24.216 21.204c-2.856 2.479-5.084 4.413-6.622 5.75-.745.634-1.322 1.128-1.736 1.481-.394.33-.608.486-.608.486" fill="#33535f"/><path d="M336.301 541.555c-.149.104-2.105-2.511-3.948-6.082-1.853-3.565-2.857-6.672-2.688-6.734.188-.072 1.474 2.89 3.306 6.415 1.82 3.531 3.498 6.29 3.33 6.4M344.79 535.528c-.111.137-2.851-2.023-5.491-5.392-2.655-3.36-4.11-6.533-3.95-6.608.183-.099 1.886 2.878 4.495 6.177 2.593 3.312 5.085 5.67 4.945 5.823M350.156 529.605c-.161.112-2.075-2.4-4.46-5.468-2.381-3.072-4.339-5.548-4.192-5.676.141-.124 2.345 2.16 4.741 5.251 2.399 3.087 4.066 5.788 3.911 5.893M355.747 519.788c-.11.157-2.116-1.041-4.482-2.679-2.366-1.637-4.196-3.09-4.088-3.248.11-.158 2.116 1.04 4.484 2.678 2.366 1.636 4.195 3.091 4.086 3.249M277.235 441.948c.126.143-5.798 5.592-13.232 12.17-7.436 6.577-13.566 11.793-13.694 11.649-.126-.144 5.798-5.591 13.234-12.171 7.434-6.574 13.565-11.79 13.692-11.648M276.095 444.265c.073.05-.487 1.07-1.552 2.619-1.063 1.548-2.652 3.61-4.595 5.722-1.947 2.112-3.87 3.866-5.327 5.053-1.454 1.19-2.425 1.832-2.481 1.761-.132-.164 3.455-3.09 7.297-7.283 3.86-4.173 6.482-7.992 6.658-7.872M199.385 348.523c.046.01-.025.405-.196 1.112-.156.709-.492 1.71-1.001 2.906-.5 1.204-1.25 2.57-2.21 4.003a27.446 27.446 0 01-3.66 4.243 27.37 27.37 0 01-4.505 3.336c-1.5.85-2.918 1.496-4.154 1.905-1.232.42-2.255.68-2.975.783-.716.117-1.113.16-1.123.112-.025-.127 1.551-.415 3.926-1.355 1.19-.459 2.554-1.135 4-1.995a29.854 29.854 0 004.36-3.294 29.815 29.815 0 003.608-4.103c.965-1.377 1.74-2.687 2.286-3.84 1.114-2.299 1.519-3.85 1.644-3.813M302.392 427.51c.148.171-3.635 2.96-6.89 7.64-3.3 4.65-4.642 9.154-4.854 9.072-.079-.023.15-1.174.815-2.949.658-1.772 1.808-4.148 3.472-6.522 1.669-2.37 3.514-4.256 4.958-5.478 1.444-1.225 2.451-1.83 2.499-1.764" fill="#33535f"/><path d="M311.168 432.37c.045.214-4.728 1.07-10.187 3.39-5.474 2.283-9.422 5.099-9.545 4.916-.05-.07.87-.864 2.507-1.952 1.633-1.088 4.002-2.436 6.769-3.604 2.768-1.163 5.39-1.915 7.31-2.321 1.92-.41 3.133-.514 3.146-.43" fill="#33535f"/></svg>