<svg xmlns="http://www.w3.org/2000/svg" height="2666.667" width="4580"><defs><clipPath id="a" clipPathUnits="userSpaceOnUse"><path d="M19050.6 3687.5l-49 1.2c28.4 836.6 265.7 1679.5 305.7 1816.2-138.4 75.7-1070.8 583.3-1703.9 876.6-539.6 249.9-1130.6 275.7-1351.9 275.7-29 0-51.7-.4-67.1-.9V3757.5l-49.1 1.2v2897.2c-62.3 1.2-240.3 4.2-475.4 4.2-598.1 0-1565.1-19.1-1935.1-134.4-515.2-160.6-1204.7-889.1-1289.1-979.7l182-853.9c44.7 2.1 88 3.2 130.1 3.2 643.5 0 981.2-247.2 1153.4-463.4 127.6-160.3 183.9-323.2 208.2-423.8l-51.4 1.3c-25.1 97-80 247.9-196.8 393.9-233 291.1-616.4 442.9-1114.6 442.9-48 0-97.1-1.4-147.1-4.2l-21-1.2-196 919.7 8.5 9.3c30.7 33.7 759.6 828.3 1319.2 1002.7 376.2 117.3 1326.1 137.2 1927.3 137.2 286.6 0 494-4.5 522-5.2 6.2.3 38.5 1.8 91.3 1.8 225.3 0 825.1-26.4 1373.2-280.3 683.4-316.5 1713.9-881.9 1724.2-887.6l17.5-9.6-5.8-19.1c-2.9-9.3-278.6-920-309.3-1822.2"/></clipPath></defs><path d="M4579.996 2666.667H0V.002h4579.996v2666.665" fill="#fff"/><path d="M537.368 2339.267h3776.145c313.013-181.654 151.927-728.267-109.498-839.08-281.431-119.28 165.441-531.783-268.057-665.676-283.032-87.419-666.628 10.242-854.014-177.965-220.15-221.124-585.866-490.27-1266.987-281.122-525.312 161.309-239.986 472.288-1099.615 565.919-442.028 48.146-356.61 460.06-315.396 545.177 35.898 74.148 273.392 191.733-56.671 353.68-483.992 237.468 182.686 494.692 194.093 499.067" fill="#eafcfc"/><path d="M1576.403 1728.664s386.88-490.105 616.975-488.53c230.092 1.575 480.747 322.809 808.196 597.171 366.94 307.453-112.195 320.36-139.845 322.88-27.672 2.533-981.738-31.16-997.657-47.759-15.909-16.6-270.655-229.162-270.655-229.162l-17.014-154.6" fill="#c5ddf9"/><path d="M3561.519 1743.411h16.353v-181.227h-16.353v181.227" fill="#355389"/><path d="M3569.687 1210.607l53.368 431.3H3516.32l53.367-431.3" fill="#3c8f7c"/><path d="M3603.69 1485.48l-76.097 65.254 2.919-23.64 70.813-60.72 2.366 19.107M3591.998 1390.948l-46.608 15.919 2.204-17.693 42.399-14.507 2.005 16.28" fill="#50bfa5"/><path d="M1334.947 1424.32l47.653 385.053h-95.293zM1418.88 1480.867l36.293 293.253H1382.6zM1491.453 1568.2l36.294 293.253h-72.574zM1245.81 1510.307l47.646 385.053h-95.29z" fill="#3c8f7c"/><path d="M1425.958 1630.07c413.292 68.76 1033.438 686.771 1505.768 686.771 472.356 0 574.047-147.813 751.183-116.562 177.137 31.255 414.91 116.562 414.91 116.562l-3509.978 10.373s424.82-765.918 838.117-697.145" fill="#86b1f2"/><path d="M2922.004 1449.942l47.66 385.055h-95.302l47.642-385.055M3035.472 1563.305l36.296 293.254h-72.592l36.296-293.254M2749.56 1719.839l36.284 293.267h-72.569l36.284-293.267M2832.87 1535.93l47.644 385.055h-95.287l47.644-385.054" fill="#3c8f7c"/><path d="M3299.282 1630.069c-413.308 68.76-1033.443 686.772-1505.79 686.772-472.333 0-574.039-147.814-751.165-116.56-177.126 31.253-414.912 116.56-414.912 116.56l3509.981 10.371s-424.832-765.918-838.114-697.143" fill="#86b1f2"/><path d="M3157.807 2207.014h18.65v-206.745h-18.65v206.745" fill="#355389"/><path d="M3167.132 1599.174l60.876 492.054h-121.753l60.877-492.054" fill="#3c8f7c"/><path d="M3205.927 1912.76l-86.815 74.44 3.343-26.972 80.778-69.266 2.694 21.798M3192.583 1804.908l-53.157 18.172 2.507-20.199 48.359-16.533 2.291 18.56" fill="#50bfa5"/><path d="M3368.596 2295.174h17.805v-311.841h-17.805v311.841" fill="#355389"/><path d="M3372.831 1427.333l87.702 629.467H3285.13l87.702-629.467" fill="#3c8f7c"/><path d="M3454.97 2016.855l-157.36-49.601 2.374-17.067 152.379 48.028 2.607 18.64M3427.26 1818.002l-104.29-32.881 2.376-17.065 99.306 31.306 2.608 18.64" fill="#50bfa5"/><path d="M587.841 2327.214s453.134-393.615 1037.41-417.8c196.188-8.106 999.568 154.68 1676.088 282.572 28.44 5.374 89.937 58.014 118.732 63.428 320.273 60.199 618.727 72.92 715.26 76.798l-3547.49-4.998" fill="#96d9c9"/><path d="M4230.474 1894.283l.659-33.909c0-25.132-19.18-45.506-42.84-45.506-59.623 0-107.97 51.347-107.97 114.693v46.32c0 20.293-10.776 37.906-26.584 46.748-14.359 8.025-23.133 24.065-23.133 41.307v24.413c0 26.439 11.672 51.105 31.09 67.65 11.355 9.68 18.627 24.548 18.627 41.202v34.573c0 38.226 29.166 69.213 65.13 69.213h20.55c35.964 0 65.13-30.987 65.13-69.213-5.902-48.278 8.405-76.132 24.924-92.067 24.292-23.412 38.493-56.346 38.493-91.187v-4.892c0-36.76-15.966-71.187-42.656-94.6-11.777-10.332-21.42-27.2-21.42-54.745" fill="#4e9b87"/><path d="M4297.55 2341.12s-166.34-220.96-271.036-254.839c-104.67-33.892-6.012 100.705-6.012 100.705s-185.69-203.052-253.845-184.757c-62.46 16.786 0 142.652 0 142.652s-70.343-69.694-155.661-69.694 65.94 260.974 65.94 260.974l620.613 4.96" fill="#96d9c9"/><path d="M3766.67 2336.159s-113.717-304.093-254.517-268.92c-114.132 28.493-32.999 181.494-39.954 174.547-6.933-6.96-68.147-110.814-167.19-110.814-99.042 0 30.411 140.162 30.411 140.162s-211.003-65.894-227.525 3.305c-13.727 57.429 62.97 61.72 62.97 61.72h595.804M1167.104 2279.373c.64-3.786.973-7.666.973-11.613 0-44.013-41.245-79.693-92.124-79.693-50.877 0-92.122 35.68-92.122 79.693 0 3.947.333 7.827.973 11.613h182.3" fill="#3c8f7c"/><path d="M1271.361 2259.787a137.53 137.53 0 00.975-16.387c0-62.053-41.245-112.373-92.124-112.373s-92.123 50.32-92.123 112.373c0 5.573.334 11.04.974 16.387h182.298" fill="#50bfa5"/><path d="M1237.632 2328.653c-.64-3.8-.973-7.666-.973-11.613 0-44.013 41.245-79.693 92.122-79.693 50.886 0 92.126 35.68 92.126 79.693 0 3.947-.334 7.813-.974 11.613h-182.301" fill="#50bfa5"/><path d="M1090.195 2328.653a109.205 109.205 0 01-1.234-16.386c0-62.067 52.287-112.374 116.784-112.374 64.499 0 116.784 50.307 116.784 112.374 0 5.573-.421 11.04-1.233 16.386h-231.101" fill="#3c8f7c"/><path d="M1179.864 2199.893c-32.236 0-61.033 15.96-80.039 41-9.678-2.306-19.961-3.546-30.621-3.546-57.23 0-103.627 35.68-103.627 79.693 0 3.947.375 7.813 1.096 11.613h315.722a122.478 122.478 0 001.096-16.386c0-62.067-46.396-112.374-103.627-112.374" fill="#50bfa5"/><path d="M780.517 2091.947c-27.118-42.36-32.178-93.52-31.648-128.987.575-38.493 7.68-67.32 7.752-67.6l-1.961-.693c-.073.293-7.235 29.32-7.82 68.066-.541 35.814 4.577 87.507 32.03 130.4l1.647-1.186" fill="#3c8f7c"/><path d="M763.299 1888.32c-.667 8.707-4.523 16.013-10.076 20.493-4.746-6.066-7.408-14.373-6.742-23.08.667-8.706 4.524-16.013 10.076-20.506 4.746 6.066 7.408 14.373 6.742 23.093M744.97 1908.427c4.6 7.533 6.026 16.12 4.553 23.573-7.044-1.68-13.863-6.613-18.463-14.147-4.6-7.546-6.027-16.133-4.553-23.573 7.045 1.68 13.862 6.6 18.464 14.147M734.587 1932.093c7.142 4.64 11.985 11.814 13.848 19.387-6.79 1.933-14.751.76-21.895-3.88-7.144-4.653-11.985-11.827-13.848-19.387 6.79-1.933 14.75-.773 21.895 3.88M737.788 1965.04c5.656 3.693 9.161 10.013 10.117 16.987-5.893 2.506-12.524 2.2-18.18-1.494-5.654-3.693-9.161-10-10.116-16.986 5.892-2.507 12.524-2.2 18.179 1.493M761.16 1926c6.357-3.4 13.473-3.587 19.564-1.133-1.608 6.573-5.887 12.466-12.245 15.866-6.358 3.4-13.474 3.587-19.564 1.134 1.608-6.574 5.888-12.467 12.245-15.867M760.456 1948.76c6.357-3.4 13.473-3.6 19.565-1.147-1.609 6.574-5.888 12.48-12.246 15.88-6.358 3.4-13.474 3.587-19.566 1.134 1.61-6.574 5.888-12.467 12.247-15.867M741.881 2001.24c3.363.787 6.151 3.053 7.835 6.013-2.39 1.987-5.625 2.854-8.988 2.067-3.361-.787-6.15-3.053-7.833-6 2.389-2 5.625-2.867 8.986-2.08M769.336 2121.893c-62.063-14.84-109.396-60.746-138.175-96.64-31.242-38.973-47.98-74.893-48.145-75.253l-2.528 1.293c.167.36 17.023 36.547 48.467 75.787 29.056 36.253 76.881 82.627 139.712 97.64l.669-2.827" fill="#3c8f7c"/><path d="M583.855 1936.227c6.534 9.36 8.728 20.546 6.897 30.626-9.745-1.253-19.267-6.84-25.801-16.2-6.535-9.36-8.728-20.546-6.898-30.64 9.746 1.254 19.266 6.854 25.802 16.214M582.196 1974.8c10.819 2.867 19.335 9.987 24.023 18.907-8.414 5.44-19.287 7.426-30.106 4.56-10.817-2.88-19.333-9.987-24.021-18.907 8.413-5.453 19.287-7.427 30.104-4.56M591.4 2008.893c10.967-2.586 21.725-.32 29.835 5.334-5.174 8.8-14.072 15.68-25.04 18.266-10.967 2.587-21.724.334-29.834-5.333 5.172-8.787 14.072-15.68 25.039-18.267M616.125 2039.893c10.968-2.573 21.726-.32 29.835 5.347-5.173 8.787-14.072 15.68-25.039 18.253-10.968 2.587-21.725.334-29.834-5.333 5.173-8.787 14.072-15.68 25.038-18.267M608.732 1988.36c-.553-10.547 2.915-20.48 8.84-27.627 6.595 5.627 11.053 14.587 11.605 25.134.554 10.546-2.914 20.493-8.84 27.64-6.594-5.627-11.053-14.6-11.605-25.147M634.519 2020.44c-.714-10.547 2.604-20.533 8.42-27.8 6.678 5.507 11.272 14.387 11.984 24.92.713 10.533-2.604 20.533-8.42 27.8-6.679-5.507-11.272-14.387-11.984-24.92M655.832 2070.48c4.003-2.613 8.661-3.16 12.777-1.92-.73 4.4-3.245 8.533-7.246 11.147-4.003 2.613-8.662 3.173-12.778 1.933.731-4.413 3.246-8.547 7.247-11.16M933.615 2209.547l2.682-.174c-3.864-70.986 22.194-137.786 44.734-181.32 24.461-47.24 50.177-78.053 50.433-78.36l-1.968-2.026c-.259.306-26.152 31.333-50.765 78.853-22.738 43.893-49.022 111.28-45.116 183.027" fill="#3c8f7c"/><path d="M1043.115 1945.627c-6.128 10.32-14.924 16.733-23.856 18.48-1.51-10.734.677-22.827 6.805-33.16 6.128-10.32 14.924-16.72 23.855-18.48 1.51 10.746-.676 22.84-6.804 33.16M1010.35 1957.987c.438 12.466-3.29 24.066-9.533 32.266-6.772-6.88-11.284-17.64-11.721-30.106-.439-12.467 3.29-24.054 9.532-32.267 6.773 6.893 11.285 17.64 11.723 30.107M984.197 1980.173c5.046 10.627 5.978 22.814 3.363 33.44-8.725-2.24-16.835-9.12-21.88-19.746-5.045-10.627-5.977-22.814-3.363-33.44 8.726 2.253 16.835 9.12 21.88 19.746M966.23 2034.707c2.417 4.28 3.153 9.346 2.36 13.893-3.72-.64-7.313-3.24-9.729-7.52-2.416-4.267-3.153-9.347-2.36-13.893 3.72.64 7.314 3.24 9.73 7.52M958.477 2054.28c2.416 4.28 3.154 9.347 2.36 13.893-3.72-.64-7.312-3.24-9.728-7.506-2.416-4.28-3.153-9.36-2.36-13.894 3.72.627 7.312 3.227 9.728 7.507M1017.433 1990.787c9.152.133 17.162 4.746 22.399 11.946-5.85 7.027-14.248 11.414-23.4 11.28-9.155-.133-17.163-4.76-22.399-11.96 5.85-7.026 14.246-11.413 23.4-11.266M1002.573 2018.453c9.154.134 17.163 4.76 22.399 11.947-5.85 7.04-14.247 11.413-23.4 11.28-9.153-.133-17.161-4.76-22.399-11.947 5.851-7.04 14.247-11.413 23.4-11.28M977.981 2056.16c5.958.093 11.17 3.093 14.578 7.787-3.807 4.573-9.272 7.426-15.23 7.333-5.958-.08-11.17-3.093-14.578-7.773 3.806-4.587 9.273-7.427 15.23-7.347" fill="#3c8f7c"/><path d="M702.188 2325.947c0-11.814 71.359 2.12 77.295-13.974 5.936-16.106-61.116-17.026-61.116-38.8 0-21.786 34.17-6.506 54.208-6.506 20.037 0-39.56-9.334-39.56-17.04 0-7.707 20.909-3.667 20.909-11.854 0-8.186-109.807-14.36-96.955-34.386 12.851-20.04 71.884 5.84 88.094-4.534 16.209-10.36-86.596-21.666-89.14-37.08-2.544-15.413 75.75 13.214 86.837 2.12 11.087-11.08-123.804-50.933-118.152-80.213 5.65-29.28 102.241 37.507 126.388 30.307 24.147-7.187-121.764-109.987-87.856-150.04 33.91-40.054 98.645 132.573 120.737 126.413 22.094-6.16-27.666-109.08-5.098-126.987 22.566-17.893 87.342 144.894 91.433 178.334 4.09 33.426 12.31-71.92 47.76-84.24 35.45-12.32 1.028 65.253 7.193 88.893 6.166 23.64 34.934-60.627 73.726-54.453 38.792 6.16-70.128 83.226-59.339 105.826 10.788 22.614 94.895-75.466 121.25-49.106 26.355 26.346-101.305 99.493-94.323 119.52 6.981 20.013 83.572-14.294 105.626 7.76 22.055 22.053-82.278 36.066-96.113 36.066-13.835 0-66.705 17.387-15.07 13.974 51.637-3.427-258.734 11.813-258.734 0" fill="#3c8f7c"/><path d="M905.593 2339.587s85.934 4.613 110.952-11.147c25.019-15.747 5.272-28 5.272-28s79.463-1.733 79.264-20.56c-.2-18.827-19.461-17.747-19.461-17.747s40.108-27.253 32.628-44.24c-11.496-26.106-76.824 19.347-76.824 19.347s21.416-25.44 4.112-31.373c-47.503-16.32-135.943 133.72-135.943 133.72" fill="#50bfa5"/><path d="M1114.248 2217.893c7.48 16.987-32.628 44.24-32.628 44.24s28.948-.386 24.25 17.934c-4.68 18.24-77.462 24.386-77.462 24.386s25.41 4.974.39 20.72c-25.02 15.76-123.205 14.414-123.205 14.414l208.655-121.694" fill="#96d9c9"/><path d="M553.808 1589.84c.139-4.64 6.553-8.253 9.955-4.133 3.389 4.106 3.245 1.333 6.548 10.213 9.48 25.507 23.413 50.187 39.63 71.747 31.074 41.32 61.836 62.16 96.762 82.813-14.392-32.427-24.031-67.04-25.259-101.96-.447-12.72-.203-25.92 5.24-37.587 1.52-3.266 7.361-2.6 7.953 1.04 2.935 18.014-1.384 31.6 4.447 63.84 13.916 76.947 68.988 158.547 122.115 215.694-10.188-96.734-15.126-206.694 3.094-304.267 2.988-16.013 7.74-31.24 12.156-46.867 1.039-3.68 6.267-2.106 5.623 1.547-.917 5.2-9.597 72.36-10.121 76.987-8.422 74.32-6.739 156.64-.184 231.72 41.209-55.814 68.793-121.08 81.692-189.24 3.812-20.147 4.829-40.947 10.176-60.72.736-2.72 5.236-3.014 5.796 0 5.489 29.626-5.503 82.026-13.514 110.506-16.236 57.707-42.212 109.427-77.725 155.64-1.381 1.787 57.032 453.334 55.463 459.054-2.648 9.64-19.447 16.413-22.054-.707-1.061-6.96-33.157-281.52-47.64-408.693-5.472-3.014-8.993-8.374-23.07-24.2-32.582-36.627-64.8-82.2-86.334-125.174-12.921-.733-106.234-46.133-152.522-149.52-1.334-2.986-7.344-16.973-8.203-20.093-.737-2.68-.104-5-.024-7.64" fill="#184655"/><path d="M853.49 1443.44a558.484 558.484 0 01-1.615-42.573c0-161.28 68.452-292.014 152.892-292.014s152.892 130.734 152.892 292.014c0 14.466-.554 28.68-1.616 42.573H853.49" fill="#50bfa5"/><path d="M680.459 1371.667a1109.092 1109.092 0 01-1.616-60.027c0-227.453 68.452-411.84 152.892-411.84s152.892 184.387 152.892 411.84c0 20.387-.554 40.44-1.616 60.027H680.459" fill="#96d9c9"/><path d="M736.439 1624.04a559.698 559.698 0 001.616-42.573c0-161.28-68.452-292.027-152.892-292.027S432.27 1420.187 432.27 1581.467c0 14.453.553 28.666 1.616 42.573h302.552" fill="#96d9c9"/><path d="M981.13 1624.04a876.555 876.555 0 002.049-60.04c0-227.453-86.776-411.84-193.82-411.84S595.537 1336.547 595.537 1564c0 20.387.702 40.44 2.05 60.04H981.13" fill="#50bfa5"/><path d="M832.313 1152.16c53.499 0 101.294 58.507 132.836 150.24 16.062-8.427 33.128-12.96 50.819-12.96 94.984 0 171.983 130.747 171.983 292.027a497.03 497.03 0 01-1.818 42.573H662.147a987.646 987.646 0 01-1.818-60.04c0-227.453 77-411.84 171.984-411.84" fill="#96d9c9"/><path d="M571.937 2260.6c.538-5.253.819-10.613.819-16.08 0-60.947-34.67-110.36-77.433-110.36-42.767 0-77.435 49.413-77.435 110.36 0 5.467.28 10.827.819 16.08h153.23" fill="#3c8f7c"/><path d="M659.572 2233.48c.539-7.4.817-14.973.817-22.68 0-85.96-34.668-155.627-77.433-155.627-42.765 0-77.433 69.667-77.433 155.627 0 7.707.28 15.28.817 22.68h153.232" fill="#50bfa5"/><path d="M631.22 2328.853a157.806 157.806 0 01-.819-16.093c0-60.947 34.668-110.347 77.434-110.347s77.434 49.4 77.434 110.347c0 5.467-.28 10.84-.818 16.093H631.22" fill="#50bfa5"/><path d="M507.293 2328.853a247.496 247.496 0 01-1.038-22.693c0-85.947 43.949-155.627 98.162-155.627 54.215 0 98.164 69.68 98.164 155.627 0 7.707-.356 15.28-1.038 22.693h-194.25" fill="#3c8f7c"/><path d="M582.663 2150.533c-27.095 0-51.302 22.107-67.276 56.774-8.135-3.187-16.778-4.894-25.738-4.894-48.106 0-87.104 49.4-87.104 110.347 0 5.467.316 10.84.922 16.093h265.378c.606-7.413.922-14.986.922-22.693 0-85.947-38.998-155.627-87.104-155.627" fill="#50bfa5"/><path d="M2158.853 783.333h-546.44a86.35 86.35 0 01-.4-8.146c0-46.374 37.587-83.96 83.96-83.96a83.64 83.64 0 0140.827 10.586c17.067-47 62.12-80.573 115.027-80.573 44.466 0 83.386 23.72 104.813 59.2a99.197 99.197 0 0129.547-4.48c39.786 0 74.106 23.44 89.92 57.253a67.64 67.64 0 0117.026-2.173c32.04 0 58.84 22.347 65.72 52.293M3166.94 1307.14h-263.145c3.303-14.422 16.224-25.183 31.652-25.183a32.5 32.5 0 018.2 1.045c7.616-16.284 24.132-27.567 43.31-27.567 4.954 0 9.715.754 14.222 2.153 10.318-17.083 29.068-28.506 50.48-28.506 25.473 0 47.177 16.17 55.377 38.804a40.328 40.328 0 0119.663-5.1c22.325 0 40.434 18.102 40.434 40.434 0 1.32-.058 2.63-.194 3.92M2441.783 1119.535h-323.379a51.23 51.23 0 01-.24-4.824c0-27.444 22.246-49.69 49.705-49.69a49.531 49.531 0 0124.148 6.262c10.097-27.803 36.762-47.682 68.07-47.682 26.321 0 49.346 14.037 62.034 35.039a58.592 58.592 0 0117.482-2.652c23.549 0 43.862 13.872 53.225 33.886a39.7 39.7 0 0110.067-1.288c18.95 0 34.829 13.227 38.888 30.949M3071.768 911.329H2635.03c-.188-2.143-.32-4.314-.32-6.511 0-37.06 30.039-67.104 67.107-67.104a66.838 66.838 0 0132.621 8.465c13.644-37.564 49.658-64.41 91.946-64.41 35.523 0 66.637 18.969 83.748 47.32a79.471 79.471 0 0123.613-3.574c31.83 0 59.25 18.727 71.876 45.753a54.064 54.064 0 0113.606-1.734c25.61 0 47.038 17.858 52.54 41.795M1527.653 1203.693h-217.698c2.741-11.933 13.42-20.84 26.178-20.84 2.347 0 4.627.307 6.787.867 6.307-13.467 19.973-22.8 35.827-22.8 4.106 0 8.053.627 11.773 1.773 8.533-14.133 24.04-23.573 41.76-23.573 21.067 0 39.027 13.373 45.827 32.093a33.326 33.326 0 0116.253-4.213c18.48 0 33.453 14.973 33.453 33.453 0 1.094-.053 2.174-.16 3.24" fill="#f5fefe"/><path d="M2100.24 1580.187v-5.96h20.227v5.96h-20.227" fill="#f7cc7f"/><path d="M2142.907 1715.053v-141.4c0-9.346-7.574-16.92-16.92-16.92h-29.44c-9.347 0-16.92 7.574-16.92 16.92v141.4c0 9.347 7.573 16.92 16.92 16.92h29.44c9.346 0 16.92-7.573 16.92-16.92" fill="#f47458"/><path d="M2111.267 1731.973h16.986c8.094 0 14.654-3.573 14.654-7.986V1564.72c0-4.413-4.6-7.987-12.694-7.987h-18.946v175.24" fill="#b75742"/><path d="M2106.613 1662.387v-40.827h7.48v40.827h-7.48" fill="#1a1a1a"/><path d="M2203.195 1714.81v-102.894c0-9.48-7.678-17.173-17.166-17.173h-28.953c-9.488 0-17.166 7.693-17.166 17.173v102.893c0 9.481 7.678 17.161 17.166 17.161h28.953c9.488 0 17.166-7.68 17.166-17.16" fill="#355389"/><path d="M2171.553 1731.97h16.976c8.11 0 14.666-2.8 14.666-6.254v-124.72c0-3.453-6.556-6.253-14.666-6.253h-16.976v137.227" fill="#5184ce"/><path d="M2160.502 1613.121v-4.667h20.242v4.667h-20.242" fill="#f7cc7f"/><path d="M2166.893 1677.492v-31.974h7.483v31.974h-7.483" fill="#1a1a1a"/><path d="M1872.107 1765.013h-3.027v-30.786h3.027v30.786M2238.707 1765.013h-3.021v-30.787h3.021v30.787" fill="#13375b"/><path d="M2106.413 1668.667h-209c-10.253 0-18.56 8.306-18.56 18.56v26.16c0 10.253 8.307 18.56 18.56 18.56h209c10.254 0 18.574-8.307 18.574-18.56v-26.16c0-10.254-8.32-18.56-18.574-18.56" fill="#b75742"/><path d="M2124.987 1700.307v-16.974c0-8.106-5.027-14.666-11.214-14.666h-223.706c-6.2 0-11.214 6.56-11.214 14.666v16.974h246.134" fill="#91342a"/><path d="M1918.48 1711.347h-8.36v-20.24h8.36v20.24M2085.36 1711.347h8.36v-20.24h-8.36z" fill="#f7cc7f"/><path d="M2027.253 1704.96h-57.346v-7.48h57.346v7.48" fill="#1a1a1a"/><path d="M2069.613 1605.387h-135.4c-11 0-19.92 8.92-19.92 19.92v23.44c0 11 8.92 19.92 19.92 19.92h135.4c11 0 19.934-8.92 19.934-19.92v-23.44c0-11-8.934-19.92-19.934-19.92" fill="#4e9b87"/><path d="M2089.547 1637.027v-16.974c0-8.106-3.587-14.666-7.987-14.666h-159.28c-4.413 0-7.987 6.56-7.987 14.666v16.974h175.254" fill="#3c8f7c"/><path d="M1937.747 1648.067h-5.947v-20.24h5.947v20.24" fill="#f7cc7f"/><path d="M2225.331 1731.89l-144.989-.092-2.34-64.587h147.33c17.853 0 32.327 14.48 32.327 32.334 0 17.866-14.474 32.346-32.328 32.346" fill="#fae0b2"/><path d="M2111.267 1699.547c0 17.866-13.334 32.346-29.787 32.346s-29.787-14.48-29.787-32.346c0-17.854 13.334-32.334 29.787-32.334s29.787 14.48 29.787 32.334" fill="#f7cc7f"/><path d="M2141.987 1734.92l-.027-.027a3.145 3.145 0 01-.613-4.32c9.813-13.866 12.533-28.626 8.106-43.906-2.453-8.494-6.6-14.987-8.946-18.2-.947-1.294-.734-3.094.466-4.174l.027-.026a3.136 3.136 0 014.613.493c2.64 3.6 7.094 10.6 9.827 19.893 3.547 12.054 4.72 30.214-8.96 49.574a3.147 3.147 0 01-4.493.693M2194.995 1734.919l-.027-.026c-1.357-1.04-1.602-2.934-.638-4.32 9.817-13.867 12.546-28.627 8.12-43.908-2.458-8.492-6.613-14.987-8.948-18.199a3.13 3.13 0 01.462-4.174l.04-.026a3.14 3.14 0 014.617.493c2.62 3.6 7.074 10.6 9.803 19.893 3.557 12.054 4.725 30.214-8.948 49.574-1.032 1.467-3.068 1.786-4.48.693" fill="#f47458"/><path d="M2069.693 1729.173h-.186a30.213 30.213 0 01-3.92-2.266c.36 0 .906.013 1.613.013 5.933 0 22.867-.853 31.32-10.067 5.04-5.493 6.827-13.133 5.333-22.733-1.146-7.36-4.706-12.96-10.306-16.2-3.347-1.947-7.254-2.92-11.254-2.92-3 0-6.053.547-8.973 1.667-6.32 2.426-11.56 8.173-13.373 14.64-1.134 4.066-1.467 10.213 3.373 16.453 3.693 4.773 8.573 6.267 12.933 6.267 3 0 5.734-.707 7.667-1.547 4.107-1.773 7.187-6.013 7.853-10.8.507-3.587-1.12-7.08-4.266-9.08-1.6-1.027-3.374-1.533-5.134-1.533a9.18 9.18 0 00-4.986 1.48c-3.067 1.973-3.734 5.04-2.054 9.36l-2.133.826c-2.627-6.746.147-10.306 2.947-12.12a11.447 11.447 0 016.213-1.84c2.2 0 4.4.627 6.387 1.894 3.893 2.493 5.933 6.84 5.306 11.333-.786 5.56-4.4 10.507-9.226 12.587-2.16.933-5.24 1.733-8.6 1.733-4.947 0-10.507-1.707-14.72-7.16-4.24-5.453-5.574-12.013-3.774-18.467 2.04-7.253 7.694-13.453 14.76-16.16a27.312 27.312 0 019.8-1.826c4.4 0 8.707 1.093 12.4 3.226 4.334 2.52 9.84 7.654 11.427 17.84 1.613 10.32-.387 18.6-5.92 24.627-8.933 9.747-24.413 10.773-30.507 10.773" fill="#ec5d2c"/><path d="M2067.28 1648.067h-5.947v-20.24h5.947v20.24" fill="#f7cc7f"/><path d="M2019.947 1641.68h-40.827v-7.48h40.827v7.48" fill="#1a1a1a"/><path d="M1899.173 1734.413l-1.973-1.04 68.933-130.666 1.974 1.04-68.934 130.666M2112.133 1736.8l-70.706-134.04 1.973-1.04 70.707 134.04-1.974 1.04M2244.195 1734.308l-57.286-140.572 2.053-.84 57.287 140.573-2.054.84M2181.22 1734.265l-62.834-178.052 2.116-.747 62.807 178.053-2.09.746"/><path d="M2252.834 1735.984h-397.245v-4.187h397.245v4.187" fill="#13375b"/><path d="M1576.4 2176.453s303.12 50.307 306.747 48.12c3.64-2.173 42.893-171.546 42.893-171.546s-250.653-45.067-254.72-45.067c-4.053 0-58.573 43.613-59.307 46.52-.72 2.907-35.613 121.973-35.613 121.973M2501.002 2219.48c7.267.734 374.361-7.131 374.361-7.131l-27.624-84.453s-50.875-76.947-77.776-75.548c-10.161.534-39.267-2.826-73.066-6.199-55.726-5.546-124.205-11.106-141.387.813-27.607 19.147-52.32 3.88-65.392 49.68-13.107 45.8-23.303 50.92-13.107 78.52 10.178 27.6 23.99 44.319 23.99 44.319" fill="#183658"/><path d="M1604.52 2206.6c0 69.027 55.933 124.987 124.947 124.987 69 0 124.933-55.96 124.933-124.987 0-69.027-55.933-124.987-124.933-124.987-69.014 0-124.947 55.96-124.947 124.987" fill="#1a1a1a"/><path d="M1642.533 2206.6c0 48.027 38.92 86.96 86.934 86.96 48 0 86.92-38.933 86.92-86.96 0-48.027-38.92-86.96-86.92-86.96-48.014 0-86.934 38.933-86.934 86.96" fill="#9e9da2"/><path d="M1671.32 2206.6c0 32.12 26.027 58.16 58.147 58.16 32.106 0 58.133-26.04 58.133-58.16s-26.027-58.16-58.133-58.16c-32.12 0-58.147 26.04-58.147 58.16" fill="#d8d9dd"/><path d="M2566.48 2206.6c0 69.027 55.929 124.988 124.938 124.988 69.01 0 124.94-55.961 124.94-124.988s-55.93-124.986-124.94-124.986c-69.01 0-124.939 55.96-124.939 124.986" fill="#1a1a1a"/><path d="M2604.486 2206.6c0 48.026 38.931 86.96 86.947 86.96 47.999 0 86.913-38.934 86.913-86.96 0-48.026-38.914-86.959-86.913-86.959-48.016 0-86.947 38.933-86.947 86.959" fill="#9e9da2"/><path d="M2633.275 2206.601c0 32.121 26.028 58.16 58.146 58.16 32.1 0 58.128-26.039 58.128-58.16 0-32.119-26.028-58.159-58.128-58.159-32.118 0-58.146 26.04-58.146 58.16" fill="#d8d9dd"/><path d="M2978.257 2087.655c-10.552-69.655-44.694-84.28-145.714-104.481-111.461-22.292-252.968-94.986-252.968-94.986s-241.32-118.24-300.443-131.814c-59.123-13.56-204.489-9.694-326.612-8.719-122.123.973-193.842 34.894-255.869 83.346-62.04 48.467-169.613 85.294-169.613 85.294l-19.547 3.493c-20.093 3.586-34.733 21.067-34.733 41.48v172.84c0 19.573 13.187 36.692 32.107 41.692l70.625 18.655c5.76.998 11.108-3.094 11.748-8.895 7.732-70.72 68.852-124.453 141.747-124.372 77.505.093 141.078 63.786 141.023 141.293 0 8.813-.823 17.426-2.378 25.787-1.59 8.626 5.03 16.587 13.826 16.587h650.023c12.618 0 22.438-11.095 20.774-23.615a139.044 139.044 0 01-1.262-18.413c-.237-76.56 61.684-140.026 138.216-141.599 79.349-1.64 144.196 62.186 144.196 141.16 0 5.226-.293 10.4-.841 15.48-1.573 14.387 9.546 26.987 24.01 26.987h93.486c16.989 0 30.777-13.774 30.777-30.774v-90.533c0-12.013-.768-24.014-2.578-35.893" fill="#f7cc7f"/><path d="M1476.88 1981.72h76.987c6.6 0 11.066 6.707 8.52 12.8l-8.654 20.627c-8.24 19.68-27.493 32.48-48.813 32.48h-28.04c-5.48 0-9.933-4.454-9.933-9.934v-46.04c0-5.493 4.453-9.933 9.933-9.933" fill="#cf283c"/><path d="M2855.81 2013.706c42.401 6.479 91.23 46.64 91.23 46.64 11.67 12.533 2.032 32.894-15.085 31.813l-82.644-5.213c-17.171-1.094-31.82-12.84-36.594-29.36-8.04-27.76-1.198-50.666 43.092-43.88" fill="#eafcfc"/><path d="M1473.213 2140.547c-5.306-.134-9.053 5.2-7.106 10.12 5.533 13.933 17.386 24.893 32.56 28.893l79.133 20.907c6.453 1.106 12.44-3.467 13.147-9.974a152.101 152.101 0 019.346-38.346c1.574-4.107-1.413-8.534-5.8-8.64l-121.28-2.96M2834.044 2173.121c-6.015-.146-10.654 5.133-9.884 11.095a156.879 156.879 0 011.32 20.24c0 5.812-.33 11.532-.935 17.173-1.76 15.96 10.6 29.945 26.663 29.945h103.72c18.85 0 34.144-15.279 34.144-34.147v-26.839c0-7.614-6.088-13.827-13.68-14.014l-141.348-3.453" fill="#eab054"/><g clip-path="url(#a)" transform="matrix(.13333 0 0 -.13333 0 2666.667)"><path d="M12382.526 6709.706h6983.178V3687.503h-6983.178" fill="#f6ae51"/></g><path d="M1590.987 2190.227c0-.054.013-.12.013-.174 0 .054-.013.12-.013.174m.026-.24c.414-3.667.947-7.28 1.614-10.854h.013a151.907 151.907 0 00-1.627 10.854" fill="#95b980"/><path d="M1592.64 2179.133h-.013c.24-1.306.506-2.6.786-3.893a125.56 125.56 0 00-.773 3.893" fill="#182e38"/><path d="M1579.733 2200.64c-.64 0-1.28-.053-1.933-.173l-79.133-20.907c-14.52-3.827-26-14.027-31.814-27.107a71.657 71.657 0 01-.746-1.786l127.306 24.573c-.28 1.293-.546 2.587-.786 3.893a151.89 151.89 0 00-1.614 10.854c-.013.026-.013.04-.013.066 0 .054-.013.12-.013.174l-.04.266c-.64 5.854-5.547 10.147-11.214 10.147" fill="#e99635"/><path d="M2824.549 2221.6259999999997c.294-2.72.502-5.453.658-8.212h.018c-.156 2.76-.382 5.493-.676 8.212" fill="#95b980"/><path d="M2825.225 2213.412c.017-.534.052-1.066.07-1.614h.017c-.035.548-.052 1.08-.087 1.614" fill="#182e38"/><path d="M2954.927 2251.574h-103.719c-.715 0-1.449-.027-2.145-.08-14.01-1.106-24.72-12.906-24.702-26.893 0-.986.074-1.973.184-2.972.293-2.722.513-5.454.678-8.214.019-.533.055-1.067.074-1.614h163.775v5.626c0 18.868-15.294 34.147-34.145 34.147" fill="#e99635"/><path d="M2557.12 2211.8c-.017-7.066.502-14.04 1.476-20.855 1.193-8.198-4.9-15.613-13.178-15.826l-676.09-16.493c-7.398-.187-12.706 6.854-10.68 13.96a142.533 142.533 0 015.371 38.867 145.8 145.8 0 01-2.387 26.106c-1.65 8.84 5.026 17.027 14.025 17.027h661.594c12.989 0 22.805-11.48 21.109-24.346a145.727 145.727 0 01-1.24-18.44" fill="#eab054"/><path d="M2557.128 2211.798v-.347h.016l-.016.347" fill="#182e38"/><path d="M2537.262 2254.585h-661.604c-8.084 0-14.284-6.612-14.284-14.36 0-.88.078-1.773.25-2.666a143.072 143.072 0 002.387-26.107h693.123c-.015.12-.015.24-.015.347.03 6.253.439 12.4 1.24 18.44.125.947.188 1.893.188 2.84.031 11.667-9.261 21.506-21.285 21.506" fill="#e99635"/><path d="M1732.093 1939.8l373.654 3.533s22.866-.613 25.973-22.133c3.12-21.52 2.853-113.693 2.853-113.693s-2.72-18.507-20.44-18.747c-10.773-.133-101.04-6.587-188.84 4.107-71.626 8.72-137.88 41.44-188.12 91.68l-26.52 26.533s-17.893 28.347 21.44 28.72M2176.168 1819.196v96.64c0 12.548 9.642 22.867 21.814 23.36l293.6 11.801c6.742.267 13.345-2.774 17.217-8.466 5.26-7.774 5.878-20.548-20.441-37.68-45.743-29.788-162.143-94.228-205.201-100.469-27.415-3.958-63.283-5.678-85.715-6.413-11.648-.373-21.274 9.241-21.274 21.227" fill="#eafcfc"/><path d="M1787.453 1894.72s243.467-27.72 248.68-22.92c5.227 4.8 39.054 83.973 45.2 105.627l-286.76-2.707-20.186-30.453 13.066-49.547" fill="#b75742"/><path d="M2303.66 1916.477s22.408 26.52 28.761 55.134l-7.054 11.467-14.152-15-7.555-51.601" fill="#263d60"/><path d="M2327.57 1846.937c-4.303-27.987-29.602-48.12-56.074-34.533-5.946 3.053-14.008 9.252-18.124 14.532-11.106 14.281-13.95 31.908-25.429 45.761 4.217 3.2 9.32 6.56 15.395 9.786l7.146-9.533-2.472 11.894c17.78 8.506 42.866 15.533 77.185 15.333 4.317-19.44 4.66-38.307 2.373-53.24" fill="#1a1a1a"/><path d="M2268.198 1908.51s-25.461-1.615-35.534 9.346c-10.073 10.96 22.346 97.693 24.175 111.64 1.83 13.96-15.03 41.773-15.03 41.773s70.068 32.787 87.157 21.493c0 0-2.73-111.826-4.573-121.786-1.828-9.973-17.088-50.507-20.746-54.493-3.672-3.987-35.449-7.973-35.449-7.973" fill="#355389"/><path d="M2276.667 1874.55s-.127.746-.367 2.013c-1.143 6.12-5.502 26.387-8.451 31.973-3.584 6.734 12.204 28.214 27.4 25.6 4.529-.787-3.824-19.746-3.415-21.76.762-3.84 1.792-9.08 2.865-14.466.592-3.026 1.213-6.108 1.791-9a7919.194 7919.194 0 002.935-14.933l-22.758.573" fill="#f7a491"/><path d="M1789.267 1899.4c-.254-1.68-.894-3.24-1.814-4.68l-36.186 36.2s-27.214 43.133 32.626 43.693l16.454.16-11.08-75.373" fill="#b75742"/><path d="M2276.264 1876.76l.042-.199-.042.2" fill="#5c352d"/><path d="M2294.704 1897.857c-3.512-.508-7.18-2.213-10.862-5.44-4.006-3.506-6.659-7.72-8.239-12.227.268-1.333.48-2.507.65-3.427l.042-.2.38-2.013 22.755-.573-2.948 14.934c-.579 2.879-1.171 5.933-1.778 8.946" fill="#f69680"/><path d="M2291.996 1822.856s-10.744-1.227-17.451 7.453c-6.736 8.694-13.997 35.561 2.728 50.161 16.712 14.613 33.21-1.92 35.67-19.454 2.43-17.533 3.396-38.787-20.947-38.16" fill="#f7a491"/><path d="M2317.874 1860.76c-1.978 3.867-5.323 6.013-7.457 4.786-2.15-1.227-2.25-5.36-.27-9.24 2.006-3.866 5.35-6.013 7.485-4.787 2.135 1.228 2.25 5.361.242 9.24" fill="#f7a491"/><path d="M2293.193 1819.989s-14.336 25.547-24.592 26.733c-10.256 1.174-11.607 14.76-11.607 14.76s3.672-31.293 13.83-37.319c10.143-6.04 22.369-4.174 22.369-4.174" fill="#1a1a1a"/><path d="M2271.297 1853.133c.836 4.547-.837 8.707-3.75 9.293-2.913.601-5.938-2.6-6.76-7.132-.837-4.534.836-8.694 3.749-9.294 2.885-.6 5.924 2.6 6.76 7.133" fill="#f7a491"/><path d="M2235.237 2032.572c-.056-.24 9.586-41.228 13.481-50.28 3.896-9.067 19.047-51.16 19.047-51.16l-19.603-4.28s-12.647 32.933-18.42 47.827c-5.76 14.893-3.298 42.347-3.548 50.093l-.863 6.667c-.195.853-.376 1.573-.46 1.706-.236.387-.903 2.973-.931 3.2-.042.227-.612 1.107-.849 1.48-.236.387-.765 5.653-.876 6.493-.112.855.25 2.775.25 2.775l-.195 3.532c-.153 2.588 2.532 1.907 2.532 1.907-.07 1.226.362 1.867 1.044 2.093.445.147.918.12 1.252.093.195-.012.334-.026.39-.012.11.052.166.44.166.44-.07.773.821 1.372 1.378 1.48.556.12 1.572-.268 1.85-.6.292-.334.501-.28.501-.28.57.479 2.755.466 3.256-.24.514-.707.96-4.44 1.196-4.76.223-.348.71-.921.78-1.454.083-.533 1.863-4.346 1.975-5.107.111-.76-1.002-3.334-1.252-4.88-.237-1.533-1.753-3.92-2.101-4.613-.14-.267-.098-1.146 0-2.12" fill="#f48c7f"/><path d="M2299.995 1869.508l-16.467-.854s.057 6.281 7.281 6.868c8.82.707 9.186-6.014 9.186-6.014" fill="#fff"/><path d="M2209.812 1882.09l-5.962 39.426s21.777 46.948 34.778 42.868c10.902-3.414 4.195-44.948 4.195-44.948s-5.948-22.306-4.154-33.48c1.767-11.16-28.857-3.866-28.857-3.866" fill="#f7a491"/><path d="M2238.651 1885.961c1.773-11.16-28.85-3.867-28.85-3.867l-.495 3.267c.907 2.187 1.993 4.053 3.312 5.494 6.845 7.386 17.539 11.826 26.789 12.158-.935-6.025-1.485-12.465-.756-17.052" fill="#f47458"/><path d="M2204.787 1826.306c-.86-.32-6.947 44.906 4.576 57.346 11.537 12.44 33.988 16.52 42.045 6.72 8.902-10.84 8.444-59.44-9.472-72.24-17.902-12.8-37.15 8.174-37.15 8.174" fill="#f7a491"/><path d="M2235.128 1793.945c-13.855 2.827-22.834 11.32-26.121 14.933-6.285.747-14.835 4.24-23.662 18.894-10.843 18.026-2.832 38.012 9.793 47.8 12.64 9.8 12.46 21.12 12.46 21.12l1.989-5.853c1.478-4.427 2.086-9.134 1.589-13.787-.29-2.786-.884-5.813-2.045-8.294-3.039-6.546 6.534-10.893 9.214-16.332 2.058-4.201 2.168-13.787 5.414-20.72l3.882-5.293s8.978-7.001 17.736-5.015c4.296.96 6.175-6.44 4.918-13.827-1.313-7.746-6.078-15.493-15.167-13.626" fill="#13375b"/><path d="M2217.748 1860.466c.095 5.52-2.395 10.04-5.565 10.093-3.198.053-5.837-4.373-5.933-9.893-.081-5.52 2.422-10.027 5.593-10.093 3.17-.055 5.81 4.373 5.905 9.893" fill="#f7a491"/><path d="M2236.467 1873.216l17.367-.894s-.07 6.64-7.688 7.253c-9.292.761-9.68-6.359-9.68-6.359" fill="#fff"/><path d="M2198.914 1919.935c1.59-2.973 4.56-4.973 7.936-5.267 14.577-1.305 54.707-1.332 75.166 34.108 3.237 5.586 5.544 11.652 7.219 17.892l4.305 17.76-105.545-3.44.17-11.72a92.42 92.42 0 0110.75-49.333" fill="#3c8f7c"/><path d="M2449.64 1990.904l15.326-62.24a7.756 7.756 0 00-5.689-9.4c-4.16-1.027-8.381 1.52-9.41 5.68l-16.067 65.24 15.84.72" fill="#1a1a1a"/><path d="M2410.023 1989.11c4.347-2.707 7.862-4.934 10.225-6.374.182-.107 11.226-5.414 11.408-5.506 1.545-.575 2.863-1.027 3.181-1.027.834-.026 5.636-1.64 6.015-1.826.394-.174 2.363-.174 3.211-.188.834-.026 9.696-4.6 11.166-5.293 1.454-.692 4.105-3.266 4.105-3.266l5.787-3.307c4.242-2.427.41-5.974.41-5.974 1.999-1.147 2.56-2.48 2.211-3.813-.333-1.32-1.485-2.4-1.545-2.653-.046-.266.515-.733.515-.733 1.288-.694 1.333-2.693.924-3.707-.41-1-2.03-2.213-2.863-2.32-.818-.093-.955-.467-.955-.467.182-1.4-2.105-4.853-3.742-4.92-.833-.04-2.863.734-4.772 1.508-1.863.759-3.605 1.52-4 1.506-.757-.014-2.15-.2-3.075.24-.939.44-8.801 1.52-10.12 2.146-1.302.613-4.21 5.013-6.392 6.987-2.182 1.974-4.409 6.814-5.12 8.094-.289.492-1.713 1.345-3.349 2.186-.258.267-48.372 17.654-76.868 26.147l63.643 2.56" fill="#f7a491"/><path d="M2260.006 1983.079c-2.967-17.907-6.655-36.734-10.607-45.414-8.652-19.053-37.852-30.4-52.16-18.56-7.64 6.32-4.354 36.4 2.149 62.372l60.618 1.602" fill="#50bfa5"/><path d="M1835.827 1879.427s-35.774-.88-47.907 7.146c-12.147 8.04-10.667 88.014-10.667 88.014l11.787 2.24s4.28 55.04 13.427 57.906c9.133 2.867 69.186-15.56 81.666-31.04 12.48-15.493-26.426-129.586-26.426-129.586l-21.88 5.32" fill="#3c8f7c"/><path d="M1899.4 1816c3.107-9.667 5.2-38.853 5.88-48.76-.48-.72-3.08-4.973-2.813-13.28.2-5.867-3.907-15.587-.134-14.933 3.76.666 3.96 10.853 6.214 9.093 2.253-1.747 3.293-23.08 6.706-22.48 3.4.6 1.094 20.68 3.107 19.107 2.027-1.56 2.107-20.094 6.933-19.24 4.827.84-2.12 21.773.467 22.226 2.587.454 6.613-12.853 10.493-12.186 3.88.68-6.373 17.933-5.186 17.013 1.186-.933 9.453-7.973 10.826-6.4 1.56 1.787-17.586 21.947-17.64 27.253 1.587 13.44 4.76 37.787.427 53.094-5.293 18.72-18.893 60.32-18.893 60.32l-28.974-6.894s18.894-52.48 22.587-63.933" fill="#f7a491"/><path d="M1911.733 1752.067c1.427.64 2.6 1.626 3.64 2.746.107.227 3.734 3.64 2.8 9.187-.626-3.387-1.346-7.16-6.44-11.933" fill="#f48c7f"/><path d="M1726.453 1895.08s.734-4.653-3.133-11.853c-2.493-4.614-3.24-14.027-5.84-12-2.6 2.013 1.307 10.253-1.107 9.746-2.426-.506-11.706-17.16-14.053-15.32-2.36 1.827 7.4 16.987 5.24 16.534-2.173-.454-9.613-15.24-12.947-12.654-3.333 2.6 10.294 16.587 8.507 17.987-1.787 1.387-10.16-7.653-12.84-5.573-2.68 2.093 11.987 11.8 10.72 11.546-1.28-.266-10.373-2.613-10.787-.813-.466 2.053 18.52 8.04 20.68 12.253 2.16 4.227 34.814 46.334 44.134 46.347 9.333.027 51.226-28.333 54.266-37.547 3.04-9.226-.746-19-6.853-20.266-6.107-1.28-45.16 26.84-47.08 26.44-1.92-.4-28.907-24.827-28.907-24.827" fill="#f7a491"/><path d="M1716.747 1884.88c-.92 1.253-1.467 2.707-1.814 4.187.027.253-1.44 5 2.107 9.373-1.12-3.267-2.36-6.893-.293-13.56" fill="#f48c7f"/><path d="M1814.707 1953.213s37.613 29.907 41.773 36.014c3.107 4.56-7.227 56-7.227 56s-14.88.466-21.68-4.827c0 0 4.067-35.547 2.28-36.933-1.786-1.4-43.066-19.747-43.066-19.747l2.613-21.093 25.307-9.414" fill="#b75742"/><path d="M1886.867 1845.587s6.52 1.213 28.76 25.506l-25.867 52.614-23.907-43.734 21.014-34.386" fill="#9bc1f9"/><path d="M1844.907 1882.693s17-3.8 22.96-6.72c5.946-2.92 61.04 126.894 47.146 131.467-29.013 9.573-104.333 34.88-104.333 34.88s-2.173-7.533.573-21.213c4.734-23.707 3.16-76.627 2.174-85.867-.587-5.44-32.734 10.293-32.734 10.293l-12.653-41.026s36.68-12.494 48.987-16.454c3.44-1.093 27.88-5.36 27.88-5.36" fill="#9bc1f9"/><path d="M1907.773 1963.053c-6.88-21.413-52.44-82.986-52.84-83.573l7.44-5.08c1.667 2.44 38.787 54.64 46.067 77.293l-.667 11.36M1808.96 2002.8l-4.72-5.987c.32-.253 32.027-25.653 32.88-53.8.867-28.426-22.053-55.746-22.28-56.026l5.8-4.934c1.027 1.2 25.053 29.787 24.107 61.2-.974 31.707-34.36 58.414-35.787 59.547" fill="#3c8f7c"/><path d="M1836.773 1795.893s13.454-9.986 26.2 6.227c10.16 12.933 8.814 8.867 13.84 15.293 5.014 6.44 12.6 6.987 13.747 17.694 1.16 10.693-3.653 12.893-3.653 12.893s5.413 7.84 1.333 16.933c-4.067 9.094-15.72 17.8-26.267 17.734 0 0-14.72 10.266-30.853 7.906-16.12-2.36-10.653-2.96-17.08-2.266-6.413.693-24.72-6.24-23.24-19.374 0 0-11.933-11.426-2.773-22.8 9.16-11.36 14.12-19.28 18.573-33.706 4.453-14.427 22.68-19.094 30.173-16.534" fill="#1a1a1a"/><path d="M1854.773 1869.747s1.467 19 3.44 20.586c1.96 1.587 4.76 4.267 2.64 9.067-2.133 4.8-13.8 3.133-19.36 1.12-5.346-1.933-9.12-6.2-9.12-6.2l-.573-30.267 22.973 5.694" fill="#f7a491"/><path d="M1848.067 1878.413c-3.774-.893-10.414-2.666-16.187-10.133l-.08-4.227 22.973 5.694s.36 4.64.96 9.52c-3.106.2-5.853-.44-7.666-.854" fill="#f48c7f"/><path d="M1822.56 1847.453s-1.733-11.08-8.333-8.186c-6.6 2.906.413 19.146 6.026 17.973 5.6-1.16 2.307-9.787 2.307-9.787" fill="#f7a491"/><path d="M1843.173 1804.387s10.667-1.387 17.04 6.346c6.36 7.734 14.854 30.867 7.587 48.24-7.267 17.374-19.227 14.574-24.16 13.414-4.933-1.147-14.72-3.827-21.133-18.64-6.4-14.827-6.667-49.667 20.666-49.36M2061.32 1981.44l19.667 93.907-33.92-3.294-16.334-85.88 30.587-4.733" fill="#f7a491"/><path d="M2067.147 1984.2l-36.414 1.973s-2.706-25.146-3.333-37.173c-.76-14.587-.48-33.44 1.293-33.133 5.014.88 11.814 3.266 16.054 8.506 14.693 18.147 22.4 59.827 22.4 59.827" fill="#5184ce"/><path d="M2043.2 1945.707c.88 4.426 23.947 127.146 23.947 127.146-54.6 29.934-96.28 4.4-96.28 4.4s2.08-82.506-.707-93.96c-1.853-7.573-8.573-57.44-3.68-59.12 6.267-2.146 15.733-5.32 23.64-6.56 6.747-1.053 33.08-2.826 37.88-1.48 0 0 11.533 11.014 15.2 29.574" fill="#eafcfc"/><path d="M2023.64 1828.613s22.08-.333 20.253 17.96c0 0 16.427 6.387 5.48 21.187 0 0 11.68 15.933-8.653 31.213 0 0-5.4 21.387-28.427 11.16 0 0-6.813 5.094-16.24-1.706-9.426-6.8-10.653-10.827-10.653-10.827s-20.84-3.96-17.973-23.12c0 0-10.947-9.333 5.586-21.053 0 0-.306-26.294 22.04-22.747 0 0 13.04-20.067 28.587-2.067" fill="#13375b"/><path d="M1989.053 1871.667c-.6 4.666-3.64 8.12-6.8 7.72-3.146-.414-5.226-4.52-4.626-9.187.6-4.667 3.64-8.12 6.8-7.707 3.146.4 5.213 4.507 4.626 9.174M2040.893 1885.92c-1.933 4.28-5.853 6.693-8.76 5.387-2.893-1.307-3.666-5.84-1.733-10.134 1.933-4.28 5.853-6.693 8.747-5.386 2.906 1.306 3.68 5.84 1.746 10.133M2014.28 1900.133c-.027.334 1.853 12.347 2.84 18.707a5.027 5.027 0 01-3.227 5.493c-6.013 2.227-17.72 5.08-25.093-2.666a3.338 3.338 0 01-.88-2.654l3.053-28.106 23.307 9.226" fill="#f7a491"/><path d="M2016.093 1912.24c-6.373 2.653-24.826.36-26.213-11.267l1.093-10.066 23.307 9.226c-.013.16 1.253 8.44 1.813 12.107" fill="#f48c7f"/><path d="M2020.24 1842.88s-9.707-2.107-19 3.653c-9.28 5.774-24.347 28.44-11.747 48.134 12.6 19.706 33.987 10.066 41.52-5.547 7.534-15.6 10.747-38.84-10.773-46.24" fill="#f7a491"/><path d="M2014.24 1891.64l-12.933-.747s.013 4.934 5.693 5.414c6.92.6 7.24-4.667 7.24-4.667" fill="#fff"/><path d="M2036.84 1853.933s-9.413-5.04-16.427-4.386c-7.026.666-29.88 17.28-33.2 14.506-3.32-2.786.96-17.48 3.614-19.613 2.653-2.133 13.24-8.547 14.146-8.667.907-.12 10.52.054 12.16.48 1.654.427 13.547 6.094 13.547 6.094l6.16 11.586" fill="#13375b"/><path d="M1900.027 2083.987c.2-.56.68-.587 1.186-.614 4.814-.306 9.627-.666 14.387-1.533.8-.147 1.573-.36 2.307-.667 1.306-.573 2.626-.6 3.973-.28.733.187 1.48.2 2.227.174 2.426-.094 9.28-2.667 12.813-3.4.8-.16 1.427-.8 1.6-1.6 3.067-13.947 9.6-45.214 10.24-55.454.84-13.08 8-72.2 8-72.2l24.32 5.96s-8.56 43.747-10.64 64.894c-1.6 16.32-16.773 51.346-21.547 61.426-2.266 7.467-7.84 7.84-9.133 8.04a3.078 3.078 0 00-1.88 1.08 13.189 13.189 0 01-2.96 2.747c-.84.56-1.467 1.293-2.013 2.133-.974 1.52-1.84 3.12-2.694 4.707-.573 1.067-1.186 1.413-2.093 1.2-.96-.24-1.44-.933-1.453-2.093-.027-1.72.466-3.307 1.293-4.8.76-1.4.68-2.2-.307-3.427-.56-.72-1.146-1.4-1.88-1.96-.733-.573-1.506-.987-2.493-.827-1.72.494-3.453.894-5.227 1.147l-1.44.347-.8.2c-.12.026-2.68.386-3.546.426-.707.014-1.854.094-2.827.174-.88.08-2.747-.334-2.813-.334a3.343 3.343 0 01-2.28-.826c-.267-.227-.534-.48-.414-.88.12-.374.4-.534.774-.614.573-.133 3.546-.586 3.52-.706-.894.026-3.68.04-4.574.053-1.2 0-2.253-.4-3.106-1.253-.334-.347-.72-.68-.52-1.24" fill="#f7a491"/><path d="M1940.533 1983.987l35.227 17.04s5.533-25.88 9.667-41.88c3.546-13.747-14.014-38.227-19.854-34.867-13.093 7.48-25.04 59.707-25.04 59.707" fill="#5184ce"/><path d="M2178.673 1938.398l313.336 13.333s-27.336 91.44-27.993 96c-.673 4.56-103.502 60.668-129.34 60.001-25.837-.68-86.089-22.294-99.069-26.122-12.964-3.813-46.645-30.078-44.626-46.252 2.033-16.16-12.308-96.96-12.308-96.96" fill="#f7cc7f"/><path d="M2268.825 1984.79h-84.072c-2.063 0-3.764-1.693-3.764-3.76v-7.267a3.769 3.769 0 013.764-3.76h84.072a3.76 3.76 0 013.764 3.76v7.266a3.77 3.77 0 01-3.764 3.76" fill="#eab054"/><path d="M2305.197 1810.204l42.46 17.466-2.42-8.733-15.829-8.733s-12.977-2.52-14.244-3.187c-1.253-.68-9.967 3.187-9.967 3.187" fill="#f7cc7f"/><path d="M2508.828 1942.478v-.014.014m.03-.054c0-.012 0-.012.016-.012-.015 0-.015 0-.015.012" fill="#d9d6c8"/><path d="M2492.4 1951.012c-.278 0-.54 0-.818-.014l-25.305-1.013c-.03-.052-.062-.08-.062-.106-.046-.267.51-.734.51-.734 1.295-.693 1.34-2.693.94-3.706-.416-1-2.051-2.214-2.868-2.32-.833-.093-.972-.468-.972-.468.108-.786-.57-2.227-1.48-3.346l2.621-10.64a7.776 7.776 0 00-7.556-9.626c-3.5 0-6.677 2.36-7.54 5.906l-4.087 16.6c-2.714.506-6.754 1.16-7.664 1.587-1.033.494-3.068 3.373-4.965 5.52l-111.243-4.48a166.169 166.169 0 00-7.664-13.054l15.976-24.28-11.165-.946-10.84 16.48c-2.19-2.987-3.793-4.947-4.349-5.627-.077-.093-.138-.187-.216-.267-.478-.52-1.449-1.04-2.76-1.559l6.585-10.028 200.126 17.134c5.921 8.654 4.518 15.493 1.264 20.387-.015 0-.015 0-.015.013-.016.013-.016.027-.016.04 0 0 0 .013-.015.013-.016.014-.016.04-.03.054-3.702 5.467-9.932 8.48-16.393 8.48" fill="#d4e9fa"/><path d="M2321.902 1944.175l-6.282-.254a363.174 363.174 0 00-3.618-9.4l2.237-3.4a169.523 169.523 0 017.663 13.054m-14.487-20.6c-1.481-3.32-2.735-5.773-3.547-6.827.556.68 2.151 2.64 4.345 5.626l-.798 1.201" fill="#859dbc"/><path d="M2315.621 1943.921l-37.746-1.505 4.816.186 5.768-8.787c1.392.347 2.784.533 4.19.533.867 0 1.734-.067 2.6-.213 2.26-.4 1.308-5.32-.156-10.4l5.797-8.814c1.306.521 2.273 1.041 2.756 1.561.07.08.142.173.213.267.81 1.053 2.074 3.506 3.565 6.826l-12.842 19.507 11.493.466 5.938-9.027c1.193 3.013 2.415 6.2 3.608 9.4" fill="#8ba6cc"/><path d="M2292.655 1934.348c-1.41 0-2.805-.188-4.187-.534l6.625-10.08c1.466 5.08 2.425 10 .155 10.4-.86.146-1.733.214-2.593.214" fill="#d9c6cf"/><path d="M2191.599 1937.986c-8.998-3.134-15.433-11.894-15.433-22.147v-22.188l31.423 2.694c.014.213.014.32.014.347l-2.786 18.373c-.57.174-1.142.414-1.685.694a20.022 20.022 0 00-5.906 3.347c-2.758 2.28-4.095 7.652-4.36 14.827a97.78 97.78 0 00-1.267 4.053m49.544-25.694c-.585-2.693-1.226-5.92-1.727-9.28a124.12 124.12 0 01-.544-3.987l31.479 2.694c-.864 2.907-1.727 5.32-2.48 6.773a65.494 65.494 0 00-3.161-.067c-5.223 0-15.377.493-23.567 3.867" fill="#d4e9fa"/><path d="M2261.898 1927.056c-6.292-4.226-12.945-7.106-19.473-9.053-.306-1.253-.78-3.267-1.309-5.707 8.213-3.372 18.36-3.867 23.58-3.867 1.53 0 2.644.04 3.16.067-.015.014-.015.027-.015.04-.974 1.827-.515 4.761.989 7.987l-6.932 10.533" fill="#8ba6cc"/><path d="M2268.83 1916.522c-1.502-3.227-1.95-6.16-.982-7.986 0-.014 0-.027.014-.04.757-1.454 1.613-3.867 2.482-6.775l16.09 1.375-8.305-.707-9.3 14.133M2242.445 1917.998c-9.822-2.933-19.315-3.72-26.703-3.72-.798 0-1.596 0-2.338.028-.44-.028-.88-.028-1.307-.028-1.459 0-2.89.094-4.279.307-.33.026-.647.054-.963.08a9.53 9.53 0 00-2.036.4l2.793-18.373.096-.334 13.345 1.147c5.764 3.346 12.367 5.293 18.366 5.506.509 3.36 1.142 6.587 1.72 9.28a220.88 220.88 0 001.306 5.707" fill="#d9c6cf"/><path d="M2239.424 1903.01c-6.004-.214-12.598-2.16-18.355-5.507l17.806 1.52c.165 1.333.343 2.666.55 3.986" fill="#d8b3b9"/><path d="M2207.607 1896.69c0-.026 0-.133-.013-.347l.121.014-.108.333" fill="#7e9bba"/><path d="M2277.87 1942.417l-27.026-1.094a47.383 47.383 0 00-1.454-3.653c-6.023-13.266-22.01-22.8-35.999-23.36.741-.027 1.538-.027 2.334-.027 7.393 0 16.882.787 26.706 3.72 6.526 1.947 13.178 4.827 19.467 9.053l-9.433 14.334 25.406 1.027m-85.05-4.04c-.42-.12-.825-.24-1.23-.387.391-1.36.81-2.72 1.272-4.054a77.244 77.244 0 00-.042 4.441m10.3-22.614a9.24 9.24 0 011.69-.693 9.379 9.379 0 012.026-.4c.308-.026.63-.054.965-.08-1.621.24-3.187.627-4.682 1.173" fill="#8ebec7"/><path d="M2445.782 1941.545l4.085-16.601a7.773 7.773 0 019.41-5.68 7.756 7.756 0 015.689 9.4l-2.618 10.64c-.696-.867-1.543-1.546-2.254-1.573h-.06c-.863 0-2.845.747-4.705 1.507-1.861.746-3.601 1.507-3.994 1.507-.348-.014-.863-.053-1.377-.053-.605 0-1.226.053-1.71.292-.287.134-1.24.334-2.466.56" fill="#818fa0"/><path d="M2466.272 1949.985l-33.114-1.333c1.893-2.147 3.922-5.027 4.966-5.52.909-.427 4.952-1.08 7.662-1.587 1.226-.227 2.165-.427 2.453-.56.484-.24 1.12-.294 1.71-.294.516 0 1.03.04 1.379.054h.015c.378 0 2.135-.76 3.982-1.506 1.862-.76 3.846-1.507 4.709-1.507h.045c.727.026 1.56.706 2.257 1.573.923 1.12 1.605 2.56 1.499 3.347 0 0 .136.374.953.466.833.108 2.453 1.32 2.877 2.321.394 1.013.349 3.012-.938 3.705 0 0-.56.467-.515.735 0 .026.03.053.06.106" fill="#d9c6cf"/><path d="M2250.856 1941.32l-52.874-2.12a22.546 22.546 0 01-5.151-.827 78.104 78.104 0 01.041-4.44c.263-7.174 1.602-12.547 4.364-14.827 1.754-1.454 3.742-2.56 5.896-3.347a23.52 23.52 0 014.682-1.174 28.456 28.456 0 014.28-.306c.428 0 .87 0 1.312.027 13.989.56 29.966 10.093 36 23.36a47.595 47.595 0 011.45 3.653" fill="#96d1d7"/><path d="M2507.592 1922.029l-200.115-17.133-13.923-1.186c.17-.84.339-1.694.508-2.548l212.345 19.24 1.185 1.627m-237.252-20.307l-31.476-2.692c-.123-.974-.215-1.948-.307-2.894l32.537 2.946c-.246.908-.508 1.8-.754 2.64" fill="#d0e6fa"/><path d="M2293.555 1903.708l-7.121-.613-16.087-1.374c.254-.839.507-1.733.76-2.639l22.955 2.08c-.169.853-.338 1.706-.507 2.546" fill="#d4ccda"/><path d="M2207.585 1896.347l-31.42-2.694v-3.185l30.987 2.813c.325 1.466.406 2.546.433 3.066" fill="#d0e6fa"/><path d="M2221.06 1897.504l-13.354-1.146 1.022-2.933 7.372.666a38.474 38.474 0 004.96 3.413" fill="#d4ccda"/><path d="M2238.86 1899.03l-17.815-1.52a39.408 39.408 0 01-4.959-3.415l22.471 2.041c.083.947.179 1.92.302 2.893" fill="#d3bdc8"/><path d="M2207.699 1896.362l-.122-.014a18.595 18.595 0 00-.434-3.066l1.572.146-1.016 2.934" fill="#8fabc9"/><path d="M2507.592 1922.029l-200.115-17.133 200.115 17.133m-237.252-20.307l-31.476-2.692 31.476 2.692" fill="#cae1f9"/><path d="M2300.889 1914.922c-2.251-.866-5.479-1.72-9.074-2.493 0-.012.014-.04.014-.052.481-2.428 1.076-5.428 1.727-8.668l13.915 1.188-6.582 10.025" fill="#ddedfb"/><path d="M2282.69 1942.602l-4.813-.187a64.785 64.785 0 00-10.22-10.999c.071-.187.1-.28.1-.28l-.594-.133a67.476 67.476 0 00-5.265-3.947l6.931-10.533c3.176 6.88 11.01 15.146 19.635 17.293l-5.773 8.786m12.394-18.866c-1.44-5.027-3.402-10.2-3.261-11.307 3.585.774 6.818 1.626 9.062 2.493l-5.801 8.814" fill="#a2b8d6"/><path d="M2288.452 1933.816c-8.618-2.146-16.446-10.413-19.628-17.292l9.293-14.134 8.307.707 7.125.614c-.634 3.238-1.24 6.239-1.718 8.666 0 .013-.014.04-.014.053-.127 1.107 1.83 6.28 3.266 11.307l-6.631 10.079" fill="#e1d1d9"/><path d="M2267.667 1931.412c-.153-.134-.334-.268-.487-.414l.585.134s-.028.093-.098.28" fill="#e0cad3"/><path d="M2277.87 1942.417l-25.405-1.027 9.433-14.334a68.56 68.56 0 015.268 3.947c.154.146.335.28.49.413a64.438 64.438 0 0110.215 11.001" fill="#a5cbd2"/><path d="M2307.471 1904.897l-13.915-1.188 13.915 1.188" fill="#d9ebfb"/><path d="M2314.236 1931.123a182.614 182.614 0 00-6.033-8.746l10.837-16.48 11.164.946-15.968 24.28" fill="#ddedfb"/><path d="M2312.001 1934.522c-1.632-4.106-3.208-7.892-4.585-10.945l.795-1.2a181.2 181.2 0 016.02 8.746l-2.23 3.4" fill="#9db1c9"/><path d="M2306.085 1943.547l-11.504-.467 12.851-19.507c1.362 3.054 2.936 6.84 4.582 10.947l-5.93 9.027" fill="#a2b8d6"/><path d="M1727.16 1939.587l378.587 3.746 3.386 119.987s-44.226 64.333-49.56 63.653c-5.333-.666-118.413-18.853-128.56-18.186-10.16.68-98.786-42.827-102.973-41.96-4.187.866-31.8-13.947-31.8-13.947l-45.013-31.8-44.627-45.933 20.56-35.56" fill="#f7cc7f"/><path d="M1803.8 1977.387h-84.08a3.764 3.764 0 01-3.76-3.76v-7.254c0-2.08 1.693-3.76 3.76-3.76h84.08c2.067 0 3.76 1.68 3.76 3.76v7.254c0 2.08-1.693 3.76-3.76 3.76" fill="#eab054"/><path d="M1859.8 1852.56l-13.093 2.533s1.253 4.907 7.053 3.974c7.067-1.147 6.04-6.507 6.04-6.507" fill="#fff"/><path d="M1819.227 1840.013s29.573-13.546 32.493-34.773c2.933-21.227-24.307-.947-24.307-.947l-11.013 10.56 2.827 25.16" fill="#1a1a1a"/><path d="M2186.924 1935.718s5.505 3.787 12.468 3.534c0 0-9.27 2.827-9.54 2.6-.257-.228-4.925-3.973-4.858-4.053l1.93-2.08M2215.479 1798.677l37.007 2.347s-6.066-10.04-8.623-10.04h-19.512l-8.872 7.693" fill="#f7cc7f"/><path d="M4340.361 2357.506H349.654c-8.366 0-15.148-6.774-15.148-15.146 0-8.36 6.782-15.148 15.148-15.148h3990.707c8.364 0 15.151 6.787 15.151 15.148 0 8.372-6.787 15.146-15.15 15.146" fill="#183658"/></svg>