<svg xmlns="http://www.w3.org/2000/svg" height="2666.667" width="4000"><path d="M3999.998 2666.667H0V-.007h3999.998v2666.674" fill="#fff"/><path d="M684.265 2376.053s-335.128-232.187-93.542-726.256c159.731-326.666 335.574-289.613 306.76-931.577-24.657-549.335 870.934-596.8 1153.986-437.449 283.067 159.362 256.575 281.71 841.12 220.213 406.82-42.795 612.562 547.774 460.535 817.557-215.702 382.777 448.71 656.992 193.52 1057.512H684.264" fill="#ebf3fa"/><path d="M2567.692 764.367s32.491-56.953 110.185-50.625c0 0 112.79-94.932 233.082-12.657 0 0 127.872-20.393 222.561 17.651 63.147 25.357 83.991 51.958 83.991 51.958l-649.819-6.327" fill="#f8fcff"/><path d="M1725.68 1027.8h-13.507c-44.72-68.373-106.48-139.253-109.04-159.8-.026-.253-.053-.493-.08-.733-1.106-10.147 7.094-17.4 15.707-17.4 3.733 0 7.547 1.373 10.707 4.466 51.426 50.294 81.52 126.627 96.213 173.467M1698.507 1027.8l-39.067-.013c-68.293-55.24-137.613-103.827-146-124.054-4.64-11.173-3.827-18.653-1-23.64 2.96-5.24 8.507-8.106 14.227-8.106 2.653 0 5.333.626 7.826 1.906 69.2 35.854 126.2 101.267 164.014 153.907M2857.014 1622.642v-43.826c21.57-28 47.81-55.627 78.157-75.68 2.762-1.826 5.67-2.626 8.523-2.626 9.703 0 18.298 9.493 14.973 20.32-.054.225-.145.467-.218.707-5.106 15.718-53.28 55.76-101.435 101.105M2857.036 1676.358V1640c45.183-39.387 104.124-80.88 167.72-99.693a17.065 17.065 0 014.804-.693c6.879 0 13.384 4.172 15.665 10.947 1.832 5.44 1.196 12.932-5.44 23.025-12.899 19.534-100.216 57.68-182.749 102.773" fill="#d8e8fd"/><path d="M3290.96 1734.548c-32.09-91.293-187.13-50.613-187.13-50.613s-94.738 170.866-125.522 177.04c-30.744 6.16 52.496-161.907 52.496-161.907-60.59-1.4-208.496 83.64-208.496 83.64s23.71 189.466-7.625 187.866c-31.334-1.586-12.415-168.84-12.415-168.84-56.961 21.761-106.277 93.682-106.277 93.682-59.794 115.625 91.761 186.413 91.761 186.413s6.81 65.839-28.378 144.532c0 0-8.175 14.652-15.78 39.093l15.882-1.174c.978-4.346 2.1-8.572 3.404-12.64v-.065l.082-.187c.897-2.52 2.202-6.135 3.832-10.52l.02-.026v-.015c4.16-9.853 6.912-17.106 8.604-22.32l.02-.052c12.335-30.868 30.418-71.228 43.771-80.402 0 0-1.937-2.346-3.935-7.04 1.264 2.256 2.569 4.588 3.935 7.04 31.457 56.215 168.008 55.921 242.562 34.827 74.534-21.106 39.979-40.025-3.323-71.666-43.302-31.652-128.03-16.228-154.246-27.96-26.238-11.72 9.642-28.026 60.385-27.853 50.743.16 79.672 48.76 161.75 50.533 82.076 1.76 132.921-156.132 132.921-156.132-55.004 21.612-158.202-2.014-163.522-21.133-5.321-19.12 144.277-28.175 167.13-35.722 22.854-7.533 60.182-57.105 28.093-148.4M1139.25 987.413c30.883-87.866 180.117-48.72 180.117-48.72s91.18 164.467 120.793 170.4c29.613 5.934-50.507-155.826-50.507-155.826 58.32-1.347 200.654 80.493 200.654 80.493s-22.814 182.36 7.346 180.827c30.16-1.534 11.96-162.507 11.96-162.507 54.8 20.933 102.294 90.16 102.294 90.16 57.533 111.28-88.334 179.427-88.334 179.427s-6.533 63.36 27.32 139.106c0 0 7.867 14.094 15.187 37.627l-15.28-1.133a149.976 149.976 0 00-3.267-12.16l-.026-.067-.054-.173c-.88-2.44-2.133-5.907-3.706-10.134l-.014-.026v-.014c-4-9.48-6.653-16.466-8.293-21.48l-.013-.053c-11.867-29.707-29.267-68.56-42.12-77.387 0 0 1.866-2.253 3.786-6.76-1.213 2.147-2.466 4.4-3.786 6.76-30.28 54.107-161.72 53.827-233.467 33.52-71.743-20.306-38.477-38.52 3.2-68.973 41.68-30.453 123.227-15.613 148.467-26.907 25.24-11.293-9.28-26.973-58.12-26.813-48.84.16-76.694 46.933-155.699 48.627-79 1.706-127.91-150.254-127.91-150.254 52.931 20.787 152.26-1.946 157.371-20.346 5.111-18.4-138.852-27.12-160.854-34.374-22.002-7.253-57.927-54.973-27.044-142.84" fill="#dfebf9"/><path d="M2857.02 2371.494h-946.707V779.964h946.707v1591.53" fill="#cde0fb"/><path d="M2936.217 979.082h-79.206v-3.655h79.206v3.655M2936.217 1366.47h-79.206v-3.653h79.206v3.653" fill="#163560"/><path d="M3020.121 1464.279h-53.779c-18.813 0-34.197-15.388-34.197-34.214V943.13c0-18.82 15.384-34.216 34.197-34.216h53.78c18.831 0 34.215 15.396 34.215 34.216v486.935c0 18.826-15.384 34.214-34.216 34.214" fill="#f78248"/><path d="M2973.756 972.185h8.262v19.542h22.438v-19.542h8.262v47.007h-8.262V999.38h-22.438v19.812h-8.262v-47.007M3009.139 1087.933c0-9.136-6.647-16.722-15.978-16.722-9.33 0-15.848 7.454-15.848 16.722 0 9.131 6.647 16.722 15.978 16.722s15.848-7.46 15.848-16.722zm-40.49 0c0-13.234 10.2-24.31 24.642-24.31 14.441 0 24.513 10.947 24.513 24.31 0 13.227-10.202 24.306-24.643 24.306-14.44 0-24.512-10.942-24.512-24.306M2989.075 1164.316h-14.895v-7.655h38.125v7.655h-14.914v39.352h-8.316v-39.352M2976.796 1248.897h34.85v7.386h-26.59v12.221h23.56v7.388h-23.56v12.626h26.923v7.386h-35.183v-47.007M2978.5 1341.134h8.26v39.492h24.72v7.52h-32.98v-47.012" fill="#fff"/><path d="M2759.546 1186.805h-181.3V924.174h181.3v262.63" fill="#afcdfb"/><path d="M2661.73 924.192s1.929 87.542-83.504 155.476V924.192h83.505M2679.642 924.177s-1.845 87.55 79.926 155.482V924.177h-79.926" fill="#d9eaff"/><path d="M2673.439 1186.807h-4.543V924.175h4.543v262.632" fill="#fff"/><path d="M2759.568 1005.57H2578.25v-3.654h181.32v3.655M2759.568 1100.773H2578.25v-3.654h181.32v3.654" fill="#fff"/><path d="M2582.375 1182.676h173.044V928.315h-173.044zm181.3 8.262h-189.574v-270.88h189.575v270.88" fill="#fff"/><path d="M2474.34 1186.802h-181.325V924.17h181.325v262.632" fill="#afcdfb"/><path d="M2376.512 924.18s1.94 87.55-83.494 155.49V924.18h83.494M2394.417 924.17s-1.852 87.558 79.923 155.488V924.17h-79.923" fill="#d9eaff"/><path d="M2388.21 1186.811h-4.527v-262.63h4.528v262.63" fill="#fff"/><path d="M2474.34 1005.565h-181.325v-3.643h181.325v3.643M2474.34 1100.774h-181.325v-3.659h181.325v3.659" fill="#fff"/><path d="M2297.146 1182.672h173.052v-254.37h-173.052zm181.323 8.262h-189.58V920.045h189.58v270.89" fill="#fff"/><path d="M2189.112 1186.8h-181.307V924.174h181.307V1186.8" fill="#afcdfb"/><path d="M2091.293 924.173s1.934 87.56-83.493 155.494V924.173h83.493M2109.189 924.188s-1.853 87.55 79.923 155.48v-155.48h-79.923" fill="#d9eaff"/><path d="M2103 1186.8h-4.547V924.173H2103V1186.8" fill="#fff"/><path d="M2189.112 1005.588h-181.32v-3.653h181.32v3.653M2189.112 1100.78h-181.32v-3.653h181.32v3.653" fill="#fff"/><path d="M2011.929 1182.677h173.05V928.315h-173.05zm181.312 8.261h-189.574V920.053h189.574v270.885" fill="#fff"/><path d="M2759.546 1581.173h-181.3v-262.63h181.3v262.63" fill="#afcdfb"/><path d="M2661.73 1318.548s1.929 87.55-83.504 155.483v-155.483h83.505M2679.642 1318.54s-1.845 87.55 79.926 155.484V1318.54h-79.926" fill="#d9eaff"/><path d="M2673.439 1581.173h-4.543v-262.628h4.543v262.628" fill="#fff"/><path d="M2759.568 1399.942H2578.25v-3.665h181.32v3.665M2759.568 1495.144H2578.25v-3.654h181.32v3.654" fill="#fff"/><path d="M2582.375 1577.043h173.044v-254.367h-173.044zm181.3 8.265h-189.574v-270.893h189.575v270.893" fill="#fff"/><path d="M2474.34 1581.17h-181.325v-262.63h181.325v262.63" fill="#afcdfb"/><path d="M2376.512 1318.544s1.94 87.55-83.494 155.483v-155.483h83.494M2394.417 1318.54s-1.852 87.55 79.923 155.483V1318.54h-79.923" fill="#d9eaff"/><path d="M2388.21 1581.175h-4.527v-262.63h4.528v262.63" fill="#fff"/><path d="M2474.34 1399.943h-181.325v-3.666h181.325v3.666M2474.34 1495.143h-181.325v-3.653h181.325v3.653" fill="#fff"/><path d="M2297.146 1577.039h173.052v-254.366h-173.052zm181.323 8.267h-189.58v-270.894h189.58v270.894" fill="#fff"/><path d="M2189.112 1581.17h-181.307v-262.633h181.307v262.634" fill="#afcdfb"/><path d="M2091.293 1318.547s1.934 87.546-83.493 155.48v-155.48h83.493M2109.189 1318.55s-1.853 87.548 79.923 155.48v-155.48h-79.923" fill="#d9eaff"/><path d="M2103 1581.173h-4.547v-262.626H2103v262.626" fill="#fff"/><path d="M2189.112 1399.951h-181.32v-3.666h181.32v3.666M2189.112 1495.15h-181.32v-3.652h181.32v3.653" fill="#fff"/><path d="M2011.929 1577.04h173.05v-254.366h-173.05zm181.312 8.266h-189.574v-270.9h189.574v270.9" fill="#fff"/><path d="M2474.34 1975.532h-181.325v-262.628h181.325v262.628" fill="#afcdfb"/><path d="M2376.512 1712.907s1.94 87.546-83.494 155.48v-155.48h83.494M2394.417 1712.904s-1.852 87.546 79.923 155.48v-155.48h-79.923" fill="#d9eaff"/><path d="M2388.21 1975.535h-4.527v-262.627h4.528v262.627" fill="#fff"/><path d="M2474.34 1794.304h-181.325v-3.654h181.325v3.654M2474.34 1889.505h-181.325v-3.653h181.325v3.653" fill="#fff"/><path d="M2297.146 1971.4h173.052v-254.361h-173.052zm181.323 8.265h-189.58v-270.893h189.58v270.893" fill="#fff"/><path d="M2189.112 1975.532h-181.307v-262.628h181.307v262.628" fill="#afcdfb"/><path d="M2091.293 1712.907s1.934 87.546-83.493 155.48v-155.48h83.493M2109.189 1712.911s-1.853 87.546 79.923 155.478v-155.478h-79.923" fill="#d9eaff"/><path d="M2098.453 1975.533H2103v-262.626h-4.547z" fill="#fff"/><path d="M2189.112 1794.31h-181.32v-3.653h181.32v3.653M2189.112 1889.51h-181.32v-3.654h181.32v3.653" fill="#fff"/><path d="M2011.929 1971.4h173.05v-254.36h-173.05v254.36m181.312 8.267h-189.574v-270.894h189.574v270.894" fill="#fff"/><path d="M2872.495 2371.44h-972.807v-217.626h972.807v217.625" fill="#afcdfb"/><path d="M2216.765 1098.915l-.408 1192.7c-.014 39.187-31.783 70.933-70.95 70.92l-623.487-.214c-39.195-.013-70.937-31.786-70.923-70.959l.408-1192.72c.014-39.167 31.783-70.909 70.978-70.909l623.472.218c39.181.013 70.923 31.783 70.91 70.964" fill="#739af0"/><path d="M1522.372 1036.627c-34.19-.013-62.033 27.815-62.046 62.02l-.41 1192.712c-.014 34.214 27.787 62.055 62.006 62.067l623.5.213c34.19.014 62.032-27.813 62.046-62.026l.41-1192.707c.013-34.205-27.801-62.047-62.006-62.06zm623.036 1334.812l-623.486-.213c-44.023-.014-79.839-35.84-79.825-79.867l.41-1192.712c.013-44.037 35.843-79.84 79.88-79.825l623.485.218c44.022.014 79.839 35.844 79.825 79.866l-.41 1192.72c-.013 44.027-35.857 79.84-79.88 79.813" fill="#163560"/><path d="M2149.24 1789.053v441.4c0 29.28-23.733 53-53 53h-513.427c-29.266 0-52.986-23.72-52.986-53v-441.4c0-29.28 23.72-53 52.986-53h513.427c3.827 0 7.573.414 11.173 1.187 23.907 5.12 41.827 26.373 41.827 51.813M2113.227 1691.627h-547.4c-19.88 0-36.014-16.12-36.014-36.014v-180.72c0-19.88 16.134-36 36.014-36h547.4c19.893 0 36.013 16.12 36.013 36v180.72c0 19.894-16.12 36.014-36.013 36.014" fill="#ebf2ff"/><path d="M1901.467 1537.867H1752a3.34 3.34 0 01-3.347-3.347 3.349 3.349 0 013.347-3.347h149.467a3.357 3.357 0 013.346 3.347 3.349 3.349 0 01-3.346 3.347M2001.453 1562.04H1752a3.34 3.34 0 110-6.68h249.453a3.34 3.34 0 110 6.68" fill="#2b478b"/><path d="M1715.653 1642.667H1572.72v-142.934h142.933v142.934" fill="#c2cfff"/><path d="M1599.227 1605.227l31.213-56.28 22.96 31.306 11.453-12.533 24.294 37.507h-89.92M1645.32 1540.867a8.075 8.075 0 018.08-8.08c4.453 0 8.067 3.613 8.067 8.08 0 4.453-3.614 8.08-8.067 8.08-4.467 0-8.08-3.627-8.08-8.08" fill="#aabdf2"/><path d="M1996.76 1514.373h-245.2a3.335 3.335 0 01-3.333-3.333v-7.973a3.335 3.335 0 013.333-3.334h245.2a3.337 3.337 0 013.347 3.334v7.973a3.337 3.337 0 01-3.347 3.333" fill="#2b478b"/><path d="M1784.84 1602.64l20.587 2.973-14.88 14.534 3.533 20.506-18.427-9.666-18.4 9.693 3.494-20.507-14.907-14.506 20.587-3.014 9.186-18.653 9.227 18.64M1856.133 1602.64l20.6 2.973-14.893 14.534 3.547 20.506-18.427-9.666-18.4 9.693 3.493-20.507-14.906-14.506 20.573-3.014 9.2-18.653 9.213 18.64M1927.44 1602.64l20.587 2.973-14.88 14.534 3.546 20.506-18.426-9.666-18.4 9.693 3.493-20.507-14.907-14.506 20.574-3.014 9.186-18.653 9.227 18.64M1998.747 1602.64l20.586 2.973-14.88 14.534 3.534 20.506-18.414-9.666-18.413 9.693 3.507-20.507-14.92-14.506 20.586-3.014 9.187-18.653 9.227 18.64M2070.053 1602.64l20.587 2.973-14.88 14.534 3.533 20.506-18.413-9.666-18.413 9.693 3.506-20.507-14.92-14.506 20.587-3.014 9.187-18.653 9.226 18.64" fill="#f78248"/><path d="M2113.227 1398.773h-547.4c-19.88 0-36.014-16.12-36.014-36.013v-180.72c0-19.88 16.134-36.013 36.014-36.013h547.4c19.893 0 36.013 16.133 36.013 36.013v180.72c0 19.893-16.12 36.013-36.013 36.013" fill="#ebf2ff"/><path d="M1901.467 1245.013H1752a3.349 3.349 0 01-3.347-3.346 3.349 3.349 0 013.347-3.347h149.467a3.357 3.357 0 013.346 3.347 3.357 3.357 0 01-3.346 3.346M2001.453 1269.187H1752a3.34 3.34 0 110-6.68h249.453a3.34 3.34 0 110 6.68" fill="#2b478b"/><path d="M1715.653 1349.8H1572.72v-142.92h142.933v142.92" fill="#c2cfff"/><path d="M1599.227 1312.36l31.213-56.28 22.96 31.32 11.453-12.533 24.294 37.493h-89.92M1645.32 1248.013a8.075 8.075 0 018.08-8.08c4.453 0 8.067 3.614 8.067 8.08a8.069 8.069 0 01-8.067 8.067c-4.467 0-8.08-3.613-8.08-8.067" fill="#aabdf2"/><path d="M1996.76 1221.52h-245.2a3.337 3.337 0 01-3.333-3.347v-7.96a3.335 3.335 0 013.333-3.333h245.2a3.337 3.337 0 013.347 3.333v7.96a3.34 3.34 0 01-3.347 3.347" fill="#2b478b"/><path d="M1784.84 1309.787l20.587 2.973-14.88 14.533 3.533 20.494-18.427-9.654-18.4 9.694 3.494-20.507-14.907-14.507 20.587-3.013 9.186-18.653 9.227 18.64M1856.133 1309.787l20.6 2.973-14.893 14.533 3.547 20.494-18.427-9.654-18.4 9.694 3.493-20.507-14.906-14.507 20.573-3.013 9.2-18.653 9.213 18.64M1927.44 1309.787l20.587 2.973-14.88 14.533 3.546 20.494-18.426-9.654-18.4 9.694 3.493-20.507-14.907-14.507 20.574-3.013 9.186-18.653 9.227 18.64M1998.747 1309.787l20.586 2.973-14.88 14.533 3.534 20.494-18.414-9.654-18.413 9.694 3.507-20.507-14.92-14.507 20.586-3.013 9.187-18.653 9.227 18.64M2070.053 1309.787l20.587 2.973-14.88 14.533 3.533 20.494-18.413-9.654-18.413 9.694 3.506-20.507-14.92-14.507 20.587-3.013 9.187-18.653 9.226 18.64" fill="#f78248"/><path d="M1746.813 2090.52c-45.786-.973-83.466-34.867-90.333-78.96h31.08a62.807 62.807 0 01-1.68-14.52h-30.533c0-50.96 40.76-92.4 91.466-93.493v30.533c-33.826 1.093-60.933 28.867-60.933 62.96 0 5 .573 9.853 1.68 14.52 6.413 27.147 30.373 47.493 59.253 48.44.68.013 1.36.027 2.054.027 4.266 0 8.426-.427 12.466-1.24 24.094-4.84 43.214-23.414 48.84-47.227a63.542 63.542 0 001.68-14.52c0-30.52-21.72-55.973-50.52-61.747v-30.946c45.747 6.093 81.04 45.266 81.04 92.693h-30.52c0 5-.586 9.853-1.68 14.52h31.094c-6.374 40.707-38.947 72.707-79.934 78.16v-30.933c-4.04.813-8.2 1.24-12.466 1.24-.694 0-1.374-.014-2.054-.027v30.52" fill="#c7d7fa"/><path d="M1687.56 2011.56h-115.92v-14.52h114.24c0 5 .573 9.853 1.68 14.52M2092.88 2011.56h-149.36v-14.52h149.36v14.52m-163.893 0h-118.814a63.542 63.542 0 001.68-14.52h117.134v14.52M1761.333 1935.293c-4.04-.813-8.2-1.24-12.466-1.24-.694 0-1.374.014-2.054.027v-178.053h14.52v179.266M1761.333 2252.587h-14.52V2060c.68.013 1.36.027 2.054.027 4.266 0 8.426-.427 12.466-1.24V2252.587M2107.413 2020.493h-14.533v-264.48l14.533 1.147V2020.493M1943.52 2252.587h-14.533v-496.574h14.533V2252.587M1780.373 1885.973h71.84v-111.547h-71.84zM1571.653 1938.533h70.013v-80.16h-70.013zM1571.653 1844.44h140.88v-70.014h-140.88zM1864.333 1843.773h50.24v-69.347h-50.24zM1864.333 1974.253h50.24v-115.88h-50.24zM1864.333 2093.92h50.24v-68.6h-50.24zM1975.787 1974.253h40.533v-199.826h-40.533zM2029.48 1974.253h50.24v-199.826h-50.24zM1968.093 2252.587H2107.4v-219.974h-139.307zM1775.92 2252.587h138.653V2169.4H1775.92zM1775.92 2153.707h138.653v-44.094H1775.92zM1571.653 2252.587H1696.2v-142.974h-124.547zM1571.653 2096.387h52.44v-77.053h-52.44z" fill="#c7d7fa"/><path d="M1273.853 2345.147h-23.446v-31.934h23.446v31.934M1406.48 2345.147h-23.453v-31.934h23.453v31.934" fill="#163560"/><path d="M1245.45 2349.987c0-9.214 7.469-16.694 16.68-16.694 9.211 0 16.68 7.48 16.68 16.694 0 9.226-7.469 16.693-16.68 16.693-9.211 0-16.68-7.467-16.68-16.693" fill="#1f4777"/><path d="M1252.004 2349.987c0-5.6 4.533-10.134 10.127-10.134 5.592 0 10.125 4.534 10.125 10.134 0 5.6-4.533 10.133-10.125 10.133-5.594 0-10.127-4.533-10.127-10.133" fill="#163560"/><path d="M1378.08 2349.987c0-9.214 7.467-16.694 16.68-16.694 9.2 0 16.667 7.48 16.667 16.694 0 9.226-7.467 16.693-16.667 16.693-9.213 0-16.68-7.467-16.68-16.693" fill="#1f4777"/><path d="M1384.627 2349.987c0-5.6 4.533-10.134 10.133-10.134 5.587 0 10.12 4.534 10.12 10.134 0 5.6-4.533 10.133-10.12 10.133-5.6 0-10.133-4.533-10.133-10.133" fill="#163560"/><path d="M1451.107 2331.12h-242.792c-23.278 0-42.148-18.88-42.148-42.16v-5.507h323.913v8.68c0 21.534-17.453 38.987-38.973 38.987" fill="#c65528"/><path d="M1501.187 1883.32v386.56c0 4.667-.52 9.213-1.507 13.573h-45.333c-7.04 0-13.6 2.054-19.134 5.6a35.186 35.186 0 00-8.92 8.107c-4.72 6.04-7.52 13.64-7.52 21.907v12.053h-177.628v-12.053c0-12.427-6.352-23.374-15.997-29.747a35.448 35.448 0 00-19.58-5.867h-49.007a61.545 61.545 0 01-1.508-13.573v-386.56c0-33.813 27.383-61.227 61.175-61.227h223.785c33.8 0 61.174 27.414 61.174 61.227" fill="#f99746"/><path d="M1393.293 1821.893c-41.893-16.52-76.8-15.693-98.705-12.093-23.757 3.907-37.796 11.827-37.935 11.907l-2.89-5.04c.596-.334 14.886-8.44 39.588-12.547 22.684-3.773 58.809-4.68 102.062 12.373l-2.12 5.4" fill="#163560"/><path d="M1225.148 1822.093v467.227a35.448 35.448 0 00-8.92-4.24v-462.987h8.92M1296.533 1822.093v509.027h-8.918v-509.027h8.918M1363.147 1822.093v509.027h-8.92v-509.027h8.92M1435.213 1822.093v466.96a35.186 35.186 0 00-8.92 8.107v-475.067h8.92" fill="#ed7d2b"/><path d="M961.715 1621.947c-.003-.654 9.76-20.84 6.654-22.4-3.105-1.547-8.669-1.32-9.314 2.226-.648 3.534 2.66 20.174 2.66 20.174" fill="#ffb27d"/><path d="M965.399 1634c.008-1.987-2.287-32.2-7.383-38.213-5.097-6.014-15.505-14.574-18.78-14.307-3.273.253-16.075 17.267-12.227 30.307 3.85 13.04 20.092 30.68 20.092 30.68L965.4 1634" fill="#ffb27d"/><path d="M984.83 1597.387l-29.677 8.893a1.863 1.863 0 01-2.317-1.253l-16.96-56.587a1.854 1.854 0 011.25-2.307l29.675-8.906a1.863 1.863 0 012.316 1.253l16.962 56.587a1.864 1.864 0 01-1.25 2.32" fill="#f1a34f"/><path d="M977.119 1599.693l-26.919 8.067c-1.745.533-3.585-.467-4.11-2.213l-16.133-53.827a3.297 3.297 0 012.215-4.107l26.917-8.066a3.302 3.302 0 014.11 2.213l16.134 53.827a3.298 3.298 0 01-2.214 4.106" fill="#d86713"/><path d="M936.175 1583.68s12.357-19.013 15.377-17.96c4.31 1.507-11.204 25.64-11.204 25.64s11.496-18.027 13.29-16.68c4.093 3.093-2.42 14.427-8.878 23.107 0 0 11.56-10.587 11.936-8.68 1.32 6.68-12.692 22.853-12.692 22.853l-7.83-17.88v-10.4" fill="#ffb27d"/><path d="M926.905 1601.333c.598-2.333 3.615-47.733 4.906-43.426 1.29 4.306 4.364 28.12 4.364 28.12l-9.27 15.306" fill="#ffb27d"/><path d="M1124.119 1588.827s-1.295 49.36-15.532 89.213c-11.246 31.467-30.568 56.987-63.714 47.56-3.39-.973-6.67-2-9.853-3.12l-.041-.013c-67.339-23.454-89.127-77.147-89.127-77.147 5.016-8.267 19.543-11.32 19.543-11.32 13.56.733 73.153 26.04 76.957 26.813 13.781 2.76 24.917-72.973 33.875-99.213 8.958-26.253 45.618-37.987 45.618-37.987l2.274 65.214" fill="#739af0"/><path d="M1109.883 1642.467l-1.296 35.573c-11.246 31.467-30.568 56.987-63.714 47.56-3.39-.973-6.67-2-9.853-3.12 1.061.133 21.348 2.88 29.837-5.613 8.724-8.734 7.814-37.68 23.884-56.974 16.083-19.293 21.142-17.426 21.142-17.426" fill="#5283db"/><path d="M1111.74 2293.013s16.572 15.134 13.339 25.88c-3.234 10.747-18.19 17.907-20.211 31.04-2.021 13.134-10.105 20.294-17.381 20.294h-34.688s-5.356-9.24 7.578-12.027c12.935-2.787 17.812-18.213 17.004-32.547-.808-14.32 1.212-33.426 1.212-33.426l27.488-6.374 5.659 7.16M929.144 2367.48h102.133c4.006 0 7.296-3.173 7.406-7.173.162-5.987-.335-14.694-3.652-22.027-5.454-12.093-8.898-14.213 14.129-49.387-6.924 7.134-25.592 3.88-41.345 1.76-1.93 3.12-31.156 48.28-37.604 52.907-7.122 5.12-38.874 3.293-41.067 23.92" fill="#0b2442"/><path d="M1088.287 1801.093s-74.054 139.734-94.176 216.68c-15.619 59.72 79.704 290.787 79.704 290.787s7.789-.507 20.501-5.507c12.479-4.906 17.23-18.066 17.23-18.066s-5.651-165.214-24.946-245.147c-4.33-17.947 20.981-75.813 63.704-107.52 42.724-31.693 60.513-133.68 35.08-140.573-25.433-6.894-97.097 9.346-97.097 9.346" fill="#163560"/><path d="M1151.683 1761.427s-77.847 285.373-101.463 349.453c-23.617 64.08-61.068 200.093-61.068 200.093s23.679 11.12 53.999 5.867c0 0 113.83-166.76 118.786-240.467 2.291-34.08 116.791-169.133 104.031-257.2l-114.285-57.746" fill="#1c468a"/><path d="M1265.781 1850.467s-16.565 8.36-45.852 10.813h-.028c-33.53 2.813-83.75-2.12-144.914-36.173 0 0-17.062-14.067 3.9-73.854 15.864-45.253 23.594-140.68 42.958-227.64 0 0 62.818-19.706 113.216-2.68 38.507 13.027 34.676 72.12 41.787 133.654.661 5.746 1.42 11.52 2.316 17.266 10.515 67.36-13.383 178.614-13.383 178.614" fill="#739af0"/><path d="M1099.697 1394.867s42.876-69.787 76.079-33.867c0 0 21.707 5.547 34.14 39.333 12.687 34.48-7.07 64.934-20.264 60.014-8.463-3.16-12.421 11.426-12.421 11.426l-77.534-76.906" fill="#233862"/><path d="M1169.199 1355.493s2.953-28.893 45.173-26.08c0 0-19.967.347-24.252 8.68 0 0 14.517-9.36 25.108-4.8 10.59 4.547 15.077 24.36 14.505 30.68-.573 6.307-8.705 26.014-15.822 27.04-7.119 1.027-16.444-4.013-16.444-4.013l-28.268-31.507" fill="#233862"/><path d="M1190.47 1519.173c-3.963-10.573-9.869-21.666-14.611-55.426l-2.535.893-42.619 15.013s2.988 13.667 4.892 26.667c.782 5.307 1.338 14.8 1.702 23.08.372 8.48 8.702 9.28 17.172 8.88 22.533-1.04 34.952-9.44 36-19.107" fill="#ffb27d"/><path d="M1130.705 1479.653s2.988 13.667 4.892 26.667c24.451-4.24 34.199-28.493 37.727-41.68l-42.619 15.013" fill="#e8945b"/><path d="M1177.167 1459.213s9.934-22.186 10.517-40.013c.415-12.72-12.536-57.813-57.804-44.52 0 0-13.235 3.253-24.625 13.6-9.059 8.227-21.434 24.947.546 62.747l6.162 12.946 65.204-4.76" fill="#233862"/><path d="M1124.281 1493.147s58.223-7.414 53.047-43.6c-5.175-36.187-1.147-61.507-38.537-58.307-37.392 3.2-42.624 18.04-43.835 30.533-1.21 12.507 14.048 72.374 29.325 71.374" fill="#ffb27d"/><path d="M1112.208 1394.16s22.021 40.16 47.333 42.92c25.311 2.76 34.955-5.307 34.955-5.307s-20.864-12.173-28.492-37.573c0 0-44.712-21.973-53.796-.04" fill="#233862"/><path d="M1116.647 1397.04s-10.511 11.187-12.079 20.827c-1.568 9.626-.136 28.786-5.757 28.933 0 0-16.14-27.12-5.027-45.387 11.783-19.36 22.863-4.373 22.863-4.373" fill="#233862"/><path d="M1114.647 1398.8s17.738 42.813 50.585 52.613c0 0-34.732-22.88-41.576-51.84-6.845-28.973-9.01-.773-9.01-.773" fill="#233862"/><path d="M1265.781 1850.467s-16.565 8.36-45.852 10.813h-.028s-24.062-30.173 2.786-63.973c26.845-33.814-2.096-96.187 18.577-130.12 14.388-23.6 28.39-18.107 35.584-12.6.661 5.746 1.42 11.52 2.316 17.266 10.515 67.36-13.383 178.614-13.383 178.614" fill="#5283db"/><path d="M1371.4 1800.333s3.573 8.307 8.56 8.867c8.133.907 23.64 7.733 26.08 9.173 6.6 3.92 6.147 21.44-.453 23.094-6.587 1.64-9.894-13.067-30.507-17-6.987-1.334-17.187 3.493-21.307-13.254l17.627-10.88" fill="#ffb27d"/><path d="M1235.061 1520.933c59.951 22.054 62.164 128.254 88.894 175.027 27.565 48.24 54.405 111.733 54.405 111.733s-.48 1.894-10.76 4.84c-7.24 2.08-14.8 1.2-14.8 1.2s-56.635-51.24-72.025-71.453c-15.39-20.213-51.672-113.987-51.672-113.987s-17.84-116.106 5.958-107.36" fill="#739af0"/><path d="M1355.253 1815.36s1.454 7.133 10.294 12.907c8.84 5.773 15.933 11.546 16.786 7.973.854-3.573-4.92-7.427-6.293-14.013-1.373-6.6-20.787-6.867-20.787-6.867" fill="#ffb27d"/><path d="M2892.576 835.63H1879.59l54.018-240.03h904.969l54 240.03" fill="#f78248"/><path d="M2156.613 759.733h-92.906v-92.906h92.906v92.906" fill="#bdd1f9"/><path d="M2152.307 755.44h-84.294v-84.307h84.294zm-92.907-92.893v101.48h101.52v-101.48H2059.4" fill="#163560"/><path d="M2105.947 759.733v-92.906h8.426v92.906h-8.426M2175.441 664.633h-134.49v-19.485h134.49v19.485" fill="#163560"/><path d="M2433.112 759.734h-92.891v-92.906h92.89v92.906" fill="#bdd1f9"/><path d="M2428.823 755.432h-84.308v-84.308h84.308zm-92.906-92.907v101.49h101.52v-101.49h-101.52" fill="#163560"/><path d="M2382.443 759.741v-92.906h8.42v92.906h-8.42M2450.911 664.648h-134.499v-19.487h134.5v19.487" fill="#163560"/><path d="M2708.582 759.742h-92.89v-92.906h92.89v92.906" fill="#bdd1f9"/><path d="M2704.285 755.432h-84.3v-84.3h84.3zm-92.904-92.888v101.493h101.526V662.544H2611.38" fill="#163560"/><path d="M2657.946 759.733v-92.897h8.408v92.897h-8.408M2726.403 664.634h-134.497v-19.487h134.497v19.487" fill="#163560"/><path d="M730.53 2369.76h132.314c7.09-6.013-4.907-19.68-17.441-20.587-5.446-.413-12.33.72-20.196 2.387-1.82-24.187-12.219-132.907-51.407-128.533-44.063 4.893 0 47.88 12.456 73.32 9.228 18.853 18.961 45.88 23.41 58.64a400.356 400.356 0 01-11.065 2.24c-5.84-17.934-27.57-78.254-55.205-74.747-32.445 4.12-19.404 28.307 3.593 42.667 16.872 10.546 37.59 25.56 47.434 32.8-8.34 1.36-17.046 2.28-25.876 2.08-22.666-.547-33.728 6.133-38.018 9.733M3454.412 2367.612h-99.69c-5.342-4.531 3.703-14.826 13.131-15.507 4.108-.319 9.301.547 15.218 1.8 1.362-18.226 9.216-100.145 38.735-96.853 33.202 3.695 0 36.082-9.385 55.254-6.96 14.2-14.282 34.574-17.623 44.188 2.682.585 5.47 1.147 8.322 1.68 4.405-13.507 20.772-58.962 41.608-56.308 24.434 3.095 14.6 21.32-2.724 32.134-12.706 7.947-28.307 19.252-35.734 24.72 6.3 1.026 12.833 1.72 19.495 1.56 17.07-.4 25.412 4.627 28.647 7.332" fill="#a8d29f"/><path d="M2397.143 1505.848c4.688 12.587 12.787 27.2 21.307 30.827 9.661 4.12 13.688 9.946 13.688 9.946l7.799-4.533 9.3-5.413s-.224-1.027-.675-2.72a83.56 83.56 0 00-2.104-6.6s-2.84-3.667-1.097-8.28c1.758-4.6 1.398-11.72-1.593-16.067-2.99-4.347-5.86-15.04-7.663-14.72-4.342.748 2.149 15.453.286 18.173-1.683 2.467-3.787 1.628-4.193 1.428l-.06-.04c-12.216-5.36-27.031-34.32-33.598-30.414-2.449 1.467-3.396 23.053-1.397 28.413" fill="#ffb27d"/><path d="M2439.393 1523.384l-15.304 10.746a2.419 2.419 0 01-3.354-.573l-39.186-55.787c-.75-1.08-.51-2.587.583-3.333l15.304-10.76a2.399 2.399 0 013.339.587l39.202 55.773a2.409 2.409 0 01-.584 3.347" fill="#2b478b"/><path d="M2425.37 1533.229l-8.962 6.307a1.846 1.846 0 01-2.546-.44l-39.864-56.72c-.58-.815-.372-1.961.447-2.548l8.96-6.307c.834-.573 1.98-.373 2.546.454l39.865 56.707a1.82 1.82 0 01-.447 2.547M2658.904 1443.347s-77.873 135.813-106.112 160.8l-103.56-77.226s-15.031 4.613-21.627 19.693c0 0 79.613 128.279 124.839 133.587 61.732 7.225 148.835-153.6 148.835-153.6l-42.375-83.254" fill="#233862"/><path d="M2804.39 2369.295h44.99c5.65-3.068 10.716-10.107 12.292-20.614 2.197-14.494 18.439-22.387 21.964-34.255 3.507-11.839-14.49-28.533-14.49-28.533l-3.01-3.879-3.135-4.028-29.864 7.041s-.744 7.106-1.186 16.16c-.337 6.533-.496 14.093-.124 20.72.868 15.8-4.41 32.826-18.475 35.906-10.38 2.267-9.919 8.428-8.962 11.482M2574.016 2367.025h102.881c4.953-6.04 3.143-28.319 2.386-35.6-.148-1.467-.263-2.32-.263-2.32s-35.127-28.106-39.965-6.587a19.864 19.864 0 01-.51 1.987c-6.087 20.134-33.35 29.28-49.096 31.827-10.233 1.654-14.034 6.973-15.433 10.693" fill="#2d4c7f"/><path d="M2593.614 1792.75s5.334 66.558 11.61 146.558c8.514 108.68 18.76 242.187 19.77 267.467 1.767 43.92 8.784 114.16 8.784 114.16s16.674 16.692 50.058 9.667c0 0 29.748-100.28 38.245-206.386.118-1.735.253-3.495.387-5.242 7.909-108.012 20.192-335.452 20.192-335.452l-149.046 9.227" fill="#f99746"/><path d="M2593.614 1792.75s5.334 66.558 11.61 146.558l116.857 184.908c.118-1.735.253-3.495.387-5.242 7.909-108.012 20.192-335.452 20.192-335.452l-149.046 9.227" fill="#ed7d2b"/><path d="M2619.686 1781.895s80.652 245.945 136.22 362.519c55.552 116.574 73.136 149.227 73.136 149.227s36.295-12.482 40.062-22.16c0 0-19.256-204.587-57.734-260.134-21.738-31.4-36.365-138.28-35.873-169.92.476-31.64-3.115-94.507-3.115-94.507l-152.696 34.975" fill="#f99746"/><path d="M2641.916 1449.252c37.582 11.855 102.591-20.146 102.591-20.146s-34.635-25.999-32.833-80.054l-29.045 23.415-19.733 15.893s.084 9.373 2.222 25.813l.034.133c1.078 8.2-2.24 16.413-8.84 21.4-9.277 7.002-14.396 13.546-14.396 13.546" fill="#ffb27d"/><path d="M2662.886 1388.362s.083 9.373 2.23 25.812c21.877-3.76 46.682-39.094 46.682-39.094-11.13-3.212-20.879-3.8-29.18-2.613l-19.732 15.895" fill="#ed975d"/><path d="M2651.398 1387.48s62.062 10.308 67.889-28.44c5.827-38.753 17.765-63.519-21.628-71.74-39.36-8.222-49.317 5.403-54.405 17.864-5.088 12.462-7.859 78.636 8.144 82.317" fill="#ffb27d"/><path d="M2589.474 1798.291c1.125.933 2.455 1.507 3.955 1.507 14.117-.2 55.255 7.64 90.07 4.066 29.34-2.813 55.34-11.52 83.231-24.026 3.7-1.654 12.224-6.201 12.037-10.347-.12-4.534-.58-11.108-1.142-19.387-1.978-28.8-5.422-78.334-2.063-135.468.613-10.638.92-21.198.971-31.586.273-77.44-15.07-145.56-45.946-168.613-2.626-1.88-18.805 6.026-33.671 13.36-13.742 6.773-24.278 7.44-37.27 4.813l-16.161 11.56c-15.805 14.668-33.126 34.613-40.645 64.907-6.41 25.773-10.16 72.253-12.24 120.428-.921 21.826-1.689 43.839-1.876 64.732v.747c-.188 2.066-.188 4.334-.188 6.4-.75 53.627 0 96.147.938 96.907" fill="#2b478b"/><path d="M2777.607 1750.11c-1.977-28.8-5.419-78.334-2.062-135.468.613-10.64.92-21.2.971-31.586-12.848-31.186-23.362-53.8-23.362-53.8h-32.394s-23.772 162.253 56.847 220.853" fill="#233862"/><path d="M2719.322 1355.31s-6.35-1.066-5.325-9.839c1.025-8.774 1.008-20.235-6.131-18.1-7.123 2.138-7.493 7.846-10.416 4.513-2.923-3.334-2.973-17.383-24.207-18.362-21.233-.98-29.834 6.408-39.712 2.07-9.878-4.338-10.398-19.277-10.398-19.277s2.822 5.333 7.055 7.03c0 0-16.463-22.519 2.587-37.962 19.067-15.441 38.503-5.334 49.54-4.665 24.308 1.472 40.014 2.93 47.943 18.902 7.946 15.97 4.67 60.318-10.936 75.69" fill="#2b478b"/><path d="M3192.01 2339.973c-1.928 12.068 7.1 26 20.164 31.134 13.064 5.132 25.234-.493 27.163-12.547 1.929-12.067-7.099-26-20.164-31.12-13.064-5.133-25.234.48-27.163 12.533M3026.091 2340.308c-1.924 12.052 7.094 25.985 20.17 31.12 13.074 5.133 25.225-.48 27.168-12.548 1.925-12.052-7.094-25.985-20.169-31.12-13.075-5.133-25.225.48-27.169 12.548" fill="#1c468a"/><path d="M3239.092 2336.933l-29.787 12.187c-3 1.24-6.36 1.854-9.896 1.827l-187.113-1.574-29.27-34.613 256.066 22.173" fill="#739af0"/><path d="M3047.54 1935.998l-71.606-104.827-.094-.201c-.45-.932-11.871-23.36-72.468-29.465l-.281-.029-49.906-6.746c-6.47-1.174-25.075-3.28-33.383 1.013-3.676 1.907-5.064 4.974-4.239 9.374 1.632 8.708 49.212 76.693 80.776 120.268l-9.377 2.36c-8.12-11.188-79.332-109.708-81.677-122.242-1.219-6.56 1.35-11.545 7.652-14.8 13.56-7.013 39.648-2.653 42.423-2.173l49.231 6.641c65.248 6.6 79.614 31.305 81.077 34.147l71.343 104.465-9.472 2.215" fill="#1c468a"/><path d="M2924.754 1915.223l-95.406 20.868s-26.214 12.32-6.844 65.106c17.045 46.44 106.431 307.07 106.431 307.07s18.601 54.239 127.489 38.265l-131.67-431.309" fill="#739af0"/><path d="M2887.31 1987.053l102.021 291.867c4.137 11.813 11.004 22.653 19.597 31.747 15.943 16.852 37.87 27.747 59.334 27.84l93.547.4 2.31.013 58.59.253c5.903.026 11.385-.759 16.384-2.24a45.812 45.812 0 003.434-1.133c18.492-6.933 29.717-23.88 30.158-44.68.181-8.866-1.586-18.414-5.582-28.2l-114.108-279.24c-12.168-29.773-41.664-52.573-71.642-55.386l-16.926-1.586-4.036-.374-3.394-.307-56.522-5.307-6.947-.64-54.555-5.106c-8.553-.8-16.404.066-23.351 2.307-.482.158-.924.305-1.366.466l-2.81 1.094c-23.674 10.065-34.918 37.293-24.136 68.212" fill="#83b0ff"/><path d="M3239.036 2336.948c.02 0 .04 0 .04-.014 0 .014-.02.014-.04.014M3272.581 2293.521c.04-.8.08-1.6.1-2.4.101-4.534-.32-9.24-1.284-14.066a50.193 50.193 0 011.184 16.466" fill="#afc6f5"/><path d="M3222.985 2339.174h-.281l-58.59-.253-2.308-.014-93.545-.4c-4.94-.026-9.92-.612-14.818-1.72-16.445-3.707-32.246-13.146-44.514-26.12 1.707-10.586 4.136-25.88 24.576-29.293 23.652-3.96 103.865-4.76 164.643-4.76 41.04 0 73.226.361 73.226.361.02.026.02.052.04.078.943 4.827 1.365 9.534 1.265 14.067a48 48 0 01-.1 2.402c-1.888 19.905-15.38 36.705-29.917 42.227a49.053 49.053 0 01-3.574 1.185c-.02.013-.02.013-.04.013-4.9 1.44-10.28 2.227-16.063 2.227" fill="#7ba5f7"/><path d="M3056.983 1926.028c.48.254 50.749 27.241 62.562 51.027 12.132 24.454 124.402 309.4 125.522 312.28.1.226 8.235 27.773-8.755 48.332l2.778-.734a45.23 45.23 0 003.438-1.133c15.45-21.347 6.336-45.892 5.897-46.959-4.617-11.773-113.47-288.027-125.682-312.652-10.694-21.56-46.771-43.013-58.324-49.481l-4.018-.372h-.02l-3.398-.308M2993.53 1920.08c7.352 4.307 35.905 22.813 49.753 57.04 16.26 40.16 114.386 331.826 115.377 334.76l.078.213.098.2c.077.146 7.449 15.88.641 26.6l2.334.014 2.315.012c6.224-11.48-1.011-25.56-2.1-27.534-3.015-9.011-99.254-294.986-115.398-334.798-11.942-29.508-34.368-47.814-46.154-55.869l-6.944-.638M2911.461 1918.841c.208.106 10.532 5.306 20.609 14.319 10.059 9.014 22.065 22.907 29.987 42.506 16.279 40.134 109.32 330.842 110.266 333.761l.056.24.133.2c.094.146 5.464 17.934-1.362 28.652l5.88.027c4.822-9.8-.17-27.466-1.323-29.56-2.968-9.292-94.157-294.052-110.304-333.88-15.144-37.44-43.808-54.573-49.782-57.827-.473.161-.927.309-1.361.467l-2.799 1.095" fill="#739af0"/><path d="M2843.426 1737.867s4.154 29.746 4.454 33.612c1.944 26.188-1.75 28.708 12.515 33.322 3.96 1.28 14.707 1.306 20.858-6.268 0 0-9.97-.64-8.255-15.013 1.998-16.573.955-11.866-9.085-25.387l-2.334-24.853-18.153 4.587" fill="#ffb27d"/><path d="M2856.955 1763.096c-11.668 2.267-24.323 1.346-24.323 1.346s-34.617-107-39.094-116.774c-4.442-9.773-102.882-125.467-102.882-125.467l40.998-102.611s106.477 177.826 117.281 202.812c17.855 41.294 24.06 133.866 24.06 133.866s-6.875 5.04-16.04 6.828" fill="#2b478b"/><path d="M2847.885 1771.479s-2.522 6.533-2.592 9.6c-.297 9.826-3.029 14.373-1.295 15.24 3.624 1.786 7.23-5.894 8.614-12.561 1.366-6.666-4.727-12.28-4.727-12.28" fill="#ffb27d"/><path d="M2121.68 1110.187a8.018 8.018 0 00-8.027-8.027 8.026 8.026 0 00-8.026 8.027c0 4.426 3.6 8.026 8.026 8.026 4.44 0 8.027-3.6 8.027-8.026M2128.04 1101.56a2.67 2.67 0 01-1.84-.733c-4.213-3.974-8.573-5.907-12.96-5.734-6.84.267-11.707 5.534-11.76 5.587a2.675 2.675 0 01-3.773.187 2.676 2.676 0 01-.2-3.774c.253-.28 6.36-6.96 15.453-7.346 5.893-.24 11.587 2.173 16.92 7.186a2.689 2.689 0 01.107 3.787c-.52.56-1.24.84-1.947.84" fill="#163560"/><path d="M2136.36 1089.96c-.653 0-1.307-.24-1.827-.72-7.013-6.6-14.306-9.813-21.693-9.507-11.493.454-19.6 9.254-19.68 9.347a2.676 2.676 0 01-3.773.2 2.693 2.693 0 01-.214-3.787c.387-.426 9.627-10.533 23.387-11.106 8.907-.374 17.533 3.306 25.64 10.96 1.08 1 1.12 2.706.107 3.773-.52.56-1.227.84-1.947.84" fill="#163560"/><path d="M2145.133 1078.667c-.653 0-1.32-.24-1.826-.734-9.947-9.36-20.347-13.906-30.894-13.466-16.4.653-27.906 13.186-28.026 13.306a2.664 2.664 0 01-3.774.2 2.664 2.664 0 01-.2-3.773c.52-.587 13.054-14.307 31.72-15.08 12.08-.507 23.787 4.52 34.84 14.92a2.677 2.677 0 01.107 3.787c-.52.56-1.24.84-1.947.84M1598.853 1076.2h-52.266c-1.92 0-3.48-1.56-3.48-3.48s1.56-3.48 3.48-3.48h52.266c1.92 0 3.48 1.56 3.48 3.48s-1.56 3.48-3.48 3.48M1598.853 1091.587h-52.266a3.471 3.471 0 01-3.48-3.467c0-1.92 1.56-3.48 3.48-3.48h52.266c1.92 0 3.48 1.56 3.48 3.48s-1.56 3.467-3.48 3.467M1598.853 1108.04h-52.266a3.474 3.474 0 110-6.947h52.266a3.474 3.474 0 110 6.947" fill="#163560"/><path d="M972.332 621.32s19.167-34.32 65-30.507c0 0 66.541-57.2 137.499-7.626 0 0 75.428-12.28 131.288 10.626 37.241 15.28 49.548 31.32 49.548 31.32l-383.335-3.813M1285.664 476.022s42.689-76.424 144.766-67.934c0 0 148.205-127.394 306.236-16.98 0 0 168.013-27.358 292.406 23.684 82.967 34.033 110.355 69.735 110.355 69.735l-853.763-8.505M1142.688 764.373s32.492-56.96 110.188-50.626c0 0 112.804-94.934 233.084-12.654 0 0 127.867-20.386 222.56 17.64 63.133 25.36 83.987 51.96 83.987 51.96l-649.819-6.32" fill="#f8fcff"/><path d="M1795.92 1925.307c0-46.987 38.08-85.067 85.067-85.067 46.973 0 85.066 38.08 85.066 85.067 0 46.973-38.093 85.066-85.066 85.066-46.987 0-85.067-38.093-85.067-85.066" fill="#ebf2ff"/><path d="M1803.787 1927.733c-1.347-40.053 30.213-73.786 70.266-75.133 40.24-1.347 73.8 30.213 75.147 70.267 1.347 40.24-30.027 73.8-70.28 75.133-40.053 1.347-73.787-30.027-75.133-70.267zm-50.427 9.48c2.453 73.28 129.76 186.267 129.76 186.267s119.467-121.253 117.013-194.52c-2.453-73.28-59.68-130.84-127.826-128.56-68.147 2.28-121.4 63.547-118.947 136.813" fill="#f78e48"/><path d="M3665.128 2376.107H311.635a3.877 3.877 0 01-3.876-3.867v-1.48a3.889 3.889 0 013.876-3.88h3353.493c2.116 0 3.872 1.747 3.872 3.88v1.48c0 2.133-1.756 3.867-3.872 3.867" fill="#2e3552"/></svg>