<svg xmlns="http://www.w3.org/2000/svg" height="2666.667" width="5066.667"><path d="M0-.003v2666.67h5066.67V-.003H0" fill="#fff"/><path d="M4342.976 1002.387c-233.72-73.184-315.253-1097.802-1353.479-585.493-223.561 110.317-500.388 88.611-797.628 66.908-251.695-18.377-518.056-36.756-779.107 25.035C889.897 632.597 877.88 989.59 943.989 1118.11c72.236 140.427-215.828 308.318-510.848 423.636-462.766 180.88-122.473 816.548 314.709 819.588 437.179 3.04 3649.025-6.052 3649.025-6.052s874.047-1062.34-53.9-1352.894" fill="#ebf3fa"/><path d="M1587.893 2082.747c-.013 5.253-2.6 8.866-7 11.28l-.066.026c-8.134 4.48-22.4 4.934-37.934 4.254-1.986-.08-3.773-.134-5.373-.134-.413 0-.827 0-1.24.014-.32 0-.653.013-.96.013-15.373.373-13.747 4.973-42.947 7.48-33.293 2.84-45.56-7.347-47.533-11.987-1.64-3.933 12.64-8.4 28.6-13.506.773-.24 1.547-.494 2.333-.747 2.12-.667 4.254-1.373 6.387-2.067 19-6.32 37.707-13.813 42.373-33.04 4.96-20.4-9.92-77.346-9.92-77.346l52.76-5.694s5.08 59.52 8.4 78.067c1.787 9.907 6.267 17.773 8.894 26.253.186.6.373 1.2.533 1.787 1.347 4.987 2.707 10.08 2.693 15.347" fill="#e49963"/><path d="M1587.893 2082.747c-.013 5.253-2.6 8.866-7 11.28l-.066.026c-8.654 4-22.694 4.587-37.907 4.16a125.4 125.4 0 00-5.4-.04c-.413 0-.827 0-1.24.014-.32 0-.653.013-.96.013-15.373.373-13.747 4.973-42.947 7.48-33.293 2.84-45.56-7.347-47.533-11.987-1.64-3.933 12.64-8.4 28.6-13.506 4.48 1.733 25.827 9.146 51.08 4.36 22.213-4.187 44.28-15.227 60.147-18.934.186.6.373 1.2.533 1.787 1.347 4.987 2.707 10.08 2.693 15.347" fill="#c65447"/><path d="M1245.541 2015.4c-2.93 14.653-23.816 12.213-47.149 6.507-12.7-3.107-16.845-2.507-23.337-1.92-5.439.506-12.526 1-27.662-.68-33.209-3.68-43.269-16.054-44.281-21-.908-4.374 15.501-5.92 33.103-7.947a599.09 599.09 0 006.661-.8c19.872-2.493 34.423-15.32 52.475-25.84 17.097-9.987 42.612-50.627 42.612-50.627l45.544 3.614s-23.899 36.293-33.143 52.08c-5.437 9.28-5.15 21.56-4.47 31.04.351 5.146.687 10.413-.353 15.573" fill="#e49963"/><path d="M1198.392 2021.907c-23.335-5.694-17.788 1.08-50.999-2.6-33.209-3.68-43.269-16.054-44.282-21-.907-4.374 15.502-5.92 33.104-7.947l.164.333s19.916 14.12 47.56 14.787c22.53.547 46.394-5.907 61.954-5.653.352 5.146.688 10.413-.35 15.573-2.932 14.653-23.818 12.213-47.151 6.507" fill="#c65447"/><path d="M1346.88 1346.467s-10.853-26.574-22.787-27.667c-11.936-1.08-49.914-7.053-52.626-1.627-2.714 5.427 0 24.96 8.137 32.014 8.139 7.053 58.596 18.44 58.596 18.44l8.68-21.16" fill="#ffb27d"/><path d="M1420.08 1724.187l98.16 264.146s15.08 1.467 29.533-2.706c13.307-3.827 28.547-13.894 28.547-13.894s-24.347-253.64-68.987-306.4c-44.64-52.746-87.253 58.854-87.253 58.854" fill="#365da4"/><path d="M1808.307 1617.32s-282.04-95.373-344.947-75.08c-62.893 20.293-251.757 396.04-251.757 396.04s4.257 5.68 15.894 10.04c10.823 4.053 37.018 3.8 37.018 3.8s170.445-146.093 190.738-188.707c20.294-42.613 28.4-83.2 48.694-79.133 20.293 4.053 261.746 99.427 316.533 42.613 54.787-56.826 40.467-130.64 40.467-130.64l-52.64 21.067" fill="#466aa5"/><path d="M1635.947 1173.653c-4.494-9.293-9.534-25.813-12-55.253.386 2.92 5.453 40.053 19.733 61.08 58.653 38.507 171.093 167.093 168.867 191.467 0 0 39.6-67.174 40.28-67.574 0 0 73.053-92.893-13.534-146.093-44-27.053-43.773-61.76-41.933-91.907 1.853-30.16-12-159.946-100.147-125.973 0 0-14.146-6.293-20.48-5.347 0 0 5.174.987 7.8 3.707-10.213-.613-24.826.147-37.013 7.08-32.32 18.36-61.24 183.107-11.573 228.813" fill="#b74b42"/><path d="M1647.16 1181.4c-.293.12 28.32 14.987 49.84 9.093 20.24-5.52 33.48-31.773 33.2-31.826-8.573-1.707-11.053-13.48-10.867-64.12l-3.88.773-65.173 12.893s1.48 20.52 1.533 39.84c.04 16.227-.946 31.614-4.653 33.347" fill="#ffb27d"/><path d="M1650.28 1108.213s1.48 20.52 1.533 39.84c36.467-1.026 55.747-34.293 63.64-52.733l-65.173 12.893" fill="#e8945b"/><path d="M1722.187 1088.213s19.106-30.186 23.693-56.013c3.28-18.44-6.107-86.773-74.773-76.92 0 0-19.947 1.96-38.694 14.613-14.906 10.08-36.426 31.814-12.373 91.44l6.253 20.147 95.894 6.733" fill="#b74b42"/><path d="M1638.107 1126.52s86.28 1.427 86.346-52.333c.054-53.747 11.227-89.76-43.853-92.947-55.093-3.173-65.827 17.32-70.2 35.253-4.387 17.934 5.253 108.267 27.707 110.027" fill="#ffb27d"/><path d="M1719.587 991.267s-58.947-40.307-77.587-12.44c-5.653-4.84-15.72-8.36-29.04 7.786-20 24.24-2.2 67.107-2.2 67.107 8.213.96 10.147-27.227 14.453-40.907 3.24-10.32 14.067-20.866 19.2-25.426 7.52 16.973 28.227 57.586 56.76 64.92 36.267 9.333 51.987-.387 51.987-.387s-27.813-22.093-33.573-60.653" fill="#b74b42"/><path d="M1839.293 1413.533c8.52-35.693-20.44-104.933-50.653-162.266-27.427-51.96-55.893-94.12-58.44-92.6-72.32 42.92-78.853 7.24-78.853 7.24s-65.694 8.72-84.294 40.746c-25.733 44.267-53.746 177.147-81.28 175.187-12.64-.907-139.8-48.707-139.8-48.707s-21.182 19.854-17.125 44.2c0 0 62.779 42.04 115.885 68.867 28.08 14.187 53.454 24.12 65.387 21.307 24.187-5.694 61.973-61.76 82.387-94.774l.133-.226c26.067 147.493-9.373 181.08 8.56 196.64 18.947 16.426 46-7.827 105.52 17.973 39.04 16.933 93.227 41.427 129.693 45.693 19.134 2.24 33.4-1.093 38.054-14.013 13.533-37.533-51.4-137.24-35.174-205.267" fill="#f1a34f"/><path d="M1657.28 1093.933s-1.6 6.827-18.587 5.774c0 0-14.266-.88-13.826-8.387 0 0 13.826-5.333 32.413 2.613" fill="#fff"/><path d="M1874.467 1618.8c-4.654 12.92-18.92 16.253-38.054 14.013-25.24-11-134.293-53.253-133.066-81.88 1.813-42.386 20.96-43.733 7.44-96.04-10.867-42.013 62.973-128.373 79.053-145.346 30.213 57.32 57.973 68.293 49.453 103.986-16.226 68.027 48.707 167.734 35.174 205.267M1592.507 1372.733c-20.414 33.014-58.2 89.08-82.387 94.774-11.933 2.813-37.307-7.12-65.387-21.307 20.494 5.293 40.4 5.147 59.747 3.28 20.973-2.04 27.053-27.733 60.2-66.293 21.493-25 26.773-18.707 27.827-10.454" fill="#e58638"/><path d="M1693.533 1453.867s-18.266-14.2-35.506-10.814c-17.254 3.374-25.707 15.214-25.027 20.627.667 5.413 9.8 20.627 23 21.987 13.187 1.346 50.72-8.12 50.72-8.12l-13.187-23.68" fill="#ffb27d"/><path d="M1730.2 1158.667s70.32 4.333 94.667 38.293c34.266 47.787 93.8 242.933 77.56 287.573l-213.96-.893s-5.187-24.24 2.026-35.973c7.214-11.72 124.454-30.654 129.867-36.067 5.413-5.413-67.64-105.52-67.64-121.76 0-16.227-22.52-131.173-22.52-131.173" fill="#f1a34f"/><path d="M2006.133 1465.667s-19.533-6.494-28.973-4.547c-9.44 1.96-38.72 15.627-39.373 18.547-.654 2.933 0 5.04 0 5.04h68.346s15.28-2.974 17.88-11.974c2.6-9.013-17.88-7.066-17.88-7.066" fill="#ffb27d"/><path d="M2261.117 2326.828c-.528 5.6-3.628 9.2-8.55 11.347l-.07.027c-9.106 3.986-24.371 3.08-40.86.866-2.113-.28-4.018-.506-5.714-.666-.445-.04-.89-.08-1.335-.107-.347-.027-.695-.053-1.029-.08-16.42-1.08-15.126 3.986-46.519 3.827-35.772-.188-47.882-12.24-49.508-17.374-1.377-4.36 14.278-7.734 31.796-11.64.848-.173 1.696-.373 2.558-.56 2.322-.52 4.671-1.067 6.993-1.587 20.882-4.906 41.57-11.08 48.396-31.147 7.244-21.28 5.547-84.399 5.547-84.399h63.356s-16.642 69.733-14.89 89.84c.945 10.734 6.076 13.773 8.05 23.08.153.653.278 1.307.39 1.96.958 5.426 1.918 11 1.39 16.613" fill="#ad7041"/><path d="M2334.863 1644.505c-5.346 30.027-12.974 61.04-19.605 93.306-10.648 51.88-18.68 106.987-10.46 166.334 1.04 7.64 1.618 16.066 1.748 25.133 1.59 104.88-45.262 294.962-45.262 294.962s-12.728 5.493-34.066 4.44c-10.98-.548-27.84-7.627-27.84-7.627s-4.42-117.854-4.695-276.348c-.203-114.88-22.754-266.147-27.305-355.028-2.76-53.787 3.221-125.453 3.221-125.453s93.415-75.12 126.976-36.68c33.156 37.973 57.297 104.667 37.288 216.961" fill="#415da5"/><path d="M2304.798 1904.146c1.037 7.64 1.62 16.068 1.747 25.134-69.955-101.372-85.437-322.4-85.437-322.4l76.843 37.293s8.423 41.44 17.3 93.64c-10.652 51.88-18.677 106.988-10.453 166.333" fill="#355493"/><path d="M2463.242 2326.827c-.53 5.6-3.628 9.2-8.555 11.347l-.076.027c-9.1 3.986-24.365 3.08-40.856.866a150.55 150.55 0 00-5.713-.666c-.439-.041-.892-.08-1.33-.108-.348-.025-.696-.053-1.028-.08-16.415-1.079-15.13 3.988-46.51 3.827-35.777-.187-47.884-12.24-49.531-17.373-1.376-4.359 14.283-7.733 31.802-11.64.846-.174 1.693-.373 2.554-.56 2.328-.52 4.67-1.066 7.014-1.586 20.873-4.907 41.55-11.08 48.383-31.146 7.255-21.28-3.114-83.428-3.114-83.428l58.707-4.906s-3.643 70.826-1.904 90.92c.952 10.733 6.408 16.626 8.373 25.933.151.653.288 1.307.393 1.96.953 5.426 1.905 11 1.39 16.613" fill="#ad7041"/><path d="M2454.974 2229.6s-15.098 7.147-25.967 9.32c-10.854 2.173-33.426-2.08-33.426-2.08-4.077-45.64-13.521-117-31.91-197.533-20.919-91.68-52.07-200.027-95.5-302.627-9.263-21.92-47.509-125.639-53.997-151.812-19.63-79.081.076-70.56.076-70.56l171.524-20.135s21.131 10.868 30.863 122.547c2.926 33.44 3.29 177.84 7.67 205.214 4.154 25.934 9.02 47.48 14.735 61.493 31.864 78.213 15.932 346.173 15.932 346.173" fill="#415da5"/><path d="M2463.242 2326.827c-.53 5.6-3.628 9.2-8.555 11.347l-.076.027c-9.613 3.44-24.637 2.692-40.81.759-2.132-.24-4.021-.426-5.76-.56-.438-.04-.891-.08-1.33-.107-.347-.025-.695-.053-1.027-.08-16.415-1.079-15.13 3.988-46.51 3.827-35.777-.187-47.884-12.24-49.531-17.373-1.376-4.359 14.283-7.733 31.802-11.64 4.61 2.28 26.663 12.254 54.051 9.586 24.094-2.305 48.686-11.959 65.962-14.36.151.654.288 1.308.393 1.961.953 5.426 1.905 11 1.39 16.613M2261.13 2326.826c-.527 5.6-3.635 9.2-8.547 11.347l-.07.026c-9.629 3.441-24.655 2.693-40.834.76-2.109-.24-4.01-.426-5.744-.56-.444-.039-.888-.08-1.332-.107l-1.027-.079c-16.428-1.08-15.138 3.986-46.524 3.827-35.77-.188-47.869-12.24-49.52-17.373-1.374-4.361 14.291-7.734 31.802-11.642 4.62 2.281 26.654 12.254 54.058 9.588 24.073-2.307 48.674-11.96 65.962-14.36.139.653.278 1.306.389 1.96.957 5.426 1.915 11 1.387 16.613" fill="#b84c42"/><path d="M2192.505 980.558c-5.794-47.32 8.996-123.034 103.434-110.93 94.44 12.103 124.206 104.902 105.153 146.179-19.038 41.261 27.424 51.21 42.01 95.594 12.51 38.123 16.899 85.458 37.17 106.702 65.375 68.49-62.766 173.813-140.01 151.6-140.73-40.449-158.846-46.485-153.848-157.044 2.561-56.645 46.634-78.592 18.647-94.983-67.592-39.587.563-30.044-12.556-137.118" fill="#2b478b"/><path d="M2331.27 1104.473l-25.974 67.22-56.207 2.747-27.99-41.935c31.751-24.07 30.407-70.152 28.848-86.242-.358-3.619-.701-5.735-.701-5.735l70.267-21.382c.83 18.578 1.874 33.095 3.003 44.465 3.934 39.918 8.753 40.862 8.753 40.862" fill="#ffb27d"/><path d="M2220.887 1102.06c3.606 0 64.94-12.49 168.52 14.014 0 0-56.731 259.877-37.455 308.85 19.262 48.986 26.592 92.453 26.592 92.453l-209.051 2.6s2.932-168.133-6.7-227.63c-9.645-59.503 58.094-190.287 58.094-190.287" fill="#ffb27d"/><path d="M2375.003 1391.921c3.056 34.4 35.212 113.015 28.253 129.76-7.286 17.588-17.421 26.495-39.56 31.574-15.27 3.521-36.251 5.214-65.943 6.694-62.976 3.12-130.447-4.787-139.632-34.72-4.407-14.374-2.716-69.973-.371-95.64 4.808-53.12-5.298-129.333-6.781-178.653-1.217-41.135 23.608-134.747 23.608-134.747s11.188-7.063 46.311-14.141c0 0 3.695 48.626 29.07 52.81 43.877 7.242 79.238-32.956 89.565-49.13 0 0 50.393 12.717 65.187 29.573 13.993 15.967-5.164 134.233-9.423 145.575-3.68 9.733-7.152 19.234-10.18 28.78-8.012 25.187-12.909 50.773-10.104 82.265" fill="#f1a34f"/><path d="M2554.449 1465.824s19.523-6.426 28.954-4.492c9.448 1.933 38.724 15.479 39.368 18.385.66 2.894 0 4.988 0 4.988h-68.322s-15.29-2.947-17.897-11.867c-2.608-8.934 17.897-7.014 17.897-7.014" fill="#ffb27d"/><path d="M2322.51 1068.067c-25.632-17.184-57.862-18.039-72.553-17.355-.37-3.619-.712-5.728-.712-5.728l70.26-21.387c.84 18.58 1.88 33.1 3.006 44.47" fill="#e8945b"/><path d="M2230.91 1045.304s84.12 16.895 93.815-35.653c9.725-52.549 27.126-85.75-26.188-98.764-53.284-13-67.453 5.108-74.97 21.86-7.503 16.751-14.284 106.814 7.344 112.557" fill="#ffb27d"/><path d="M2341.027 914.37c-14.239-16.01-34.777-19.131-49.756-18.87 9.028-10.944-27.259-34.908-68.756 5.98-17.882 17.62-15.168 52.253-5.603 72.341 0 0 14.718-43.065 41.468-52.456 5.966-2.09 11.612-5.573 16.823-9.71 3.251 8.186 9.812 19.769 22.991 34.182 27.665 30.248 22.28 91.399 22.28 91.399s45.417-94.883 20.553-122.867" fill="#2b478b"/><path d="M2257.115 1019.443s-2.243 6.232-18.084 3.407c0 0-13.294-2.382-12.061-9.375 0 0 13.556-3.517 30.145 5.968" fill="#fff"/><path d="M2487.898 1340.01c-31.816-122.799-49.278-192.912-75.337-214.13-23.063-18.763-72.78-20.484-72.78-20.484-.77 14.768-.079 29.589 1.725 44.264l-61.155 116.557s-31.346 62.007-42.485 129.833c-8.41-67.359-16.756-129.833-16.756-129.833s-7.891-39.837-10.37-76.315c7.374-28.44 6.605-58.13 10.072-87.859l-3.86.221c-12.08.844-49.733 4.683-68.936 20.443-26.059 21.406-31.91 115.405-75.337 216.022 0 0-52.636 88.48-69.376 123.587 0 0 3.122 4.787 9.413 8.414 6.072 3.506 13.76 4.893 13.76 4.893s94.932-93.48 101.16-108.254c2.056-4.867 13.54-21.906 27.801-46.99v.002s3.781 133.562-4.518 191.203c-1.757 12.2 4.095 24.253 14.841 30.306 58.614 33.12 234.265 123.334 266.945 35.72 3.656-9.826-60.527-176.681-51.741-212.801 2.808-11.56 6.526-37.905 10.276-68.391 20.097 38.565 39.002 65.658 41.7 71.979 6.245 14.653 101.162 107.306 101.162 107.306s7.672-1.373 13.76-4.854c6.275-3.586 9.412-8.332 9.412-8.332-16.74-34.801-69.376-122.508-69.376-122.508" fill="#b64c41"/><path d="M2336.47 1105.05l-56.129 161.171 56.115-53.054-4.242-16.501s12.9 1.147 18.129-2.223c5.23-3.384 17.417-85.791 17.417-85.791s-11.418-1.918-15.195-2.353c-4.038-.465-16.095-1.25-16.095-1.25M2220.79 1102.056s-11.814 127.393.313 164.171c0 0-34.734-54.996-28.22-66.388l12.577-8.285s-24.296-3.16-19.745-17.114c4.565-13.967 24.078-70.585 24.078-70.585l10.997-1.799" fill="#a53d38"/><path d="M981.384 2362.865h1938.185v-439.467l-1938.185-4.388v443.855M981.384 1567.544v114.92h1938.185v-114.92H981.384" fill="#699ff0"/><path d="M3003.507 1567.549H846.625c-20.435 0-37-16.574-37-37v-8.84c0-20.44 16.565-37 37-37h2156.882c20.444 0 37.008 16.56 37.008 37v8.84c0 20.426-16.564 37-37.008 37" fill="#466aa5"/><path d="M1244.25 1485.027c-.195.12-.4.24-.605.346l.186-.346h.42" fill="#5f9aa8"/><path d="M722.627 2358h-139.48c-1.92-3.24-3-8.547-3.547-14.507-1.413-15.306.613-34.906.613-34.906s46.32-38.667 53.414-9.96c7.08 28.72 45.626 40.88 67.48 43.96 15.266 2.146 20.04 10.546 21.52 15.413" fill="#233862"/><path d="M599.947 2358h-143.68c-5.907-13.093-2.12-49.413-2.12-49.413s46.32-38.667 53.4-9.96c7.08 28.72 45.626 40.88 67.493 43.96a40.57 40.57 0 014.56.906c11.28 2.88 17.373 9.747 20.347 14.507" fill="#233862"/><path d="M519.7 1583.507s.11 5.186.312 14.52c1.297 60.16 6.44 292.746 11.316 422.426.203 4.72.375 9.28.547 13.72l.281 7.027c2.923 62.693 11.425 124.08 20.021 173.173 10.956 62.614 22.084 105.254 22.084 105.254 41.767 8.453 68.836-7.427 68.836-7.427s11.263-97.173 15.546-155.987c1.406-19.08 8.282-84.186 16.91-163.4 6.69-61.24 14.426-130.933 21.522-194.306.374-3.387.733-6.76 1.124-10.08 11.457-102.467 20.944-185.934 20.944-185.934l-73.848-7.026-125.595-11.96" fill="#2b478b"/><path d="M552.177 2214.373l123.376-221.56c6.69-61.24 14.426-130.933 21.522-194.306.374-3.387.733-6.76 1.124-10.08 11.457-102.467 20.944-185.934 20.944-185.934l-73.848-7.026-125.283 2.56 32.165 616.346" fill="#233862"/><path d="M705.496 1603.053s-69.03 341.227-125.277 505.92c-56.248 164.694-56.95 210.44-56.95 210.44s-51.613 11.2-74.352-1.8c0 0-12.993-312.2 21.043-395.12 22.51-54.84 39.73-171.573 33.879-213.613-5.852-42.04-11.314-126.347-11.314-126.347l212.971 20.52" fill="#2b478b"/><path d="M624.08 1137.147l-68.147-19.214s11.574-28.306 15.587-57.826c2.227-16.387 2.133-33.134-3.56-45.614a40.596 40.596 0 00-1.12-2.293c-2.6-4.853-1.013-7.08 2.44-7.613 6.187-1 18.36 3.346 23.507 7.64 7.826 6.52 45.48 25.64 47.44 26.64l.08.04s.066.28.133.813l.013.04c.214 1.32.64 4.107 1.04 7.987 1.907 18.173 3.534 60.44-17.413 89.4" fill="#ffb27d"/><path d="M510.885 1621.293c16.316 11.56 42.027 15.734 70.347 15.294 33.07-.534 69.673-7.36 98.932-16.12 15.739-4.694 29.336-9.947 39.15-15.067 43.714-22.8 37.51-53.133 36.463-166.707-1.062-115.92-72.402-265.773-85.249-290.853-22.865-44.653-125.447-28.173-125.447-28.173-22.505 10.786-30.508 46.746-32.696 93.733-2.438 52.187 2.298 117.973 2.298 177.987 0 49.6-9.362 93.453-16.176 129.826-8.831 47.227-13.379 81.827 12.378 100.08" fill="#699ff0"/><path d="M498.507 1521.213c19.74 41.6 58.609 88.414 82.725 115.374 33.07-.534 69.673-7.36 98.932-16.12 12.315-29.467 17.707-78.667 6.33-159.894-8.675-61.92-71.894-311.026-71.894-311.026-51.044-6.654-82.788 21.146-102.215 63.853-2.438 52.187 2.298 117.973 2.298 177.987 0 49.6-9.362 93.453-16.176 129.826M582.592 1704.76c0-14.427 11.74-26.16 26.17-26.16h38.354c14.43 0 26.17 11.733 26.17 26.16v14.413h-90.694zm154.23 14.413h-46.345v-14.413c0-23.907-19.452-43.36-43.361-43.36h-38.355c-23.909 0-43.361 19.453-43.361 43.36v14.413h-46.344c-13.908 0-25.288 11.374-25.288 25.294v118.013c0 13.907 11.38 25.28 25.288 25.28h217.765c13.91 0 25.29-11.373 25.29-25.28v-118.013c0-13.92-11.38-25.294-25.29-25.294" fill="#4a75cb"/><path d="M641.212 1632.387s26.697 51.48 13.348 71.506c-13.348 20.027-61.021-5.72-64.835-17.16-3.813-11.44 0-66.746 0-66.746l51.487 12.4" fill="#ffb27d"/><path d="M527.017 1229.653s9.932 141.68 9.807 200.294c-.127 58.626 46.517 214.52 46.517 214.52s30.868 2.48 42.98.92c13.956-1.8 22.272-8.214 22.272-8.214s-10.245-184.2 9.302-254.8c19.546-70.586 20.574-212.4 20.574-212.4s-10.858-30.6-75.852-20.946c-77.104 11.466-75.6 80.626-75.6 80.626" fill="#699ff0"/><path d="M554.612 1069.533c-4.92 17.134-11.816 43.587-9.53 50.134 0 0 96.307 10.133 134.807 47.666 0 0-13.933-51.253-29.333-64.72-11.203-9.813-54.503-30.826-77.267-41.546-7.509-3.534-16.385.493-18.677 8.466" fill="#4a75cb"/><path d="M641.493 1047.747c-7.64-.054-55.24.106-68.613 11.413-.48.4-.933.72-1.36.947 2.227-16.387 2.133-33.134-3.56-45.614.48-3.826.947-7.253 1.32-9.906 6.187-1 18.36 3.346 23.507 7.64 7.826 6.52 45.48 25.64 47.44 26.64l.213.853.013.04c.214 1.32.64 4.107 1.04 7.987" fill="#e8945b"/><path d="M672.16 1044.733s-78.739 15.067-87.37-34.106c-8.63-49.187-24.606-80.36 25.3-92.067 49.909-11.693 62.995 5.347 69.869 21.067 6.873 15.706 12.46 99.92-7.799 105.106" fill="#ffb27d"/><path d="M570.61 1031.987s4.097-3.12-11.843-27.28c-15.94-24.16-23.503-17.534-23.699-43.28-.196-25.747-9.775-41.2 20.103-57.96 29.877-16.76 25.118-32.294 43.045-36 17.925-3.72 43.997 11.053 59.379 7.946 15.382-3.12 63.574 59.614 32.706 74.454 0 0-14.338.72-24.409-5.494-10.07-6.213-47.024-12.493-51.344-1.253-4.321 11.227-27.728 80.187-43.937 88.867" fill="#233862"/><path d="M4864.346 2365.654H323.943a3.706 3.706 0 01-3.691-3.694 3.705 3.705 0 013.691-3.692h4540.403c2.03 0 3.703 1.667 3.703 3.692 0 2.028-1.672 3.694-3.703 3.694" fill="#283250"/><path d="M1690.133 1286.613l-41.906-5.973a5.162 5.162 0 01-4.387-5.84l2.68-18.747a5.156 5.156 0 015.827-4.386l41.92 5.973a5.162 5.162 0 014.386 5.84l-2.68 18.747a5.162 5.162 0 01-5.84 4.386" fill="#deedff"/><path d="M1663.987 1277.2l-13.667-1.947 2.613-18.306 13.654 1.946-2.6 18.307M1690.013 1266.893l-17-2.413a2.33 2.33 0 01-1.96-2.613 2.33 2.33 0 012.614-1.974l17 2.427c1.266.187 2.146 1.36 1.96 2.613a2.297 2.297 0 01-2.614 1.96M1690.533 1273.413l-19.826-2.826a.873.873 0 01-.747-.987.873.873 0 01.987-.747l19.84 2.827a.876.876 0 11-.253 1.733M1690.133 1276.253l-19.84-2.826a.886.886 0 01-.746-1 .886.886 0 011-.747l19.826 2.827c.48.066.827.52.747 1a.873.873 0 01-.987.746" fill="#739af0"/><path d="M2368.19 1263.133l-38.573-2.376a4.705 4.705 0 01-4.414-4.992l1.049-17.264a4.718 4.718 0 014.996-4.413l38.588 2.375a4.705 4.705 0 014.414 4.994l-1.064 17.262a4.71 4.71 0 01-4.996 4.414" fill="#deedff"/><path d="M2343.701 1256.476l-12.572-.774 1.035-16.85 12.558.772-1.021 16.852M2366.644 1245.198l-15.652-.962a2.115 2.115 0 01-1.977-2.238 2.129 2.129 0 012.253-1.976l15.638.964a2.09 2.09 0 011.962 2.235 2.094 2.094 0 01-2.224 1.977M2367.59 1251.095l-18.264-1.125a.799.799 0 01-.741-.851.806.806 0 01.857-.753l18.25 1.123c.436.03.785.412.741.853a.794.794 0 01-.842.753M2367.431 1253.704l-18.263-1.125a.8.8 0 01-.741-.851.804.804 0 01.842-.754l18.264 1.124a.8.8 0 01.74.852.795.795 0 01-.842.754" fill="#739af0"/><path d="M2245.56 1401.946a6.067 6.067 0 016.068-6.065c3.351 0 6.052 2.719 6.052 6.065 0 3.348-2.7 6.054-6.052 6.054a6.057 6.057 0 01-6.067-6.054M2245.56 1439.973a6.058 6.058 0 016.068-6.054 6.046 6.046 0 016.052 6.054c0 3.347-2.7 6.067-6.052 6.067a6.068 6.068 0 01-6.067-6.067" fill="#a53d38"/><path d="M4627.725 2095.319s-42.196-49.212-2.596-80.48c0 0 28.916-17.504 52.49-16.078 0 0-33.422 56.012-22.619 61.587 10.833 5.571 32.736-65.108 32.736-65.108s65.8-6.374 86.958 3.801c0 0-56.25 46.025-44.374 48.773 11.817 2.746 72.574-42.44 72.574-42.44s61.265 10.412 58.012 47.785c-3.282 37.362-24.38 48.895-33.66 47.896-9.282-.988-63.533-21.695-64.727-14.11-1.164 7.601 31.483 32.441 54.371 33.602 0 0-43.18 47.627-71.888 33.879-28.708-13.745-31.125-35.532-49.03-43.694-17.904-8.17-33.153-8.159-25.783.176 7.401 8.332 39.78 16.44 49.985 34.533 10.235 18.093 19.427 30.292-10.266 25.825-29.692-4.465-77.946-26.186-80.064-51.065l-2.119-24.882" fill="#82b378"/><path d="M4830.798 2054.16s-166.351-6.413-203.071 41.16c0 0-8.12 24.334-33.134 46.494l-3.912 10.613s28.837-30.387 39.15-32.227c0 0-16.122-58.933 200.967-66.04" fill="#82b378"/><path d="M4594.604 2141.813s-35.707 26.4-38.17 73.585l6.456.575s11.411-48.775 32.025-67.854c20.615-19.08-.311-6.306-.311-6.306" fill="#82b378"/><path d="M4480.215 2033.427s67.094-37.586 35.765-88.586c0 0-25.052-31.32-51.89-39.371 0 0 14.34 76.051 0 77.85-14.311 1.789-9.848-85.904-9.848-85.904s-70.692-34-98.422-31.321c0 0 43.855 74.266 29.543 72.48-14.34-1.788-63.55-76.947-63.55-76.947s-72.479-13.427-84.112 29.519c-11.633 42.962 7.17 64.43 17.91 67.122 10.713 2.678 79.62 1.785 77.835 10.732-1.786 8.947-48.319 23.266-74.264 15.215 0 0 28.623 70.693 66.23 67.105 37.577-3.574 49.21-26.84 72.477-28.626 23.267-1.8 40.256 4.467 28.623 10.732-11.633 6.27-50.997 2.054-69.8 18.028-18.803 15.974-34.007 25.814.893 32.972 34.9 7.161 97.558 2.695 110.056-24.16l12.554-26.84" fill="#a8d29f"/><path d="M4270.82 1904.574s187.915 60.84 209.413 128.851c0 0-.913 30.426 17.873 65.32v13.427s-19.672-45.64-30.407-51.907c0 0 42.054-59.053-196.88-155.691" fill="#82b378"/><path d="M4498.101 2098.747s28.996 44.012 12.47 97.574l-7.47-2.003s7.248-59-7.916-88.678c-15.165-29.668 2.916-6.893 2.916-6.893" fill="#82b378"/><path d="M4586.974 1981.601s-88.445-49.546-47.167-116.774c0 0 33.005-41.294 68.395-51.908 0 0-18.873 100.267 0 102.628 18.872 2.346 12.984-113.239 12.984-113.239s93.185-44.829 129.753-41.28c0 0-57.796 97.892-38.923 95.534 18.872-2.362 83.734-101.441 83.734-101.441s95.54-17.695 110.88 38.932c15.34 56.615-9.421 84.92-23.583 88.453-14.162 3.548-104.992 2.362-102.637 14.162 2.386 11.798 63.714 30.665 97.926 20.054 0 0-37.745 93.185-87.297 88.465-49.521-4.72-64.861-35.387-95.54-37.745-30.68-2.361-53.085 5.891-37.746 14.159 15.34 8.253 67.217 2.706 92.008 23.758 24.76 21.056 44.811 34.028-1.178 43.468-46.018 9.439-128.575 3.548-145.092-31.84l-16.517-35.386" fill="#a8d29f"/><path d="M4863.007 1811.747s-247.715 80.198-276.028 169.853c0 0 1.194 40.092-23.599 86.105v17.695s25.986-60.161 40.127-68.413c0 0-55.462-77.856 259.5-205.24" fill="#82b378"/><path d="M4563.396 2067.706s-38.19 58-16.407 128.615l9.822-2.643s-9.54-77.772 10.44-116.893c19.982-39.118-3.855-9.079-3.855-9.079" fill="#82b378"/><path d="M4583.99 2349.454c95.73 0 173.306-77.587 173.306-173.294h-346.582c0 95.707 77.576 173.294 173.276 173.294" fill="#f1a34f"/><path d="M4626.635 2348.121c-7.039.88-14.22 1.332-21.543 1.332-95.684 0-173.258-77.586-173.258-173.292h43.03c0 88.414 66.221 161.359 151.771 171.96" fill="#ffb973"/><path d="M4759.687 2358.265h-351.37c0-11.811 9.578-21.372 21.375-21.372h308.62c11.797 0 21.375 9.56 21.375 21.372" fill="#f1a34f"/><path d="M4761.23 2181.48h-356.216v-5.32h356.216v5.32" fill="#d86713"/><path d="M4307.22 2338.44s-46.295-52.92-59.402-77.014l-36.017-66.519-47.142 11.667 59.852 84.812 62.495 52.894 20.215-5.84" fill="#ffb27d"/><path d="M4009.075 1038.742c-10.87-6.183-23.908-6.859-33.008-6.32 2.344-2.424 6.956-3.306 6.956-3.306-5.66-.84-18.274 4.767-18.274 4.767-78.632-30.299-90.997 85.482-89.352 112.382 1.646 26.898-26.401 35.68-67.337 56.874-78.033 40.438-84.89 94.585-84.89 94.585.599.359 1.247.77 1.895 1.231 3.89-6.559 11.867-18.88 18.574-20.74-.25.596-7.953 16.963-10.795 26.342 23.01 17.52 66.09 56.334 96.132 83.855-.15-5.373.075-13.014 2.02-17.053l3.714 22.345c16.08 14.762 27.15 25.16 27.15 25.16-1.995-21.747 98.326-136.453 150.631-170.807 12.74-18.753 17.277-51.88 17.601-54.489-2.194 26.267-6.681 41.001-10.695 49.296 44.302-40.78 18.523-187.743-10.322-204.122" fill="#163560"/><path d="M4009.402 1249.77c.246.118-25.263 13.372-44.475 8.12-18.056-4.924-29.864-28.343-29.618-28.394 7.65-1.52 9.865-12.03 9.692-57.196l3.469.682 58.127 11.51s-1.328 18.299-1.352 35.533c-.05 14.474.836 28.2 4.157 29.745" fill="#ffb27d"/><path d="M3943.67 1057.698s28.672-30.535 64.674-1.564c0 0-20.952-3.622-64.675 1.564" fill="#e37970"/><path d="M4006.605 1184.493s-1.327 18.298-1.376 35.534c-32.52-.917-49.727-30.596-56.781-47.045l58.157 11.511" fill="#d68d5d"/><path d="M3942.478 1166.647s-17.066-26.94-21.146-49.977c-2.936-16.444 5.448-77.404 66.721-68.622 0 0 17.788 1.754 34.506 13.048 13.31 8.981 32.49 28.373 11.045 81.569l-5.597 17.97-85.53 6.012" fill="#163560"/><path d="M4238.326 2238.188l-30.812.946-33.361 1.014s-77.044-85.788-120.285-223.308a355.665 355.665 0 00-3.173-9.706c-23.661-68.973-72.701-155.547-98.547-233.906-4.108-12.479-7.8-24.226-11.103-35.345a992.153 992.153 0 01-3.094-10.507c-19.034-66.16-24.546-109.614-29.642-156.028l186.616 1.495s30.11 316.96 143.4 665.345" fill="#80bdcc"/><path d="M4081.824 1592.508s-79.883 40.586-174.842 10.718c-1.127-.358 6.26-367.038 33.18-377.14 6.21 7.715 24.541 15.433 40.969 15.062 18.931-.415 25.042-8.514 24.065-17.351 20.159 11.214 36.236 21.809 36.236 21.809 17.128 29.757 40.392 346.902 40.392 346.902" fill="#f1a34f"/><path d="M3908.324 1475.518c-8.15 11.532-23.795 81.705-62.703 90.532 20.047-50.013 35.281-71.946 37.65-87.318 4.426-28.694 4.523-58.401 2.322-86.416 13.01-22.825 22.731-38.478 22.731-38.478 1.04-3.68 20.7-64.522 27.011-10.147 6.287 54.4-17.894 118.907-27.01 131.827" fill="#5f9aa8"/><path d="M4017.474 1200.811s-76.975 1.271-77.025-46.676c-.05-47.948-10.028-80.078 39.12-82.915 49.15-2.84 58.706 15.447 62.628 31.447 3.898 15.999-4.691 96.578-24.723 98.144" fill="#ffb27d"/><path d="M4014.625 1070.046s-21.083 56.251-53.422 64.568c-32.363 8.318-46.377-.35-46.377-.35s24.802-19.705 29.95-54.108c0 0 53.938-36.883 69.849-10.11" fill="#163560"/><path d="M4009.4 1074.612s15.732 12.56 19.566 24.77c3.834 12.21 5.576 37.344 12.895 36.49 0 0 15.883-38.233-1.966-59.863-18.92-22.935-30.496-1.397-30.496-1.397" fill="#163560"/><path d="M4327.226 1280.39s10.852-39.106 53.83-33.583c4.941 1.547 19.357 7.297 10.151 22.731-6.803 11.38-9.745 5.508-20.436 20.798-10.69 15.291-22.272 18.744-35.527 16.914l-8.018-26.86M3959.796 2330.52c-2.626-14.399-7.609-39.318-7.609-39.318l1.167-88.401h-53.7l20.08 84.613c.438 3.919 1.532 19.173-4.108 35.334 0 0-5.154 23.493 17.989 23.933 23.118.425 28.806-1.748 26.18-16.161" fill="#ffb27d"/><path d="M3961.995 2358.173h-48.128c-2.407-12.586 1.75-35.386 1.75-35.386 26.203 25.374 42.586-.64 42.586-.64 3.914 9.92 3.841 32.32 3.792 36.026M4329.693 2358.334h-59.314c-5.153-4.786-10.094-14.213-16.097-26.533-3.48-7.135-11.29-11.069-19.311-13.228v39.761h-12.299l-11.262-42.293c-7.57-14.227-1.78-27.027 3.533-38.268 6.189-.014 23.986 4.228 55.489 40.614 10.36 11.932 21.781 16.214 33.15 15.839.16.106.319.189.478.255 17.77 8.2 23.694 18.251 25.633 23.853" fill="#c45446"/><path d="M4327.203 1280.392s-50.507 28.25-68.566 36.397c-10.293 4.644-33.964 15.73-50.667 23.572-10.612 4.974-23.218 2.253-30.852-6.651-27.394-32.004-98.673-101.402-171.92-109.913 0 0 44.523 110.016 45.853 132.283 1.303 22.27 5.213 364.107 5.213 364.107s-2.607 15.72 27.527 9.175c30.134-6.561 37.98-13.106 37.98-13.106s-28.804-210.868-20.958-284.214c1.543-14.455.133-30.708-3.112-47.493 44.603 27.131 97.423 39.2 97.423 39.2s39.47-17.215 93.407-56.748c16.942-12.413 46.704-59.75 46.704-59.75l-8.032-26.86" fill="#b64c41"/><path d="M4207.53 2239.133l-33.35 1.012s-77.053-85.785-120.29-223.307a469.355 469.355 0 00-3.175-9.705c-23.67-68.976-72.715-155.547-98.554-233.908-4.104-12.48-7.795-24.228-11.1-35.346a617.959 617.959 0 01-3.097-10.508l27.49-20.852s82.5 133.598 108.029 259.32c22.199 109.2 111.047 240.614 134.047 273.294" fill="#5f9aa8"/><path d="M3968.289 1977.55c.464 61.132-2.593 201.703-10.566 259.89h-29.545c-16.338 0-24.482-.239-24.482-.239-19.983-101.172-34.193-184.894-44.538-257.025-8.487-59.215-16.02-109.96-21.841-153.654-5.821-43.96-9.906-80.787-11.349-111.892-.22-4.894-.39-9.669-.489-14.281a421.767 421.767 0 01-.073-13.56l161.226-15.721c-2.03 107.12-18.588 270.946-18.343 306.481" fill="#80bdcc"/><path d="M3928.17 2237.44c-16.34 0-24.485-.24-24.485-.24-19.979-101.174-34.173-184.892-44.536-257.026-8.483-59.214-16.026-109.96-21.81-153.654-5.855-43.959-9.904-80.785-11.374-111.892l59.163 34.8s-37.763 13.319-23.352 114.174c14.412 100.853 46.343 359.557 66.394 373.839" fill="#5f9aa8"/><path d="M3935.79 1713.64s-11.343 41.027-50.64 35.786c-39.297-5.225-95.18-28.814-95.18-28.814s16.806-53.053 37.68-122.759c.22-.733.44-1.48.661-2.227 24.647-82.306 54.732-187.078 69.726-255.253.318-1.452.612-2.893.93-4.307 4.116-19.227 6.958-35.279 8.012-46.786l33.197-63.2s47.994 109.04 50.616 136.546c2.621 27.508-55.002 351.014-55.002 351.014" fill="#b64c41"/><path d="M3896.542 1358.535l43.614-132.448c-.1.055-54.915 16.087-82.21 29.864 0 0-17.039 21.981-27.57 72.69 0 0-11.151 121.749 13.735 166.269 0 0 78.584 15.72 204.309-27.495v-28.813s-137.522 7.2-165.687 10.466l13.81-90.533" fill="#ffb27d"/><path d="M3930.276 1420.25c-1.736 43.935-11.962 128.667-101.969 175.373 24.648-82.306 54.747-187.08 69.724-255.253 16.328 25.053 33.138 56.708 32.245 79.88" fill="#a53d38"/><path d="M3940.17 1226.087s-80.343 5.57-99.556 48.354c-19.213 42.784-25.326 185.106-.873 227.027 0 0 33.646 9.584 93.2-1.548.728-.145 1.456-.279 2.184-.427 0 0 18.994-46.493 1.965-55.666 0 0-50.19 2.628-44.951-13.96 5.24-16.6 48.032-203.78 48.032-203.78" fill="#b64c41"/><path d="M4034.344 1446.252s10.95-13.282 13.266-26.827c2.366-13.56 9.616-23.615 28.52-26.094 18.905-2.492 27.036-2.76 26.986 2.575-.05 5.332-15.456 42.545-42.592 64.772-27.137 22.213-26.18-14.426-26.18-14.426" fill="#ffb27d"/><path d="M2665.495 1922.825l-216.335-.494c-2.669-15.48-6-28.786-10.12-38.908-5.696-14.012-10.568-35.56-14.723-61.491-2.866-17.828-4.012-85.334-5.266-139.468h500.518v38.133l-6.072-1.947-4.514-1.44-5.373-1.72-22.515-7.187a91.732 91.732 0 00-27.87-4.345c-30.969 0-60.684 15.733-77.79 43.078l-109.94 175.789m-332.15-.761l-27.01-.067c-.27-6.32-.771-12.292-1.523-17.854-2.383-17.039-3.386-33.72-3.386-50.093-.018-9.666.34-19.213.986-28.667 11.427 32.522 21.708 64.974 30.933 96.68m-138.975-.318l-623.898-1.413c-8.187-65.04-24.841-175.242-49.027-230.628 44.96 15 160.52 55.2 237.148 55.2 27.146 0 49.39-5.041 61.893-18.014 13.72-14.226 23.087-29.506 29.446-44.426h325.183c7.45 74.812 17.374 163.16 19.255 239.28m-701.473-1.6l-191.357-.427c42.504-37.746 110.25-99.654 140.37-136.8l50.987 137.227m-271.734-.613l-224.673-.521v-236.546h355.9c-54.253 89-109.54 194.826-131.227 237.067" fill="#b5d1fb"/><path d="M1570.467 1920.333l-77.574-.186-50.986-137.227c6.253-7.72 10.893-14.373 13.346-19.507 19.347-40.626 27.627-79.413 45.934-79.413.893 0 1.813.093 2.76.28 2.56.507 8.68 2.48 17.493 5.427 24.187 55.386 40.84 165.586 49.027 230.626" fill="#a3c2f2"/><path d="M1301.536 1919.72l-80.377-.187c21.686-42.24 76.973-148.066 131.228-237.066h497.546c-6.36 14.92-15.733 30.2-29.453 44.426-12.507 12.974-34.747 18.014-61.893 18.014-76.627 0-192.187-40.2-237.147-55.2-8.813-2.947-14.933-4.92-17.493-5.427a14.254 14.254 0 00-2.76-.28c-18.307 0-26.587 38.787-45.934 79.413-2.453 5.134-7.093 11.787-13.346 19.507-30.12 37.147-97.867 99.053-140.371 136.8" fill="#a5c3f3"/><path d="M2301.734 1922l-107.377-.253c-1.878-76.12-11.79-164.467-19.247-239.28h54.62c10.309 70.906 31.49 175.386 72.004 239.532" fill="#a4c2f3"/><path d="M2306.341 1921.997h-4.598c-40.524-64.147-61.691-168.627-72.006-239.534h17.729c8.928 24.268 17.078 45.586 20.715 54.213 12.394 29.267 23.785 59.029 34.227 88.708-.637 9.453-1.005 19-.99 28.667 0 16.373 1.018 33.053 3.395 50.093.75 5.56 1.26 11.533 1.528 17.853" fill="#a3c1f1"/><path d="M2449.151 1922.332l-115.816-.267c-9.21-31.707-19.503-64.159-30.938-96.68-10.427-29.68-21.817-59.44-34.213-88.708-3.65-8.626-11.795-29.945-20.72-54.211h171.576c1.262 54.132 2.404 121.64 5.274 139.466 4.162 25.934 9.03 47.48 14.725 61.493 4.132 10.12 7.452 23.426 10.112 38.907" fill="#a4c2f3"/><path d="M1417.293 1485.027h-82.386c-.187.12-.4.24-.6.346l.186-.346 8.947-17.04s2.693-1.36 6.747-3.04c8.666-3.6 23.453-8.667 31-5.134 10.32 4.867 33.106 16.174 36.106 25.214" fill="#ffb27d"/><path d="M1350.36 1465.147s-3.493 12.973-15.453 19.88c-.187.12-.4.24-.6.346l.186-.346H1191.05c-4.412-3.894-11.762-11.414-19.034-23.467a132.76 132.76 0 01-6.736-12.707c-7.047-15.226-13.04-35.426-14.818-61.52-3.434-50.413-7.017-133.533-8.98-182.213-.946-23.427-1.522-38.867-1.522-38.867l.009.014c.87.56 56.743 37.506 68.37 151.533 0 0 2.927 91.693 13.167 98.907 10.191 7.2 118.842 36.6 128.682 48.24l.173.2" fill="#aa413e"/><path d="M1121.232 997.547s-7.39-105.387-144.248-65.48c-31.053 9.053-27.017 102.813 48.19 138.506l96.058-73.026" fill="#2b478b"/><path d="M1066.515 1136.68s53.572 9.707 73.44 29.573c19.868 19.867 66.748 78.48 37.253 273.894 0 0-2.365 58.893-68.593 64.573-66.226 5.68-42.1-368.04-42.1-368.04" fill="#b64c41"/><path d="M943.393 1622.667c9.215 64.12 71.018 230.8 69.219 288.413-1.423 45.4-.673 150.28 5.32 219.947 1.648 18.946 3.596 35.2 6.068 47.04 5.319 25.693 12.136 55.293 15.805 73.946 8.167 41.867 3.896 66.294 10.563 88.76 7.343 24.574 91.62 20.08 66.224 5.174-9.064-5.32-22.25-16.627-28.767-31.24-23.672-53.04 9.514-281.747 19.403-369.92 1.273-11.014 2.172-19.774 2.547-25.774 3.296-54.453 40.684-417.28 40.684-417.28-90.795-50.493-216.206 56.8-207.066 120.934" fill="#d9935c"/><path d="M943.393 1622.667c9.215 64.12 71.018 230.8 69.219 288.413-1.423 45.4-.673 150.28 5.32 219.947l89.296-186.24c1.273-11.014 2.172-19.774 2.547-25.774 3.296-54.453 41.62-417.413 41.62-417.413-90.795-50.493-217.142 56.933-208.002 121.067" fill="#cb8757"/><path d="M1140.367 1513.52s-77.976 358.44-86.836 412.253c-8.86 53.814-79.871 307.214-64.394 370.72 9.131 37.454 25.05 48.534 25.05 48.534 3.745 6.866-57.932 20.506-62.914-5.774-6.325-33.373-7.652-80.213-16.917-159.626-15.952-136.72 15.688-214.52 23.357-271.654 7.67-57.146-25.752-238.773-7.202-300.84 32.461-108.626 104.761-153.16 189.856-93.613" fill="#d9935c"/><path d="M1161.356 1829.8c-13.755 5.68-28.972 9.893-44.835 12.933l-.126.027c-15.531 2.987-31.667 4.853-47.636 5.933-22.49 1.52-44.648 1.454-64.347.654l-5.69-66.374-5.995 24.027-10.259 41.147a771.114 771.114 0 01-25.233-2.187c-15.502-1.587-24.96-3.053-24.96-3.053-17.463-144 3.465-234.774 27.137-288.387v-.013c7.496-17 15.267-30.267 22.188-40.294 3.719-5.4 7.184-9.88 10.22-13.48a134.043 134.043 0 016.49-7.186c3.505-3.587 5.605-5.227 5.605-5.227a276.386 276.386 0 0023.797 7.92 260.458 260.458 0 0016.321 4.067l.264.066c3.66.8 7.262 1.494 10.806 2.107 1.317.24 2.625.467 3.924.667 4.168.666 8.238 1.226 12.212 1.666 22.92 2.64 42.442 1.974 56.478.574 12.086-1.2 20.11-2.947 22.735-3.56.625-.147.947-.227.947-.227l.106 3.667 1.904 62.6 7.947 261.933M1026.96 2358.227h-73.693c-5.694-10.334-13.267-41.254-19.054-47.72a26.684 26.684 0 01-1.333-1.587l-.587 49.307h-6.626c-.16-10.507-.974-47.267-4.587-67.92-3.947-7.52-6.76-14.814-5.533-17.894 2.56-6.4 26.162-20.64 26.162-20.64s17.464 87.347 25.718 89.427c19.693 4.96 39.493 3.12 45.106 2.44 1.027-.133 9.894 3.827 13.227 9.107 1.093 1.733 1.653 3.586 1.2 5.48" fill="#b64c41"/><path d="M1125.6 2358.227h-73.693c-5.627-10.2-13.094-40.48-18.854-47.44l-.573 47.44h-6.627c-.013-1.4-.053-3.254-.093-5.48-.293-13.467-1.2-40.267-3.827-58.374-5.04-8.826-9.2-18.32-7.746-21.96 2.546-6.4 25.625-20.506 25.625-20.506s.095.773.348 2.026c.027.187.067.374.107.574.04.24.093.506.146.786.04.2.08.387.12.6 3.36 16.894 17.027 83.174 25.534 85.307 22.466 5.653 45.066 2.467 46.6 2.24l.08-.013s14.666 7.12 12.853 14.8" fill="#b64c41"/><path d="M1165.279 1448.853a715.322 715.322 0 01-7.096 34.267c-.156.653-.303 1.293-.45 1.907-2.986 12.613-5.114 19.88-5.114 19.88-.371.133-.742.24-1.114.36-.174.066-.34.12-.506.173-.323.107-.635.213-.947.307a234.548 234.548 0 01-14.896 4.253c-27.185 6.773-51.247 7.347-71.307 5.053-10.942-1.253-20.704-3.36-29.128-5.786a121.756 121.756 0 01-5.613-1.72l-.253-.067a161.348 161.348 0 01-12.447-4.64c-11.235-4.693-17.56-8.933-18.097-9.293l-.039-.027c.937-2.293 1.747-5.147 2.421-8.493 1.288-6.307 2.118-14.374 2.596-23.814.84-16.333.586-36.746-.302-59.2-.02-.653-.05-1.306-.07-1.96-1.141-28.16-3.24-59.373-5.417-89.68-1.668-23.28-3.377-46.013-4.744-66.413-.419-6.267-.81-12.293-1.141-18.053-1.904-32.187-2.42-55.907.44-62.134 4.342-9.453 17.804-15.186 32.133-18.666 2.05-.494 4.13-.947 6.19-1.36.282-.067-.613-2.32-.33-2.374 1.981-.386 5.132 1.467 7.075 1.174.829-.134 1.649-.267 2.469-.387 12.865-1.907 23.955-2.307 26.727-2.373.429-.027.664-.027.664-.027s9.068 4.427 21.962 13.56c.976.693 13.595-7.52 14.611-6.76 14.71 10.76 32.155 30.24 40.263 56.587 10.997 35.733 27.172 53.413 30.548 88.693 5.486 57.32-1.582 115.84-9.088 157.013" fill="#e7f0fd"/><path d="M949.887 1511.347c27.417 5.613 71.166 2.773 103.604-6.52 10.786-3.067 20.301-6.894 27.493-11.307 28.99-17.84 43.075-149.827 38.055-199.8-4.944-49.893-88.991-152.347-88.991-152.347-20.601 15.28-29.67 50.84-42.032 97.507-29.74 112.307-38.13 272.467-38.13 272.467" fill="#b64c41"/><path d="M949.887 1511.347c27.417 5.613 71.166 2.773 103.604-6.52 11.91-16.934 21.425-37.6 26.518-62.854 14.758-72.813-43.449-151.853-91.993-203.093-29.74 112.307-38.13 272.467-38.13 272.467" fill="#aa413e"/><path d="M1124.468 1400.44l-64.597-46.627c-7.992-5.76-19.251-3.946-25.02 4.04l-72.046 99.827c-5.769 7.987-3.949 19.253 4.043 25.013l64.597 46.627c7.992 5.773 19.251 3.947 25.02-4.04l72.046-99.827c5.768-7.986 3.949-19.24-4.043-25.013" fill="#233862"/><path d="M1067.223 1450.44s31.577-3.2 35.48 2.12c3.902 5.333.354 25.907-17.386 28.04-17.738 2.12-37.961-12.427-37.961-12.427l19.867-17.733" fill="#da935b"/><path d="M1030.048 1141.373s-56.128 6.6-80.473 57.174c-24.348 50.56-50.567 180.733-44.012 192.893 6.554 12.173 85.213 77.733 149.825 86.16 0 0 14.047-17.8 13.11-33.72 0 0-87.086-54.307-94.578-69.293-7.49-14.974 66.485-139.52 65.55-161.054-.937-21.546-9.422-72.16-9.422-72.16" fill="#b64c41"/><path d="M1093.339 976.64s32.912 4.04 34.792 42.04c0 0 14.409-60.227-37.732-59.013-52.143 1.213 2.94 16.973 2.94 16.973" fill="#2b478b"/><path d="M1103.556 1146.56c0-.04-2.97-31.787-2.276-39.96v-.013c.373-4.2.8-6.68.8-6.68l-.8-.24-65.92-20.08c-.027.52-.04 1.053-.067 1.573-.84 17.813-1.866 31.627-2.973 42.36-.133 1.4-.28 2.747-.427 4.04-.6 5.453-1.226 10.013-1.84 13.813 12.76 5.574 23.307 9.414 32.04 11.947 23.654 6.88 33.894 4.133 38.28 0 3.68-3.467 3.263-6.227 3.183-6.76" fill="#ffb27d"/><path d="M1096.072 1099.667v6.933s-37.97.427-63.745 16.907c1.098-10.72 2.121-24.534 2.968-42.347l60.777 18.507" fill="#e8945b"/><path d="M1114.275 1104.427s-79.876 16.053-89.102-33.854c-9.222-49.893-25.745-81.426 24.864-93.773 50.61-12.36 64.066 4.84 71.195 20.747 7.13 15.906 13.583 101.426-6.957 106.88" fill="#ffb27d"/><path d="M1087.165 965.72s22.578 28.293-18.622 54.173c-41.2 25.867-38.04 77.6-27.09 92.147 0 0-82.017-80.027-44.021-127.72 37.995-47.693 89.733-18.6 89.733-18.6" fill="#2b478b"/><path d="M2647.142 2236.854c0 18.213-14.779 32.987-33 32.987-18.222 0-32.984-14.774-32.984-32.987 0-18.227 14.762-32.986 32.984-32.986 18.221 0 33 14.76 33 32.986" fill="#d86713"/><path d="M2660.138 2236.852c0 18.215-14.77 32.987-32.999 32.987-18.213 0-32.982-14.772-32.982-32.987 0-18.226 14.77-32.986 32.982-32.986 18.23 0 33 14.76 33 32.986" fill="#f1a34f"/><path d="M2866.93 2324.747c0 18.227-14.774 33-32.995 33-18.222 0-32.996-14.773-32.996-33 0-18.213 14.774-32.987 32.996-32.987 18.221 0 32.996 14.774 32.996 32.987" fill="#d86713"/><path d="M2879.927 2324.747c0 18.226-14.77 32.999-33.004 32.999-18.216 0-32.987-14.773-32.987-33 0-18.213 14.771-32.988 32.987-32.988 18.234 0 33.004 14.775 33.004 32.989" fill="#f1a34f"/><path d="M2588.238 2201.094l36.493 33.933a42.403 42.403 0 0012.614 8.12l245.786 102.214 45.675-32.866-340.568-111.4M3105.752 1832.558l-11.715-8.08c53.884-77.985 158.07-231.626 166.624-254.905 5.415-14.668 5.455-26.922.121-36.414-8.575-15.228-28.502-19.294-28.703-19.334l-.745-.187-54.589-16.866c-62.499-24.893-89.23 24.173-90.336 26.266l-.383.628-145.851 220.385-11.856-7.852 145.67-220.107c1.39-2.547 9.561-16.56 25.704-27.428 16.083-10.839 43.377-20.519 82.044-5.213l53.442 16.493c3.603.775 26.75 6.387 37.922 26.121 7.548 13.32 7.85 29.601.926 48.428-11.353 30.758-161.874 248.8-168.275 258.065" fill="#d86713"/><path d="M3089.266 1777.136l120.743 82.92s31.822 32.133-4.693 96.345c-32.12 56.508-204.156 377.067-204.156 377.067s-35.84 66.706-175.298-16.774l263.404-539.558" fill="#d86713"/><path d="M3123.286 1900.117l-195.194 357.922c-7.908 14.48-19.192 26.052-32.404 34.172-24.457 15.055-55.491 18.309-83.671 6.454l-122.807-51.653-3.047-1.267-76.902-32.346a92.205 92.205 0 01-25.286-15.855c-22.799-20.171-33.986-50.52-30.167-80.346 1.62-12.694 5.941-25.28 13.232-36.96l208.387-333.202c22.259-35.532 65.734-51.48 105.66-38.732l22.528 7.187 5.363 1.72 4.532 1.439 75.281 24.04 9.22 2.948 72.639 23.2c11.399 3.639 21.525 9.265 30.166 16.319.579.467 1.138.933 1.697 1.427l3.453 3.106c28.932 27.533 37.978 72.507 17.32 110.427" fill="#f1a34f"/><path d="M2553.42 2120.72c.439-7.854 2.04-15.56 5.006-22.774a91.945 91.945 0 00-4.63 19.254c-.141 1.174-.283 2.346-.377 3.52" fill="#958998"/><path d="M2847.523 2305.852c-11.884 0-23.929-2.318-35.512-7.186l-122.809-51.653-3.038-1.267-76.904-32.346a92.529 92.529 0 01-21.034-12.32 95.638 95.638 0 01-4.263-3.534c-17.978-15.906-32.261-47.412-30.538-76.828.106-1.172.23-2.345.373-3.519a91.28 91.28 0 014.637-19.254c.017-.039.017-.065.053-.106 0 0 260.523 107.48 311.117 139.014 26.08 16.266 26.08 39.372 26.08 55.36a91.985 91.985 0 01-48.162 13.639" fill="#e78b37"/><path d="M2913.484 1718.67c-.68.094-72.301 10.4-92.785 37.613-21.038 27.986-228.235 370.345-230.326 373.799-.16.28-16.623 34.88 1.34 73.6l-3.503-2.6a85.708 85.708 0 01-4.254-3.534c-15.783-38.959 1.34-68.76 2.11-70.053 8.543-14.133 209.43-346.052 230.611-374.225 18.572-24.68 70.389-35.04 86.904-37.773l5.38 1.719h.018l4.505 1.453M2998.005 1745.64c-10.54 2.026-51.868 12.385-77.25 53.305-29.777 48-219.81 407.802-221.723 411.427l-.147.267-.184.213c-.129.16-13.114 18.428-6.4 37.468l-3.09-1.308-3.036-1.265c-5.738-19.787 6.714-35.748 8.516-37.96 5.904-11.121 192.24-363.868 221.779-411.481 21.887-35.254 55.141-48.774 72.301-53.613l9.234 2.946M3105.954 1789.692c-.305.04-14.958 1.652-30.069 8.84-15.11 7.199-33.765 20.253-48.285 43.68-29.764 47.96-212.958 409.227-214.806 412.853l-.133.293-.21.227c-.133.16-10.919 22.441-4.23 41.48l-7.737-3.252c-4.23-16.587 6.022-38.935 7.965-41.267 5.87-11.547 185.348-365.388 214.883-412.987 27.763-44.774 68.94-53.122 77.496-54.402.572.467 1.125.934 1.677 1.427l3.45 3.108" fill="#d86713"/><path d="M3169.524 2234.734s-26.21 24.279-21.092 41.534c5.117 17.252 28.758 28.76 31.949 49.852 3.19 21.08 15.974 32.587 27.474 32.587h54.847s8.469-14.84-11.981-19.32c-20.45-4.467-28.156-29.254-26.892-52.252 1.285-23.015-1.906-53.682-1.906-53.682l-43.469-10.227-8.93 11.508M3644.55 2358.666h-145.626c-1.274-.266-2.236-.547-2.84-.854-9.703-4.852-6.685-41.986-5.5-53.492.224-2.133.38-3.387.38-3.387s51.136-40.893 58.156-9.574c.224.974.492 1.934.76 2.882 8.833 29.292 48.542 42.612 71.46 46.319 17.486 2.84 22.024 13 23.21 18.106" fill="#233862"/><path d="M3615.253 1520.268s-7.763 96.866-16.9 213.317c-12.4 158.189-27.304 352.494-28.79 389.308-2.55 63.908-12.797 166.16-12.797 166.16s-24.265 24.28-72.838 14.052c0 0-43.294-145.958-55.67-300.385-.178-2.533-.377-5.08-.555-7.628-11.51-157.212-29.387-488.252-29.387-488.252l216.937 13.428" fill="#2b478b"/><path d="M3615.253 1520.268s-7.763 96.866-16.9 213.317l-170.095 269.135c-.178-2.533-.377-5.08-.555-7.628-11.51-157.212-29.387-488.252-29.387-488.252l216.937 13.428" fill="#233862"/><path d="M3579.784 1531.76s-139.94 350.853-231.983 515.72c-92.02 164.881-120.768 210.894-120.768 210.894s-52.73-21.095-57.518-35.467c0 0 35.182-318.306 96.807-395.893 34.832-43.84 75.747-175.427 77.658-221.44 1.91-46.014 12.452-137.065 12.452-137.065l223.352 63.252" fill="#2b478b"/><path d="M3721.308 1434.908l8.003 15.947s40.683 5.68 29.489 48.094c0 0-6.037 17.44-17.254 11.918-11.218-5.518-5.69-5.053-21.764-12.48-16.075-7.424-25.396-21.706-21.788-34.8l-2.567-13.88 25.881-14.8" fill="#ab7041"/><path d="M3508.017 990.208c6.22-36.742 6.416-58.516 6.416-58.516l-71.03-57.228c2.654 78.69-47.78 116.526-47.78 116.526s94.626 46.578 149.323 29.328c0 0-13.462-17.212-36.929-30.11" fill="#9c5f33"/><path d="M3531.132 930.393s-90.321 15.01-98.804-41.393c-8.483-56.4-25.84-92.447 31.467-104.413 57.328-11.967 71.786 7.866 79.2 26.002 7.414 18.139 11.426 114.446-11.863 119.804" fill="#ab7041"/><path d="M3432.934 892.891s1.82-75.55 84.14-87.674c56.364-8.305 22.23-55.415 15.785-62.877 0 0-43.1 8.223-87.21 17.904-92.58 20.32-22.515 121.414-12.715 132.647" fill="#233862"/><path d="M3711.85 1457.067c12.068-12.388 21.046-28.522 21.046-28.522s-102.644-127.516-110.98-140.739c-8.359-13.223-70.696-225.334-70.696-225.334l-157.629-31.933s131.59 271.454 153.393 304.54c36 54.695 143.773 136.081 143.773 136.081s11.611-4.36 21.092-14.093" fill="#4a75cb"/><path d="M3621.26 1528.335c-1.622 1.361-3.556 2.188-5.735 2.188-20.542-.28-80.434 11.134-131.1 5.92-42.707-4.093-80.523-16.747-121.14-34.946-5.38-2.427-17.807-9.041-17.518-15.08.178-6.586.845-16.162 1.667-28.213 2.868-41.92 7.87-114 3.001-197.175a846.181 846.181 0 01-1.4-45.97c-.423-112.717 21.542-212.416 66.472-245.97 3.824-2.75 27.745 9.319 49.399 19.992 19.986 9.864 33.97 9.635 52.867 5.812l24.9 18.016c23.009 21.36 48.197 50.395 59.157 94.482 9.315 37.516 14.784 105.171 17.808 175.279 1.356 31.769 2.468 63.813 2.734 94.213v1.093c.267 3.013.267 6.308.267 9.32 1.112 78.04 0 139.935-1.378 141.04" fill="#739af0"/><path d="M3347.437 1458.201c2.87-41.921 7.886-114 2.997-197.173a885.69 885.69 0 01-1.403-45.973c18.706-45.384 34.01-78.297 34.01-78.297h47.146s34.584 236.15-82.75 321.443" fill="#4a75cb"/><path d="M3255.69 1472.879l-8.952 15.428s17.543 37.133-24.071 51.013c0 0-17.884 4.52-19.426-7.894-1.542-12.4 1.102-7.532-1.502-25.053-2.583-17.521 4.266-33.12 17.183-37.293l10.193-9.76 26.575 13.559" fill="#ab7041"/><path d="M3231.957 1477.09c16.986 3.307 35.4 1.973 35.4 1.973s50.406-155.74 56.906-169.968c6.48-14.225 149.745-182.61 149.745-182.61l-59.676-149.352s-154.945 258.824-170.674 295.193c-26.002 60.096-35.039 194.845-35.039 194.845s9.996 7.32 23.338 9.919" fill="#739af0"/><path d="M3961.606 1341.636l-29.456 7.735c-1.97.52-4.013-.666-4.548-2.654l-3.454-13.173a3.73 3.73 0 012.651-4.532l29.456-7.735a3.704 3.704 0 014.524 2.647l3.479 13.18c.51 1.973-.681 4.014-2.652 4.532" fill="#deedff"/><path d="M3941.622 1342.695l-9.6 2.52-3.361-12.865 9.576-2.52 3.385 12.865M3956.014 1328.601l-11.945 3.137a1.675 1.675 0 01-2.04-1.185 1.65 1.65 0 011.19-2.03l11.946-3.136a1.65 1.65 0 012.015 1.185 1.655 1.655 0 01-1.166 2.03M3958.17 1332.78l-13.94 3.66c-.34.095-.68-.12-.777-.452a.657.657 0 01.461-.775l13.94-3.657c.34-.088.68.114.778.452a.65.65 0 01-.461.772M3958.692 1334.773l-13.942 3.653a.608.608 0 01-.753-.451.622.622 0 01.437-.775l13.942-3.653c.34-.093.68.119.778.454a.654.654 0 01-.462.772" fill="#739af0"/><path d="M2787.69 1285.447l-42.882 199.26h167.153l37.383-199.26H2787.69" fill="#699ff0"/><path d="M2793.438 1291.788l-38.736 179.985h150.976l33.777-179.985h-146.017" fill="#afcdfb"/><path d="M2919.647 1306.244H2804.75a3.854 3.854 0 00-3.856 3.85 3.857 3.857 0 003.856 3.848h114.896c2.116 0 3.856-1.734 3.856-3.849 0-2.118-1.74-3.849-3.856-3.849M2913.786 1324.388h-114.915a3.862 3.862 0 00-3.849 3.849 3.864 3.864 0 003.849 3.85h114.915a3.864 3.864 0 003.849-3.85 3.862 3.862 0 00-3.849-3.849M2910.122 1341.795h-114.897c-2.127 0-3.861 1.734-3.861 3.84a3.867 3.867 0 003.861 3.854h114.897a3.867 3.867 0 003.862-3.854c0-2.106-1.735-3.84-3.862-3.84M2904.804 1377.697h-114.918c-2.106 0-3.837 1.733-3.837 3.853s1.731 3.854 3.837 3.854h114.918a3.863 3.863 0 003.855-3.854c0-2.12-1.731-3.853-3.855-3.853M2898.944 1395.844h-114.918a3.858 3.858 0 00-3.847 3.852 3.848 3.848 0 003.847 3.842h114.918c2.12 0 3.847-1.72 3.847-3.842a3.858 3.858 0 00-3.847-3.852M2895.28 1413.251h-114.898c-2.117 0-3.86 1.733-3.86 3.853 0 2.107 1.743 3.84 3.86 3.84h114.898c2.134 0 3.86-1.733 3.86-3.84a3.86 3.86 0 00-3.86-3.853" fill="#699ff0"/><path d="M2716.57 1396.475l-24.875 82.468 4.574 1.372 24.875-82.468-4.575-1.372" fill="#a53d38"/><path d="M2694.87 1470.998c-8.551 0-15.588 5.974-16.653 13.706h33.32c-1.08-7.732-8.117-13.706-16.668-13.706" fill="#b64c41"/><path d="M2716.706 1482.493c-6.366 0-12.716-1.053-13.218-1.147l.184-1.08c6.366 1.093 23.321 2.747 25.214-2.6.855-2.36.068-6.346-1.021-11.866-1.977-10.04-4.976-25.213-1.458-46.387 2.748-16.573.704-21.587-1.508-22.88-2.312-1.36-5.411 1.12-5.445 1.147l-.687-.868c.134-.119 3.736-2.958 6.685-1.226 3.652 2.134 4.34 10.213 2.044 24.013-3.502 20.975-.52 36.028 1.458 45.988 1.105 5.693 1.926 9.8.971 12.453-1.24 3.534-7.237 4.453-13.219 4.453" fill="#b64c41"/><path d="M2424.587 1592.51l9.81 19.868 21.926 3.186-15.868 15.467 3.752 21.84-19.62-10.307-19.606 10.307 3.738-21.84-15.869-15.467 21.926-3.186 9.81-19.867M2512.545 1592.509l9.818 19.865 21.915 3.188-15.875 15.465 3.762 21.84-19.62-10.306-19.621 10.306 3.746-21.84-15.859-15.465 21.931-3.188 9.803-19.865M2605.525 1592.507l9.789 19.867 21.939 3.186-15.872 15.467 3.754 21.84-19.61-10.307-19.626 10.306 3.754-21.839-15.872-15.467 21.923-3.186 9.821-19.867M2698.826 1592.504l9.8 19.867 21.928 3.186-15.864 15.467 3.736 21.84-19.6-10.308-19.616 10.308 3.752-21.84-15.88-15.467 21.928-3.186 9.816-19.867M2779.752 1592.504l9.797 19.866 21.94 3.186-15.868 15.467 3.743 21.84-19.612-10.306-19.611 10.306 3.743-21.84-15.869-15.467 21.923-3.186 9.814-19.866" fill="#f1a34f"/></svg>