<svg xmlns="http://www.w3.org/2000/svg" height="666.667" width="1000"><defs><clipPath id="a" clipPathUnits="userSpaceOnUse"><path d="M6447.15 3405.56H4161.2v1231.57h2285.95z"/></clipPath><clipPath id="c" clipPathUnits="userSpaceOnUse"><path d="M0 526v4474h7500V526z"/></clipPath><linearGradient id="b" spreadMethod="pad" gradientTransform="matrix(0 1112.88 1112.88 0 5304.18 3270.84)" gradientUnits="userSpaceOnUse" y2="0" x2="1" y1="0" x1="0"><stop offset="0" stop-color="#13adc7"/><stop offset=".099" stop-color="#13adc7"/><stop offset="1" stop-color="#24b5a3"/></linearGradient></defs><path d="M0 563.081h1000V0H0z" fill="#f5e7d6"/><path d="M0 563.081v33.367h1000V563.08H0" fill="#d58c3c"/><path d="M0 596.448v70.219h1000v-70.22H0" fill="#f7b563"/><path d="M274.675 123.504c-19.604 0-35.554-15.95-35.554-35.555 0-19.604 15.95-35.553 35.554-35.553 19.604 0 35.553 15.95 35.553 35.553 0 19.606-15.95 35.555-35.553 35.555M377.077 123.504c-19.604 0-35.553-15.95-35.553-35.555 0-19.604 15.95-35.553 35.553-35.553 19.604 0 35.554 15.95 35.554 35.553 0 19.606-15.95 35.555-35.554 35.555M479.48 123.504c-19.604 0-35.553-15.95-35.553-35.555 0-19.604 15.949-35.553 35.553-35.553 19.605 0 35.553 15.95 35.553 35.553 0 19.606-15.948 35.555-35.553 35.555" fill="#ead1b5"/><path d="M245.172 351.313h129.045V166.067H245.172zM490.617 351.313H385.783V166.067h129.046v146.126h-32.548v6.556h8.336v32.564" fill="#fdf8f3"/><path d="M305.94 83.624c0 18.53-15.023 33.553-33.553 33.553-18.532 0-33.555-15.022-33.555-33.553 0-18.53 15.023-33.553 33.555-33.553 18.53 0 33.553 15.022 33.553 33.553" fill="#fff"/><path d="M258.041 99.303c-.341 0-.682-.131-.942-.392a1.33 1.33 0 010-1.884l13.954-13.955V57.393a1.333 1.333 0 112.667 0v26.783l-14.736 14.735c-.26.261-.601.392-.943.392" fill="#333436"/><path d="M408.343 83.624c0 18.53-15.023 33.553-33.554 33.553-18.532 0-33.553-15.022-33.553-33.553 0-18.53 15.021-33.553 33.553-33.553 18.531 0 33.554 15.022 33.554 33.553" fill="#fff"/><path d="M390.596 106.847c-.415 0-.821-.192-1.083-.554l-16.469-22.809 14.04-14.04a1.332 1.332 0 011.885 0c.522.52.522 1.364 0 1.885l-12.434 12.435 15.14 20.97a1.332 1.332 0 01-1.079 2.113" fill="#333436"/><path d="M510.745 83.624c0 18.53-15.021 33.553-33.553 33.553-18.53 0-33.553-15.022-33.553-33.553 0-18.53 15.022-33.553 33.553-33.553 18.532 0 33.553 15.022 33.553 33.553" fill="#fff"/><path d="M272.387 52.07c-17.399 0-31.554 14.155-31.554 31.554s14.155 31.553 31.554 31.553c17.398 0 31.553-14.154 31.553-31.553s-14.155-31.553-31.553-31.553zm0 67.107c-19.604 0-35.554-15.949-35.554-35.553 0-19.605 15.95-35.553 35.554-35.553 19.604 0 35.553 15.948 35.553 35.553 0 19.604-15.95 35.553-35.553 35.553M374.79 52.07c-17.4 0-31.554 14.155-31.554 31.554s14.155 31.553 31.553 31.553c17.399 0 31.554-14.154 31.554-31.553s-14.155-31.553-31.554-31.553zm0 67.107c-19.605 0-35.554-15.949-35.554-35.553 0-19.605 15.95-35.553 35.553-35.553 19.604 0 35.554 15.948 35.554 35.553 0 19.604-15.95 35.553-35.554 35.553M477.192 52.07c-17.399 0-31.553 14.155-31.553 31.554s14.154 31.553 31.553 31.553 31.553-14.154 31.553-31.553-14.154-31.553-31.553-31.553zm0 67.107c-19.604 0-35.553-15.949-35.553-35.553 0-19.605 15.949-35.553 35.553-35.553s35.553 15.948 35.553 35.553c0 19.604-15.949 35.553-35.553 35.553" fill="#feedd5"/><path d="M487.121 95.613c-.357 0-.713-.142-.976-.424l-9.44-10.132-25.018 4.207a1.334 1.334 0 11-.443-2.63l26.435-4.443 10.417 11.181a1.332 1.332 0 01-.975 2.241" fill="#333436"/><path d="M864.1 220.216h-94.076c.035-.72.07-1.437.108-2.156 1.188-22.24-10.013-41.84-26.16-49.267-3.827-1.76-7.919-2.84-12.199-3.106l-.308-.014a39.832 39.832 0 00-1.873-.046c-.484 0-.97.009-1.46.033-9.573.44-19.16 1.907-28.185 4.467a34.331 34.331 0 00-4.68 1.693c-13.494 5.92-23.575 20.08-26.174 37.427a431.823 431.823 0 00-1.498 10.969h-108.29V56.008H864.1v164.208" fill="#ead1b5"/><g clip-path="url(#a)" transform="matrix(.13333 0 0 -.13333 0 666.667)"><path d="M6447.15 3405.56H4161.2v1231.57h2285.95V3405.56" fill="url(#b)"/></g><path d="M556.743 210.673h300.961V50.3H556.743zm302.877 3.835H554.827a1.918 1.918 0 01-1.919-1.917V48.383c0-1.059.86-1.918 1.919-1.918H859.62c1.059 0 1.919.859 1.919 1.918V212.59c0 1.06-.86 1.917-1.919 1.917" fill="#17282f"/><g clip-path="url(#c)" transform="matrix(.13333 0 0 -.13333 0 666.667)"><path d="M1304.49 3421.54c-456.775-220.64-763.99-687.83-873.013-1183.3-79.868-362.98-78.45-787.33 10.156-1165.77-31.164 434.03 46.281 877.99 186.582 1308.11 17.351 38.81 44.879 71.2 62.226 110.01 102.657 362.07 301.192 691.4 593.889 915.71 6.69 6.48 13.33 11.58 19.86 15.02l.3.22" fill="#205a48"/><path d="M690.441 2490.59c-17.347-38.81-44.875-71.2-62.226-110.01-140.301-430.12-217.746-874.08-186.582-1308.11 21.363-91.24 47.722-179.849 79.316-264.251 46.09 34.992 15.586 207.821 16.524 265.831 1.683 103.91 7.332 207.74 16.859 311.23 33.574 364.54 115.316 724.56 241.738 1068.1 63.985 173.87 139.426 343.54 225.88 507.41a4109.175 4109.175 0 00134.29 235.44c27.76 45.12 79.35 162.93 128.09 210.07-292.697-224.31-491.232-553.64-593.889-915.71" fill="#163e32"/><path d="M899.266 4147.45c-413.141-294.34-637.371-806.56-661.477-1313.32-17.66-371.24 55.137-789.3 206.152-1147.44-103.738 422.6-102.097 873.25-36.168 1320.86 10.579 41.17 32.258 77.74 42.829 118.91 130.445 355.89 231.187 672.83 431.351 1002.57 5.516 7.52 11.203 13.66 17.051 18.15l.262.27" fill="#205a48"/><path d="M407.773 3007.55c-65.929-447.61-67.57-898.26 36.168-1320.86 36.407-86.35 77.305-169.25 122.649-247.13 39.543 42.24-19.606 207.48-28.438 264.81-15.828 102.72-27.726 206.03-35.742 309.63-28.246 364.99-8.238 733.64 58.578 1093.55 33.817 182.16 79.637 362.1 137.285 538.18 28.122 85.88 59.047 170.84 92.77 254.68 19.77 49.15 50.801 173.95 90.91 228.62-250.773-270.36-463.601-1080.31-474.18-1121.48" fill="#163e32"/><path d="M-394.895 3529.07c342.567-133.36 605.489-536.23 732.415-1003.09 92.988-342 135.273-759.14 111.793-1147.11-22.438 432.08-121.985 854.1-264.165 1251.03-16.117 34.96-38.707 61.76-54.824 96.72-108.863 336.95-281.566 624.24-509.535 791.16-5.352 5.14-10.527 8.94-15.449 11.12l-.235.17" fill="#205a48"/><path d="M130.324 2726.62c16.117-34.96 38.707-61.76 54.824-96.72 142.18-396.93 241.727-818.95 264.165-1251.03-5.665-93.53-15.098-185.4-28.622-274.08-35.867 25.97-32.121 201.33-38.699 258.14a5506.989 5506.989 0 01-43.558 302.67c-60.707 351.99-154.707 690.76-278.329 1005.17-62.57 159.13-132.734 312.04-210.027 457.24-37.699 70.82-77.09 139.81-118.113 206.78-24.055 39.26-72.219 145.57-111.176 182.99 227.969-166.92 400.672-454.21 509.535-791.16" fill="#163e32"/><path d="M794.969 520.648H427.988c-200.261 0-362.61 162.352-362.61 362.622v729.59H1157.58V883.27c0-200.27-162.346-362.622-362.611-362.622" fill="#fff"/><path d="M863.594 1169.45c98.398 134.18 132.672 284.38 131.676 443.41H65.379V883.27c0-60.379 14.836-117.258 40.937-167.329 290.903 31.7 573 214.629 757.278 453.509" fill="#fff"/><path d="M995.27 1612.86c.996-159.03-33.278-309.23-131.676-443.41-184.278-238.88-466.375-421.809-757.278-453.509 60.477-116.019 181.782-195.293 321.672-195.293h366.981c200.265 0 362.611 162.352 362.611 362.622v729.59H995.27" fill="#e7edec"/></g><path d="M1000 629.92c-56.473-1.575-138.655-2.565-230.161-2.565-170.302 0-308.359 3.43-308.359 7.664 0 4.233 138.057 7.664 308.359 7.664 91.506 0 173.688-.99 230.161-2.564v-10.2M444.907 628.15c0 3.383-80.904 6.126-180.706 6.126-99.801 0-180.706-2.743-180.706-6.127s80.905-6.128 180.706-6.128c99.802 0 180.706 2.744 180.706 6.128" fill="#d58c3c"/><path d="M350.433 81.22c-.653-.356-5.6-1.205-6.078-1.244a24.537 24.537 0 00-6.411.328c-3.796.704-7.25 2.427-9.75 5.43-1.589 1.911-2.711 4.218-3.166 6.665-5.385.602-10.159 4.892-11.33 10.182-1.17 5.291 1.346 11.194 5.975 14.012-3.054-.205-6.21.942-8.286 3.188-2.076 2.248-2.967 5.586-2.111 8.523 1.224 4.193 5.37 6.692 9.01 9.103 5.067 3.357 9.9 7.481 12.44 13.004.55 1.198 1.05 2.53 2.157 3.248 1.82 1.181 4.228.117 6.038-1.078 8.068-5.325 14.204-13.141 22.047-18.792 3.796-2.734 7.952-4.933 11.785-7.614 3.832-2.683 7.415-5.955 9.447-10.168 2.01-4.171 2.34-9.122.901-13.522-1.437-4.4-4.629-8.198-8.714-10.376-.614-.326-1.274-.641-1.667-1.213-.47-.684-.457-1.573-.488-2.403-.195-5.36-3.361-10.749-8.364-12.682-5.004-1.935-11.53.444-13.365 5.484l-.07-.075" fill="#f03e26"/><path d="M351.012 86.867c-.359-.331-5.45-1.128-5.928-1.155a21.802 21.802 0 00-6.168.524c-3.541.82-6.684 2.823-8.699 5.896a13.003 13.003 0 00-1.916 4.72c-4.813.539-9.078 4.373-10.125 9.103-1.047 4.729 1.201 10.005 5.337 12.526-2.73-.186-5.556.842-7.41 2.855-1.855 2.013-2.646 5.001-1.875 7.628 1.108 3.775 4.859 6.007 8.137 8.179 4.508 2.985 8.78 6.68 11.04 11.59.49 1.062.934 2.236 1.91 2.876 1.633 1.07 3.802.108 5.429-.969 7.21-4.781 12.71-11.764 19.73-16.817 3.389-2.438 7.094-4.4 10.513-6.795 3.417-2.395 6.61-5.316 8.424-9.075 1.794-3.725 2.092-8.146.808-12.077-1.284-3.93-4.134-7.325-7.782-9.27-.548-.294-1.138-.577-1.49-1.09-.418-.607-.41-1.397-.439-2.133-.19-4.802-3.02-9.63-7.5-11.368-4.479-1.74-10.333.38-11.977 4.896l-.019-.044" fill="#e43321"/><path d="M477.743 229.25l16.348-7.815a15.09 15.09 0 0110.374-.974l14.243 3.774a.27.27 0 01.05.505 22.327 22.327 0 01-17.769.861l-1.254 2.212a17.663 17.663 0 01-18.18 8.726l-3.812-7.29" fill="#f9b4af"/><path d="M498.036 225.727l21.527 5.801c1.09.295 2.226.613 3.056 1.381.828.768 1.221 2.132.554 3.046-.73 1.005-2.22.953-3.452.798l-7.522-.944c.826.218 1.946.074 2.63.587.683.512 1.17 1.384.976 2.216-.184.788-.932 1.345-1.717 1.543-.785.197-1.61.102-2.415.006l.172.291c.619.92.407 2.204-.592 2.687-1.052.508-2.312.597-3.394.15.914.126 1.128 1.532.589 2.282-.54.749-1.52 1.014-2.433 1.156a17.32 17.32 0 01-8.691-.896c-2.577-.968-5.039.774-7.777.488-2.739-.286-5.495-1.276-7.411-3.255-1.915-1.979-2.815-5.059-1.759-7.603 1.594-3.833 6.902-5.392 8.787-7.354 2.276-2.37 5.7-3.235 8.872-2.38" fill="#f9b4af"/><path d="M485.407 235.267c5.289 1.738 10.95-.872 13.114-5.98.342-.808 1.523-.115 1.183.686-2.39 5.643-8.848 8.524-14.657 6.614-.832-.274-.48-1.596.36-1.32M509.13 229.395c.367.038.685.284.686.681 0 .339-.312.725-.683.687-1.142-.123-2.097.72-1.984 1.901.047.492.358.941.794 1.281.4.314 1.078.622 1.544.816.341.143.585.451.48.84-.087.322-.498.624-.84.48-.784-.326-1.555-.662-2.211-1.216a3.19 3.19 0 01-1.14-2.278c-.097-1.822 1.533-3.387 3.353-3.192" fill="#f46e5e"/><path d="M503.616 237.055c.192-1.215 1.348-2.058 2.473-2.339.739-.185 1.508-.192 2.264-.188.359.003.703.312.687.683-.016.368-.3.688-.683.685-.338-.001-.677-.003-1.014.015-.162.009-.323.021-.482.042l-.16.027-.245.055c-.14.034-.275.081-.41.129l-.097.041-.209.112-.15.095-.075.053-.291.284-.032.039-.02.03-.09.145c-.018.03-.105.248-.054.097l-.053.164c-.014.048-.031.272-.024.087l-.006.156.006.08.034.153.03.088.068.133.049.075.097.11c.034.034.15.103.016.023l.144.086.054.022.097.023h-.007c.348.035.68.296.664.676-.014.35-.3.713-.682.687-1.284-.091-2.094-1.344-1.899-2.568" fill="#f46e5e"/><path d="M500.672 240.827c-.081 1.038.677 2.081 1.684 2.329a.697.697 0 00.841-.479c.111-.346-.133-.754-.48-.84l-.124-.033-.014-.007-.079-.042-.064-.034-.021-.018-.068-.062-.095-.098-.008-.01-.024-.034-.084-.139-.03-.061-.015-.03-.052-.221-.004-.065.002-.127.012-.053.039-.132.032-.067.092-.147.03-.036.14-.141.06-.056.035-.024.086-.056.31-.167c-.168.038.007 0 .048-.016l.183-.054.25-.059.105-.019c.138-.017.277-.028.416-.033.324-.012.648-.001.97.012.384.015.668-.328.683-.687.017-.38-.328-.668-.685-.681-.694-.027-1.399-.039-2.076.14-1.063.279-2.006 1.104-2.095 2.247" fill="#f46e5e"/><path d="M498.385 245.27c.227.594.707 1.123 1.358 1.24.378.069.718-.102.84-.48.106-.33-.127-.775-.48-.84l-.151-.037-.023-.012-.037-.022-.025-.018-.046-.044-.045-.049-.015-.013-.026-.05-.048-.082-.022-.07-.034-.137-.002-.021.002-.138-.002-.004.003-.004.036-.145.028-.083.132-.225.019-.03.013-.011.103-.112.11-.106.026-.024.274-.177.148-.076.043-.019.043-.017a5.97 5.97 0 01.692-.19l.178-.03.092-.015c.13-.013.258-.029.384-.041.384-.037.666-.287.683-.685.016-.347-.328-.718-.684-.683-.707.068-1.392.17-2.043.464a2.947 2.947 0 00-1.344 1.192c-.306.54-.404 1.205-.18 1.793" fill="#f46e5e"/><path d="M485.012 243.15l-7.27-13.9-7.506 4.138c-14.812 7.588-26.704 12.652-41.516 20.24l-54.91-73.347-3.766 56.347c13.52 18.192 30.601 35.616 47.433 51.023a4.206 4.206 0 005.046.473c18.209-11.216 62.489-44.973 62.489-44.973" fill="#f9b4af"/><path d="M477.743 229.25l-7.507 4.138c-14.812 7.588-26.704 12.652-41.516 20.24l-9.947-13.285c-5.149 10.618-12.645 19.752-22.202 27.068 6.829 7.036 13.888 13.814 20.906 20.24a4.206 4.206 0 005.046.473c18.209-11.216 62.489-44.973 62.489-44.973l-7.27-13.902" fill="#f9b4af"/><path d="M406.34 258.532a77.873 77.873 0 01-9.77 8.879c6.829 7.036 13.887 13.814 20.907 20.238a4.2 4.2 0 005.046.464l.028-.016c-6.686-9.126-11.908-19.113-16.211-29.565M372.87 240.35" fill="#f46e5e"/><path d="M373.757 241.48c-.294-.377-.594-.753-.888-1.13.294.377.594.753.888 1.13M396.57 267.41l-.003-.003zM386.095 256.184l-.166-.187.166.187M382.952 252.615l-.748-.868.748.868M376.823 245.321c-.335-.412-.671-.824-1.003-1.236.332.412.668.824 1.003 1.236M379.868 249.003c-.321-.38-.64-.762-.957-1.143.318.381.636.763.957 1.143M406.34 258.532a74.519 74.519 0 0012.433-18.19l-44.962-60.06 15.466 20.66c4.75 19.226 9.466 39.137 17.063 57.59" fill="#13adc7"/><path d="M406.34 258.532c-7.597-18.453-12.313-38.364-17.063-57.59l-15.466-20.66-3.767 56.346a255.73 255.73 0 002.825 3.721c.294.378.594.754.888 1.131.683.87 1.367 1.739 2.063 2.605.332.412.668.824 1.003 1.236a284.577 284.577 0 005.381 6.426l.748.868c.984 1.132 1.976 2.26 2.977 3.382l.166.187a373.978 373.978 0 0010.472 11.223l.004.004a77.873 77.873 0 009.769-8.879" fill="#1297b2"/><path d="M368.65 604.28l26.015 15.488 3.47.642a8.544 8.544 0 016.985 8.402h-54.728c-2.657 0-4.559-2.57-3.779-5.112l5.862-19.112c5.673.908 10.726 2.712 16.176-.308" fill="#fff"/><path d="M352.475 604.588l-1.294-16.15h19.703l-2.261 15.827.028.015c-5.45 3.02-10.503 1.216-16.176.308M292.81 607.624l-.931-3.036 1.292-16.15h-19.703l2.261 15.827-.026.015c5.448 3.02 11.432 4.252 17.106 3.344" fill="#f9b4af"/><path d="M275.703 604.28l-12.026 16.13a8.544 8.544 0 00-6.986 8.402h38.366a3.142 3.142 0 003.004-4.063l-6.182-20.161c-5.675.908-10.728 2.712-16.176-.308" fill="#fff"/><path d="M371.799 601.673h-22.36s-5.374-61.946-9.96-127.306c-3.707-52.654-6.894-107.52-6.374-134.014.054-2.626.147-4.986.28-7.04l.04-.613c.04-.653.094-1.267.147-1.853h58.613s.027.333.067.986l.013.254c.347 5.693 1.774 30.36 1.854 64.373.146 57.16-3.494 140.747-22.32 205.213" fill="#333436"/><path d="M393.917 376.675c-.422-23.599-1.377-40.071-1.652-44.588l-.013-.254c-.04-.653-.067-.986-.067-.986h-58.613c-.053.586-.107 1.2-.147 1.853l-.04.613a160.51 160.51 0 00-.28 7.04c-.389 19.831 1.299 55.562 3.727 94.359 23.51-13.452 42.94-34.4 57.085-58.037" fill="#161617"/><path d="M353.924 330.845s-12.87 72.036-29.67 150.634c-7.689 35.957-21.382 87.754-29.86 120.188H271.48s-7.075-174.378 17.605-265.628l64.84-5.194" fill="#333436"/><path d="M344.987 378.785c5.556-29.017 8.937-47.94 8.937-47.94l-64.84 5.194c-2.652 9.802-4.988 20.482-7.053 31.721 19.356 9.04 41.209 12.392 62.956 11.025" fill="#161617"/><path d="M281.44 355.323c34.012 14.066 81.437 16.765 115.13 1.632-2.76-53.2-1.426-101.695-8.333-147.708-2.6-17.347-12.68-31.507-26.173-37.427-1.52-.68-3.08-1.24-4.68-1.693-9.027-2.56-18.613-4.027-28.187-4.467a34.725 34.725 0 00-3.333.013l-.307.014c-4.28.266-33.726 6.028-37.553 7.788-16.147 7.428-1.993 22.345-.807 44.585 2.4 45.253-2.557 85.823-5.757 137.263" fill="#13adc7"/><path d="M327.416 159.037c1.617-8.614 3.495-17.016 3.33-25.606l25.985 12.684c-3.004 5.469-3.988 15.98-4.302 23.181-.016.367-.012.73.012 1.09.083 1.306-.916 2.43-2.217 2.56-4.881.489-15.393 1.209-21.237-.863a4.69 4.69 0 01-3.044-5.332c.51-2.567.99-5.146 1.473-7.714" fill="#f9b4af"/><path d="M330.747 133.43l25.982 12.685c-3.002 5.468-3.986 15.977-4.3 23.178-.021.483 0 .959.047 1.428-8.9-5.294-16.877-12.837-23.165-21.806.889-5.151 1.534-10.284 1.436-15.484" fill="#f46e5e"/><path d="M329.657 125.375s3.726-5.44 4.491-9.266l1.73-7.242a8.72 8.72 0 016.818-6.536c7.796-1.514 15.741-1.996 23.424-.492l.053.009c2.864.565 5.028 2.943 5.384 5.84l.007.055c1.137 9.309 1.316 18.674.87 28.032-.767 16.118-19.473 30.818-32.9 16.92-4.095-4.239-6.577-9.743-8.915-15.151-2.403.39-4.3-.119-5.87-1.979-1.569-1.861-2.074-4.561-1.285-6.864.86-2.509 3.812-4.494 6.193-3.326" fill="#f9b4af"/><path d="M324.657 128.641c.696-.793 1.807-1.109 2.827-.916 1.025.194 1.808.996 2.137 1.96.184.535.199 1.123.056 1.67-.149.572-1.032.317-.882-.256.222-.855-.18-1.84-.975-2.286-.821-.461-1.9-.221-2.52.484-.163.186-.485.162-.65-.006-.185-.188-.157-.463.007-.65" fill="#f46e5e"/><path d="M349.373 120.636c2.902-.596 4.043 3.877 1.127 4.475-2.901.596-4.044-3.878-1.127-4.475M367.219 120.613c2.9-.596 4.042 3.878 1.125 4.476-2.901.596-4.043-3.877-1.125-4.476" fill="#040606"/><path d="M343.955 112.464c4.026-1.687 8.474-1.58 12.386.388.863.433 1.154 1.732.635 2.521-.58.882-1.601 1.096-2.521.634l-.414-.2a11.467 11.467 0 00-1.776-.587 11.79 11.79 0 00-.644-.141l-.256-.043c-.41-.053-.822-.092-1.237-.107-.439-.014-.88-.008-1.317.023l-.291.024a11.774 11.774 0 00-1.813.373c-.211.06-.422.127-.628.199l-.287.104-.025.01c-.883.37-2.019.263-2.506-.693-.406-.801-.254-2.109.694-2.505M364.03 113.281c1.295-.594 2.706-.913 4.14-.808 1.403.104 2.789.522 3.975 1.292.807.524 1.194 1.67.634 2.52-.53.807-1.66 1.195-2.522.635a6.256 6.256 0 00-.556-.327l-.25-.105c.028.01.102.039.264.096l-.3-.119a6.534 6.534 0 00-1.016-.274 7.07 7.07 0 00-1.312-.028c-.424.068-.838.169-1.242.316l-.004.001c-.457.21-.921.31-1.418.165-.424-.122-.884-.458-1.087-.858-.42-.824-.243-2.078.693-2.506" fill="#e43321"/><path d="M369.45 116.488" fill="#333436"/><path d="M360.2 138.617c1.892-.097 4.015-.182 5.603-1.35 1.354-.998 2.156-2.718 1.321-4.307-.853-1.625-2.592-2.479-3.83-3.76-1.087-1.124-1.847-2.725-1.305-4.288.194-.556 1.078-.304.883.256-.693 1.995 1.159 3.555 2.532 4.656 1.421 1.141 2.98 2.516 2.997 4.497.015 1.608-1.052 3.039-2.352 3.886-1.717 1.12-3.885 1.228-5.87 1.329-.59.03-.568-.89.021-.919" fill="#f46e5e"/><path d="M340.788 132.672c9.227-3.795 20.564-3.741 30.845.073a2.541 2.541 0 011.615 2.92c-.464 2.132-.819 4.142-1.385 6.39-.97 3.84-1.958 7.73-3.978 11.076-2.018 3.346-5.222 6.144-9.36 6.877-3.857.681-8.304-.584-11.528-3.284-3.548-2.97-5.434-7.356-5.99-11.561-.556-4.204-.84-8.442-.219-12.491" fill="#fff"/><path d="M329.881 123.97a46.147 46.147 0 0112.41 8.963c.601.611-.298 1.596-.902.984a45.025 45.025 0 00-12.129-8.769c-.77-.38-.148-1.56.621-1.179M329.683 138.128a55.325 55.325 0 0014.852 13.328c.728.447.112 1.63-.622 1.18a57.073 57.073 0 01-15.35-13.785c-.526-.68.6-1.398 1.12-.723" fill="#fff"/><path d="M354.632 174.527c-8.572 5.052-19.956 4.264-27.768-1.892-.675-.532-1.39.594-.723 1.121 8.16 6.43 20.168 7.221 29.114 1.95.736-.434.12-1.617-.623-1.18M392.881 351.313c-13.177 5.068-27.096 8.236-41.161 9.438-14.027 1.198-28.237.494-42.064-2.163a149.89 149.89 0 01-22.855-6.301c-.809-.294-1.216.977-.41 1.268 13.397 4.864 27.482 7.786 41.702 8.742a155.2 155.2 0 0042.518-3.008 151.142 151.142 0 0022.893-6.797c.799-.307.17-1.485-.623-1.179" fill="#1297b2"/><path d="M298.91 175.417l-.306-.17c-7.735-4.347-17.527-1.807-22.333 5.65-6.512 10.1-17.879 35.411-27.455 55.614 8.947 7.045 19.365 11.682 30.388 13.04l25.512-49.783c5.645-8.239 2.923-19.497-5.807-24.35" fill="#13adc7"/><path d="M248.816 236.51c-4.996 10.538-12.083 29.08-12.083 33.426l2.643 80.673 16.067-4.177s7.6-32.948 10.713-69.092l13.048-27.79c-11.023-1.357-21.441-5.994-30.388-13.04" fill="#f9b4af"/><path d="M260.853 369.181c.175-3.673-.458-7.372-1.1-11.012l-4.31-11.737-14.396-2.025c-2.614 5.336-5.256 10.76-6.287 16.61-.627 3.559-.577 7.334.383 10.795 5.809-.05 11.614-.83 17.414-1.604.684-.092 1.839-3.576 2.524-3.665.674-.09.876 3.216 1.55 3.13 1.408-.177 2.816-.345 4.222-.492" fill="#f9b4af"/><path d="M239.033 382.58c-1.848-5.705-1.752-11.815.346-17.439.757-2.03-2.428-3.109-3.184-1.082-2.284 6.12-2.472 12.976-.458 19.194.28.862 1.024 1.508 1.986 1.311.813-.167 1.592-1.116 1.31-1.984" fill="#f9b4af"/><path d="M244.605 384.679c-2.273-7.019-2.156-14.534.424-21.451.932-2.496-2.986-3.825-3.916-1.33-2.809 7.527-3.04 15.96-.561 23.609.344 1.061 1.26 1.854 2.44 1.612 1-.204 1.96-1.371 1.613-2.44" fill="#f9b4af"/><path d="M249.953 384.348c-2.273-7.019-2.156-14.533.426-21.45.93-2.498-2.987-3.826-3.918-1.331-2.808 7.528-3.04 15.96-.561 23.609.344 1.061 1.26 1.855 2.441 1.612 1-.204 1.959-1.37 1.612-2.44" fill="#f9b4af"/><path d="M255.097 381.07c-2.273-7.02-2.156-14.534.426-21.453.93-2.496-2.987-3.824-3.918-1.33-2.808 7.528-3.04 15.961-.561 23.61.344 1.06 1.26 1.855 2.44 1.612 1.001-.204 1.96-1.372 1.613-2.44M260.853 369.181l-.886 9.78c-.071.787-1.082 1.058-1.536.414l-.751-1.067a7.223 7.223 0 01-1.29-3.532l-.353-7.956 4.816 2.361" fill="#f9b4af"/><path d="M293.201 218.833a156.796 156.796 0 01-14.052 28.656c-.454.728.666 1.451 1.12.723a158.38 158.38 0 0014.2-28.968c.299-.807-.972-1.213-1.268-.41" fill="#1297b2"/><path d="M167.115 376.53c-6.806 0-12.343 5.537-12.343 12.343v160.598c0 6.805 5.537 12.342 12.343 12.342h36.804c6.806 0 12.342-5.537 12.342-12.342V388.873c0-6.806-5.536-12.342-12.342-12.342zm36.804 190.616h-36.804c-9.747 0-17.676-7.93-17.676-17.675V388.873c0-9.746 7.929-17.676 17.676-17.676h36.804c9.746 0 17.676 7.93 17.676 17.676v160.598c0 9.745-7.93 17.675-17.676 17.675" fill="#161617"/><path d="M218.928 616.312H120.07c-9.83 0-17.8-7.97-17.8-17.8V462.876c0-20.535 16.648-37.18 37.182-37.18h79.476v190.616" fill="#1297b2"/><path d="M233.281 616.312h-30.096c-8.864 0-16.05-7.187-16.05-16.05V456.792c0-17.174 13.924-31.097 31.098-31.097 17.175 0 31.098 13.923 31.098 31.097v143.468c0 8.864-7.186 16.051-16.05 16.051" fill="#13adc7"/><path d="M240.4 622.021c0-2.216-1.077-4.166-2.721-5.405v-1.385h-4.068a6.79 6.79 0 00-6.791 6.79c0 3.383 2.481 6.165 5.719 6.683l-.008.108h5.148v-1.384c1.644-1.24 2.721-3.19 2.721-5.407" fill="#161617"/><path d="M244.47 622.021a6.791 6.791 0 11-13.583 0 6.791 6.791 0 0113.582 0" fill="#333436"/><path d="M200.716 622.021c0-2.216-1.079-4.166-2.721-5.405v-1.385h-4.07a6.79 6.79 0 00-6.79 6.79c0 3.383 2.482 6.165 5.72 6.683l-.01.108h5.15v-1.384c1.642-1.24 2.721-3.19 2.721-5.407" fill="#161617"/><path d="M204.785 622.021a6.791 6.791 0 11-13.58 0 6.791 6.791 0 0113.58 0" fill="#333436"/><path d="M169.863 622.021c0-2.216-1.078-4.166-2.722-5.405v-1.385h-4.069a6.79 6.79 0 00-6.79 6.79c0 3.383 2.482 6.165 5.72 6.683l-.009.108h5.148v-1.384c1.644-1.24 2.722-3.19 2.722-5.407" fill="#161617"/><path d="M173.932 622.021a6.791 6.791 0 11-13.582 0 6.791 6.791 0 0113.582 0" fill="#333436"/><path d="M130.178 622.021c0-2.216-1.077-4.166-2.72-5.405v-1.385h-4.07a6.79 6.79 0 00-6.79 6.79c0 3.383 2.481 6.165 5.719 6.683l-.009.108h5.15v-1.384c1.643-1.24 2.72-3.19 2.72-5.407" fill="#161617"/><path d="M134.247 622.021a6.79 6.79 0 11-6.79-6.79 6.79 6.79 0 016.79 6.79" fill="#333436"/><path d="M198.684 380.043h-25.392a6.179 6.179 0 010-12.358h25.392a6.178 6.178 0 110 12.358" fill="#161617"/><path d="M586.073 239.679l-17.086-10.364-8.406 14.565 14.568 12.888 10.924-17.09M568.987 229.315l-17.167-9.099a16.18 16.18 0 00-11.07-1.501l-15.422 3.409a.29.29 0 00-.077.54 23.95 23.95 0 0018.996 1.712l1.245 2.423a18.935 18.935 0 0019.087 10.153l4.408-7.637" fill="#fff"/><path d="M547.404 224.64l-23.316 5.26c-1.181.265-2.413.557-3.335 1.343-.92.785-1.402 2.23-.73 3.237.738 1.11 2.336 1.12 3.664 1.01l8.098-.678c-.893.196-2.088-.008-2.842.51-.755.52-1.315 1.431-1.144 2.331.161.854.937 1.483 1.77 1.73.832.245 1.72.181 2.587.114l-.199.303c-.704.959-.532 2.344.516 2.905 1.104.59 2.451.742 3.63.312-.984.092-1.276 1.591-.732 2.418.544.825 1.582 1.154 2.554 1.345 3.096.612 6.351.412 9.35-.573 2.804-.923 5.362 1.052 8.309.866 2.947-.184 5.943-1.122 8.083-3.157 2.138-2.035 3.24-5.293 2.221-8.065-1.536-4.178-7.153-6.082-9.087-8.268-2.332-2.639-5.961-3.719-9.397-2.943" fill="#fff"/><path d="M560.508 235.419c-5.741 1.628-11.69-1.419-13.78-6.987-.332-.881-1.627-.192-1.299.684 2.31 6.15 9.099 9.521 15.408 7.733.903-.256.584-1.689-.329-1.43M535.357 228.076c-.394.025-.745.275-.764.7-.016.363.303.792.7.765 1.23-.08 2.214.866 2.042 2.126-.072.525-.424.992-.907 1.337-.443.317-1.184.619-1.69.805-.371.138-.649.458-.553.879.08.348.506.69.879.552.855-.316 1.696-.641 2.421-1.205a3.424 3.424 0 001.324-2.391c.184-1.945-1.492-3.696-3.452-3.568" fill="#c2d5d5"/><path d="M540.925 236.525c-.153-1.309-1.354-2.262-2.546-2.613-.783-.23-1.607-.272-2.418-.301-.384-.015-.765.301-.765.7 0 .394.29.749.7.764.363.013.725.026 1.087.061.172.017.344.037.514.067l.171.036.26.069c.148.043.29.099.433.157l.102.047.217.13.157.109.079.061.3.316.032.043.02.032.09.161c.018.033.1.268.053.104l.049.18c.012.052.023.292.024.093l-.001.168-.01.086-.044.162-.036.092-.078.14-.056.079-.11.115c-.036.033-.164.102-.02.024l-.156.084-.057.021-.107.021.008-.001c-.374.021-.742.288-.742.696.001.373.29.776.701.764 1.379-.039 2.303-1.345 2.15-2.667" fill="#c2d5d5"/><path d="M541.767 238.197c-.718-.221-1.475-.238-2.218-.241-.384-.003-.765.292-.765.7.001.384.29.763.7.764.348.003.695.004 1.041.032.148.01.298.03.444.053l.112.024.266.074.193.069c.044.017.23.065.05.017l.326.192.09.064.037.03.062.061.142.157.032.04.089.162.032.072.037.144.01.057-.003.136-.007.07-.066.235-.016.031-.038.064-.093.145-.03.036-.009.01-.105.101-.075.063-.024.018-.069.034-.088.042-.015.007-.134.03c-.376.075-.655.502-.552.878.108.39.477.633.88.55 1.089-.22 1.949-1.305 1.908-2.42-.046-1.229-1.019-2.154-2.144-2.5" fill="#c2d5d5"/><path d="M546.05 243.63c-.298-.578-.81-1.049-1.387-1.338-.684-.341-1.414-.483-2.166-.587-.381-.053-.766.33-.766.7.001.428.293.708.701.764.136.019.273.043.41.063l.1.019.187.041c.254.06.492.143.735.235l.044.018.045.024.156.087.287.201.024.027.115.119.105.125.013.012.02.033.131.247.027.09.032.157.001.005v.004l-.007.148-.001.023-.043.144-.026.074-.056.086-.03.052-.017.013-.05.052-.05.045-.028.016-.043.023-.022.012-.164.033c-.382.052-.651.52-.551.879.112.41.47.607.877.55.703-.095 1.242-.64 1.511-1.269.265-.618.19-1.337-.115-1.928" fill="#c2d5d5"/><path d="M682.49 181.47l-62.073 76.133c-15.529-8.786-32.154-20.014-47.685-28.799-4.565 6.435-9.255 13.65-13.821 20.084 22.253 14.915 44.372 30.936 66.613 45.941a4.51 4.51 0 005.427-.284c18.713-15.756 37.782-33.662 53.073-52.55l-1.535-60.524" fill="#333436"/><path d="M682.49 181.47l-17.486 21.446c-9.305 31.93-18.585 65.67-39.507 91.883l.028.018a4.507 4.507 0 005.427-.273c18.712-15.756 37.781-33.663 53.072-52.55l-1.535-60.523M628.253 272.504c-2.285-4.605-4.569-9.212-6.853-13.819-.223-.446-.984-.413-1.112.096l-2.343 9.374c-.188.752.963 1.128 1.152.372.651-2.607 1.303-5.212 1.956-7.819l6.128 12.361c.347.698 1.419.135 1.072-.565" fill="#161617"/><path d="M684.961 114.128c-2.797-5.164-3.478-11.083-1.861-16.197 1.617-5.115 5.516-9.371 10.667-11.646 3.46-1.529 7.394-2.173 11.353-2.477 5.833-.447 11.924-.16 17.715 1.728 5.788 1.89 11.269 5.519 14.406 10.477 3.139 4.959 3.578 11.271.35 15.487-7.972 10.41-4.03 26.279-10.451 37.655-13.885-11.502-33.95-19.843-42.179-35.027" fill="#572f2c"/><path d="M686.755 116.675c-2.491-4.79-3.095-10.278-1.656-15.02 1.437-4.744 4.906-8.69 9.488-10.8 3.078-1.416 6.578-2.015 10.1-2.296 5.19-.414 10.608-.15 15.758 1.602 5.151 1.751 10.026 5.118 12.818 9.715 2.793 4.599 3.182 10.452.31 14.361-7.093 9.654-3.584 24.368-9.296 34.918-12.353-10.666-30.204-18.402-37.522-32.48" fill="#361919"/><path d="M688.679 604.28l-26.014 15.488-3.469.642a8.544 8.544 0 00-6.987 8.402h54.728c2.659 0 4.559-2.57 3.78-5.112l-5.861-19.112c-5.675.908-10.728 2.712-16.177-.308" fill="#333436"/><path d="M704.856 604.588l1.292-16.15h-19.701l2.26 15.827-.028.015c5.449 3.02 10.502 1.216 16.177.308M759.49 607.624l.93-3.036-1.292-16.15h19.703l-2.262 15.827.028.015c-5.449 3.02-11.433 4.252-17.108 3.344" fill="#d27e47"/><path d="M776.597 604.28l12.023 16.13a8.544 8.544 0 016.988 8.402h-38.367a3.142 3.142 0 01-3.004-4.063l6.183-20.161c5.675.908 10.728 2.712 16.177-.308M717.845 474.367c-4.585 65.36-9.958 127.306-9.958 127.306h-22.36c-18.827-64.466-22.468-148.053-22.32-205.213.078-34.56 1.546-59.467 1.866-64.627.04-.653.067-.986.067-.986h58.613c.054.586.107 1.2.146 1.853a160.51 160.51 0 01.321 7.653c.52 26.494-2.667 81.36-6.375 134.014" fill="#333436"/><path d="M717.845 474.367c-10.252-9.894-19.678-20.907-29-32.24-11.613-13.92-18.852-29.667-25.638-45.667a44.482 44.482 0 01-.507-1.173c.267-33.974 1.987-58.374 2.373-63.454.04-.653.067-.986.067-.986h58.613c.054.586.107 1.2.146 1.853l.041.613c.133 2.054.227 4.414.28 7.04.52 26.494-2.667 81.36-6.375 134.014" fill="#161617"/><path d="M703.405 330.845s11.735 72.038 27.055 150.634c7.01 35.957 17.436 87.754 25.165 120.188h26.022s3.384-174.378-19.12-265.628l-59.122-5.194" fill="#333436"/><path d="M771.003 380.78c-2.344-16.04-5.14-31.217-8.476-44.741l-59.122-5.194s3.908 23.988 10.158 59.383c19.62-.14 38.868-3.544 57.44-9.448" fill="#161617"/><path d="M776.493 364.607c-34.014 14.066-83.694 17.492-117.386 2.36 2.758-53.2 3.078-111.707 9.986-157.72 2.599-17.347 12.68-31.507 26.174-37.427 1.52-.68 3.078-1.24 4.68-1.693 9.025-2.56 18.612-4.027 28.185-4.467 1.12-.053 2.227-.04 3.333.013l.308.014c4.28.266 8.372 1.346 12.199 3.106 16.147 7.427 27.348 27.027 26.16 49.267-2.4 45.253 3.16 95.107 6.361 146.547" fill="#333436"/><path d="M743.972 168.793c-11.493 16.134-19.907 34.414-26.227 53.4-3.12 9.374-5.733 18.92-7.946 28.467-4.28-8.027-7.32-16.453-9.454-25.107-4.292-17.373-4.986-35.706-5.078-53.733a34.267 34.267 0 014.68-1.693c9.025-2.56 18.613-4.027 28.185-4.467 1.12-.04 2.241-.04 3.333.013l.308.014c4.28.266 8.372 1.346 12.199 3.106" fill="#13adc7"/><path d="M707.933 176.485c-3.305 2.256-6.609 4.514-9.914 6.771l3.42-13.363c.092-.361-.462-.542-.554-.18l-3.616 14.126c-.056.217.184.502.412.346L708.205 177c.304-.21.038-.727-.272-.515M734.999 171.033l-10.208 12.558-2.639 3.246-8.077-9.857c-.238-.29-.667.104-.43.392 2.764 3.373 5.528 6.747 8.294 10.12.129.159.348.097.457-.039l10.208-12.557c.96-1.183 1.923-2.364 2.884-3.547.236-.29-.256-.604-.49-.316" fill="#10859e"/><path d="M717.745 222.193c-3.12 9.374-5.733 18.92-7.946 28.467-4.28-8.027-7.32-16.453-9.454-25.107.695-16.546 3.574-33.013 8.187-48.933 2.053.293 4.093.587 6.147.893.028 15.04 1.041 29.907 3.066 44.68M702.26 264.172l-19.381-28.248-5.32-7.753 11.497-21.899c.176-.339.02-.94-.464-.897l-10.59.924 14.08-29.083c.323-.667-.651-1.304-.977-.63-4.852 10.02-9.704 20.04-14.554 30.06-.166.34-.032.94.462.898 3.516-.307 7.032-.615 10.55-.921-3.723 7.09-7.446 14.18-11.167 21.27-.092.172-.148.41-.027.587 6.462 9.416 12.92 18.833 19.382 28.25 1.826 2.66 3.653 5.322 5.478 7.985.42.609 1.455.076 1.031-.543M715.145 261.681l25.4-22.989 6.971-6.31c-2.036-7.989-4.072-15.977-6.11-23.966-.094-.37.198-.919.658-.765l10.088 3.352-6.959-31.552c-.16-.724.936-1.119 1.098-.388l7.193 32.616c.081.366-.188.921-.657.764l-10.048-3.339 5.934 23.279c.048.188.048.433-.11.577l-25.4 22.988-7.182 6.5c-.548.496-1.432-.264-.876-.767M705.953 334.888a1050.225 1050.225 0 011.071-68.96c.037-.75-1.127-.801-1.163-.052a1054.38 1054.38 0 00-.568 88.084c.295 8.304.69 16.604 1.18 24.899.043.738 1.206.8 1.162.05a1056.332 1056.332 0 01-1.682-44.021M759.95 328.347a96.754 96.754 0 01-28.657 3.768c-.822-.016-.881 1.264-.056 1.28a97.982 97.982 0 0028.999-3.799c.788-.227.51-1.479-.287-1.25M689.26 332.69c-8.99.23-17.961-1.871-25.896-6.109-.657-.35-1.292.626-.632.979 8.115 4.333 17.277 6.528 26.477 6.295.746-.02.8-1.183.051-1.164" fill="#161617"/><path d="M729.915 159.037c-1.619-8.614-3.496-17.016-3.331-25.606L700.6 146.115c3.004 5.469 3.987 15.98 4.3 23.181.016.367.012.73-.01 1.09-.085 1.306.914 2.43 2.217 2.56 4.88.489 15.393 1.209 21.236-.863a4.693 4.693 0 003.045-5.332c-.512-2.567-.992-5.146-1.473-7.714" fill="#d27e47"/><path d="M726.584 133.43L700.6 146.116c3.004 5.468 3.987 15.977 4.3 23.178.021.483-.001.959-.047 1.428 8.9-5.294 16.878-12.837 23.166-21.806-.89-5.151-1.535-10.284-1.435-15.484" fill="#c0621c"/><path d="M727.672 125.375s-3.724-5.44-4.492-9.266l-1.728-7.242a8.72 8.72 0 00-6.817-6.536c-7.796-1.514-15.742-1.996-23.424-.492l-.054.009c-2.865.565-5.03 2.943-5.384 5.84l-.006.055c-1.14 9.309-1.316 18.674-.871 28.032.768 16.118 19.472 30.818 32.9 16.92 4.095-4.239 6.576-9.743 8.916-15.151 2.403.39 4.299-.119 5.868-1.979 1.57-1.861 2.076-4.561 1.287-6.864-.86-2.509-3.812-4.494-6.195-3.326" fill="#d27e47"/><path d="M732.673 128.641c-.696-.793-1.808-1.109-2.829-.916-1.023.194-1.807.996-2.136 1.96a2.895 2.895 0 00-.055 1.67c.148.572 1.031.317.882-.256-.223-.855.181-1.84.973-2.286.824-.461 1.903-.221 2.521.484.164.186.486.162.65-.006.185-.188.158-.463-.006-.65" fill="#c0621c"/><path d="M707.956 120.636c-2.9-.596-4.043 3.877-1.125 4.475 2.9.596 4.042-3.878 1.125-4.475M690.112 120.613c-2.901-.596-4.044 3.878-1.127 4.476 2.902.596 4.043-3.877 1.127-4.476" fill="#040606"/><path d="M713.375 112.464c-4.028-1.687-8.475-1.58-12.387.388-.863.433-1.152 1.732-.635 2.521.582.882 1.602 1.096 2.522.634l.412-.2c.17-.072.342-.14.516-.204a12.366 12.366 0 011.905-.524l.256-.043c.412-.053.823-.092 1.237-.107a12.8 12.8 0 011.319.023l.29.024a11.832 11.832 0 012.44.572l.287.104.026.01c.884.37 2.018.263 2.505-.693.407-.801.256-2.109-.693-2.505M693.301 113.281c-1.297-.594-2.708-.913-4.14-.808-1.405.104-2.79.522-3.977 1.292-.805.524-1.192 1.67-.633 2.52.53.807 1.66 1.195 2.52.635.181-.117.366-.228.557-.327l.252-.105c-.03.01-.103.039-.264.096l.299-.119c.33-.122.67-.206 1.016-.274.436-.051.874-.059 1.312-.028.424.068.838.169 1.241.316l.005.001c.458.21.92.31 1.418.165.425-.122.884-.458 1.088-.858.418-.824.24-2.078-.694-2.506" fill="#361919"/><path d="M687.88 116.488" fill="#333436"/><path d="M697.13 138.617c-1.894-.097-4.014-.182-5.603-1.35-1.354-.998-2.155-2.718-1.322-4.307.855-1.625 2.594-2.479 3.832-3.76 1.086-1.124 1.847-2.725 1.303-4.288-.193-.556-1.077-.304-.883.256.695 1.995-1.158 3.555-2.53 4.656-1.422 1.141-2.98 2.516-2.999 4.497-.015 1.608 1.053 3.039 2.353 3.886 1.718 1.12 3.886 1.228 5.87 1.329.589.03.568-.89-.022-.919" fill="#c0621c"/><path d="M744.365 229.063h-13.182c-1.711 0-1.838 2.664-.118 2.664h13.183c1.71 0 1.839-2.664.117-2.664" fill="#fccc39"/><path d="M716.541 132.672c-9.226-3.795-20.564-3.741-30.845.073a2.543 2.543 0 00-1.615 2.92c.466 2.132.819 4.142 1.386 6.39.969 3.84 1.957 7.73 3.978 11.076 2.019 3.346 5.223 6.144 9.359 6.877 3.857.681 8.305-.584 11.53-3.284 3.547-2.97 5.434-7.356 5.99-11.561.556-4.204.84-8.442.217-12.491" fill="#fff"/><path d="M727.448 123.97a46.141 46.141 0 00-12.408 8.963c-.601.611.296 1.596.9.984a45.046 45.046 0 0112.13-8.769c.77-.38.149-1.56-.622-1.179M727.647 138.128a55.285 55.285 0 01-14.852 13.328c-.728.447-.112 1.63.621 1.18a57.079 57.079 0 0015.352-13.785c.524-.68-.6-1.398-1.121-.723" fill="#fff"/><path d="M536.861 224.988c-10.977 1.7-21.956 3.401-32.933 5.103-1.537.237-.995 2.597.54 2.36l32.933-5.103c1.539-.239.996-2.599-.54-2.36" fill="#f03e26"/><path d="M740.933 308.74l-19.693 3.453h-8.627l-1.373-.706a8.697 8.697 0 00-9.093.707h-21.014l8.2-9.094c2.694-2.04 10-3.32 13.374-3.4l16.906-.413 17.587-5.294 3.733 14.747" fill="#fff"/><path d="M743.972 168.793l12.673 3.087a57.36 57.36 0 0139.166 33.181l29.177 70.155c1.905 4.58-.477 9.815-5.181 11.387l-32.651 12.69-48.797 14.207-8.523-21.285 53.808-23.547-22.939-43.843-16.733-56.032" fill="#333436"/><path d="M748.187 309.05l-5.924-19.813c-.244-.817-1.546-.528-1.3.298l5.925 19.814c.244.816 1.547.528 1.299-.298M783.563 268.279L744.184 285c-3.73 1.583-7.456 3.165-11.185 4.75-.79.334-.164 1.513.621 1.18 13.127-5.575 26.253-11.149 39.38-16.722l11.185-4.75c.79-.335.166-1.514-.622-1.18M800.487 274.835l-9.884-5.286c-.755-.402-1.482.716-.724 1.12l9.884 5.287c.753.403 1.48-.716.724-1.121M795.387 276.14l-4.175-4.175c-.247-.246-.68-.304-.941-.041-.248.245-.307.679-.042.941 1.39 1.392 2.782 2.784 4.174 4.175.246.247.68.304.941.041.247-.245.305-.677.043-.941" fill="#161617"/><path d="M819.679 286.183c-10.647 4.252-19.087 7.532-29.955 11.177a611.801 611.801 0 01-51.663 14.84c-.832.2-.54 1.501.298 1.3a615.053 615.053 0 0033.364-9.02 613.652 613.652 0 0032.8-10.887c6.069-2.208 9.78-3.836 15.778-6.23.796-.318.17-1.496-.622-1.18M784.008 267.012c-6.07-11.208-11.972-22.528-18.256-33.617-1.675-2.955-3.447-5.85-5.408-8.623-.493-.699-1.472.208-.983.901 3.512 4.967 6.352 10.363 9.244 15.702 3.014 5.56 6.024 11.121 9.038 16.684l5.186 9.574c.408.754 1.59.135 1.179-.621" fill="#161617"/><path d="M701.373 307.567l-3.986 4.626h-1.747c1.613-1.866 3.227-3.746 4.827-5.613.24-.28.72-.2.946.04.267.293.187.667-.04.947M696.933 306.513a52.765 52.765 0 00-5.506 5.68h-1.694a53.185 53.185 0 016.307-6.666c.64-.56 1.547.413.893.986M692.16 305.647c-1.733 2.186-3.48 4.373-5.213 6.546h-1.694c1.92-2.426 3.854-4.853 5.787-7.266.533-.667 1.653.053 1.12.72" fill="#c2d5d5"/><path d="M854.128 212.119l-10.196 73.058h2.639l10.197-73.058h-2.64" fill="#3c3e40"/><path d="M995.05 212.119H856.767l-10.197 73.058h138.281l10.197-73.058" fill="#161617"/><path d="M911.633 260.05v52.555h3.799V260.05h-3.799" fill="#3c3e40"/><path d="M934.152 260.05h-18.72v52.555h18.72V260.05" fill="#161617"/><path d="M969.013 307.553v7.92h-92.546v-7.92c0-7.04 5.706-12.733 12.746-12.733h67.24c2.787.04 5.347.96 7.414 2.507a12.689 12.689 0 015.146 10.226" fill="#fbc01a"/><path d="M876.473 307.047v8.429h4.167l20.661-20.661h-12.596l-12.232 12.232M922.868 294.815l-20.661 20.661h13.358l20.663-20.661h-13.36M963.867 297.327l-18.147 18.146h-9.92l20.653-20.653c2.787.04 5.347.96 7.414 2.507" fill="#fccc39"/><path d="M889.564 301.468l.22.1c.155 0 .248-.21.285-.67h.26c-.034.549-.044 1.28-.044 2.59h-.26c-.158-.957-.246-1.26-.566-1.667-.472-.61-1.215-.881-1.991-.881-1.468 0-2.436 1.524-2.436 3.967 0 2.513 1.093 3.9 2.547 3.9.676 0 1.501-.248 1.925-.859.33-.44.407-.87.521-1.781h.26c0 1.364.01 2.133.044 2.705h-.26c-.037-.461-.116-.665-.274-.665l-.231.093c-.556.39-1.116.732-2.085.732-2.139 0-3.57-1.501-3.57-4.081 0-2.519 1.487-4.214 3.582-4.214.989 0 1.577.352 2.073.731M894.584 304.907c0 2.398 1.105 3.921 2.492 3.921 1.463 0 2.41-1.633 2.41-3.965 0-2.399-1.1-3.923-2.487-3.923-1.47 0-2.415 1.635-2.415 3.967zm6.03-.088c0 2.518-1.487 4.213-3.582 4.213-2.14 0-3.57-1.501-3.57-4.081 0-2.519 1.486-4.214 3.58-4.214 2.14 0 3.571 1.502 3.571 4.082M910.472 301.123c-.764.033-.912.257-.912 1.084v6.721h-.259l-4.73-7.31v5.945c0 .825.149 1.05 1.022 1.084v.225c-.269-.021-.764-.032-1.148-.032-.381 0-.798.01-1.046.032v-.225c.765-.034.913-.259.913-1.084v-5.472c0-.82-.148-.935-.913-.968v-.226a14.174 14.174 0 001.925 0l3.977 6.127v-4.817c0-.827-.142-1.051-1.022-1.084v-.226c.269.022.764.034 1.149.034.379 0 .797-.012 1.044-.034v.226M918.859 301.468l.22.1c.153 0 .248-.21.286-.67h.258c-.032.549-.044 1.28-.044 2.59h-.258c-.16-.957-.248-1.26-.566-1.667-.472-.61-1.216-.881-1.991-.881-1.47 0-2.437 1.524-2.437 3.967 0 2.513 1.094 3.9 2.546 3.9.678 0 1.502-.248 1.926-.859.329-.44.406-.87.522-1.781h.258c0 1.364.012 2.133.044 2.705h-.258c-.038-.461-.116-.665-.276-.665l-.23.093c-.556.39-1.116.732-2.084.732-2.14 0-3.571-1.501-3.571-4.081 0-2.519 1.485-4.214 3.581-4.214.991 0 1.579.352 2.074.731M925.503 301.123c-.767.033-.915.148-.915.968v5.588c0 .82.148.934.915.968v.225a27.026 27.026 0 00-1.432-.032c-.583 0-1.127.01-1.442.032v-.225c.767-.034.915-.148.915-.968v-5.588c0-.82-.148-.935-.915-.968v-.226c.315.022.859.034 1.442.034.517 0 1.084-.012 1.432-.034v.226M934.097 308.872c-.764-.032-1.826-.032-2.58-.032-.677 0-2.162 0-3.268.032v-.225c.766-.034.914-.148.914-.968v-5.588c0-.82-.148-.935-.914-.968v-.226c1.106.034 2.591.034 3.268.034.688 0 1.656 0 2.355-.034a14.465 14.465 0 00-.079 1.331c0 .27.012.528.035.699h-.26c-.148-1.331-.319-1.771-1.512-1.771h-.936c-.764 0-.912.115-.912.935v2.656h.748c.98 0 .957-.946 1.045-1.484h.259c-.033.477-.039.802-.039 1.06 0 .209.006.374.006.54 0 .368.01.742.065 1.6h-.257c-.088-.72-.099-1.491-1.079-1.491h-.748v2.707c0 .82.148.934.912.934h.827c1.406 0 1.688-.505 1.846-1.996h.26c-.022.204-.033.5-.033.815 0 .28.021.868.077 1.44M938.87 302.09v2.773h.758c1.596 0 1.947-.836 1.947-1.871 0-1.183-.506-1.87-1.87-1.87-.688 0-.836.193-.836.969zm5.005 6.222c-.319.461-.599.72-1.204.72-.567 0-.998-.259-1.211-1.221l-.248-1.123c-.213-.956-.379-1.6-1.27-1.6h-1.073v2.59c0 .82.148.935.914.969v.225a26.937 26.937 0 00-1.431-.032c-.583 0-1.127.01-1.441.032v-.225c.764-.034.913-.148.913-.968v-5.588c0-.82-.15-.935-.913-.968v-.226c.314.022.88.034 1.374.034.711 0 1.432-.023 1.7-.023 1.815 0 2.718.859 2.718 1.959 0 .78-.49 1.902-2.19 2.166l.139.022c1 .165 1.363.55 1.577 1.485l.28 1.15c.139.654.266.923.579.923.275 0 .408-.164.616-.429l.17.128M951.805 301.468l.226.116c.142 0 .237-.215.28-.687h.258c-.032.55-.044 1.282-.044 2.591h-.257c-.105-.633-.215-1.239-.568-1.667-.439-.55-1.193-.881-1.947-.881-1.496 0-2.48 1.536-2.48 3.956 0 2.705.847 3.91 2.683 3.91.54 0 .947-.193 1.172-.351.281-.192.324-.336.324-.616v-1.084c0-.914-.19-1.046-1.137-1.084v-.226a27.39 27.39 0 001.589.039c.495 0 .903-.01 1.172-.039v.226c-.496.038-.572.137-.572.968v2.233h-.225c-.011-.259-.116-.643-.308-.643-.088 0-.143.022-.37.192-.494.374-1.028.611-1.76.611-2.332 0-3.69-1.501-3.69-4.01 0-2.629 1.529-4.285 3.625-4.285.979 0 1.496.352 2.03.731M961.583 308.872c-.764-.032-1.826-.032-2.579-.032-.677 0-2.163 0-3.268.032v-.225c.765-.034.913-.148.913-.968v-5.588c0-.82-.148-.935-.913-.968v-.226c1.105.034 2.59.034 3.268.034.687 0 1.655 0 2.353-.034a14.752 14.752 0 00-.076 1.331c0 .27.01.528.032.699h-.257c-.15-1.331-.32-1.771-1.513-1.771h-.935c-.765 0-.913.115-.913.935v2.656h.748c.978 0 .956-.946 1.045-1.484h.257a15.1 15.1 0 00-.037 1.06c0 .209.005.374.005.54 0 .368.011.742.067 1.6h-.26c-.088-.72-.099-1.491-1.077-1.491h-.748v2.707c0 .82.148.934.913.934h.824c1.408 0 1.688-.505 1.85-1.996h.257a8.13 8.13 0 00-.032.815c0 .28.021.868.076 1.44" fill="#c74220"/><path d="M625.881 312.193h55.183v-1.945h-55.183v1.945M625.881 300.737v1.946h55.183v-1.946h-55.183" fill="#0e0e0e"/><path d="M576.17 310.248v-7.565h52.378v-1.946h-55.22v11.456h55.22v-1.945h-52.379" fill="#333436"/><path d="M576.17 310.248h49.711v-7.565H576.17v7.565" fill="#fff"/><path d="M625.881 310.248h52.547v-7.565h-52.547v7.565" fill="#dadbd8"/><path d="M838.696 297.068c-.913 0-1.656.741-1.656 1.656v.22h3.312v-.22c0-.915-.741-1.656-1.656-1.656" fill="#fbc01a"/><path d="M838.696 298.296c-.147 0-.265.741-.265 1.656v.22h.53v-.22c0-.915-.118-1.656-.265-1.656M843.853 301.495c-3.744 4.297-8.736 5.172-13.792 5.289a8.759 8.759 0 00-.206 1.883v1.176h17.682v-1.176c0-2.956-1.456-5.566-3.684-7.172" fill="#fbc01a"/><path d="M843.853 301.495a8.801 8.801 0 00-5.157-1.67c-4.237 0-7.772 2.982-8.635 6.959 5.056-.117 10.048-.992 13.792-5.29M849.592 309.843H827.8v.604h21.792v-.604" fill="#fccc39"/><path d="M827.8 310.447v1.746h21.792v-1.746H827.8" fill="#fbc01a"/><path d="M482.281 317.416H1000v-5.223H482.281z" fill="#72241c"/><path d="M482.281 318.75H1000v-5.224H482.281z" fill="#72241c"/><path d="M490.617 634.276H1000v-316.75H490.617z" fill="#72241c"/><path d="M1000 356.32l-509.383-27.527v-11.266H1000v38.793" fill="#491214"/><path d="M700.3 462.921c-1.663-.116-4.521-.174-7.644-.174-2.743 0-5.719.058-7.587.174v-1.197c4.056-.175 4.844-.788 4.844-5.133v-14.356h-19.432v14.356c0 4.345.788 4.958 4.843 5.133v1.197c-1.837-.116-4.843-.174-7.587-.174-3.092 0-5.98.058-7.644.174v-1.197c4.056-.175 4.844-.788 4.844-5.133v-29.646c0-4.346-.788-4.961-4.844-5.134v-1.198c1.664.118 4.552.175 7.644.175 2.744 0 5.75-.057 7.587-.175v1.198c-4.055.173-4.843.788-4.843 5.134v14.094h19.432v-14.094c0-4.346-.788-4.961-4.844-5.134v-1.198c1.868.118 4.844.175 7.587.175 3.123 0 5.981-.057 7.644-.175v1.198c-4.056.173-4.844.788-4.844 5.134v29.646c0 4.345.788 4.958 4.844 5.133v1.197M732.824 463.768c-11.35 0-18.936-7.965-18.936-21.65 0-13.363 7.877-22.35 18.995-22.35 11.349 0 18.936 7.965 18.936 21.65 0 13.362-7.879 22.35-18.995 22.35m-.176-42.921c-7.79 0-12.81 8.666-12.81 21.037 0 12.721 5.866 20.804 13.22 20.804 7.76 0 12.78-8.665 12.78-21.037 0-12.722-5.837-20.804-13.19-20.804M790.736 462.921c-2.101-.116-5.544-.174-8.781-.174-3.59 0-6.946.058-8.842.174v-1.197c5.018-.175 6.039-.904 6.039-5.747v-33.993h-3.239c-7.469 0-8.373 2.86-9.189 11.176h-1.373c.117-1.255.176-2.976.176-4.901 0-1.49-.118-4.61-.438-7.646 4.96.175 11.963.175 16.866.175 4.9 0 11.816 0 16.776-.175-.292 3.036-.408 6.156-.408 7.646 0 1.925.058 3.646.174 4.901h-1.372c-.845-8.316-1.721-11.176-9.19-11.176h-3.239v33.993c0 4.843 1.021 5.572 6.04 5.747v1.197M842.37 462.921c-4.055-.174-9.687-.174-13.685-.174-3.588 0-11.465 0-17.33.174v-1.197c4.056-.175 4.844-.788 4.844-5.133v-29.646c0-4.346-.788-4.961-4.844-5.134v-1.198c5.865.175 13.742.175 17.33.175 3.648 0 8.783 0 12.49-.175-.292 2.802-.41 5.691-.41 7.062 0 1.429.059 2.801.176 3.705h-1.372c-.786-7.06-1.692-9.396-8.024-9.396h-4.96c-4.056 0-4.844.615-4.844 4.961v14.094h3.97c5.192 0 5.076-5.019 5.542-7.879h1.371a77.916 77.916 0 00-.203 5.63c0 1.11.028 1.985.028 2.86 0 1.955.059 3.94.351 8.491h-1.37c-.469-3.821-.527-7.906-5.72-7.906h-3.969v14.356c0 4.345.788 4.958 4.844 4.958h4.376c7.471 0 8.959-2.684 9.804-10.59h1.372c-.117 1.08-.176 2.654-.176 4.317 0 1.49.118 4.61.41 7.645M887.12 462.921c-4.056-.174-9.688-.174-13.685-.174-3.59 0-11.467 0-17.331.174v-1.197c4.056-.175 4.844-.788 4.844-5.133v-29.646c0-4.346-.788-4.961-4.844-5.134v-1.198c1.663.118 4.55.175 7.644.175 2.743 0 5.748-.057 7.587-.175v1.198c-4.056.173-4.844.788-4.844 5.134v29.646c0 4.345.788 4.958 4.844 4.958h4.376c7.469 0 8.957-2.858 9.802-11.173h1.374c-.118 1.253-.176 2.975-.176 4.9 0 1.49.117 4.61.409 7.645" fill="#220c0f"/><path d="M699.06 421.81c-4.056.175-4.844.789-4.844 5.135v29.646c0 4.345.788 4.958 4.844 5.133v1.197c-1.664-.116-4.524-.174-7.645-.174-2.743 0-5.719.058-7.587.174v-1.197c4.056-.175 4.844-.788 4.844-5.133v-14.356h-19.433v14.356c0 4.345.788 4.958 4.844 5.133v1.197c-1.839-.116-4.844-.174-7.586-.174-3.093 0-5.982.058-7.645.174v-1.197c4.056-.175 4.844-.788 4.844-5.133v-29.646c0-4.346-.788-4.96-4.844-5.134v-1.198c1.663.118 4.552.175 7.645.175 2.742 0 5.747-.057 7.586-.175v1.198c-4.056.174-4.844.788-4.844 5.134v14.094h19.433v-14.094c0-4.346-.788-4.96-4.844-5.134v-1.198c1.868.118 4.844.175 7.587.175 3.121 0 5.981-.057 7.645-.175v1.198M718.599 441.884c0 12.721 5.864 20.804 13.217 20.804 7.76 0 12.78-8.665 12.78-21.037 0-12.722-5.836-20.804-13.19-20.804-7.789 0-12.807 8.666-12.807 21.037zm31.977-.467c0 13.363-7.877 22.351-18.995 22.351-11.349 0-18.936-7.965-18.936-21.65 0-13.363 7.879-22.35 18.995-22.35 11.35 0 18.936 7.965 18.936 21.65M797.08 428.259c0 1.925.059 3.646.176 4.901h-1.37c-.847-8.316-1.722-11.175-9.193-11.175h-3.238v33.992c0 4.844 1.021 5.572 6.04 5.747v1.197c-2.1-.116-5.543-.174-8.783-.174-3.59 0-6.944.058-8.84.174v-1.197c5.019-.175 6.039-.903 6.039-5.747v-33.992h-3.238c-7.47 0-8.374 2.859-9.192 11.175h-1.37c.117-1.255.174-2.976.174-4.901 0-1.49-.116-4.61-.438-7.646 4.961.175 11.964.175 16.865.175 4.903 0 11.817 0 16.777-.175-.292 3.036-.409 6.156-.409 7.646M841.13 462.921c-4.057-.174-9.687-.174-13.685-.174-3.589 0-11.466 0-17.332.174v-1.197c4.056-.175 4.843-.788 4.843-5.133v-29.646c0-4.346-.787-4.96-4.843-5.134v-1.198c5.866.175 13.743.175 17.332.175 3.647 0 8.783 0 12.488-.175-.292 2.802-.409 5.691-.409 7.062 0 1.429.059 2.801.176 3.705h-1.372c-.788-7.06-1.692-9.395-8.024-9.395h-4.96c-4.056 0-4.843.614-4.843 4.96v14.094h3.967c5.195 0 5.077-5.019 5.544-7.879h1.372a78.246 78.246 0 00-.205 5.63c0 1.11.03 1.985.03 2.86 0 1.955.059 3.94.351 8.491h-1.373c-.466-3.821-.524-7.906-5.719-7.906h-3.967v14.356c0 4.345.787 4.958 4.843 4.958h4.377c7.468 0 8.956-2.684 9.803-10.59h1.372c-.116 1.08-.175 2.654-.175 4.317 0 1.49.116 4.61.408 7.645M870.093 421.81c-4.056.175-4.844.789-4.844 5.135v29.646c0 4.345.788 4.958 4.844 4.958h4.376c7.47 0 8.958-2.858 9.804-11.173h1.371c-.116 1.253-.175 2.975-.175 4.9 0 1.49.116 4.61.408 7.645-4.054-.174-9.686-.174-13.684-.174-3.588 0-11.466 0-17.332.174v-1.197c4.056-.175 4.844-.788 4.844-5.133v-29.646c0-4.346-.788-4.96-4.844-5.134v-1.198c1.664.118 4.552.175 7.646.175 2.742 0 5.748-.057 7.586-.175v1.198" fill="#fbc01a"/><path d="M553.417 312.193H524.15V287.25c0-8.082 6.552-14.634 14.635-14.634s14.633 6.552 14.633 14.634v24.944" fill="#12b1c3"/><path d="M553.417 287.25c0-3.065-.944-5.906-2.553-8.257-.501 12.735-7.996 27.58-19.43 33.2h21.983V287.25" fill="#1297b2"/><path d="M543.563 273.308h-9.556v-4.759h9.556v4.759M543.563 261.525h-9.556v-4.757h9.556v4.757" fill="#fff"/><path d="M540.261 273.308h-2.954v-12.42h2.954v12.42M537.828 258.356c-2.464-.196-4.984-.073-7.405.437-1.828.386-3.732 1.155-4.714 2.846-.497.857.798 1.696 1.298.836.838-1.447 2.537-1.947 4.085-2.242 2.197-.42 4.439-.513 6.668-.336.99.079 1.057-1.462.068-1.541M538.784 301.883a7.01 7.01 0 01-7.01-7.01v-4.938a7.01 7.01 0 1114.02 0v4.938a7.01 7.01 0 01-7.01 7.01" fill="#fff"/></svg>