<svg xmlns="http://www.w3.org/2000/svg" height="2666.667" width="4000"><path d="M3999.998 2666.667H0V-.007h3999.998v2666.674" fill="#fff"/><path d="M601.61 2443.4s-406.71-417.135-147.703-907.654c259.008-490.52 606.564-243.673 589.936-814.707-16.626-571.043 799.72-619.805 1059.507-454.144 259.787 165.661 258.148 365.076 794.577 299.281 536.45-65.794 638.743 484.249 499.092 764.51-198.145 397.646 549.428 332.312 78.13 1113.714l-2873.539-1" fill="#ebf3fa"/><path d="M3120.58 1061.543c0 40.589-3.656 80.354-10.682 118.967-16.867 92.641-53.03 178.532-104.243 253.386-118.927 173.946-318.893 288.106-545.527 288.106-269.576 0-501.456-161.506-604.078-393.075a649.126 649.126 0 01-33.64-94.98c-14.866-54.953-22.773-112.77-22.773-172.404 0-48.23 5.173-95.275 15-140.542.094-.527.226-1.02.32-1.55 27.453-125.19 90.399-237.033 177.773-324.543a662.13 662.13 0 0180.025-68.366 650.97 650.97 0 0141.907-27.99c100.472-61.837 218.786-97.484 345.466-97.484 16.809 0 33.446.612 49.91 1.876a647.636 647.636 0 0168.672 8.73c94.747 17.154 182.41 54.543 258.453 107.535h.02a663.631 663.631 0 01127.407 115.96 660.461 660.461 0 0153.758 73.209 666.945 666.945 0 0128.334 49.248 656.115 656.115 0 0150.332 128.42c15.373 55.874 23.567 114.748 23.567 175.497" fill="#dce8ff"/><path d="M2368.537 736.577a103.285 103.285 0 00-13.854-.948l-469.058-.16c29.356-51.596 65.465-98.846 107.115-140.569a660.54 660.54 0 0180.018-68.352 648.672 648.672 0 0141.913-28.015c20.591.759 45.194 8.575 66.179 34.534 46.127 57.123 76.869 28.569 65.902 94.456-10.062 60.273 3.792 72.77 34.81 72.77 2.888 0 5.921-.101 9.1-.29 8.123-.482 16.553-.861 24.836-.861 29.75 0 57.4 4.856 60.827 27.212.758 4.988-2.217 8.152-7.788 10.223M2455.29 1437.558l.032-61.774c8.584 13.666 16.817 27.64 15.447 39.12-1.226 10.2-7.532 16.601-15.479 22.654m44.956-102.733c-8.52 0-17.008-2.655-24.986-5.311-7.166-2.384-13.918-4.767-19.922-5.23l.064-163.565c7.835 3.607 16.641 4.79 24.843 4.79 15.606-.001 28.951-4.28 28.951-4.28 6.943-7.641 19.174-11.218 31.611-11.218 26.93 0 54.957 16.724 33.188 45.26-31.85 41.732-10.989 76.872-41.74 120.8-10.064 14.376-21.068 18.754-32.009 18.754M2980.901 1437.975c-9.38 0-18.743-1.772-28.047-5.506-82.36-32.948-21.423-121.892 11.525-166.369 32.948-44.477-51.059-24.708-112.015-65.89-56.381-38.1-2.795-135.42-44.014-135.42-3.35 0-7.294.638-11.984 1.993-31.953 9.245-67.313 19.779-99.112 19.78-30.517 0-57.76-9.698-75.507-39.547-36.24-60.949 32.948-70.831 1.666-121.897-31.302-51.065 18.11-80.716 80.695-85.658 62.603-4.94 54.37-49.418 131.791-56.007a85.514 85.514 0 017.256-.316c33.905 0 51.69 21.572 70.376 43.144 18.685 21.572 38.27 43.145 75.775 43.145 2.584 0 5.264-.102 8.021-.314 12.234-.942 22.648-1.346 31.512-1.346 53.127 0 50.293 14.523 50.293 14.523.364-.01.709-.013 1.053-.013 5.782 0 11.43 1.284 16.829 3.77 15.373 55.873 23.567 114.747 23.567 175.496 0 40.589-3.657 80.354-10.683 118.967-16.867 92.641-53.03 178.532-104.243 253.386-8.194 2.693-16.483 4.08-24.754 4.08M3015.622 765.384c-21.046 0-38.26-11.102-54.952-22.205-16.692-11.103-32.84-22.205-51.775-22.205-7.178 0-14.766 1.588-22.916 5.383-11.944 5.551-21.14 7.962-28.598 7.962-30.84 0-31.438-41.158-70.354-69.475-11.7-8.505-26.242-11.215-41.513-11.215-13.346 0-27.252 2.075-40.28 4.15-13.01 2.074-25.159 4.149-34.99 4.149-15.477 0-25.233-5.122-23.776-23.44 4.374-54.877 76.86-39.531 92.242-83.437 10.262-29.29 44.915-34.168 66.878-34.168 10.972 0 18.785 1.215 18.785 1.215 3.98-1.514 8.261-2.505 12.784-2.897h.02a662.38 662.38 0 01127.4 115.96c19.532 23.103 37.531 47.552 53.774 73.215 10.112 15.98 19.57 32.373 28.336 49.251-11.327 5.514-21.607 7.757-31.065 7.757M2366.067 653.515c-24.305 0-47.758-54.113-75.416-85.292-32.444-36.558-18.53-70.22 21.364-70.22a79 79 0 018.29.457c5.075.548 9.586.762 13.654.762 11.186 0 19.14-1.707 26.836-3.429 7.68-1.707 15.101-3.429 25.235-3.429 9.6 0 21.624 1.555 38.585 6.096 59.31 15.894 21.974 69.763 21.974 69.763-36.786 3.84-30.736 34.044-62.052 73.923-6.263 7.986-12.39 11.369-18.47 11.369" fill="#b1caff"/><path d="M3551.576 2133.093c26.274-83.733-108.455-138.36-108.455-138.36s-161.574 72.681-187.256 60.455c-25.703-12.228 126.015-89.108 126.015-89.108-43.263-33.906-196.847-52.439-196.847-52.439s-85.65 150.494-107.533 132.32c-21.906-18.173 82.641-129.387 82.641-129.387-53.162-15.106-128.056 10.347-128.056 10.347-106.194 51.519-65.367 236.733-133.631 274.785 0 0-13.895 6.201-32.684 19.828l12.16 7.772c3.073-2.625 6.19-5.079 9.329-7.333l.066-.04.132-.092a914.096 914.096 0 018.516-5.562l.022-.01v-.016c8.385-4.893 14.312-8.666 18.372-11.533l.044-.026c25.726-15.72 75.794-37.16 75.442-34.64-7.66 57.907 91.685 131.839 157.272 156.987 65.609 25.146 50.77-7.36 36.503-53.854-14.268-46.506-84.178-81.294-96.865-104.052-12.688-22.76 22.213-15.122 58.98 12.544 36.765 27.681 31.41 78.695 90.06 124.534 58.672 45.84 181.307-41.253 181.307-41.253-51.692-14.16-113.81-87.346-107.292-104.12 6.52-16.772 120.089 57.867 140.788 64.8 20.677 6.935 74.718-8.812 100.97-92.547M478.267 1839.76c12.537-111.867 198.93-106.24 198.93-106.24s152.012 168.973 188.498 167.933c36.488-1.04-101.756-169.84-101.756-169.84 68.322-17.4 258.172 40.374 258.172 40.374s22.6 220.986 57.705 211c35.108-10-29.992-194.654-29.992-194.654 70.221 9.8 144.932 78.454 144.932 78.454 97.959 115.453-45.877 311.693 14.552 391.706h.003s13.085 14.48 28.084 40.2l-18.299 2.814c-2.25-4.667-4.63-9.16-7.155-13.427l-.048-.08-.11-.187c-1.69-2.64-4.111-6.373-7.111-10.933l-.013-.013-.014-.027c-7.277-10.08-12.3-17.587-15.588-23.053l-.028-.054c-22.044-31.773-69.698-82.853-70.614-79.72-20.979 71.947-175.868 107.267-265.882 102.814-90.012-4.454-55.77-34.934-14.942-82.107 40.829-47.187 140.893-51.827 167.565-71.973 26.672-20.134-18.25-29.254-75.732-15.814-57.48 13.44-77.601 76.094-170.19 99.52-92.587 23.427-191.418-142.28-191.418-142.28 67.985 10.134 178.81-43.586 179.837-66.653.639-14.373-65.876-8.613-122.849-2.853-34.459 3.48-65.427 6.96-75.935 6-27.882-2.574-83.14-49.04-70.602-160.907" fill="#dfebfd"/><path d="M3049.548 1918.612s48.283-172.226 154.528-262.946c3.874-3.306 8.305-4.773 12.637-4.773 11.425 0 22.075 10.174 19.73 23.427l-.178.92c-6.04 31.12-127.287 147.494-186.717 243.372M3063.732 1918.506c47.569-65.386 142.665-179.294 259.015-229.907a21.344 21.344 0 018.6-1.786c7.757 0 15.266 4.172 18.785 11.52 3.148 6.559 3.539 16.12-3.292 29.866-14.896 30.026-145.525 104.667-251.073 185.054-11.604 1.28-22.57 3.226-32.035 5.253" fill="#d8e8fd"/><path d="M3030.81 1967.145s11.737-19.507 32.932-48.64c9.459-2.028 20.436-3.973 32.04-5.255-23.398 17.828-45.581 35.934-64.973 53.895" fill="#d2e4fe"/><path d="M998.921 1730.053c-59.429-95.893-180.677-212.253-186.717-243.373-.06-.32-.119-.627-.172-.933-2.35-13.254 8.299-23.427 19.716-23.427 4.33 0 8.77 1.467 12.653 4.787 106.235 90.72 154.52 262.946 154.52 262.946M1011.556 1768.893a744.523 744.523 0 00-6.81-1.946C896.071 1671.613 719.12 1574.88 701.63 1539.64c-6.827-13.76-6.44-23.307-3.288-29.88 3.526-7.347 11.016-11.52 18.788-11.52 2.893 0 5.828.587 8.609 1.787 146.27 63.653 258.955 227.32 285.816 268.866" fill="#d8e8fd"/><path d="M1017.676 1778.587c-4.19-3.88-8.499-7.76-12.93-11.64 2.518.706 4.793 1.36 6.81 1.946 4.02 6.214 6.12 9.694 6.12 9.694" fill="#d2e4fe"/><path d="M2444.246 836.515l-.525 1506.526c0 49.494-40.143 89.599-89.613 89.585l-787.532-.265c-49.5-.027-89.607-40.16-89.593-89.653l.52-1506.523c.014-49.485 40.143-89.583 89.643-89.568l787.547.27c49.455.015 89.568 40.158 89.553 89.628" fill="#c2cfff"/><path d="M1567.148 757.855c-43.22-.015-78.376 35.13-78.402 78.335l-.507 1506.53c-.026 43.213 35.117 78.374 78.337 78.386l787.528.28c43.206.014 78.381-35.132 78.381-78.333l.527-1506.531c.016-43.22-35.13-78.381-78.335-78.396l-787.529-.271M2354.09 2443.88l-787.528-.28c-55.618-.013-100.842-45.28-100.829-100.88l.52-1506.53c.027-55.618 45.278-100.842 100.896-100.827l787.529.272c55.618.015 100.842 45.284 100.827 100.887l-.512 1506.531c-.015 55.614-45.284 100.84-100.903 100.827" fill="#163560"/><path d="M1624.453 889.733l-13.24 9.507-13.306-9.413a16.343 16.343 0 0113.32-6.88c5.453 0 10.28 2.666 13.226 6.786M1611.227 859.787c-13.307 0-25.08 6.613-32.214 16.733l8.4 5.893c5.28-7.466 14-12.333 23.814-12.333 9.733 0 18.386 4.8 23.666 12.187l8.374-6c-7.174-9.987-18.867-16.48-32.04-16.48M1611.24 815.773c-28.16 0-53.067 13.987-68.173 35.387l8.413 5.893c13.24-18.72 35.093-31 59.76-30.986 24.453.013 46.16 12.093 59.44 30.586l8.333-6c-15.12-21.106-39.853-34.866-67.773-34.88" fill="#fff"/><path d="M1611.24 839.853c-20.04 0-37.813 9.907-48.613 25.094l8.4 5.906c8.946-12.52 23.64-20.706 40.2-20.706 16.44.013 31.013 8.066 40 20.426l8.333-5.96c-10.84-15-28.467-24.746-48.32-24.76" fill="#fff"/><path d="M1788.027 589.893s-57.427-27.6-131.627-12.44c0 0 84.867-5.8 135.187 48.067 0 0 35.2-53.96 93.373-66.333 0 0-43.347-5.174-96.933 30.706M1626.187 563.893s-44.294-21.6-101.747-10.213c0 0 65.667-4.093 104.333 37.787 0 0 27.467-41.574 72.52-50.88 0 0-33.506-4.2-75.106 23.306M1483.32 544.2s-41.12-17.933-92.947-5.373c0 0 59.574-6.254 96.374 30.36 0 0 23.373-38.88 63.986-49.08 0 0-30.626-2.52-67.413 24.093M1403.223 502.883s-28.85-9.501-63.009 2.238c0 0 39.773-7.974 66.896 14.392 0 0 13.32-27.686 40.067-37.133 0 0-20.824.228-43.954 20.503M1689.947 401.286s-28.338-10.987-63.053-1.037c0 0 40.138-5.9 66.066 17.855 0 0 14.73-26.964 41.932-34.995 0 0-20.798-.855-44.945 18.177M1829.548 499.15s-39.532-19.927-91.272-10.38c0 0 59.028-2.905 93.262 35.188 0 0 25.185-37.03 65.752-44.843 0 0-30.052-4.168-67.742 20.035M1774.464 437.293s-37.223-17.029-84.69-6.413c0 0 54.433-4.728 87.4 29.262 0 0 21.95-35.081 59.173-43.72 0 0-27.907-2.806-61.883 20.871" fill="#9fc1f4"/><path d="M2854.64 995.18c0-36.11 29.44-65.545 65.557-65.545 36.266 0 65.539 29.434 65.539 65.546 0 36.28-29.273 65.545-65.539 65.545-36.116 0-65.557-29.265-65.557-65.545zm-45.694 7.018c0 66.057 111.251 171.65 111.251 171.65s111.233-105.593 111.233-171.65c0-66.062-49.804-119.627-111.233-119.627-61.446 0-111.251 53.565-111.251 119.627M2472.975 575c0-34.68 28.293-62.957 62.973-62.957 34.843 0 62.957 28.276 62.957 62.957 0 34.859-28.114 62.957-62.957 62.957-34.68 0-62.973-28.098-62.973-62.957zm-43.89 6.745c0 63.443 106.863 164.874 106.863 164.874s106.847-101.431 106.847-164.874c0-63.46-47.846-114.905-106.847-114.905-59.017 0-106.863 51.445-106.863 114.905" fill="#f78e48"/><path d="M3094.56 2400.345h-263.574c-25.287 0-45.763-20.48-45.763-45.76v-5.973h351.636v9.428c0 23.36-18.937 42.305-42.3 42.305" fill="#163560"/><path d="M3148.92 1914.214v419.666c0 5.054-.56 9.988-1.622 14.732h-49.224a38.46 38.46 0 00-20.786 6.068 38.49 38.49 0 00-9.679 8.813 38.487 38.487 0 00-8.172 23.774v13.08H2866.62v-13.08c0-13.494-6.897-25.373-17.387-32.293a38.65 38.65 0 00-9.678-4.6 38.511 38.511 0 00-11.572-1.762h-53.203a67.378 67.378 0 01-1.623-14.732v-419.666c0-36.721 29.712-66.481 66.398-66.481h242.95c36.705 0 66.417 29.76 66.417 66.48" fill="#f78248"/><path d="M3031.796 1847.503c-87.022-34.292-147.74-.532-148.355-.186l-3.127-5.467c.651-.374 16.157-9.173 42.98-13.625 24.626-4.094 63.846-5.095 110.81 13.426l-2.308 5.852M2834.418 2415.586h-25.458v-34.667h25.458v34.667" fill="#163560"/><path d="M2803.587 2420.839c0-10.013 8.119-18.12 18.12-18.12 10 0 18.1 8.107 18.1 18.12 0 10.014-8.1 18.12-18.1 18.12-10.001 0-18.12-8.106-18.12-18.12" fill="#1f4777"/><path d="M2810.695 2420.84c0-6.08 4.919-11 11.001-11 6.065 0 10.983 4.92 10.983 11s-4.918 11.001-10.983 11.001c-6.082 0-11-4.921-11-11M3096.196 2415.586h-25.454v-34.668h25.454v34.668" fill="#163560"/><path d="M3065.354 2420.84c0-10.014 8.106-18.12 18.095-18.12 10.009 0 18.115 8.106 18.115 18.12 0 10.013-8.106 18.12-18.115 18.12-9.99 0-18.095-8.107-18.095-18.12" fill="#1f4777"/><path d="M3072.473 2420.84c0-6.081 4.917-11 10.992-11 6.075 0 10.992 4.919 10.992 11 0 6.08-4.917 11-10.992 11-6.075 0-10.992-4.92-10.992-11" fill="#163560"/><path d="M2849.24 1847.734v507.24a38.672 38.672 0 00-9.684-4.6v-502.64h9.684M2926.741 1847.736v552.612h-9.696v-552.612h9.696M2999.07 1847.733v552.613h-9.697v-552.613h9.697M3077.288 1847.734v506.947a38.595 38.595 0 00-9.685 8.812v-515.759h9.685" fill="#e06832"/><path d="M2563.256 1630.455c-.016-.72 10.58-22.626 7.216-24.319-3.364-1.68-9.411-1.427-10.122 2.413-.695 3.84 2.906 21.906 2.906 21.906" fill="#ffb27d"/><path d="M2567.25 1643.534c0-2.147-2.473-34.959-8.033-41.493-5.512-6.52-16.82-15.813-20.38-15.533-3.544.293-17.451 18.76-13.262 32.907 4.174 14.16 21.814 33.306 21.814 33.306l19.86-9.187" fill="#ffb27d"/><path d="M2588.336 1603.79l-32.224 9.654a2.01 2.01 0 01-2.51-1.36l-18.416-61.427a2.025 2.025 0 011.366-2.52l32.208-9.654a2.021 2.021 0 012.51 1.362l18.417 61.426a2.03 2.03 0 01-1.35 2.52" fill="#f1a34f"/><path d="M2579.962 1606.295l-29.22 8.761c-1.886.56-3.898-.507-4.453-2.4l-17.526-58.44a3.59 3.59 0 012.409-4.467l29.22-8.76a3.594 3.594 0 014.469 2.414l17.51 58.426a3.581 3.581 0 01-2.409 4.466" fill="#d86713"/><path d="M2535.522 1588.892s13.409-20.64 16.69-19.493c4.679 1.64-12.152 27.84-12.152 27.84s12.482-19.573 14.429-18.107c4.427 3.36-2.638 15.654-9.64 25.08 0 0 12.544-11.494 12.953-9.414 1.428 7.241-13.77 24.814-13.77 24.814l-8.51-19.413v-11.307M2525.455 1608.067c.653-2.52 3.935-51.827 5.335-47.146 1.4 4.68 4.73 30.52 4.73 30.52l-10.065 16.626" fill="#ffb27d"/><path d="M2739.552 1594.497s-1.395 53.586-16.874 96.852c-12.186 34.16-33.178 61.867-69.145 51.627a191.32 191.32 0 01-10.706-3.374l-.05-.027c-73.111-25.466-96.759-83.746-96.759-83.746 5.463-8.987 21.21-12.292 21.21-12.292 14.724.8 79.431 28.266 83.549 29.106 14.975 3 27.06-79.227 36.79-107.706 9.715-28.493 49.514-41.24 49.514-41.24l2.47 70.8" fill="#739af0"/><path d="M2724.1 1652.722l-1.421 38.627c-12.2 34.16-33.174 61.867-69.156 51.627a193.44 193.44 0 01-10.695-3.374c1.153.147 23.18 3.12 32.388-6.093 9.476-9.493 8.49-40.907 25.937-61.854 17.448-20.945 22.946-18.933 22.946-18.933" fill="#5283db"/><path d="M2726.12 2358.987s17.996 16.426 14.477 28.093c-3.501 11.667-19.747 19.44-21.936 33.694-2.205 14.266-10.976 22.04-18.872 22.04h-37.66s-5.808-10.027 8.232-13.054c14.04-3.027 19.327-19.786 18.468-35.333-.892-15.56 1.297-36.307 1.297-36.307l29.848-6.907 6.145 7.774" fill="#133054"/><path d="M2527.882 2439.828h110.894c4.338 0 7.91-3.441 8.04-7.787.163-6.507-.375-15.948-3.98-23.92-5.92-13.12-9.654-15.413 15.346-53.6-7.518 7.733-27.788 4.2-44.895 1.893-2.088 3.399-33.823 52.427-40.819 57.453-7.73 5.546-42.205 3.573-44.586 25.96M2700.67 1824.948s-80.404 151.692-102.256 235.226c-16.95 64.827 86.54 315.693 86.54 315.693s8.45-.56 22.252-5.987c13.56-5.32 18.706-19.6 18.706-19.6s-6.137-179.373-27.085-266.146c-4.694-19.48 22.791-82.321 69.156-116.734 46.382-34.413 65.696-145.12 38.09-152.614-27.607-7.478-105.403 10.162-105.403 10.162" fill="#163560"/><path d="M2769.487 1781.878s-84.511 309.813-110.143 379.374c-25.65 69.573-66.3 217.227-66.3 217.227s25.703 12.067 58.63 6.36c0 0 123.574-181.04 128.943-261.054 2.497-36.986 126.803-183.613 112.944-279.214l-124.074-62.693" fill="#1c468a"/><path d="M2893.353 1878.549s-17.981 9.066-49.789 11.733h-.018c-36.41 3.053-90.928-2.307-157.319-39.28 0 0-18.536-15.266 4.227-80.16 17.211-49.147 25.61-152.733 46.637-247.146 0 0 68.2-21.4 122.896-2.907 41.82 14.147 37.665 78.293 45.384 145.107.716 6.24 1.522 12.492 2.507 18.733 11.408 73.133-14.525 193.92-14.525 193.92" fill="#739af0"/><path d="M2713.045 1383.92s46.556-75.763 82.6-36.773c0 0 23.575 6.026 37.056 42.706 13.779 37.44-7.683 70.493-22.003 65.148-9.186-3.414-13.464 12.412-13.464 12.412l-84.19-83.492" fill="#233862"/><path d="M2788.52 1341.17s3.188-31.368 49.04-28.316c0 0-21.682.387-26.341 9.428 0 0 15.763-10.158 27.252-5.215 11.507 4.942 16.376 26.45 15.763 33.303-.63 6.854-9.458 28.253-17.182 29.36-7.723 1.12-17.864-4.347-17.864-4.347l-30.668-34.213" fill="#233862"/><path d="M2811.598 1518.867c-4.312-11.465-10.712-23.519-15.87-60.16l-2.742.961-46.28 16.306s3.244 14.827 5.314 28.947c.845 5.76 1.466 16.066 1.845 25.067.414 9.187 9.453 10.066 18.646 9.64 24.46-1.133 37.948-10.266 39.087-20.76" fill="#ffb27d"/><path d="M2746.713 1475.97s3.255 14.827 5.329 28.947c26.542-4.6 37.114-30.946 40.952-45.254l-46.281 16.307" fill="#e8945b"/><path d="M2797.16 1453.77s10.788-24.08 11.425-43.427c.448-13.826-13.614-62.772-62.764-48.346 0 0-14.355 3.534-26.729 14.774-9.84 8.92-23.265 27.078.586 68.12l6.687 14.053 70.794-5.173" fill="#233862"/><path d="M2739.735 1490.625s63.213-8.052 57.607-47.345c-5.64-39.281-1.255-66.774-41.855-63.294-40.6 3.48-46.274 19.587-47.581 33.147-1.324 13.573 15.235 78.574 31.83 77.492" fill="#ffb27d"/><path d="M2726.633 1383.156s23.91 43.601 51.378 46.588c27.486 3 37.955-5.76 37.955-5.76s-22.631-13.214-30.924-40.786c0 0-48.545-23.855-58.41-.042" fill="#233862"/><path d="M2731.445 1386.284s-11.411 12.146-13.12 22.612c-1.693 10.454-.152 31.241-6.234 31.414 0 0-17.545-29.453-5.48-49.28 12.803-21.026 24.834-4.746 24.834-4.746" fill="#233862"/><path d="M2729.277 1388.19s19.25 46.48 54.915 57.12c0 0-37.698-24.827-45.145-56.28-7.43-31.44-9.77-.84-9.77-.84" fill="#233862"/><path d="M2893.353 1878.549s-17.981 9.066-49.789 11.733h-.018s-26.13-32.76 3.027-69.453c29.14-36.707-2.293-104.426 20.148-141.266 15.636-25.627 30.841-19.654 38.65-13.667.716 6.24 1.522 12.492 2.507 18.733 11.408 73.133-14.525 193.92-14.525 193.92" fill="#5283db"/><path d="M3008.032 1824.105s3.877 9.027 9.29 9.626c8.84.987 25.677 8.4 28.318 9.96 7.154 4.254 6.667 23.28-.487 25.067-7.173 1.8-10.75-14.174-33.131-18.44-7.585-1.454-18.654 3.787-23.13-14.4l19.14-11.813" fill="#ffb27d"/><path d="M2859.995 1520.789c65.085 23.947 67.49 139.24 96.498 190.027 29.934 52.36 59.072 121.294 59.072 121.294s-.518 2.052-11.674 5.252c-7.88 2.254-16.076 1.293-16.076 1.293s-61.477-55.627-78.202-77.559c-16.706-21.947-56.093-123.76-56.093-123.76s-19.351-126.053 6.475-116.547" fill="#739af0"/><path d="M2990.484 1840.429s1.575 7.747 11.175 14.014c9.6 6.266 17.29 12.534 18.217 8.653.927-3.879-5.337-8.052-6.838-15.213-1.483-7.16-22.554-7.454-22.554-7.454" fill="#ffb27d"/><path d="M2432.742 2140.184h-944.496v-683.722h944.496v683.722" fill="#f78e48"/><path d="M2194.936 2325.76V2418c0 1.133-.013 2.267-.067 3.386h-472.302a94.016 94.016 0 01-.067-3.387v-92.24c0-42.067 27.16-76.492 60.34-76.492h351.756c33.18 0 60.34 34.425 60.34 76.492" fill="#f78248"/><path d="M1958.24 2366.627l-30.4-27.214 8.547-9.546 19.626 17.586 27.187-38.88 10.493 7.334-35.453 50.72" fill="#ffe3ca"/><path d="M1960.76 2282.4c-30.427 0-55.2 24.76-55.2 55.2s24.773 55.2 55.2 55.2c30.44 0 55.2-24.76 55.2-55.2s-24.76-55.2-55.2-55.2zm0 113.387c-32.08 0-58.187-26.107-58.187-58.187 0-32.093 26.107-58.187 58.187-58.187 32.093 0 58.2 26.094 58.2 58.187 0 32.08-26.107 58.187-58.2 58.187" fill="#ffe3ca"/><path d="M1572.813 1011.64s21.867-48.693 74.174-43.293c0 0 75.92-81.16 156.893-10.814 0 0 86.067-17.44 149.8 15.094 42.493 21.68 56.533 44.426 56.533 44.426l-437.4-5.413M1880.853 896.52c.28-.013.547-.013.827-.013 3.307-.067 6.493-1.254 8.947-3.494 11-10.053 44.506-35.066 80.586-6.333 2.827 2.253 6.467 3.187 10.04 2.667 13.934-2.04 50.347-5.334 78.854 9.933.773.413 1.533.827 2.28 1.253 11.866 6.654 6.88 24.8-6.72 24.627l-174.427-2.267c-17.093-.226-17.467-25.733-.387-26.373" fill="#ebf3fa"/><path d="M2129.047 1532.617c-29.042 0-52.662 23.64-52.662 52.68v395.931c0 29.04 23.62 52.667 52.662 52.667h187.494c29.042 0 52.662-23.627 52.662-52.667v-395.931c0-29.04-23.62-52.68-52.662-52.68zm187.494 507.266h-187.494c-32.335 0-58.651-26.307-58.651-58.655v-395.931c0-32.346 26.316-58.653 58.65-58.653h187.495c32.335 0 58.651 26.307 58.651 58.653v395.931c0 32.348-26.316 58.655-58.65 58.655M1985.387 1784.72H1714.52c-23.84 0-43.16-19.32-43.16-43.16v-168.773c0-23.84 19.32-43.16 43.16-43.16h270.867c23.826 0 43.146 19.32 43.146 43.16v168.773c0 23.84-19.32 43.16-43.146 43.16M1710.52 1829.787c-19.947 0-36.173 16.226-36.173 36.173v131.76c0 19.947 16.226 36.173 36.173 36.173h278.853c19.947 0 36.174-16.226 36.174-36.173v-131.76c0-19.947-16.227-36.173-36.174-36.173zm278.853 210.093H1710.52c-23.24 0-42.147-18.907-42.147-42.16v-131.76c0-23.24 18.907-42.16 42.147-42.16h278.853c23.24 0 42.147 18.92 42.147 42.16v131.76c0 23.253-18.907 42.16-42.147 42.16" fill="#ffe3ca"/><path d="M2176.882 1666.676c0-25.294 20.622-45.92 45.93-45.92 25.422 0 45.917 20.626 45.917 45.92 0 25.427-20.495 45.934-45.917 45.934-25.308 0-45.93-20.507-45.93-45.934zm-32.013 4.92c0 46.28 77.943 120.267 77.943 120.267s77.944-73.987 77.944-120.268c0-46.279-34.907-83.813-77.944-83.813-43.05 0-77.943 37.534-77.943 83.813" fill="#ffe3ca"/><path d="M1992.147 1698.52l-3.68.027c-.134 0-.254.026-.387.053l-28.293 7.733a1.55 1.55 0 01-1.04-.093l-39.76-15.32c-1.027-.48 5.133-3.48 6.04-4.147 9.946-7.24 41.48-24.88 53.333-32.706 1.893-1.254 1.373-4.174-.84-4.68a5.617 5.617 0 00-3.213.186l-57.92 21.027-7.787-4.933a2.451 2.451 0 00-3.36.76l-3.813 6.04c-.707 1.106-.387 2.586.693 3.32l-7.453 2.706c-.36.134-.747.12-1.094-.026l-35.653-15.2a14.83 14.83 0 00-9.973-.6c-1.334.386-2.774.813-4.107 1.2-2.76.813-4.28 3.773-3.347 6.493l.467 1.373a15.808 15.808 0 009.387 9.68l28.906 10.88c.574.214.96.76.974 1.374l.253 12.48-1.653-1.04a2.448 2.448 0 00-3.36.746l-3.814 6.04c-.706 1.134-.373 2.654.76 3.36l8.36 5.307.414 19.493a7.82 7.82 0 001.426 4.387c1.147 1.653 2.347 3.48 2.774 3.28 1.373-.613 14.466-30.627 18.92-42.44.253-.667 5.933 1.453 6.6 1.707l39.413 12.04c.507.2.867.64.947 1.173l1.746 11.507c.2 1.28.827 2.466 1.787 3.346l.04.04c.68.627 1.747.494 2.253-.28l9.174-14.04a1.447 1.447 0 011.2-.68l4.226-.133c1.32-.04 1.934-1.653.987-2.573l-1.027-.987 21.374-15.173c1.2-.84.586-2.72-.88-2.707" fill="#f78e48"/><path d="M1935.36 1879.933c-28.627 0-51.907 23.28-51.907 51.907 0 28.627 23.28 51.92 51.907 51.92 28.627 0 51.92-23.293 51.92-51.92 0-28.627-23.293-51.907-51.92-51.907zm0 110.2c-32.147 0-58.293-26.146-58.293-58.293s26.146-58.293 58.293-58.293 58.307 26.146 58.307 58.293-26.16 58.293-58.307 58.293" fill="#ffe3ca"/><path d="M1935.387 1939.667h-.8a2.043 2.043 0 01-2.027-2.027v-32.48c0-1.107.92-2.027 2.027-2.027h.8c1.12 0 2.026.92 2.026 2.027v32.48a2.034 2.034 0 01-2.026 2.027" fill="#ffe3ca"/><path d="M1934.293 1938.613l-.066-.08a1.159 1.159 0 010-1.64l32.413-32.413a1.159 1.159 0 011.64 0l.067.067c.453.453.453 1.2 0 1.653l-32.414 32.413c-.453.44-1.186.44-1.64 0" fill="#ffe3ca"/><path d="M1931.8 1937.44a3.187 3.187 0 116.373 0 3.187 3.187 0 01-6.373 0M1837.973 1875.307H1709.8v-13.294h128.173v13.294M1837.973 1905.747H1709.8v-13.387h128.173v13.387M1786.653 1936.187H1709.8V1922.8h76.853v13.387M2286.89 1875.881h-128.192v-13.293h128.192v13.293M2286.89 1906.32h-128.192v-13.385h128.192v13.386M2235.578 1936.745h-76.874v-13.386h76.874v13.386" fill="#ffe3ca"/><path d="M1845.92 1601.6h-128.173v-13.307h128.173v13.307M1845.92 1632.027h-128.173v-13.387h128.173v13.387M1794.613 1662.467h-76.866v-13.387h76.866v13.387M2705.424 289.068h-.233a96.028 96.028 0 00-13.989-.09 2.996 2.996 0 01-3.192-2.798 2.976 2.976 0 012.78-3.174c4.842-.323 9.81-.305 14.85.09a2.981 2.981 0 012.761 3.21 2.978 2.978 0 01-2.977 2.762zm28.247 5.667c-.34 0-.681-.054-1.022-.18a65.877 65.877 0 00-6.726-2.062 187.81 187.81 0 00-6.779-1.506 2.987 2.987 0 01-2.35-3.515 2.987 2.987 0 013.516-2.35c2.278.449 4.663.987 7.048 1.56a73.29 73.29 0 017.335 2.242 3.007 3.007 0 011.794 3.838 2.97 2.97 0 01-2.816 1.973zm-70.734.574a3.004 3.004 0 01-2.78-1.883 2.996 2.996 0 011.686-3.892 93.667 93.667 0 0114.222-4.394c1.597-.377 3.21.646 3.57 2.26a2.99 2.99 0 01-2.26 3.569 91.408 91.408 0 00-13.326 4.125 2.99 2.99 0 01-1.112.215zm95.448 13.774a2.982 2.982 0 01-1.883-.664c-3.748-3.013-7.586-5.685-11.407-7.945a2.982 2.982 0 01-1.04-4.089c.825-1.435 2.655-1.901 4.09-1.058 4.07 2.385 8.142 5.237 12.123 8.43a3.01 3.01 0 01.448 4.214 3.025 3.025 0 01-2.331 1.112zm-120.466.43a2.965 2.965 0 01-2.404-1.202c-1.004-1.327-.717-3.192.592-4.196 4.054-3.013 8.214-5.757 12.375-8.125 1.417-.825 3.246-.322 4.071 1.112.807 1.435.323 3.264-1.112 4.09-3.945 2.241-7.89 4.842-11.747 7.73a2.974 2.974 0 01-1.775.591zm-21.27 19.477a3.037 3.037 0 01-2.027-.79c-1.22-1.111-1.292-3.012-.18-4.232 3.39-3.694 6.87-7.21 10.349-10.402 1.22-1.13 3.102-1.04 4.232.162 1.112 1.22 1.04 3.12-.18 4.232a170.963 170.963 0 00-9.989 10.062 2.98 2.98 0 01-2.206.968zm162.002.502c-.86 0-1.722-.359-2.314-1.076-3.12-3.784-6.295-7.335-9.451-10.545-1.166-1.166-1.148-3.067.036-4.233a2.999 2.999 0 014.232.036 160.354 160.354 0 019.793 10.94 2.976 2.976 0 01-.413 4.215 2.947 2.947 0 01-1.883.663zm-180.009 22.042a2.918 2.918 0 01-1.722-.538 3.006 3.006 0 01-.717-4.18c2.87-4.088 5.81-8.016 8.734-11.692a3.014 3.014 0 014.215-.485c1.291 1.023 1.506 2.906.484 4.215a236.81 236.81 0 00-8.555 11.424 2.962 2.962 0 01-2.439 1.256zm196.76 1.47c-.987 0-1.973-.484-2.529-1.399a273.664 273.664 0 00-7.91-11.89 2.968 2.968 0 01.7-4.16c1.363-.951 3.229-.647 4.18.698a260.937 260.937 0 018.106 12.178 2.995 2.995 0 01-.951 4.125 3.031 3.031 0 01-1.596.448zm-212.237 22.903a2.986 2.986 0 01-1.489-.395 2.99 2.99 0 01-1.094-4.089 341.659 341.659 0 017.515-12.464 3.015 3.015 0 014.142-.933 2.993 2.993 0 01.933 4.125 299.852 299.852 0 00-7.407 12.267 3.008 3.008 0 01-2.6 1.489zm226.477 2.277a2.976 2.976 0 01-2.672-1.632 374.865 374.865 0 00-6.78-12.643 2.962 2.962 0 011.13-4.072 2.983 2.983 0 014.071 1.148 341.347 341.347 0 016.905 12.841 3.005 3.005 0 01-1.31 4.036c-.43.215-.896.322-1.344.322zm-240.018 23.226c-.448 0-.897-.108-1.327-.305a3.026 3.026 0 01-1.363-4.018 538.481 538.481 0 016.6-12.93c.789-1.471 2.6-2.027 4.053-1.256 1.453.79 2.027 2.6 1.255 4.053a445.37 445.37 0 00-6.528 12.788 3.004 3.004 0 01-2.69 1.668zm252.339 2.94a3.03 3.03 0 01-2.744-1.793 485.776 485.776 0 00-5.936-13.11c-.682-1.488-.054-3.282 1.452-3.981 1.489-.7 3.282-.054 3.964 1.435a466.957 466.957 0 016.008 13.253 3 3 0 01-1.543 3.946 3.07 3.07 0 01-1.201.25zm-264.373 23.316c-.413 0-.807-.09-1.202-.251-1.506-.646-2.206-2.403-1.56-3.928a633.522 633.522 0 015.883-13.271 2.997 2.997 0 013.963-1.471 2.994 2.994 0 011.489 3.963 541.48 541.48 0 00-5.83 13.146 3.017 3.017 0 01-2.743 1.812zm275.277 3.48a3.017 3.017 0 01-2.798-1.92 584.18 584.18 0 00-5.255-13.415 2.983 2.983 0 011.633-3.892 2.99 2.99 0 013.91 1.65c1.775 4.376 3.55 8.932 5.326 13.523.574 1.542-.215 3.264-1.74 3.856a2.853 2.853 0 01-1.076.197zm-283.94 17.61c-.358 0-.735-.07-1.093-.214a2.985 2.985 0 01-1.686-3.874c1.04-2.637 2.062-5.237 3.102-7.784a2.988 2.988 0 013.892-1.668 3.02 3.02 0 011.65 3.91c-1.022 2.529-2.044 5.111-3.085 7.73a2.959 2.959 0 01-2.78 1.9zm293.714 9.632a2.993 2.993 0 01-2.833-2.045c-1.56-4.573-3.139-9.146-4.753-13.612-.556-1.543.27-3.264 1.811-3.82a3.002 3.002 0 013.838 1.811 868.264 868.264 0 014.771 13.72 2.968 2.968 0 01-1.883 3.784 2.94 2.94 0 01-.95.162zm8.842 27.547a2.991 2.991 0 01-2.87-2.116 888.77 888.77 0 00-4.304-13.774 3 3 0 011.937-3.766c1.578-.502 3.264.376 3.784 1.937a900.827 900.827 0 014.305 13.863 2.995 2.995 0 01-1.973 3.73 3.06 3.06 0 01-.879.126zm8.053 27.799c-1.31 0-2.493-.88-2.87-2.206-1.291-4.645-2.6-9.272-3.945-13.882a3.024 3.024 0 012.044-3.712c1.596-.448 3.264.466 3.713 2.044 1.345 4.628 2.672 9.29 3.963 13.954a3.02 3.02 0 01-2.098 3.694 3.12 3.12 0 01-.807.108zm7.425 27.978a3.005 3.005 0 01-2.906-2.26 1139.62 1139.62 0 00-3.623-13.99c-.43-1.595.538-3.227 2.135-3.658a3.01 3.01 0 013.658 2.134c1.238 4.663 2.457 9.344 3.641 14.043.395 1.596-.556 3.228-2.17 3.623a2.703 2.703 0 01-.735.108zm6.833 28.157a3 3 0 01-2.906-2.314 1337.098 1337.098 0 00-3.353-14.096 2.974 2.974 0 012.205-3.605c1.597-.395 3.21.592 3.623 2.188 1.148 4.717 2.26 9.433 3.354 14.15a2.986 2.986 0 01-2.224 3.587c-.251.054-.466.09-.7.09zm6.33 28.193a2.988 2.988 0 01-2.923-2.35 1317.46 1317.46 0 00-3.084-14.078 2.982 2.982 0 012.26-3.57c1.613-.376 3.21.646 3.586 2.26 1.04 4.717 2.08 9.416 3.103 14.115a3.017 3.017 0 01-2.314 3.569 3.709 3.709 0 01-.627.054zm5.883 28.336c-1.399 0-2.654-.986-2.923-2.403-.95-4.699-1.901-9.415-2.888-14.15-.34-1.632.7-3.21 2.314-3.551a2.98 2.98 0 013.533 2.331c.986 4.753 1.973 9.488 2.905 14.204a2.983 2.983 0 01-2.35 3.516 3.302 3.302 0 01-.59.053zm5.488 28.427c-1.417 0-2.69-1.005-2.96-2.44-.86-4.698-1.757-9.451-2.671-14.204a2.972 2.972 0 012.367-3.497 2.986 2.986 0 013.515 2.367c.915 4.771 1.812 9.524 2.69 14.24a3.001 3.001 0 01-2.403 3.48c-.18.036-.377.054-.538.054zm5.093 28.498a2.998 2.998 0 01-2.959-2.493c-.807-4.7-1.632-9.434-2.493-14.222a2.995 2.995 0 012.422-3.48c1.632-.287 3.192.79 3.46 2.421.88 4.807 1.705 9.56 2.53 14.276a3.016 3.016 0 01-2.457 3.462c-.162.018-.341.036-.503.036zm4.735 28.551a2.981 2.981 0 01-2.941-2.51c-.753-4.7-1.525-9.452-2.332-14.276a3.002 3.002 0 012.457-3.444c1.615-.269 3.175.843 3.444 2.457a1468.16 1468.16 0 012.331 14.312 2.961 2.961 0 01-2.475 3.425c-.161.036-.322.036-.484.036zm4.43 28.624a3.002 3.002 0 01-2.96-2.547c-.699-4.68-1.416-9.451-2.151-14.312a2.982 2.982 0 012.493-3.407 2.992 2.992 0 013.407 2.51c.753 4.86 1.489 9.632 2.17 14.33a2.968 2.968 0 01-2.51 3.39c-.162.036-.306.036-.449.036zm4.107 28.677a2.977 2.977 0 01-2.96-2.582c-.645-4.645-1.308-9.416-2.008-14.33a2.994 2.994 0 012.547-3.39 2.977 2.977 0 013.372 2.547c.699 4.914 1.363 9.703 2.026 14.348.215 1.65-.915 3.156-2.564 3.371-.144.036-.27.036-.413.036zm3.784 28.731a2.993 2.993 0 01-2.959-2.618c-.574-4.573-1.202-9.362-1.847-14.348a3.006 3.006 0 012.564-3.371 3.01 3.01 0 013.372 2.582c.646 5.004 1.273 9.81 1.847 14.402.216 1.632-.95 3.12-2.582 3.335-.144.018-.251.018-.395.018zm3.48 28.821c-1.507 0-2.816-1.13-2.978-2.654-.502-4.376-1.058-9.183-1.685-14.402-.198-1.632.968-3.12 2.618-3.335 1.614-.18 3.139.986 3.318 2.618.646 5.237 1.201 10.061 1.686 14.437a2.977 2.977 0 01-2.619 3.318zm3.066 29.036a2.998 2.998 0 01-2.977-2.726c0-.054-.484-5.273-1.47-14.527a2.987 2.987 0 012.654-3.3c1.632-.18 3.12 1.022 3.3 2.654.986 9.308 1.47 14.581 1.47 14.635.162 1.632-1.058 3.103-2.708 3.246l-.269.018" fill="#f78e48"/><path d="M3720.002 2449.653l-3407.647-1.173c-2.285 0-4.154-1.867-4.154-4.147l.002-2.133c0-2.28 1.871-4.147 4.154-4.147l3407.645 1.173c2.261 0 4.135 1.867 4.135 4.16v2.12c0 2.28-1.874 4.16-4.135 4.147" fill="#2e3552"/><path d="M1488.64 1185.717s40.773-2.82 49.653 29.169c0 0 31.403-63.975 97.732-58.706 66.314 5.268 78.568 44.282 78.568 44.282s38-13.054 69.567 4.35c31.538 17.405 29.523 49.313 29.523 49.313s28.926-40.61 87.09-26.106c0 0-11.597-58.72 58.329-72.153 69.94-13.418 99.642 9.791 99.642 9.791s79.195-51.015 149.315 12.927c0 0 51.373-9.971 76.493 21.668 0 0 51.478-62.192 148.299-51.266v307.482h-944.612l.4-270.75" fill="#d7e2ff"/><path d="M1488.627 1339.16s68.573-17.347 129.786 23.053c0 0 14.92-17.773 53.774-13.373 38.866 4.4 49.56 40.293 49.56 40.293s135.96-44.893 203.28 67.334H1488.24l.387-117.307M2008.681 1456.471s3.463-68.813 75.328-85.278c0 0-37.223-16.454-18.462-57.351 18.76-40.894 64.328-43.888 64.328-43.888s4.761-73.99 133.94-61.212c36.268 3.587 74.656 25.303 80.671 63.208 0 0 14-23.048 43.03-21.499 0 0 3.582-42.071 45.313-41.707v247.727h-424.148" fill="#ebf3fa"/><path d="M2372.193 864.746l-54.21 187.84-1.718-.204-185.264-22.5s85.806-17.856 94.728-28.146c8.397-9.707 97.492-124.81 123.557-137.121 1.601-.757 2.955-1.12 4.06-1.048l18.847 1.179" fill="#739af0"/><path d="M2316.267 1052.39l-185.263-22.513s85.8-17.843 94.721-28.148c8.403-9.7 97.489-124.8 123.561-137.11-23.075 33.496-76.56 114.02-74.298 137.441 2.177 22.297 28.264 41.87 41.279 50.33" fill="#2b478b"/><path d="M2336.27 1108.941c-6.313 2.167-25.211 8.12-51.145 15.662-74.552 21.686-207.17 56.506-265.685 52.2-52.504-3.857-330.151-25.052-522.194-41.884 46.48-81.617 104.401-126.71 157.426-151.415 223.77 18.334 516.386 43.098 553.604 50.293 61.245 11.847 142.5 21.47 142.5 21.47s.535 2.485 1.07 6.415c1.719 12.8 3.178 40.815-15.576 47.26" fill="#e58638"/><path d="M2352.807 1075.274c-.014.462-.014.938-.029 1.415-.159 10.19-2.223 21.55-9.44 28.09-.23.23-.49.447-.75.663-.506.404-1.054.808-1.588 1.184h-.015v.014c-.274.173-.577.347-.866.534-.288.159-.577.332-.88.49h-.015c-.317.174-.62.318-.938.463-.317.144-.65.303-.981.433-.318.13-.664.26-1.01.375l-.318.101-.318.116-.332.1v.015a3.483 3.483 0 00-.36.116v.014c-.13.029-.26.058-.39.116-.13.043-.26.086-.376.13h-.014a3.33 3.33 0 00-.404.144c-.145.043-.29.086-.448.13h-.014a3.806 3.806 0 01-.433.144c-.145.058-.303.101-.448.159-.332.1-.664.216-.996.317h-.014c-.159.058-.332.101-.491.16h-.014v.014c-.174.057-.361.115-.534.158-.13.044-.246.087-.39.13-1.4.448-2.96.953-4.663 1.487-.317.101-.635.188-.967.303a1513.19 1513.19 0 01-16.18 4.98c-.65.188-1.285.39-1.964.592-1.082.332-2.208.664-3.348 1.01-.246.058-.491.145-.751.217-.332.1-.693.202-1.04.317-.346.101-.707.202-1.067.303-.361.116-.722.217-1.083.332-.346.101-.722.217-1.083.318-.375.115-.721.216-1.082.332-.39.101-.765.216-1.126.332-.375.101-.765.216-1.126.318v.014c-.375.115-.75.216-1.14.332-.26.072-.534.159-.809.245l-.332.101c-.39.101-.765.217-1.154.318a528.009 528.009 0 01-5.947 1.732c-1.155.36-2.339.693-3.551 1.04-1.025.302-2.05.591-3.09.894-.779.231-1.558.462-2.352.679-3.089.88-6.25 1.775-9.469 2.699-.664.188-1.313.36-1.963.548-1.14.318-2.252.636-3.407.953-1.024.303-2.064.577-3.103.88-1.155.318-2.324.65-3.493.968-38.742 10.753-85.712 22.82-129.275 31.582-1.53.303-3.06.606-4.575.91-.765.144-1.501.303-2.266.447-1.516.289-3.032.577-4.533.852a760.084 760.084 0 01-13.38 2.453c-1.458.26-2.916.52-4.374.751-.722.13-1.444.245-2.165.375-1.444.231-2.887.462-4.316.708-1.415.23-2.844.447-4.258.664-1.4.216-2.8.433-4.2.635-1.386.202-2.787.404-4.143.592-1.386.202-2.757.39-4.1.577-1.357.173-2.699.346-4.041.52-.65.086-1.314.158-1.992.245a429 429 0 01-7.78.88c-.65.073-1.285.145-1.92.188-1.27.13-2.512.245-3.753.375-2.469.217-4.893.405-7.275.563-1.776.13-3.522.231-5.225.303-1.14.073-2.281.116-3.407.145-1.66.072-3.305.115-4.893.13-2.136.043-4.2.029-6.193-.015a97.301 97.301 0 01-2.973-.1c-.476-.015-.953-.015-1.443-.059a88.335 88.335 0 01-2.8-.173c-.318-.014-.65-.043-1.011-.072l-.246-.014a9.902 9.902 0 00-.678-.058c-.852-.058-1.761-.116-2.728-.202-.26-.015-.505-.043-.78-.043l-.981-.087c-.49-.029-1.025-.072-1.545-.101-.288-.029-.577-.043-.851-.072a15.608 15.608 0 01-.852-.072c-.606-.044-1.198-.073-1.804-.13-.606-.044-1.213-.101-1.862-.13-.318-.03-.635-.044-.967-.072-.78-.073-1.602-.116-2.425-.188a27.213 27.213 0 01-1.17-.101c-.837-.058-1.674-.116-2.54-.188-.36-.029-.722-.043-1.111-.072a178.265 178.265 0 00-3.248-.245c-3.075-.231-6.366-.491-9.844-.736-.404-.044-.852-.073-1.285-.116-.852-.058-1.732-.115-2.641-.188a1295.09 1295.09 0 00-4.071-.303 65.469 65.469 0 00-1.674-.144c-1.314-.087-2.642-.202-3.984-.289a45.909 45.909 0 00-1.458-.115l-2.772-.217-3.088-.23c-.549-.044-1.069-.087-1.632-.13-.505-.044-1.024-.073-1.544-.116-.808-.058-1.631-.13-2.468-.188-4.778-.36-9.744-.75-14.911-1.126-.765-.072-1.501-.13-2.266-.187-1.155-.087-2.295-.188-3.465-.26-2.699-.217-5.456-.419-8.242-.635-.216-.03-.433-.044-.635-.058-2.44-.188-4.893-.375-7.361-.563-.13-.014-.246-.029-.347-.029-14.795-1.14-30.73-2.381-47.561-3.68-.852-.073-1.718-.145-2.57-.203-3.391-.26-6.841-.534-10.32-.793-2.18-.188-4.374-.361-6.568-.535-.115 0-.245-.014-.36-.028-2.512-.188-5.038-.39-7.593-.592-.303-.015-.606-.044-.924-.058-4.46-.36-8.992-.722-13.554-1.068-1.169-.101-2.324-.188-3.507-.289-.361-.014-.707-.043-1.068-.072-3.999-.318-8.04-.635-12.067-.953-1.79-.144-3.551-.274-5.327-.418a272.717 272.717 0 00-3.55-.275c-2.382-.202-4.778-.39-7.189-.577-3.609-.289-7.232-.563-10.855-.866-.346-.014-.664-.043-.981-.058-1.501-.144-3.003-.245-4.49-.375l-.331-.014c-4.475-.361-8.95-.722-13.468-1.069a28.73 28.73 0 00-.375-.043c-.476-.043-.938-.072-1.4-.1-2.656-.203-5.326-.42-7.982-.636-2.007-.159-4.027-.318-6.048-.49-1.256-.087-2.497-.188-3.753-.29-5.225-.404-10.48-.837-15.763-1.255l-.13-.015a25193.29 25193.29 0 00-26.371-2.122c-1.198-.1-2.396-.187-3.609-.303l-.245-.014c-3.883-.303-7.751-.635-11.634-.938-1.198-.101-2.382-.188-3.58-.289-3.334-.274-6.683-.549-10.017-.808-6.785-.578-13.583-1.126-20.367-1.675-4.287-.346-8.589-.707-12.861-1.053-2.7-.231-5.384-.462-8.07-.664-6.423-.535-12.817-1.054-19.197-1.574l-.91-.086c-3.998-.332-8.01-.664-11.994-.996-5.688-.477-11.36-.953-17.004-1.43l-6.755-.562c-.693-.058-1.372-.13-2.064-.174a3221.43 3221.43 0 01-13.598-1.154c-.678-.044-1.328-.101-1.992-.16-3.103-.259-6.178-.519-9.238-.793-13.02-1.097-25.808-2.194-38.294-3.277l-4.518-.39c-.91-.086-1.833-.158-2.728-.23-1.227-.116-2.44-.217-3.667-.332-2.425-.202-4.835-.404-7.246-.62-46.55-4.086-88.087-7.925-120.153-11.173-3.266-.332-6.44-.65-9.493-.967-7.628-.794-14.6-1.56-20.867-2.28-17.766-2.007-29.868-3.696-34.673-4.894-25.937-6.553-69.195-23.745-95.724-41.629-15.99-10.782-25.883-21.796-22.21-30.89 4.672-11.562 14.82-18.548 25.238-23.672 9.03-4.475 18.264-7.535 24.309-11.042.35-.202.686-.404 1.022-.592 1.117-.707 2.1-1.43 2.934-2.18.136-.144.27-.245.43-.404 2.358-2.15 6.233-5.73 11.832-9.93 3.729-2.801 8.21-5.861 13.527-8.993l.08-.044c23.206-13.582 62.008-27.96 121.128-23.687 0 0 115.698 9.137 260.042 20.96h.014c14.391 1.168 29.057 2.38 43.924 3.608h.015c4.936.404 9.93.808 14.91 1.227 7.506.62 15.041 1.256 22.605 1.876h.014c12.616 1.04 25.304 2.093 38.05 3.161 2.554.217 5.109.433 7.65.635 5.11.42 10.205.852 15.314 1.27 10.22.867 20.44 1.733 30.659 2.584 5.08.433 10.176.867 15.257 1.285 18.173 1.53 36.245 3.06 54.057 4.605h.087c51.458 4.417 100.81 8.718 144.575 12.688h.014c2.324.202 4.633.418 6.9.62 25.693 2.339 49.336 4.547 70.194 6.568 9.974.981 19.313 1.905 27.916 2.786 31.207 3.175 52.96 5.73 61.462 7.376 22.07 4.272 46.724 8.256 69.227 11.59 1.848.275 3.71.549 5.514.809l.289.043c2.786.419 5.528.808 8.228 1.198l.245.03c3.118.447 6.192.88 9.166 1.298 4.345.606 8.516 1.17 12.442 1.703 1.732.231 3.378.462 5.009.679 19.443 2.584 32.376 4.114 32.376 4.114s.072.36.188.996l.043.173c.03.173.072.36.116.577.057.404.159.895.23 1.444.13.736.26 1.559.376 2.511l.014.015c.03.23.073.462.101.707.102.78.217 1.617.318 2.512.058.62.13 1.284.202 1.948.015.361.058.736.087 1.112.043.418.072.837.086 1.255.044.607.087 1.227.13 1.862.015.246.03.506.03.765l.042 1.343c.015.245.015.476.015.693.014.462.029.938.029 1.385 0 .231 0 .477.014.722" fill="#d7e2ff"/><path d="M2352.807 1075.274c-.014.462-.014.938-.029 1.415-.159 10.19-2.223 21.55-9.44 28.09-.23.23-.49.447-.75.663-.506.404-1.054.808-1.588 1.184h-.015v.014c-.274.173-.577.347-.866.534-.288.159-.577.332-.88.49h-.015c-.317.174-.62.318-.938.463-.317.144-.65.303-.981.433-.318.13-.664.26-1.01.375l-.318.101-.318.116-.332.1v.015a3.483 3.483 0 00-.36.116v.014c-.13.029-.26.058-.39.116-.13.043-.26.086-.376.13h-.014a3.33 3.33 0 00-.404.144c-.145.043-.29.086-.448.13h-.014a3.806 3.806 0 01-.433.144c-.145.058-.303.101-.448.159-.332.1-.664.216-.996.317h-.014c-.159.058-.332.101-.491.16h-.014v.014c-.174.057-.361.115-.534.158-.13.044-.246.087-.39.13-1.4.448-2.96.953-4.663 1.487-.317.101-.635.188-.967.303a1513.19 1513.19 0 01-16.18 4.98c-.65.188-1.285.39-1.964.592-1.082.332-2.208.664-3.348 1.01-.246.058-.491.145-.751.217-.332.1-.693.202-1.04.317-.346.101-.707.202-1.067.303-.361.116-.722.217-1.083.332-.346.101-.722.217-1.083.318-.375.115-.721.216-1.082.332-.39.101-.765.216-1.126.332-.375.101-.765.216-1.126.318v.014c-.375.115-.75.216-1.14.332-.26.072-.534.159-.809.245l-.332.101c-.39.101-.765.217-1.154.318a528.009 528.009 0 01-5.947 1.732c-1.155.36-2.339.693-3.551 1.04-1.025.302-2.05.591-3.09.894-.779.231-1.558.462-2.352.679-3.089.88-6.25 1.775-9.469 2.699-.664.188-1.313.36-1.963.548-1.14.318-2.252.636-3.407.953-1.024.303-2.064.577-3.103.88-1.155.318-2.324.65-3.493.968-38.742 10.753-85.712 22.82-129.275 31.582-1.53.303-3.06.606-4.575.91-.765.144-1.501.303-2.266.447-1.516.289-3.032.577-4.533.852a760.084 760.084 0 01-13.38 2.453c-1.458.26-2.916.52-4.374.751-.722.13-1.444.245-2.165.375-1.444.231-2.887.462-4.316.708-1.415.23-2.844.447-4.258.664-1.4.216-2.8.433-4.2.635-1.386.202-2.787.404-4.143.592-1.386.202-2.757.39-4.1.577-1.357.173-2.699.346-4.041.52-.65.086-1.314.158-1.992.245a429 429 0 01-7.78.88c-.65.073-1.285.145-1.92.188-1.27.13-2.512.245-3.753.375-2.469.217-4.893.405-7.275.563-1.776.13-3.522.231-5.225.303-1.14.073-2.281.116-3.407.145-1.66.072-3.305.115-4.893.13-2.136.043-4.2.029-6.193-.015a97.301 97.301 0 01-2.973-.1c-.476-.015-.953-.015-1.443-.059a88.335 88.335 0 01-2.8-.173c-.318-.014-.65-.043-1.011-.072l-.246-.014a9.902 9.902 0 00-.678-.058c-.852-.058-1.761-.116-2.728-.202-.26-.015-.505-.043-.78-.043l-.981-.087c-.49-.029-1.025-.072-1.545-.101-.288-.029-.577-.043-.851-.072a15.608 15.608 0 01-.852-.072c-.606-.044-1.198-.073-1.804-.13-.606-.044-1.213-.101-1.862-.13-.318-.03-.635-.044-.967-.072-.78-.073-1.602-.116-2.425-.188a27.213 27.213 0 01-1.17-.101c-.837-.058-1.674-.116-2.54-.188-.36-.029-.722-.043-1.111-.072a178.265 178.265 0 00-3.248-.245c-3.075-.231-6.366-.491-9.844-.736-.404-.044-.852-.073-1.285-.116-.852-.058-1.732-.115-2.641-.188a1295.09 1295.09 0 00-4.071-.303 65.469 65.469 0 00-1.674-.144c-1.314-.087-2.642-.202-3.984-.289a45.909 45.909 0 00-1.458-.115l-2.772-.217-3.088-.23c-.549-.044-1.069-.087-1.632-.13-.505-.044-1.024-.073-1.544-.116-.808-.058-1.631-.13-2.468-.188-4.778-.36-9.744-.75-14.911-1.126-.765-.072-1.501-.13-2.266-.187-1.155-.087-2.295-.188-3.465-.26-2.699-.217-5.456-.419-8.242-.635-.216-.03-.433-.044-.635-.058-2.44-.188-4.893-.375-7.361-.563-.13-.014-.246-.029-.347-.029-14.795-1.14-30.73-2.381-47.561-3.68-.852-.073-1.718-.145-2.57-.203-3.391-.26-6.841-.534-10.32-.793-2.18-.188-4.374-.361-6.568-.535-.115 0-.245-.014-.36-.028-2.512-.188-5.038-.39-7.593-.592-.303-.015-.606-.044-.924-.058-4.46-.36-8.992-.722-13.554-1.068-1.169-.101-2.324-.188-3.507-.289-.361-.014-.707-.043-1.068-.072-3.999-.318-8.04-.635-12.067-.953-1.79-.144-3.551-.274-5.327-.418a272.717 272.717 0 00-3.55-.275c-2.382-.202-4.778-.39-7.189-.577-3.609-.289-7.232-.563-10.855-.866-.346-.014-.664-.043-.981-.058-1.501-.144-3.003-.245-4.49-.375l-.331-.014c-4.475-.361-8.95-.722-13.468-1.069a28.73 28.73 0 00-.375-.043c-.476-.043-.938-.072-1.4-.1 101.315-56.497 130.256-153.496 130.256-153.496h.087c51.458 4.417 100.81 8.718 144.575 12.688h.014c2.324.202 4.633.418 6.9.62 25.693 2.339 49.336 4.547 70.194 6.568 9.974.981 19.313 1.905 27.916 2.786 31.207 3.175 52.96 5.73 61.462 7.376 22.07 4.272 46.724 8.256 69.227 11.59 1.848.275 3.71.549 5.514.809l.289.043c2.786.419 5.528.808 8.228 1.198l.245.03c3.118.447 6.192.88 9.166 1.298 4.345.606 8.516 1.17 12.442 1.703 1.732.231 3.378.462 5.009.679 19.443 2.584 32.376 4.114 32.376 4.114s.072.36.188.996l.043.173c.03.173.072.36.116.577.057.404.159.895.23 1.444.13.736.26 1.559.376 2.511l.014.015c.03.23.073.462.101.707.102.78.217 1.617.318 2.512.058.62.13 1.284.202 1.948.015.361.058.736.087 1.112.043.418.072.837.086 1.255.044.607.087 1.227.13 1.862.015.246.03.506.03.765l.042 1.343c.015.245.015.476.015.693.014.462.029.938.029 1.385 0 .231 0 .477.014.722" fill="#f99746"/><path d="M2285.135 1124.596c2.221-.647 4.386-1.28 6.495-1.898a.2.2 0 00.085-.028c-2.137.632-4.33 1.279-6.58 1.926" fill="#d2a393"/><path d="M2285.133 1124.598v-.014a542.798 542.798 0 005.947-1.73c.168-.041.365-.098.548-.154-2.123.619-4.274 1.251-6.495 1.898" fill="#e37e2f"/><path d="M2292.856 1122.344c.028-.014.042-.014.07-.029.295-.084.591-.168.9-.253.029-.014.085-.028.127-.042-.366.098-.732.211-1.097.324" fill="#d2a393"/><path d="M2292.922 1122.319c.155-.042.31-.099.465-.14.14-.043.295-.085.436-.128-.31.085-.605.183-.9.268" fill="#e37e2f"/><path d="M2294.536 1121.842c.226-.07.465-.14.69-.197.057-.028.127-.042.183-.056-.295.084-.591.169-.873.253" fill="#d2a393"/><path d="M2294.524 1121.847" fill="#e37e2f"/><path d="M2296.015 1121.411l.127-.042c.691-.212 1.383-.41 2.074-.607.212-.07.438-.141.65-.198.493-.155 1.002-.296 1.495-.451.043-.015.1-.029.156-.043-1.468.438-2.978.89-4.502 1.341" fill="#d2a393"/><path d="M2296.123 1121.373c.226-.057.424-.127.635-.184.353-.113.72-.212 1.087-.324.113-.029.226-.071.353-.1-.678.198-1.37.41-2.075.608m2.724-.805a.2.2 0 00.085-.028c.352-.099.72-.212 1.072-.31.113-.043.226-.071.339-.1-.494.142-1.002.297-1.496.438" fill="#e37e2f"/><path d="M2301.39 1119.819c.126-.043.24-.085.366-.113.212-.07.424-.127.636-.198a.266.266 0 00.113-.028c.07-.028.142-.043.226-.07.043-.015.085-.03.128-.043.028 0 .042 0 .07-.014-.508.155-1.017.31-1.54.466" fill="#d2a393"/><path d="M2301.759 1119.696c.141-.028.254-.07.367-.113.085-.014.184-.042.268-.07-.211.056-.423.126-.635.183m.749-.226c.084-.014.14-.042.226-.057-.085.015-.142.043-.226.057" fill="#e37e2f"/><path d="M2305.636 1118.543l.426-.128c1.121-.34 2.214-.667 3.278-.993 1.434-.44 2.825-.852 4.173-1.263-2.47.752-5.11 1.547-7.877 2.384" fill="#d2a393"/><path d="M2306.054 1118.417c.056-.014.113-.028.155-.057.68-.198 1.318-.397 1.97-.58.382-.128.779-.242 1.161-.355-1.062.326-2.153.652-3.286.992" fill="#e37e2f"/><path d="M2315.998 1115.397c1.74-.542 3.381-1.056 4.936-1.54 1.484-.457 2.882-.9 4.194-1.299.043-.014.1-.043.143-.057-2.725.87-5.82 1.826-9.273 2.896" fill="#d2a393"/><path d="M2320.925 1113.872c1.213-.385 2.34-.741 3.438-1.084.257-.085.513-.157.756-.228-1.312.414-2.71.842-4.194 1.312" fill="#e37e2f"/><path d="M2327.708 1111.744c.286-.1.572-.186.858-.271.7-.23 1.373-.444 1.987-.644.029-.014.058-.014.086-.028-.9.3-1.873.6-2.931.943" fill="#d2a393"/><path d="M2328.55 1111.473c.515-.157.973-.314 1.445-.471.128-.043.257-.072.386-.115a1.2 1.2 0 01.171-.057c-.629.2-1.287.415-2.001.643" fill="#e37e2f"/><path d="M2330.926 1110.713c.2-.072.4-.129.6-.2.087-.029.187-.058.273-.086.214-.072.4-.129.6-.2-.472.157-.958.314-1.473.486" fill="#d2a393"/><path d="M2330.918 1110.709h.014c.158-.058.33-.115.503-.173h.015c.014 0 .043-.014.072-.014-.202.057-.403.115-.604.187m.891-.288c.202-.072.403-.13.618-.201.144-.058.317-.1.46-.158.159-.043.288-.087.432-.144H2333.348l-.95.316a9.303 9.303 0 00-.589.187m2.372-.776h.015c.057-.029.13-.043.201-.072-.072.029-.158.043-.216.072m.475-.158a.609.609 0 01.172-.058c-.071.014-.115.043-.172.058m.302-.101c.072-.029.144-.043.201-.072-.057.029-.13.043-.201.072m.36-.13l.129-.028c-.043 0-.087.014-.13.029m.662-.216v-.014l.187-.058c-.058.029-.115.043-.187.072m1.768-.676c.173-.072.36-.158.532-.23.33-.158.633-.302.935-.46-.475.244-.964.475-1.467.69m2.444-1.236c.144-.1.288-.187.446-.273-.158.086-.302.186-.446.273m.79-.503h.015-.014m2.358-1.84l.144-.145c-.044.044-.087.101-.144.144" fill="#e37e2f"/><path d="M2351.248 1090.04c.173-.736.332-1.486.477-2.237v-.014c0-.03.014-.044.014-.072.765-4.013 1.04-8.185 1.068-12.14v-.057c-.014 4.748-.433 9.786-1.559 14.52" fill="#d2a393"/><path d="M2351.725 1087.803v-.014.014m.014-.086c.678-3.638.982-7.405 1.04-11.028.014-.376.014-.75.028-1.112-.029 3.955-.303 8.127-1.068 12.14" fill="#e37e2f"/><path d="M2352.807 1075.144v-.014a130.583 130.583 0 00-.1-4.215v-.072c.057 1.385.1 2.829.1 4.301" fill="#d2a393"/><path d="M2352.807 1075.13c-.014-.188-.014-.361-.014-.534v-.044c0-.447-.015-.923-.03-1.385 0-.217 0-.448-.014-.693-.014-.448-.028-.91-.043-1.343v-.216c.058 1.357.087 2.771.101 4.215" fill="#e37e2f"/><path d="M2352.677 1070.282c-.015-.044-.015-.087-.015-.145-.043-.721-.072-1.414-.13-2.107-.014-.202-.043-.419-.057-.62l-.087-1.126c-.014-.044-.014-.087-.014-.13.115 1.299.216 2.684.303 4.128" fill="#d2a393"/><path d="M2352.655 1070.152c-.043-.563-.072-1.111-.101-1.645-.014-.16-.029-.303-.029-.462.043.678.087 1.385.13 2.107m-.188-2.742c0-.044-.014-.101-.014-.159a22.87 22.87 0 01-.072-.953c.014.361.058.736.086 1.112" fill="#e37e2f"/><path d="M2352.35 1066.101a13.246 13.246 0 00-.043-.288c-.043-.592-.115-1.17-.173-1.718a31.777 31.777 0 00-.23-1.876c-.015-.173-.044-.346-.058-.52v-.014c.173 1.328.346 2.814.505 4.416" fill="#d2a393"/><path d="M2352.329 1065.799c-.058-.549-.101-1.097-.159-1.602-.014-.044-.014-.072-.014-.116.058.549.115 1.126.173 1.718m-.404-3.58c-.029-.187-.043-.36-.072-.533h.014c.015.173.03.346.058.534" fill="#e37e2f"/><path d="M2285.139 1124.582c-8.661-36.23-36.563-51.358-36.563-51.358l103.278-11.547c.102.78.217 1.617.318 2.512.058.606.13 1.255.202 1.905v.058c.015.36.058.721.087 1.097.043.418.072.837.086 1.255.044.578.087 1.184.13 1.79 0 .173.015.361.03.549v.288l.042 1.343c.015.245.015.476.015.693.014.462.029.938.029 1.385v.044c0 .187 0 .36.014.548v.433c-.014.361-.014.736-.029 1.112-.057 3.623-.36 7.39-1.039 11.028 0 .028-.014.043-.014.072v.014c-.145.75-.304 1.501-.477 2.238-1.357 5.672-3.753 10.883-7.765 14.607-.03.043-.087.087-.145.13a20.887 20.887 0 01-2.338 1.848h-.015a2.89 2.89 0 00-.346.23c-.144.087-.303.174-.448.26a12.79 12.79 0 01-.967.549c-.317.173-.62.317-.938.462-.173.086-.36.159-.534.245-.476.202-.953.39-1.458.563l-.13.043-.187.058c-.174.058-.347.116-.534.188l-.116.029v.014c-.058.015-.101.029-.159.043-.072.03-.13.044-.202.073-.058.014-.086.028-.13.043a.611.611 0 00-.173.058c-.1.029-.173.057-.274.086-.058.03-.13.044-.188.072h-.014c-.274.087-.534.174-.837.275H2333.32a3.806 3.806 0 01-.433.144c-.145.058-.303.101-.448.159-.216.058-.418.13-.635.202-.087.029-.188.058-.274.087-.029.014-.058.014-.087.028h-.014c-.159.058-.332.101-.491.16h-.014v.014c-.087.028-.188.057-.275.086-.029.015-.057.015-.086.03a1.498 1.498 0 01-.173.042c-.13.044-.246.087-.39.13-.462.145-.924.303-1.43.462-.288.087-.562.173-.85.274-.78.246-1.589.506-2.44.765a2.368 2.368 0 01-.159.044c-.231.086-.49.159-.75.245-1.098.332-2.238.693-3.436 1.068-1.559.491-3.19.996-4.922 1.53-.823.246-1.646.506-2.483.765a924.85 924.85 0 00-4.171 1.256c-.39.116-.78.231-1.17.361-.65.188-1.284.39-1.963.592a2.368 2.368 0 01-.158.043c-.13.043-.275.087-.419.13-.88.26-1.79.534-2.714.808l-.057.03c-.044.014-.101.014-.145.028-.072.029-.144.043-.216.072-.03.015-.072.015-.116.03-.086.028-.187.057-.274.086-.101.029-.231.072-.36.1a3.483 3.483 0 01-.362.116c-.288.087-.606.173-.895.275-.057.014-.1.028-.158.043-.102.029-.231.058-.332.086-.361.116-.722.217-1.083.332a.11.11 0 00-.072.03c-.217.057-.448.13-.664.187-.116.029-.231.072-.347.101-.375.115-.721.216-1.082.332-.217.058-.419.115-.635.173l-.13.043c-.202.058-.404.116-.606.188a1.883 1.883 0 01-.188.043 9.703 9.703 0 01-.693.203v.014c-.188.058-.375.101-.563.159-.043.014-.1.029-.144.043l-.433.13-.448.13c-.029.014-.043.014-.072.029-.39.1-.765.216-1.14.332-.03.014-.058.014-.087.029-.187.043-.375.1-.548.144a528.009 528.009 0 01-5.947 1.732" fill="#ed8736"/><path d="M1784.067 1061.107c-3.374-.294-5.854-3.614-5.507-7.4l.653-7.28c.347-3.774 3.387-6.627 6.76-6.334 3.374.294 5.854 3.614 5.507 7.4l-.653 7.28c-.347 3.774-3.387 6.627-6.76 6.334M1752.44 1058.373c-3.373-.28-5.853-3.613-5.52-7.4l.667-7.266c.333-3.787 3.373-6.64 6.746-6.347 3.374.293 5.854 3.613 5.52 7.4l-.666 7.28c-.347 3.773-3.387 6.627-6.747 6.333M1720.8 1055.64c-3.373-.28-5.853-3.613-5.507-7.4l.654-7.267c.346-3.786 3.386-6.64 6.76-6.346 3.373.293 5.853 3.626 5.506 7.4l-.653 7.28c-.347 3.773-3.387 6.626-6.76 6.333M1689.16 1052.92c-3.373-.293-5.84-3.627-5.507-7.4l.667-7.28c.333-3.787 3.373-6.64 6.747-6.347 3.373.294 5.853 3.627 5.506 7.4l-.653 7.28c-.347 3.774-3.387 6.64-6.76 6.347M1657.533 1050.187c-3.373-.294-5.853-3.627-5.506-7.4l.653-7.28c.347-3.787 3.387-6.64 6.76-6.347 3.373.293 5.853 3.627 5.507 7.4l-.654 7.28c-.346 3.787-3.386 6.64-6.76 6.347M1625.893 1047.453c-3.373-.293-5.853-3.626-5.506-7.4l.666-7.28c.334-3.773 3.374-6.626 6.747-6.346 3.373.293 5.853 3.626 5.507 7.4l-.654 7.28c-.346 3.786-3.386 6.64-6.76 6.346M1594.267 1044.72c-3.374-.293-5.854-3.627-5.507-7.4l.653-7.28c.347-3.773 3.387-6.627 6.76-6.347 3.374.294 5.854 3.627 5.507 7.414l-.667 7.266c-.333 3.787-3.373 6.64-6.746 6.347M1562.627 1041.987c-3.374-.294-5.854-3.627-5.507-7.4l.653-7.28c.347-3.774 3.387-6.627 6.76-6.334 3.374.28 5.854 3.614 5.507 7.4l-.653 7.267c-.347 3.787-3.387 6.64-6.76 6.347M1531 1039.253c-3.373-.293-5.853-3.613-5.507-7.4l.654-7.28c.346-3.773 3.386-6.626 6.76-6.333 3.373.293 5.84 3.613 5.506 7.4l-.666 7.28c-.334 3.773-3.374 6.627-6.747 6.333M1500 1036.573c-3.373-.28-5.853-3.613-5.52-7.4l.667-7.266c.333-3.787 3.373-6.64 6.746-6.347 3.374.293 5.854 3.627 5.52 7.4l-.666 7.28c-.334 3.773-3.374 6.627-6.747 6.333M1468.36 1033.853c-3.373-.293-5.853-3.626-5.507-7.413l.654-7.267c.346-3.786 3.386-6.64 6.76-6.346 3.373.293 5.853 3.626 5.506 7.4l-.653 7.28c-.347 3.773-3.387 6.626-6.76 6.346M1436.72 1031.12c-3.36-.293-5.84-3.627-5.507-7.4l.667-7.28c.333-3.787 3.373-6.64 6.747-6.347 3.373.294 5.853 3.627 5.52 7.4l-.667 7.28c-.347 3.774-3.387 6.64-6.76 6.347M1397.533 1027.36c-3.373-.28-5.853-3.613-5.506-7.4l.666-7.28c.334-3.773 3.374-6.627 6.747-6.333 3.373.293 5.853 3.613 5.507 7.4l-.654 7.28c-.346 3.773-3.386 6.626-6.76 6.333M2129.213 1094.6c-3.373-.293-5.84-3.613-5.506-7.4l.666-7.28c.334-3.773 3.374-6.627 6.747-6.333 3.373.293 5.853 3.613 5.507 7.4l-.654 7.28c-.346 3.773-3.386 6.626-6.76 6.333M2097.587 1091.867c-3.374-.28-5.854-3.614-5.507-7.4l.653-7.267c.347-3.787 3.387-6.64 6.76-6.347 3.374.294 5.854 3.627 5.507 7.4l-.667 7.28c-.333 3.774-3.373 6.627-6.746 6.334M2065.947 1089.147c-3.374-.294-5.854-3.627-5.507-7.414l.667-7.266c.333-3.787 3.373-6.64 6.746-6.347 3.374.293 5.854 3.627 5.507 7.4l-.653 7.28c-.347 3.773-3.387 6.627-6.76 6.347M1279.13 986.587l-21.567 20.36-12.871.826c1.124-.706 2.108-1.426 2.936-2.173.143-.133.276-.253.433-.413 2.355-2.147 6.236-5.72 11.827-9.907a140.958 140.958 0 0113.536-9l.08-.053 5.625.36M1283.832 987.333l-21.06 20.547 23.91 5.067 7.549-23.44-10.399-2.174M1296.48 990.227l-5.556 22.026 17.719-5.04 1.138-15.346-13.301-1.64M1727.893 1159.04c9.294-3.627 11.734-19.8 4.04-26.733-7.68-6.934-18.2-13.907-30.04-14.76-24.32-1.76-14.44 47.76-6.373 48.786 4.747.6 20.013-2.453 32.373-7.293" fill="#2b478b"/><path d="M2246.482 1063.405c.97-1.324 91.518-31.164 150.683-18.178l-56.973 35.884-91.622-7.882s-6.97-3.236-2.088-9.824" fill="#355daf"/><path d="M2202.782 854.466s-60.597 133.924-72.138 154.25c-11.527 20.338-36.744 33.311-36.744 33.311l-.163.054-160.56 65.232s-200.29-15.798-243.86-20.595l-.013-.014c-3.946-.432-6.635-.783-7.73-1.013-13.244-2.825-19.433-8.973-16.892-13.798 2.554-4.838 310.47-41.758 344.566-45.556.324-.04.649-.08.973-.108 33.19-3.919 36.272-15.203 36.272-15.203l127.031-145.613c1.635-2.69 4.298-4.717 7.379-6.244 9.135-4.54 21.879-4.703 21.879-4.703" fill="#d7e2ff"/><path d="M2180.896 859.172c-34.185 41.504-128.766 155.927-137.73 163.728-9.66 8.375-285.979 52.783-353.854 63.82h-.014c-3.947-.44-6.623-.802-7.72-1.03-13.26-2.822-19.44-8.964-16.898-13.794 2.555-4.83 310.476-41.758 344.568-45.558 34.091-3.8 37.236-15.306 37.236-15.306l127.04-145.612c1.633-2.69 4.295-4.71 7.372-6.248" fill="#739af0"/><path d="M2202.782 854.466s-60.597 133.924-72.138 154.25c-11.527 20.338-36.744 33.311-36.744 33.311l-.163.054c-34.88-.838-64.259-8.878-83.516-15.852 33.19-3.919 36.272-15.203 36.272-15.203l127.031-145.613c1.635-2.69 4.298-4.717 7.379-6.244 9.135-4.54 21.879-4.703 21.879-4.703" fill="#d7e2ff"/><path d="M1707.4 1105.853l-6.093 67.547s-25.814 9.293-66.174 7.147c-24.72-1.32-41.173-6.747-50.226-10.747-5.734-2.533-8.494-4.507-8.494-4.507l6.387-70.813c2.267-1.933 5.44-3.347 9.293-4.333 31.907-8.174 110.36 12.973 110.36 12.973l4.947 2.733" fill="#e9f0ff"/><path d="M1592.093 1090.147l-7.186 79.653c-5.734-2.533-8.494-4.507-8.494-4.507l6.387-70.813c2.267-1.933 5.44-3.347 9.293-4.333" fill="#ff9843"/><path d="M1195.577 2321.387L1670 2194.76c10.04-2.693 16.707-10.707 14.813-17.827l-266-1000.04c-1.893-7.12-11.653-10.746-21.706-8.066l-474.418 126.64c-10.044 2.68-16.713 10.693-14.82 17.813l266.004 1000.04c1.892 7.12 11.66 10.747 21.704 8.067" fill="#ffe3ca"/><path d="M1195.579 2321.387l39.005-10.414-272.888-1025.92-39.007 10.414c-10.044 2.68-16.713 10.693-14.82 17.813l266.004 1000.04c1.894 7.12 11.66 10.747 21.706 8.067" fill="#f2be8f"/><path d="M1273.576 1637.36l-79.852-300.2 60.877-16.253 79.852 300.213-60.877 16.24M1442.413 1728.413L1328.76 1301.12l60.881-16.253 113.653 427.306-60.88 16.24" fill="#f4cfae"/><path d="M1370.107 1518.893l-56.835-213.64-13.57 3.614 56.831 213.653 13.574-3.627M1235.956 1554.707l-56.83-213.654-13.57 3.627 56.83 213.653 13.57-3.626M1071.487 1364.373l1.273 3.507c.044.12.103.24.177.347l16.859 24.36c.205.306.297.666.259 1.026l-1.246 43.027c-.124 1.133-5.05-3.72-5.99-4.373-10.231-7.04-37.612-31.174-49.055-39.827-1.83-1.387-4.43.093-4.179 2.373a5.689 5.689 0 001.262 2.987l39.474 48.133-2.088 9.08a2.465 2.465 0 001.846 2.947l7.032 1.6a2.465 2.465 0 002.929-1.773l5.085 6.2c.243.293.363.666.339 1.053l-2.524 39.067a14.963 14.963 0 002.779 9.693 563.947 563.947 0 002.525 3.507 5.105 5.105 0 007.316 1.013l1.145-.907a15.948 15.948 0 006.075-12.186l.664-31.187a1.5 1.5 0 01.979-1.387l11.816-4.44-.444 1.934a2.467 2.467 0 001.845 2.946l7.033 1.6a2.46 2.46 0 002.95-1.84l2.244-9.76 18.436-6.92a8.054 8.054 0 003.708-2.84c1.184-1.64 2.516-3.4 2.192-3.746-1.05-1.107-34.039-3.507-46.786-3.787-.724-.013-.617-6.133-.602-6.853l-1.74-41.587c.01-.547.317-1.053.8-1.307l10.368-5.52a5.809 5.809 0 002.594-2.826l.022-.054a1.504 1.504 0 00-1.026-2.053l-16.453-4.013a1.53 1.53 0 01-1.047-.92l-1.546-3.987c-.482-1.253-2.224-1.293-2.779-.08l-.6 1.32-21.63-15.293c-1.207-.854-2.795.36-2.291 1.746" fill="#f2be8f"/><path d="M1536.56 2438.64H912.743V1575.4h624.937c23.627 0 42.787 19.147 42.787 42.773v776.56c0 24.254-19.667 43.907-43.907 43.907" fill="#739af0"/><path d="M1010.575 1674.467h15.193c2.432 0 4.524-.307 6.273-.907 1.75-.6 3.191-1.44 4.323-2.547a9.709 9.709 0 002.475-3.92c.517-1.52.774-3.173.774-4.973 0-1.707-.257-3.333-.774-4.907a11.343 11.343 0 00-2.475-4.173c-1.132-1.213-2.573-2.173-4.323-2.893-1.749-.72-3.841-1.08-6.273-1.08h-15.193zm0 10.146v27.04h-12.647v-72.773h27.84c4.232 0 7.99.573 11.272 1.72 3.281 1.147 6.055 2.76 8.321 4.827a20.46 20.46 0 015.174 7.346c1.182 2.827 1.774 5.907 1.774 9.24 0 3.534-.592 6.707-1.774 9.507-1.183 2.8-2.907 5.16-5.174 7.093-2.266 1.934-5.04 3.414-8.321 4.44-3.283 1.04-7.04 1.56-11.272 1.56h-15.193M1070.553 1684.507h21.092l-10.546-30.187zm24.642 10.2h-28.191l-5.897 16.946h-13.146l27.49-72.773h11.346l27.54 72.773h-13.196l-5.946-16.946M1160.621 1692.907c0-1.467-.217-2.774-.649-3.92-.435-1.147-1.225-2.214-2.375-3.174-1.149-.973-2.733-1.893-4.748-2.773-2.017-.893-4.606-1.813-7.772-2.773-3.466-1.04-6.665-2.227-9.597-3.56-2.932-1.32-5.456-2.88-7.572-4.64-2.117-1.774-3.773-3.8-4.973-6.107-1.2-2.293-1.799-4.92-1.799-7.893 0-2.934.624-5.627 1.873-8.094 1.25-2.466 3.007-4.6 5.274-6.4 2.265-1.8 4.981-3.2 8.146-4.2 3.166-1 6.664-1.493 10.496-1.493 4.1 0 7.78.587 11.047 1.773 3.265 1.187 6.023 2.787 8.272 4.827 2.25 2.027 3.973 4.387 5.173 7.067 1.199 2.68 1.799 5.533 1.799 8.573h-12.595c0-1.773-.274-3.387-.825-4.88-.55-1.48-1.39-2.76-2.524-3.84-1.133-1.08-2.567-1.933-4.299-2.533-1.732-.6-3.781-.894-6.146-.894-2.234 0-4.167.254-5.799.747-1.633.507-2.992 1.2-4.073 2.107-1.084.893-1.883 1.96-2.399 3.2-.517 1.226-.776 2.56-.776 3.986 0 2.707 1.275 4.96 3.824 6.76 2.55 1.787 6.44 3.454 11.672 4.987 4.097 1.2 7.647 2.533 10.645 4 2.999 1.467 5.491 3.133 7.472 4.973 1.983 1.854 3.458 3.934 4.424 6.254.966 2.32 1.45 4.92 1.45 7.826 0 3.054-.61 5.814-1.824 8.267-1.218 2.453-2.95 4.533-5.199 6.253-2.25 1.707-4.973 3.027-8.172 3.947-3.199.907-6.765 1.373-10.696 1.373-3.499 0-6.948-.48-10.347-1.426-3.398-.947-6.446-2.387-9.146-4.294a22.437 22.437 0 01-6.523-7.173c-1.65-2.867-2.473-6.24-2.473-10.107h12.644c0 2.307.409 4.28 1.225 5.934.816 1.64 1.932 2.986 3.35 4.04 1.415 1.053 3.089 1.813 5.022 2.306 1.932.48 4.015.72 6.248.72 4.399 0 7.705-.893 9.921-2.68 2.216-1.773 3.324-4.133 3.324-7.066M1222.399 1692.907c0-1.467-.218-2.774-.65-3.92-.433-1.147-1.224-2.214-2.374-3.174-1.15-.973-2.732-1.893-4.748-2.773-2.016-.893-4.607-1.813-7.772-2.773-3.467-1.04-6.664-2.227-9.598-3.56-2.932-1.32-5.456-2.88-7.572-4.64-2.116-1.774-3.773-3.8-4.973-6.107-1.2-2.293-1.799-4.92-1.799-7.893 0-2.934.624-5.627 1.874-8.094 1.25-2.466 3.006-4.6 5.273-6.4 2.267-1.8 4.981-3.2 8.148-4.2 3.165-1 6.663-1.493 10.496-1.493 4.099 0 7.78.587 11.045 1.773 3.266 1.187 6.024 2.787 8.274 4.827 2.249 2.027 3.973 4.387 5.172 7.067 1.198 2.68 1.798 5.533 1.798 8.573H1222.4c0-1.773-.275-3.387-.824-4.88a10.11 10.11 0 00-2.524-3.84c-1.135-1.08-2.567-1.933-4.299-2.533-1.733-.6-3.783-.894-6.148-.894-2.233 0-4.165.254-5.799.747-1.633.507-2.99 1.2-4.073 2.107-1.083.893-1.883 1.96-2.399 3.2-.517 1.226-.776 2.56-.776 3.986 0 2.707 1.276 4.96 3.826 6.76 2.548 1.787 6.438 3.454 11.669 4.987 4.099 1.2 7.648 2.533 10.647 4 3 1.467 5.49 3.133 7.472 4.973 1.982 1.854 3.457 3.934 4.424 6.254.966 2.32 1.449 4.92 1.449 7.826 0 3.054-.608 5.814-1.824 8.267-1.217 2.453-2.948 4.533-5.197 6.253-2.25 1.707-4.974 3.027-8.174 3.947-3.198.907-6.765 1.373-10.696 1.373-3.498 0-6.946-.48-10.346-1.426-3.398-.947-6.447-2.387-9.147-4.294a22.437 22.437 0 01-6.523-7.173c-1.649-2.867-2.473-6.24-2.473-10.107h12.644c0 2.307.408 4.28 1.227 5.934.814 1.64 1.932 2.986 3.348 4.04 1.416 1.053 3.089 1.813 5.024 2.306 1.932.48 4.013.72 6.246.72 4.399 0 7.706-.893 9.923-2.68 2.215-1.773 3.323-4.133 3.323-7.066M1258.787 1674.467h15.194c2.432 0 4.523-.307 6.274-.907 1.748-.6 3.189-1.44 4.322-2.547a9.723 9.723 0 002.475-3.92c.516-1.52.775-3.173.775-4.973 0-1.707-.259-3.333-.775-4.907a11.361 11.361 0 00-2.475-4.173c-1.133-1.213-2.574-2.173-4.322-2.893-1.751-.72-3.842-1.08-6.274-1.08h-15.194zm0 10.146v27.04h-12.647v-72.773h27.841c4.231 0 7.988.573 11.271 1.72 3.281 1.147 6.055 2.76 8.323 4.827a20.494 20.494 0 015.173 7.346c1.183 2.827 1.773 5.907 1.773 9.24 0 3.534-.59 6.707-1.773 9.507-1.184 2.8-2.908 5.16-5.173 7.093-2.268 1.934-5.042 3.414-8.323 4.44-3.283 1.04-7.04 1.56-11.27 1.56h-15.195M1357 1673.36c0-4.067-.387-7.653-1.173-10.773-.787-3.107-1.92-5.72-3.427-7.814-1.493-2.106-3.333-3.693-5.52-4.773-2.187-1.08-4.653-1.627-7.427-1.627-2.693 0-5.133.547-7.293 1.627-2.167 1.08-4.008 2.667-5.523 4.773-1.517 2.094-2.684 4.707-3.498 7.814-.818 3.12-1.226 6.706-1.226 10.773v3.8c0 4.067.408 7.667 1.226 10.8.814 3.133 1.99 5.76 3.524 7.867 1.532 2.12 3.389 3.72 5.572 4.8 2.178 1.08 4.618 1.626 7.325 1.626 5.6 0 9.907-2.133 12.92-6.4 3.013-4.266 4.52-10.493 4.52-18.693zm12.653 3.8c0 5.533-.733 10.493-2.186 14.867-1.44 4.386-3.48 8.106-6.12 11.146a26.438 26.438 0 01-9.494 7.027c-3.693 1.64-7.8 2.453-12.293 2.453-4.467 0-8.55-.813-12.248-2.453-3.699-1.627-6.89-3.973-9.572-7.027-2.683-3.04-4.765-6.76-6.248-11.146-1.484-4.374-2.224-9.334-2.224-14.867v-3.693c0-5.534.74-10.494 2.224-14.894 1.483-4.4 3.55-8.133 6.199-11.2a26.747 26.747 0 019.521-7.053c3.699-1.627 7.775-2.44 12.241-2.44 4.507 0 8.614.813 12.32 2.44 3.72 1.64 6.907 3.987 9.547 7.053 2.653 3.067 4.707 6.8 6.147 11.2 1.453 4.4 2.186 9.36 2.186 14.894v3.693M1394.893 1673.467h12.987c2.267 0 4.253-.307 5.947-.907 1.706-.6 3.12-1.427 4.253-2.493a10.11 10.11 0 002.547-3.8c.573-1.467.853-3.08.853-4.854 0-1.866-.267-3.546-.8-5.066s-1.347-2.814-2.453-3.907c-1.094-1.08-2.507-1.907-4.227-2.493-1.707-.587-3.773-.88-6.16-.88h-12.947zm14.094 10.146h-14.094v28.04h-12.653v-72.773h25.6c4.16 0 7.88.467 11.133 1.427 3.267.946 6.027 2.346 8.28 4.186 2.254 1.854 3.96 4.147 5.12 6.88 1.174 2.734 1.747 5.894 1.747 9.494 0 4.866-1.173 8.946-3.52 12.226-2.347 3.28-5.627 5.8-9.827 7.574L1437.12 1711v.653h-13.547l-14.586-28.04M1496.2 1649.067h-22.693v62.586h-12.547v-62.586h-22.493v-10.187h57.733v10.187M1297.237 2346h-100.345a5.845 5.845 0 01-5.852-5.84c0-3.24 2.62-5.853 5.852-5.853h100.345a5.847 5.847 0 015.852 5.853 5.844 5.844 0 01-5.852 5.84M1368.733 2373.907h-243.341a5.857 5.857 0 01-5.852-5.854c0-3.24 2.62-5.853 5.852-5.853h243.341a5.844 5.844 0 015.854 5.853 5.853 5.853 0 01-5.854 5.854M1247.065 1787.32c-62.876 0-121.989 24.48-166.45 68.947-44.46 44.466-68.947 103.573-68.947 166.453 0 62.88 24.487 121.987 68.947 166.453 44.461 44.454 103.574 68.934 166.45 68.934 62.878 0 121.988-24.48 166.455-68.934 44.453-44.466 68.947-103.573 68.947-166.453 0-62.88-24.494-121.987-68.947-166.453-44.467-44.467-103.577-68.947-166.455-68.947zm0 473.413c-63.576 0-123.346-24.76-168.301-69.72-44.956-44.946-69.713-104.72-69.713-168.293 0-63.573 24.757-123.347 69.713-168.307 44.955-44.946 104.725-69.706 168.301-69.706 63.576 0 123.348 24.76 168.295 69.706 44.96 44.96 69.72 104.734 69.72 168.307 0 63.573-24.76 123.347-69.72 168.293-44.947 44.96-104.719 69.72-168.295 69.72" fill="#aec3ff"/><path d="M1437.907 2022.72c0 11.733-1.054 23.227-3.08 34.373-4.88 26.774-15.334 51.587-30.12 73.227-34.374 50.253-92.154 83.24-157.64 83.24-77.9 0-144.9-46.667-174.554-113.573a187.342 187.342 0 01-9.72-27.454c-4.293-15.866-6.577-32.586-6.577-49.813 0-13.933 1.493-27.533 4.33-40.613.03-.147.067-.294.095-.44 7.931-36.174 26.123-68.494 51.37-93.787a191.575 191.575 0 0123.122-19.747 187.901 187.901 0 0112.11-8.093c29.034-17.867 63.22-28.173 99.824-28.173 4.854 0 9.662.186 14.422.546 6.72.494 13.336 1.347 19.839 2.52 27.379 4.96 52.712 15.774 74.685 31.08a191.125 191.125 0 0136.814 33.507 189.106 189.106 0 0115.546 21.147c2.92 4.626 5.654 9.36 8.187 14.24a189.895 189.895 0 0114.547 37.106c4.426 16.147 6.8 33.16 6.8 50.707" fill="#aec3ff"/><path d="M1182.228 1937.293c-7.616 12.067 3.18 33-19.668 27.294-22.847-5.707-36.812-8.254-38.079 4.44-1.276 12.693 17.135 12.693 17.135 26.026 0 13.32-8.253 17.734-20.943 11.4-12.7-6.333-16.345-15.533-31.101-9.826-14.755 5.72-23.323 1.906-26.655-9.52-.59-2-1.409-3.64-2.37-5 .029-.147.066-.294.094-.44 7.931-36.174 26.123-68.494 51.37-93.787a191.575 191.575 0 0123.122-19.747 187.901 187.901 0 0112.11-8.093c5.95.213 13.061 2.48 19.125 9.973 13.327 16.507 22.21 8.254 19.04 27.294-3.18 19.04 1.903 21.586 12.69 20.946 10.785-.64 23.485-.64 24.75 7.614 1.267 8.253-33.004-.64-40.62 11.426M1261.243 2051.533s-16.819 5.387-21.26-6.346c-4.443-11.747.633-14.28-14.28-17.774-14.915-3.493-16.183-13.64-25.703-12.373-9.52 1.267-4.76 5.067-15.867 13.32-11.106 8.253-21.261 4.44-20.942 19.68.316 15.227 16.817 17.613 20.149 27.6 3.332 10-2.38 14.28 4.76 21.907 7.14 7.613 20.467 4.28 14.28 14.746-6.188 10.48-15.708 18.56-10.948 34.747s1.428 17.133 9.519 28.56c8.092 11.427 23.8 15.24 26.18 7.613 2.38-7.613-10.948-17.6-6.664-25.226 4.284-7.614 11.424-2.374 14.28-13.8 2.856-11.427 14.437-11.427 15.39-19.36.951-7.934-13.962-19.987-8.25-25.067 5.71-5.08 17.134 9.2 26.02-3.493 8.885-12.694 2.856-22.84 12.058-34.907 9.202-12.053-12.376-16.813-18.722-9.827M1437.907 2022.72c0 11.733-1.054 23.227-3.08 34.373-4.88 26.774-15.334 51.587-30.12 73.227-5.054 1.653-10.2 1.613-15.267-.413-23.8-9.52-6.187-35.227 3.333-48.08 9.52-12.854-14.76-7.134-32.36-19.04-17.613-11.894 1.894-43.787-16.186-38.547-18.09 5.227-39.984 11.893-50.456-5.72-10.472-17.613 9.518-20.467.476-35.213-9.044-14.76 5.234-23.334 23.322-24.76 18.084-1.427 15.708-14.28 38.084-16.174 22.36-1.906 21.894 26.654 46.64 24.747 24.747-1.907 23.64 3.8 23.64 3.8 1.774-.04 3.507.333 5.174 1.093 4.426 16.147 6.8 33.16 6.8 50.707M1416.56 1934.907c-20.587 10.013-28.853-17.227-46.44-9.04-17.733 8.253-14.64-7.614-28.587-17.774-13.968-10.146-41.889 8.254-40.622-7.613 1.265-15.853 22.208-11.427 26.654-24.107 4.446-12.693 24.755-9.52 24.755-9.52a13.329 13.329 0 013.693-.84 191.125 191.125 0 0136.814 33.507 189.106 189.106 0 0115.546 21.147c2.92 4.626 5.654 9.36 8.187 14.24M1243.156 1880.173s10.788-15.56-6.348-20.16c-17.135-4.586-16.817 1.427-30.144 0-13.33-1.413-18.564 8.894-8.568 20.16 9.995 11.267 18.087 32.88 27.13 21.36 9.045-11.52 7.3-20.253 17.93-21.36" fill="#94b0ed"/></svg>