<svg xmlns="http://www.w3.org/2000/svg" height="2666.667" width="4000"><path d="M3999.998 2666.667H0V-.007h3999.998v2666.674" fill="#fff"/><path d="M760.796 1189.75c174.317-70.145 51.826-1127.352 828.167-644.428 163.878 101.951 376.813 46.223 604.2-9.505 200.981-49.254 413.262-98.505 612.994-38.907 390.976 116.662 388.36 449.092 350.53 574.336-76.42 252.996 16.196 207.19 236.805 315.886 346.032 170.507 240.935 859.547-85.963 862.415-326.899 2.865-2798.28 0-2798.28 0S195.206 1417.344 760.797 1189.75" fill="#ebf2f9"/><path d="M760.796 1970.52v274.307h133.11V1970.52h-133.11" fill="#dceaf9"/><path d="M2874.82 2244.625V1199.004h-155.487v-119.883h-36.385V872.99h-195.135v206.13h-182.419V796.57l-201.308-76.192v240.896h-45.909V640.465l-201.308 66.72v481.85h-254.585v284.615h-95.134v71.694h-218.497v-123.453H1163.2v-335.504H1008.23v619.317H853.262v538.921H2874.82" fill="#d5e7f7"/><path d="M2025.373 783.64h-135.8v-49.733h135.8v49.733M2025.373 877.067h-135.8v-49.734h135.8v49.734M2025.373 961.107h-135.8v-49.72h135.8v49.72M1008.297 1314.747v76.76h156.332v-76.76h-156.332M1008.297 1627.133h156.332v-76.76h-156.332v76.76M1008.297 1743.093h156.332v-76.773h-156.332v76.773M1164.63 1864.4h-156.333v-76.76h156.332v76.76M1008.297 1983.213h156.332v-76.76h-156.332v76.76M1164.63 2104.533h-156.333v-76.76h156.332v76.76M2276.045 911.375h-142.832v49.738h142.832v-49.738M2276.045 828.083h-142.832v49.738h142.832v-49.738M1886.115 992.88v49.724h389.93V992.88h-389.93M1886.115 1117.378h389.93v-49.724h-389.93v49.724M1886.115 1189.75h389.93v-47.824h-389.93v47.825M1008.297 1511.173h156.332v-76.76h-156.332v76.76M1643.88 1286.107H1678v-48.094h-34.12v48.094M1707.693 1286.107h34.134v-48.094h-34.134v48.094M1770.08 1286.107h34.133v-48.094h-34.133v48.094M1829.24 1286.107h34.12v-48.094h-34.12v48.094M1889.52 1286.107h34.133v-48.094h-34.133v48.094M1950.507 1286.107h34.12v-48.094h-34.12v48.094M2014.32 1286.107h34.12v-48.094h-34.12v48.094M2076.707 1286.107h34.133v-48.094h-34.133v48.094M2135.867 1286.107h34.12v-48.094h-34.12v48.094M2196.136 1286.113h34.139v-48.095h-34.139v48.095M2258.976 1286.112h34.13v-48.106h-34.13v48.106M2322.776 1286.113h34.139v-48.101h-34.14v48.101M2385.174 1286.108h34.137v-48.1h-34.137v48.1M2444.327 1286.114h34.12v-48.1h-34.12v48.1M2504.617 1286.104h34.14v-48.1h-34.14v48.1M2565.604 1286.11h34.116v-48.1h-34.116v48.1M2629.414 1286.11h34.136v-48.103h-34.136v48.102M2691.792 1286.114h34.133v-48.1h-34.133v48.1M2750.962 1286.11h34.121v-48.102h-34.121v48.102M2811.244 1238.011v48.1h34.127v-48.1h-34.127M1643.88 1371H1678v-48.107h-34.12V1371M1707.693 1371h34.134v-48.107h-34.134V1371M1770.08 1371h34.133v-48.107h-34.133V1371M1829.24 1371h34.12v-48.107h-34.12V1371M1889.52 1371h34.133v-48.107h-34.133V1371M1950.507 1371h34.12v-48.107h-34.12V1371M2014.32 1371h34.12v-48.107h-34.12V1371M2076.707 1371h34.133v-48.107h-34.133V1371M2135.867 1371h34.12v-48.107h-34.12V1371M2196.136 1371.003h34.139v-48.11h-34.139v48.11M2258.976 1371h34.13v-48.109h-34.13v48.11M2322.776 1371.003h34.139v-48.109h-34.14v48.109M2385.174 1370.998h34.137v-48.11h-34.137v48.11M2444.327 1371.003h34.12v-48.11h-34.12v48.11M2504.617 1370.994h34.14v-48.109h-34.14v48.109M2565.604 1371h34.116v-48.11h-34.116V1371M2629.414 1370.998h34.136v-48.109h-34.136V1371M2691.792 1371.004h34.133v-48.11h-34.133v48.11M2750.962 1370.998h34.121v-48.108h-34.121v48.108M2811.244 1371.002h34.127v-48.11h-34.127v48.11M1643.88 1454.573H1678v-48.106h-34.12v48.106M1707.693 1454.573h34.134v-48.106h-34.134v48.106M1770.08 1454.573h34.133v-48.106h-34.133v48.106M1829.24 1454.573h34.12v-48.106h-34.12v48.106M1889.52 1454.573h34.133v-48.106h-34.133v48.106M1950.507 1454.573h34.12v-48.106h-34.12v48.106M2014.32 1454.573h34.12v-48.106h-34.12v48.106M2076.707 1454.573h34.133v-48.106h-34.133v48.106M2135.867 1454.573h34.12v-48.106h-34.12v48.106M2196.136 1454.577h34.139v-48.107h-34.139v48.107M2258.976 1454.575h34.13v-48.108h-34.13v48.108M2322.776 1454.576h34.139v-48.107h-34.14v48.107M2385.174 1454.571h34.137v-48.107h-34.137v48.107M2444.327 1454.577h34.12v-48.107h-34.12v48.107M2504.617 1454.569h34.14v-48.107h-34.14v48.107M2565.604 1454.574h34.116v-48.106h-34.116v48.106M2629.414 1454.572h34.136v-48.106h-34.136v48.106M2691.792 1454.577h34.133v-48.107h-34.133v48.107M2750.962 1454.573h34.121v-48.107h-34.121v48.107M2811.244 1454.575h34.127v-48.108h-34.127v48.108M1643.88 1543.373H1678v-48.093h-34.12v48.093M1707.693 1543.373h34.134v-48.093h-34.134v48.093M1770.08 1543.373h34.133v-48.093h-34.133v48.093M1829.24 1543.373h34.12v-48.093h-34.12v48.093M1889.52 1543.373h34.133v-48.093h-34.133v48.093M1950.507 1543.373h34.12v-48.093h-34.12v48.093M2014.32 1543.373h34.12v-48.093h-34.12v48.093M2076.707 1543.373h34.133v-48.093h-34.133v48.093M2135.867 1543.373h34.12v-48.093h-34.12v48.093M2196.136 1543.376h34.139v-48.093h-34.139v48.093M2258.976 1543.374h34.13v-48.093h-34.13v48.093M2322.776 1543.376h34.139v-48.094h-34.14v48.094M2385.174 1543.372h34.137v-48.094h-34.137v48.094M2444.327 1543.376h34.12v-48.094h-34.12v48.094M2504.617 1543.37h34.14v-48.095h-34.14v48.094M2565.604 1543.374h34.116v-48.095h-34.116v48.095M2629.414 1543.372h34.136v-48.094h-34.136v48.094M2691.792 1543.377h34.133v-48.094h-34.133v48.094M2750.962 1543.373h34.121v-48.095h-34.121v48.095M2811.244 1543.373h34.127v-48.092h-34.127v48.092M1643.88 1628.253H1678v-48.093h-34.12v48.093M1707.693 1628.253h34.134v-48.093h-34.134v48.093M1770.08 1628.253h34.133v-48.093h-34.133v48.093M1829.24 1628.253h34.12v-48.093h-34.12v48.093M1889.52 1628.253h34.133v-48.093h-34.133v48.093M1950.507 1628.253h34.12v-48.093h-34.12v48.093M2014.32 1628.253h34.12v-48.093h-34.12v48.093M2076.707 1628.253h34.133v-48.093h-34.133v48.093M2135.867 1628.253h34.12v-48.093h-34.12v48.093M2196.136 1628.256h34.139v-48.093h-34.139v48.093M2258.976 1628.254h34.13v-48.093h-34.13v48.093M2322.776 1628.255h34.139v-48.093h-34.14v48.093M2385.174 1628.25h34.137v-48.091h-34.137v48.092M2444.327 1628.255h34.12v-48.093h-34.12v48.093M2504.617 1628.25h34.14v-48.095h-34.14v48.094M2565.604 1628.254h34.116v-48.093h-34.116v48.093M2629.414 1628.251h34.136v-48.092h-34.136v48.092M2750.962 1628.253h34.121v-48.093h-34.121v48.093M2691.792 1628.257h34.133v-48.094h-34.133v48.094M2811.244 1628.255h34.127v-48.094h-34.127v48.094M1643.88 1711.84H1678v-48.107h-34.12v48.107M1707.693 1711.84h34.134v-48.107h-34.134v48.107M1770.08 1711.84h34.133v-48.107h-34.133v48.107M1829.24 1711.84h34.12v-48.107h-34.12v48.107M1889.52 1711.84h34.133v-48.107h-34.133v48.107M1950.507 1711.84h34.12v-48.107h-34.12v48.107M2014.32 1711.84h34.12v-48.107h-34.12v48.107M2076.707 1711.84h34.133v-48.107h-34.133v48.107M2135.867 1711.84h34.12v-48.107h-34.12v48.107M2196.136 1711.842h34.139v-48.107h-34.139v48.107M2258.976 1711.84h34.13v-48.106h-34.13v48.106M2322.776 1711.841h34.139v-48.105h-34.14v48.105M2385.174 1711.839h34.137v-48.107h-34.137v48.107M2444.327 1711.843h34.12v-48.107h-34.12v48.107M2504.617 1711.837h34.14v-48.107h-34.14v48.107M2565.604 1711.84h34.116v-48.107h-34.116v48.108M2629.414 1711.84h34.136v-48.108h-34.136v48.107M2750.962 1711.84h34.121v-48.107h-34.121v48.106M2811.244 1711.84h34.127v-48.106h-34.127v48.106M3131.448 1568.653v513.613h75.914v-513.613h-75.914" fill="#c4d9ed"/><path d="M3131.447 2237.68h-81.494v-356.763h81.494v356.763" fill="#adc9e0"/><path d="M1344.187 1421.88v-100.053h4.106v100.053h56.307v123.467h-115.95V1421.88h55.537M1008.297 1163.187v-76.76h31.115v-33.414h4.11v33.414h143.605v-33.414h4.112v33.414h28.86v335.453h-57.64v-144.533h-154.162v-76.76h154.162v-37.4h-154.162" fill="#c4d9ed"/><path d="M2696.118 1643.412v432.973h435.33v-507.734l-435.33 74.76" fill="#d5e7f7"/><path d="M2696.108 2245.24h543.093V1880h-543.093v365.24" fill="#d5e7f7"/><path d="M2696.108 1782.132h543.093v-118.706h-543.093v118.706M2733.083 2017.934h27.898v-39.319h-27.898v39.32M2785.251 2017.934h27.89v-39.32h-27.89v39.32M2836.242 2017.935h27.885v-39.321h-27.885v39.32M2884.592 2017.933h27.892v-39.32h-27.892v39.32M2933.862 2017.936h27.891v-39.321h-27.891v39.32M2983.71 2017.93h27.9v-39.32h-27.9v39.32M3035.876 2017.931h27.894v-39.32h-27.894v39.32M3086.857 2017.932h27.9v-39.32h-27.9v39.32M3135.205 2017.934h27.886v-39.321h-27.886v39.321M3184.496 1978.612v39.319h27.886v-39.32h-27.886M2733.083 2087.308h27.898v-39.306h-27.898v39.306M2785.251 2087.308h27.89v-39.306h-27.89v39.306M2836.242 2087.308h27.885v-39.307h-27.885v39.307M2884.592 2087.306h27.892V2048h-27.892v39.306M2933.862 2087.308h27.891v-39.306h-27.891v39.306M2983.71 2087.305h27.9V2048h-27.9v39.306M3035.876 2087.306h27.894v-39.308h-27.894v39.308M3086.857 2087.305h27.9v-39.307h-27.9v39.307M3135.205 2087.307h27.886V2048h-27.886v39.306M3184.496 2087.305h27.886v-39.306h-27.886v39.306M2733.083 1878.136h27.898v-39.308h-27.898v39.308M2785.251 1878.135h27.89v-39.307h-27.89v39.307M2836.242 1878.136h27.885v-39.308h-27.885v39.308M2884.592 1878.132h27.892v-39.306h-27.892v39.306M2933.862 1878.135h27.891v-39.306h-27.891v39.306M2983.71 1878.131h27.9v-39.308h-27.9v39.308M3035.876 1878.131h27.894v-39.306h-27.894v39.306M3086.857 1878.13h27.9v-39.306h-27.9v39.307M2733.083 1947.51h27.898v-39.308h-27.898v39.307M2785.251 1947.509h27.89V1908.2h-27.89v39.308M2836.242 1947.509h27.885v-39.307h-27.885v39.307M2884.592 1947.507h27.892v-39.308h-27.892v39.308M2933.862 1947.51h27.891v-39.308h-27.891v39.307M2983.71 1947.504h27.9v-39.307h-27.9v39.307M3035.876 1947.504h27.894v-39.306h-27.894v39.306M3086.857 1947.504h27.9v-39.305h-27.9v39.305M3135.205 1947.508h27.886V1908.2h-27.886v39.308M3184.496 1947.505h27.886v-39.307h-27.886v39.307M2733.083 2155.628h27.898v-39.32h-27.898v39.32M2785.251 2155.628h27.89v-39.32h-27.89v39.32M2836.242 2155.627h27.885v-39.319h-27.885v39.32M2884.592 2155.626h27.892v-39.32h-27.892v39.32M2933.862 2155.628h27.891v-39.32h-27.891v39.32M2983.71 2155.624h27.9v-39.319h-27.9v39.32M3035.876 2155.624h27.894v-39.32h-27.894v39.32M3086.857 2155.625h27.9v-39.32h-27.9v39.32M3135.205 2155.628h27.886v-39.322h-27.886v39.322M3184.496 2155.626h27.886v-39.321h-27.886v39.321" fill="#c4d9ed"/><path d="M3094.209 1487.117v102.934h8.05v-102.934h-8.05M2737.538 1737.322h23.443v-40.547h-23.443v40.547M2970.244 1737.32h23.436v-40.547h-23.436v40.547M3155.341 1696.775v40.546h23.441v-40.546h-23.44" fill="#d5e7f7"/><path d="M1249.81 2246.16h781.577v-457.187H1249.81v457.187" fill="#c4d9ed"/><path d="M1738.12 1898.133h41.667v-63.626h-41.667v63.626M1662.44 1898.133h41.667v-63.626h-41.667v63.626M1588.96 1898.133h41.667v-63.626h-41.667v63.626M1514.987 1898.133h41.666v-63.626h-41.666v63.626M1441.507 1898.133h41.666v-63.626h-41.666v63.626M1364.44 1898.133h41.667v-63.626h-41.667v63.626M1290.956 1898.133h41.67v-63.626h-41.67v63.626M1959.053 1992.227h41.667V1928.6h-41.667v63.627M1885.573 1992.227h41.667V1928.6h-41.667v63.627M1811.6 1992.227h41.667V1928.6H1811.6v63.627M1738.12 1992.227h41.667V1928.6h-41.667v63.627M1662.44 1992.227h41.667V1928.6h-41.667v63.627M1588.96 1992.227h41.667V1928.6h-41.667v63.627M1514.987 1992.227h41.666V1928.6h-41.666v63.627M1441.507 1992.227h41.666V1928.6h-41.666v63.627M1364.44 1992.227h41.667V1928.6h-41.667v63.627M1290.956 1992.227h41.67V1928.6h-41.67v63.627M1959.053 2093.293h41.667v-63.613h-41.667v63.613M1885.573 2093.293h41.667v-63.613h-41.667v63.613M1811.6 2093.293h41.667v-63.613H1811.6v63.613M1738.12 2093.293h41.667v-63.613h-41.667v63.613M1662.44 2093.293h41.667v-63.613h-41.667v63.613M1588.96 2093.293h41.667v-63.613h-41.667v63.613M1514.987 2093.293h41.666v-63.613h-41.666v63.613M1441.507 2093.293h41.666v-63.613h-41.666v63.613M1364.44 2093.293h41.667v-63.613h-41.667v63.613M1290.956 2093.293h41.67v-63.613h-41.67v63.613M1959.053 2187.387h41.667v-63.614h-41.667v63.614M1885.573 2187.387h41.667v-63.614h-41.667v63.614" fill="#d5e7f7"/><path d="M1519.067 1808.52h-163.094v-142.2l163.094 62.453v79.747M2322.886 2246.16h373.22v-406l-373.22 129.2v276.8" fill="#c4d9ed"/><path d="M2332.746 1994.01h353.516v-12.546h-353.516v12.546M2332.746 2034.344h353.516v-12.547h-353.516v12.547M2332.746 2074.664h353.516v-12.546h-353.516v12.546M2332.746 2114.998h353.516v-12.547h-353.516v12.547M2332.746 2155.318h353.516v-12.546h-353.516v12.546M2332.746 2195.638h353.516v-12.546h-353.516v12.546" fill="#d5e7f7"/><path d="M1324.604 1787.64h31.37v-121.32h-31.37v121.32" fill="#c4d9ed"/><path d="M1454.053 1768.867V1727.2h-63.626v41.667h63.626" fill="#d5e7f7"/><path d="M2641.096 1075.726h21.628v-183.48h-21.628v183.48M2598.081 1075.726h21.633V892.252h-21.633v183.474M2555.66 1075.72h21.63V892.241h-21.63v183.477M2511.749 1075.727h21.619V892.252h-21.62v183.475" fill="#c4d9ed"/><path d="M483.113 2148.415h1712.04l-69.517-256.747H483.113v256.747" fill="#1c2948"/><path d="M1262.937 1640.333l-.004-.013.142.013zM1754.667 1833.907h-.014c-25.666-.96-52.333-1.48-80.04-1.48 0 0-153.346-133.067-330.733-178.36 182.373 45.04 410.787 179.84 410.787 179.84" fill="#163560"/><path d="M365.793 1933.8v-146.92s172.374-19.706 276.619-57.466c241.323-88.64 371.016-90.294 590.178-90.294 166.397 0 334.92 111.44 406.43 165.094 24.1 18.092 53.326 28.078 83.455 28.732 263.212 5.773 425.942 58.321 506.757 93.787 37.866 16.627 62.234 54.147 62.234 95.507v49.466c5.436 0 9.855 4.414 9.855 9.853v82.081c0 5.44-4.42 9.854-9.855 9.854h-157.083c15.559-27.894 24.157-60.2 23.282-94.587-2.457-97.973-82.467-177.747-180.435-179.92-103.912-2.294-188.864 81.254-188.864 184.64 0 32.626 8.486 63.266 23.324 89.867H845.275c15.562-27.894 24.144-60.2 23.282-94.587-2.458-97.973-82.471-177.747-180.444-179.92-103.914-2.294-188.872 81.254-188.872 184.64 0 32.626 8.494 63.266 23.341 89.867h-38.59c-133.55 0-152.473-136.587-153.726-203.547-.37-19.866 15.656-36.147 35.527-36.147" fill="#f1a34f"/><path d="M1317.199 1665.653c152.468 38.587 315.961 170.467 315.961 170.467l-432.757-9.253a44.47 44.47 0 01-39.398-25.76L1094.691 1658h160.46c20.92 0 41.768 2.52 62.048 7.653M1069.245 1661.293l60.76 139.174c4.672 10.706-3.168 22.68-14.845 22.693-61.31.027-222.279-2.253-314.94-25.467-22.259-5.573-29.73-33.586-13.17-49.466 37.654-36.12 119.531-86.934 282.195-86.934" fill="#163560"/><path d="M2280.218 1975.039h-63.245s-103.393-96.52-269.317-123.868c0 0 306.528 33.774 332.562 123.868M365.792 1933.8h16.739c9.374 0 17.932-5.373 21.937-13.84 9.673-20.48 30.921-59.36 63.52-87 12.623-10.693 5.068-31.307-11.481-31.307h-90.715V1933.8" fill="#b64c41"/><path d="M1195.859 1867.733h84.108c4.646 0 8.413-3.773 8.413-8.413a8.409 8.409 0 00-8.413-8.413h-84.108a8.41 8.41 0 00-8.415 8.413 8.418 8.418 0 008.415 8.413M824.021 1867.733h84.108c4.647 0 8.414-3.773 8.414-8.413a8.409 8.409 0 00-8.414-8.413h-84.108a8.409 8.409 0 00-8.413 8.413c0 4.64 3.767 8.413 8.413 8.413" fill="#163560"/><path d="M895.228 1922.307h758.332c31.36 0 50.653 34.32 34.347 61.106l-48.84 80.28c-10.627 17.467-33.827 22.254-50.48 10.387-64.84-46.227-251.614-142.133-693.359-151.773" fill="#dd7f30"/><path d="M1171.987 1568.64h38.896c5.084 0 9.62 3.187 11.341 7.973l22.919 63.72h-85.21v-59.64c0-6.666 5.396-12.053 12.054-12.053" fill="#f1a34f"/><path d="M1159.933 1639.32v-43.587h16.688a27.233 27.233 0 0125.64 18.067l9.107 25.52h-51.435M1393.76 1943.907v57.56h-57.56v-57.56h57.56M1336.2 2059.013h-57.552v-57.546h57.552v57.546M1278.648 1943.907v57.56h-57.553v-57.56h57.553M1221.095 2059.013h-57.555v-57.546h57.555v57.546M1163.54 1943.907v57.56h-57.553v-57.56h57.553" fill="#163560"/><path d="M521.78 2084.56c0 88.72 71.919 160.64 160.635 160.64s160.634-71.92 160.634-160.64c0-88.72-71.918-160.627-160.634-160.627-88.716 0-160.635 71.907-160.635 160.627" fill="#2d3a62"/><path d="M634.288 2098a49.916 49.916 0 01.13-27.32l-34.478-21.293c-4.613 10.8-7.173 22.68-7.173 35.173 0 12.333 2.49 24.067 6.99 34.76zm34.493 75.187v-40.56a49.677 49.677 0 01-20.269-11.374l-34.452 21.28c13.663 16.094 32.888 27.32 54.721 30.654zm36.23-88.627c0-12.48-10.118-22.6-22.596-22.6-12.479 0-22.596 10.12-22.596 22.6 0 12.48 10.117 22.6 22.596 22.6 12.478 0 22.596-10.12 22.596-22.6zm-8.963 88.627c21.833-3.334 41.06-14.56 54.723-30.654l-34.454-21.28a49.677 49.677 0 01-20.269 11.374zm69.024-53.867c4.5-10.693 6.99-22.427 6.99-34.76 0-12.493-2.56-24.373-7.173-35.173l-34.477 21.293a49.867 49.867 0 011.97 13.88c0 4.653-.65 9.16-1.84 13.44zm-69.024-123.373v40.546a49.739 49.739 0 0119.928 11.054l34.493-21.307c-13.644-15.907-32.746-26.987-54.421-30.293zm-27.267 0c-21.673 3.306-40.777 14.386-54.42 30.293l34.492 21.307a49.739 49.739 0 0119.928-11.054zm13.634-10.907c54.966 0 99.525 44.56 99.525 99.52 0 54.973-44.559 99.533-99.525 99.533-54.967 0-99.526-44.56-99.526-99.533 0-54.96 44.559-99.52 99.526-99.52" fill="#98bdf4"/><path d="M1812.253 2084.8c0 88.707 71.92 160.627 160.64 160.627 88.72 0 160.64-71.92 160.64-160.627 0-88.72-71.92-160.64-160.64-160.64-88.72 0-160.64 71.92-160.64 160.64" fill="#2d3a62"/><path d="M1924.773 2098.227a49.546 49.546 0 01-1.853-13.427c0-4.827.707-9.48 1.973-13.893l-34.48-21.294c-4.613 10.8-7.173 22.694-7.173 35.187 0 12.32 2.493 24.067 7 34.76zm34.494 75.186v-40.546a50.033 50.033 0 01-20.28-11.374l-34.454 21.28c13.667 16.094 32.894 27.307 54.734 30.64zm36.226-88.613c0-12.48-10.12-22.6-22.6-22.6-12.48 0-22.6 10.12-22.6 22.6 0 12.48 10.12 22.587 22.6 22.587 12.48 0 22.6-10.107 22.6-22.587zm-8.973 88.613c21.84-3.333 41.067-14.546 54.733-30.64l-34.453-21.28a50.033 50.033 0 01-20.28 11.374zm69.027-53.853c4.506-10.693 7-22.44 7-34.76 0-12.493-2.56-24.387-7.174-35.187l-34.48 21.294a50.26 50.26 0 011.974 13.893c0 4.653-.654 9.16-1.854 13.427zm-69.027-123.387v40.56a49.849 49.849 0 0119.933 11.04l34.494-21.293c-13.64-15.907-32.747-27-54.427-30.307zm-27.253 0c-21.68 3.307-40.787 14.4-54.427 30.307l34.493 21.293a49.849 49.849 0 0119.934-11.04zm13.626-10.906c54.96 0 99.52 44.56 99.52 99.533 0 54.96-44.56 99.52-99.52 99.52-54.96 0-99.52-44.56-99.52-99.52 0-54.973 44.56-99.533 99.52-99.533" fill="#98bdf4"/><path d="M2800.19 1698.784c-7.092 0-13.403-1.428-18.842-4.148-67.814-33.679-4.853-265-4.853-265s3.2-10.427 15.536-16c6.4-2.853 15.287-4.387 27.606-2.373 35.693 5.92 42.572 20.746 43.994 29.053 1.547 8.413 33.792 257.988-63.44 258.468" fill="#2b478b"/><path d="M2781.323 1694.641c-67.798-33.68-4.85-265-4.85-265s3.204-10.425 15.531-15.999c26.213 6.88 31.659 19.32 33.094 26.679 1.279 7.827 29.032 222.067-43.775 254.32M2920.912 2172.12s15.457 14.319 12.448 24.504c-3.026 10.175-16.97 16.961-18.843 29.387-1.891 12.441 9.134 21.16 2.342 21.16-6.773 0-50.909-1.933-50.909-1.933s-4.99-8.746 7.08-11.387c12.051-2.639 16.61-17.252 15.853-30.826-.757-13.56 1.134-31.653 1.134-31.653l25.617-6.04 5.278 6.787M2731.338 2210.426s3.758 30.146-3.02 33.534c-6.78 3.4-87.826 2.267-87.826 2.267s0-10.174 13.944-12.44c13.961-2.254 38.46-10.547 42.587-29.014 4.145-18.48 34.315 5.653 34.315 5.653" fill="#233862"/><path d="M2658.024 1750s4.598 57.134 9.965 125.812c7.315 93.295 16.118 207.894 16.99 229.602 1.503 37.693 7.537 98 7.537 98s14.306 14.32 42.969 8.28c0 0 25.535-86.08 32.816-177.148.12-1.494.24-3 .342-4.505 6.786-92.722 17.331-287.949 17.331-287.949l-127.95 7.907" fill="#2b478b"/><path d="M2658.024 1750s4.598 57.134 9.965 125.812l100.312 158.734c.12-1.494.24-3 .342-4.505 6.786-92.722 17.331-287.949 17.331-287.949l-127.95 7.907" fill="#233862"/><path d="M2678.964 1756.783s82.52 206.921 136.8 304.16c54.278 97.242 71.23 124.375 71.23 124.375s31.091-12.438 33.922-20.92c0 0-20.75-187.72-57.092-233.481-20.554-25.866-44.674-103.467-45.803-130.6-1.129-27.134-7.347-80.84-7.347-80.84l-131.71 37.306" fill="#2b478b"/><path d="M2533.159 1522.218l-17.381.6c-3.386.12-6.678-.814-9.674-2.388-6.225-3.292-18.582-6.826-28.708 8.627 0 0-5.274 9.52 1.576 12.266 6.85 2.748 4.462.507 14.057 4.628 7.209 3.08 14.589 2.986 19.66-.108 4.306-2.626 9.735-2.693 14.634-1.466l15.868 3.96-10.032-26.119" fill="#ab7041"/><path d="M2721.27 1437.403c-3.676-21.666-3.779-34.506-3.779-34.506l41.882-33.76c-1.573 46.414 28.166 68.733 28.166 68.733s-55.802 27.467-88.055 17.293c0 0 7.935-10.16 21.787-17.76" fill="#9c5f33"/><path d="M2707.628 1402.119s53.286 8.854 58.285-24.413c4.999-33.268 15.236-54.52-18.564-61.576-33.8-7.058-42.331 4.638-46.7 15.334-4.384 10.695-6.756 67.495 6.98 70.655" fill="#ab7041"/><path d="M2514.27 1533.12c.69-10.171 4.22-20.465 4.22-20.465s96.396-5.307 105.472-6.867c9.094-1.56 126.691-57.893 126.691-57.893l56.663 64.119s-151.405 41.788-174.518 45.28c-38.183 5.774-116.375-9.358-116.375-9.358s-2.67-6.815-2.153-14.815" fill="#963333"/><path d="M2816.91 1730.092c.121 1.892-2.005 4.027-4.51 5.693-2.005 1.414-4.39 2.48-5.79 3.2a303.767 303.767 0 01-20.998 8.533c-16.488 6.161-32.733 10.32-50.396 11.973-18.855 1.894-39.836 0-55.84-1.533-9.003-1.08-16.366-1.906-20.859-1.906h-.605a5.163 5.163 0 01-3.44-1.293c-.708-.48-1.295-28.694-.95-66.64 0-5.348.121-10.8.121-16.481 0-1.787 0-3.799.242-5.572v-.602c.121-17.787.709-36.626 1.538-55.24v-.359c1.78-41.374 4.978-81.227 10.56-103.387 6.394-25.973 21.344-43.053 34.841-55.734l11.147-9.838c.951.238 1.901.36 2.852.478 10.197 1.654 20.998.707 31.903-4.626 12.686-6.293 26.684-13.16 28.914-11.507.242.24.605.48.847.72 3.905 3.08 7.466 6.986 10.663 11.613.242.12.242.12.242.24h.12a93.362 93.362 0 017.346 12.801c3.681 7.48 6.757 16.133 9.488 25.734 7.224 25.96 10.784 58.692 10.68 93.665 0 8.894-.242 17.908-.846 27.028a847.299 847.299 0 01-.346 7.6c-1.072 22.64-.95 43.627-.363 62v.6c.605 18.613 1.66 34.386 2.489 46.12.484 7.12.83 12.8.95 16.72" fill="#b64c41"/><path d="M2815.966 1713.402c-1.693-24.72-4.647-67.226-1.762-116.279.501-9.134.795-18.2.812-27.12-11.022-26.76-20.057-46.173-20.057-46.173h-27.797s-20.403 139.28 48.804 189.572" fill="#963333"/><path d="M2765.951 1374.505s-5.462-.906-4.591-8.44c.887-7.532.887-17.372-5.257-15.546-6.11 1.84-6.418 6.747-8.927 3.88-2.526-2.866-2.56-14.92-20.79-15.76-18.211-.84-25.602 5.493-34.085 1.774-8.466-3.721-8.927-16.55-8.927-16.55s2.407 4.58 6.06 6.037c0 0-14.133-19.331 2.218-32.588 16.37-13.256 33.062-4.576 42.518-4.003 20.875 1.261 34.359 2.514 41.169 16.224 6.81 13.71 3.994 51.773-9.388 64.972" fill="#2b478b"/><path d="M2900.159 2217.866c-4.312 9.985.397 21.545 10.501 25.8 10.123 4.253 21.797-.4 26.109-10.4 4.294-10.002-.415-21.548-10.52-25.8-10.104-4.255-21.778.398-26.09 10.4" fill="#4a82d3"/><path d="M3084.003 2213.72l-28.285 10.107a25.988 25.988 0 01-8.912 1.506l-160.52-1.308-17.595-28.692 215.312 18.386M2992.214 1896.575l-45.053-110.12-.055-.213c-.257-.988-7.285-24.64-47.702-29.854l-.184-.04-33.243-6.12c-4.304-1.12-16.722-2.96-22.388 1.787-2.52 2.106-3.532 5.4-3.11 10.067.866 9.24 30.833 80.654 50.775 126.386l-6.347 2.708c-5.132-11.748-50.093-115.174-51.307-128.467-.644-6.961 1.214-12.32 5.537-15.92 9.272-7.76 26.62-3.68 28.478-3.214l32.782 6.04c43.527 5.64 52.449 31.654 53.35 34.64l44.888 109.76-6.42 2.56" fill="#4a82d3"/><path d="M2906.135 1864.104l-86.597 17.292s-25.23 10.214-20.133 53.976c4.468 38.505 24.206 254.573 24.206 254.573s4.127 44.96 101.24 31.721l-18.716-357.562" fill="#4a82d3"/><path d="M2858.218 1923.654l23.759 241.96a53.977 53.977 0 009.913 26.32c10.01 13.973 26.463 22.999 44.89 23.08l80.345.333 1.975.014 50.336.212a56.26 56.26 0 0014.573-1.854c1.093-.28 2.148-.6 3.203-.947 17.411-5.745 30.776-19.785 35.704-37.04 2.11-7.346 2.685-15.252 1.4-23.372l-36.932-231.48c-3.95-24.693-24.314-43.6-49.472-45.92l-14.21-1.32-3.374-.306-2.838-.267-47.46-4.387-5.829-.533-45.79-4.24c-7.173-.654-14.133.054-20.576 1.92-.441.118-.863.24-1.285.373l-2.646.907c-22.55 8.345-38.217 30.919-35.686 56.547" fill="#739af0"/><path d="M2891.88 2191.934c10.007 13.972 26.475 23 44.899 23.078l80.346.334 1.975.013 50.324.215c5.061.014 9.95-.627 14.57-1.854 1.093-.28 2.167-.6 3.22-.947 17.39-5.745 37.442-26.64 37.692-48.76 0 0-169.953-1.854-205.477 3.64-18.328 2.827-23.773 15.506-27.55 24.281" fill="#6793e7"/><path d="M3017.463 1873.068c.362.214 37.662 22.601 42.596 42.322 5.086 20.252 39.166 256.491 39.51 258.865.018.2.99 23.025-18.117 40.079l2.533-.613c1.105-.28 2.172-.6 3.22-.947 17.945-17.692 15.487-38.04 15.354-38.933-1.39-9.746-34.442-238.772-39.548-259.171-4.495-17.88-30.804-35.667-39.319-41.028l-3.39-.307-2.84-.267M2964.207 1868.145c5.367 3.562 25.869 18.908 30.27 47.28 5.2 33.295 25.664 275.095 25.85 277.522l.018.173.056.16c.037.133 2.916 13.173-5.292 22.054l2.005.013 1.987.013c7.874-9.52 4.736-21.187 4.253-22.827-.65-7.467-20.725-244.533-25.869-277.548-3.825-24.466-19.071-39.638-27.465-46.305l-5.813-.535M2893.91 1867.105c.162.095 7.91 4.401 14.59 11.868 6.679 7.48 13.956 19 16.472 35.239 5.195 33.28 21.505 274.267 21.668 276.694l.018.2.054.16c.036.12.779 14.868-7.44 23.76l5.05.014c6.282-8.106 5.866-22.762 5.34-24.507-.524-7.693-16.544-243.761-21.685-276.774-4.833-31.04-25.705-45.252-30.14-47.933-.434.12-.85.24-1.285.373l-2.643.906" fill="#4a82d3"/><path d="M2861.431 1700.122l10.36 24.4c1.263 2.947 1.156 6.227 0 9.214-2.564 6.573-4.646 19.253 11.871 27.533 0 0 10.075 4.133 11.997-2.988 1.94-7.106-.018-4.479 2.972-14.492 2.617-8.761.89-17.267-4.396-21.614-1.869-1.532-2.741-3.972-2.99-6.374l-1.638-15.545-28.176-.134" fill="#ab7041"/><path d="M2884.08 1724.545c-10.01 1.96-20.855 1.16-20.855 1.16s-29.743-91.84-33.565-100.24c-3.822-8.386-88.322-107.694-88.322-107.694l35.2-88.079s91.38 152.64 100.661 174.092c15.343 35.441 20.658 114.908 20.658 114.908s-5.902 4.32-13.778 5.853" fill="#b64c41"/><path d="M2768.779 1623.852c-11.39-13.987-22.416-33.908-29.415-61.894-3.076-12.213-5.461-26.08-6.636-41.614 0 0-3.198-29.52 11.51-50.146 5.08-7.24 12.443-13.52 22.882-16.84 6.048-2.133 13.272-3.2 21.706-2.96 1.884 0 16.367-.426 18.492-.2-2.246-4.747.865-11.308-1.745-15.092l-7.38 2.666c-.587 0-13.532-.067-16.85.052-2.385.121-5.22.24-8.417.707-10.905 1.547-25.733 5.814-37.347 16.84-3.681 3.32-6.878 7.347-9.713 12.094-1.192 1.893-2.264 4.386-3.214 7.107-7 21.345-5.928 64.746 7.812 105.173 8.9 25.96 23.02 50.747 43.759 67.706 10.576 8.76 24.368 15.96 38.695 19.721 1.279.346 2.592-.52 2.834-1.84l1.02-5.6a2.856 2.856 0 00-1.901-3.227c-7.034-2.347-28.62-10.96-46.092-32.653" fill="#233862"/><path d="M3295.664 1579.868s-15.366 8.294-18.338 17.999c-2.952 9.72-3.7 122.348-8.512 132.36-4.812 10-9.382 67.428-1.982 95.093 0 0-5.701 24.588-3.902 29.4 1.8 4.814 16.458 10.746 21.735 10.374 5.257-.374 7.966-31.001 2.164-39.774l8.835-245.452" fill="#ffb27d"/><path d="M3441.711 1536.32c-9.523-8.307-11.798-22.185-12.265-30.24 1.891 14.294 14.73 26.908 14.73 26.908-15.304-18.16 9.397-84.6-29.27-101.4-25.318-11-43.982-3.788-53.845 2.506-22.065-3-48.573 28.827-48.573 28.827l52.867 70.067s3.762-8.72 9.034-8.32c-2.87 11.092-4.55 20.16 1 25.853 27.506 28.28 16.282 41.987 31.991 46.84 19.238 5.918 57.565-40.786 34.331-61.04M3306.14 1576.509s-16.957 1.067-25.658 11.066c-8.722 10.002-9.878 91.534-9.878 91.534s2.393 9.119 12.515 8.387c10.141-.747 23.02-110.987 23.02-110.987" fill="#2b478b"/><path d="M3479.354 1779.777c-1.154 2.84-6.24 5.36-13.57 7.171-16.39 4.082-44.062 4.629-64.235-2.852-21.625-8-37.31-122.333-43.977-180.918-2.329-20.442-3.568-34.107-3.568-34.107s12.415-19.455 60.516-12.96c48.08 6.479 52.953 22.693 57.27 51.866 4.316 29.173 11.346 162.611 7.564 171.8" fill="#ee9849"/><path d="M3465.793 1786.949c-16.394 4.08-44.077 4.626-64.234-2.854-21.624-7.999-37.316-122.334-43.992-180.919 5.698-20.16 10.227-33.426 10.227-33.426s60.364-7.296 72.122 10.933c10.525 16.306 23.283 173.292 25.877 206.266" fill="#e58638"/><path d="M3422.037 1793.988c-16.525-37.08-24.44-47.574-24.713-59.24-.232-9.226 4.336-19.187 13.177-43.599 2.084-5.762 3.515-11.668 4.4-17.653 6.988-47.068-20.23-97.947-37.154-101.414-4.694-1.24-12.673-18.24-12.588-45.639l-2.105.425-35.617 7.054s.8 11.214.82 21.773c.022 8.8-.505 17.135-2.483 18.187-2.59.227-4.084.387-4.084.387s-29.702 41.24-32.207 79.613c-2.484 38.36 23.787 55.027-.19 131.68-24.48 78.292 141.9 28.918 132.744 8.426" fill="#ffb27d"/><path d="M3327.448 1533.918s.805 11.214.825 21.773c19.931-.573 30.474-18.746 34.786-28.827l-35.61 7.054" fill="#e8945b"/><path d="M3366.74 1522.983s10.434-16.507 12.944-30.612c1.805-10.08-3.319-47.428-40.868-42.055 0 0-10.891 1.08-21.14 8.001-8.152 5.506-19.915 17.387-6.762 49.974l3.423 11.014 52.402 3.678" fill="#2b478b"/><path d="M3320.777 1543.921s47.154.775 47.196-28.599c.02-29.373 6.127-49.067-23.97-50.8-30.12-1.747-35.977 9.467-38.379 19.266-2.4 9.801 2.878 59.175 15.153 60.133" fill="#ffb27d"/><path d="M3322.514 1463.803s12.917 34.467 32.72 39.56c19.824 5.094 28.415-.213 28.415-.213s6.968-32.28 3.806-53.347c0 0-55.206-2.4-64.941 14" fill="#2b478b"/><path d="M3325.722 1466.6s-9.63 7.694-11.998 15.173c-2.346 7.48-3.407 22.88-7.896 22.36 0 0-9.712-23.427 1.204-36.68 11.59-14.052 18.69-.854 18.69-.854" fill="#2b478b"/><path d="M3380.304 2149.88c-11.859 47.2-29.721 83.387-29.721 83.387l-15.548-1.08s7.628-36.28 7.17-85.306c-.292-34.267-4.544-74.775-18.092-113.442-46.52-132.906-39.017-229.626-39.017-229.626l87.518 10.24 4.085.481c.354 40.187 1.396 94.746 2.292 137.413.813 38.373 1.522 67.12 1.522 67.12 16.82 36.226 10.713 87.373-.209 130.813" fill="#4a82d3"/><path d="M3410.516 1691.145c-8.842 24.413-13.409 34.373-13.178 43.6-28.179-43.627-79.046-50.2-79.046-50.2l96.623-11.055c-.9 5.988-2.325 11.894-4.4 17.655" fill="#cb7d45"/><path d="M3483.397 1833.385l-14.147 4.24s-46.716-77.481-50.97-97.655c-1.367-6.559-4.765-19.693-8.718-34.413-8.228-30.479-18.785-67.772-18.785-67.772l-3.505-15.094-11.882-51.495s22.76 2.32 36.095 7.894c4.381 1.84 7.758 4.04 8.933 6.615 9.788 21.505 19.554 75.786 26.414 114.505 3.825 21.586 6.732 38.334 8.249 41.895 4.253 9.892 17.246 64.385 28.316 91.28" fill="#ffb27d"/><path d="M3430.495 2142.347c-5.035 53.694-27.176 88.426-27.176 88.426l-7.436 5.402s-7.037-37.842-12.008-82.842c-4.74-42.786-11.229-88.053-18.58-101.879-29.199-54.8-37.984-261.666-37.984-261.666l88.732-4.4c8.932 14.999 12.808 39.6 13.735 67.572 2.339 70.615-14.262 162.666-16.747 175.987v.027c-.19 1.04.105 2.054.568 2.973 17.654 34.947 20.224 74.935 16.896 110.4" fill="#739af0"/><path d="M3323.927 1467.762s9.209 36.093 34.199 47.655c0 0-24.99-22.174-27.112-46-2.143-23.829-7.087-1.655-7.087-1.655M3433.193 1820.772c.148 2.985-.021 5.372-.55 7.078-1.885 5.948-8.385 8.654-24.054 7.028-9.591-.987-13.847-17.04-15.753-30.746-5.738 19.6-13.805 30.6-24.222 32.905-15.203 3.375-91.85 12.694-96.869-23.733-5.505-40.08 11.01-111.04 11.92-149.294-2.265-13.572-3.027-25.345-2.773-35.453.635-27.267 8.639-42.533 14.78-48.693 1.757-1.333 3.493-2.16 10.48-3.36 3.578-.614 8.533-1.321 15.541-2.24l2.816-.214c-1.312 2.308-18.675 28.601-17.32 35.362 1.42 7.078 62.992.705 67.226-3.189 4.256-3.891 10.99-33.693 10.99-33.693s23.82.586 34.49 8.349c0 0 3.092 3.879 3.643 4.931 11.37 21.654 19.755 76.282 27.737 115.268-19.374 10.68-36.291 7.506-41.542 6.094 6.86 44.907 22.444 93.134 23.46 113.6" fill="#2b478b"/><path d="M3321.7 1574.263l-.101.161c-2.079 3.308-34.786 55.587-37.945 89.586-2.242-13.572-3.016-25.347-2.771-35.452 4.198-12.853 14.428-41.387 25.269-52.053 1.365-1.347 15.549-2.242 15.549-2.242" fill="#e58638"/><path d="M3430.498 2142.348c-5.03 53.694-27.192 88.427-27.192 88.427l-7.555 6.88s-6.903-39.32-11.87-84.321c5.24.374 28.349 1.214 46.617-10.986M3380.316 2149.879c-11.863 47.2-29.739 83.386-29.739 83.386l-15.533-1.079s7.611-36.281 7.176-85.306c5.288 2.665 16.155 5.359 38.096 2.999" fill="#ffb27d"/><path d="M3359.524 2246.308h-9.939c-3.306-.52-5.765-1.481-9.174-1.934-5.186-.68-7.583 1.453-8.038 1.934l-.103.106h-42.173c-1.075-1.52-.062-5.026.95-7.613a6.066 6.066 0 013.947-3.614c4.484-1.293 13.286-2.44 21.365-9.759 4.546-4.093 21.944-15.094 21.944-15.094l.083-.012c.393 0 2.211.56 10.104 7.24 4.092 3.453 11.076-4.868 11.076-4.868s1.301 1.08 2.273 3.108c.785 1.586 1.363 3.773.909 6.465-.62 3.8 1.405 10.867 3.037 15.642a98.854 98.854 0 001.798 4.944s.475 2.39-8.059 3.455" fill="#e58638"/><path d="M3361.842 2215.802c-2.35 1.667-7.363 4.959-10.683 5.386-4.476.587-12.87-10.853-12.87-10.853l.103-.015c.392 0 2.207.561 10.106 7.242 4.084 3.452 11.055-4.868 11.055-4.868s1.32 1.081 2.29 3.108M3359.524 2246.308h-9.939c-3.306-.52-5.765-1.481-9.174-1.934-5.186-.68-7.583 1.453-8.038 1.934l-.103.106h-42.173c-1.075-1.52-.062-5.026.95-7.613 1.281-1.134 1.633 4.947 2.335 5.92.723.96 34.425.347 36.367-1.066 1.942-1.413 7.79-3.895 15.931-1.946 7.067 1.692 17.502-2.641 20.105-3.8a98.854 98.854 0 001.798 4.944s.475 2.39-8.059 3.455" fill="#963333"/><path d="M3412.502 2246.309h-9.928c-3.337-.52-5.792-1.482-9.192-1.933-5.184-.683-7.556 1.452-8.039 1.933l-.084.107h-42.186c-1.049-1.522-.041-5.03.966-7.615.65-1.759 2.12-3.08 3.946-3.614 4.47-1.293 13.285-2.439 21.344-9.76 4.555-4.092 21.954-15.092 21.954-15.092l.084-.015c.378 0 2.204.56 10.116 7.241 4.093 3.453 11.06-4.867 11.06-4.867s1.323 1.081 2.288 3.106c.777 1.587 1.365 3.774.903 6.469-.63 3.799 1.406 10.865 3.022 15.638a97.89 97.89 0 001.826 4.947s.462 2.388-8.08 3.455" fill="#e58638"/><path d="M3414.85 2215.8c-2.367 1.665-7.374 4.959-10.685 5.386-4.483.587-12.863-10.854-12.863-10.854l.105-.013c.356 0 2.2.56 10.098 7.24 4.085 3.453 11.061-4.866 11.061-4.866s1.32 1.079 2.284 3.107M3412.502 2246.309h-9.928c-3.337-.52-5.792-1.482-9.192-1.933-5.184-.683-7.556 1.452-8.039 1.933l-.084.107h-42.186c-1.553-1.868-.041-5.03.966-7.615 1.28-1.133 1.637 4.947 2.33 5.92.713.96 34.42.347 36.372-1.067 1.952-1.413 7.765-3.894 15.909-1.946 7.094 1.694 17.525-2.64 20.106-3.8a97.89 97.89 0 001.826 4.946s.462 2.388-8.08 3.455" fill="#963333"/><path d="M3433.193 1820.772c-10.531-3.521-24.033-12.88-40.272-33.841-42.946-55.519-3.644-120.747 1.622-121.973 5.287-1.213 15.186 42.213 15.186 42.213 6.867 44.908 22.432 93.135 23.464 113.601" fill="#233862"/><path d="M3403.657 1571.199s-37.753 26.773-40.989 89.171c-3.235 62.4 52.943 75.094 52.943 75.094l-3.635-19.719s-45.526-16.481-33.635-66.173c11.87-49.707 46.093-75.308 46.093-75.308l-20.777-3.065" fill="#e58638"/><path d="M3420.807 1888.082l-39.667 6.759s-8.467 2.92-7.522 29.933c.504 14.774 0 36.08-.546 52.346-.4 12.121 10.42 21.546 22.376 19.506l25.065-4.265a4.907 4.907 0 004.055-5l-3.761-99.28" fill="#963333"/><path d="M3489.959 1864.589c13.466-3.147 28.313 2.106 38.262 6.947-21.346 4.08-44.317 8.013-63.637 10.853 5.275-7.053 13.6-15.067 25.375-17.8zm136.223 76.08c-1.136-5.12-3.183-11.772-6.589-20.413-.69-1.748-1.246-3.626-1.714-5.614-2.337-9.653-2.582-21.613-4.786-30.88 0 0-2.448-30.507-42.09-21.174-9.149 2.148-20.056 4.467-31.764 6.8-9.282-5.518-30.828-16.358-50.883-11.692-17.317 4.026-27.957 17.225-33.277 26.027-9.95 1.346-18.497 2.306-24.774 2.72-28.046 1.838-30.672 24.333-27.11 37.572.578 2.121 1.045 5.387 1.468 9.387 2.204 20.934-6.254 47.8 5.164 60.746 2.671 3 159.239-27.265 203.422-34.693 8.837-1.48 14.914-10.027 12.933-18.786" fill="#b64c41"/><path d="M3482.39 1831.026s4.299 10.146 8.79 12.974c4.47 2.826 11.799 14.493 9.907 19.707-.967 2.677-8.768 10.865-17.686 10.012-5.631-.533-9.435-25.707-11.09-30.426-1.654-4.72-3.073-5.667-3.073-5.667l13.153-6.6" fill="#ffb27d"/><path d="M3125.841 1802.412s37.861-17.239 66.514-2.16c28.634 15.082 11.126 139.507-29.838 151.56 0 0-87.935 106.88-36.676-149.4" fill="#233862"/><path d="M3043.019 1977.399l-.113-.173.263.16zm15.79-160.573c-1.858-14.56 1.766-40.946 1.766-40.946s-12.862-.667-20.072 16.292c-14.909 35.122-8.43 110.947-7.53 121.802 0 0-5.126 21.559 2.498 58.838-1.146 2.655-2.648 6.082-3.55 7.467-.15.147-.262.306-.375.481a4.358 4.358 0 00-.056 4.773l4.92 7.813a4.407 4.407 0 001.877 1.628c.225.118.488.199.751.266l6.103 1.454.6-20.814-.056-.013c2.103-20.467 14.834-145.682 13.125-159.041" fill="#a05f32"/><path d="M3167.829 2228.84l-4.859 17.572h-41.123s-12.225-22.452 45.982-17.572M3079.678 2228.84l-4.874 17.573h-41.094s-12.243-22.453 45.968-17.573" fill="#233862"/><path d="M3159.848 1699.266c2.678-11.655-.62-20.254-5.975-28.535-5.142-7.933-12.34-8.28-19.247-15-6.52-6.332-18.665-10.492-28.327-10.492-30.927 0-57.721 18.932-51.61 51.039 1.921 10.213.311 18.24 8.576 30.174 10.322 14.879 22.856 26.827 43.034 26.827 10.69 0 20.062-2.468 28.327-10.268 4.482-4.24 10.923-4.76 14.881-9.386 7.994-9.333 7.392-21.64 10.341-34.36" fill="#2b478b"/><path d="M3084.825 1737.291s6.799 26.227-6.932 37.388l38.569 19.706 5.075-25.505s-7.277-19.92-5.286-47.667l-31.426 16.078" fill="#a05f32"/><path d="M3083.85 1750.505s39.455 4.8 40.299-23c.843-27.8-15.606-45.8-26.591-45.6-21.894.414-25.499 9.254-28.03 18.466-2.55 9.214-3.834 48.175 14.322 50.134" fill="#af7041"/><path d="M3046.2 1960.612l77.969 6.44s9.17 136.773-42.08 263.56l-43.693-.827 7.805-269.173" fill="#963333"/><path d="M3167.19 1968.47s24.002 93.211 4.542 263.317l-52.92.014-25.392-220.854c-.979-6.531-13.273-15.639-13.273-15.639l-.47-25.24 87.513-1.599" fill="#b64c41"/><path d="M3168.986 1830.238l5.102-41.894c-.779-1.079-1.402-2-2.18-2.933-8.958-10.973-43.426-15.76-50.358-16.532-.058.08-.311.598-1.305 1.64-6.328 5.719-14.935 11.798-26.366 10.252-9.756-1.227-11.333-6.333-11.022-11.892-20.407 3.398-32.013 9.812-32.013 9.812-20.778 7.8-24.964 76.84-24.964 76.84 2.765-.814 16.571 1.601 22.958 2.787l-2.57 102.36c49.597 21.64 121.024 7.72 121.024 7.72l-.156-.613-4.79-81.907 4.479-37.413 2.161-18.227" fill="#f1a34f"/><path d="M3094.392 1734.478s-.854 3.467-9.492 2.827c0 0-7.252-.533-6.986-4.36 0 0 7.062-2.626 16.478 1.533" fill="#fff"/><path d="M3167.116 1967.747l-1.01-17.293s0-.013.02-.013l1.03 17.293c-.02 0-.02.013-.04.013" fill="#d6b49c"/><path d="M3166.103 1950.454l-1.497-25.492 1.517 25.48s0 .012-.02.012m1.458-108.385l1.4-11.774h.02l-1.42 11.774" fill="#6b4b42"/><path d="M3154.633 1969.359c-7.777 0-15.3-1.587-17.459-4.281-4.335-5.426 3.597-78.694.272-96.853-3.324-18.16 25.08-40.934 25.08-40.934l6.455 3-1.4 11.774-5.288 43.866 2.333 39.027 1.497 25.494 1.01 17.293c-3.615 1.106-8.106 1.614-12.5 1.614" fill="#e78b37"/><path d="M3198.19 1834.413s-21.955 8.186-31.373 14.053c-1.845 1.093-3.1 2.013-3.866 2.947l-29.98-59.667-5.73-11.28-5.258-10.654-.451-.932s.412.025 1.236.159c2.923.306 10.203 1.226 18.542 3.08 5.258 1.24 10.968 2.627 16.089 4.64h.137c6.18 2.32 11.439 5.253 14.382 8.653.765.934 1.393 1.854 2.158 2.934 10.046 14.374 24.114 46.067 24.114 46.067" fill="#f1a34f"/><path d="M3166.916 1946.838s-107.811-115.827-39.674-166.373c4.041-3.082 8.665-5.868 14.067-8.347 5.265 1.24 10.977 2.627 16.087 4.64-5.576 1.546-16.087 5.56-24.422 14.987-16.534 18.4-23.16 58.493 33.087 139.947l.855 15.146" fill="#233862"/><path d="M3087.776 1682.163s33.732-.013 25.967 23.132c-4.863 14.6 11.379 16.868 11.379 16.868l7.803-23.388-4.901-18.226-40.248 1.614" fill="#2b478b"/><path d="M3197.207 1834.624c-10.412 3.215-26.158 10.227-30.94 14.933 5.294 12.188 8.266 20.242 8.266 20.242-3.976-1.762-24.583-3.44-35.25-4.2-1.221-.095-11.003-3.295-11.003-3.295s-.079-16.68-19.131-18c0 0-7.952.053-6.318 5.48 1.613 5.414 1.79 3.066 3.916 10.774 2.126 7.705 7.676 13.559 13.561 13.907 28.323 23.812 67.333 24.013 79.084 23.466 2.106-.093 3.897-1.56 4.37-3.6 4.447-19.36 1.397-39.426-6.555-59.707" fill="#a05f32"/><path d="M3687.515 2253.906H312.477c-1.8 0-3.272-1.96-3.272-4.358 0-2.387 1.472-4.348 3.272-4.348h3375.038c1.811 0 3.283 1.961 3.283 4.348 0 2.398-1.472 4.358-3.283 4.358" fill="#2e3552"/></svg>