<svg xmlns="http://www.w3.org/2000/svg" height="666.667" width="1000"><defs><clipPath id="a" clipPathUnits="userSpaceOnUse"><path d="M0 3332h6275V0H0z"/></clipPath><clipPath id="e" clipPathUnits="userSpaceOnUse"><path d="M6001.12 653.75s1031.83 458.88 1007.82 1384.68c-23.99 925.8-1001.89 1356.31-1665.78 784.72-663.88-571.58-1093.53-92.27-1437.48 390.76-343.94 483.02-1111.21 1092.61-2117.88 810.93C733.258 3729.77 408.754 2661.82 513.207 1949.16c75.031-511.89 349.434-945.9 723.363-1279.379a1368.294 1368.294 0 0137.35-32.121z"/></clipPath><clipPath id="b" clipPathUnits="userSpaceOnUse"><path d="M0 3332h6275V0H0z"/></clipPath><clipPath id="g" clipPathUnits="userSpaceOnUse"><path d="M6000.75 2466.34H4680.88v988.49h1319.87z"/></clipPath><clipPath id="c" clipPathUnits="userSpaceOnUse"><path d="M0 3332h6275V0H0z"/></clipPath><clipPath id="i" clipPathUnits="userSpaceOnUse"><path d="M4772.91 1058.94c0-113.768-68.01-205.999-151.89-205.999-83.89 0-151.89 92.231-151.89 205.999 0 113.77 68 205.98 151.89 205.98 83.88 0 151.89-92.21 151.89-205.98z"/></clipPath><clipPath id="j" clipPathUnits="userSpaceOnUse"><path d="M2513.19 1058.94c0-113.768-68-205.999-151.89-205.999-83.89 0-151.89 92.231-151.89 205.999 0 113.77 68 205.98 151.89 205.98 83.89 0 151.89-92.21 151.89-205.98z"/></clipPath><clipPath id="k" clipPathUnits="userSpaceOnUse"><path d="M1617.61 979.371v707.369c0 100.89 74 186.86 173.92 200.74 87.71 12.18 200 22.8 316.22 20.66 0 0 671.57 412.79 917.83 412.79l1542.79 7.94a1297.093 1297.093 0 00595.62-135.73l687.09-341.9 913.52-200.01s189.23-51.34 229.77-174.34c40.55-123.01 27.04-258.17 27.04-258.17H5015s-90.42 284.31-379.75 284.31-367.69-348.86-349.61-523.659H2769.73s6.03 518.379-385.78 500.299c-391.81-18.09-361.67-500.299-361.67-500.299h-404.67"/></clipPath><clipPath id="l" clipPathUnits="userSpaceOnUse"><path d="M4279.71 1879.64l-609.67 342.95a346.01 346.01 0 01-169.61 44.42h-363.04c-93.94 0-185.97-26.54-265.49-76.58l-579.22-328.68c-16.55-9.39-9.89-34.63 9.13-34.63h1964.14c28.87 0 38.92 38.36 13.76 52.52z"/></clipPath><pattern id="d" height="333.117" width="627.461" y="0" x="0" patternUnits="userSpaceOnUse" patternTransform="translate(-936 2033) scale(10.3827)"><g clip-path="url(#a)" transform="scale(.1)"><path d="M5303.53 15.504s993.79 441.965 970.68 1333.646c-23.11 891.67-964.97 1306.32-1604.39 755.8-639.41-550.51-1053.23-88.87-1384.5 376.35-331.27 465.23-1070.26 1052.34-2039.83 781.05C229.816 2978.15-82.723 1949.56 17.883 1263.17 90.144 770.145 354.438 352.141 714.578 30.941A1307.806 1307.806 0 01750.559 0L5303.53 15.504" fill="#d8dffd"/></g></pattern><pattern id="f" height="333.117" width="627.461" y="0" x="0" patternUnits="userSpaceOnUse" patternTransform="translate(-995 1874) scale(9.60864)"><g clip-path="url(#b)" transform="scale(.1)"><path d="M5303.53 15.504s993.79 441.965 970.68 1333.646c-23.11 891.67-964.97 1306.32-1604.39 755.8-639.41-550.51-1053.23-88.87-1384.5 376.35-331.27 465.23-1070.26 1052.34-2039.83 781.05C229.816 2978.15-82.723 1949.56 17.883 1263.17 90.144 770.145 354.438 352.141 714.578 30.941A1307.806 1307.806 0 01750.559 0L5303.53 15.504" fill="#d8dffd"/></g></pattern><pattern id="h" height="333.117" width="627.461" y="0" x="0" patternUnits="userSpaceOnUse" patternTransform="translate(-1140 2124) scale(10.6377)"><g clip-path="url(#c)" transform="scale(.1)"><path d="M5303.53 15.504s993.79 441.965 970.68 1333.646c-23.11 891.67-964.97 1306.32-1604.39 755.8-639.41-550.51-1053.23-88.87-1384.5 376.35-331.27 465.23-1070.26 1052.34-2039.83 781.05C229.816 2978.15-82.723 1949.56 17.883 1263.17 90.144 770.145 354.438 352.141 714.578 30.941A1307.806 1307.806 0 01750.559 0L5303.53 15.504" fill="#d8dffd"/></g></pattern></defs><path d="M1000 666.667H0V0h1000v666.667" fill="#f7f7f7"/><path d="M800.15 579.5s137.577-61.184 134.375-184.624c-3.198-123.44-133.585-180.841-222.104-104.63-88.517 76.211-145.804 12.303-191.664-52.1C474.9 173.742 372.596 92.463 238.373 130.02 97.768 169.364 54.501 311.757 68.428 406.78c10.004 68.252 46.59 126.12 96.448 170.584a182.44 182.44 0 004.98 4.282l630.293-2.145" fill="#d8dffd"/><path d="M6001.12 653.75s1031.83 458.88 1007.82 1384.68c-23.99 925.8-1001.89 1356.31-1665.78 784.72-663.88-571.58-1093.53-92.27-1437.48 390.76-343.94 483.02-1111.21 1092.61-2117.88 810.93C733.258 3729.77 408.754 2661.82 513.207 1949.16c75.031-511.89 349.434-945.9 723.363-1279.379a1368.294 1368.294 0 0137.35-32.121z" fill="none" stroke="url(#d)" stroke-width="10.383" stroke-miterlimit="10" transform="matrix(.13333 0 0 -.13333 0 666.667)"/><g clip-path="url(#e)" transform="matrix(.13333 0 0 -.13333 0 666.667)"><path d="M1307.48 1875.96H795.383v-658.97h512.097v658.97M4836.12 2217.27h-892.67v-892.69h892.67v892.69M2467.08 2104.81h-512.09v-658.96h512.09v658.96M3435.98 1748.16h-512.09v-658.95h512.09v658.95" fill="#a9b7f2"/><path d="M6982.3 622.262H283.285v864.648H6982.3V622.262M795.383 2145.88H283.285v-658.97h512.098v658.97" fill="#a9b7f2"/><path d="M2996.72 2747.92c0-184.33-149.43-333.75-333.75-333.75-184.33 0-333.76 149.42-333.76 333.75s149.43 333.75 333.76 333.75c184.32 0 333.75-149.42 333.75-333.75" fill="#e9edfd"/><path d="M2740.22 2900.89c0-42.66-34.59-77.25-77.25-77.25s-77.25 34.59-77.25 77.25 34.59 77.25 77.25 77.25 77.25-34.59 77.25-77.25" fill="#d8dffd"/><path d="M2740.22 2900.89c0-42.66-34.59-77.25-77.25-77.25s-77.25 34.59-77.25 77.25 34.59 77.25 77.25 77.25 77.25-34.59 77.25-77.25z" fill="none" stroke="url(#f)" stroke-width="9.609" stroke-miterlimit="10"/><path d="M3052.97 622.262h-780.01V2775.21h780.01V622.262" fill="#c9d2fc"/><path d="M2533.69 2315.85H2378.6v305.16h155.09v-305.16M2923.89 2315.85h-155.08v305.16h155.08v-305.16M2533.69 1850.62H2378.6v305.15h155.09v-305.15M2923.89 1850.62h-155.08v305.15h155.08v-305.15M2533.69 1385.37H2378.6v305.16h155.09v-305.16M2923.89 1385.37h-155.08v305.16h155.08v-305.16M2533.69 920.129H2378.6v305.151h155.09V920.129M2923.89 920.129h-155.08v305.151h155.08V920.129" fill="#a9b7f2"/><path d="M4084.94 622.262h-848.32V3272.82h848.32V622.262" fill="#c9d2fc"/><path d="M3435.95 2968.63h-115.67v115.67h115.67v-115.67M3718.62 2968.63h-115.68v115.67h115.68v-115.67M4001.28 2968.63h-115.67v115.67h115.67v-115.67M3435.95 2764.31h-115.67v115.67h115.67v-115.67M3718.62 2764.31h-115.68v115.67h115.68v-115.67M4001.28 2764.31h-115.67v115.67h115.67v-115.67M3435.95 2559.99h-115.67v115.67h115.67v-115.67M3718.62 2559.99h-115.68v115.67h115.68v-115.67M4001.28 2559.99h-115.67v115.67h115.67v-115.67M3435.95 2355.66h-115.67v115.68h115.67v-115.68M3718.62 2355.66h-115.68v115.68h115.68v-115.68M4001.28 2355.66h-115.67v115.68h115.67v-115.68M3435.95 2151.35h-115.67v115.67h115.67v-115.67M3718.62 2151.35h-115.68v115.67h115.68v-115.67M4001.28 2151.35h-115.67v115.67h115.67v-115.67M3435.95 1947.03h-115.67v115.68h115.67v-115.68M3718.62 1947.03h-115.68v115.68h115.68v-115.68M4001.28 1947.03h-115.67v115.68h115.67v-115.68M3435.95 1742.71h-115.67v115.67h115.67v-115.67M3718.62 1742.71h-115.68v115.67h115.68v-115.67M4001.28 1742.71h-115.67v115.67h115.67v-115.67M3435.95 1538.39h-115.67v115.67h115.67v-115.67M3718.62 1538.39h-115.68v115.67h115.68v-115.67M4001.28 1538.39h-115.67v115.67h115.67v-115.67M3435.95 1334.07h-115.67v115.68h115.67v-115.68M3718.62 1334.07h-115.68v115.68h115.68v-115.68M4001.28 1334.07h-115.67v115.68h115.67v-115.68M3435.95 1129.75h-115.67v115.67h115.67v-115.67M3718.62 1129.75h-115.68v115.67h115.68v-115.67M4001.28 1129.75h-115.67v115.67h115.67v-115.67M3435.95 925.43h-115.67v115.67h115.67V925.43M3718.62 925.43h-115.68v115.67h115.68V925.43M4001.28 925.43h-115.67v115.67h115.67V925.43" fill="#a9b7f2"/><path d="M6789.47-109.961h-848.32V2540.6h848.32V-109.961" fill="#c9d2fc"/><path d="M6140.49 2236.41h-115.68v115.67h115.68v-115.67M6423.15 2236.41h-115.67v115.67h115.67v-115.67M6705.81 2236.41h-115.67v115.67h115.67v-115.67M6140.49 2032.08h-115.68v115.67h115.68v-115.67M6423.15 2032.08h-115.67v115.67h115.67v-115.67M6705.81 2032.08h-115.67v115.67h115.67v-115.67M6140.49 1827.76h-115.68v115.68h115.68v-115.68M6423.15 1827.76h-115.67v115.68h115.67v-115.68M6705.81 1827.76h-115.67v115.68h115.67v-115.68M6140.49 1623.45h-115.68v115.67h115.68v-115.67M6423.15 1623.45h-115.67v115.67h115.67v-115.67M6705.81 1623.45h-115.67v115.67h115.67v-115.67M6140.49 1419.12h-115.68v115.68h115.68v-115.68M6423.15 1419.12h-115.67v115.68h115.67v-115.68M6705.81 1419.12h-115.67v115.68h115.67v-115.68M6140.49 1214.8h-115.68v115.68h115.68V1214.8M6423.15 1214.8h-115.67v115.68h115.67V1214.8M6705.81 1214.8h-115.67v115.68h115.67V1214.8M6140.49 1010.49h-115.68v115.67h115.68v-115.67M6423.15 1010.49h-115.67v115.67h115.67v-115.67M6705.81 1010.49h-115.67v115.67h115.67v-115.67M6140.49 806.16h-115.68v115.68h115.68V806.16M6423.15 806.16h-115.67v115.68h115.67V806.16M6705.81 806.16h-115.67v115.68h115.67V806.16M6140.49 601.852h-115.68V717.52h115.68V601.852M6423.15 601.852h-115.67V717.52h115.67V601.852M6705.81 601.852h-115.67V717.52h115.67V601.852" fill="#a9b7f2"/><path d="M2087.37 622.262H1038.14V3272.82h1049.23V622.262" fill="#c9d2fc"/><path d="M1219.07 1475.72h-70.81v1370.99h70.81V1475.72M1408.61 1475.72h-70.8v1370.99h70.8V1475.72M1598.16 1475.72h-70.81v1370.99h70.81V1475.72M1787.71 1475.72h-70.81v1370.99h70.81V1475.72M1977.26 1475.72h-70.81v1370.99h70.81V1475.72" fill="#a9b7f2"/><path d="M2087.37 2979.52H1038.14v146.65h1049.23v-146.65" fill="#e9edfd"/></g><path d="M44.279 280.837c0 4.016-3.211 7.272-7.172 7.272-3.96 0-7.172-3.256-7.172-7.272s3.211-7.272 7.172-7.272c3.96 0 7.172 3.256 7.172 7.272zM895.964 124.685c0 4.016-3.212 7.272-7.172 7.272-3.961 0-7.17-3.256-7.17-7.272s3.209-7.272 7.17-7.272c3.96 0 7.172 3.256 7.172 7.272zM558.725 200.615c0 4.164-3.328 7.54-7.434 7.54s-7.434-3.376-7.434-7.54 3.328-7.539 7.434-7.539 7.434 3.375 7.434 7.539z" fill="none" stroke="#a9b7f2" stroke-width="1.7027574300000001" stroke-miterlimit="10"/><path d="M132.11 101.043h52.194M903.74 261.784h45.285M523.755 67.267h78.877" fill="none" stroke="#a9b7f2" stroke-width="1.33130005" stroke-miterlimit="10"/><path d="M659.972 580.908H809.44c19.079 0 34.544-15.467 34.544-34.545V148.565c0-19.078-15.465-34.545-34.544-34.545H659.972c-19.079 0-34.545 15.467-34.545 34.545v397.798c0 19.078 15.466 34.545 34.545 34.545" fill="#1f275f"/><path d="M637.299 580.908h149.466c19.079 0 34.544-15.467 34.544-34.545V148.565c0-19.078-15.465-34.545-34.544-34.545H637.3c-19.08 0-34.547 15.467-34.547 34.545v397.798c0 19.078 15.467 34.545 34.547 34.545" fill="#537eef"/><path d="M637.092 570.443h149.879c13.134 0 23.781-10.648 23.781-23.783V150.456c0-13.135-10.647-23.783-23.781-23.783H637.092c-13.133 0-23.783 10.648-23.783 23.783V546.66c0 13.135 10.65 23.783 23.783 23.783" fill="#fff"/><path d="M675.392 138.353h71.657a6.423 6.423 0 006.423-6.424v-10.477h-84.503v10.477a6.423 6.423 0 006.423 6.424" fill="#537eef"/><path d="M691.797 127.587h33.127" fill="none" stroke="#312220" stroke-width="1.1578377199999998" stroke-linecap="round" stroke-linejoin="round" stroke-miterlimit="10"/><path d="M800.1 337.821H624.117V206.023H800.1V337.82" fill="#d8dffd"/><g clip-path="url(#g)" fill="none" stroke="#fff" stroke-width="51.26" stroke-miterlimit="10" transform="matrix(.13333 0 0 -.13333 0 666.667)"><path d="M6083.8 3378.78L4443.82 2140.6M6474.06 3174.34L4834.08 1936.15M5685.95 3577.06L4236.26 2482.55M4774.37 3549.71l607.59-893.33c20.6-30.28 15.23-71.18-12.5-95.12l-195.02-168.34c-88.92-76.77-101.21-160.38-27.81-252.1l314.77-443.08"/></g><path d="M6000.75 2466.34H4680.88v988.49h1319.87z" fill="none" stroke="url(#h)" stroke-width="10.638" stroke-miterlimit="10" transform="matrix(.13333 0 0 -.13333 0 666.667)"/><path d="M771.557 193.003c0-16.778-17.709-29.418-35.456-20.247-2.757 1.425-6.26 4.868-7.762 7.585-4.644 8.402-4.226 16.687-.888 23.234h-.026l.19.341c.085.161.176.319.264.477l20.349 36.799 20.385-36.859c.07-.122.139-.246.206-.372l.094-.169h-.012a23.21 23.21 0 002.656-10.79" fill="#eaa947"/><path d="M758.563 192.756c0 5.708-4.627 10.335-10.335 10.335-5.707 0-10.335-4.627-10.335-10.335 0-5.708 4.628-10.335 10.335-10.335 5.708 0 10.335 4.627 10.335 10.335" fill="#fff"/><path d="M536.827 469.896h-24.16c-23.719 0-42.947 24.884-42.947 55.579 0 30.696 19.228 55.58 42.947 55.58h24.16c23.718 0 42.948-24.884 42.948-55.58 0-30.695-19.23-55.579-42.948-55.579M838.123 469.896h-24.16c-23.719 0-42.947 24.884-42.947 55.579 0 30.696 19.228 55.58 42.947 55.58h24.16c23.72 0 42.948-24.884 42.948-55.58 0-30.695-19.228-55.579-42.948-55.579"/><path d="M723.368 456.43h-178.1v79.656h178.1v-79.655"/><path d="M684.584 526.619c0 29.982-18.781 54.289-41.95 54.289-23.167 0-41.95-24.307-41.95-54.29 0-29.982 18.783-54.289 41.95-54.289 23.169 0 41.95 24.307 41.95 54.29"/><path d="M619.035 580.908h23.6l24.124-24.125-24.124-84.454h-23.6v108.579"/><path d="M660.985 526.619c0 29.982-18.782 54.289-41.95 54.289-23.168 0-41.951-24.307-41.951-54.29 0-29.982 18.783-54.289 41.95-54.289 23.169 0 41.951 24.307 41.951 54.29" fill="#253a6a"/><path d="M636.388 525.475c0 15.169-9.068 27.466-20.252 27.466-11.185 0-20.252-12.297-20.252-27.466 0-15.17 9.067-27.464 20.252-27.464 11.184 0 20.252 12.294 20.252 27.464" fill="#b8b8c2"/><g clip-path="url(#i)" transform="matrix(.13333 0 0 -.13333 0 666.667)"><path d="M4843.62 1058.94c0-113.768-68-205.999-151.89-205.999-83.89 0-151.89 92.231-151.89 205.999 0 113.77 68 205.98 151.89 205.98 83.89 0 151.89-92.21 151.89-205.98" fill="#fff"/></g><path d="M422.073 456.43h-178.1v79.656h178.1v-79.655"/><path d="M383.288 526.619c0 29.982-18.781 54.289-41.95 54.289-23.169 0-41.95-24.307-41.95-54.29 0-29.982 18.781-54.289 41.95-54.289 23.169 0 41.95 24.307 41.95 54.29"/><path d="M317.739 580.908h23.598l24.126-24.125-24.126-84.454H317.74v108.579"/><path d="M359.69 526.619c0 29.982-18.782 54.289-41.951 54.289-23.168 0-41.95-24.307-41.95-54.29 0-29.982 18.782-54.289 41.95-54.289 23.169 0 41.95 24.307 41.95 54.29" fill="#253a6a"/><path d="M335.092 525.475c0 15.169-9.067 27.466-20.252 27.466-11.185 0-20.252-12.297-20.252-27.466 0-15.17 9.067-27.464 20.252-27.464 11.185 0 20.252 12.294 20.252 27.464" fill="#b8b8c2"/><g clip-path="url(#j)" transform="matrix(.13333 0 0 -.13333 0 666.667)"><path d="M2583.91 1058.94c0-113.768-68.01-205.999-151.9-205.999-83.88 0-151.89 92.231-151.89 205.999 0 113.77 68.01 205.98 151.89 205.98 83.89 0 151.9-92.21 151.9-205.98" fill="#fff"/></g><path d="M215.681 536.084v-94.316c0-13.452 9.867-24.915 23.19-26.765 11.694-1.624 26.666-3.04 42.162-2.755 0 0 89.543-55.039 122.378-55.039l205.705-1.058a172.946 172.946 0 0179.416 18.097l91.612 45.587 121.803 26.668s25.23 6.845 30.636 23.245c5.406 16.401 3.605 34.423 3.605 34.423H668.667s-12.056-37.908-50.634-37.908c-38.577 0-49.025 46.514-46.614 69.82H369.297s.804-69.116-51.437-66.706c-52.241 2.412-48.223 66.707-48.223 66.707h-53.956" fill="#eaa947"/><g clip-path="url(#k)" transform="matrix(.13333 0 0 -.13333 0 666.667)"><path d="M4252.68 2011.33l1069.3-566.43 2071.91 2.4-1819.78 881.69-328.4-404.78-993.03 87.12" fill="#f0c98c"/></g><path d="M217.667 504.17c-7.048 0-12.764 5.709-12.774 12.755l-.008 6.395c0 7.05 5.715 12.764 12.766 12.764h51.986s-.265-17.396 4.344-31.913h-56.314" fill="#cf8127"/><path d="M530.404 330.156h-79.83c-6.651 0-12.042 5.39-12.042 12.04v15.013h103.912v-15.013c0-6.65-5.39-12.04-12.04-12.04"/><path d="M545.935 330.156h-79.831c-6.65 0-12.04 5.39-12.04 12.04v15.013h103.91v-15.013c0-6.65-5.39-12.04-12.04-12.04" fill="#cf8127"/><path d="M482.645 338.564h-4.949v-2.347h12.67v2.347h-4.947v12.584h-2.774v-12.584M502.084 345.519l-2.815-6.528-2.794 6.528zm.917 2.174h-7.464l-1.473 3.455h-2.857l6.718-14.93h2.73l6.741 14.93h-2.901L503 347.693M519.561 351.148l-4.052-5.675-4.009 5.675h-3.156l5.545-7.615-5.249-7.316h3.137l3.818 5.311 3.774-5.31h3.01l-5.227 7.209 5.61 7.721h-3.2M526.055 336.217h2.773v14.931h-2.773v-14.93M570.628 416.048l-81.29-45.727a46.135 46.135 0 00-22.614-5.922h-48.405a66.462 66.462 0 00-35.399 10.21l-77.23 43.824c-2.206 1.252-1.318 4.618 1.218 4.618h261.885c3.85 0 5.19-5.115 1.835-7.003"/><g clip-path="url(#l)" transform="matrix(.13333 0 0 -.13333 0 666.667)"><path d="M2302.9 2287.38l1251.32-710.61h503.61l-1250.92 710.61H2302.9" fill="#5e5e5e"/></g><path d="M305.18 420.335v32.8s70.921-14.284 78.108 66.993h161.98s-4.33-79.45 25.579-98.83M437.37 423.05s-16.9 7.497-8.705 97.078" fill="none" stroke="#000" stroke-width="1.0479738" stroke-linecap="round" stroke-linejoin="round" stroke-miterlimit="10"/><path d="M463.424 438.928h-16.277a3.225 3.225 0 01-3.224-3.224v-1.496a3.225 3.225 0 013.224-3.224h16.277a3.224 3.224 0 013.224 3.224v1.496a3.224 3.224 0 01-3.224 3.224M341.161 438.928h-16.277a3.225 3.225 0 01-3.224-3.224v-1.496a3.225 3.225 0 013.224-3.224h16.277a3.224 3.224 0 013.224 3.224v1.496a3.224 3.224 0 01-3.224 3.224M520.243 373.653l93.042 49.398h158.18l-106.412-52.035a65.107 65.107 0 00-28.6-6.617H522.547c-5.122 0-6.827 6.852-2.304 9.254"/><path d="M636.388 430.984h146.419" fill="none" stroke="#000" stroke-width="1.0479738" stroke-linecap="round" stroke-linejoin="round" stroke-miterlimit="10"/><path d="M550.367 364.399l103.281 58.652h34.465l-103.248-58.652h-34.498M614.703 364.399l103.281 58.652h11.203l-103.248-58.652h-11.236" fill="#5e5e5e"/><path d="M920.496 536.084h-239.09c-7.05 0-12.766-5.715-12.766-12.764l.027-19.15h267.521l-.213 16.437c0 8.548-6.93 15.477-15.479 15.477" fill="#cf8127"/><path d="M858.432 513.339h-43.403v-13.131h43.403v13.13" fill="#fff"/><path d="M763.555 474.027h127.928M786.903 483.795h84.078M786.903 493.524h84.078" fill="none" stroke="#000" stroke-width="1.0479738" stroke-linecap="round" stroke-linejoin="round" stroke-miterlimit="10"/><path d="M768.893 494.996h-55.838a8.543 8.543 0 01-8.543-8.543v-8.014a8.542 8.542 0 018.543-8.543h55.838a8.542 8.542 0 018.542 8.543v8.014a8.542 8.542 0 01-8.542 8.543M932.667 469.896h-42.352a8.543 8.543 0 00-8.543 8.543v8.014a8.544 8.544 0 008.543 8.543h46.16c.376-16.855-3.238-24.07-3.808-25.1" fill="#fff"/><path d="M704.512 486.453h72.923M881.772 486.453h54.416" fill="none" stroke="#000" stroke-width="1.0479738" stroke-linecap="round" stroke-linejoin="round" stroke-miterlimit="10"/><path d="M430.887 124.937c0-24.858-26.242-43.589-52.535-30.001-4.087 2.112-9.277 7.215-11.501 11.24-6.882 12.448-6.263 24.724-1.318 34.424h-.036l.28.507c.127.238.259.473.391.708l30.152 54.524 30.204-54.612c.103-.184.205-.366.305-.552l.139-.251h-.017a34.395 34.395 0 003.936-15.987" fill="#eaa947"/><path d="M411.633 124.57c0 8.458-6.856 15.315-15.313 15.315s-15.313-6.857-15.313-15.314c0-8.456 6.856-15.314 15.313-15.314s15.313 6.858 15.313 15.314" fill="#fff"/><path d="M269.93 553.97h21.563l35.662 19.077-61.319-.73 4.093-18.346" fill="#101010"/><path d="M265.623 580.385l.213-8.069 61.317.73-.212 8.071-61.318-.732" fill="#fff"/><path d="M306.396 560.996l-7.064 1.93M299.49 557.452l-7.065 1.93" fill="none" stroke="#fff" stroke-width="1.94208478" stroke-linecap="round" stroke-linejoin="round" stroke-miterlimit="10"/><path d="M293.775 523.57h-21.979l-1.867 30.4h21.979l1.867-30.4" fill="#ebb28b"/><path d="M308.156 323.816l-13.552 220.38H264l5.288-220.38h38.868" fill="#98bdfc"/><path d="M220.37 553.97h21.565l35.661 19.077-61.319-.73 4.094-18.346" fill="#101010"/><path d="M216.065 580.385l.212-8.069 61.319.73-.213 8.071-61.318-.732" fill="#fff"/><path d="M256.839 560.996l-7.064 1.93M249.933 557.452l-7.065 1.93" fill="none" stroke="#fff" stroke-width="1.94208478" stroke-linecap="round" stroke-linejoin="round" stroke-miterlimit="10"/><path d="M246.4 523.57h-21.979l-4.05 30.4h21.98l4.049-30.4" fill="#ebb28b"/><path d="M243.352 323.816l-29.965 220.38h33.454l43.555-220.38h-47.044" fill="#98bdfc"/><path d="M266.372 445.377l17.101-86.536 12.486-8.136M238.96 356.12l18.688-14.712" fill="none" stroke="#171717" stroke-width=".85011208" stroke-linecap="round" stroke-linejoin="round" stroke-miterlimit="10"/><path d="M313.916 240.056l34.047 44.705c3.765 4.208 4 10.502.557 14.978-4.341 5.642-12.665 6.15-17.66 1.077l-36.59-42.317c-5.018-5.096-5.18-13.223-.373-18.518h.002c5.374-5.916 14.686-5.88 20.017.075" fill="#ebb28b"/><path d="M297.239 223.097s16.645 2.078 29.388 26.779l-19.575 23.467-9.813-50.246" fill="#537eef"/><path d="M324.619 286.596l46.673-29.272 9.292 9.593-33.837 34.672-22.128-14.993" fill="#ebb28b"/><path d="M378.77 239.033l23.143 6.752s0 17.936-21.348 21.179c-1.168.177-6.42-1.833-7.325-2.639l-3.552-10.126a4.315 4.315 0 01.255-5.522l8.828-9.644" fill="#ebb28b"/><path d="M376.856 242.017l8.187-10.748c1.216-1.5 3.296-1.814 4.673-.709 1.32 1.061 1.536 3.067.493 4.599l-7.561 11.789-5.792-4.93M386.752 250.592l9.835-9.707c1.36-1.364 3.38-1.504 4.537-.313 1.11 1.143 1.043 3.116-.156 4.525l-9.384 10.775-4.832-5.28" fill="#e9b0a0"/><path d="M382.964 243.961l9.293-9.18c1.371-1.353 3.451-1.412 4.676-.132 1.175 1.227 1.152 3.264-.049 4.672l-8.801 10.303-5.119-5.663" fill="#e9b0a0"/><path d="M398.605 215.77l3.684.238v24.188l-12.93 20.248-3.932-.321 6.937-25.435 6.241-18.917" fill="#36438d"/><path d="M376.93 249.344l10.809 10.188a2.441 2.441 0 003.832-.033l23.532-29.371a2.031 2.031 0 00-.023-2.515l-11.337-10.846a2.03 2.03 0 00-3.187.028l-23.652 29.526a2.438 2.438 0 00.027 3.023" fill="#050907"/><path d="M373.335 249.105l10.808 10.188a2.44 2.44 0 003.83-.034l23.532-29.37a2.03 2.03 0 00-.021-2.514l-11.339-10.847a2.029 2.029 0 00-3.185.028l-23.652 29.527a2.438 2.438 0 00.027 3.022" fill="#fff"/><path d="M372.184 257.49c-1.267-.622-4.43-3.92-3.87-8.92.734-6.58 4.133-11.565 4.133-11.565 1.129-2.118 2.438-3.144 4.274-2.888 1.99.279 3.264 2.396 2.91 3.867l-2.074 4.595s2.282 5.825-2.493 14.654l-2.88.258" fill="#ebb28b"/><path d="M265.923 218.359s-12.59 2.941-21.566 7.468c-5.65 2.85-6.277 9.009-5.566 15.297l4.561 82.692h64.804l4.535-79.89c.624-8.763-4.524-17.353-12.843-20.18-9.32-3.167-15.207-6.183-20.165-6.471l-13.76 1.084" fill="#537eef"/><path d="M311.316 268.23l1.375-24.303" fill="none" stroke="#171717" stroke-width=".85011208" stroke-linecap="round" stroke-linejoin="round" stroke-miterlimit="10"/><path d="M265.923 218.359l-7.472 2.053s5.549 10.693 25.708 8.884c14.137-1.268 8.441-8.184 8.441-8.184l-7.033-2.545-19.644-.208M204.683 265.832l33.462 49.265-9.012 9.858-36.938-36.192 12.488-22.931" fill="#ebb28b"/><path d="M268.892 317.34l-14.313-7.279 1.405-3.141a2.779 2.779 0 00-4.232-3.337l-14.097 11.069-8.522 10.303c7.732 6.621 12.786 6.54 15.698 5.257.34.113.676.237 1.021.336l11.896 3.412c1.1.475 2.38.01 2.919-1.059.392-.776.53-2.02-1.759-3.182l2.29 1.162a2.352 2.352 0 003.058-1.152c.512-1.012-.116-2.349-1.46-3.224l1.752.688a2.417 2.417 0 003.24-1.422c.41-1.164-.205-2.451-1.308-3.008l-2.53-1.28 3.005.726a2.62 2.62 0 003.378-1.698c.39-1.244-.28-2.58-1.441-3.171" fill="#ebb28b"/><path d="M264.712 321.841l-8.463-3.993M262.436 326.356l-8.159-3.399M259.665 330.017l-6.913-2.726" fill="none" stroke="#171717" stroke-width=".55211953" stroke-linecap="round" stroke-linejoin="round" stroke-miterlimit="10"/><path d="M251.617 252.252l-42.553 36.701a11.731 11.731 0 01-14.916 1.466c-5.896-3.99-6.908-12.268-2.148-17.562l40.015-39.094c4.781-5.319 12.884-5.975 18.46-1.496 6.232 5.005 6.764 14.302 1.142 19.985" fill="#ebb28b"/><path d="M253.536 222.019s-22.208 4.34-40.427 27.437l19.308 25.17L260.1 254.8l-6.564-32.782" fill="#537eef"/><path d="M241.815 267.895l16.058-11.5" fill="none" stroke="#171717" stroke-width=".85011208" stroke-linecap="round" stroke-linejoin="round" stroke-miterlimit="10"/><path d="M300.345 148.939s7.499 6.7 1.278 21.742l-10.294-20.309 9.016-1.433M258.344 150.753s-8.756-.952-10.744 12.552c-1.988 13.506 7.936 21.578 18.952 28.107l-8.208-40.659" fill="#1f275f"/><path d="M301.72 168.015c0 14.196-11.248 25.704-25.121 25.704-13.875 0-25.123-11.508-25.123-25.704 0-14.195 11.248-25.703 25.123-25.703 13.873 0 25.121 11.508 25.121 25.703" fill="#1f275f"/><path d="M292.828 179.087a6.372 6.372 0 1012.08-4.062 6.372 6.372 0 10-12.08 4.061" fill="#dd8161"/><path d="M285.684 193.875l.373 27.73-20.682-3.418 1.502-39.772 18.807 15.46" fill="#ebb28b"/><path d="M285.884 207.925l-14.527-14.206 14.987 2.632z" fill="#171717"/><path d="M298.721 155.667s5.594 22.336 3.068 30.91c-2.525 8.576-9.185 14.135-20.306 12.311 0 0-12.826-.245-16.616-19.157-5.707-28.472 20.06-38.896 33.854-24.064" fill="#ebb28b"/><path d="M268.459 179.715s8.209-18.854-.707-22.53c-2.675-1.102-4.243-1.662-5.507 7.787-1.265 9.448 2.035 10.995 2.035 10.995l4.179 3.748" fill="#1f275f"/><path d="M257.108 181.88a6.586 6.586 0 1012.486-4.198 6.586 6.586 0 00-12.486 4.198" fill="#ebb28b"/><path d="M260.324 177.947s4.784-1.531 6.228 3.741" fill="none" stroke="#171717" stroke-width=".52585352" stroke-linecap="round" stroke-linejoin="round" stroke-miterlimit="10"/><path d="M294.13 177.217l1.43 4.823a.683.683 0 01-.508.795l-1.619.26" fill="none" stroke="#1e0b07" stroke-width=".49705424000000004" stroke-linecap="round" stroke-linejoin="round" stroke-miterlimit="10"/><path d="M284.075 175.708a1.593 1.593 0 103.18.19 1.593 1.593 0 00-3.18-.19M297.393 175.35a1.477 1.477 0 102.949.176 1.477 1.477 0 00-2.949-.177M288.67 164.923l-12.002 3.836s2.668-3.666 6.13-4.754c3.46-1.088 5.871.918 5.871.918M295.401 164.64l6.319 2.037s-1.085-2.701-2.91-3.274c-1.823-.572-3.409 1.237-3.409 1.237" fill="#171717"/><path d="M285.665 184.29s4.419 2.251 8.838 2.251c0 0-6.011 4.364-8.838-2.25" fill="#fff"/><path d="M265.083 157.401s6.676 5.752 23.202 2.423c16.526-3.33 17.178-14.532 15.187-18.468 0 0-6.081 4.721-16.101 2.14-5.588-1.441-18.071-6.693-25.566-1.068-2.582 1.94-4.084 5.156-3.461 8.325.481 2.452 2.119 5.252 6.739 6.648" fill="#1f275f"/><path d="M189.865 449.912h-43.018v-92.156c0-9.212 7.468-16.679 16.68-16.679h9.66c9.212 0 16.678 7.467 16.678 16.679z" fill="none" stroke="#101010" stroke-width="3.82457105" stroke-miterlimit="10"/><path d="M156.333 571.128c0 5.516-4.472 9.99-9.988 9.99-5.516 0-9.988-4.474-9.988-9.99s4.472-9.99 9.988-9.99c5.516 0 9.988 4.474 9.988 9.99M200.356 571.128c0 5.516-4.472 9.99-9.99 9.99-5.515 0-9.987-4.474-9.987-9.99s4.472-9.99 9.988-9.99c5.517 0 9.989 4.474 9.989 9.99" fill="#101010"/><path d="M202.512 568.786H134.2c-9.747 0-17.648-7.902-17.648-17.649V435.912c0-9.748 7.901-17.65 17.648-17.65h68.312c9.748 0 17.65 7.902 17.65 17.65v115.225c0 9.747-7.902 17.65-17.65 17.65" fill="#537eef"/><path d="M138.107 546.112h-3.783V442.069h3.783zM158.225 546.112h-3.782V442.069h3.782zM178.344 546.112h-3.783V442.069h3.783zM198.463 546.112h-3.783V442.069h3.783z" fill="none" stroke="#171717" stroke-width=".81717957" stroke-linecap="round" stroke-linejoin="round" stroke-miterlimit="10"/><path d="M51.506 581.055h900.97" fill="none" stroke="#000" stroke-width="1.30463405" stroke-linecap="round" stroke-linejoin="round" stroke-miterlimit="10"/></svg>