<svg xmlns="http://www.w3.org/2000/svg" width="1000" height="666.667"><path fill="#aae1f0" d="M1000 666.667H0V0h1000v666.667"/><path fill="#c6e7ee" d="M1021.4 56.052s-54.263 1.65-58.904 51.848c-42.6-10.88-79.899 18.47-80.51 58.521-49.53-7.642-76.96 13.954-80.978 37.398-22.36-5.907-94.036 21.304-101.612 54.17H1021.4V56.052M-27.249 143.981s71.258-1.121 88.608 58.434c57.626-11.474 104.69 26.982 108.437 56.625 41.32-14.581 109.93 2.253 118.35 53.4 52.54-5.67 86.429 49.515 86.429 49.515H-29.728l2.48-217.974"/><path fill="#7ecee1" d="M586.632 399.895s26.384-38.46 59.437-44.219c24.167-40.841 105.968-72 149.762-78.563 48.293-60.561 148.792-115.704 216.292-113.633v236.415H586.632M-22.09 333.333s83.216-92.164 127.402-92.164c37.435 0 88.75 52.2 88.75 52.2s38.563-3.004 79.189 39.964c0 0 98.46 14.78 191.041 66.562H-22.09v-66.562"/><path fill="#fff" d="M947.027 191.403c0 25.724-20.854 46.577-46.575 46.577-25.724 0-46.577-20.853-46.577-46.577 0-25.724 20.853-46.578 46.577-46.578 25.721 0 46.575 20.854 46.575 46.578"/><path fill="#fff" d="M903.97 442.295h-7.04V223.18h7.04v219.115"/><path fill="#728dd0" d="M940.86 191.403c0 22.317-18.09 40.409-40.408 40.409-22.32 0-40.41-18.092-40.41-40.41 0-22.317 18.09-40.41 40.41-40.41 22.317 0 40.408 18.093 40.408 40.41"/><path fill="#fff" d="M94.646 437.884h-7.04V152.069h7.04v285.815"/><path fill="#fff" d="M136.203 204.044H46.828a3.563 3.563 0 01-3.563-3.563v-31.125a3.562 3.562 0 013.563-3.563h89.375a3.56 3.56 0 012.432.96l16.658 15.562a3.564 3.564 0 010 5.206l-16.658 15.563a3.56 3.56 0 01-2.432.96"/><path fill="#728dd0" d="M134.736 199.756H49.591a2.764 2.764 0 01-2.763-2.764v-24.147a2.763 2.763 0 012.763-2.764h85.145c.7 0 1.375.267 1.887.744l12.924 12.074a2.765 2.765 0 010 4.04l-12.924 12.073a2.769 2.769 0 01-1.887.744"/><path fill="#fff" d="M46.049 251.517h89.375a3.562 3.562 0 003.563-3.562V216.83a3.562 3.562 0 00-3.563-3.563H46.049c-.903 0-1.772.343-2.432.959l-16.66 15.562a3.562 3.562 0 000 5.207l16.66 15.563c.66.616 1.529.958 2.432.958"/><path fill="#728dd0" d="M47.515 247.23h85.145a2.764 2.764 0 002.764-2.765V220.32a2.765 2.765 0 00-2.764-2.765H47.515c-.7 0-1.375.266-1.886.744l-12.924 12.074a2.763 2.763 0 000 4.039l12.924 12.073a2.76 2.76 0 001.886.744"/><path fill="#c6e7ee" d="M-22.09 601.557h1044.18V398.99H-22.09v202.568"/><path fill="#4a9098" d="M547.375 601.557s17-29.94 55.249-24.308c18.75-35.984 61.395-45.274 76.447-43.445 24.804-33.843 60.517-28.836 60.517-28.836s25.51-57.576 47.773-57.576 28.379 15.08 28.379 15.08 5.884-96.196 27.635-100.383c21.749-4.188 33 54.012 33 54.012s5.249-65.946 37.498-67.706c32.25-1.759 39.75 37.549 39.75 37.549s14.25-41.547 68.468-43.768v259.381H547.375M-22.09 601.557V354.193s98.216-26.462 113.215 21.823c42-2.715 61.975 42.532 61.975 42.532s34.31 5.003 44.293 42.503c24.982-1.5 42.054 25.5 42.054 25.5s40.678 1.5 47.428 24c30-4.5 57.376 12.75 64.688 26.25 26.062-1.5 60.889 20.023 68.06 28.323 29.957-3.573 58.481 36.433 58.481 36.433H-22.09"/><path fill="#2c474c" d="M-22.09 601.557h1044.18v84.119H-22.09v-84.119"/><path fill="#cff0fb" d="M203.441 119.408s-13.133-9.048-20.473 1.525c9.428-5.373 20.473 6.144 20.473 6.144s11.044-11.517 20.472-6.144c-7.34-10.573-20.472-1.525-20.472-1.525M632.01 90.743s-19.54-13.464-30.46 2.266c14.026-7.993 30.46 9.143 30.46 9.143s16.433-17.136 30.46-9.143c-10.92-15.73-30.46-2.266-30.46-2.266M113.301 76.636s-11.9-8.2-18.553 1.381c8.545-4.869 18.553 5.568 18.553 5.568s10.009-10.437 18.553-5.568c-6.652-9.581-18.553-1.381-18.553-1.381"/><path fill="#294869" d="M74.44 583.144v11.663h-8.584l-3.885-11.663h12.47"/><path fill="#294869" d="M83.025 594.807a8.585 8.585 0 01-17.17 0 8.586 8.586 0 1117.17 0"/><path fill="#5791d4" d="M77.76 594.807a3.319 3.319 0 01-3.32 3.318 3.319 3.319 0 110-6.639 3.32 3.32 0 013.32 3.32"/><path fill="#294869" d="M99.504 583.144v11.663H90.92l-3.884-11.663h12.47"/><path fill="#294869" d="M108.089 594.807a8.585 8.585 0 01-17.17 0 8.586 8.586 0 1117.17 0"/><path fill="#5791d4" d="M102.824 594.807a3.32 3.32 0 01-3.32 3.318 3.32 3.32 0 110-6.639 3.32 3.32 0 013.32 3.32"/><path fill="#294869" d="M157.961 583.144v11.663h-8.584l-3.885-11.663h12.47"/><path fill="#294869" d="M166.547 594.807a8.585 8.585 0 01-17.17 0 8.586 8.586 0 1117.17 0"/><path fill="#5791d4" d="M161.283 594.807a3.32 3.32 0 11-6.64-.002 3.32 3.32 0 016.64.002"/><path fill="#294869" d="M183.025 583.144v11.663h-8.585l-3.884-11.663h12.47"/><path fill="#294869" d="M191.61 594.807a8.585 8.585 0 01-8.585 8.584 8.586 8.586 0 118.585-8.584"/><path fill="#5791d4" d="M186.345 594.807a3.32 3.32 0 11-6.638-.001 3.32 3.32 0 016.638 0"/><path fill="#294869" d="M106.532 412.719h57.059v-65.354c0-5.381-4.379-9.761-9.76-9.761h-37.538c-5.382 0-9.76 4.38-9.76 9.761zm60.695 3.636h-64.33v-68.99c0-7.386 6.01-13.397 13.396-13.397h37.538c7.385 0 13.396 6.01 13.396 13.397v68.99"/><path fill="#5791d4" d="M167.513 359.6h-4.209a1.897 1.897 0 01-1.896-1.896v-10.339a7.577 7.577 0 00-7.577-7.578h-37.538a7.578 7.578 0 00-7.578 7.578v10.339a1.896 1.896 0 01-1.896 1.896h-4.209a1.896 1.896 0 01-1.895-1.896v-10.339c0-8.604 6.974-15.578 15.578-15.578h37.538c8.602 0 15.577 6.974 15.577 15.578v10.339a1.895 1.895 0 01-1.895 1.896"/><path fill="#294869" d="M184.481 584.656h-98.84c-6.933 0-12.554-5.622-12.554-12.555V409.34c0-6.933 5.62-12.553 12.555-12.553h98.84c6.933 0 12.554 5.62 12.554 12.553v162.761c0 6.933-5.621 12.555-12.555 12.555"/><path fill="#3f6b9d" d="M166.305 584.656h-98.84c-6.933 0-12.554-5.622-12.554-12.555V409.34c0-6.933 5.621-12.553 12.555-12.553h98.84c6.933 0 12.554 5.62 12.554 12.553v162.761c0 6.933-5.621 12.555-12.555 12.555"/><path fill="#5791d4" d="M78.238 568.157a3.462 3.462 0 01-3.463-3.461v-147.95a3.462 3.462 0 116.925 0v147.95a3.462 3.462 0 01-3.462 3.461M97.561 568.157a3.462 3.462 0 01-3.463-3.461v-147.95a3.463 3.463 0 016.927 0v147.95a3.463 3.463 0 01-3.464 3.461M116.885 568.157a3.463 3.463 0 01-3.463-3.461v-147.95a3.463 3.463 0 013.463-3.462 3.462 3.462 0 013.463 3.463v147.949a3.462 3.462 0 01-3.463 3.461M136.21 568.157a3.462 3.462 0 01-3.464-3.461v-147.95a3.462 3.462 0 116.926 0v147.95a3.462 3.462 0 01-3.463 3.461M155.533 568.157a3.462 3.462 0 01-3.464-3.461v-147.95a3.463 3.463 0 013.464-3.462 3.462 3.462 0 013.463 3.463v147.949a3.462 3.462 0 01-3.463 3.461"/><path fill="#3f6b9d" d="M808.1 320.168h-70.032c-6.69 0-12.259-5.424-12.436-12.115l-3.79-143.516c-.174-6.69 5.106-12.116 11.797-12.116h85.805c6.69 0 12.257 5.426 12.435 12.116l3.372 127.744c.408 15.403-11.748 27.887-27.151 27.887"/><path fill="#fff" d="M815.023 152.421h-97.528c-7.57 0-13.706-6.134-13.706-13.704 0-7.568 6.136-13.704 13.706-13.704h97.528c7.569 0 13.705 6.136 13.705 13.704 0 7.57-6.136 13.704-13.705 13.704"/><path fill="#dec17b" d="M828.728 138.717c0 7.57-6.136 13.704-13.705 13.704-7.568 0-13.703-6.134-13.703-13.704 0-7.568 6.135-13.704 13.703-13.704 7.569 0 13.705 6.136 13.705 13.704"/><path fill="#294869" d="M803.308 320.168h-85.804c-6.692 0-12.26-5.424-12.436-12.115l-3.788-143.516a11.737 11.737 0 0111.795-12.116h85.804c6.69 0 12.258 5.426 12.436 12.116l3.789 143.516a11.738 11.738 0 01-11.796 12.115"/><path fill="#3f6b9d" d="M809.735 572.172l7.048 21.937-8.618 10.166s-13.629 1.085-11.906 8.772l1.03 4.313h52.688l-7.952-19.5-4.333-25.688h-27.957"/><path fill="#fff" d="M849.977 617.36l-1.757-4.313h-51.961l1.03 4.313h52.688"/><path fill="#3f6b9d" d="M656.103 578.963l-3.219 21.937-12.699 9s-13.312 2.25-15.186 9.937v4.314h51.374v-19.5l7.688-25.688h-27.958"/><path fill="#fff" d="M676.373 624.15v-4.313H625v4.314h51.374"/><path fill="#dec17b" d="M708.505 311.025s-31.268 128.626-36.892 154.5c-5.625 25.875-21 119.25-21 119.25h36.279s8.345-12.75 8.721-27.75c.375-15 6.375-21 8.624-36.374 2.251-15.376 2.908-17.626 4.268-27.751 1.358-10.125 6.608-15 5.483-25.125l28.875-106.5h4.874l8.002 94.505a89.832 89.832 0 007.958 30.09l42.916 92.905h34.124s1.876-7.5-1.874-19.875-9-12.75-10.5-25.125-1.875-23.25-7.126-31.875c-5.249-8.625-7.124-9.375-9-22.5-1.874-13.125-4.124-21-9.749-27.375 0 0-.375-88.125.375-104.25.75-16.124-.188-35.624-3.282-42l-91.076 5.25"/><path fill="#a27a26" d="M799.581 305.775l-91.076 5.25s-.896 3.682-2.406 9.908l96.949 21.42c.332-14.834-.712-30.904-3.467-36.578"/><path fill="none" stroke="#fff" stroke-miterlimit="10" stroke-width=".667" d="M778.728 310.463s-2.804 25.813 24.379 28.47M745.91 361.275l-5.058-49.124M730.915 312.15l4.025 29.454a10.066 10.066 0 004.896 7.332l5.112 2.987M729.04 356.588l40.875-3.75"/><path fill="#ed7465" d="M709.473 241.187s-14.413 65.89-36.377 128.349c0 0 1.381 5.239.632 10.115-.75 4.874-.75 14.124-2.75 14.749s0-9.25-2.626-9.875c-2.624-.625-4.75 8.375-4.75 8.375s3.375 4 2 6.25l-3.971-3.791a4.327 4.327 0 01-1.318-3.6c.494-4.58 1.92-15.536 4.915-23.359 0 0-6.755-70.687 8.09-97.55l2.829-29.663h33.326"/><path fill="#d73a40" d="M676.147 241.187l-1.704 17.882c8.409 9.886 16.221 25.259 19.409 43.864 9.83-35.28 15.621-61.746 15.621-61.746h-33.326"/><path fill="#3e9076" d="M758.136 156.776c6.853 2.12 19.52 6.544 31.635 10.863a67.332 67.332 0 0140.988 41.346l12.469 35.915-44.952.365 7.58 58.199a6.387 6.387 0 01-5.85 7.201c-18.611 1.411-70.442 5.235-85.529 5.235-18.5 0-8.249-13-8.249-13l-9.25-56.75h-41.25l12.557-39.693a60.327 60.327 0 0138.035-38.9l18.408-6.281 33.408-4.5"/><path fill="none" stroke="#1e3c40" stroke-miterlimit="10" stroke-width=".667" d="M776.352 198.525l9.236 46.74"/><path fill="#24494d" d="M780.313 219.135l-.188-1.012c-1.102-5.982.103 2.528-11.648 25.777-9.853 19.496-46.589 35.127-63.358 52.195l1.109 6.805s-10.25 13 8.25 13c15.207 0 67.751-3.885 85.971-5.27 3.416-.258 5.907-3.331 5.464-6.729l-7.685-59.001-12.64.365-5.275-26.13"/><path fill="#3f6b9d" d="M719.23 163.152c-10.105 3.448-28.253 36.748-22.253 82.999 0 0-18.25-33.606 1.094-75.074 2.532-5.426 18.049-10.141 24.041-8.909l-2.883.984M783.508 165.416c-7.03-1.39-23.905 35.921-1.03 63.859l1.687 7.876S768.9 226.665 762.603 204.9c-5.46-18.868.522-35.18 4.242-42.75 1.287-2.618 4.36-3.817 7.099-2.806l11.137 4.105a6.455 6.455 0 013.847 3.89l-5.42-1.923"/><path fill="#fff" d="M726.084 267.976l-30.739 7.796-11.882-46.843 30.738-7.797 11.883 46.844"/><path fill="#24494d" d="M723.297 268.683l-30.714 7.79-10.603-41.801 30.715-7.79 10.602 41.8"/><path fill="#aae1f0" d="M707.001 257.207c.27-.618.462-1.327.562-2.111l1.39-.355a7.046 7.046 0 01-1.952 2.466zm-8.453.174l1.393-.353a7.569 7.569 0 001.499 1.588 7.046 7.046 0 01-2.892-1.235zm-.27-11.233a7.596 7.596 0 00-.562 2.112l-1.392.352a7.033 7.033 0 011.955-2.464zm8.451-.175l-1.392.352a7.663 7.663 0 00-1.498-1.586 7.023 7.023 0 012.89 1.234zm.352 4.062a12.958 12.958 0 00-1.181-2.82l1.761-.447a6.976 6.976 0 011.644 2.703zm.246.969l2.225-.564a7.005 7.005 0 01-.157 3.159l-1.763.446c.024-.953-.075-1.98-.305-3.041zm-3.336 3.965l-.744-2.93 3.11-.79a11.73 11.73 0 01.255 3.055zm.849 3.351l-.605-2.381 2.26-.572c-.248 1.406-.823 2.488-1.655 2.953zm-1.573-2.136l.604 2.383c-.954-.014-1.975-.69-2.863-1.81zm-4.1-3.11l3.11-.789.743 2.93-2.621.665a11.666 11.666 0 01-1.232-2.807zm-1.215-.723l-2.224.564a6.95 6.95 0 01.156-3.159l1.761-.447c-.024.955.076 1.98.307 3.042zm3.336-3.966l.743 2.931-3.111.788a11.717 11.717 0 01-.253-3.055zm-.85-3.35l.605 2.381-2.258.572c.246-1.407.823-2.488 1.654-2.953zm4.44 2.44c.5.809.925 1.761 1.235 2.805l-3.112.79-.744-2.931zm-2.867-.306l-.604-2.38c.953.012 1.976.688 2.862 1.808zm-6.039 6.715l2.225-.564a12.928 12.928 0 001.18 2.82l-1.76.447a6.978 6.978 0 01-1.645-2.703zm4.687-10.015c-4.306 1.092-6.92 5.483-5.827 9.788 1.092 4.306 5.483 6.919 9.787 5.828 4.305-1.092 6.92-5.484 5.828-9.788-1.092-4.305-5.484-6.92-9.788-5.828"/><path fill="#ed7465" d="M719.352 111.227v16.424s-10.875 18.374 8.376 23.25l1 9.375-4 1s.652 6.968 11.5 7.75c13.875 1 21.908-12.25 21.908-12.25l-5.284-1.47-4.25-20.155s4.75-2.624 4.438-7.5c-.312-4.875-5.312-18.875-5.312-18.875l-28.376 2.45"/><path fill="#d73a40" d="M746.532 139.94s-4.488 17.71-18.177 16.835l-1.003-8.402 19.18-8.433"/><path fill="none" stroke="#d73a40" stroke-miterlimit="10" stroke-width=".667" d="M728.728 160.276l.875 4.219M728.103 120.527l-2.375 7.686"/><path fill="#1e4730" d="M734.83 122.448c0 1.061-.457 1.921-1.02 1.921s-1.02-.86-1.02-1.921c0-1.063.457-1.921 1.02-1.921s1.02.858 1.02 1.921M724.103 122.448c0 1.061-.456 1.921-1.02 1.921-.564 0-1.02-.86-1.02-1.921 0-1.063.456-1.921 1.02-1.921.564 0 1.02.858 1.02 1.921"/><path fill="none" stroke="#d73a40" stroke-miterlimit="10" stroke-width="1.333" d="M730.665 118.027s2.43-1.751 6.278 0M725.728 118.276s-2-2.063-5.188 0"/><path fill="none" stroke="#d73a40" stroke-miterlimit="10" stroke-width=".667" d="M746.532 129.244c1.68-1.921 5.852-2.25 4.024 1.265"/><path fill="#d73a40" d="M746.103 112.464s-32.438 9.75-34.5-6.75c-2.063-16.5 37.312-12.938 39 1.686 9.186-.187 9.937 11.627 2.437 20.25-1.125-5.062-7.688 0-7.688 0l.75-15.186"/><path fill="#5f92a8" d="M727.728 150.901c10.812 2.312 19.061-9.25 20.875-15.75-3.228 3.073-10 4-10.563.437-.563-3.561 1.812-6.124 7.312-7.937-18.812-3.187-26 0-26 0s-10.875 18.374 8.376 23.25"/><path fill="#ed7465" d="M786.984 245.224l3.93 19.488-63.562-8.25s-12.51-7.687-17.879-7.874c-5.37-.188-15.121 2.25-14.745 3.937.375 1.687 8.812-1.125 13.5.187 0 0-13.876 2.157-13.97 4.5-.093 2.344 11.117-.843 15.215.376-4.996.937-12.589 2.53-12.402 4.124.188 1.595 9.844-.937 13.218-.093-5.342 1.5-10.444 2.128-10.189 3.682.252 1.555 8.408-.589 8.408-.589l4.781.75s5.814 5.345 12.188 2.813c0 0 28.126 20.813 61.875 32.062 33.75 11.251 46.125-7.874 46.876-19.5.75-11.625-1.5-35.937-1.5-35.937l-45.744.324"/><path fill="#d73a40" d="M832.728 244.9l-45.744.324 1.059 5.25s20.217-2.36 46.301 21.335c-.24-12.041-1.616-26.909-1.616-26.909M790.915 264.712l13.313 1.939s-7.313-5.782-13.313-1.939"/><path fill="#ed7465" d="M321.061 398.99s-3.188 37.686-6.188 70.686c-2.494 27.439-10.173 92.73-12.69 113.956a19.452 19.452 0 002.825 12.608l1.99 3.187-14.374 7.5-10.375-5.37s3.375-8.881 1.875-24.255c-1.5-15.375-17.25-94.875-1.875-130.126L280 398.989h41.062"/><path fill="#d73a40" d="M282.25 447.176c-2.862 6.56-4.645 14.655-5.642 23.583 9.304-10.27 19.867-18.724 28.984-25.075a31.64 31.64 0 0013.459-23.24 13332.61 13332.61 0 002.01-23.455H280l2.25 48.187"/><path fill="#ed7465" d="M285.663 396.801v31.508a49.034 49.034 0 01-8.13 27.04l-69.062 104.488a34.12 34.12 0 00-5.64 17.78l-.27 8.872-20.437-11.438v-8.437s11.25-10.312 17.625-28.312 31.839-90.68 44.964-103.429l-5.482-38.072h46.432"/><path fill="#3e9076" d="M323.624 288.576s5.75 21.225 2.75 37.975-1.649 18.285.926 27.642c2.573 9.358-2.927 24.858-3.176 30.608-.25 5.75 0 17.25 0 17.25h-31.5v3.25h-60.05s-4.24-21.25-5.345-31.5c-1.105-10.25-1.356-22.25-3.605-32.5-2.25-10.25-6.11-39.236 0-52.725h100"/><path fill="#24494d" d="M258.717 356.52s5.782 31.407-3.468 35.407c-9.25 4-24.932 1.477-24.932 1.477l-4.381-34.915 32.781-1.969M292.624 402.05h31.5s-.119-5.45-.11-10.725c-4.771-3.504-11.109-6.208-15.14-9.774-6.5-5.75-7.25-16-8.25-24.25s-10.75-16.25-10.75-16.25c1.627 10.917 2.5 10.5 1.25 21.75s2.617 25.443 2.5 34c-.065 4.74-1 5.25-1 5.25"/><path fill="#b6b8b7" d="M326.25 404.113h-33.626l1.139-8.437h32.486v8.437"/><path fill="none" stroke="#1e3c40" stroke-miterlimit="10" stroke-width=".427" d="M293.624 396.801c1-8.5-3.75-22.75-2.5-34s.377-10.833-1.25-21.75c-1.062-7.124-11-13.232-12.313-17.303M283.6 292.623v37.874M289.045 293.56s1.306 27.375-5.445 30.188"/><path fill="#fff" d="M294.624 407.427h-65.063l-1.312-8.438h66.375v8.438"/><path fill="#3e9076" d="M239.13 393.543h-7.18c-5.66 0-10.247-4.587-10.247-10.246v-21.085a3.724 3.724 0 013.724-3.723h31.33v17.427c0 9.736-7.892 17.627-17.626 17.627"/><path fill="none" stroke="#1e3c40" stroke-miterlimit="10" stroke-width=".427" d="M254.592 360.273l-3.28 7.608a5.402 5.402 0 01-4.96 3.264h-23.447"/><path fill="#7ecee1" d="M302.355 582.176h-17.908c.46 12.353-2.198 19.381-2.198 19.381l10.375 5.37 14.375-7.5-1.991-3.187a19.452 19.452 0 01-2.825-12.608l.172-1.456M209.783 557.85l-14.879-8.654c-6.013 11.187-12.78 17.418-12.78 17.418v8.437l20.437 11.438.27-8.872a34.13 34.13 0 015.64-17.781l1.312-1.985"/><path fill="#fff" d="M256.373 294.977H311.5l-16-146.676-37.022 3.847-2.104 142.83"/><path fill="#192821" d="M252.935 100.352l5.79 9.848 5.295-.688-1.416-10.527-9.67 1.367"/><path fill="#fff" d="M369.023 170.427h-16.091c-1.07 0-1.872-.868-1.79-1.939l2.498-32.403c.083-1.07 1.017-1.94 2.09-1.94h16.089c1.07 0 1.873.87 1.79 1.94l-2.497 32.403c-.083 1.07-1.019 1.939-2.09 1.939"/><path fill="#1c1c1d" d="M358.435 137.63a1.116 1.116 0 01-1.094 1.015.926.926 0 01-.937-1.016 1.116 1.116 0 011.093-1.014c.562 0 .982.454.938 1.014M364.385 138.27h-4.016a.585.585 0 01-.59-.64.704.704 0 01.69-.64h4.015c.355 0 .619.286.592.64a.706.706 0 01-.69.64"/><path fill="#ed7465" d="M349.65 191.301l5.537 10.172 13.125-32.733s-3-3.563-3.188-8.813c0 0-7.036-3.938-6.144-5.438.893-1.5 7.644 3.312 7.644 3.312s-7.5-8.188-6.75-9.5c.75-1.312 8.438 7.126 8.438 7.126s-6.563-11.438-4.876-12c1.688-.563 8.813 10.313 8.813 10.313l.938-12.939s4.125 13 4.125 17-.75 13.336-.75 13.336 6.187 52.54-2.813 70.164c-9 17.626-29.376 10.626-36.937-1.312-4.333-6.84-20.813-31.874-20.813-31.874L349.65 191.3"/><path fill="#d73a40" d="M355.187 201.473l-9.063 21.079s2-16.033 9.063-21.079M352.424 196.396l-2.773-5.095-33.652 16.812s8.932 13.571 15.373 23.459c4.632-15.336 16.979-30.468 21.052-35.176"/><path fill="#ed7465" d="M289.955 90.713l2.088 15.09s5.27 3.578 2.794 13.373c-2.054 8.127-9.824 9.5-9.824 9.5l-.648 11.625 11.134 8s-4.646 11.626-15.935 11.626c-11.288 0-24.783-4.375-29.065-15.375l9.125-4 3.461-25.5s-7.881.745-8.564-6.376c-.682-7.119 6.747-5.124 8.823-3.373l-.908-7.751 27.519-6.839"/><path fill="none" stroke="#d73a40" stroke-miterlimit="10" stroke-width=".661" d="M263.085 110.99c-.149-3.095-3.196-5.814-5.352-5.485-2.156.328-1.874 3.703-.75 4.454"/><path fill="#d73a40" d="M264.347 117.495s.04 16.294 20.284 18.05l.524-9.025-20.808-9.025"/><path fill="#192821" d="M277.75 102.615c0 1.345-.673 2.437-1.5 2.437s-1.5-1.092-1.5-2.437c0-1.347.673-2.439 1.5-2.439s1.5 1.092 1.5 2.439M288.999 101.085c0 1.346-.671 2.438-1.499 2.438-.828 0-1.499-1.092-1.499-2.438s.671-2.437 1.499-2.437c.828 0 1.499 1.09 1.499 2.437"/><path fill="none" stroke="#d73a40" stroke-miterlimit="10" stroke-width=".661" d="M282.936 101.085l2.563 6.091"/><path fill="#3f6b9d" d="M261.192 129.001l-.621 4.579s2.272 8.535 10.146 15.097c0 0 .907 11.375-1.844 26.124-2.749 14.751-2.5 23-1.249 33 1.25 10 2.25 22.119-.5 30.56-2.75 8.44-4.067 23.69-1.408 35.19 2.657 11.5 2.408 21.769 1.408 26.634-1 4.866 1 8.866 1 8.866h-47.25l-21-59.75 6.125-44.624-22.402-5.505s2.527-12.87 4.527-21.12c2-8.25 11.5-22 31.5-27.5s33.75-10 33.75-10 2.747-11.55 7.818-11.55"/><path fill="#294869" d="M227.135 193.119s1.989 24.682 4.864 35.433c2.874 10.75-6.126 16.375-2.875 31.687 3.25 15.312-3.437 33.312-3.437 33.312l-20.314-49 9.251-38.124 6.5 2.125 6.01-15.433"/><path fill="none" stroke="#3f6b9d" stroke-miterlimit="10" stroke-width=".427" d="M227.23 221.639s-7.418 30.537-15.294 38.6M225.687 252.176l-6.314 19.125"/><path fill="none" stroke="#294869" stroke-miterlimit="10" stroke-width=".661" d="M229.124 185.927l-6.875 20.5M231.999 191.301s-2.25 7.751-7 12.5"/><path fill="none" stroke="#1e4730" stroke-miterlimit="10" stroke-width=".661" d="M269.124 148.959s-8.907-.844-10.125 12.093c0 0-5.36-9.756-5.519-17.807"/><path fill="#ed7465" d="M219.373 208.052l-8.249 35.999 24.5 63.25 5.5 4s-4 12.5-12 15.25l-6.875-12.5-36.628-47.962a43.152 43.152 0 01-7.789-35.718l7-30.896 34.541 8.577"/><path fill="#d73a40" d="M215.14 226.525l4.233-18.474-34.541-8.576-2.147 9.476c16.748 3.897 27.754 12.976 32.455 17.574"/><path fill="#fff" d="M237.719 308.728l-13.478 9.623-2.826-3.959 13.478-9.623 2.826 3.959"/><path fill="#1e4730" d="M232.63 309.372a3.765 3.765 0 11-6.127 4.376 3.764 3.764 0 116.128-4.376"/><path fill="#fff" d="M231.547 310.147a2.432 2.432 0 11-3.959 2.828 2.432 2.432 0 013.959-2.828"/><path fill="#3f6b9d" d="M284.365 140.301l.414-7.298 11.716 11.286 19.368 6.932a44.336 44.336 0 0123.36 19.412l10.428 17.892-26.214 18.131s-1.82 9.721 1.274 16.639c3.094 6.917.91 18.385-.546 23.665-1.457 5.279-.728 13.652 3.823 21.844 4.55 8.192 3.276 40.247 3.276 40.247h-36.407s1.638-5.842.182-16.218c-1.456-10.376-4.551-12.742-4.187-24.21.364-11.47 3.095-33.188 2.003-44.446-1.094-11.258-2.914-27.378-4.187-38.25-1.047-8.924-.865-27.078-.768-33.299a12.109 12.109 0 00-.685-4.212l-2.85-8.115"/><path fill="#294869" d="M322.468 184.49s7.781 3.625 6.468 6.311c-1.312 2.688.285 8.932 3.33 9.747l-8.789 4.756s-.877-2.259-1.009-7.315c-.133-5.056.147-11.254 0-13.5"/><path fill="#5791d4" d="M323.437 206.656c.228-2.884-.5-4.219-.5-4.219l25.55-16.177a2.48 2.48 0 013.508.91l1.481 2.722a2.266 2.266 0 01-.783 2.999l-29.756 18.753.5-4.988"/><path fill="none" stroke="#294869" stroke-linecap="round" stroke-linejoin="round" stroke-miterlimit="10" stroke-width=".427" d="M322.937 202.437c-1.22-2.854-.282-13.917-.469-17.948-.188-4.03-.844-8.249-.844-8.249M318.835 191.301h-21.663s-1.673 20.135 11.701 20.343c8.134.127 10.5-7.467 10.5-7.467"/><path fill="#dec17b" d="M331.476 261.487c-1.048 2.328-3.812 3.324-6.116 2.224-44.153-21.076-68.224-51.759-80.723-74.116-10.505-18.792-14.76-34.766-16.286-41.978a3.858 3.858 0 013.241-4.629l5.597-.773a3.845 3.845 0 014.29 2.978c1.409 6.463 5.397 21.234 15.092 38.419 16.669 29.553 41.721 52.43 74.502 68.053 2.214 1.054 3.159 3.702 2.152 5.936l-1.749 3.886"/><path fill="#c1a051" d="M256.57 183.612a154.082 154.082 0 01-4.565-8.747l-.005-.004c4.565 8.743-5.033 19.087-1.848 23.883 11.904 18.408 31.136 40.259 61.413 57.707 3.218 1.622 14.418-7.08 9.063-10.158-.035-.02-.072-.057-.108-.08-27.639-15.317-49.12-36.309-63.95-62.601"/><path fill="#dec17b" d="M260.865 190.53l-17.428 34.047a14.88 14.88 0 004.218 18.607l28.969 22.11c7.55 5.765 18.384 4.074 23.82-3.717l10.939-15.676a7.437 7.437 0 00-1.056-9.721l-49.462-45.65"/><path fill="#c1a051" d="M261.841 197.968l-2.402 10.487a11.923 11.923 0 004.078 11.898l40.692 33.25-2.362 3.244-39.852-32.44a13.495 13.495 0 01-4.206-14.956l4.052-11.483"/><path fill="#fff" d="M289.14 232.323a2.063 2.063 0 11-4.124.097 2.063 2.063 0 014.124-.097"/><path fill="#24494d" d="M240.188 309.05c-1.393 5.053-5.844 15.795-18.93 18.775l.889 3.9c15.857-3.612 20.804-17.364 22.141-22.674h-4.1"/><path fill="#5f92a8" d="M275.499 108.176c-5.223 1.213-9.126-2.615-12.363-4.653l.208 1.78c2.212.092 8.31 7.28 6.248 11.312-2.061 4.03-6.507-1.563-6.507-1.563 5.19 11.388 15.507 15.156 21.928 13.624 0 0 7.77-1.373 9.824-9.5 2.476-9.795-2.794-13.373-2.794-13.373-5.488-2.376-11.294 1.156-16.544 2.373"/><path fill="#fff" d="M312.984 86.66c.547 3.564-17.252 9.25-39.752 12.7-22.501 3.45-41.184 3.357-41.73-.207-.547-3.564 16.917-11.426 39.418-14.877 22.5-3.45 41.517-1.181 42.064 2.384"/><path fill="#fff" d="M290.52 88.067l-37.165 5.698-.084-15.56a6.66 6.66 0 015.65-6.62l19.643-3.012a6.66 6.66 0 017.375 4.623l4.581 14.87"/><path fill="#dec17b" d="M291.504 89.799a124.692 124.692 0 01-38.57 5.913c.013-2.173.022-4.348.034-6.523a118.18 118.18 0 0036.55-5.604c.662 2.072 1.323 4.143 1.986 6.214"/><path fill="none" stroke="#294869" stroke-linecap="round" stroke-linejoin="round" stroke-miterlimit="10" stroke-width=".427" d="M291.007 151.375l5.585 4.614v-10.688s-6.593 4.814-7.719 10.376"/><path fill="#5791d4" d="M185.61 193.127c5.927.43 20.9 2.256 36.32 9.962 1.51.755 2.333 2.426 1.975 4.075l-.449 2.077a2.372 2.372 0 01-3.135 1.73c-6.248-2.287-22.753-8.011-35.805-9.719a2.87 2.87 0 01-2.463-3.364l.424-2.324a2.97 2.97 0 013.134-2.437"/><path fill="#fff" d="M237.25 367.864a1.5 1.5 0 11-3.002-.001 1.5 1.5 0 013.001.001M281.999 597.55s7.764.662 11.625 3.752c5-5.626 12.375-7.126 12.375-7.126l7.25 8.126 13.75 8.125s12 .375 11.125 12.249h-61.781l1.03-5.625S275 605.8 282 597.55"/><path fill="#7ecee1" d="M276.343 622.676h61.781c.167-2.272-.143-4.117-.743-5.625h-60.008l-1.03 5.625"/><path fill="#fff" d="M183.37 565.124s5.94 5.043 7.294 9.798c7.336-1.68 14.213 1.376 14.213 1.376l1.192 10.823 6.487 14.595s9.556 7.268 1.955 16.433l-50.323-35.841 4.103-3.984s4.592-10.541 15.08-13.2"/><path fill="#7ecee1" d="M164.188 582.308l50.323 35.841c1.454-1.754 2.273-3.437 2.658-5.013l-48.878-34.812-4.103 3.984"/><path fill="#a27a26" d="M404.144 466.73h57.057v-65.354c0-5.383-4.377-9.761-9.76-9.761h-37.537c-5.381 0-9.76 4.378-9.76 9.761zm60.693 3.635h-64.329v-68.989c0-7.387 6.01-13.396 13.396-13.396h37.537c7.387 0 13.396 6.01 13.396 13.396v68.99"/><path fill="#dec17b" d="M465.124 413.61h-4.208a1.895 1.895 0 01-1.896-1.897v-10.337a7.579 7.579 0 00-7.579-7.579h-37.537a7.579 7.579 0 00-7.579 7.579v10.337a1.895 1.895 0 01-1.894 1.896h-4.21a1.896 1.896 0 01-1.896-1.896v-10.337c0-8.605 6.975-15.579 15.579-15.579h37.537c8.604 0 15.579 6.974 15.579 15.579v10.337a1.895 1.895 0 01-1.896 1.896"/><path fill="#a27a26" d="M482.092 589.921h-98.839c-6.934 0-12.554-5.621-12.554-12.554V463.352c0-6.933 5.62-12.555 12.554-12.555h98.839c6.935 0 12.555 5.622 12.555 12.555v114.015c0 6.933-5.62 12.554-12.555 12.554"/><path fill="#dec17b" d="M463.917 589.921h-98.84c-6.933 0-12.554-5.621-12.554-12.554V463.352c0-6.933 5.621-12.555 12.554-12.555h98.84c6.934 0 12.554 5.622 12.554 12.555v114.015c0 6.933-5.62 12.554-12.554 12.554"/><path fill="#fff" d="M375.85 573.424a3.463 3.463 0 01-3.463-3.464v-99.201a3.463 3.463 0 116.925 0v99.2a3.463 3.463 0 01-3.463 3.465M395.173 573.424a3.464 3.464 0 01-3.464-3.464v-99.201a3.463 3.463 0 116.927 0v99.2a3.463 3.463 0 01-3.463 3.465M414.497 573.424a3.463 3.463 0 01-3.462-3.464v-99.201a3.463 3.463 0 116.925 0v99.2a3.463 3.463 0 01-3.463 3.465M433.82 573.424a3.463 3.463 0 01-3.463-3.464v-99.201a3.464 3.464 0 116.927 0v99.2a3.464 3.464 0 01-3.464 3.465M453.144 573.424a3.463 3.463 0 01-3.463-3.464v-99.201a3.464 3.464 0 116.927 0v99.2a3.464 3.464 0 01-3.464 3.465"/><path fill="#294869" d="M383.585 601.341a8.455 8.455 0 01-8.456 8.455 8.455 8.455 0 010-16.91 8.455 8.455 0 018.456 8.455"/><path fill="#294869" d="M375.13 589.856v11.485h-8.455l-3.826-11.485h12.28"/><path fill="#fff" d="M378.4 601.341a3.269 3.269 0 01-3.27 3.27 3.269 3.269 0 110-6.54 3.27 3.27 0 013.27 3.27"/><path fill="#294869" d="M407.121 601.341a8.455 8.455 0 11-16.91 0 8.455 8.455 0 0116.91 0"/><path fill="#294869" d="M398.667 589.856v11.485h-8.455l-3.825-11.485h12.28"/><path fill="#fff" d="M401.936 601.341a3.269 3.269 0 11-6.54.001 3.269 3.269 0 016.54 0"/><path fill="#294869" d="M463.875 601.341a8.455 8.455 0 11-16.91 0 8.455 8.455 0 0116.91 0"/><path fill="#294869" d="M455.42 589.856v11.485h-8.455l-3.825-11.485h12.28"/><path fill="#fff" d="M458.69 601.341a3.27 3.27 0 11-6.54-.001 3.27 3.27 0 016.54.001"/><path fill="#294869" d="M487.41 601.341a8.455 8.455 0 11-16.909 0 8.455 8.455 0 0116.91 0"/><path fill="#294869" d="M478.956 589.856v11.485h-8.455l-3.825-11.485h12.28"/><path fill="#fff" d="M482.227 601.341a3.27 3.27 0 11-6.54-.001 3.27 3.27 0 016.54.001"/><path fill="#ed7465" d="M531.735 352.232l-6.562 244.812H509.76s-26.037-98-11.061-155c0 0-13.599-63.812-11.063-93.75l44.099 3.938M550.961 352.232l25.972 244.812h15.412s18.268-98-1.226-155c0 0 8.54-63.812 3.629-93.75l-43.787 3.938"/><path fill="#fff" d="M595.363 577.419c-1.614 12.091-3.018 19.625-3.018 19.625h-15.412l-2.082-19.625h20.512"/><path fill="#dfa531" d="M593.653 589.175l1.166 6.493 5.549 13.25s5.361 6.126 5.808 8.626c.45 2.5.477 6 .477 6s-3.677 2.5-12.188 2.375c-8.509-.126-14.32-5.626-14.32-5.626s-4.234-1.374-4.784-2c-.549-.625.123-9.5.123-9.5l.695-14.874-.395-5 2.133.125.838 4.25 1.506-3.106c.539-1.113 1.598-1.861 2.854-2.016l7.905-.977c1.223-.151 2.412.741 2.633 1.98"/><path fill="#192821" d="M522.757 128.616c-.584-6.633 4.666-14.977 19.291-13.29 14.625 1.687 17.719 23.062 6.563 30.28l-25.854-16.99"/><path fill="#192821" d="M562.485 114.33c0 5.255-4.26 9.517-9.516 9.517-5.254 0-9.516-4.262-9.516-9.516 0-5.256 4.262-9.516 9.516-9.516a9.515 9.515 0 019.516 9.516"/><path fill="#3e9076" d="M605.247 348.153c-3.358-7.348-3.883-15.68-4.344-23.03-.118-1.863-.23-3.648-.386-5.311l-.184-2.02c-.741-8.156-1.86-20.481-5.565-28.21l4.81-2.305c4.12 8.595 5.291 21.496 6.066 30.034l.184 2.002c.161 1.715.277 3.555.399 5.475.432 6.89.922 14.699 3.872 21.148l-4.852 2.217M464.048 338.773v-5.333c13.204 0 17.297-26.944 19.265-39.892.539-3.548.966-6.35 1.442-8.04l5.133 1.448c-.387 1.37-.81 4.161-1.301 7.393-2.359 15.526-6.75 44.424-24.539 44.424"/><path fill="#24494d" d="M595.572 221.29s4.67-54.495-5.828-62.909c-9.676-7.752-43.521-4.489-48.787-3.928-5.262-.561-39.11-3.824-48.784 3.928-10.5 8.414-5.829 62.908-5.829 62.908s-19.317 64.266-3.17 74.41c13.827 8.688 47.554 9.44 56.96 9.477l.403.001c.15.002.287.002.42.002.136 0 .272 0 .422-.002l.405-.001c9.405-.037 43.13-.79 56.959-9.477 16.148-10.144-3.171-74.41-3.171-74.41"/><path fill="#ae1863" d="M500.856 276.89s-20.605 31.986-15.715 82.297h49.782v-31.331h6.75l6 31.33h53.062s2.813-41.147-17.951-82.295h-81.928"/><path fill="#7b1337" d="M496.652 284.916c9.985 7.357 37.855 21.732 94.37 11.497-2.22-6.396-4.926-12.958-8.238-19.522h-81.928s-1.8 2.805-4.204 8.025"/><path fill="none" stroke="#500d2b" stroke-miterlimit="10" stroke-width=".665" d="M538.673 287.732l1.875 40.124M531.735 286.232s-.024 32.35 8.425 33.33M572.235 282.107s1.332 24.744 22.698 27.185M509.76 284.17s-5.848 26.394-22.124 28.383"/><path fill="#d73a40" d="M447.923 250.545c5-14.25 33.25-54.75 33.25-54.75l26.931 18.074-45.93 48.676-14.251-12M635.716 250.545c-5-14.25-33.25-54.75-33.25-54.75l-26.93 18.074 45.93 48.676 14.25-12"/><path fill="#f6bc27" d="M577.513 218.545l32.41-21.188-19.154-18.23c-7.092-6.75-13.364-12.128-24.596-14.958-2.753-.693-6.624-1.165-8.625-1.374l-15.875 7-15.888-4.875c-2 .21-4.66.636-7.452 1.144-9.704 1.765-18.665 6.313-25.756 13.063l-19.154 18.23 32.409 21.188 3.05 35.624-12.2 23.25s9.722 14.625 44.991 14.625c35.27 0 44.992-14.625 44.992-14.625l-12.202-23.25 3.05-35.624"/><path fill="#3e9076" d="M512.353 166.224s5.076 31.696-6.521 52.321l.513 6.006s18.452-24.382 15.96-60.382l-9.952 2.055M571.86 164.639s-5.539 33.281 6.057 53.906l-.514 6.006s-18.254-26.35-15.762-62.35l10.219 2.438"/><path fill="#fff" d="M517.423 259.045l-25.078-6.517-7.204-56.733 28.808 8.538 3.474 54.712"/><path fill="#aae1f0" d="M517.423 259.045l24.25-6.517v-56.733l-27.724 8.538 3.474 54.712"/><path fill="#fff" d="M565.923 259.045l-24.25-6.517v-56.733l27.723 8.538-3.473 54.712"/><path fill="#aae1f0" d="M565.923 259.045L591 252.528l7.203-56.733-28.808 8.538-3.473 54.712"/><path fill="#8c144e" d="M547.673 359.187h53.062s.188-2.803.105-7.642h-54.63l1.463 7.642M484.596 351.545c.124 2.5.293 5.04.545 7.642h49.782v-7.642h-50.327"/><path fill="#fff" d="M505.188 577.419c2.572 12.091 4.572 19.625 4.572 19.625h15.413l.526-19.625h-20.511"/><path fill="#ed7465" d="M487.673 243.67c3.5 0 4.75-11.25 4.75-11.25s7.874-.75 8.413-1.75c.537-1-9.913-.625-9.913-.625s10.36-3.938 9.874-5.494c-.56-1.802-10.124 1.994-10.124 1.994s10.124-7.376 9.124-8.625c-1-1.25-10.374 5.125-10.374 5.125s5-10.75 3.874-11.376c-1.124-.624-8.874 12.882-8.874 12.882l-1.626 11.118-34.874 14.876s-4.206 15.411 2.669 21.286c14.443 12.341 30.456-13.662 37.081-28.162M595.965 243.67c-3.5 0-4.749-11.25-4.749-11.25s-7.876-.75-8.413-1.75c-.538-1 9.913-.625 9.913-.625s-10.36-3.938-9.876-5.494c.561-1.802 10.125 1.994 10.125 1.994s-10.125-7.376-9.125-8.625c1-1.25 10.376 5.125 10.376 5.125s-5-10.75-3.876-11.376c1.125-.624 8.876 12.882 8.876 12.882l1.624 11.118 34.876 14.876s4.205 15.411-2.67 21.286c-14.442 12.341-30.455-13.662-37.08-28.162M522.757 128.616l.779 6.055s-5.676 16.468 7.356 19.468l.752 9.961-6.721.82s1.874 13.5 16 13.5c14.125 0 16.625-15.625 16.625-15.625l-7.125-.25-2.135-20.737s2.01.612 3.604-1.544c1.593-2.157.093-10.407-5.625-4.781a155.568 155.568 0 00-1.972-8.391c-.752-2.852-3.342-4.813-6.29-4.817-3.469-.006-8.138.225-11.95 1.265-2.211.603-3.59 2.805-3.298 5.076"/><path fill="none" stroke="#d73a40" stroke-miterlimit="10" stroke-width=".667" d="M546.86 138.107c.125-1.75 3.767-4.438 3.875-.624"/><path fill="#d73a40" d="M548.953 148.272l-.665-6.464-10.428 2.299-10.847 8.442c1.06.684 2.334 1.234 3.879 1.59l.38 5.034c1.633 1.007 3.688 1.595 6.213 1.122 6.196-1.163 9.815-7.923 11.468-12.023"/><path fill="none" stroke="#d73a40" stroke-miterlimit="10" stroke-width=".667" d="M531.032 129.81l-1.453 7.782"/><path fill="#192821" d="M537.477 130.621c.055 1.034-.384 1.898-.98 1.93-.597.032-1.125-.782-1.18-1.815-.056-1.035.383-1.899.98-1.93.598-.033 1.126.78 1.18 1.815M528.428 131.103c.055 1.034-.384 1.898-.98 1.93-.597.032-1.125-.78-1.18-1.814-.056-1.034.383-1.898.979-1.931.597-.03 1.125.781 1.181 1.815"/><path fill="none" stroke="#192821" stroke-miterlimit="10" stroke-width="1" d="M533.939 127.373s2.882-1.876 5.988-.328M529.297 127.92s-1.874-1.688-4.437.25"/><path fill="#5f92a8" d="M548.288 141.817v-.009s-4.31 1.488-5.404-1.732c-1.387-4.083 3.383-4.593 3.383-4.593-.066-.322-.134-.623-.2-.936-5.735-.575-13.622-.343-18.383-.115a5.457 5.457 0 00-5.15 4.72c-.698 5.105-.273 13 8.358 14.987 8.561 1.812 13.565-3.04 15.95-6.478 1.18-1.698 1.66-3.786 1.446-5.844"/><path fill="#dfa531" d="M507.83 589.175l-.651 6.493-4.5 13.25s-4.875 6.126-5.124 8.626c-.251 2.5 0 6 0 6s3.874 2.5 12.374 2.375c8.5-.126 13.875-5.626 13.875-5.626s4.125-1.374 4.625-2c.5-.625-.874-9.5-.874-9.5l-1.876-14.874v-5l-2.124.125-.5 4.25-1.754-3.106a4.017 4.017 0 00-3.013-2.016l-7.984-.977a2.215 2.215 0 00-2.475 1.98"/><path fill="none" stroke="#d73a40" stroke-miterlimit="10" stroke-width=".667" d="M509.528 444.668s.859 7.63 10.145 9.376M579.923 440.544s-.6 9.761-9.5 10.5"/></svg>