<svg xmlns="http://www.w3.org/2000/svg" height="558.96" width="608.693"><path d="M71.344 525.188c1.156-4.59-1.875-9.173-5.263-12.48-3.386-3.305-7.432-6.262-9.209-10.648-2.88-7.107.885-16.352-3.994-22.267-2.87-3.48-7.987-4.621-10.538-8.34-1.338-1.953-1.78-4.358-2.315-6.662-2.727-11.756-8.681-22.75-17.04-31.454a58.826 58.826 0 006.788 30.368c1.983 3.726 4.413 7.355 5.087 11.522 1.094 6.764-2.645 13.761-.944 20.401 1.945 7.592 10.516 12.634 10.965 20.46.38 6.613-5.355 12.455-4.888 19.065.2 2.815 1.521 5.422 2.99 7.831 5.165 8.477 12.713 14.293 24.106 14.038l13.957.409-9.702-32.243" fill="#f8f8f9"/><path d="M83.873 557.781s1.333.303 3.843-.104c1.25-.19 2.787-.53 4.527-1.168 1.732-.642 3.7-1.558 5.584-3.098.903-.8 1.806-1.783 2.286-3.083.473-1.295.553-2.716.633-4.173.067-1.459.06-2.978.3-4.515.227-1.539.822-3.052 1.68-4.497 1.629-2.9 4.345-5.652 5.206-9.581.933-3.866.224-8.04-.45-12.231-.671-4.181-1.325-8.74.252-13.111 1.472-4.372 4.51-8.33 6.012-13.258 1.496-4.98.755-10.318 1.047-15.593.132-2.648.628-5.299 1.774-7.757 1.115-2.476 2.668-4.815 3.876-7.421 2.447-5.272 2.85-11.233 3.494-17.076l.951-8.922c.316-3.018.566-6.025 1.5-8.934.844-2.928 2.072-5.766 3.29-8.655.594-1.453 1.225-2.907 1.593-4.519.263-1.646.334-3.186.423-4.802a56.588 56.588 0 00-.426-9.656c-.398-3.219-.997-6.408-1.362-9.634l-.065-.557-.076-.641-.57.289c-2.98 1.512-5.525 3.757-7.476 6.383-1.984 2.608-3.422 5.546-4.567 8.53-2.297 6.01-3.1 12.298-4.242 18.299-1.113 6.003-2.592 11.908-5.638 16.91-1.514 2.494-3.352 4.774-4.957 7.207-1.601 2.415-3.008 5.067-3.418 7.972-.792 5.908 2.49 11.075 1.843 16.306-.227 2.598-1.247 5.032-2.505 7.255-1.255 2.238-2.732 4.312-4.133 6.4-1.4 2.085-2.733 4.2-3.71 6.46a20.391 20.391 0 00-1.674 7.005c-.314 4.708.379 9.168.059 13.385-.26 4.223-1.72 8.057-3.379 11.488-1.668 3.443-3.528 6.557-5.084 9.576-.783 1.508-1.504 2.981-2.09 4.46-.621 1.475-.922 2.983-1.2 4.419a27.81 27.81 0 00-.058 7.964c.634 4.777 2.436 8.21 4.05 10.136.37.514.8.876 1.136 1.216.33.35.655.586.92.772.523.38.801.554.801.554.062-.07-1.152-.704-2.716-2.656-1.548-1.936-3.272-5.344-3.845-10.068a27.688 27.688 0 01.133-7.85c.285-1.404.593-2.884 1.21-4.315.585-1.442 1.314-2.908 2.103-4.4 1.568-2.992 3.448-6.095 5.152-9.56 1.692-3.448 3.21-7.358 3.498-11.69.343-4.307-.33-8.784-.001-13.38a19.71 19.71 0 011.643-6.771c.954-2.186 2.268-4.26 3.667-6.331 1.4-2.07 2.896-4.156 4.186-6.439 1.29-2.268 2.371-4.802 2.62-7.554.641-5.571-2.616-10.772-1.809-16.264.388-2.716 1.723-5.252 3.302-7.627 1.58-2.388 3.427-4.67 4.987-7.226 3.142-5.145 4.645-11.165 5.77-17.19 1.152-6.04 1.957-12.261 4.213-18.147 1.123-2.925 2.53-5.789 4.447-8.308 1.887-2.536 4.323-4.674 7.162-6.118l-.646-.352c.02.176.044.369.067.561.37 3.264.97 6.46 1.363 9.64.41 3.18.558 6.356.424 9.51-.082 1.557-.168 3.189-.402 4.658-.333 1.47-.95 2.92-1.542 4.359-1.21 2.878-2.455 5.757-3.314 8.75-.953 2.979-1.213 6.1-1.52 9.082l-.939 8.929c-.633 5.867-1.038 11.732-3.393 16.82-1.164 2.533-2.715 4.879-3.862 7.436-1.186 2.552-1.701 5.353-1.825 8.045-.274 5.387.457 10.649-.973 15.427-1.42 4.755-4.441 8.732-5.954 13.244-1.62 4.56-.911 9.268-.222 13.436.698 4.199 1.398 8.283.519 11.999-.785 3.753-3.422 6.48-5.085 9.46-.866 1.48-1.483 3.083-1.704 4.677-.235 1.59-.214 3.123-.268 4.57-.064 1.438-.138 2.848-.572 4.06-.431 1.207-1.28 2.165-2.148 2.948-1.814 1.518-3.747 2.453-5.448 3.114a24.022 24.022 0 01-4.464 1.239c-1.235.23-2.194.268-2.838.29-.641-.021-.976-.008-.976-.008" fill="#e3e3e2"/><path d="M127.032 393.137c-.015-.002-.06.14-.133.423l-.3 1.257c-.268 1.102-.586 2.763-1.101 4.838-.537 2.07-1.79 4.417-2.855 7.305a104.719 104.719 0 00-3.261 9.917c-1.043 3.727-1.963 7.866-2.924 12.298-.992 4.424-1.98 9.17-4.39 13.653-1.13 2.273-2.405 4.576-3.414 7.092-1.034 2.515-1.584 5.261-1.964 8.017-.638 5.532-1.621 11.151-2.912 16.9l-7.707 32.29-6.464 26.336-4.282 17.773-1.12 4.843-.269 1.265c-.056.287-.077.433-.063.437.016.005.067-.136.152-.414l.356-1.245 1.283-4.803 4.558-17.703 6.65-26.29 7.782-32.297c1.291-5.742 2.283-11.465 2.906-16.969.372-2.739.897-5.385 1.89-7.825.972-2.452 2.227-4.742 3.358-7.039 2.43-4.568 3.424-9.457 4.377-13.864.93-4.444 1.81-8.57 2.808-12.29.986-3.72 2.06-7.037 3.118-9.905 1.01-2.88 2.222-5.253 2.724-7.392.472-2.126.728-3.77.941-4.892l.214-1.274c.042-.29.057-.438.042-.442" fill="#e3e3e2"/><path d="M86.337 557.812c9.084-5.47 11.606-21.93 7.748-31.807-3.858-9.877-10.564-18.882-11.65-29.43-.836-8.108 1.774-16.45-.16-24.368-2.611-10.686-13.105-18.915-13.047-29.916.032-6.172 3.51-12 3.196-18.164-.386-7.56-6.225-13.528-9.858-20.17-5.562-10.166-5.992-22.221-7.938-33.644-1.947-11.424-6.374-23.645-16.54-29.206-1.441 9.714-3.958 16.378-3.08 29.525.314 4.721 5.852 13.732 6.657 24.077.481 6.184.826 12.379 1.239 18.568.402 6.023.827 12.155 3.018 17.779 1.68 4.31 4.36 8.219 5.615 12.67 2.36 8.378-.627 17.48 1.289 25.971 1.622 7.192 6.641 13.361 7.701 20.658 1.49 10.252-5.09 20.95-1.636 30.715 1.714 4.849 5.73 8.725 6.893 13.733.901 3.885-.034 8.01.784 11.912 1.32 6.29 13.357 11.112 19.769 10.686" fill="#e3e3e2"/><path d="M40.656 350.73c-.016 0-.001.187.042.546l.215 1.595c.217 1.4.463 3.458.952 6.117.525 2.675 1.921 5.68 3.044 9.308a135.974 135.974 0 013.414 12.461c1.066 4.671 1.966 9.842 2.911 15.408.975 5.524 1.975 11.63 4.772 17.414 1.295 2.905 2.746 5.813 3.84 8.914 1.12 3.09 1.647 6.416 1.978 9.838.51 6.873 1.466 14.02 2.794 21.217l8.1 40.51 6.973 32.991 4.775 22.227c.574 2.575 1.024 4.596 1.343 6.035.155.647.277 1.165.372 1.564.088.352.141.53.156.526.015-.002-.008-.188-.066-.545l-.285-1.582-1.178-6.069-4.497-22.284-6.784-33.033-8.026-40.496c-1.327-7.205-2.278-14.247-2.803-21.148-.338-3.441-.886-6.87-2.045-10.036-1.128-3.167-2.598-6.085-3.894-8.968-2.78-5.699-3.778-11.66-4.793-17.204-.976-5.556-1.914-10.74-3.026-15.42a130.841 130.841 0 00-3.555-12.479c-1.18-3.64-2.617-6.618-3.18-9.225-.533-2.61-.841-4.688-1.114-6.07l-.303-1.58c-.073-.355-.118-.535-.132-.533" fill="#eee"/><path d="M248.993 4.672c7.786-9.081 28.024-3.372 41.896 4.057 0 0 9.544 4.5 13.096 6.835l.115.027 32.43-4.05c2.635-.329 5.307.14 7.671 1.347l2.658 1.355c1.342.685 1.276 2.625-.11 3.217l-23.874 10.207c-.011.132-.012.161-.022.293 12.694 8.343 23.567 15.485 23.567 15.485l.353.234a21.02 21.02 0 0015.012 2.981l12.623-2.257c.64-.115 1.31-.087 1.91.16 2.243.921 2.678 3.868.845 5.401L362.54 62.189a7.726 7.726 0 01-8.189 1.091l-6.847-3.15-34.644-16.497 3.976 19.726a1.293 1.293 0 01-1.32 1.522l-1.633-.06a6.483 6.483 0 01-5.385-3.252l-13.963-26.661-40.87-19.46c-5.449-2.508-7.394-7.181-4.673-10.776" fill="#e3e3e2"/><path d="M21.892 91.985l102.834-2.322s-9.467-16.343-35.883-13.338c-25.228 2.872-26.75-7.541-39.633-8.536-12.883-.994-23.373 9.102-27.318 24.196M502.681 147.59h96.876s-8.566-15.587-33.502-13.32c-23.816 2.169-25.028-7.669-37.138-8.88-12.109-1.21-22.2 8.074-26.236 22.2M80.455 40.95h73.901s-6.536-11.891-25.558-10.16c-18.167 1.653-19.091-5.85-28.329-6.774-9.237-.924-16.935 6.159-20.014 16.935M502.776 196.472h48.343s-4.275-7.78-16.719-6.648c-11.884 1.081-12.488-3.827-18.532-4.43-6.043-.606-11.077 4.027-13.092 11.078" fill="#f8f8f9"/><path d="M478.604 62.657h48.344s-4.276-7.778-16.719-6.646c-11.885 1.081-12.489-3.828-18.533-4.432-6.043-.604-11.077 4.029-13.092 11.078" fill="#fcfdfd"/><path d="M601.16 557.89c0 .191-134.585.347-300.565.347C134.556 558.237 0 558.081 0 557.89c0-.19 134.556-.346 300.595-.346 165.98 0 300.565.156 300.565.346M509.041 322.765a3.779 3.779 0 00-3.761-3.385l-28.47.03a3.763 3.763 0 10.095 7.526l28.379.001a3.779 3.779 0 003.757-4.172" fill="#1d2a30"/><path d="M571.136 548.563c-.725 4.961 2.708 9.573 7.668 10.3a9.08 9.08 0 102.633-17.968 9.08 9.08 0 00-10.301 7.668" fill="#1d2a30"/><path d="M578.24 549.928l-5.541-11.44 2.901-1.845 5.37 11.941-2.73 1.344" fill="#365462"/><path d="M526.948 409.092l-34.387-89.716-6.528 3.277 33.326 88.898 7.589-2.459" fill="#1d2a30"/><path d="M555.608 547.733l50.76-20.165a3.683 3.683 0 002.064-4.783l-50.523-127.173c-3.977-10.007-15.312-14.896-25.318-10.92l-21.367 8.49c-10.007 3.974-14.896 15.309-10.921 25.317l50.524 127.171a3.682 3.682 0 004.781 2.063" fill="#f03658"/><path d="M550.712 546.307s-.076-.271-.261-.779c-.202-.539-.482-1.288-.843-2.258l-3.31-8.646c-2.918-7.527-7.12-18.367-12.31-31.748a303063.07 303063.07 0 01-18.352-47.05l-10.864-27.771-2.852-7.287c-1.013-2.384-1.347-5.008-1.065-7.595.614-5.185 4.228-9.97 9.244-11.909 4.996-1.99 10.902-.943 14.88 2.443 1.966 1.706 3.509 3.857 4.385 6.296l2.86 7.284c3.783 9.628 7.43 18.914 10.908 27.761a579122.14 579122.14 0 0018.51 46.99l12.546 31.655 3.447 8.592.914 2.227c.211.5.338.748.338.748s-.076-.268-.262-.779l-.842-2.254c-.768-2.008-1.88-4.915-3.31-8.646-2.917-7.526-7.12-18.365-12.309-31.746l-18.355-47.052c-3.461-8.855-7.097-18.146-10.864-27.779-.942-2.41-1.894-4.839-2.853-7.288-.903-2.523-2.537-4.825-4.605-6.612-4.187-3.57-10.414-4.676-15.678-2.576-5.285 2.041-9.093 7.087-9.736 12.548-.301 2.716.066 5.515 1.118 7.979l2.86 7.282c3.781 9.626 7.429 18.911 10.905 27.755l18.51 46.988c5.287 13.344 9.571 24.152 12.546 31.656l3.448 8.593c.393.956.696 1.698.915 2.227.21.5.337.75.337.75" fill="#1d2a30"/><path d="M547.43 455.928c.107.341 6.753-2.276 14.84-5.843 8.09-3.569 14.56-6.739 14.454-7.08-.108-.34-6.752 2.276-14.841 5.846-8.088 3.568-14.56 6.738-14.452 7.077" fill="#1d2a30"/><path d="M502.505 319.376l-5.945-11.736a6.11 6.11 0 00-3.125-2.913l-9.351-3.884-25.141-34.115-2.351 26.117 16.043 16.527s10.033 21.144 18.233 20.07c0 0-.276-3.105-1.644-5.462-2.672-4.604.175-4.604.544-4.584l6.808.015 5.93-.035" fill="#f9ad95"/><path d="M461.441 301.33c.762 1.138 6.984 9.557 6.984 9.557l17.608-12.81-6.398-6.252-18.194 9.506" fill="#f03658"/><path d="M489.224 323.98s4.579 2.604 5.15 4.83v1.314l-5.49-.799.34-5.345M495.367 326.492c-.754-.699-1.536-1.445-1.843-2.427-.31-.981.063-2.256 1.039-2.581.953-.316 1.926.37 2.672 1.041.942.85 1.84 1.751 2.684 2.698.701.782 1.409 1.772 1.157 2.792-.204.82-1.033 1.393-1.876 1.445-.843.05-1.668-.347-2.283-.925-.614-.58-1.042-1.328-1.405-2.091" fill="#f9ad95"/><path d="M500.023 326.093c-.755-.7-1.538-1.446-1.844-2.426-.31-.982.064-2.256 1.038-2.58.954-.318 1.927.366 2.672 1.038.944.851 1.84 1.751 2.687 2.698.699.784 1.407 1.773 1.155 2.793-.204.819-1.034 1.392-1.875 1.444-.843.052-1.668-.347-2.283-.925-.614-.58-1.044-1.327-1.406-2.09" fill="#f9ad95"/><path d="M486.033 306.057c-.013-.158 1.188-.094 2.554 1.091.649.672 1.069 1.592 1.598 2.592.487 1.013 1 2.247.904 3.657-.105 1.428-.881 2.531-1.438 3.47-.586.908-.895 1.846-1.098 2.644-.417 1.612-.096 2.629-.193 2.656-.077.058-.605-1.012-.288-2.755.148-.85.43-1.875 1.027-2.872.548-.972 1.22-2.004 1.298-3.193.086-1.196-.348-2.342-.792-3.335-.477-.987-.877-1.943-1.377-2.53-.532-.558-1.148-.92-1.537-1.137-.404-.224-.648-.238-.658-.288" fill="#f6865e"/><path d="M296.28 185.723l-18.684 59.749 54.98 57.437 50.388-13.096-86.684-104.09" fill="#f8f8f9"/><path d="M296.28 185.723s.141.154.425.486l1.266 1.495 4.902 5.835c4.299 5.126 10.519 12.546 18.275 21.798l62.077 74.256.347.415-.523.136-28.405 7.388c-7.475 1.943-14.83 3.852-21.983 5.71l-.194.051-.14-.146-54.927-57.488-.112-.116.048-.152 13.824-43.654 3.79-11.902.987-3.086c.224-.692.343-1.026.343-1.026-.643 2.084-7.227 23.462-18.425 59.829l-.063-.268 55.032 57.387-.336-.094 21.981-5.717c9.731-2.528 19.259-5.001 28.408-7.379l-.177.551-61.592-74.248-18.204-22.005-4.91-5.951-1.277-1.556c-.288-.353-.437-.55-.437-.55" fill="#1d2a30"/><path d="M297.99 225.136c2.615-4.513 9.434-5.856 13.566-2.673 3.441 2.65 5.019 7.696 9.153 9.024 2.992.962 6.278-.442 9.371.114 3.62.65 6.31 3.935 7.355 7.462 1.046 3.525.764 7.29.472 10.956l-17.888.248-22.03-25.131" fill="#e3e3e2"/><path d="M264.933 191.173l115.858 119.395-47.214-4.784-66.044-69.725-2.6-44.886" fill="#f8f8f9"/><path d="M264.933 191.173l2.831 44.872-.063-.145 66.123 69.65-.212-.105c11.672 1.182 23.795 2.407 36.217 3.663 3.767.381 7.506.761 10.995 1.115l-.283.586-115.608-119.636 116.104 119.154.666.682-.948-.096-10.996-1.113c-12.422-1.263-24.544-2.492-36.216-3.679l-.127-.012-.085-.092-65.964-69.8-.059-.062-.004-.083c-1.467-27.784-2.279-43.153-2.37-44.899" fill="#1d2a30"/><path d="M310.275 238.625c-3.58 4.116-3.058 10.696.004 15.212 3.061 4.515 8.093 7.298 13.186 9.254 4.116 1.58 9.194 2.588 12.602-.214M304.245 232.136c.219.999-1.033 1.739-2.05 1.641-1.018-.097-1.954-.656-2.974-.713-2.786-.155-4.302 3.147-6.578 4.761-2.659 1.886-6.827 1.076-8.587-1.666-1.517-2.366-1.479-5.851-3.877-7.315-1.328-.81-3.012-.699-4.54-.41-1.528.287-3.078.727-4.615.486-1.535-.243-3.07-1.435-3.064-2.99l-.83-1.3-1.982-32.95 39.097 40.456M360.713 308.15c2.619.451 5.118-.882 5.518-3.507.398-2.627-1.666-5.375-4.299-5.722-2.36-.313-4.801 1.059-7.075.35-2.581-.804-3.65-3.808-4.308-6.431-.656-2.621-1.565-5.63-4.072-6.641-4.156-1.679-8.529 3.636-12.856 2.462-3.209-.869-4.454-4.726-6.97-6.902-2.016-1.744-4.976-2.327-7.504-1.476-2.528.852-4.014 2.282-4.566 4.893l19.127 20.172 27.005 2.803" fill="#e3e3e2"/><path d="M329.037 509.94l-4.76 27.444s-29.493 4.379-30.866 9.365l52.88 11.14 9.172-42.457-26.426-5.492" fill="#f03658"/><path d="M340.165 542.493c-.284 0-.566-.06-.825-.186-.973-.479-1.579-2.022-1.016-2.949.377-.622 1.212-1.043 1.97-1.043.37 0 .72.1.994.325.844.556 1.225 1.755.797 2.676-.333.724-1.132 1.177-1.92 1.177m1.13-3.847" fill="#f9a8bf"/><path d="M346.364 557.546l.841-3.89-.841 3.89m-52.953-10.797c.06-1.246 1.433-1.865 2.18-2.11-1.198.682-1.983 1.39-2.18 2.11" fill="#fff"/><path d="M346.29 557.89l-1.626-.344 1.627.343.073-.343-.073.343" fill="#a5adad"/><path d="M346.29 557.89l-1.626-.344-51.253-10.797c.197-.72.982-1.428 2.18-2.11.281-.093.473-.132.473-.132l51.141 9.149-.841 3.89-.073.343" fill="#f9a8bf"/><path d="M323.477 536.935c-.046.26 1.22.649 2.318 1.746 1.122 1.071 1.542 2.327 1.801 2.275.25 0 .19-1.625-1.161-2.93-1.338-1.32-2.964-1.34-2.958-1.091M317.448 538.06c-.112.239.913.914 1.561 2.19.683 1.257.656 2.485.915 2.527.235.092.732-1.382-.103-2.954-.82-1.58-2.316-2.008-2.373-1.763M312.9 544.035c.223.105.853-1.111.488-2.665-.355-1.557-1.455-2.37-1.608-2.178-.192.182.433 1.105.713 2.387.31 1.272.155 2.376.407 2.456M325.256 530.801c.059.257 1.319.151 2.757.557 1.447.378 2.479 1.107 2.66.914.188-.155-.717-1.345-2.42-1.798-1.696-.47-3.081.096-2.997.327" fill="#1d2a30"/><path d="M353.287 525.505l.944-4.369.01.003-.954 4.366" fill="#b2b1b0"/><path d="M353.287 525.505l-26.04-5.238.854-4.89 26.13 5.759-.944 4.37" fill="#bc283b"/><path d="M326.319 525.281c-.026.107.961.48 2.65.544.842.032 1.854-.032 2.951-.267a12.86 12.86 0 001.69-.486c.278-.105.6-.203.931-.455.344-.208.65-.86.408-1.35-.185-.462-.626-.738-1.006-.827-.387-.095-.72-.083-1.023-.072a9.515 9.515 0 00-4.545 1.307c-1.466.877-2.088 1.753-2.011 1.822.1.11.868-.573 2.313-1.248a10.8 10.8 0 012.642-.832c.513-.089 1.057-.145 1.62-.15.59-.028 1.069.068 1.16.348.032.105.03.143-.122.284-.153.126-.41.226-.682.33a14.493 14.493 0 01-4.335.947c-1.604.104-2.616-.035-2.641.105" fill="#1d2a30"/><path d="M326.577 525.723c.083.058.79-.759 1.236-2.41a8.77 8.77 0 00-.085-4.726c-.2-.588-.43-1.368-1.408-1.694-.519-.13-1.039.188-1.261.506-.251.32-.35.62-.478.914a6.129 6.129 0 00-.377 1.782 6.244 6.244 0 00.555 2.974c.745 1.588 1.758 2.124 1.798 2.042.114-.112-.682-.799-1.196-2.284a6.248 6.248 0 01-.313-2.664c.052-.501.17-1.02.37-1.52.203-.546.509-.954.707-.852.264.05.622.569.743 1.062.172.531.287 1.063.355 1.574a9.713 9.713 0 01-.044 2.75c-.255 1.568-.734 2.476-.602 2.546" fill="#1d2a30"/><path d="M502.799 511.612L491.36 496.68l-.593-.775-19.481 14.49 18.04 19.817-.66 20.057c-10.048 2.599-11.556 7.62-11.556 7.62l20.885-.022 18.97-36.542-14.167-9.713" fill="#f03658"/><path d="M477.11 557.89l2.351-3.142 16.983-.952 17.507-34.538 3.014 2.067-18.969 36.542-20.885.022" fill="#f9a8bf"/><path d="M488.795 541.08c.154.213 1.358-.472 2.973-.428 1.617-.001 2.801.716 2.963.506.194-.157-.983-1.406-2.95-1.423-1.968-.036-3.178 1.182-2.986 1.345M489.128 536.105c.21.148 1.139-1.085 2.804-1.41 1.663-.344 2.995.434 3.132.217.07-.095-.17-.443-.757-.764-.575-.319-1.526-.56-2.556-.355-1.028.207-1.812.799-2.22 1.315-.418.523-.506.937-.403.997M488.988 529.716c.228.115.94-1.092 2.395-1.596 1.449-.524 2.76-.03 2.865-.264.056-.105-.208-.398-.785-.613-.568-.216-1.471-.314-2.386.012-.914.322-1.556.964-1.861 1.49-.315.531-.337.924-.228.97M483.395 524.765c.248.088.834-1.1 2.13-1.941 1.274-.878 2.595-.964 2.61-1.228.069-.241-1.55-.597-3.119.466-1.581 1.045-1.872 2.677-1.621 2.703M480.668 520.479c.105.069.795-.772 1.821-2.187l1.764-2.512c.303-.49.723-.916.968-1.69.108-.389.1-.85-.128-1.267-.214-.444-.801-.723-1.261-.659-.91.135-1.419.603-1.95 1.013-.51.442-.93.94-1.267 1.452a7.055 7.055 0 00-1.094 3.015c-.202 1.847.402 2.899.475 2.85.161-.032-.181-1.1.167-2.748a7.195 7.195 0 011.152-2.642c.317-.44.697-.864 1.146-1.236.439-.356 1.011-.748 1.44-.787.207-.009.306.046.396.188a.817.817 0 01.055.593c-.112.445-.515.96-.807 1.453l-1.598 2.621c-.888 1.507-1.386 2.473-1.279 2.543" fill="#1d2a30"/><path d="M479.92 521.1c.1-.007.019-1.104-1.113-2.359-1.1-1.188-3.514-2.456-6.192-1.114a.964.964 0 00-.323.747c.01.289.133.502.25.66.249.326.522.486.751.658.484.34.984.619 1.476.843a9.05 9.05 0 002.748.766c1.623.174 2.602-.143 2.58-.244-.012-.146-.989-.074-2.474-.397a10.298 10.298 0 01-2.487-.888 9.641 9.641 0 01-1.319-.81c-.22-.167-.44-.322-.54-.473-.102-.181-.076-.129-.042-.184.068-.077.346-.164.605-.224.257-.062.517-.104.775-.121a5.086 5.086 0 013.74 1.245c1.113.991 1.426 1.953 1.565 1.895" fill="#1d2a30"/><path d="M502.781 523.18a2.477 2.477 0 110-4.954 2.477 2.477 0 010 4.954" fill="#f9a8bf"/><path d="M493.973 500.09l-.43-.562.43.563" fill="#b2b1b0"/><path d="M477.11 516.792l-4.01-4.405 18.53-15.355 1.913 2.496.43.563-16.862 16.7" fill="#bc283b"/><path d="M421.185 164.644c11.056-3.861 23.243-4.413 34.603-1.572 5.084 1.273 10.24 3.381 13.501 7.484 3.856 4.852 4.338 11.47 4.928 17.64a213.702 213.702 0 006.911 37.133c2.824 10.108 6.405 20.058 7.932 30.44 1.525 10.383.823 21.496-4.468 30.56-8.155 13.974-25.501 20.152-41.677 20.423-8.515.14-17.224-1.107-24.776-5.047-7.55-3.94-13.824-10.838-15.667-19.154l18.713-117.907" fill="#f03658"/><path d="M441.648 306.761c-7.688 0-15.479-1.178-22.384-4.492 14.192-2.629 30.148-7.632 42.177-13.968l-19.304-45.43 6.922-44.095c1.19-11.924-4.579-23.744-15.162-29.367a30.148 30.148 0 00-5.002-2.101l29.632-3.461c4.138 1.321 8.088 3.344 10.762 6.709 3.856 4.852 4.338 11.47 4.928 17.64a213.702 213.702 0 006.911 37.133c2.824 10.108 6.405 20.058 7.932 30.44.453 3.083.71 6.23.708 9.368-.004 7.434-1.456 14.819-5.176 21.192a33.657 33.657 0 01-4.456 5.986c-4.641 4.99-10.69 8.589-17.312 10.946-6.35 2.26-13.228 3.379-19.91 3.491-.42.007-.843.01-1.266.01" fill="#841d29"/><path d="M443.415 177.444c-.104.119 2.233 1.59 4.626 5.19 1.21 1.782 2.403 4.057 3.61 6.655 1.226 2.587 2.492 5.511 4.301 8.351 1.812 2.83 4.103 5.23 6.684 6.688 2.563 1.504 5.381 1.865 7.572 1.481 2.216-.356 3.837-1.326 4.73-2.178.46-.416.762-.796.938-1.068.18-.272.26-.42.236-.438-.065-.05-.455.511-1.39 1.25-.92.74-2.495 1.572-4.6 1.832-2.093.282-4.685-.11-7.09-1.566-2.416-1.412-4.597-3.72-6.356-6.466-1.76-2.76-3.04-5.647-4.31-8.228-1.251-2.592-2.525-4.887-3.826-6.66-1.288-1.782-2.567-3.046-3.53-3.807-.96-.767-1.569-1.077-1.595-1.036" fill="#e3e3e2"/><path d="M466.848 302.337c.03-.001.043-.36.04-1.044l-.05-2.988c-.06-2.594-.194-6.346-.397-10.981-.404-9.27-1.134-22.068-2.242-36.183-1.111-14.12-2.39-26.877-3.438-36.096-.522-4.609-.977-8.336-1.324-10.906l-.416-2.96c-.105-.675-.173-1.028-.204-1.024-.029.002-.017.362.032 1.044l.256 2.976 1.051 10.934c.893 9.232 2.075 21.99 3.187 36.099a2055.842 2055.842 0 012.492 36.148l.669 10.964.21 2.981c.06.68.103 1.038.134 1.036" fill="#e3e3e2"/><path d="M463.521 245.65c.01.227 5.115.167 11.352-.613 6.243-.768 11.207-1.954 11.16-2.178-.048-.242-5.058.562-11.265 1.325-6.203.775-11.26 1.219-11.247 1.465" fill="#e3e3e2"/><path d="M467.647 245.527c-.11-.024-.436.886-.696 2.425-.128.772-.236 1.69-.275 2.732-.01.525.004 1.135.287 1.745.282.628.93 1.142 1.728 1.16.4.008.844-.186 1.093-.501.264-.316.36-.693.385-1.019.047-.661-.118-1.209-.237-1.705a15.763 15.763 0 00-.912-2.603c-.656-1.426-1.263-2.19-1.356-2.136-.112.064.301.926.79 2.362.242.718.5 1.582.706 2.557.1.493.217.999.17 1.45-.04.458-.274.735-.638.735-.9-.021-1.261-1.077-1.223-2.041-.005-.993.038-1.907.086-2.665.101-1.523.214-2.471.092-2.496" fill="#e3e3e2"/><path d="M410.187 169.493l53.554-6.256c7.016-.818 12.04-7.172 11.222-14.188l-1.162-9.934c-.82-7.016-7.172-12.04-14.188-11.222l-53.554 6.255c-7.018.82-12.04 7.172-11.222 14.19l1.16 9.934c.82 7.016 7.172 12.04 14.19 11.221" fill="#365462"/><path d="M458.732 128.733c.008-.025-.163-.112-.51-.221a6.057 6.057 0 00-1.578-.235c-1.375-.045-3.483.387-5.485 1.903-1.952 1.465-4.214 3.555-5.522 6.63-1.358 3.014-1.805 6.71-1.517 10.447.219 3.784 1.585 7.312 3.604 9.916 2.01 2.631 4.645 4.279 6.999 5.038 2.364.785 4.422.817 5.782.634a8.649 8.649 0 001.552-.312c.346-.108.523-.177.515-.206-.019-.074-.753.113-2.096.185-1.333.077-3.31-.05-5.55-.875-2.235-.802-4.691-2.416-6.57-4.942-1.887-2.51-3.165-5.859-3.379-9.499-.278-3.65.131-7.179 1.388-10.07 1.186-2.915 3.311-4.975 5.159-6.46 1.86-1.502 3.808-1.991 5.125-2.054 1.335-.059 2.063.203 2.083.121M428.12 131.44l8.257-.817c-2.194.606-4.053 2.17-5.298 4.078-1.247 1.907-1.923 4.139-2.274 6.391-1.478 9.5 3.572 19.723 11.699 24.86l-6.645.887s-19.067-17.036-5.739-35.399" fill="#1d2a30"/><path d="M418.748 148.925c4.24 1.171 9.01.222 12.479-2.482 3.468-2.704 5.553-7.098 5.454-11.494-.093-4.105-1.949-8.289-.673-12.192.876-2.681 3.123-4.769 3.876-7.488 1.124-4.056-1.328-8.154-3.67-11.652-1.503-2.244-3.037-4.522-5.131-6.228-2.095-1.704-4.871-2.78-7.511-2.22M380.89 95.53c.23 3.098-1.817 5.866-3.88 8.191-2.062 2.326-4.357 4.748-4.802 7.824-.79 5.451 4.547 10.511 3.445 15.908-.589 2.891-2.957 5.214-3.38 8.136-.408 2.826 1.107 5.591 2.983 7.743 1.879 2.15 4.165 3.944 5.825 6.267 1.75 2.446 2.712 5.35 3.967 8.084 1.255 2.733 2.945 5.445 5.588 6.88 3.975 2.156 9.543 1.141 12.59 4.481 2.946 3.23 6.554 3.739 10.185 6.173" fill="#1d2a30"/><path d="M428.524 100.268c.081-2.81-2.519-4.981-5.135-6.01-2.617-1.031-5.525-1.42-7.858-2.989-2.064-1.39-3.452-3.558-5.202-5.33-4.288-4.348-10.984-6.151-16.876-4.543-5.892 1.607-10.745 6.56-12.232 12.484-1.005 4.003-.318 8.735 2.836 11.395 3.663 3.088 9.091 2.401 13.784 1.441 4.692-.96 10.003-1.907 13.92.848 2.364 1.663 3.718 4.365 5.162 6.867 1.444 2.501 3.257 5.056 5.989 5.996 2.73.94 6.44-.684 6.545-3.57" fill="#1d2a30"/><path d="M417.44 100.845a4.704 4.704 0 014.197 4.78l-2.805 63.519c-.117 7.501-11.084 11.716-19.115 11.53-8.11-.19-8.372-4.167-8.473-11.305-.17-11.922-.156-16.398-.161-16.33 0 0-10.244-1.726-12.338-15.102-1.042-6.653-.684-17.554-.102-26.466.524-8.022 5.86-17.852 13.852-16.99l24.945 6.364" fill="#f9ad95"/><path d="M381.177 119.112c-.034.907.704 1.681 1.65 1.735.944.052 1.737-.638 1.77-1.543.035-.905-.704-1.683-1.646-1.735-.946-.053-1.74.639-1.774 1.543M380.996 117.148c.21.224 1.513-.735 3.359-.725 1.842-.018 3.196.934 3.396.709.098-.1-.116-.504-.706-.935-.578-.429-1.569-.846-2.718-.845-1.15.004-2.118.425-2.675.857-.568.434-.761.839-.656.939M399.55 119.587c-.033.905.705 1.68 1.65 1.733.943.052 1.737-.637 1.77-1.543.035-.905-.703-1.681-1.647-1.734-.946-.054-1.739.637-1.772 1.544M399.135 117.532c.212.225 1.514-.733 3.358-.724 1.844-.019 3.198.933 3.398.708.097-.1-.116-.504-.707-.935-.58-.428-1.568-.846-2.717-.844-1.151.004-2.118.426-2.675.856-.567.435-.763.839-.657.939M392.407 131.203c.008-.104-1.138-.304-2.996-.547-.471-.05-.918-.144-.996-.465-.111-.342.088-.85.318-1.398.446-1.138.911-2.333 1.402-3.585 1.945-5.104 3.356-9.301 3.15-9.379-.206-.076-1.952 3.999-3.898 9.104-.47 1.259-.918 2.459-1.343 3.607-.18.535-.488 1.141-.248 1.848.125.353.47.61.773.692.302.092.567.097.799.112 1.872.105 3.032.116 3.039.01" fill="#1d2a30"/><path d="M391.083 153.039s8.996.6 17.92-4.738c0 0-4.366 9.176-17.747 7.895l-.173-3.157M393.177 135.652c.666-.875 1.83-1.355 2.984-1.228.802.088 1.608.476 2.094 1.13.485.653.585 1.578.142 2.2-.5.698-1.541.858-2.422.606-.88-.252-1.636-.835-2.355-1.413-.199-.16-.401-.328-.525-.547-.126-.22-.15-.505.004-.687" fill="#f6865e"/><path d="M397.835 132.492c-.3-.017-.31 1.985-2.027 3.403-1.713 1.422-3.848 1.193-3.865 1.473-.028.125.474.39 1.376.417.884.031 2.176-.25 3.226-1.117 1.048-.87 1.5-2.032 1.571-2.853.077-.838-.145-1.334-.281-1.323M398.31 114.3c.182.501 2.026.268 4.19.533 2.17.223 3.913.86 4.203.411.128-.215-.176-.687-.88-1.175-.698-.486-1.814-.949-3.114-1.097-1.298-.145-2.489.059-3.28.377-.794.319-1.194.712-1.118.951M381.687 111.81c.322.418 1.594-.014 3.122-.031 1.53-.071 2.824.288 3.123-.15.132-.212-.072-.633-.636-1.03-.557-.396-1.49-.723-2.54-.694-1.05.032-1.96.41-2.493.838-.542.429-.72.861-.576 1.066" fill="#1d2a30"/><path d="M426.777 144.84c-3.677.741-7.682-.388-10.429-2.943-2.75-2.554-4.168-6.466-3.697-10.188.417-3.285 2.188-6.625 1.048-9.734-1.506-4.11-7.266-5.374-8.795-9.475-.888-2.384-.09-5.172-1.099-7.508-.946-2.196-3.257-3.461-5.506-4.275-2.25-.813-4.663-1.374-6.551-2.842s-3.065-4.239-1.847-6.299a126.791 126.791 0 0129.22 7.101c2.182.815 4.474 1.795 5.764 3.734 1.366 2.053 1.3 4.704 1.186 7.168-.56 12.006-1.12 24.013-1.682 36.02" fill="#1d2a30"/><path d="M433.985 155.953c-.104.016.182-1.29-.694-3.332-.43-1.009-1.184-2.148-2.282-3.258-1.096-1.116-2.574-2.132-4.324-3.06-1.741-.948-3.753-1.81-5.809-2.988-2.04-1.175-4.15-2.78-5.533-5.15-.688-1.172-1.118-2.572-1.12-4.014-.007-1.438.318-2.844.602-4.242.275-1.39.556-2.829.278-4.198-.243-1.383-1.199-2.527-2.47-3.247-1.262-.75-2.705-1.21-4.068-1.853-1.35-.632-2.717-1.531-3.458-2.892-.751-1.338-.951-2.834-1.004-4.226-.05-1.404.04-2.754.024-4.058-.014-1.299-.126-2.566-.538-3.688a5.768 5.768 0 00-2.026-2.743c-1.838-1.353-4.012-1.83-5.93-2.324-1.933-.483-3.713-1.056-5.046-2.003a6.088 6.088 0 01-2.403-3.314c-.316-1.108-.165-2.036.045-2.59.228-.557.462-.778.462-.778.033.02-.154.274-.33.824-.16.546-.256 1.424.08 2.465a5.882 5.882 0 002.366 3.073c1.288.871 3.012 1.396 4.944 1.846 1.914.468 4.161.908 6.157 2.34.995.704 1.808 1.765 2.255 2.992.46 1.225.58 2.562.602 3.892.027 1.333-.054 2.685 0 4.041.058 1.35.262 2.73.931 3.91.656 1.197 1.856 1.994 3.161 2.609 1.318.62 2.768 1.073 4.131 1.88.677.404 1.317.906 1.816 1.541.503.633.82 1.396.976 2.167.308 1.562-.01 3.069-.29 4.472-.291 1.406-.606 2.77-.605 4.101-.002 1.323.378 2.597 1.014 3.701 1.277 2.227 3.288 3.803 5.268 4.968 2.002 1.178 4.005 2.067 5.753 3.055 1.756.967 3.265 2.044 4.367 3.22 1.104 1.168 1.849 2.368 2.253 3.427.419 1.056.523 1.945.524 2.536.016.297-.021.522-.035.673-.016.15-.032.225-.044.225M395.01 165.128c.006.023-.22.09-.66.195-.218.062-.493.109-.823.141a7.066 7.066 0 01-1.139.075c-1.701.042-4.293-.407-6.873-2.158-1.27-.878-2.546-2.072-3.47-3.665-.965-1.581-1.432-3.521-1.784-5.496-.369-1.97-.682-4.075-1.733-5.91-1.041-1.846-2.98-3.078-4.725-4.655-1.815-1.552-2.976-3.792-3.276-6.028-.326-2.243.173-4.51 1.236-6.283 1.03-1.772 2.246-3.245 2.794-4.904.579-1.64.679-3.303.568-4.79-.27-2.99-1.14-5.325-1.69-6.918-.578-1.596-.918-2.475-.87-2.495.022-.009.135.199.33.603.192.405.466 1.005.793 1.795.628 1.573 1.581 3.896 1.927 6.973.145 1.53.076 3.275-.514 5.023-.568 1.777-1.814 3.322-2.781 5.028-.99 1.69-1.425 3.769-1.12 5.872a9.132 9.132 0 003.072 5.612c1.665 1.52 3.697 2.796 4.845 4.826 1.128 2 1.419 4.179 1.774 6.136.333 1.974.761 3.819 1.652 5.32.853 1.523 2.05 2.686 3.254 3.554 2.446 1.734 4.935 2.25 6.595 2.29 1.683.048 2.604-.22 2.617-.141" fill="#1d2a30"/><path d="M433.844 101.39s.156.155.223.549c.077.384-.031 1.022-.516 1.606a3.349 3.349 0 01-2.394 1.211c-1.098.025-2.237-.455-3.388-1.013-1.15-.58-2.417-1.092-3.902-1.152-1.47-.092-3.058.132-4.722.429-1.664.29-3.433.672-5.338.688-1.878.025-3.994-.539-5.476-1.999-1.5-1.422-2.355-3.233-3.152-4.89-.794-1.671-1.536-3.286-2.552-4.588-1.98-2.699-5.348-3.439-7.719-2.816-2.445.616-3.917 2.282-4.655 3.444-.75 1.204-.913 2.004-.98 1.98-.022-.006.006-.204.102-.574.102-.368.29-.905.646-1.545.692-1.24 2.159-3.052 4.764-3.781a7.818 7.818 0 014.295.085c1.508.43 2.972 1.423 4.05 2.81 1.093 1.375 1.862 3.031 2.662 4.691.8 1.65 1.643 3.383 3.012 4.676 1.352 1.324 3.223 1.832 5.005 1.827 1.803-.005 3.548-.361 5.228-.64 1.68-.28 3.32-.495 4.872-.372 1.56.084 2.958.683 4.076 1.285 1.132.587 2.196 1.056 3.163 1.067.957-.015 1.745-.504 2.199-.999.469-.505.609-1.057.58-1.416-.015-.365-.123-.546-.083-.562" fill="#365462"/><path d="M426.357 97.547c-4.364-1.008-7.717-5.332-7.605-9.81.11-4.477 3.673-8.629 8.081-9.42 2.128-.381 4.592.091 5.871 1.835 1.225 1.67 1.145 4.16 2.707 5.52 1.67 1.453 4.236.828 6.401 1.295 3.355.725 5.599 4.402 5.216 7.812-.381 3.412-2.997 6.325-6.173 7.625-3.176 1.301-6.806 1.155-10.103.197-3.295-.957-6.315-2.676-9.23-4.484" fill="#1d2a30"/><path d="M442.425 87.88c.068.02-.153 1.025-.98 2.453-.814 1.424-2.338 3.203-4.482 4.547-2.154 1.335-4.42 1.919-6.058 2.024-1.646.115-2.646-.13-2.634-.2.009-.12 1.01-.055 2.58-.288 1.564-.225 3.692-.853 5.744-2.125 2.044-1.283 3.545-2.916 4.437-4.222.9-1.306 1.281-2.234 1.393-2.189" fill="#365462"/><path d="M435.348 102.665c-.173.147-2.216-3.262-6.33-5.581-4.08-2.385-8.053-2.43-8.014-2.655-.001-.078.977-.184 2.545.03 1.564.208 3.706.817 5.812 2.022 2.104 1.214 3.71 2.755 4.678 4 .976 1.248 1.376 2.146 1.309 2.184" fill="#f03658"/><path d="M338.193 247.88l-21.557-4.196 3.89 5.535-9.26 4.62-7.73-3.619s.563 1.693 2.255 4.517c1.689 2.824 3.946 5.083 5.413 5.198 2.196.17 2.588.201 0 0 0 0 .473 2.625 2.863 5.173 1.425 1.521 5.173 3.915 9.74 2.697l14.517-5.245-.13-14.68" fill="#f9ad95"/><path d="M316.397 258.716c.132.125-1.062 1.241-2.98 1.453-1.914.23-3.332-.584-3.232-.737.074-.19 1.45.26 3.154.048 1.708-.181 2.944-.933 3.058-.764M319.215 263.321c.137.123-.79 1.168-2.395 1.58-1.604.426-2.921-.036-2.863-.209.038-.199 1.267-.079 2.687-.463 1.428-.358 2.441-1.062 2.57-.908M324.68 246.988c.033.101-.739.416-1.884 1.097-1.159.664-2.648 1.755-4.359 2.923-1.712 1.17-3.433 2.043-4.777 2.388-1.341.364-2.212.283-2.212.203-.01-.111.823-.206 2.061-.671 1.247-.448 2.85-1.341 4.542-2.496 1.69-1.155 3.264-2.21 4.514-2.781 1.243-.588 2.09-.746 2.115-.663" fill="#f6865e"/><path d="M455.777 283.756s.74.461 2.575 3.732c5.644 10.067 7.923 34.193-13.353 55.717-27.503 27.824-59.696 73.334-59.696 73.334L360.02 523.417l-38.186-8.27 19.677-111.09 53.967-100.098 60.298-20.203" fill="#1d2a30"/><path d="M497.907 490.613l-58.83-90.028-17.846-77.71-45.436 22.328 22.789 78.877 72.703 90.564 26.62-24.03" fill="#1d2a30"/><path d="M360.021 523.417c-.012-.002.018-.181.088-.528.082-.377.19-.885.327-1.532l1.323-5.876c1.188-5.13 2.889-12.494 4.99-21.577l16.72-71.13 1.496-6.314.016-.075.047-.058c16.675-21.322 31.855-40.192 43.035-53.594 5.596-6.694 10.166-12.042 13.406-15.656 1.598-1.826 2.898-3.189 3.76-4.126.419-.444.747-.794.995-1.055.227-.235.347-.35.356-.343.007.008-.096.14-.307.39-.234.272-.546.636-.945 1.097-.83.968-2.097 2.356-3.663 4.21-3.177 3.663-7.69 9.055-13.236 15.786-11.078 13.476-26.192 32.393-42.853 53.717l.063-.133-1.494 6.315-16.917 71.082-5.205 21.527-1.45 5.845-.394 1.516c-.094.341-.147.515-.158.512M429.008 312.175c.016.038-.305.233-.927.506-.618.276-1.548.607-2.733.884-2.353.564-5.832.78-9.436-.269-3.608-1.05-6.427-3.1-8.11-4.84-.85-.87-1.457-1.647-1.833-2.212-.376-.564-.544-.9-.506-.925.097-.071.932 1.173 2.68 2.784 1.729 1.608 4.492 3.514 7.962 4.525 3.471 1.01 6.823.884 9.144.456 2.34-.421 3.714-1.024 3.759-.91" fill="#365462"/><path d="M461.441 288.301c-23.004 12.116-60.361 19.359-72.297 14.442l-.417-44.327s-16.367-26.983-16.427-37.183c-.09-14.702 18.215-48.228 18.215-48.228l27.476-7.284c6.465-.028 11.697 1.452 15.906 3.688 10.583 5.623 16.352 17.443 15.162 29.367l-6.922 44.095 19.304 45.43" fill="#f03658"/><path d="M405.379 230.779c-6.322-11.21-7.307-25.28-2.611-37.26 4.697-11.982 14.983-21.634 27.239-25.559l1.95 1.408c.07-.01.138-.016.204-.016 1.439 0 1.935 2.433.84 3.52-1.144 1.135-2.925 1.2-4.52 1.45-7.154 1.118-12.685 7.25-15.293 14.006-2.607 6.756-2.848 14.152-3.275 21.381-.429 7.23-1.137 14.674-4.534 21.07" fill="#bc283b"/><path d="M433.897 169.41s-3.953-6.52-17.218-3.689c-8.866 1.892-28.222 20.484-22.822 50.372 5.402 29.888 19.88 40.462 19.88 40.462s-13.321-45.746-5.924-65.712c7.399-19.964 26.084-21.434 26.084-21.434" fill="#1d2a30"/><path d="M411.168 272.995c-1.84 0-3.683-.136-5.499-.38-5.704-.763-10.96-2.96-16.437-4.724a85.99 85.99 0 001.853.021c10.212 0 20.306-1.903 29.447-6.484 4.452-2.232 8.788-5.096 11.45-9.304 4.255-6.724 3.647-15.89 8.655-22.07.744 7.923.362 16.091-2.441 23.54-2.8 7.449-8.239 14.127-15.561 17.24-3.611 1.537-7.531 2.16-11.467 2.16" fill="#bc283b"/><path d="M405.71 222.603s-1.785 33.653 39.269 26.954l4.137 9.736s-43.165 9.116-49.284-26.626l5.877-10.064" fill="#1d2a30"/><path d="M443.121 180.763c3.583 5.114 4.516 11.634 3.044 17.702l-10.224 45.778c-4.393 12.878-16.912 20.697-24.69 21.744l-72.927 7.685v-27.177l67.693-10.056 3.174-37.07c.278-4.986 2.738-13.948 5.909-17.806 3.545-4.314 9.001-10.183 17.901-8.691 5.464.915 7.775 4.545 10.12 7.89" fill="#f03658"/><path d="M445.239 200.25c.022.003-.004.358-.078 1.033-.072.674-.193 1.666-.365 2.944-.345 2.552-.89 6.24-1.693 10.776-.8 4.536-1.86 9.921-3.226 15.857-.689 2.968-1.417 6.079-2.304 9.281-.896 3.196-1.98 6.491-3.574 9.663-1.582 3.172-3.672 6.027-6.166 8.275-2.478 2.261-5.246 3.994-8.028 5.288-5.576 2.616-11.098 3.576-15.669 4.07-4.596.472-8.332.496-10.904.523l-2.967-.013c-.677-.014-1.033-.031-1.033-.056 0-.023.355-.052 1.032-.084l2.961-.116c2.571-.11 6.298-.211 10.855-.742 4.539-.553 9.985-1.556 15.452-4.161 2.727-1.287 5.43-2.999 7.841-5.21 2.426-2.2 4.452-4.973 6.006-8.087 1.564-3.11 2.641-6.362 3.538-9.534.89-3.177 1.632-6.285 2.338-9.242a372.278 372.278 0 003.365-15.8 462.6 462.6 0 001.908-10.73l.495-2.922c.117-.668.19-1.016.216-1.014M407.983 244.243c-.182.058-.919-1.715-1.644-3.959-.727-2.247-1.167-4.115-.984-4.173.181-.06.918 1.713 1.644 3.958.726 2.246 1.166 4.114.984 4.174" fill="#1d2a30"/><path d="M412.128 243.2c-.104.15-1.92-.987-3.721-2.892-1.812-1.899-2.852-3.77-2.698-3.865.166-.112 1.436 1.54 3.202 3.386 1.752 1.856 3.337 3.21 3.217 3.371" fill="#1d2a30"/><path d="M344.673 245.55c-.001-.01.102-.037.304-.078l.904-.167 3.498-.581 12.969-2.033 43.619-6.594-.294.308c.24-2.528.496-5.2.755-7.909.877-9.623 1.799-18.775 2.252-27.136.339-4.2 1.128-8.143 2.265-11.713 1.14-3.556 2.635-6.802 4.767-9.231 4.325-4.71 9.161-7.207 12.721-7.655 1.775-.26 3.171-.081 4.091.072.457.1.8.206 1.03.268.231.066.347.106.345.116-.007.138-1.926-.73-5.424-.189-3.468.516-8.186 3.041-12.394 7.71-2.037 2.365-3.486 5.565-4.586 9.082-1.099 3.53-1.86 7.441-2.178 11.587-.417 8.362-1.32 17.534-2.197 27.154l-.761 7.911-.026.27-.266.038-43.652 6.37c-5.472.769-9.891 1.387-13 1.825l-3.514.46c-.37.041-.67.076-.914.102-.206.02-.312.026-.314.014" fill="#1d2a30"/><path d="M386.412 267.735c-.192.02-.964-6.147-1.727-13.772-.764-7.627-1.226-13.823-1.036-13.843.192-.019.964 6.147 1.727 13.775.761 7.624 1.225 13.821 1.036 13.84M439.788 226.403c-.001.096-1.772.116-4.636.072a534.264 534.264 0 01-11.183-.318c-4.368-.164-8.321-.35-11.177-.52-2.86-.17-4.623-.324-4.617-.42.006-.094 1.78-.116 4.641-.07 2.864.044 6.816.153 11.179.317 4.362.163 8.309.35 11.168.52 2.858.17 4.626.323 4.625.419M393.5 217.74c.007.092-1.145.261-3.023.397a82.614 82.614 0 01-7.341.174 81.943 81.943 0 01-7.332-.463c-1.867-.21-3.012-.424-3.001-.516.009-.099 1.169-.057 3.041.027 1.87.085 4.452.2 7.305.257 2.854.055 5.438.043 7.311.03 1.872-.01 3.033-.005 3.04.094M399.525 186.075c-.101.178-2.902-1.292-6.537-2.662-3.63-1.386-6.7-2.145-6.657-2.346.029-.175 3.213.288 6.904 1.697 3.694 1.393 6.386 3.16 6.29 3.31M452.484 269.267c.008.024-.196.125-.596.297l-1.757.724c-1.53.623-3.768 1.457-6.555 2.43-5.572 1.95-13.384 4.342-22.168 6.36-8.79 2.007-16.867 3.253-22.732 3.92-2.932.338-5.312.56-6.959.665l-1.897.113c-.433.019-.663.016-.665-.008-.002-.024.222-.068.653-.13l1.883-.245c1.638-.188 4.005-.482 6.924-.881a262.058 262.058 0 0022.637-4.112 261.988 261.988 0 0022.167-6.147 335.955 335.955 0 006.617-2.218l1.803-.602c.414-.129.636-.188.645-.166M448.136 189.525c-.005.191-7.867.094-17.555-.22-9.69-.313-17.54-.722-17.533-.913.007-.192 7.865-.095 17.556.219 9.688.313 17.537.722 17.532.914M354.185 271.692c-.192.007-.576-5.95-.858-13.303-.283-7.354-.356-13.322-.164-13.329.192-.008.576 5.948.858 13.303.282 7.353.355 13.321.164 13.329" fill="#fcfdfd"/><path d="M205.021 135.332c11.782-2.224 24.204-.93 35.274 3.679 4.953 2.062 9.853 4.982 12.53 9.633 3.166 5.5 2.644 12.273 2.303 18.61a218.934 218.934 0 001.343 38.649c1.32 10.664 3.43 21.282 3.394 32.028-.036 10.744-2.44 21.889-9.177 30.26-10.384 12.904-28.887 16.52-45.305 14.329-8.643-1.153-17.272-3.741-24.316-8.88-7.046-5.14-12.347-13.081-12.946-21.78l36.9-116.528" fill="#365462"/><path d="M225.579 151.677c-.122.104 2.02 1.95 3.894 5.96.954 1.987 1.815 4.472 2.642 7.287.846 2.807 1.684 5.96 3.082 9.11 1.404 3.14 3.356 5.92 5.75 7.79 2.365 1.912 5.162 2.708 7.44 2.653 2.298-.022 4.086-.76 5.12-1.486.529-.351.893-.69 1.113-.938.223-.248.327-.386.305-.408-.058-.06-.538.448-1.597 1.055-1.045.608-2.767 1.21-4.936 1.153-2.163-.032-4.727-.824-6.94-2.664-2.233-1.798-4.09-4.468-5.45-7.514-1.363-3.063-2.22-6.18-3.111-8.988-.874-2.815-1.814-5.332-2.859-7.326-1.033-2-2.136-3.474-2.995-4.392-.857-.921-1.425-1.329-1.458-1.292" fill="#1d2a30"/><path d="M230.285 281.696c.031.004.099-.359.2-1.05l.404-3.034c.335-2.635.771-6.456 1.271-11.179 1.003-9.446 2.212-22.516 3.24-36.976 1.025-14.464 1.673-27.574 2.016-37.068.172-4.746.28-8.589.321-11.245.011-1.252.022-2.267.028-3.059-.002-.7-.02-1.068-.049-1.069-.03 0-.073.365-.128 1.063-.05.79-.115 1.802-.193 3.053l-.602 11.23c-.501 9.482-1.248 22.58-2.27 37.034a2084.38 2084.38 0 01-2.983 36.977c-.41 4.647-.748 8.446-.992 11.203l-.239 3.05c-.045.698-.054 1.067-.024 1.07" fill="#1d2a30"/><path d="M235.55 223.795c-.026.233 5.151.948 11.586 1.109 6.437.173 11.644-.273 11.632-.507-.012-.252-5.208-.201-11.608-.373-6.399-.16-11.587-.481-11.61-.23" fill="#1d2a30"/><path d="M239.745 224.299c-.106-.042-.577.832-1.074 2.35a22.285 22.285 0 00-.694 2.723c-.09.53-.169 1.15.023 1.812.19.677.77 1.297 1.575 1.436.404.07.882-.059 1.182-.34.316-.279.471-.648.546-.972.148-.664.064-1.244.02-1.764a16.276 16.276 0 00-.527-2.773c-.447-1.546-.945-2.411-1.048-2.37-.123.048.164.983.441 2.511.135.764.264 1.679.326 2.697.025.515.066 1.044-.05 1.494-.112.457-.39.702-.758.646-.908-.158-1.112-1.281-.928-2.25.146-1.008.328-1.927.493-2.687.335-1.527.593-2.47.473-2.513M192.843 138.557l55.784 1.843c7.061.233 12.973-5.301 13.206-12.363l.358-10.844c.233-7.06-5.302-12.973-12.362-13.206l-55.784-1.843c-7.06-.233-12.973 5.301-13.206 12.361l-.359 10.846c-.233 7.06 5.301 12.973 12.363 13.206" fill="#1d2a30"/><path d="M248.504 104.693c.012-.024-.147-.138-.483-.302a6.153 6.153 0 00-1.56-.478c-1.385-.254-3.585-.138-5.844 1.091-2.2 1.187-4.808 2.957-6.6 5.872-1.836 2.845-2.85 6.517-3.128 10.345-.354 3.866.494 7.646 2.14 10.588 1.634 2.971 4.051 5.04 6.319 6.168 2.275 1.154 4.353 1.5 5.757 1.523a8.856 8.856 0 001.619-.08c.367-.056.556-.1.552-.13-.007-.078-.779 0-2.148-.133-1.361-.124-3.344-.554-5.488-1.73-2.141-1.154-4.381-3.16-5.899-6.006-1.528-2.828-2.313-6.413-1.973-10.132.273-3.736 1.225-7.246 2.939-9.982 1.644-2.772 4.108-4.534 6.205-5.755 2.113-1.239 4.16-1.437 5.503-1.299 1.36.143 2.057.519 2.089.44M217.1 102.77l8.484.431c-2.315.28-4.433 1.58-5.985 3.322-1.552 1.742-2.578 3.898-3.275 6.125-2.944 9.393.612 20.512 8.059 26.95l-6.863-.114s-16.712-20.15-.42-36.713" fill="#365462"/><path d="M175.653 86.793c-3.464-8.378-3.646-22.95 1.651-30.612 5.297-7.661 15.21-12.72 24.317-14.677 1.523-.328 3.16-.547 4.595.059 1.435.604 2.505 2.317 1.89 3.746 1.831-1.142 3.705-2.302 5.806-2.785 2.103-.483 4.515-.17 6.06 1.333 1.547 1.504 1.79 4.346.15 5.748 2.54-.926 5.6-.206 7.46 1.756 1.86 1.963 2.415 5.058 1.354 7.544-1.017 2.382-3.18 5.04-5.088 6.791-1.91 1.75-2.224 3.565-1.91 6.136" fill="#1d2a30"/><path d="M177.839 71.427l-2.411 51.3c-.41 8.724 6.563 16.016 15.296 15.994 8.15-.02 14.85-6.442 15.225-14.584.178-3.861.334-7.082.378-7.477 0 0 13.117-.615 14.668-13.496.749-6.225 1.248-19.172 1.564-30.89.34-12.585-9.058-23.315-21.575-24.666l-1.244-.133c-13.504-.664-21.612 10.434-21.901 23.952" fill="#f9ad95"/><path d="M206.368 116.476s-8.223-.216-16.3-6.592c0 0 2.572 8.07 15.568 8.297l.732-1.705" fill="#f6865e"/><path d="M217.87 80.508c-.07.976-.955 1.721-1.977 1.667-1.018-.055-1.789-.89-1.72-1.866.071-.976.956-1.722 1.975-1.668 1.021.055 1.792.891 1.721 1.867M219.105 78.305c-.254.215-1.538-.968-3.521-1.176-1.977-.237-3.541.626-3.73.36-.095-.12.185-.528.867-.92.674-.392 1.786-.724 3.019-.585 1.235.14 2.224.705 2.77 1.236.56.533.72.99.595 1.085M198.357 79.084c-.07.976-.956 1.723-1.977 1.667-1.019-.055-1.79-.888-1.72-1.866.07-.976.956-1.722 1.975-1.668 1.021.055 1.792.891 1.722 1.867M199.581 76.573c-.254.216-1.54-.968-3.521-1.176-1.977-.236-3.543.627-3.73.36-.095-.118.182-.526.867-.918.674-.394 1.786-.724 3.019-.587 1.235.14 2.224.707 2.77 1.236.558.533.72.99.595 1.085M205.19 92.05c.002-.114 1.258-.194 3.282-.234.512.001 1.001-.047 1.124-.383.159-.353.007-.921-.176-1.537l-1.081-4.016c-1.487-5.71-2.506-10.385-2.275-10.444.23-.057 1.624 4.525 3.11 10.237l1.017 4.031c.128.597.388 1.284.048 2.016-.178.364-.579.597-.912.65-.336.063-.622.04-.874.026-2.02-.108-3.268-.233-3.262-.347M199.21 92.79c.323.018.095 2.169 1.771 3.895 1.674 1.73 3.994 1.736 3.978 2.039.016.139-.556.363-1.527.284-.953-.07-2.307-.524-3.332-1.579-1.023-1.058-1.372-2.36-1.35-3.25.015-.908.313-1.416.46-1.388M200.932 68.861c-.255.518-2.207.048-4.561.079-2.358-.019-4.306.46-4.562-.056-.113-.247.27-.719 1.083-1.159.808-.438 2.06-.805 3.473-.81 1.412-.002 2.667.357 3.478.793.816.437 1.2.907 1.089 1.153M218.996 72.49c-.397.413-1.713-.202-3.353-.402-1.632-.256-3.064-.023-3.334-.53-.116-.243.152-.67.806-1.031.644-.36 1.684-.599 2.808-.443 1.124.157 2.057.67 2.578 1.193.531.526.672 1.01.495 1.212" fill="#1d2a30"/><path d="M177.861 81.09c-.209-.118-8.58-3.577-9.249 5.273-.67 8.848 8.353 7.694 8.387 7.442.034-.252.862-12.714.862-12.714" fill="#f9ad95"/><path d="M174.55 90.248c-.037-.03-.163.097-.433.197a1.554 1.554 0 01-1.153-.064c-.91-.413-1.584-1.957-1.505-3.556.037-.806.264-1.56.597-2.174.32-.627.773-1.047 1.25-1.096a.792.792 0 01.878.492c.099.257.03.429.075.448.024.024.201-.134.157-.506a.983.983 0 00-.305-.58c-.199-.189-.504-.3-.836-.289-.686-.005-1.347.576-1.714 1.25a5.257 5.257 0 00-.721 2.426c-.077 1.787.71 3.524 1.96 3.99.61.21 1.143.062 1.427-.127.292-.198.352-.392.324-.411" fill="#f6865e"/><path d="M229.48 56.005c.156 11.552-14.339 15.26-20.048 8.372-2.641-3.185-4.859-7.085-8.66-8.718-2.56-1.102-5.561-.847-8.13.232l-.078.032c-3.79 1.616-6.265 5.673-7.141 9.697-1.222 5.612-.696 10.684-2.567 15.779-.268.732-.58 1.518-1.247 1.924-1.129.69-2.622-.106-3.429-1.155-1.292-1.68-1.625-3.893-1.772-6.008-.337-4.816.07-9.724 1.627-14.293 1.557-4.571 4.304-8.792 8.132-11.735 4.782-3.676 11.092-5.17 17.078-4.432 5.988.74 11.624 3.625 16.023 7.756 2.039 1.916 3.867 4.164 4.741 6.823" fill="#1d2a30"/><path d="M220.593 48.981c0-.026.448-.073 1.22.144.766.212 1.838.772 2.799 1.851a7.54 7.54 0 011.856 4.625c.083 1.936-.72 4.03-2.139 5.7a11.164 11.164 0 01-5.073 3.368c-1.796.588-3.503.719-4.908.702a18.73 18.73 0 01-3.304-.354c-.77-.156-1.181-.293-1.172-.336.017-.124 1.719.258 4.473.207 1.371-.044 3.011-.223 4.71-.815a10.857 10.857 0 004.754-3.212c1.326-1.561 2.074-3.486 2.03-5.244-.039-1.762-.755-3.292-1.595-4.329-.852-1.045-1.815-1.635-2.519-1.912-.706-.283-1.141-.328-1.132-.395M214.983 44.476c0-.035.332-.075.832.213.482.284 1.078.963 1.236 1.995.154 1.036-.251 2.245-.935 3.335a14.77 14.77 0 01-2.681 3.2c-2.214 2.004-4.758 3.096-6.635 3.526-1.888.463-3.101.351-3.099.287-.01-.123 1.178-.185 2.971-.75a16.857 16.857 0 006.305-3.57c1.066-.944 1.926-2.007 2.607-3.028.676-1.016 1.061-2.067.987-2.947-.075-.881-.528-1.52-.908-1.83-.394-.316-.695-.375-.68-.431" fill="#365462"/><path d="M177.484 170.463l4.155-30.319-59.596 11.964-54.225-18.8L53.17 148.36l57.705 29.721a26.604 26.604 0 0016.541 2.11l50.067-9.728" fill="#f9ad95"/><path d="M67.818 133.308s-20.736-9.92-22.064-10.25c-1.022-.257-16.683-1.09-23.815-1.46-2.832-.145-3.251 4.06-.441 4.44l.267.029c3.982.332 12.749 2.324 12.749 2.324l-3.982 9.326a2.24 2.24 0 00.728 2.682l12.066 8.922a9.9 9.9 0 009.845-.961l5.319 1.09 9.328-16.142" fill="#f9ad95"/><path d="M30.471 138.26c.381 1.748 4.54 5.313 7.695 5.304.69-.001 1.404-.203 1.903-.68.499-.477.73-1.263.442-1.89-.187-.41-.557-.703-.913-.98l-7.063-5.486" fill="#f9ad95"/><path d="M32.535 134.528c.059-.076 1.182.687 2.95 1.98l3.082 2.3c.58.46 1.172.845 1.818 1.432.314.297.595.785.595 1.29.015.5-.16.98-.461 1.373-.64.789-1.629 1.029-2.466.994-.851-.025-1.627-.256-2.313-.549a11.838 11.838 0 01-3.292-2.132c-.827-.75-1.393-1.47-1.695-2.024-.307-.556-.32-.93-.282-.932.058-.01.154.31.51.788.353.48.95 1.12 1.786 1.795.831.673 1.913 1.393 3.212 1.912.646.258 1.36.45 2.088.462.71.028 1.478-.205 1.904-.741.43-.563.438-1.304-.07-1.759-.513-.48-1.182-.954-1.726-1.404l-2.992-2.417c-1.69-1.393-2.706-2.292-2.648-2.368M47.225 143.645c-.062.056-.466-.237-.902-.902-.437-.66-.849-1.719-.908-2.942-.054-1.222.26-2.316.635-3.012.373-.702.747-1.032.815-.981.175.104-.888 1.716-.756 3.961.074 2.248 1.281 3.756 1.116 3.876" fill="#f6865e"/><path d="M38.932 138.856c.629.979 1.933 1.465 3.048 1.14 1.117-.327 1.953-1.439 1.956-2.601.004-1.522-1.214-2.731-2.343-3.75L36.4 128.96" fill="#f9ad95"/><path d="M36.401 128.96c.064-.072.891.557 2.176 1.633l2.233 1.915c.813.74 1.797 1.479 2.617 2.563.398.541.719 1.168.81 1.84a2.925 2.925 0 01-.344 1.881c-.597 1.09-1.76 1.625-2.673 1.548-.922-.053-1.564-.487-1.9-.836-.344-.357-.421-.63-.388-.648.048-.032.202.183.566.444.354.257.959.565 1.73.548.756.004 1.642-.467 2.1-1.359.493-.88.282-2.056-.46-3.008-.724-.964-1.69-1.73-2.487-2.498l-2.133-2.026c-1.2-1.168-1.912-1.926-1.847-1.997" fill="#f6865e"/><path d="M47.815 128.175c-4.177.99-8.19 2.669-11.828 4.946-.218.136-.45.296-.519.542-.098.345.167.685.447.909 1.07.855 2.546 1 3.912.887 1.366-.114 2.715-.45 4.085-.419 2.37.052 4.565 1.187 6.852 1.816 2.286.63 5.072.615 6.64-1.164" fill="#f9ad95"/><path d="M57.405 135.692c.017.016-.056.124-.217.32a3.669 3.669 0 01-.86.696c-.822.516-2.25.883-3.968.707-1.74-.13-3.631-.962-5.722-1.575-1.05-.301-2.167-.519-3.328-.45-1.169.057-2.39.347-3.713.433-1.307.074-2.716-.096-3.794-.911-.266-.2-.554-.455-.667-.89a.893.893 0 01.11-.675c.12-.192.272-.31.407-.404a37.024 37.024 0 016.884-3.379 32.143 32.143 0 013.829-1.156c.92-.212 1.44-.276 1.45-.233.029.114-2.005.584-5.1 1.846a42.337 42.337 0 00-5.254 2.591c-.47.276-.971.579-1.43.876-.217.157-.274.257-.24.383.033.148.2.348.417.496.883.664 2.123.834 3.348.764 1.237-.078 2.47-.367 3.72-.422 1.261-.064 2.466.19 3.541.518 2.153.672 3.96 1.52 5.597 1.7 1.63.226 2.973-.044 3.783-.456.827-.402 1.157-.831 1.207-.779M122.971 162.595c-.174.046-.882-2.318-.964-5.339-.096-3.023.473-5.424.65-5.388.2.03-.05 2.423.044 5.367.078 2.944.469 5.318.27 5.36" fill="#f6865e"/><path d="M175.115 126.072L158.2 145.129s-9.032 65.807-9.676 70.968c-.645 5.162-2.361 21.691-2.361 26.208 0 4.516-3.75 36.83-3.75 36.83s71.755 14.898 83.76 0l-3.734-27.667 3.25-68.635s5.383-47.637-19.74-58.696c0 0-15.882 9.575-30.835 1.935" fill="#f03658"/><path d="M217.47 130.893s-4.949-4.888-20.751-.794c-16.652 4.314-25.442 19.902-21.308 64.034 3.406 36.39 17.8 41.628 17.8 41.628s-7.884-54.893-6.53-77.856c1.711-29.004 30.79-21.784 30.79-21.784 4.141-1.338 0-5.228 0-5.228" fill="#1d2a30"/><path d="M175.115 126.072l-14.619 4.027-32.883 20.13 9.364 29.735 19.31-2.115 18.828-51.777" fill="#f03658"/><path d="M156.092 146.716c.19.017-.641 10.648-1.859 23.739-1.216 13.097-2.358 23.696-2.549 23.678-.19-.017.641-10.645 1.859-23.741 1.217-13.092 2.358-23.693 2.549-23.676M223.025 239.124s-4.672 15.003-21.17-9.768c-16.499-24.77-14.178-13.693-14.178-13.693l-3.382 4.022s18.146 40.876 38.508 34.47l.222-15.031" fill="#1d2a30"/><path d="M142.415 179.368l12.696-24.883c-.447 4.203-.999 9.783-1.568 15.907-.256 2.745-.494 5.381-.71 7.835l-10.418 1.141" fill="#bc283b"/><path d="M152.833 178.227c.216-2.454.454-5.09.71-7.835.569-6.124 1.121-11.704 1.568-15.907l.316-.618-2.262 24.324-.332.036" fill="#161c1e"/><path d="M197.559 251.765c-5.111 0-10.116-2.145-14.703-4.54a122.24 122.24 0 01-33.397-25.646l.241-3.014c8.427 7.322 17.173 14.832 28.597 16.698 1.44.234 2.896.357 4.348.357 2.756 0 5.495-.443 8.066-1.397 1.514 1.18 2.5 1.538 2.5 1.538l-.044-.302c3.454 5.129 7.744 10.468 12.545 14.238-1.848.987-3.847 1.662-5.943 1.93-.738.094-1.476.138-2.21.138" fill="#bc283b"/><path d="M193.21 235.761s-.985-.358-2.5-1.538c.437-.163.867-.339 1.294-.531.376.583.764 1.175 1.163 1.767l.044.302" fill="#161c1e"/><path d="M213.628 242.347c-3.003-1.771-6.864-5.62-11.773-12.991a276.93 276.93 0 00-1.646-2.443c6.135-8.757 5.422-21.66 11.151-31.11 1.381-2.276 3.377-4.472 6.013-4.847.243-.035.496-.05.758-.05 2.569 0 5.81 1.525 5.81 1.525a6.376 6.376 0 00-4.541 6.114 66.28 66.28 0 01-.09 3.747c-.374 6.49-.375 15.992-1.177 23.112-.726 6.461-.289 9.233-3.337 14.977-.356.671-.745 1.327-1.168 1.966" fill="#bc283b"/><path d="M205.712 249.697c-4.801-3.77-9.09-9.109-12.545-14.238-.399-.592-.787-1.184-1.163-1.767.428-.193.85-.401 1.267-.625 3.024-1.628 5.242-3.731 6.938-6.154a276.93 276.93 0 011.646 2.443c4.909 7.37 8.77 11.22 11.773 12.99-2.012 3.046-4.743 5.658-7.916 7.351" fill="#161c1e"/><path d="M171.572 177.567c0 10.518-2.832 19.045-6.327 19.045-3.496 0-6.329-8.527-6.329-19.045 0-10.518 2.833-19.043 6.33-19.043 3.494 0 6.326 8.525 6.326 19.043" fill="#fcfdfd"/><path d="M168.63 508.72l1.451 31.348s-31.373 12.002-31.669 17.821l60.88-.632-.257-48.934-30.404.397" fill="#f03658"/><path d="M188.327 541.868c-.16 0-.32-.018-.478-.057-1.186-.288-2.229-1.837-1.836-2.995.311-.915 1.388-1.68 2.362-1.68.257 0 .506.053.732.172l-.008-.003c1.062.404 1.774 1.631 1.53 2.748-.226 1.036-1.258 1.815-2.302 1.815" fill="#f9a8bf"/><path d="M138.384 557.597c-.019-1.235 1.205-2.141 1.912-2.561-1.02.925-1.679 1.792-1.845 2.561h-.067" fill="#fff"/><path d="M138.412 557.89a1.828 1.828 0 01-.028-.293h.067a1.716 1.716 0 00-.039.292l29.997-.31-29.997.31" fill="#a5adad"/><path d="M199.292 557.257l-.027-4.878h.002l.025 4.878" fill="#fff"/><path d="M138.412 557.89c.004-.097.017-.194.039-.293.166-.769.825-1.636 1.845-2.561.287-.17.488-.26.488-.26l58.483-2.397.025 4.878-30.883.322-29.997.31" fill="#f9a8bf"/><path d="M169.092 539.768c.013.297 1.501.417 2.973 1.357 1.498.903 2.264 2.183 2.538 2.062.273-.06-.188-1.834-1.992-2.94-1.792-1.124-3.587-.751-3.519-.48M162.735 542.476c-.066.288 1.228.781 2.249 2.027 1.06 1.217 1.328 2.574 1.624 2.559.28.042.468-1.7-.833-3.227-1.287-1.536-3.038-1.643-3.04-1.359M159.187 550.155c.27.06.669-1.428-.111-3.05-.77-1.625-2.177-2.252-2.301-2.004-.166.247.746 1.111 1.366 2.451.652 1.324.75 2.577 1.046 2.603M169.553 532.588c.128.27 1.488-.156 3.17-.059 1.684.062 2.996.614 3.149.356.17-.216-1.119-1.303-3.1-1.389-1.981-.101-3.367.86-3.219 1.092" fill="#1d2a30"/><path d="M199.096 519.932l-.027-5.036h.012l.015 5.036" fill="#b2b1b0"/><path d="M169.177 520.516l-.252-5.588 30.144-.032.027 5.036-29.919.584" fill="#bc283b"/><path d="M169.377 526.257c-.001.123 1.175.295 3.05-.046.932-.172 2.03-.49 3.18-1.012a14.47 14.47 0 001.741-.948c.279-.184.61-.37.913-.727.326-.315.506-1.104.12-1.584-.317-.463-.87-.66-1.309-.665-.45-.01-.812.085-1.143.169a10.74 10.74 0 00-4.681 2.544c-1.399 1.324-1.87 2.439-1.767 2.495.135.098.814-.84 2.239-1.935a12.212 12.212 0 012.704-1.561 11.636 11.636 0 011.744-.558c.644-.174 1.192-.185 1.361.1.06.108.07.15-.064.34-.137.176-.397.35-.67.532-.536.356-1.075.668-1.603.938a16.916 16.916 0 01-2.935 1.16c-1.738.505-2.886.597-2.88.758" fill="#1d2a30"/><path d="M169.77 526.68c.106.044.683-1.027.773-2.953a9.895 9.895 0 00-1.246-5.178c-.364-.597-.806-1.398-1.961-1.518-.603-.016-1.099.458-1.265.864-.196.413-.234.767-.302 1.121a7.009 7.009 0 001.355 5.187c1.205 1.566 2.45 1.91 2.475 1.81.097-.151-.946-.714-1.871-2.221a7.023 7.023 0 01-.995-2.856 6.269 6.269 0 01.039-1.761c.087-.648.325-1.174.568-1.11.303-.008.823.474 1.076.987.319.543.573 1.099.773 1.647.392 1.096.57 2.146.622 3.036.102 1.785-.204 2.902-.042 2.945" fill="#1d2a30"/><path d="M227.617 489.687l24.618 19.46s-11.515 31.558-7.315 35.598l39.448-46.376-37.112-31.895-19.639 23.213" fill="#f03658"/><path d="M263.785 497.284c-.826 0-1.67-.336-2.048-.984-.613-1.054-.248-2.87.884-3.321a2.392 2.392 0 011.131-.275c.747 0 1.499.323 1.947.924.729.979.501 2.544-.496 3.25-.384.273-.898.406-1.418.406" fill="#f9a8bf"/><path d="M244.92 544.745c-1.201-.73-1.076-2.424-.919-3.294.034 1.553.312 2.71.919 3.294l39.448-46.376-39.448 46.376m39.448-46.376l-3.7-3.18 3.7 3.18" fill="#fff"/><path d="M244.92 544.745c-.607-.583-.885-1.741-.919-3.294.06-.327.124-.538.124-.538l36.543-45.724 3.7 3.18-39.448 46.376" fill="#f9a8bf"/><path d="M251.359 509.699c.233.185 1.3-.86 2.974-1.355 1.664-.539 3.134-.279 3.22-.564.135-.245-1.506-1.06-3.525-.424-2.024.616-2.919 2.214-2.67 2.343M249.233 516.274c.176.238 1.396-.414 3.008-.369 1.612-.001 2.814.686 2.995.45.217-.181-.976-1.467-2.981-1.486-2.006-.036-3.232 1.216-3.022 1.405M252.705 523.988c.224-.164-.64-1.443-2.374-1.914-1.732-.486-3.13.165-3.023.42.077.287 1.328.166 2.747.576 1.426.376 2.437 1.125 2.65.918M246.241 504.641c.287.08.859-1.224 2.034-2.43 1.152-1.231 2.429-1.86 2.334-2.143-.052-.27-1.717-.012-3.082 1.428-1.375 1.428-1.559 3.104-1.286 3.145" fill="#1d2a30"/><path d="M256.037 474.02l-3.796-3.263.008-.009 3.788 3.272" fill="#b2b1b0"/><path d="M236.881 497.01l-4.382-3.475 19.742-22.778 3.796 3.263.024.02-19.18 22.97" fill="#bc283b"/><path d="M241.348 500.623c.092.082.992-.694 1.963-2.332.482-.816.962-1.854 1.321-3.066.177-.605.325-1.253.427-1.936.044-.33.121-.7.05-1.165-.022-.452-.502-1.105-1.116-1.13-.558-.065-1.07.225-1.362.552-.302.333-.468.669-.62.974a10.75 10.75 0 00-1.15 5.203c.082 1.923.615 3.01.724 2.97.163-.04-.101-1.165.008-2.96.055-.894.226-1.952.595-3.064a11.32 11.32 0 01.723-1.684c.289-.601.641-1.02.966-.961.123.025.16.046.218.272.041.219.002.528-.04.855-.082.638-.2 1.25-.343 1.824a16.866 16.866 0 01-1.05 2.977c-.758 1.643-1.44 2.57-1.314 2.67" fill="#1d2a30"/><path d="M241.923 500.604c.102-.05-.326-1.19-1.722-2.52a9.9 9.9 0 00-4.726-2.455c-.69-.117-1.584-.31-2.432.484-.408.444-.375 1.13-.178 1.522.183.42.427.678.648.962.47.547 1.01.988 1.564 1.332 1.111.694 2.276.99 3.243 1.05 1.972.114 3.047-.6 2.985-.683-.049-.173-1.157.244-2.901-.044a7.033 7.033 0 01-2.808-1.121 6.282 6.282 0 01-1.305-1.186c-.432-.492-.672-1.014-.464-1.156.192-.234.896-.31 1.45-.165.619.116 1.206.288 1.748.495 1.086.422 1.996.978 2.702 1.522 1.414 1.094 2.057 2.058 2.196 1.963M159.363 376.096s1.628-74.867 0-74.867c-1.627 0-13.17-6.589-13.17-6.589l-14.422 111.27s-1.3 12.49 14.158 21.293c15.458 8.804 84.572 70.255 84.572 70.255l23.387-28.482s-45.479-47.404-64.056-63.067c-14.535-12.256-30.47-29.813-30.47-29.813" fill="#1d2a30"/><path d="M201.732 358.655l1.575-11.854s11.393-23.96 13.021-34.222c1.627-10.266.553-32.336.553-32.336H144.95s.308 81.206 8.99 103.992c0 0 4.406 43.604 5.054 47.257 1.374 7.756 6.168 87.143 6.168 87.143l36.271-1.323s3.15-72.985.632-93.704c-1.247-10.259-1.837-21.192-2.107-30.239a214.758 214.758 0 011.775-34.714" fill="#1d2a30"/><path d="M146.916 303.924c.012 0 .027.121.047.357.017.278.038.623.066 1.051l.191 4.039c.137 3.508.395 8.582.756 14.848.723 12.534 2.065 29.825 4.045 48.877 1.976 19.06 4.1 36.277 5.636 48.74l1.807 14.76.461 4.017.103 1.047c.02.237.024.359.012.36-.012.003-.04-.117-.081-.35l-.172-1.038-.591-4-2.025-14.733c-1.66-12.448-3.863-29.662-5.84-48.731-1.982-19.061-3.248-36.375-3.846-48.921-.298-6.274-.481-11.355-.536-14.867l-.06-4.044c.002-.43.002-.775.002-1.052.005-.237.013-.36.025-.36M199.884 400.044c.025-.003.096.401.21 1.176.117.835.273 1.967.47 3.392.363 2.95.815 7.232 1.225 12.532.856 10.599 1.503 25.277 1.743 41.495.19 16.223-.064 30.913-.641 41.531-.272 5.31-.612 9.6-.898 12.56-.161 1.428-.288 2.563-.381 3.402-.095.776-.156 1.181-.18 1.18-.024-.001-.01-.415.04-1.195.063-.84.145-1.977.25-3.412.205-2.961.469-7.25.678-12.559.45-10.61.628-25.288.439-41.5-.242-16.203-.81-30.871-1.539-41.467-.348-5.299-.725-9.58-1.005-12.536l-.339-3.404c-.07-.78-.095-1.192-.072-1.195" fill="#365462"/><path d="M214.033 129.22s11.774 3.141 14.279 20.684c2.507 17.544-2.137 22.556-2.137 22.556s1.912-32.66-12.718-37.117l.576-5.484M133.821 186.523l-60.78-1.176.71 2.946 59.774.88.296-2.65" fill="#1d2a30"/><path d="M207.507 134.728c-2.263-.601-4.66-.308-6.819.6-4.927 2.073-13.937 8.035-14.58 24.85l-1.036 27.167 38.87 5.086s3.3-52.455-16.435-57.703" fill="#f03658"/><path d="M135.987 192.283L185.26 207.1l.736-19.841 29.51 4.299-1.647 32.261a21.01 21.01 0 01-31.384 17.5l-52.367-29.776 5.878-19.261" fill="#f9ad95"/><path d="M223.941 192.43c-.008-.007-.02-.165-.034-.463l-.056-1.31c-.042-1.184-.102-2.852-.176-4.978l-.579-18.159c-.11-3.82-.232-8.001-.363-12.485l-.094-3.422-.178-1.72c-.12-.569-.208-1.152-.354-1.722a17.871 17.871 0 00-3.214-6.479c-3.066-3.88-8.004-6.837-13.448-6.936-2.708-.07-5.424.76-7.801 2.228-2.39 1.46-4.407 3.557-6.024 5.941-2.353 3.438-3.675 7.398-4.443 11.327-.766 3.944-1.014 7.883-1.205 11.704l-.608 21.397-.253-.297 28.096 3.833 7.898 1.11 2.098.305c.477.073.729.116.738.127.011.012-.221-.008-.68-.059l-2.044-.235-7.846-.952-28.336-3.549-.262-.033.007-.264c.161-6.551.279-13.744.527-21.415.182-3.83.422-7.8 1.196-11.804.773-3.984 2.122-8.048 4.542-11.584 1.663-2.45 3.747-4.62 6.236-6.14 2.47-1.527 5.34-2.399 8.174-2.32 5.698.119 10.776 3.195 13.941 7.221 1.58 2.042 2.701 4.352 3.301 6.723.151.593.24 1.195.359 1.784l.177 1.787.076 3.46.256 12.614.316 18.19.067 4.904.007 1.261c-.002.28-.006.42-.014.41" fill="#1d2a30"/><path d="M136.977 192.857l-11.837-8.754c-2.159-1.595-5.525-1.272-8.199-1.512-5.302-.478-14.048 2.73-14.38 3.281l3.572 2.856-23.008-.707s1.98 4.804 8.412 5.299c0 0 .742 5.195 7.422 6.185 0 0 1.732 4.206 5.443 5.443 0 0 .742 4.7 6.68 4.453l20.15 2.284 5.745-18.828" fill="#f9ad95"/><path d="M105.935 194.176c-.011.192-3.274.155-7.286-.081-4.014-.236-7.257-.583-7.246-.774.011-.192 3.273-.156 7.287.08 4.013.238 7.256.583 7.245.775M111.75 199.712c0 .19-2.852.347-6.37.347-3.52 0-6.372-.156-6.372-.347 0-.192 2.852-.347 6.372-.347 3.518 0 6.37.155 6.37.347M118.01 204.947c0 .192-2.853.346-6.371.346-3.52 0-6.371-.154-6.371-.346 0-.191 2.852-.347 6.37-.347 3.519 0 6.371.156 6.371.347M188.515 217.163c-.174.073-1.231-2.063-2.191-4.834-.965-2.769-1.459-5.101-1.277-5.152.188-.053.976 2.176 1.932 4.924.953 2.75 1.716 4.988 1.536 5.062M192.085 215.252c-.158.115-1.75-1.81-3.72-4.17-1.966-2.363-3.572-4.278-3.429-4.413.136-.129 1.98 1.586 3.963 3.968 1.985 2.38 3.338 4.504 3.186 4.615" fill="#f6865e"/></svg>