<svg height="496pt" viewBox="0 -80 496 496" width="496pt" xmlns="http://www.w3.org/2000/svg"><g fill="#ccd1d9"><path d="m296 280v-112h192v32h-16c-8.800781 0-16 7.199219-16 16v16c0 8.800781 7.199219 16 16 16h16c0 17.679688-14.320312 32-32 32h-16c0-26.480469-21.519531-48-48-48s-48 21.519531-48 48zm0 0"/><path d="m10.480469 192.960938 8.71875-24.960938h84.800781v64c-26.480469 0-48 21.519531-48 48h-16c-15.519531 0-28.398438-11.039062-31.359375-25.679688 2.320313.960938 4.800781 1.679688 7.359375 1.679688 13.28125 0 24-14.320312 24-32s-10.71875-32-24-32c-1.921875 0-3.761719.398438-5.519531.960938zm0 0"/><path d="m200 168v112h-48c0-26.480469-21.519531-48-48-48v-64zm0 0"/></g><path d="m248 136h-48v144h96v-144zm0 0" fill="#fcd770"/><path d="m296 72v64h-96v-64zm0 0" fill="#e6e9ed"/><path d="m485.199219 72h-428.398438c14.800781-19.761719 38.320313-32 63.917969-32h319.28125c20.878906 0 38.71875 13.359375 45.199219 32zm0 0" fill="#fcd770"/><path d="m395.039062 20.078125 4.960938 19.921875h-256l4.960938-19.921875c1.757812-7.117187 8.160156-12.078125 15.519531-12.078125h215.039062c7.359375 0 13.761719 4.960938 15.519531 12.078125zm0 0" fill="#aab2bd"/><path d="m485.199219 72h-189.199219v96h192v-80c0-5.601562-.960938-10.960938-2.800781-16zm0 0" fill="#69d6f4"/><path d="m136 72h-79.199219c-4.878906 6.480469-8.800781 13.761719-11.519531 21.601562l-26.082031 74.398438h180.800781v-96zm0 0" fill="#69d6f4"/><path d="m488 200v48h-16c-8.800781 0-16-7.199219-16-16v-16c0-8.800781 7.199219-16 16-16zm0 0" fill="#ffc729"/><path d="m16 192c13.28125 0 24 14.320312 24 32s-10.71875 32-24 32c-2.558594 0-5.039062-.71875-7.359375-1.679688-.402344-2-.640625-4.160156-.640625-6.320312v-42.558594c0-3.601562.640625-7.203125 1.761719-10.5625l.71875-1.917968c1.757812-.5625 3.597656-.960938 5.519531-.960938zm0 0" fill="#ffc729"/><path d="m104 232c26.480469 0 48 21.519531 48 48s-21.519531 48-48 48-48-21.519531-48-48 21.519531-48 48-48zm0 0" fill="#838f9b"/><path d="m392 232c26.480469 0 48 21.519531 48 48s-21.519531 48-48 48-48-21.519531-48-48 21.519531-48 48-48zm0 0" fill="#838f9b"/><path d="m120 280c0 8.835938-7.164062 16-16 16s-16-7.164062-16-16 7.164062-16 16-16 16 7.164062 16 16zm0 0" fill="#ccd1d9"/><path d="m408 280c0 8.835938-7.164062 16-16 16s-16-7.164062-16-16 7.164062-16 16-16 16 7.164062 16 16zm0 0" fill="#ccd1d9"/><path d="m392 256c-13.230469 0-24 10.769531-24 24s10.769531 24 24 24 24-10.769531 24-24-10.769531-24-24-24zm0 32c-4.414062 0-8-3.585938-8-8s3.585938-8 8-8 8 3.585938 8 8-3.585938 8-8 8zm0 0"/><path d="m104 256c-13.230469 0-24 10.769531-24 24s10.769531 24 24 24 24-10.769531 24-24-10.769531-24-24-24zm0 32c-4.414062 0-8-3.585938-8-8s3.585938-8 8-8 8 3.585938 8 8-3.585938 8-8 8zm0 0"/><path d="m440 32h-33.761719l-3.453125-13.824219c-2.664062-10.695312-12.25-18.175781-23.28125-18.175781h-215.007812c-11.03125 0-20.609375 7.480469-23.28125 18.175781l-3.453125 13.824219h-17c-37.347657 0-70.730469 23.679688-83.066407 58.929688l-35.457031 101.292968c-1.476562 4.273438-2.238281 8.714844-2.238281 13.21875v42.558594c0 22.054688 17.945312 40 40 40h8.640625c3.902344 27.089844 27.207031 48 55.359375 48s51.457031-20.910156 55.359375-48h177.28125c3.902344 27.089844 27.207031 48 55.359375 48s51.457031-20.910156 55.359375-48h8.640625c22.054688 0 40-17.945312 40-40v-160c0-30.878906-25.128906-56-56-56zm-328 192.640625v-48.640625h80v96h-32.640625c-3.527344-24.472656-22.886719-43.832031-47.359375-47.359375zm80-144.640625v80h-76.902344l26.664063-80zm96 48h-80v-48h80zm-80 16h32v128h-32zm48 0h32v128h-32zm48-64h48v80h-48zm64 0h48v80h-48zm64 0h47.191406c.527344 2.585938.808594 5.265625.808594 8v72h-48zm-275.273438-57.9375c.898438-3.566406 4.089844-6.0625 7.769532-6.0625h215.015625c3.679687 0 6.863281 2.496094 7.769531 6.0625l2.480469 9.9375h-235.523438zm283.273438 25.9375c13.015625 0 24.488281 6.34375 31.792969 16h-395.953125c12.496094-10.015625 28.160156-16 44.914062-16zm-387.191406 48.207031c2.046875-5.863281 4.96875-11.207031 8.328125-16.207031h63.765625l-26.671875 80h-67.75zm-36.808594 109.234375c0-1.808594.28125-3.578125.679688-5.328125 8.367187.558594 15.320312 11.222657 15.320312 23.886719 0 13.007812-7.328125 24-16 24zm5.65625 57.847656c14.945312-3.359374 26.34375-19.65625 26.34375-39.289062 0-19.558594-11.3125-35.824219-26.175781-39.265625l3.054687-8.734375h71.121094v16h-32v16h32v16.640625c-24.472656 3.527344-43.832031 22.886719-47.359375 47.359375h-8.640625c-7.398438 0-13.945312-3.433594-18.34375-8.710938zm82.34375 56.710938c-22.054688 0-40-17.945312-40-40s17.945312-40 40-40 40 17.945312 40 40-17.945312 40-40 40zm288 0c-22.054688 0-40-17.945312-40-40s17.945312-40 40-40 40 17.945312 40 40-17.945312 40-40 40zm64-48h-8.640625c-3.902344-27.089844-27.207031-48-55.359375-48s-51.457031 20.910156-55.359375 48h-32.640625v-96h176v16h-8c-13.230469 0-24 10.769531-24 24v16c0 13.230469 10.769531 24 24 24h6.527344c-3.3125 9.289062-12.113282 16-22.527344 16zm16-32c-4.414062 0-8-3.585938-8-8v-16c0-4.414062 3.585938-8 8-8h8v32zm0 0"/><path d="m320 192h16v16h-16zm0 0"/><path d="m352 192h16v16h-16zm0 0"/><path d="m384 192h16v16h-16zm0 0"/><path d="m160 192h16v16h-16zm0 0"/><path d="m128 192h16v16h-16zm0 0"/></svg>