<?xml version="1.0" encoding="UTF-8" standalone="no"?>
<svg width="77px" height="70px" viewBox="0 0 77 70" version="1.1" xmlns="http://www.w3.org/2000/svg" xmlns:xlink="http://www.w3.org/1999/xlink" xmlns:sketch="http://www.bohemiancoding.com/sketch/ns">
    <!-- Generator: Sketch Beta 3.3 (11970) - http://www.bohemiancoding.com/sketch -->
    <title>pig</title>
    <desc>Created with Sketch Beta.</desc>
    <defs>
        <linearGradient x1="50%" y1="0%" x2="50%" y2="97.9332749%" id="linearGradient-1">
            <stop stop-color="#01AF60" offset="0%"></stop>
            <stop stop-color="#65B44D" offset="100%"></stop>
        </linearGradient>
    </defs>
    <g id="Page-1" stroke="none" stroke-width="1" fill="none" fill-rule="evenodd" sketch:type="MSPage">
        <g id="index-copy" sketch:type="MSArtboardGroup" transform="translate(-681.000000, -991.000000)" fill="url(#linearGradient-1)">
            <g id="hotellook.ru" sketch:type="MSLayerGroup" transform="translate(271.000000, 815.000000)">
                <path d="M478.820859,224.430168 L476.91598,224.430168 C474.929103,224.430168 473.02927,225.463344 471.835882,227.194135 C471.829575,227.202965 471.82579,227.211796 471.819483,227.219365 C471.81696,227.223149 471.81696,227.228195 471.814437,227.23198 C471.809391,227.239549 471.804345,227.247118 471.798037,227.254687 C470.206012,229.591002 469.7279,232.492474 470.470929,235.264009 L471.346417,237.976254 C471.729915,239.124228 471.517982,240.315092 470.7308,241.408821 C468.7578,244.147558 463.38377,245.841764 459.536167,245.841764 C455.4678,245.841764 454.298381,244.079436 453.962819,243.028599 L453.334588,241.176703 C453.01038,239.974485 451.92422,239.257948 450.71191,239.384099 C450.706864,239.38536 450.700556,239.386622 450.69551,239.386622 C450.650096,239.391668 450.604682,239.394191 450.559267,239.394191 L450.559267,239.394191 C448.166184,239.642708 445.733994,239.621262 443.372449,239.327331 C442.223214,239.196134 441.152193,239.934117 440.853215,241.049291 L440.291843,242.917586 C439.75444,244.749297 437.741072,245.762289 434.625144,245.762289 C430.797725,245.762289 425.634367,244.181618 423.615953,241.537495 C422.790926,240.456381 422.526009,239.259209 422.850216,238.074652 L423.806441,234.794728 C424.524239,232.116544 424.044866,229.21255 422.489425,226.839651 C422.47681,226.820728 422.462933,226.803067 422.449057,226.784144 C422.442749,226.772791 422.441488,226.760176 422.43518,226.748822 C419.711581,222.633779 418.270938,217.906904 418.270938,213.076585 C418.270938,212.611088 418.321398,212.155683 418.346628,211.695232 C414.042359,211.109892 410.701882,207.448992 410.701882,202.985772 C410.701882,198.116346 414.663021,194.155207 419.532447,194.155207 C420.2288,194.155207 420.792695,194.719102 420.792695,195.416717 C420.792695,196.11307 420.2288,196.678226 419.532447,196.678226 C416.054466,196.678226 413.224901,199.507791 413.224901,202.985772 C413.224901,206.149637 415.575093,208.752131 418.616591,209.199967 C420.160679,199.655388 427.284422,191.749509 436.858015,188.362357 C436.789894,187.872891 436.741956,187.379641 436.741956,186.882607 C436.741956,181.070833 441.471355,176.341435 447.284389,176.341435 C453.097424,176.341435 457.82556,181.070833 457.82556,186.882607 C457.82556,187.379641 457.778885,187.872891 457.709502,188.361095 C458.977318,188.806408 460.216121,189.32615 461.408247,189.934197 C464.432084,186.414587 470.035709,185.115232 473.262649,185.115232 C475.30251,185.115232 476.500943,185.574421 476.924811,186.519292 C478.127029,189.199999 474.749969,195.651357 471.490229,198.462 C473.141544,200.510691 475.689793,201.724263 478.373023,201.724263 L478.820859,201.724263 C483.064576,201.724263 486.389914,206.711009 486.389914,213.076585 C486.389914,219.443422 483.064576,224.430168 478.820859,224.430168 L478.820859,224.430168 Z M455.302542,186.882607 C455.302542,182.461017 451.705979,178.864454 447.284389,178.864454 C442.861538,178.864454 439.264975,182.461017 439.264975,186.882607 C439.264975,187.124816 439.321743,187.359457 439.343188,187.599144 C441.867468,186.941898 444.530514,186.586152 447.284389,186.586152 C449.989065,186.586152 452.65968,186.940636 455.230636,187.609236 C455.252082,187.365765 455.302542,187.128601 455.302542,186.882607 L455.302542,186.882607 Z M478.820859,204.247281 L478.373023,204.247281 C474.785291,204.247281 471.381739,202.551813 469.268711,199.712156 C469.089577,199.471207 468.905396,199.234044 468.717431,198.999403 C468.487837,198.71304 468.393223,198.340895 468.461345,197.978842 C468.529466,197.616789 468.751492,197.302673 469.068131,197.118493 C471.897696,195.481054 474.92658,189.519161 474.68437,187.780801 C474.453514,187.715203 473.998109,187.636989 473.262649,187.636989 C470.459576,187.636989 465.167544,188.854346 462.903135,192.119131 L462.84006,192.231406 C462.481791,192.799085 461.74507,192.984527 461.159729,192.660319 C456.994226,190.336619 452.196706,189.10917 447.284389,189.10917 C432.677374,189.10917 420.792695,199.861014 420.792695,213.076585 C420.792695,217.423746 422.095834,221.681339 424.559562,225.390176 C424.570915,225.406576 424.578484,225.424237 424.588576,225.439375 C425.973713,227.51582 427.572046,229.251656 429.768333,231.055615 C430.306998,231.497143 430.385211,232.293155 429.943683,232.83182 C429.693904,233.134582 429.331851,233.29227 428.967275,233.29227 C428.684697,233.29227 428.402119,233.198919 428.167478,233.005908 C427.621244,232.556811 427.116641,232.110236 426.632221,231.6624 C426.69782,232.936525 426.571669,234.222003 426.236107,235.47342 L425.278622,238.760913 C425.213023,239.0006 425.170132,239.415636 425.621752,240.006023 C426.934983,241.729244 431.143378,243.239271 434.625144,243.239271 C436.658697,243.239271 437.720888,242.717006 437.87353,242.198526 L438.426071,240.359245 C438.624128,239.620001 439.006365,238.969062 439.498354,238.421567 C438.799478,238.217203 438.09934,237.995177 437.39668,237.735306 C436.743218,237.494358 436.408918,236.76899 436.649866,236.115528 C436.890814,235.460805 437.616182,235.126505 438.269644,235.368715 C440.381411,236.147066 442.47047,236.655454 444.480054,236.878741 C444.511592,236.882526 444.535561,236.901448 444.567098,236.906494 C446.504776,237.08689 448.4803,237.085629 450.424286,236.874957 C450.438162,236.873695 450.450777,236.873695 450.463392,236.872434 C452.259782,236.678161 454.037248,236.31737 455.747855,235.796366 C456.413932,235.59074 457.119115,235.967932 457.320957,236.63527 C457.52406,237.301347 457.149392,238.00653 456.483315,238.209633 C455.929512,238.377414 455.35931,238.498519 454.794154,238.637285 C455.226851,239.158288 455.566197,239.763813 455.749116,240.445028 L456.359687,242.240156 C456.57162,242.903709 457.814207,243.318746 459.536167,243.318746 C463.046947,243.318746 467.406723,241.705276 468.683371,239.934117 C469.080746,239.381576 469.035332,239.018261 468.949549,238.763436 L468.051354,235.976762 C467.701916,234.673623 467.568196,233.354084 467.63001,232.062299 C467.159467,232.457151 466.649818,232.853265 466.065739,233.268302 C465.843713,233.42599 465.59015,233.500419 465.336587,233.500419 C464.941734,233.500419 464.553189,233.316239 464.307195,232.969324 C463.903512,232.400383 464.038494,231.613202 464.606173,231.21078 C466.92735,229.563249 468.021078,228.271464 469.705193,225.845581 C469.716547,225.82792 469.726639,225.808998 469.737992,225.792598 C469.869189,225.60211 470.016786,225.428022 470.160598,225.250149 C470.188351,225.182027 470.198443,225.110121 470.238812,225.045784 C471.531859,223.021062 472.485559,220.843697 473.074684,218.575504 C473.248773,217.900596 473.938818,217.493129 474.612464,217.671001 C475.28611,217.846351 475.691055,218.533874 475.515705,219.208781 C475.24448,220.257095 474.886212,221.282702 474.476221,222.289387 C475.264664,222.048438 476.082122,221.907149 476.91598,221.907149 L478.820859,221.907149 C481.555811,221.907149 483.866896,217.864012 483.866896,213.076585 C483.866896,208.290419 481.555811,204.247281 478.820859,204.247281 L478.820859,204.247281 Z M459.89822,210.553566 C459.201867,210.553566 458.636711,209.989672 458.636711,209.292057 C458.636711,207.900612 457.506399,206.7703 456.114954,206.7703 C454.723509,206.7703 453.590674,207.900612 453.590674,209.292057 C453.590674,209.989672 453.026779,210.553566 452.330426,210.553566 C451.632812,210.553566 451.068917,209.989672 451.068917,209.292057 C451.068917,206.510429 453.332065,204.247281 456.114954,204.247281 C458.896582,204.247281 461.159729,206.510429 461.159729,209.292057 C461.159729,209.989672 460.594573,210.553566 459.89822,210.553566 L459.89822,210.553566 Z" id="pig" sketch:type="MSShapeGroup"></path>
            </g>
        </g>
    </g>
</svg>