<?xml version="1.0" encoding="UTF-8" standalone="no"?>
<svg width="60px" height="63px" viewBox="0 0 60 63" version="1.1" xmlns="http://www.w3.org/2000/svg" xmlns:xlink="http://www.w3.org/1999/xlink" xmlns:sketch="http://www.bohemiancoding.com/sketch/ns">
    <!-- Generator: Sketch Beta 3.3 (11970) - http://www.bohemiancoding.com/sketch -->
    <title>wallet</title>
    <desc>Created with Sketch Beta.</desc>
    <defs>
        <linearGradient x1="50%" y1="0%" x2="50%" y2="97.9332749%" id="linearGradient-1">
            <stop stop-color="#01AF60" offset="0%"></stop>
            <stop stop-color="#65B44D" offset="100%"></stop>
        </linearGradient>
    </defs>
    <g id="Page-1" stroke="none" stroke-width="1" fill="none" fill-rule="evenodd" sketch:type="MSPage">
        <g id="index-copy" sketch:type="MSArtboardGroup" transform="translate(-998.000000, -995.000000)" fill="url(#linearGradient-1)">
            <g id="hotellook.ru" sketch:type="MSLayerGroup" transform="translate(271.000000, 815.000000)">
                <path d="M783.977084,226.006472 L783.977084,237.749899 C783.977084,240.644805 781.621888,243 778.726983,243 L732.528192,243 C729.633287,243 727.278091,240.644805 727.278091,237.749899 L727.278091,193.650099 C727.278091,190.755193 729.633287,188.399998 732.528192,188.399998 L749.123762,188.399998 L763.56469,180.138438 C764.06555,179.852833 764.701862,180.022936 764.993768,180.521696 L769.583406,188.399998 L774.526902,188.399998 C777.421808,188.399998 779.777003,190.755193 779.777003,193.650099 L779.777003,196.906212 C782.169999,197.394471 783.977084,199.514462 783.977084,202.050261 L783.977084,213.793687 C785.197207,214.228395 786.077124,215.382368 786.077124,216.749494 L786.077124,223.049615 C786.077124,224.416742 785.197207,225.571764 783.977084,226.006472 L783.977084,226.006472 Z M732.528192,190.500038 C730.791459,190.500038 729.378132,191.913365 729.378132,193.650099 C729.378132,195.386832 730.791459,196.80016 732.528192,196.80016 L734.440279,196.80016 L745.452891,190.500038 L732.528192,190.500038 L732.528192,190.500038 Z M763.703293,182.478934 L749.924928,190.360385 C749.924928,190.361435 749.924928,190.361435 749.923878,190.361435 L738.669761,196.80016 L742.81104,196.80016 L758.408041,187.877088 C758.907851,187.592532 759.546263,187.761585 759.837119,188.260345 C760.394679,189.217963 761.437349,189.813325 762.557721,189.813325 C763.105832,189.813325 763.647642,189.668422 764.125401,189.395417 C764.625211,189.109811 765.262573,189.279915 765.553429,189.778674 L769.645358,196.80016 L772.046754,196.80016 L770.752079,194.578317 L768.072427,189.979228 L768.072427,189.978178 L763.703293,182.478934 L763.703293,182.478934 Z M747.040522,196.80016 L767.214561,196.80016 L764.211503,191.64561 C762.253215,192.294523 759.989372,191.670811 758.639046,190.164032 L747.040522,196.80016 L747.040522,196.80016 Z M777.676962,193.650099 C777.676962,191.913365 776.264685,190.500038 774.526902,190.500038 L770.80773,190.500038 L772.814319,193.945155 L774.477551,196.80016 L777.676962,196.80016 L777.676962,193.650099 L777.676962,193.650099 Z M781.877043,202.050261 C781.877043,200.312477 780.464766,198.9002 778.726983,198.9002 L773.873789,198.9002 L769.041596,198.9002 L743.090346,198.9002 L734.719585,198.9002 L732.528192,198.9002 C732.195336,198.9002 731.87088,198.861349 731.554824,198.801498 C731.454022,198.782598 731.35847,198.752147 731.259768,198.726947 C731.046614,198.673396 730.83766,198.611444 730.635006,198.532693 C730.528954,198.491742 730.427102,198.446591 730.3242,198.39829 C730.134146,198.310089 729.952493,198.210337 729.776089,198.100085 C729.684737,198.044434 729.593386,197.990883 729.507284,197.928931 C729.465283,197.899531 729.419082,197.87748 729.378132,197.84703 L729.378132,237.749899 C729.378132,239.486632 730.791459,240.89996 732.528192,240.89996 L778.726983,240.89996 C780.464766,240.89996 781.877043,239.486632 781.877043,237.749899 L781.877043,226.199676 L772.427911,226.199676 C770.690128,226.199676 769.277851,224.786349 769.277851,223.049615 L769.277851,216.749494 C769.277851,215.012761 770.690128,213.599433 772.427911,213.599433 L781.877043,213.599433 L781.877043,202.050261 L781.877043,202.050261 Z M783.977084,216.749494 C783.977084,216.170933 783.506675,215.699474 782.927064,215.699474 L772.427911,215.699474 C771.8483,215.699474 771.377891,216.170933 771.377891,216.749494 L771.377891,223.049615 C771.377891,223.628177 771.8483,224.099636 772.427911,224.099636 L782.927064,224.099636 C783.506675,224.099636 783.977084,223.628177 783.977084,223.049615 L783.977084,216.749494 L783.977084,216.749494 Z M775.577972,221.999595 C774.41875,221.999595 773.477932,221.057727 773.477932,219.899555 C773.477932,218.741382 774.41875,217.799514 775.577972,217.799514 C776.735094,217.799514 777.676962,218.741382 777.676962,219.899555 C777.676962,221.057727 776.735094,221.999595 775.577972,221.999595 L775.577972,221.999595 Z M774.526902,201.000241 C775.104413,201.000241 775.577972,201.4717 775.577972,202.050261 C775.577972,202.627772 775.104413,203.100281 774.526902,203.100281 C773.949391,203.100281 773.477932,202.627772 773.477932,202.050261 C773.477932,201.4717 773.949391,201.000241 774.526902,201.000241 L774.526902,201.000241 Z M779.472497,201.304746 C779.661501,201.50425 779.777003,201.777256 779.777003,202.050261 C779.777003,202.333766 779.661501,202.596271 779.472497,202.795775 C779.272993,202.983729 779.010488,203.100281 778.726983,203.100281 C778.453977,203.100281 778.180972,202.983729 777.981468,202.795775 C777.792465,202.596271 777.676962,202.333766 777.676962,202.050261 C777.676962,201.777256 777.792465,201.50425 777.981468,201.304746 C778.380476,200.916239 779.08399,200.916239 779.472497,201.304746 L779.472497,201.304746 Z M778.726983,205.200321 C779.304494,205.200321 779.777003,205.671781 779.777003,206.250342 C779.777003,206.826803 779.304494,207.300362 778.726983,207.300362 C778.149472,207.300362 777.676962,206.826803 777.676962,206.250342 C777.676962,205.671781 778.149472,205.200321 778.726983,205.200321 L778.726983,205.200321 Z M779.472497,209.704908 C779.661501,209.904412 779.777003,210.166917 779.777003,210.450423 C779.777003,210.733928 779.661501,210.996433 779.472497,211.195937 C779.272993,211.383891 779.010488,211.499393 778.726983,211.499393 C778.453977,211.499393 778.180972,211.383891 777.981468,211.195937 C777.792465,210.996433 777.676962,210.733928 777.676962,210.450423 C777.676962,210.166917 777.792465,209.904412 777.981468,209.704908 C778.380476,209.315351 779.08399,209.315351 779.472497,209.704908 L779.472497,209.704908 Z M770.327871,203.100281 C769.74931,203.100281 769.277851,202.627772 769.277851,202.050261 C769.277851,201.4717 769.74931,201.000241 770.327871,201.000241 C770.905382,201.000241 771.377891,201.4717 771.377891,202.050261 C771.377891,202.627772 770.905382,203.100281 770.327871,203.100281 L770.327871,203.100281 Z M766.12779,238.799919 C765.549229,238.799919 765.07777,238.32741 765.07777,237.749899 C765.07777,237.172388 765.549229,236.699879 766.12779,236.699879 C766.704251,236.699879 767.17781,237.172388 767.17781,237.749899 C767.17781,238.32741 766.704251,238.799919 766.12779,238.799919 L766.12779,238.799919 Z M766.12779,203.100281 C765.549229,203.100281 765.07777,202.627772 765.07777,202.050261 C765.07777,201.4717 765.549229,201.000241 766.12779,201.000241 C766.704251,201.000241 767.17781,201.4717 767.17781,202.050261 C767.17781,202.627772 766.704251,203.100281 766.12779,203.100281 L766.12779,203.100281 Z M761.927709,238.799919 C761.350198,238.799919 760.877689,238.32741 760.877689,237.749899 C760.877689,237.172388 761.350198,236.699879 761.927709,236.699879 C762.50522,236.699879 762.977729,237.172388 762.977729,237.749899 C762.977729,238.32741 762.50522,238.799919 761.927709,238.799919 L761.927709,238.799919 Z M761.927709,203.100281 C761.350198,203.100281 760.877689,202.627772 760.877689,202.050261 C760.877689,201.4717 761.350198,201.000241 761.927709,201.000241 C762.50522,201.000241 762.977729,201.4717 762.977729,202.050261 C762.977729,202.627772 762.50522,203.100281 761.927709,203.100281 L761.927709,203.100281 Z M757.727628,238.799919 C757.150117,238.799919 756.677608,238.32741 756.677608,237.749899 C756.677608,237.172388 757.150117,236.699879 757.727628,236.699879 C758.305139,236.699879 758.777648,237.172388 758.777648,237.749899 C758.777648,238.32741 758.305139,238.799919 757.727628,238.799919 L757.727628,238.799919 Z M757.727628,203.100281 C757.150117,203.100281 756.677608,202.627772 756.677608,202.050261 C756.677608,201.4717 757.150117,201.000241 757.727628,201.000241 C758.305139,201.000241 758.777648,201.4717 758.777648,202.050261 C758.777648,202.627772 758.305139,203.100281 757.727628,203.100281 L757.727628,203.100281 Z M753.527547,238.799919 C752.950036,238.799919 752.477527,238.32741 752.477527,237.749899 C752.477527,237.172388 752.950036,236.699879 753.527547,236.699879 C754.105058,236.699879 754.577567,237.172388 754.577567,237.749899 C754.577567,238.32741 754.105058,238.799919 753.527547,238.799919 L753.527547,238.799919 Z M753.527547,203.100281 C752.950036,203.100281 752.477527,202.627772 752.477527,202.050261 C752.477527,201.4717 752.950036,201.000241 753.527547,201.000241 C754.105058,201.000241 754.577567,201.4717 754.577567,202.050261 C754.577567,202.627772 754.105058,203.100281 753.527547,203.100281 L753.527547,203.100281 Z M749.328516,238.799919 C748.749955,238.799919 748.278496,238.32741 748.278496,237.749899 C748.278496,237.172388 748.749955,236.699879 749.328516,236.699879 C749.904977,236.699879 750.377486,237.172388 750.377486,237.749899 C750.377486,238.32741 749.904977,238.799919 749.328516,238.799919 L749.328516,238.799919 Z M749.328516,203.100281 C748.749955,203.100281 748.278496,202.627772 748.278496,202.050261 C748.278496,201.4717 748.749955,201.000241 749.328516,201.000241 C749.904977,201.000241 750.377486,201.4717 750.377486,202.050261 C750.377486,202.627772 749.904977,203.100281 749.328516,203.100281 L749.328516,203.100281 Z M745.127385,238.799919 C744.549874,238.799919 744.078415,238.32741 744.078415,237.749899 C744.078415,237.172388 744.549874,236.699879 745.127385,236.699879 C745.704896,236.699879 746.177405,237.172388 746.177405,237.749899 C746.177405,238.32741 745.704896,238.799919 745.127385,238.799919 L745.127385,238.799919 Z M745.127385,203.100281 C744.549874,203.100281 744.078415,202.627772 744.078415,202.050261 C744.078415,201.4717 744.549874,201.000241 745.127385,201.000241 C745.704896,201.000241 746.177405,201.4717 746.177405,202.050261 C746.177405,202.627772 745.704896,203.100281 745.127385,203.100281 L745.127385,203.100281 Z M740.928354,238.799919 C740.349793,238.799919 739.878334,238.32741 739.878334,237.749899 C739.878334,237.172388 740.349793,236.699879 740.928354,236.699879 C741.505865,236.699879 741.978374,237.172388 741.978374,237.749899 C741.978374,238.32741 741.505865,238.799919 740.928354,238.799919 L740.928354,238.799919 Z M740.928354,203.100281 C740.349793,203.100281 739.878334,202.627772 739.878334,202.050261 C739.878334,201.4717 740.349793,201.000241 740.928354,201.000241 C741.505865,201.000241 741.978374,201.4717 741.978374,202.050261 C741.978374,202.627772 741.505865,203.100281 740.928354,203.100281 L740.928354,203.100281 Z M736.728273,238.799919 C736.150762,238.799919 735.678253,238.32741 735.678253,237.749899 C735.678253,237.172388 736.150762,236.699879 736.728273,236.699879 C737.305784,236.699879 737.778293,237.172388 737.778293,237.749899 C737.778293,238.32741 737.305784,238.799919 736.728273,238.799919 L736.728273,238.799919 Z M736.728273,203.100281 C736.150762,203.100281 735.678253,202.627772 735.678253,202.050261 C735.678253,201.4717 736.150762,201.000241 736.728273,201.000241 C737.305784,201.000241 737.778293,201.4717 737.778293,202.050261 C737.778293,202.627772 737.305784,203.100281 736.728273,203.100281 L736.728273,203.100281 Z M732.528192,238.799919 C732.255187,238.799919 731.982182,238.683367 731.782678,238.495413 C731.593674,238.295909 731.478172,238.022904 731.478172,237.749899 C731.478172,237.475844 731.593674,237.203888 731.782678,237.004384 C732.171185,236.615877 732.885199,236.615877 733.273707,237.004384 C733.46271,237.203888 733.578213,237.475844 733.578213,237.749899 C733.578213,238.022904 733.46271,238.295909 733.273707,238.495413 C733.074203,238.683367 732.801198,238.799919 732.528192,238.799919 L732.528192,238.799919 Z M732.528192,203.100281 C732.255187,203.100281 731.982182,202.983729 731.782678,202.795775 C731.593674,202.596271 731.478172,202.323266 731.478172,202.050261 C731.478172,201.777256 731.593674,201.50425 731.782678,201.304746 C732.181686,200.916239 732.874699,200.916239 733.273707,201.304746 C733.46271,201.50425 733.578213,201.777256 733.578213,202.050261 C733.578213,202.323266 733.46271,202.596271 733.273707,202.795775 C733.074203,202.983729 732.801198,203.100281 732.528192,203.100281 L732.528192,203.100281 Z M770.327871,236.699879 C770.905382,236.699879 771.377891,237.172388 771.377891,237.749899 C771.377891,238.32741 770.905382,238.799919 770.327871,238.799919 C769.74931,238.799919 769.277851,238.32741 769.277851,237.749899 C769.277851,237.172388 769.74931,236.699879 770.327871,236.699879 L770.327871,236.699879 Z M774.526902,236.699879 C775.104413,236.699879 775.577972,237.172388 775.577972,237.749899 C775.577972,238.32741 775.104413,238.799919 774.526902,238.799919 C773.949391,238.799919 773.477932,238.32741 773.477932,237.749899 C773.477932,237.172388 773.949391,236.699879 774.526902,236.699879 L774.526902,236.699879 Z M779.472497,228.604223 C779.661501,228.803726 779.777003,229.076732 779.777003,229.349737 C779.777003,229.622742 779.661501,229.895747 779.472497,230.095251 C779.272993,230.284255 778.999988,230.399757 778.726983,230.399757 C778.453977,230.399757 778.180972,230.284255 777.981468,230.095251 C777.792465,229.895747 777.676962,229.622742 777.676962,229.349737 C777.676962,229.076732 777.792465,228.803726 777.981468,228.604223 C778.380476,228.215715 779.08399,228.215715 779.472497,228.604223 L779.472497,228.604223 Z M778.726983,232.499798 C779.304494,232.499798 779.777003,232.972307 779.777003,233.549818 C779.777003,234.127329 779.304494,234.599838 778.726983,234.599838 C778.149472,234.599838 777.676962,234.127329 777.676962,233.549818 C777.676962,232.972307 778.149472,232.499798 778.726983,232.499798 L778.726983,232.499798 Z M779.472497,237.004384 C779.661501,237.203888 779.777003,237.475844 779.777003,237.749899 C779.777003,238.022904 779.661501,238.295909 779.472497,238.495413 C779.272993,238.683367 778.999988,238.799919 778.726983,238.799919 C778.453977,238.799919 778.180972,238.683367 777.981468,238.495413 C777.792465,238.295909 777.676962,238.022904 777.676962,237.749899 C777.676962,237.475844 777.792465,237.203888 777.981468,237.004384 C778.380476,236.615877 779.08399,236.615877 779.472497,237.004384 L779.472497,237.004384 Z" id="wallet" sketch:type="MSShapeGroup"></path>
            </g>
        </g>
    </g>
</svg>