<?xml version="1.0" encoding="UTF-8" standalone="no"?>
<svg width="62px" height="62px" viewBox="0 0 62 62" version="1.1" xmlns="http://www.w3.org/2000/svg" xmlns:xlink="http://www.w3.org/1999/xlink" xmlns:sketch="http://www.bohemiancoding.com/sketch/ns">
    <!-- Generator: Sketch Beta 3.3 (11970) - http://www.bohemiancoding.com/sketch -->
    <title>search</title>
    <desc>Created with Sketch Beta.</desc>
    <defs>
        <linearGradient x1="50%" y1="0%" x2="50%" y2="97.9332749%" id="linearGradient-1">
            <stop stop-color="#01AF60" offset="0%"></stop>
            <stop stop-color="#65B44D" offset="100%"></stop>
        </linearGradient>
    </defs>
    <g id="Page-1" stroke="none" stroke-width="1" fill="none" fill-rule="evenodd" sketch:type="MSPage">
        <g id="index-copy" sketch:type="MSArtboardGroup" transform="translate(-391.000000, -999.000000)" fill="url(#linearGradient-1)">
            <g id="hotellook.ru" sketch:type="MSLayerGroup" transform="translate(271.000000, 815.000000)">
                <path d="M158.56314,184.671156 C145.944703,184.671156 135.714002,194.93993 135.714002,207.605325 C135.714002,211.477377 136.679378,215.121999 138.370214,218.323227 L122.482447,234.266297 L122.495776,234.277764 C121.254306,235.502831 120.481243,237.199959 120.481243,239.086295 C120.481243,242.811186 123.489713,245.830852 127.200794,245.830852 C129.076327,245.830852 130.769068,245.054912 131.989592,243.806911 L131.985784,243.803089 L147.867839,227.863841 C151.059102,229.566703 154.695923,230.539494 158.56314,230.539494 C171.181576,230.539494 181.412278,220.27072 181.412278,207.605325 C181.412278,194.93993 171.181576,184.671156 158.56314,184.671156 L158.56314,184.671156 Z M126.356602,243.464259 C124.749928,243.251642 122.836158,241.884674 122.836158,239.932716 C122.836158,238.935716 123.006726,238.047873 123.437198,237.226996 L139.507577,221.062778 C140.91376,222.966688 143.318231,225.110349 145.211093,226.525769 L129.128746,242.667965 C128.338244,243.171652 127.341341,243.594574 126.356602,243.464259 Z M138.453226,207.837965 C138.453226,196.82155 147.353734,187.88792 158.329304,187.88792 C169.302886,187.88792 178.205381,196.82155 178.205381,207.837965 C178.205381,218.852384 169.302886,227.788009 158.329304,227.788009 C147.353734,227.788009 138.453226,218.852384 138.453226,207.837965 Z M158.56314,194.22706 C151.200005,194.22706 145.234476,200.2167 145.234476,207.605325 C145.234476,208.132811 145.660993,208.560915 146.186523,208.560915 C146.712054,208.560915 147.138571,208.132811 147.138571,207.605325 C147.138571,201.273583 152.25297,196.13824 158.56314,196.13824 C159.086766,196.13824 159.515187,195.710136 159.515187,195.18265 C159.515187,194.655164 159.086766,194.22706 158.56314,194.22706 Z" id="search" sketch:type="MSShapeGroup"></path>
            </g>
        </g>
    </g>
</svg>