<svg id="Capa_1" enable-background="new 0 0 512 512" height="512" viewBox="0 0 512 512" width="512" xmlns="http://www.w3.org/2000/svg"><g><g><g><g><circle cx="256" cy="261.985" fill="#23f1a8" r="197.313"/><path d="m74.048 338.396c9.147 21.746 22.067 41.514 37.957 58.47h287.99c15.89-16.957 28.81-36.725 37.957-58.47z" fill="#26d192"/><path d="m453.308 261.985c0 108.977-88.331 197.308-197.308 197.308-7.14 0-14.182-.382-21.126-1.123 99.024-10.541 176.171-94.348 176.171-196.185s-77.147-185.644-176.171-196.185c6.944-.741 13.986-1.123 21.126-1.123 108.977 0 197.308 88.331 197.308 197.308z" fill="#26d192"/><circle cx="256" cy="261.985" fill="#127e73" r="161.344"/><g fill="#0c6e65"><path d="m113.886 338.396c12.748 23.652 31.214 43.767 53.565 58.47h177.099c22.351-14.703 40.817-34.818 53.564-58.47z"/><path d="m417.345 261.985c0 89.105-72.241 161.345-161.345 161.345-7.816 0-15.501-.556-23.023-1.635 78.193-11.174 138.312-78.422 138.312-159.71s-60.119-148.537-138.312-159.71c7.522-1.079 15.207-1.635 23.023-1.635 89.105-.001 161.345 72.24 161.345 161.345z"/></g></g><g><g><path d="m222.127 57.955-54.848 54.848c-3.225 3.225-3.101 8.491.272 11.561l32.095 29.209c3.354 3.052 8.572 2.705 11.492-.764l15.884-18.873v199.022h60.698v-271.693c0-4.413-3.578-7.991-7.991-7.991h-46.303c-4.237 0-8.302 1.684-11.299 4.681z" fill="#fcb44d"/></g><g><path d="m287.722 61.265v271.696h-28.582v-271.696c0-4.415-3.586-7.99-7.99-7.99h28.582c4.414 0 7.99 3.575 7.99 7.99z" fill="#fb9927"/></g></g></g><g><path d="m494.5 372.721h-477c-5.523 0-10-4.477-10-10v-79.985c0-5.523 4.477-10 10-10h477c5.523 0 10 4.477 10 10v79.985c0 5.522-4.477 10-10 10z" fill="#bc83df"/><path d="m504.5 282.734v79.99c0 5.52-4.48 10-10 10h-33.21c5.53 0 10-4.48 10-10v-79.99c0-5.52-4.47-10-10-10h33.21c5.52 0 10 4.48 10 10z" fill="#ae6ad8"/></g><g><g><path d="m347.518 240.155-14.386 5.116c-2.754.979-5.632-1.112-5.552-4.033l.42-15.263-9.311-12.101c-1.782-2.316-.683-5.7 2.121-6.526l14.646-4.317 8.632-12.595c1.652-2.411 5.21-2.411 6.862 0l8.631 12.595 14.646 4.317c2.803.826 3.903 4.21 2.121 6.526l-9.311 12.101.42 15.263c.08 2.921-2.798 5.013-5.552 4.033z" fill="#fdef63"/><path d="m376.348 213.87-9.314 12.104.42 15.265c.081 2.919-2.798 5.013-5.547 4.035l-14.392-5.118-14.384 5.118c-2.757.978-5.635-1.116-5.555-4.035l.348-12.565c15.985 1.56 30.708-9.144 34.08-24.935l12.225 3.606c2.798.825 3.897 4.212 2.119 6.525z" fill="#f3d730"/></g><g><path d="m164.482 240.155-14.386 5.116c-2.754.979-5.632-1.112-5.552-4.033l.42-15.263-9.311-12.101c-1.782-2.316-.683-5.7 2.121-6.526l14.646-4.317 8.632-12.595c1.652-2.411 5.21-2.411 6.862 0l8.631 12.595 14.646 4.317c2.803.826 3.903 4.21 2.121 6.526l-9.312 12.1.42 15.263c.08 2.921-2.798 5.013-5.552 4.033z" fill="#fdef63"/><path d="m193.312 213.87-9.314 12.104.42 15.265c.081 2.919-2.798 5.013-5.547 4.035l-14.392-5.118-14.384 5.118c-2.757.978-5.635-1.116-5.555-4.035l.348-12.565c15.985 1.56 30.708-9.144 34.08-24.935l12.225 3.606c2.798.825 3.898 4.212 2.119 6.525z" fill="#f3d730"/></g></g></g><g><path d="m494.5 265.236h-33.72c.017-1.085.033-2.171.033-3.251 0-48.752-17.42-95.984-49.05-132.996-30.13-35.256-71.357-59.283-116.558-68.06-.181-8.386-7.046-15.155-15.474-15.155h-46.303c-6.272 0-12.169 2.442-16.604 6.878l-10.629 10.629c-43.329 10.833-82.541 36.092-110.521 71.241-29.103 36.56-44.486 80.636-44.486 127.463 0 1.08.016 2.166.033 3.251h-33.721c-9.649 0-17.5 7.851-17.5 17.5v79.985c0 9.649 7.851 17.5 17.5 17.5h71.253c34.567 48.806 88.368 80.016 147.676 85.641.241.023.48.034.717.034 3.823 0 7.089-2.91 7.458-6.792.391-4.124-2.634-7.783-6.758-8.174-51.357-4.872-98.259-30.458-130.331-70.708h28.022c.176.223.363.441.568.647 31.947 32.218 74.527 49.96 119.896 49.96 45.753 0 88.507-17.969 120.521-50.608h27.967c-32.876 41.315-81.031 67.013-133.918 71.026-4.13.313-7.225 3.916-6.911 8.046.299 3.938 3.586 6.933 7.471 6.933.19 0 .383-.007.575-.022 60.97-4.626 116.106-35.945 151.534-85.983h71.26c9.649 0 17.5-7.851 17.5-17.5v-79.985c0-9.65-7.851-17.5-17.5-17.5zm-94.141-126.502c29.311 34.297 45.453 78.068 45.453 123.25 0 1.08-.015 2.166-.033 3.251h-20.976c.021-1.085.04-2.172.04-3.251 0-39.1-13.674-77.22-38.504-107.337-23.396-28.378-55.597-48.447-91.118-56.915v-21.498c40.753 8.577 77.851 30.57 105.138 62.5zm-172.929-75.475c1.602-1.602 3.732-2.484 5.998-2.484h46.303c.271 0 .491.22.491.491v203.97h-45.699v-131.3c0-3.151-1.97-5.966-4.93-7.046-2.959-1.079-6.279-.194-8.309 2.216l-15.883 18.873c-.037.044-.135.16-.344.174-.217.016-.321-.089-.363-.127l-32.095-29.209c-.042-.039-.156-.141-.161-.352s.104-.318.144-.359zm-161.243 198.726c0-43.398 14.254-84.244 41.222-118.121 19.904-25.004 45.936-44.604 75.112-56.909l-20.546 20.545c-2.979 2.98-4.631 7.105-4.532 11.318.043 1.83.434 3.621 1.097 5.303-10.164 7.199-19.533 15.495-27.898 24.761-2.776 3.075-2.534 7.817.541 10.593 1.435 1.295 3.232 1.933 5.023 1.933 2.048 0 4.089-.834 5.569-2.474 7.994-8.854 16.982-16.751 26.767-23.526l26.055 23.712c3.145 2.862 7.22 4.281 11.454 4 4.242-.282 8.086-2.229 10.825-5.482l2.646-3.144v110.741h-117.325c-.022-1.085-.041-2.17-.041-3.251 0-27.075 7.133-53.699 20.628-76.995 2.076-3.584.854-8.173-2.73-10.249-3.583-2.075-8.172-.854-10.249 2.73-14.817 25.577-22.649 54.801-22.649 84.513 0 1.081.02 2.166.041 3.251h-20.977c-.018-1.083-.033-2.169-.033-3.249zm189.813 153.844c-36.417 0-70.857-12.552-98.443-35.608h196.893c-27.572 23.065-61.965 35.608-98.45 35.608zm241-53.108c0 1.378-1.121 2.5-2.5 2.5h-477c-1.378 0-2.5-1.122-2.5-2.5v-79.985c0-1.378 1.122-2.5 2.5-2.5h321.114c4.143 0 7.5-3.358 7.5-7.5s-3.357-7.5-7.5-7.5h-43.393v-152.04c30.98 8.166 58.988 26.058 79.545 50.993 22.62 27.438 35.077 62.169 35.077 97.795 0 1.079-.018 2.165-.04 3.251h-37.189c-4.143 0-7.5 3.358-7.5 7.5s3.357 7.5 7.5 7.5h121.886c1.379 0 2.5 1.122 2.5 2.5z"/><path d="m68.097 317.632h-9.511c-4.142 0-7.5 3.358-7.5 7.5 0 2.912 1.663 5.431 4.089 6.674-.875 1.27-2.336 2.107-3.991 2.107-2.672 0-4.846-2.174-4.846-4.846v-15.309c0-2.672 2.174-4.846 4.846-4.846 1.891 0 3.081 1.019 3.622 1.626 2.754 3.094 7.497 3.368 10.589.614 3.094-2.755 3.369-7.496.614-10.589-3.764-4.228-9.167-6.652-14.825-6.652-10.943 0-19.846 8.903-19.846 19.846v15.309c0 10.943 8.903 19.846 19.846 19.846 9.897 0 18.102-7.291 19.584-16.779 2.822-1.077 4.829-3.802 4.829-7.002 0-4.141-3.358-7.499-7.5-7.499z"/><path d="m211.188 312.429c0-10.21-8.307-18.517-18.517-18.517h-13.218c-4.142 0-7.5 3.358-7.5 7.5v40c0 4.142 3.358 7.5 7.5 7.5s7.5-3.358 7.5-7.5v-10.466h3.743l6.164 13.568c1.256 2.766 3.981 4.4 6.833 4.4 1.037 0 2.092-.217 3.098-.674 3.771-1.713 5.439-6.159 3.726-9.93l-5.504-12.115c3.78-3.393 6.175-8.299 6.175-13.766zm-24.234-3.517h5.718c1.939 0 3.517 1.578 3.517 3.517s-1.578 3.517-3.517 3.517h-5.718z"/><path d="m146.718 293.912c-10.943 0-19.846 8.903-19.846 19.846v27.654c0 4.142 3.358 7.5 7.5 7.5s7.5-3.358 7.5-7.5v-7.385h9.691v7.385c0 4.142 3.358 7.5 7.5 7.5s7.5-3.358 7.5-7.5v-27.654c0-10.943-8.902-19.846-19.845-19.846zm-4.846 25.115v-5.27c0-2.672 2.174-4.846 4.846-4.846s4.846 2.174 4.846 4.846v5.27z"/><path d="m235.28 293.912c-10.943 0-19.846 8.903-19.846 19.846v27.654c0 4.142 3.358 7.5 7.5 7.5s7.5-3.358 7.5-7.5v-7.385h9.691v7.385c0 4.142 3.358 7.5 7.5 7.5s7.5-3.358 7.5-7.5v-27.654c.001-10.943-8.902-19.846-19.845-19.846zm-4.845 25.115v-5.27c0-2.672 2.174-4.846 4.846-4.846s4.846 2.174 4.846 4.846v5.27z"/><path d="m113.057 295.229c-4.142 0-7.5 3.358-7.5 7.5v27.654c0 2.672-2.174 4.846-4.846 4.846s-4.846-2.174-4.846-4.846v-27.654c0-4.142-3.358-7.5-7.5-7.5s-7.5 3.358-7.5 7.5v27.654c0 10.943 8.903 19.846 19.846 19.846s19.846-8.903 19.846-19.846v-27.654c0-4.143-3.358-7.5-7.5-7.5z"/><path d="m292.728 293.912c-4.143 0-7.5 3.358-7.5 7.5v13.572l-10.81-17.511c-1.761-2.854-5.202-4.191-8.43-3.276-3.226.916-5.452 3.862-5.452 7.215v40c0 4.142 3.357 7.5 7.5 7.5s7.5-3.358 7.5-7.5v-13.572l10.81 17.511.006-.004c1.322 2.136 3.679 3.564 6.376 3.564 4.143 0 7.5-3.358 7.5-7.5v-40c0-4.141-3.358-7.499-7.5-7.499z"/><path d="m337.759 293.912h-24.691c-4.143 0-7.5 3.358-7.5 7.5s3.357 7.5 7.5 7.5h4.846v32.5c0 4.142 3.357 7.5 7.5 7.5s7.5-3.358 7.5-7.5v-32.5h4.846c4.143 0 7.5-3.358 7.5-7.5s-3.359-7.5-7.501-7.5z"/><path d="m382.461 308.912c4.143 0 7.5-3.358 7.5-7.5s-3.357-7.5-7.5-7.5h-24.691c-4.143 0-7.5 3.358-7.5 7.5v40c0 4.142 3.357 7.5 7.5 7.5h24.691c4.143 0 7.5-3.358 7.5-7.5s-3.357-7.5-7.5-7.5h-17.191v-5h11.76c4.143 0 7.5-3.358 7.5-7.5s-3.357-7.5-7.5-7.5h-11.76v-5z"/><path d="m427.816 308.912c4.143 0 7.5-3.358 7.5-7.5s-3.357-7.5-7.5-7.5h-24.691c-4.143 0-7.5 3.358-7.5 7.5v40c0 4.142 3.357 7.5 7.5 7.5h24.691c4.143 0 7.5-3.358 7.5-7.5s-3.357-7.5-7.5-7.5h-17.191v-5h11.759c4.143 0 7.5-3.358 7.5-7.5s-3.357-7.5-7.5-7.5h-11.759v-5z"/><path d="m460.816 293.912h-12.346c-4.143 0-7.5 3.358-7.5 7.5v40c0 4.142 3.357 7.5 7.5 7.5h12.346c10.943 0 19.846-8.903 19.846-19.846v-15.309c0-10.942-8.902-19.845-19.846-19.845zm4.846 35.154c0 2.672-2.174 4.846-4.846 4.846h-4.846v-25h4.846c2.672 0 4.846 2.174 4.846 4.846z"/><path d="m363.299 253.012c2.428 0 4.831-.759 6.851-2.227 3.113-2.261 4.909-5.907 4.804-9.754l-.347-12.597 7.685-9.988c2.346-3.049 3.037-7.054 1.848-10.713-1.188-3.659-4.102-6.493-7.792-7.581l-12.088-3.563-7.123-10.394c-2.175-3.174-5.771-5.068-9.617-5.068-3.848 0-7.443 1.895-9.618 5.068l-7.124 10.395-12.087 3.563c-3.69 1.087-6.604 3.921-7.792 7.58-1.189 3.659-.499 7.665 1.848 10.714l7.685 9.988-.347 12.597c-.105 3.846 1.689 7.492 4.802 9.753s7.135 2.841 10.76 1.553l11.873-4.222 11.873 4.222c1.27.452 2.591.674 3.906.674zm-15.781-20.357c-.85 0-1.7.145-2.513.434l-9.794 3.482.286-10.391c.048-1.724-.501-3.412-1.553-4.779l-6.339-8.239 9.971-2.939c1.654-.488 3.09-1.531 4.065-2.954l5.876-8.574 5.876 8.574c.976 1.423 2.411 2.466 4.066 2.954l9.971 2.939-6.339 8.238c-1.052 1.367-1.601 3.055-1.553 4.779l.286 10.391-9.795-3.482c-.811-.289-1.662-.433-2.511-.433z"/><path d="m137.394 228.434-.347 12.596c-.106 3.846 1.688 7.492 4.801 9.753 3.113 2.262 7.137 2.843 10.761 1.553l11.873-4.222 11.873 4.222c1.272.453 2.594.675 3.908.675 2.429 0 4.832-.76 6.852-2.227 3.113-2.261 4.908-5.907 4.803-9.753l-.347-12.597 7.685-9.988c2.346-3.049 3.037-7.054 1.848-10.713s-4.102-6.493-7.792-7.58l-12.088-3.563-7.124-10.394c-2.175-3.174-5.771-5.068-9.618-5.068s-7.443 1.895-9.618 5.068l-7.124 10.394-12.087 3.563c-3.69 1.088-6.604 3.921-7.792 7.58-1.189 3.659-.499 7.665 1.848 10.714zm17.146-18.211c1.655-.488 3.091-1.531 4.066-2.954l5.876-8.574 5.876 8.574c.975 1.423 2.411 2.466 4.066 2.954l9.971 2.939-6.338 8.238c-1.052 1.367-1.601 3.056-1.553 4.78l.286 10.391-9.794-3.482c-.813-.289-1.663-.434-2.513-.434s-1.7.145-2.513.434l-9.793 3.482.286-10.391c.047-1.724-.501-3.413-1.553-4.78l-6.339-8.238z"/></g></g></svg>